<?xml version="1.0" encoding="UTF-8" standalone="no"?>
<!DOCTYPE svg PUBLIC "-//W3C//DTD SVG 1.1//EN"
 "http://www.w3.org/Graphics/SVG/1.1/DTD/svg11.dtd">
<!-- Generated by graphviz version 2.43.0 (0)
 -->
<!-- Title: src/allegro_interface.cpp Pages: 1 -->
<svg width="1888pt" height="565pt"
 viewBox="0.00 0.00 1888.00 565.00" xmlns="http://www.w3.org/2000/svg" xmlns:xlink="http://www.w3.org/1999/xlink">
<g id="graph0" class="graph" transform="scale(1 1) rotate(0) translate(4 561)">
<title>src/allegro_interface.cpp</title>
<polygon fill="white" stroke="transparent" points="-4,4 -4,-561 1884,-561 1884,4 -4,4"/>
<!-- Node1 -->
<g id="node1" class="node">
<title>Node1</title>
<g id="a_node1"><a xlink:title="Implementação do controlador principal que integra Allegro às lógicas de estado do jogo.">
<polygon fill="#bfbfbf" stroke="black" points="1412.5,-537.5 1412.5,-556.5 1549.5,-556.5 1549.5,-537.5 1412.5,-537.5"/>
<text text-anchor="middle" x="1481" y="-544.5" font-family="Helvetica,sans-Serif" font-size="10.00">src/allegro_interface.cpp</text>
</a>
</g>
</g>
<!-- Node2 -->
<g id="node2" class="node">
<title>Node2</title>
<g id="a_node2"><a xlink:href="allegro__interface_8hpp.html" target="_top" xlink:title="Declara o controlador que integra Allegro e a máquina de estados.">
<polygon fill="white" stroke="black" points="1217,-470.5 1217,-500.5 1315,-500.5 1315,-470.5 1217,-470.5"/>
<text text-anchor="start" x="1225" y="-488.5" font-family="Helvetica,sans-Serif" font-size="10.00">../include/allegro</text>
<text text-anchor="middle" x="1266" y="-477.5" font-family="Helvetica,sans-Serif" font-size="10.00">_interface.hpp</text>
</a>
</g>
</g>
<!-- Node1&#45;&gt;Node2 -->
<g id="edge1" class="edge">
<title>Node1&#45;&gt;Node2</title>
<path fill="none" stroke="midnightblue" d="M1450.2,-537.48C1417.59,-528.45 1365.33,-513.99 1324.79,-502.77"/>
<polygon fill="midnightblue" stroke="midnightblue" points="1325.59,-499.36 1315.02,-500.07 1323.73,-506.11 1325.59,-499.36"/>
</g>
<!-- Node20 -->
<g id="node20" class="node">
<title>Node20</title>
<g id="a_node20"><a xlink:href="init_8hpp.html" target="_top" xlink:title="Declara funções de inicialização e finalização do Allegro.">
<polygon fill="white" stroke="black" points="761.5,-235.5 761.5,-254.5 814.5,-254.5 814.5,-235.5 761.5,-235.5"/>
<text text-anchor="middle" x="788" y="-242.5" font-family="Helvetica,sans-Serif" font-size="10.00">init.hpp</text>
</a>
</g>
</g>
<!-- Node1&#45;&gt;Node20 -->
<g id="edge65" class="edge">
<title>Node1&#45;&gt;Node20</title>
<path fill="none" stroke="midnightblue" d="M1412.28,-543.56C1208.06,-535.41 619,-504.95 619,-425 619,-425 619,-425 619,-367 619,-302.35 701.77,-268.93 751.46,-254.69"/>
<polygon fill="midnightblue" stroke="midnightblue" points="752.5,-258.03 761.22,-252.01 750.65,-251.28 752.5,-258.03"/>
</g>
<!-- Node30 -->
<g id="node30" class="node">
<title>Node30</title>
<g id="a_node30"><a xlink:href="state_8hpp.html" target="_top" xlink:title="Interface base para estados da máquina de estados do jogo.">
<polygon fill="white" stroke="black" points="1638,-179.5 1638,-198.5 1700,-198.5 1700,-179.5 1638,-179.5"/>
<text text-anchor="middle" x="1669" y="-186.5" font-family="Helvetica,sans-Serif" font-size="10.00">state.hpp</text>
</a>
</g>
</g>
<!-- Node1&#45;&gt;Node30 -->
<g id="edge66" class="edge">
<title>Node1&#45;&gt;Node30</title>
<path fill="none" stroke="midnightblue" d="M1549.59,-539.43C1663.67,-526.58 1880,-493.22 1880,-425 1880,-425 1880,-425 1880,-305.5 1880,-228.91 1771.72,-202.78 1710.29,-194.12"/>
<polygon fill="midnightblue" stroke="midnightblue" points="1710.5,-190.62 1700.13,-192.79 1709.59,-197.56 1710.5,-190.62"/>
</g>
<!-- Node34 -->
<g id="node34" class="node">
<title>Node34</title>
<g id="a_node34"><a xlink:href="main__menu_8hpp.html" target="_top" xlink:title="Definição da classe MainMenu, o estado que representa o menu principal do jogo.">
<polygon fill="white" stroke="black" points="1562,-291.5 1562,-321.5 1684,-321.5 1684,-291.5 1562,-291.5"/>
<text text-anchor="start" x="1570" y="-309.5" font-family="Helvetica,sans-Serif" font-size="10.00">../include/states/main</text>
<text text-anchor="middle" x="1623" y="-298.5" font-family="Helvetica,sans-Serif" font-size="10.00">_menu.hpp</text>
</a>
</g>
</g>
<!-- Node1&#45;&gt;Node34 -->
<g id="edge67" class="edge">
<title>Node1&#45;&gt;Node34</title>
<path fill="none" stroke="midnightblue" d="M1505.29,-537.42C1522.52,-530.18 1544.98,-518.21 1559,-501 1600.56,-449.97 1615.52,-370.94 1620.58,-331.54"/>
<polygon fill="midnightblue" stroke="midnightblue" points="1624.07,-331.87 1621.77,-321.53 1617.12,-331.05 1624.07,-331.87"/>
</g>
<!-- Node35 -->
<g id="node35" class="node">
<title>Node35</title>
<g id="a_node35"><a xlink:href="play_8hpp.html" target="_top" xlink:title="Declaracao da classe Play, responsavel pelo estado de jogo ativo.">
<polygon fill="white" stroke="black" points="1412.5,-476 1412.5,-495 1549.5,-495 1549.5,-476 1412.5,-476"/>
<text text-anchor="middle" x="1481" y="-483" font-family="Helvetica,sans-Serif" font-size="10.00">../include/states/play.hpp</text>
</a>
</g>
</g>
<!-- Node1&#45;&gt;Node35 -->
<g id="edge73" class="edge">
<title>Node1&#45;&gt;Node35</title>
<path fill="none" stroke="midnightblue" d="M1481,-537.48C1481,-529.08 1481,-515.98 1481,-505.16"/>
<polygon fill="midnightblue" stroke="midnightblue" points="1484.5,-505.01 1481,-495.01 1477.5,-505.01 1484.5,-505.01"/>
</g>
<!-- Node3 -->
<g id="node3" class="node">
<title>Node3</title>
<g id="a_node3"><a xlink:href="flappy__bird__controller_8hpp.html" target="_top" xlink:title="Declaracao da classe FlappyBird (controlador principal).">
<polygon fill="white" stroke="black" points="1174.5,-414.5 1174.5,-433.5 1317.5,-433.5 1317.5,-414.5 1174.5,-414.5"/>
<text text-anchor="middle" x="1246" y="-421.5" font-family="Helvetica,sans-Serif" font-size="10.00">flappy_bird_controller.hpp</text>
</a>
</g>
</g>
<!-- Node2&#45;&gt;Node3 -->
<g id="edge2" class="edge">
<title>Node2&#45;&gt;Node3</title>
<path fill="none" stroke="midnightblue" d="M1261.26,-470.4C1258.53,-462.29 1255.08,-452.01 1252.14,-443.28"/>
<polygon fill="midnightblue" stroke="midnightblue" points="1255.41,-442.02 1248.91,-433.66 1248.78,-444.25 1255.41,-442.02"/>
</g>
<!-- Node2&#45;&gt;Node20 -->
<g id="edge63" class="edge">
<title>Node2&#45;&gt;Node20</title>
<path fill="none" stroke="midnightblue" d="M1230.92,-470.48C1165.9,-444.08 1022.85,-384.05 908,-322 871.99,-302.55 832.23,-276.37 808.73,-260.37"/>
<polygon fill="midnightblue" stroke="midnightblue" points="810.5,-257.34 800.27,-254.57 806.54,-263.11 810.5,-257.34"/>
</g>
<!-- Node2&#45;&gt;Node30 -->
<g id="edge64" class="edge">
<title>Node2&#45;&gt;Node30</title>
<path fill="none" stroke="midnightblue" d="M1315.35,-473.12C1417.95,-448.35 1648.49,-386.57 1693,-322 1717.26,-286.82 1694.42,-234.27 1679.53,-207.31"/>
<polygon fill="midnightblue" stroke="midnightblue" points="1682.54,-205.53 1674.51,-198.62 1676.48,-209.03 1682.54,-205.53"/>
</g>
<!-- Node4 -->
<g id="node4" class="node">
<title>Node4</title>
<g id="a_node4"><a xlink:title=" ">
<polygon fill="white" stroke="#bfbfbf" points="0,-6 0,-25 58,-25 58,-6 0,-6"/>
<text text-anchor="middle" x="29" y="-13" font-family="Helvetica,sans-Serif" font-size="10.00">memory</text>
</a>
</g>
</g>
<!-- Node3&#45;&gt;Node4 -->
<g id="edge3" class="edge">
<title>Node3&#45;&gt;Node4</title>
<path fill="none" stroke="midnightblue" d="M1174.28,-423.2C926.26,-422.94 120,-413.92 120,-307.5 120,-307.5 120,-307.5 120,-132 120,-87.73 78.25,-50.44 51.31,-30.99"/>
<polygon fill="midnightblue" stroke="midnightblue" points="53.03,-27.92 42.82,-25.09 49.04,-33.67 53.03,-27.92"/>
</g>
<!-- Node5 -->
<g id="node5" class="node">
<title>Node5</title>
<g id="a_node5"><a xlink:href="assets_8hpp.html" target="_top" xlink:title="Declara classes utilitárias para carregar e usar imagens, sons e fontes no Allegro.">
<polygon fill="white" stroke="black" points="484.5,-67.5 484.5,-86.5 553.5,-86.5 553.5,-67.5 484.5,-67.5"/>
<text text-anchor="middle" x="519" y="-74.5" font-family="Helvetica,sans-Serif" font-size="10.00">assets.hpp</text>
</a>
</g>
</g>
<!-- Node3&#45;&gt;Node5 -->
<g id="edge4" class="edge">
<title>Node3&#45;&gt;Node5</title>
<path fill="none" stroke="midnightblue" d="M1193.65,-414.44C1140.15,-405.62 1054.7,-391.32 981,-378 648.02,-317.84 410.84,-491.66 241,-199 188.72,-108.91 383.35,-85.8 474.43,-79.95"/>
<polygon fill="midnightblue" stroke="midnightblue" points="474.7,-83.44 484.48,-79.35 474.28,-76.45 474.7,-83.44"/>
</g>
<!-- Node15 -->
<g id="node15" class="node">
<title>Node15</title>
<g id="a_node15"><a xlink:href="bird_8hpp.html" target="_top" xlink:title="Declaracao da classe Bird (personagem controlavel).">
<polygon fill="white" stroke="black" points="1271,-358.5 1271,-377.5 1327,-377.5 1327,-358.5 1271,-358.5"/>
<text text-anchor="middle" x="1299" y="-365.5" font-family="Helvetica,sans-Serif" font-size="10.00">bird.hpp</text>
</a>
</g>
</g>
<!-- Node3&#45;&gt;Node15 -->
<g id="edge15" class="edge">
<title>Node3&#45;&gt;Node15</title>
<path fill="none" stroke="midnightblue" d="M1254.75,-414.08C1262.47,-406.22 1273.9,-394.57 1283.22,-385.08"/>
<polygon fill="midnightblue" stroke="midnightblue" points="1285.9,-387.34 1290.41,-377.75 1280.91,-382.44 1285.9,-387.34"/>
</g>
<!-- Node16 -->
<g id="node16" class="node">
<title>Node16</title>
<g id="a_node16"><a xlink:href="defines_8hpp.html" target="_top" xlink:title="Constantes globais, macros e estruturas auxiliares do jogo.">
<polygon fill="white" stroke="black" points="1664.5,-67.5 1664.5,-86.5 1737.5,-86.5 1737.5,-67.5 1664.5,-67.5"/>
<text text-anchor="middle" x="1701" y="-74.5" font-family="Helvetica,sans-Serif" font-size="10.00">defines.hpp</text>
</a>
</g>
</g>
<!-- Node3&#45;&gt;Node16 -->
<g id="edge52" class="edge">
<title>Node3&#45;&gt;Node16</title>
<path fill="none" stroke="midnightblue" d="M1317.52,-423C1468.09,-421.07 1804,-405.75 1804,-307.5 1804,-307.5 1804,-307.5 1804,-188 1804,-143.43 1758.38,-109.46 1727.86,-91.73"/>
<polygon fill="midnightblue" stroke="midnightblue" points="1729.38,-88.57 1718.94,-86.75 1725.97,-94.68 1729.38,-88.57"/>
</g>
<!-- Node19 -->
<g id="node19" class="node">
<title>Node19</title>
<g id="a_node19"><a xlink:href="game__object_8hpp.html" target="_top" xlink:title="Classe base abstrata para todos os objetos renderizáveis.">
<polygon fill="white" stroke="black" points="1180.5,-297 1180.5,-316 1281.5,-316 1281.5,-297 1180.5,-297"/>
<text text-anchor="middle" x="1231" y="-304" font-family="Helvetica,sans-Serif" font-size="10.00">game_object.hpp</text>
</a>
</g>
</g>
<!-- Node3&#45;&gt;Node19 -->
<g id="edge53" class="edge">
<title>Node3&#45;&gt;Node19</title>
<path fill="none" stroke="midnightblue" d="M1244.87,-414.32C1242.46,-395.76 1236.76,-351.84 1233.46,-326.47"/>
<polygon fill="midnightblue" stroke="midnightblue" points="1236.9,-325.75 1232.14,-316.28 1229.96,-326.65 1236.9,-325.75"/>
</g>
<!-- Node3&#45;&gt;Node20 -->
<g id="edge54" class="edge">
<title>Node3&#45;&gt;Node20</title>
<path fill="none" stroke="midnightblue" d="M1223.91,-414.46C1149.32,-385.64 906.62,-291.84 819.5,-258.17"/>
<polygon fill="midnightblue" stroke="midnightblue" points="820.73,-254.89 810.14,-254.55 818.2,-261.42 820.73,-254.89"/>
</g>
<!-- Node29 -->
<g id="node29" class="node">
<title>Node29</title>
<g id="a_node29"><a xlink:href="player_8hpp.html" target="_top" xlink:title="Modela um jogador e operações de ranking.">
<polygon fill="white" stroke="black" points="258,-179.5 258,-198.5 326,-198.5 326,-179.5 258,-179.5"/>
<text text-anchor="middle" x="292" y="-186.5" font-family="Helvetica,sans-Serif" font-size="10.00">player.hpp</text>
</a>
</g>
</g>
<!-- Node3&#45;&gt;Node29 -->
<g id="edge62" class="edge">
<title>Node3&#45;&gt;Node29</title>
<path fill="none" stroke="midnightblue" d="M1211.46,-414.47C1126.18,-393.41 898.8,-337.31 709,-291 573.19,-257.86 412.39,-219.03 336.24,-200.66"/>
<polygon fill="midnightblue" stroke="midnightblue" points="336.6,-197.15 326.06,-198.21 334.96,-203.96 336.6,-197.15"/>
</g>
<!-- Node32 -->
<g id="node32" class="node">
<title>Node32</title>
<g id="a_node32"><a xlink:href="pipe_8hpp.html" target="_top" xlink:title="Declaration of pipe&#45;related classes (Pipe, PipePair, PipeList).">
<polygon fill="white" stroke="black" points="1394.5,-358.5 1394.5,-377.5 1453.5,-377.5 1453.5,-358.5 1394.5,-358.5"/>
<text text-anchor="middle" x="1424" y="-365.5" font-family="Helvetica,sans-Serif" font-size="10.00">pipe.hpp</text>
</a>
</g>
</g>
<!-- Node3&#45;&gt;Node32 -->
<g id="edge55" class="edge">
<title>Node3&#45;&gt;Node32</title>
<path fill="none" stroke="midnightblue" d="M1274.2,-414.44C1304.41,-405.28 1352.51,-390.69 1386.03,-380.52"/>
<polygon fill="midnightblue" stroke="midnightblue" points="1387.37,-383.77 1395.93,-377.52 1385.34,-377.07 1387.37,-383.77"/>
</g>
<!-- Node5&#45;&gt;Node4 -->
<g id="edge6" class="edge">
<title>Node5&#45;&gt;Node4</title>
<path fill="none" stroke="midnightblue" d="M484.47,-75.66C408.14,-74.25 219.73,-67.06 67,-31 64,-30.29 60.93,-29.41 57.88,-28.42"/>
<polygon fill="midnightblue" stroke="midnightblue" points="59.01,-25.11 48.41,-25.04 56.65,-31.7 59.01,-25.11"/>
</g>
<!-- Node6 -->
<g id="node6" class="node">
<title>Node6</title>
<g id="a_node6"><a xlink:title=" ">
<polygon fill="white" stroke="#bfbfbf" points="668,-6 668,-25 728,-25 728,-6 668,-6"/>
<text text-anchor="middle" x="698" y="-13" font-family="Helvetica,sans-Serif" font-size="10.00">iostream</text>
</a>
</g>
</g>
<!-- Node5&#45;&gt;Node6 -->
<g id="edge5" class="edge">
<title>Node5&#45;&gt;Node6</title>
<path fill="none" stroke="midnightblue" d="M546.75,-67.48C575.08,-58.7 620.28,-44.41 659,-31 661.25,-30.22 663.56,-29.4 665.88,-28.57"/>
<polygon fill="midnightblue" stroke="midnightblue" points="667.18,-31.82 675.38,-25.11 664.78,-25.25 667.18,-31.82"/>
</g>
<!-- Node7 -->
<g id="node7" class="node">
<title>Node7</title>
<g id="a_node7"><a xlink:title=" ">
<polygon fill="white" stroke="#bfbfbf" points="906,-6 906,-25 950,-25 950,-6 906,-6"/>
<text text-anchor="middle" x="928" y="-13" font-family="Helvetica,sans-Serif" font-size="10.00">string</text>
</a>
</g>
</g>
<!-- Node5&#45;&gt;Node7 -->
<g id="edge7" class="edge">
<title>Node5&#45;&gt;Node7</title>
<path fill="none" stroke="midnightblue" d="M553.79,-73.28C634.57,-66.75 832.81,-49.32 897,-31 898.93,-30.45 900.89,-29.79 902.83,-29.07"/>
<polygon fill="midnightblue" stroke="midnightblue" points="904.46,-32.18 912.29,-25.03 901.72,-25.74 904.46,-32.18"/>
</g>
<!-- Node8 -->
<g id="node8" class="node">
<title>Node8</title>
<g id="a_node8"><a xlink:title=" ">
<polygon fill="white" stroke="#bfbfbf" points="1247,-6 1247,-25 1349,-25 1349,-6 1247,-6"/>
<text text-anchor="middle" x="1298" y="-13" font-family="Helvetica,sans-Serif" font-size="10.00">allegro5/allegro.h</text>
</a>
</g>
</g>
<!-- Node5&#45;&gt;Node8 -->
<g id="edge8" class="edge">
<title>Node5&#45;&gt;Node8</title>
<path fill="none" stroke="midnightblue" d="M553.52,-75.09C655.18,-72.13 962.21,-61.16 1215,-31 1224.49,-29.87 1234.54,-28.37 1244.24,-26.77"/>
<polygon fill="midnightblue" stroke="midnightblue" points="1244.93,-30.2 1254.19,-25.07 1243.75,-23.3 1244.93,-30.2"/>
</g>
<!-- Node9 -->
<g id="node9" class="node">
<title>Node9</title>
<g id="a_node9"><a xlink:title=" ">
<polygon fill="white" stroke="#bfbfbf" points="746,-6 746,-25 888,-25 888,-6 746,-6"/>
<text text-anchor="middle" x="817" y="-13" font-family="Helvetica,sans-Serif" font-size="10.00">allegro5/allegro_acodec.h</text>
</a>
</g>
</g>
<!-- Node5&#45;&gt;Node9 -->
<g id="edge9" class="edge">
<title>Node5&#45;&gt;Node9</title>
<path fill="none" stroke="midnightblue" d="M553.77,-69.06C605.58,-58.71 703.45,-39.17 764.16,-27.05"/>
<polygon fill="midnightblue" stroke="midnightblue" points="765.18,-30.42 774.3,-25.03 763.81,-23.55 765.18,-30.42"/>
</g>
<!-- Node10 -->
<g id="node10" class="node">
<title>Node10</title>
<g id="a_node10"><a xlink:title=" ">
<polygon fill="white" stroke="#bfbfbf" points="76,-6 76,-25 210,-25 210,-6 76,-6"/>
<text text-anchor="middle" x="143" y="-13" font-family="Helvetica,sans-Serif" font-size="10.00">allegro5/allegro_audio.h</text>
</a>
</g>
</g>
<!-- Node5&#45;&gt;Node10 -->
<g id="edge10" class="edge">
<title>Node5&#45;&gt;Node10</title>
<path fill="none" stroke="midnightblue" d="M484.28,-71.25C428.33,-63.49 314.79,-47.32 219,-31 211.54,-29.73 203.69,-28.32 195.97,-26.88"/>
<polygon fill="midnightblue" stroke="midnightblue" points="196.43,-23.41 185.95,-25 195.13,-30.29 196.43,-23.41"/>
</g>
<!-- Node11 -->
<g id="node11" class="node">
<title>Node11</title>
<g id="a_node11"><a xlink:title=" ">
<polygon fill="white" stroke="#bfbfbf" points="228,-6 228,-25 366,-25 366,-6 228,-6"/>
<text text-anchor="middle" x="297" y="-13" font-family="Helvetica,sans-Serif" font-size="10.00">allegro5/allegro_image.h</text>
</a>
</g>
</g>
<!-- Node5&#45;&gt;Node11 -->
<g id="edge11" class="edge">
<title>Node5&#45;&gt;Node11</title>
<path fill="none" stroke="midnightblue" d="M487.19,-67.48C448.12,-57 381.74,-39.21 338.64,-27.66"/>
<polygon fill="midnightblue" stroke="midnightblue" points="339.31,-24.22 328.75,-25.01 337.5,-30.98 339.31,-24.22"/>
</g>
<!-- Node12 -->
<g id="node12" class="node">
<title>Node12</title>
<g id="a_node12"><a xlink:title=" ">
<polygon fill="white" stroke="#bfbfbf" points="384.5,-0.5 384.5,-30.5 513.5,-30.5 513.5,-0.5 384.5,-0.5"/>
<text text-anchor="start" x="392.5" y="-18.5" font-family="Helvetica,sans-Serif" font-size="10.00">allegro5/allegro_native</text>
<text text-anchor="middle" x="449" y="-7.5" font-family="Helvetica,sans-Serif" font-size="10.00">_dialog.h</text>
</a>
</g>
</g>
<!-- Node5&#45;&gt;Node12 -->
<g id="edge12" class="edge">
<title>Node5&#45;&gt;Node12</title>
<path fill="none" stroke="midnightblue" d="M508.97,-67.48C499.67,-59.57 485.45,-47.48 473.2,-37.07"/>
<polygon fill="midnightblue" stroke="midnightblue" points="475.38,-34.33 465.5,-30.52 470.85,-39.67 475.38,-34.33"/>
</g>
<!-- Node13 -->
<g id="node13" class="node">
<title>Node13</title>
<g id="a_node13"><a xlink:title=" ">
<polygon fill="white" stroke="#bfbfbf" points="1048.5,-6 1048.5,-25 1205.5,-25 1205.5,-6 1048.5,-6"/>
<text text-anchor="middle" x="1127" y="-13" font-family="Helvetica,sans-Serif" font-size="10.00">allegro5/allegro_primitives.h</text>
</a>
</g>
</g>
<!-- Node5&#45;&gt;Node13 -->
<g id="edge13" class="edge">
<title>Node5&#45;&gt;Node13</title>
<path fill="none" stroke="midnightblue" d="M553.87,-72.59C646.68,-63.51 901.9,-38.53 1038.3,-25.18"/>
<polygon fill="midnightblue" stroke="midnightblue" points="1038.7,-28.66 1048.32,-24.2 1038.02,-21.69 1038.7,-28.66"/>
</g>
<!-- Node14 -->
<g id="node14" class="node">
<title>Node14</title>
<g id="a_node14"><a xlink:title=" ">
<polygon fill="white" stroke="#bfbfbf" points="532,-6 532,-25 650,-25 650,-6 532,-6"/>
<text text-anchor="middle" x="591" y="-13" font-family="Helvetica,sans-Serif" font-size="10.00">allegro5/allegro_ttf.h</text>
</a>
</g>
</g>
<!-- Node5&#45;&gt;Node14 -->
<g id="edge14" class="edge">
<title>Node5&#45;&gt;Node14</title>
<path fill="none" stroke="midnightblue" d="M529.32,-67.48C540.65,-58.11 559.07,-42.88 572.84,-31.51"/>
<polygon fill="midnightblue" stroke="midnightblue" points="575.22,-34.08 580.7,-25.01 570.77,-28.68 575.22,-34.08"/>
</g>
<!-- Node15&#45;&gt;Node13 -->
<g id="edge16" class="edge">
<title>Node15&#45;&gt;Node13</title>
<path fill="none" stroke="midnightblue" d="M1301.41,-358.27C1308.58,-330.58 1327.61,-242.81 1300,-179 1269.48,-108.45 1191.58,-54.43 1151.55,-30.31"/>
<polygon fill="midnightblue" stroke="midnightblue" points="1153.09,-27.16 1142.7,-25.1 1149.54,-33.19 1153.09,-27.16"/>
</g>
<!-- Node15&#45;&gt;Node16 -->
<g id="edge17" class="edge">
<title>Node15&#45;&gt;Node16</title>
<path fill="none" stroke="midnightblue" d="M1311.03,-358.35C1367.78,-317.55 1608.97,-144.16 1680.76,-92.55"/>
<polygon fill="midnightblue" stroke="midnightblue" points="1682.94,-95.29 1689.02,-86.62 1678.85,-89.61 1682.94,-95.29"/>
</g>
<!-- Node15&#45;&gt;Node19 -->
<g id="edge21" class="edge">
<title>Node15&#45;&gt;Node19</title>
<path fill="none" stroke="midnightblue" d="M1289.26,-358.48C1278.65,-349.2 1261.48,-334.17 1248.52,-322.83"/>
<polygon fill="midnightblue" stroke="midnightblue" points="1250.56,-319.96 1240.72,-316.01 1245.95,-325.23 1250.56,-319.96"/>
</g>
<!-- Node16&#45;&gt;Node7 -->
<g id="edge19" class="edge">
<title>Node16&#45;&gt;Node7</title>
<path fill="none" stroke="midnightblue" d="M1664.39,-74.29C1564.27,-69.45 1277.52,-54.44 1040,-31 1013.05,-28.34 982.58,-24.33 960.23,-21.2"/>
<polygon fill="midnightblue" stroke="midnightblue" points="960.66,-17.73 950.27,-19.79 959.68,-24.66 960.66,-17.73"/>
</g>
<!-- Node17 -->
<g id="node17" class="node">
<title>Node17</title>
<g id="a_node17"><a xlink:title=" ">
<polygon fill="white" stroke="#bfbfbf" points="1677.5,-6 1677.5,-25 1724.5,-25 1724.5,-6 1677.5,-6"/>
<text text-anchor="middle" x="1701" y="-13" font-family="Helvetica,sans-Serif" font-size="10.00">cmath</text>
</a>
</g>
</g>
<!-- Node16&#45;&gt;Node17 -->
<g id="edge18" class="edge">
<title>Node16&#45;&gt;Node17</title>
<path fill="none" stroke="midnightblue" d="M1701,-67.48C1701,-59.08 1701,-45.98 1701,-35.16"/>
<polygon fill="midnightblue" stroke="midnightblue" points="1704.5,-35.01 1701,-25.01 1697.5,-35.01 1704.5,-35.01"/>
</g>
<!-- Node18 -->
<g id="node18" class="node">
<title>Node18</title>
<g id="a_node18"><a xlink:title=" ">
<polygon fill="white" stroke="#bfbfbf" points="1542.5,-6 1542.5,-25 1589.5,-25 1589.5,-6 1542.5,-6"/>
<text text-anchor="middle" x="1566" y="-13" font-family="Helvetica,sans-Serif" font-size="10.00">vector</text>
</a>
</g>
</g>
<!-- Node16&#45;&gt;Node18 -->
<g id="edge20" class="edge">
<title>Node16&#45;&gt;Node18</title>
<path fill="none" stroke="midnightblue" d="M1681.66,-67.48C1658.9,-57.45 1620.91,-40.7 1594.71,-29.15"/>
<polygon fill="midnightblue" stroke="midnightblue" points="1595.87,-25.84 1585.31,-25.01 1593.05,-32.24 1595.87,-25.84"/>
</g>
<!-- Node19&#45;&gt;Node20 -->
<g id="edge22" class="edge">
<title>Node19&#45;&gt;Node20</title>
<path fill="none" stroke="midnightblue" d="M1180.18,-298.67C1089.92,-286.55 903.7,-261.54 824.71,-250.93"/>
<polygon fill="midnightblue" stroke="midnightblue" points="825.12,-247.45 814.74,-249.59 824.18,-254.39 825.12,-247.45"/>
</g>
<!-- Node20&#45;&gt;Node4 -->
<g id="edge29" class="edge">
<title>Node20&#45;&gt;Node4</title>
<path fill="none" stroke="midnightblue" d="M761.17,-237.67C756.47,-236.68 751.6,-235.75 747,-235 597.88,-210.77 554.32,-240.3 409,-199 407.82,-198.67 142.47,-71.07 55.94,-29.46"/>
<polygon fill="midnightblue" stroke="midnightblue" points="57.28,-26.22 46.76,-25.04 54.25,-32.53 57.28,-26.22"/>
</g>
<!-- Node20&#45;&gt;Node5 -->
<g id="edge41" class="edge">
<title>Node20&#45;&gt;Node5</title>
<path fill="none" stroke="midnightblue" d="M761.11,-238.03C756.41,-237 751.56,-235.96 747,-235 667.59,-218.3 630.47,-250.79 568,-199 536.55,-172.93 525.1,-123.58 521.07,-96.66"/>
<polygon fill="midnightblue" stroke="midnightblue" points="524.53,-96.1 519.76,-86.63 517.59,-97 524.53,-96.1"/>
</g>
<!-- Node20&#45;&gt;Node6 -->
<g id="edge26" class="edge">
<title>Node20&#45;&gt;Node6</title>
<path fill="none" stroke="midnightblue" d="M761.26,-238.09C717.96,-228.3 636.38,-208.8 627,-199 586.45,-156.6 593.6,-115.91 626,-67 636.61,-50.98 654.2,-38.5 669.33,-29.96"/>
<polygon fill="midnightblue" stroke="midnightblue" points="671.17,-32.94 678.35,-25.15 667.88,-26.77 671.17,-32.94"/>
</g>
<!-- Node20&#45;&gt;Node7 -->
<g id="edge31" class="edge">
<title>Node20&#45;&gt;Node7</title>
<path fill="none" stroke="midnightblue" d="M761.3,-236.36C733.01,-227.65 691.16,-212.84 682,-199 649.62,-150.08 644.1,-111.78 682,-67 713.3,-30.03 850.75,-45.39 897,-31 898.87,-30.42 900.78,-29.74 902.67,-29.01"/>
<polygon fill="midnightblue" stroke="midnightblue" points="904.12,-32.2 911.92,-25.03 901.35,-25.77 904.12,-32.2"/>
</g>
<!-- Node20&#45;&gt;Node8 -->
<g id="edge32" class="edge">
<title>Node20&#45;&gt;Node8</title>
<path fill="none" stroke="midnightblue" d="M814.71,-243.49C912.33,-241.39 1245.77,-231.82 1279,-199 1323.16,-155.38 1311.1,-72.44 1302.83,-35.3"/>
<polygon fill="midnightblue" stroke="midnightblue" points="1306.17,-34.25 1300.44,-25.34 1299.37,-35.88 1306.17,-34.25"/>
</g>
<!-- Node20&#45;&gt;Node9 -->
<g id="edge33" class="edge">
<title>Node20&#45;&gt;Node9</title>
<path fill="none" stroke="midnightblue" d="M761.28,-237.46C721.63,-227.5 651.1,-208.65 644,-199 609.25,-151.73 608.81,-113.94 644,-67 651.69,-56.75 720.4,-38.93 768.87,-27.43"/>
<polygon fill="midnightblue" stroke="midnightblue" points="769.95,-30.78 778.88,-25.08 768.35,-23.96 769.95,-30.78"/>
</g>
<!-- Node20&#45;&gt;Node10 -->
<g id="edge34" class="edge">
<title>Node20&#45;&gt;Node10</title>
<path fill="none" stroke="midnightblue" d="M761.17,-237.72C756.46,-236.73 751.6,-235.78 747,-235 614.6,-212.58 570.28,-252.26 447,-199 363.94,-163.11 370.54,-111.93 292,-67 260.26,-48.85 220.97,-35.87 190.71,-27.62"/>
<polygon fill="midnightblue" stroke="midnightblue" points="191.38,-24.18 180.82,-25 189.59,-30.94 191.38,-24.18"/>
</g>
<!-- Node20&#45;&gt;Node11 -->
<g id="edge35" class="edge">
<title>Node20&#45;&gt;Node11</title>
<path fill="none" stroke="midnightblue" d="M761.16,-237.78C756.45,-236.79 751.59,-235.82 747,-235 630.84,-214.34 590,-250.81 484,-199 402.84,-159.33 334.8,-70.96 308.57,-33.65"/>
<polygon fill="midnightblue" stroke="midnightblue" points="311.38,-31.56 302.82,-25.32 305.63,-35.54 311.38,-31.56"/>
</g>
<!-- Node20&#45;&gt;Node12 -->
<g id="edge36" class="edge">
<title>Node20&#45;&gt;Node12</title>
<path fill="none" stroke="midnightblue" d="M761.14,-237.86C756.44,-236.85 751.58,-235.86 747,-235 645.31,-215.9 608.58,-247.15 517,-199 486.67,-183.05 478.53,-174.03 464,-143 448.57,-110.05 446.78,-67.22 447.47,-40.8"/>
<polygon fill="midnightblue" stroke="midnightblue" points="450.97,-40.7 447.88,-30.56 443.98,-40.41 450.97,-40.7"/>
</g>
<!-- Node20&#45;&gt;Node13 -->
<g id="edge38" class="edge">
<title>Node20&#45;&gt;Node13</title>
<path fill="none" stroke="midnightblue" d="M764.57,-235.33C737.81,-224.06 699.71,-202.95 716,-179 787.88,-73.29 940.27,-36.35 1037.94,-23.44"/>
<polygon fill="midnightblue" stroke="midnightblue" points="1038.62,-26.88 1048.1,-22.15 1037.74,-19.93 1038.62,-26.88"/>
</g>
<!-- Node20&#45;&gt;Node14 -->
<g id="edge39" class="edge">
<title>Node20&#45;&gt;Node14</title>
<path fill="none" stroke="midnightblue" d="M761.12,-237.95C756.42,-236.94 751.57,-235.92 747,-235 658.87,-217.36 622.88,-248.71 548,-199 492.15,-161.92 438.25,-123.07 475,-67 487.79,-47.48 509.94,-35.47 531.48,-28.09"/>
<polygon fill="midnightblue" stroke="midnightblue" points="532.8,-31.34 541.3,-25.02 530.71,-24.66 532.8,-31.34"/>
</g>
<!-- Node20&#45;&gt;Node16 -->
<g id="edge42" class="edge">
<title>Node20&#45;&gt;Node16</title>
<path fill="none" stroke="midnightblue" d="M814.61,-244.45C892.35,-245.2 1125.44,-243.29 1312,-199 1400.49,-177.99 1415.15,-150 1502,-123 1553.29,-107.05 1613.65,-94.21 1654.33,-86.39"/>
<polygon fill="midnightblue" stroke="midnightblue" points="1655.06,-89.81 1664.23,-84.51 1653.75,-82.93 1655.06,-89.81"/>
</g>
<!-- Node21 -->
<g id="node21" class="node">
<title>Node21</title>
<g id="a_node21"><a xlink:title=" ">
<polygon fill="white" stroke="#bfbfbf" points="724.5,-179.5 724.5,-198.5 775.5,-198.5 775.5,-179.5 724.5,-179.5"/>
<text text-anchor="middle" x="750" y="-186.5" font-family="Helvetica,sans-Serif" font-size="10.00">math.h</text>
</a>
</g>
</g>
<!-- Node20&#45;&gt;Node21 -->
<g id="edge23" class="edge">
<title>Node20&#45;&gt;Node21</title>
<path fill="none" stroke="midnightblue" d="M781.73,-235.08C776.36,-227.46 768.48,-216.26 761.92,-206.94"/>
<polygon fill="midnightblue" stroke="midnightblue" points="764.78,-204.91 756.16,-198.75 759.05,-208.94 764.78,-204.91"/>
</g>
<!-- Node22 -->
<g id="node22" class="node">
<title>Node22</title>
<g id="a_node22"><a xlink:title=" ">
<polygon fill="white" stroke="#bfbfbf" points="794,-179.5 794,-198.5 858,-198.5 858,-179.5 794,-179.5"/>
<text text-anchor="middle" x="826" y="-186.5" font-family="Helvetica,sans-Serif" font-size="10.00">algorithm</text>
</a>
</g>
</g>
<!-- Node20&#45;&gt;Node22 -->
<g id="edge24" class="edge">
<title>Node20&#45;&gt;Node22</title>
<path fill="none" stroke="midnightblue" d="M794.27,-235.08C799.64,-227.46 807.52,-216.26 814.08,-206.94"/>
<polygon fill="midnightblue" stroke="midnightblue" points="816.95,-208.94 819.84,-198.75 811.22,-204.91 816.95,-208.94"/>
</g>
<!-- Node23 -->
<g id="node23" class="node">
<title>Node23</title>
<g id="a_node23"><a xlink:title=" ">
<polygon fill="white" stroke="#bfbfbf" points="876.5,-179.5 876.5,-198.5 931.5,-198.5 931.5,-179.5 876.5,-179.5"/>
<text text-anchor="middle" x="904" y="-186.5" font-family="Helvetica,sans-Serif" font-size="10.00">fstream</text>
</a>
</g>
</g>
<!-- Node20&#45;&gt;Node23 -->
<g id="edge25" class="edge">
<title>Node20&#45;&gt;Node23</title>
<path fill="none" stroke="midnightblue" d="M806.38,-235.44C825.22,-226.68 854.73,-212.94 876.38,-202.86"/>
<polygon fill="midnightblue" stroke="midnightblue" points="878.12,-205.91 885.71,-198.52 875.16,-199.56 878.12,-205.91"/>
</g>
<!-- Node24 -->
<g id="node24" class="node">
<title>Node24</title>
<g id="a_node24"><a xlink:title=" ">
<polygon fill="white" stroke="#bfbfbf" points="950,-179.5 950,-198.5 982,-198.5 982,-179.5 950,-179.5"/>
<text text-anchor="middle" x="966" y="-186.5" font-family="Helvetica,sans-Serif" font-size="10.00">list</text>
</a>
</g>
</g>
<!-- Node20&#45;&gt;Node24 -->
<g id="edge27" class="edge">
<title>Node20&#45;&gt;Node24</title>
<path fill="none" stroke="midnightblue" d="M814.68,-236.67C843.47,-228.65 890.86,-215.13 940.33,-199.08"/>
<polygon fill="midnightblue" stroke="midnightblue" points="941.49,-202.38 949.91,-195.95 939.32,-195.73 941.49,-202.38"/>
</g>
<!-- Node25 -->
<g id="node25" class="node">
<title>Node25</title>
<g id="a_node25"><a xlink:title=" ">
<polygon fill="white" stroke="#bfbfbf" points="1000,-179.5 1000,-198.5 1038,-198.5 1038,-179.5 1000,-179.5"/>
<text text-anchor="middle" x="1019" y="-186.5" font-family="Helvetica,sans-Serif" font-size="10.00">map</text>
</a>
</g>
</g>
<!-- Node20&#45;&gt;Node25 -->
<g id="edge28" class="edge">
<title>Node20&#45;&gt;Node25</title>
<path fill="none" stroke="midnightblue" d="M814.79,-238.89C851.99,-231.61 921.54,-217.36 989.74,-199.15"/>
<polygon fill="midnightblue" stroke="midnightblue" points="991.05,-202.42 999.79,-196.43 989.22,-195.66 991.05,-202.42"/>
</g>
<!-- Node26 -->
<g id="node26" class="node">
<title>Node26</title>
<g id="a_node26"><a xlink:title=" ">
<polygon fill="white" stroke="#bfbfbf" points="1056,-179.5 1056,-198.5 1112,-198.5 1112,-179.5 1056,-179.5"/>
<text text-anchor="middle" x="1084" y="-186.5" font-family="Helvetica,sans-Serif" font-size="10.00">sstream</text>
</a>
</g>
</g>
<!-- Node20&#45;&gt;Node26 -->
<g id="edge30" class="edge">
<title>Node20&#45;&gt;Node26</title>
<path fill="none" stroke="midnightblue" d="M814.58,-239.98C859.97,-232.99 955.52,-217.71 1045.91,-199.12"/>
<polygon fill="midnightblue" stroke="midnightblue" points="1046.68,-202.53 1055.76,-197.07 1045.26,-195.68 1046.68,-202.53"/>
</g>
<!-- Node27 -->
<g id="node27" class="node">
<title>Node27</title>
<g id="a_node27"><a xlink:title=" ">
<polygon fill="white" stroke="#bfbfbf" points="1130,-179.5 1130,-198.5 1270,-198.5 1270,-179.5 1130,-179.5"/>
<text text-anchor="middle" x="1200" y="-186.5" font-family="Helvetica,sans-Serif" font-size="10.00">allegro5/allegro_physfs.h</text>
</a>
</g>
</g>
<!-- Node20&#45;&gt;Node27 -->
<g id="edge37" class="edge">
<title>Node20&#45;&gt;Node27</title>
<path fill="none" stroke="midnightblue" d="M814.72,-240.5C876.57,-232.39 1031.44,-212.09 1124.91,-199.84"/>
<polygon fill="midnightblue" stroke="midnightblue" points="1125.42,-203.31 1134.88,-198.54 1124.51,-196.36 1125.42,-203.31"/>
</g>
<!-- Node28 -->
<g id="node28" class="node">
<title>Node28</title>
<g id="a_node28"><a xlink:title=" ">
<polygon fill="white" stroke="#bfbfbf" points="1402.5,-179.5 1402.5,-198.5 1505.5,-198.5 1505.5,-179.5 1402.5,-179.5"/>
<text text-anchor="middle" x="1454" y="-186.5" font-family="Helvetica,sans-Serif" font-size="10.00">allegro5/bitmap.h</text>
</a>
</g>
</g>
<!-- Node20&#45;&gt;Node28 -->
<g id="edge40" class="edge">
<title>Node20&#45;&gt;Node28</title>
<path fill="none" stroke="midnightblue" d="M814.63,-241.93C895.27,-235.64 1143.94,-216.17 1350,-199 1363.73,-197.86 1378.48,-196.6 1392.44,-195.39"/>
<polygon fill="midnightblue" stroke="midnightblue" points="1392.77,-198.88 1402.43,-194.53 1392.16,-191.9 1392.77,-198.88"/>
</g>
<!-- Node20&#45;&gt;Node29 -->
<g id="edge43" class="edge">
<title>Node20&#45;&gt;Node29</title>
<path fill="none" stroke="midnightblue" d="M761.33,-239.46C753.66,-237.85 745.49,-236.15 738,-235 561.83,-207.99 512.71,-223.17 336.29,-199.67"/>
<polygon fill="midnightblue" stroke="midnightblue" points="336.53,-196.17 326.15,-198.29 335.59,-203.11 336.53,-196.17"/>
</g>
<!-- Node20&#45;&gt;Node30 -->
<g id="edge45" class="edge">
<title>Node20&#45;&gt;Node30</title>
<path fill="none" stroke="midnightblue" d="M814.85,-242.35C940.87,-234.63 1474.04,-201.95 1627.51,-192.54"/>
<polygon fill="midnightblue" stroke="midnightblue" points="1628.13,-196.01 1637.89,-191.91 1627.7,-189.03 1628.13,-196.01"/>
</g>
<!-- Node29&#45;&gt;Node20 -->
<g id="edge44" class="edge">
<title>Node29&#45;&gt;Node20</title>
<path fill="none" stroke="midnightblue" d="M326.23,-195.27C333.81,-196.63 341.69,-197.99 349,-199 525.56,-223.3 574.69,-208.07 751.12,-234.34"/>
<polygon fill="midnightblue" stroke="midnightblue" points="750.85,-237.84 761.27,-235.88 751.9,-230.92 750.85,-237.84"/>
</g>
<!-- Node30&#45;&gt;Node8 -->
<g id="edge46" class="edge">
<title>Node30&#45;&gt;Node8</title>
<path fill="none" stroke="midnightblue" d="M1660.77,-179.29C1647.45,-165.64 1619.87,-139.11 1592,-123 1510.04,-75.6 1403.29,-43.35 1343.58,-27.61"/>
<polygon fill="midnightblue" stroke="midnightblue" points="1344.26,-24.17 1333.7,-25.05 1342.5,-30.95 1344.26,-24.17"/>
</g>
<!-- Node30&#45;&gt;Node16 -->
<g id="edge47" class="edge">
<title>Node30&#45;&gt;Node16</title>
<path fill="none" stroke="midnightblue" d="M1671.51,-179.37C1676.7,-161.54 1688.7,-120.3 1695.68,-96.27"/>
<polygon fill="midnightblue" stroke="midnightblue" points="1699.07,-97.17 1698.5,-86.59 1692.35,-95.22 1699.07,-97.17"/>
</g>
<!-- Node31 -->
<g id="node31" class="node">
<title>Node31</title>
<g id="a_node31"><a xlink:href="motion_8hpp.html" target="_top" xlink:title="Gerencia efeitos de parallax e animações de cenário.">
<polygon fill="white" stroke="black" points="1511,-123.5 1511,-142.5 1583,-142.5 1583,-123.5 1511,-123.5"/>
<text text-anchor="middle" x="1547" y="-130.5" font-family="Helvetica,sans-Serif" font-size="10.00">motion.hpp</text>
</a>
</g>
</g>
<!-- Node30&#45;&gt;Node31 -->
<g id="edge48" class="edge">
<title>Node30&#45;&gt;Node31</title>
<path fill="none" stroke="midnightblue" d="M1649.67,-179.44C1629.68,-170.6 1598.26,-156.69 1575.44,-146.59"/>
<polygon fill="midnightblue" stroke="midnightblue" points="1576.8,-143.36 1566.24,-142.52 1573.97,-149.76 1576.8,-143.36"/>
</g>
<!-- Node31&#45;&gt;Node5 -->
<g id="edge50" class="edge">
<title>Node31&#45;&gt;Node5</title>
<path fill="none" stroke="midnightblue" d="M1510.71,-130.09C1354.09,-121.87 736.15,-89.41 563.83,-80.35"/>
<polygon fill="midnightblue" stroke="midnightblue" points="563.77,-76.85 553.6,-79.82 563.4,-83.84 563.77,-76.85"/>
</g>
<!-- Node31&#45;&gt;Node13 -->
<g id="edge49" class="edge">
<title>Node31&#45;&gt;Node13</title>
<path fill="none" stroke="midnightblue" d="M1526.49,-123.41C1493.7,-109.92 1427.21,-83.61 1369,-67 1308.38,-49.7 1237.66,-35.63 1188.38,-26.78"/>
<polygon fill="midnightblue" stroke="midnightblue" points="1188.97,-23.33 1178.51,-25.02 1187.74,-30.22 1188.97,-23.33"/>
</g>
<!-- Node31&#45;&gt;Node16 -->
<g id="edge51" class="edge">
<title>Node31&#45;&gt;Node16</title>
<path fill="none" stroke="midnightblue" d="M1571.4,-123.44C1597.2,-114.4 1638.08,-100.06 1667.02,-89.92"/>
<polygon fill="midnightblue" stroke="midnightblue" points="1668.43,-93.13 1676.71,-86.52 1666.12,-86.52 1668.43,-93.13"/>
</g>
<!-- Node32&#45;&gt;Node16 -->
<g id="edge59" class="edge">
<title>Node32&#45;&gt;Node16</title>
<path fill="none" stroke="midnightblue" d="M1453.78,-367.95C1505.53,-368.37 1614.06,-363.66 1693,-322 1734.42,-300.14 1766,-292.84 1766,-246 1766,-246 1766,-246 1766,-188 1766,-150.18 1737.16,-113.94 1717.91,-93.96"/>
<polygon fill="midnightblue" stroke="midnightblue" points="1720.14,-91.24 1710.59,-86.66 1715.2,-96.2 1720.14,-91.24"/>
</g>
<!-- Node32&#45;&gt;Node18 -->
<g id="edge58" class="edge">
<title>Node32&#45;&gt;Node18</title>
<path fill="none" stroke="midnightblue" d="M1453.77,-360.95C1474.87,-354.94 1501.7,-343.41 1515,-322 1548.53,-268.01 1525.96,-241.6 1515,-179 1510.59,-153.83 1495.17,-147.62 1502,-123 1511.7,-88.03 1536.29,-53.03 1552.01,-33.14"/>
<polygon fill="midnightblue" stroke="midnightblue" points="1554.94,-35.09 1558.52,-25.12 1549.5,-30.67 1554.94,-35.09"/>
</g>
<!-- Node32&#45;&gt;Node19 -->
<g id="edge60" class="edge">
<title>Node32&#45;&gt;Node19</title>
<path fill="none" stroke="midnightblue" d="M1396.35,-358.48C1362.81,-348.14 1306.13,-330.66 1268.63,-319.1"/>
<polygon fill="midnightblue" stroke="midnightblue" points="1269.19,-315.61 1258.6,-316.01 1267.13,-322.3 1269.19,-315.61"/>
</g>
<!-- Node32&#45;&gt;Node20 -->
<g id="edge61" class="edge">
<title>Node32&#45;&gt;Node20</title>
<path fill="none" stroke="midnightblue" d="M1412.7,-358.25C1390.7,-341.76 1339.97,-306.37 1291,-291 1203.85,-263.64 925.31,-251.01 824.7,-247.25"/>
<polygon fill="midnightblue" stroke="midnightblue" points="824.82,-243.75 814.7,-246.89 824.57,-250.75 824.82,-243.75"/>
</g>
<!-- Node32&#45;&gt;Node28 -->
<g id="edge56" class="edge">
<title>Node32&#45;&gt;Node28</title>
<path fill="none" stroke="midnightblue" d="M1425.45,-358.46C1430.03,-331.43 1444.3,-247.24 1450.76,-209.11"/>
<polygon fill="midnightblue" stroke="midnightblue" points="1454.28,-209.31 1452.5,-198.87 1447.37,-208.14 1454.28,-209.31"/>
</g>
<!-- Node33 -->
<g id="node33" class="node">
<title>Node33</title>
<g id="a_node33"><a xlink:title=" ">
<polygon fill="white" stroke="#bfbfbf" points="1452,-297 1452,-316 1506,-316 1506,-297 1452,-297"/>
<text text-anchor="middle" x="1479" y="-304" font-family="Helvetica,sans-Serif" font-size="10.00">random</text>
</a>
</g>
</g>
<!-- Node32&#45;&gt;Node33 -->
<g id="edge57" class="edge">
<title>Node32&#45;&gt;Node33</title>
<path fill="none" stroke="midnightblue" d="M1431.88,-358.48C1440.29,-349.37 1453.82,-334.74 1464.23,-323.48"/>
<polygon fill="midnightblue" stroke="midnightblue" points="1466.92,-325.73 1471.13,-316.01 1461.78,-320.98 1466.92,-325.73"/>
</g>
<!-- Node34&#45;&gt;Node5 -->
<g id="edge68" class="edge">
<title>Node34&#45;&gt;Node5</title>
<path fill="none" stroke="midnightblue" d="M1561.99,-296.37C1546.68,-294.34 1530.26,-292.38 1515,-291 1374.54,-278.28 343.06,-304.09 249,-199 243.07,-192.38 243.31,-185.83 249,-179 305.38,-111.26 364.58,-181.2 444,-143 468.37,-131.28 491.05,-109.5 504.95,-94.4"/>
<polygon fill="midnightblue" stroke="midnightblue" points="507.68,-96.6 511.72,-86.81 502.45,-91.94 507.68,-96.6"/>
</g>
<!-- Node34&#45;&gt;Node16 -->
<g id="edge69" class="edge">
<title>Node34&#45;&gt;Node16</title>
<path fill="none" stroke="midnightblue" d="M1639.94,-291.4C1660.84,-272.77 1695.3,-237.77 1709,-199 1721.29,-164.23 1713.01,-120.39 1706.56,-96.17"/>
<polygon fill="midnightblue" stroke="midnightblue" points="1709.92,-95.18 1703.81,-86.53 1703.19,-97.1 1709.92,-95.18"/>
</g>
<!-- Node34&#45;&gt;Node20 -->
<g id="edge70" class="edge">
<title>Node34&#45;&gt;Node20</title>
<path fill="none" stroke="midnightblue" d="M1561.97,-296.53C1546.66,-294.49 1530.25,-292.49 1515,-291 1251.27,-265.17 932.17,-251.47 825.07,-247.36"/>
<polygon fill="midnightblue" stroke="midnightblue" points="824.92,-243.85 814.79,-246.96 824.65,-250.84 824.92,-243.85"/>
</g>
<!-- Node34&#45;&gt;Node30 -->
<g id="edge72" class="edge">
<title>Node34&#45;&gt;Node30</title>
<path fill="none" stroke="midnightblue" d="M1628.64,-291.34C1636.97,-270.43 1652.55,-231.31 1661.72,-208.27"/>
<polygon fill="midnightblue" stroke="midnightblue" points="1665.1,-209.25 1665.55,-198.67 1658.6,-206.66 1665.1,-209.25"/>
</g>
<!-- Node34&#45;&gt;Node31 -->
<g id="edge71" class="edge">
<title>Node34&#45;&gt;Node31</title>
<path fill="none" stroke="midnightblue" d="M1616.78,-291.47C1603.03,-260.44 1570.07,-186.05 1554.89,-151.81"/>
<polygon fill="midnightblue" stroke="midnightblue" points="1558.04,-150.28 1550.79,-142.56 1551.64,-153.12 1558.04,-150.28"/>
</g>
<!-- Node35&#45;&gt;Node3 -->
<g id="edge74" class="edge">
<title>Node35&#45;&gt;Node3</title>
<path fill="none" stroke="midnightblue" d="M1447.33,-475.98C1405.8,-465.46 1335.11,-447.56 1289.5,-436.01"/>
<polygon fill="midnightblue" stroke="midnightblue" points="1290.16,-432.57 1279.61,-433.51 1288.44,-439.36 1290.16,-432.57"/>
</g>
<!-- Node35&#45;&gt;Node30 -->
<g id="edge75" class="edge">
<title>Node35&#45;&gt;Node30</title>
<path fill="none" stroke="midnightblue" d="M1549.75,-476.71C1654.49,-462.9 1842,-429.7 1842,-369 1842,-369 1842,-369 1842,-305.5 1842,-242.36 1761.3,-211.59 1710.14,-198.43"/>
<polygon fill="midnightblue" stroke="midnightblue" points="1710.87,-195 1700.33,-196.02 1709.21,-201.8 1710.87,-195"/>
</g>
</g>
</svg>
