<?xml version="1.0" encoding="UTF-8" standalone="no"?>
<!DOCTYPE svg PUBLIC "-//W3C//DTD SVG 1.1//EN"
 "http://www.w3.org/Graphics/SVG/1.1/DTD/svg11.dtd">
<!-- Generated by graphviz version 2.43.0 (0)
 -->
<!-- Title: include/allegro_interface.hpp Pages: 1 -->
<svg width="1707pt" height="487pt"
 viewBox="0.00 0.00 1707.00 487.00" xmlns="http://www.w3.org/2000/svg" xmlns:xlink="http://www.w3.org/1999/xlink">
<g id="graph0" class="graph" transform="scale(1 1) rotate(0) translate(4 483)">
<title>include/allegro_interface.hpp</title>
<polygon fill="white" stroke="transparent" points="-4,4 -4,-483 1703,-483 1703,4 -4,4"/>
<!-- Node1 -->
<g id="node1" class="node">
<title>Node1</title>
<g id="a_node1"><a xlink:title="Declara o controlador que integra Allegro e a máquina de estados.">
<polygon fill="#bfbfbf" stroke="black" points="1243,-459.5 1243,-478.5 1401,-478.5 1401,-459.5 1243,-459.5"/>
<text text-anchor="middle" x="1322" y="-466.5" font-family="Helvetica,sans-Serif" font-size="10.00">include/allegro_interface.hpp</text>
</a>
</g>
</g>
<!-- Node2 -->
<g id="node2" class="node">
<title>Node2</title>
<g id="a_node2"><a xlink:href="flappy__bird__controller_8hpp.html" target="_top" xlink:title="Declaracao da classe FlappyBird (controlador principal).">
<polygon fill="white" stroke="black" points="1250.5,-403.5 1250.5,-422.5 1393.5,-422.5 1393.5,-403.5 1250.5,-403.5"/>
<text text-anchor="middle" x="1322" y="-410.5" font-family="Helvetica,sans-Serif" font-size="10.00">flappy_bird_controller.hpp</text>
</a>
</g>
</g>
<!-- Node1&#45;&gt;Node2 -->
<g id="edge1" class="edge">
<title>Node1&#45;&gt;Node2</title>
<path fill="none" stroke="midnightblue" d="M1322,-459.08C1322,-452.01 1322,-441.86 1322,-432.99"/>
<polygon fill="midnightblue" stroke="midnightblue" points="1325.5,-432.75 1322,-422.75 1318.5,-432.75 1325.5,-432.75"/>
</g>
<!-- Node19 -->
<g id="node19" class="node">
<title>Node19</title>
<g id="a_node19"><a xlink:href="init_8hpp.html" target="_top" xlink:title="Declara funções de inicialização e finalização do Allegro.">
<polygon fill="white" stroke="black" points="786.5,-235.5 786.5,-254.5 839.5,-254.5 839.5,-235.5 786.5,-235.5"/>
<text text-anchor="middle" x="813" y="-242.5" font-family="Helvetica,sans-Serif" font-size="10.00">init.hpp</text>
</a>
</g>
</g>
<!-- Node1&#45;&gt;Node19 -->
<g id="edge62" class="edge">
<title>Node1&#45;&gt;Node19</title>
<path fill="none" stroke="midnightblue" d="M1300.26,-459.39C1242.37,-436.35 1079.84,-370.97 947,-311 909.01,-293.85 865.73,-272.52 838.89,-259.08"/>
<polygon fill="midnightblue" stroke="midnightblue" points="840.29,-255.87 829.78,-254.51 837.15,-262.13 840.29,-255.87"/>
</g>
<!-- Node29 -->
<g id="node29" class="node">
<title>Node29</title>
<g id="a_node29"><a xlink:href="state_8hpp.html" target="_top" xlink:title="Interface base para estados da máquina de estados do jogo.">
<polygon fill="white" stroke="black" points="1495,-179.5 1495,-198.5 1557,-198.5 1557,-179.5 1495,-179.5"/>
<text text-anchor="middle" x="1526" y="-186.5" font-family="Helvetica,sans-Serif" font-size="10.00">state.hpp</text>
</a>
</g>
</g>
<!-- Node1&#45;&gt;Node29 -->
<g id="edge63" class="edge">
<title>Node1&#45;&gt;Node29</title>
<path fill="none" stroke="midnightblue" d="M1382.85,-459.48C1436.8,-448.35 1512.52,-423.16 1549,-367 1581.58,-316.84 1551.95,-241.69 1535.4,-207.75"/>
<polygon fill="midnightblue" stroke="midnightblue" points="1538.42,-205.95 1530.77,-198.62 1532.17,-209.12 1538.42,-205.95"/>
</g>
<!-- Node3 -->
<g id="node3" class="node">
<title>Node3</title>
<g id="a_node3"><a xlink:title=" ">
<polygon fill="white" stroke="#bfbfbf" points="0,-6 0,-25 58,-25 58,-6 0,-6"/>
<text text-anchor="middle" x="29" y="-13" font-family="Helvetica,sans-Serif" font-size="10.00">memory</text>
</a>
</g>
</g>
<!-- Node2&#45;&gt;Node3 -->
<g id="edge2" class="edge">
<title>Node2&#45;&gt;Node3</title>
<path fill="none" stroke="midnightblue" d="M1250.47,-406.61C1233.59,-405.38 1215.66,-404.11 1199,-403 1082.27,-395.22 151,-418.98 151,-302 151,-302 151,-302 151,-132 151,-81.66 95.56,-46.71 59.42,-29.27"/>
<polygon fill="midnightblue" stroke="midnightblue" points="60.8,-26.04 50.25,-25.01 57.85,-32.39 60.8,-26.04"/>
</g>
<!-- Node4 -->
<g id="node4" class="node">
<title>Node4</title>
<g id="a_node4"><a xlink:href="assets_8hpp.html" target="_top" xlink:title="Declara classes utilitárias para carregar e usar imagens, sons e fontes no Allegro.">
<polygon fill="white" stroke="black" points="407.5,-67.5 407.5,-86.5 476.5,-86.5 476.5,-67.5 407.5,-67.5"/>
<text text-anchor="middle" x="442" y="-74.5" font-family="Helvetica,sans-Serif" font-size="10.00">assets.hpp</text>
</a>
</g>
</g>
<!-- Node2&#45;&gt;Node4 -->
<g id="edge3" class="edge">
<title>Node2&#45;&gt;Node4</title>
<path fill="none" stroke="midnightblue" d="M1250.35,-406.15C1018.4,-386.96 303,-325.85 303,-302 303,-302 303,-302 303,-188 303,-136.58 362.23,-105.42 403.36,-89.98"/>
<polygon fill="midnightblue" stroke="midnightblue" points="404.63,-93.24 412.86,-86.57 402.27,-86.65 404.63,-93.24"/>
</g>
<!-- Node14 -->
<g id="node14" class="node">
<title>Node14</title>
<g id="a_node14"><a xlink:href="bird_8hpp.html" target="_top" xlink:title="Declaracao da classe Bird (personagem controlavel).">
<polygon fill="white" stroke="black" points="1322,-347.5 1322,-366.5 1378,-366.5 1378,-347.5 1322,-347.5"/>
<text text-anchor="middle" x="1350" y="-354.5" font-family="Helvetica,sans-Serif" font-size="10.00">bird.hpp</text>
</a>
</g>
</g>
<!-- Node2&#45;&gt;Node14 -->
<g id="edge14" class="edge">
<title>Node2&#45;&gt;Node14</title>
<path fill="none" stroke="midnightblue" d="M1326.62,-403.08C1330.46,-395.69 1336.02,-384.95 1340.76,-375.81"/>
<polygon fill="midnightblue" stroke="midnightblue" points="1343.97,-377.24 1345.46,-366.75 1337.75,-374.02 1343.97,-377.24"/>
</g>
<!-- Node15 -->
<g id="node15" class="node">
<title>Node15</title>
<g id="a_node15"><a xlink:href="defines_8hpp.html" target="_top" xlink:title="Constantes globais, macros e estruturas auxiliares do jogo.">
<polygon fill="white" stroke="black" points="1515.5,-67.5 1515.5,-86.5 1588.5,-86.5 1588.5,-67.5 1515.5,-67.5"/>
<text text-anchor="middle" x="1552" y="-74.5" font-family="Helvetica,sans-Serif" font-size="10.00">defines.hpp</text>
</a>
</g>
</g>
<!-- Node2&#45;&gt;Node15 -->
<g id="edge51" class="edge">
<title>Node2&#45;&gt;Node15</title>
<path fill="none" stroke="midnightblue" d="M1393.8,-405.77C1503.18,-394.27 1699,-364.9 1699,-302 1699,-302 1699,-302 1699,-188 1699,-135.25 1637.57,-104.73 1594.14,-89.75"/>
<polygon fill="midnightblue" stroke="midnightblue" points="1595.22,-86.42 1584.62,-86.61 1593.03,-93.07 1595.22,-86.42"/>
</g>
<!-- Node18 -->
<g id="node18" class="node">
<title>Node18</title>
<g id="a_node18"><a xlink:href="game__object_8hpp.html" target="_top" xlink:title="Classe base abstrata para todos os objetos renderizáveis.">
<polygon fill="white" stroke="black" points="1231.5,-291.5 1231.5,-310.5 1332.5,-310.5 1332.5,-291.5 1231.5,-291.5"/>
<text text-anchor="middle" x="1282" y="-298.5" font-family="Helvetica,sans-Serif" font-size="10.00">game_object.hpp</text>
</a>
</g>
</g>
<!-- Node2&#45;&gt;Node18 -->
<g id="edge52" class="edge">
<title>Node2&#45;&gt;Node18</title>
<path fill="none" stroke="midnightblue" d="M1318.86,-403.37C1312.38,-385.54 1297.38,-344.3 1288.64,-320.27"/>
<polygon fill="midnightblue" stroke="midnightblue" points="1291.83,-318.79 1285.12,-310.59 1285.25,-321.19 1291.83,-318.79"/>
</g>
<!-- Node2&#45;&gt;Node19 -->
<g id="edge53" class="edge">
<title>Node2&#45;&gt;Node19</title>
<path fill="none" stroke="midnightblue" d="M1295.71,-403.42C1211.06,-375.82 945.56,-289.23 848.76,-257.66"/>
<polygon fill="midnightblue" stroke="midnightblue" points="849.73,-254.3 839.14,-254.52 847.56,-260.95 849.73,-254.3"/>
</g>
<!-- Node28 -->
<g id="node28" class="node">
<title>Node28</title>
<g id="a_node28"><a xlink:href="player_8hpp.html" target="_top" xlink:title="Modela um jogador e operações de ranking.">
<polygon fill="white" stroke="black" points="1249,-179.5 1249,-198.5 1317,-198.5 1317,-179.5 1249,-179.5"/>
<text text-anchor="middle" x="1283" y="-186.5" font-family="Helvetica,sans-Serif" font-size="10.00">player.hpp</text>
</a>
</g>
</g>
<!-- Node2&#45;&gt;Node28 -->
<g id="edge61" class="edge">
<title>Node2&#45;&gt;Node28</title>
<path fill="none" stroke="midnightblue" d="M1393.54,-406.08C1447.04,-399.99 1513.8,-388.3 1531,-367 1540.08,-355.76 1548.98,-320.6 1528,-291 1503.57,-256.53 1388.07,-219.53 1324.77,-201.38"/>
<polygon fill="midnightblue" stroke="midnightblue" points="1325.65,-197.99 1315.08,-198.63 1323.74,-204.72 1325.65,-197.99"/>
</g>
<!-- Node31 -->
<g id="node31" class="node">
<title>Node31</title>
<g id="a_node31"><a xlink:href="pipe_8hpp.html" target="_top" xlink:title="Declaration of pipe&#45;related classes (Pipe, PipePair, PipeList).">
<polygon fill="white" stroke="black" points="1462.5,-347.5 1462.5,-366.5 1521.5,-366.5 1521.5,-347.5 1462.5,-347.5"/>
<text text-anchor="middle" x="1492" y="-354.5" font-family="Helvetica,sans-Serif" font-size="10.00">pipe.hpp</text>
</a>
</g>
</g>
<!-- Node2&#45;&gt;Node31 -->
<g id="edge54" class="edge">
<title>Node2&#45;&gt;Node31</title>
<path fill="none" stroke="midnightblue" d="M1348.94,-403.44C1377.66,-394.32 1423.33,-379.81 1455.32,-369.65"/>
<polygon fill="midnightblue" stroke="midnightblue" points="1456.72,-372.88 1465.19,-366.52 1454.6,-366.21 1456.72,-372.88"/>
</g>
<!-- Node4&#45;&gt;Node3 -->
<g id="edge5" class="edge">
<title>Node4&#45;&gt;Node3</title>
<path fill="none" stroke="midnightblue" d="M407.37,-74.68C340.61,-71.5 189.87,-61.32 67,-31 64.17,-30.3 61.27,-29.45 58.39,-28.52"/>
<polygon fill="midnightblue" stroke="midnightblue" points="59.42,-25.17 48.82,-25.11 57.07,-31.76 59.42,-25.17"/>
</g>
<!-- Node5 -->
<g id="node5" class="node">
<title>Node5</title>
<g id="a_node5"><a xlink:title=" ">
<polygon fill="white" stroke="#bfbfbf" points="76,-6 76,-25 136,-25 136,-6 76,-6"/>
<text text-anchor="middle" x="106" y="-13" font-family="Helvetica,sans-Serif" font-size="10.00">iostream</text>
</a>
</g>
</g>
<!-- Node4&#45;&gt;Node5 -->
<g id="edge4" class="edge">
<title>Node4&#45;&gt;Node5</title>
<path fill="none" stroke="midnightblue" d="M407.24,-73.07C351.3,-67.84 238.15,-55.1 145,-31 142.18,-30.27 139.28,-29.41 136.4,-28.48"/>
<polygon fill="midnightblue" stroke="midnightblue" points="137.39,-25.12 126.8,-25.13 135.09,-31.73 137.39,-25.12"/>
</g>
<!-- Node6 -->
<g id="node6" class="node">
<title>Node6</title>
<g id="a_node6"><a xlink:title=" ">
<polygon fill="white" stroke="#bfbfbf" points="906,-6 906,-25 950,-25 950,-6 906,-6"/>
<text text-anchor="middle" x="928" y="-13" font-family="Helvetica,sans-Serif" font-size="10.00">string</text>
</a>
</g>
</g>
<!-- Node4&#45;&gt;Node6 -->
<g id="edge6" class="edge">
<title>Node4&#45;&gt;Node6</title>
<path fill="none" stroke="midnightblue" d="M476.55,-73.26C575.72,-65.3 856.77,-42.05 897,-31 898.93,-30.47 900.9,-29.83 902.85,-29.11"/>
<polygon fill="midnightblue" stroke="midnightblue" points="904.47,-32.22 912.3,-25.1 901.73,-25.78 904.47,-32.22"/>
</g>
<!-- Node7 -->
<g id="node7" class="node">
<title>Node7</title>
<g id="a_node7"><a xlink:title=" ">
<polygon fill="white" stroke="#bfbfbf" points="1094,-6 1094,-25 1196,-25 1196,-6 1094,-6"/>
<text text-anchor="middle" x="1145" y="-13" font-family="Helvetica,sans-Serif" font-size="10.00">allegro5/allegro.h</text>
</a>
</g>
</g>
<!-- Node4&#45;&gt;Node7 -->
<g id="edge7" class="edge">
<title>Node4&#45;&gt;Node7</title>
<path fill="none" stroke="midnightblue" d="M476.86,-73.05C588.76,-63.58 939.89,-33.86 1083.18,-21.73"/>
<polygon fill="midnightblue" stroke="midnightblue" points="1083.87,-25.19 1093.54,-20.86 1083.28,-18.21 1083.87,-25.19"/>
</g>
<!-- Node8 -->
<g id="node8" class="node">
<title>Node8</title>
<g id="a_node8"><a xlink:title=" ">
<polygon fill="white" stroke="#bfbfbf" points="154,-6 154,-25 296,-25 296,-6 154,-6"/>
<text text-anchor="middle" x="225" y="-13" font-family="Helvetica,sans-Serif" font-size="10.00">allegro5/allegro_acodec.h</text>
</a>
</g>
</g>
<!-- Node4&#45;&gt;Node8 -->
<g id="edge8" class="edge">
<title>Node4&#45;&gt;Node8</title>
<path fill="none" stroke="midnightblue" d="M410.91,-67.48C372.72,-57 307.83,-39.21 265.7,-27.66"/>
<polygon fill="midnightblue" stroke="midnightblue" points="266.6,-24.28 256.03,-25.01 264.75,-31.03 266.6,-24.28"/>
</g>
<!-- Node9 -->
<g id="node9" class="node">
<title>Node9</title>
<g id="a_node9"><a xlink:title=" ">
<polygon fill="white" stroke="#bfbfbf" points="314,-6 314,-25 448,-25 448,-6 314,-6"/>
<text text-anchor="middle" x="381" y="-13" font-family="Helvetica,sans-Serif" font-size="10.00">allegro5/allegro_audio.h</text>
</a>
</g>
</g>
<!-- Node4&#45;&gt;Node9 -->
<g id="edge9" class="edge">
<title>Node4&#45;&gt;Node9</title>
<path fill="none" stroke="midnightblue" d="M433.26,-67.48C423.84,-58.28 408.64,-43.46 397.05,-32.16"/>
<polygon fill="midnightblue" stroke="midnightblue" points="399.33,-29.49 389.72,-25.01 394.44,-34.5 399.33,-29.49"/>
</g>
<!-- Node10 -->
<g id="node10" class="node">
<title>Node10</title>
<g id="a_node10"><a xlink:title=" ">
<polygon fill="white" stroke="#bfbfbf" points="466,-6 466,-25 604,-25 604,-6 466,-6"/>
<text text-anchor="middle" x="535" y="-13" font-family="Helvetica,sans-Serif" font-size="10.00">allegro5/allegro_image.h</text>
</a>
</g>
</g>
<!-- Node4&#45;&gt;Node10 -->
<g id="edge10" class="edge">
<title>Node4&#45;&gt;Node10</title>
<path fill="none" stroke="midnightblue" d="M455.32,-67.48C470.38,-57.84 495.12,-42.02 513.04,-30.55"/>
<polygon fill="midnightblue" stroke="midnightblue" points="515.16,-33.35 521.7,-25.01 511.39,-27.45 515.16,-33.35"/>
</g>
<!-- Node11 -->
<g id="node11" class="node">
<title>Node11</title>
<g id="a_node11"><a xlink:title=" ">
<polygon fill="white" stroke="#bfbfbf" points="622.5,-0.5 622.5,-30.5 751.5,-30.5 751.5,-0.5 622.5,-0.5"/>
<text text-anchor="start" x="630.5" y="-18.5" font-family="Helvetica,sans-Serif" font-size="10.00">allegro5/allegro_native</text>
<text text-anchor="middle" x="687" y="-7.5" font-family="Helvetica,sans-Serif" font-size="10.00">_dialog.h</text>
</a>
</g>
</g>
<!-- Node4&#45;&gt;Node11 -->
<g id="edge11" class="edge">
<title>Node4&#45;&gt;Node11</title>
<path fill="none" stroke="midnightblue" d="M476.58,-67.6C513.45,-58.65 572.77,-44.24 619.04,-33"/>
<polygon fill="midnightblue" stroke="midnightblue" points="620.11,-36.35 629,-30.59 618.46,-29.54 620.11,-36.35"/>
</g>
<!-- Node12 -->
<g id="node12" class="node">
<title>Node12</title>
<g id="a_node12"><a xlink:title=" ">
<polygon fill="white" stroke="#bfbfbf" points="1238.5,-6 1238.5,-25 1395.5,-25 1395.5,-6 1238.5,-6"/>
<text text-anchor="middle" x="1317" y="-13" font-family="Helvetica,sans-Serif" font-size="10.00">allegro5/allegro_primitives.h</text>
</a>
</g>
</g>
<!-- Node4&#45;&gt;Node12 -->
<g id="edge12" class="edge">
<title>Node4&#45;&gt;Node12</title>
<path fill="none" stroke="midnightblue" d="M476.67,-74.82C584.66,-70.95 924.59,-57.39 1205,-31 1218.67,-29.71 1233.23,-28.05 1247.19,-26.3"/>
<polygon fill="midnightblue" stroke="midnightblue" points="1247.74,-29.76 1257.22,-25.02 1246.86,-22.82 1247.74,-29.76"/>
</g>
<!-- Node13 -->
<g id="node13" class="node">
<title>Node13</title>
<g id="a_node13"><a xlink:title=" ">
<polygon fill="white" stroke="#bfbfbf" points="770,-6 770,-25 888,-25 888,-6 770,-6"/>
<text text-anchor="middle" x="829" y="-13" font-family="Helvetica,sans-Serif" font-size="10.00">allegro5/allegro_ttf.h</text>
</a>
</g>
</g>
<!-- Node4&#45;&gt;Node13 -->
<g id="edge13" class="edge">
<title>Node4&#45;&gt;Node13</title>
<path fill="none" stroke="midnightblue" d="M476.59,-71.93C535.27,-64.83 658.01,-49.22 761,-31 767.63,-29.83 774.6,-28.48 781.44,-27.08"/>
<polygon fill="midnightblue" stroke="midnightblue" points="782.25,-30.49 791.33,-25.02 780.82,-23.64 782.25,-30.49"/>
</g>
<!-- Node14&#45;&gt;Node12 -->
<g id="edge15" class="edge">
<title>Node14&#45;&gt;Node12</title>
<path fill="none" stroke="midnightblue" d="M1357.61,-347.13C1384.06,-315.82 1469.24,-210.64 1448,-179 1424.45,-143.92 1388.96,-173.77 1360,-143 1331.35,-112.55 1321.72,-62.27 1318.54,-35.18"/>
<polygon fill="midnightblue" stroke="midnightblue" points="1322.01,-34.71 1317.53,-25.11 1315.05,-35.41 1322.01,-34.71"/>
</g>
<!-- Node14&#45;&gt;Node15 -->
<g id="edge16" class="edge">
<title>Node14&#45;&gt;Node15</title>
<path fill="none" stroke="midnightblue" d="M1363.34,-347.33C1408.68,-317.74 1554.64,-221.31 1566,-199 1582.97,-165.69 1569.83,-120.7 1560.07,-96.03"/>
<polygon fill="midnightblue" stroke="midnightblue" points="1563.29,-94.66 1556.19,-86.8 1556.84,-97.37 1563.29,-94.66"/>
</g>
<!-- Node14&#45;&gt;Node18 -->
<g id="edge20" class="edge">
<title>Node14&#45;&gt;Node18</title>
<path fill="none" stroke="midnightblue" d="M1339.07,-347.32C1328.83,-339.18 1313.28,-326.84 1301,-317.09"/>
<polygon fill="midnightblue" stroke="midnightblue" points="1303.13,-314.31 1293.12,-310.83 1298.78,-319.79 1303.13,-314.31"/>
</g>
<!-- Node15&#45;&gt;Node6 -->
<g id="edge18" class="edge">
<title>Node15&#45;&gt;Node6</title>
<path fill="none" stroke="midnightblue" d="M1515.3,-72.5C1403.15,-61.81 1066.24,-29.68 960.27,-19.58"/>
<polygon fill="midnightblue" stroke="midnightblue" points="960.48,-16.08 950.19,-18.62 959.81,-23.05 960.48,-16.08"/>
</g>
<!-- Node16 -->
<g id="node16" class="node">
<title>Node16</title>
<g id="a_node16"><a xlink:title=" ">
<polygon fill="white" stroke="#bfbfbf" points="1528.5,-6 1528.5,-25 1575.5,-25 1575.5,-6 1528.5,-6"/>
<text text-anchor="middle" x="1552" y="-13" font-family="Helvetica,sans-Serif" font-size="10.00">cmath</text>
</a>
</g>
</g>
<!-- Node15&#45;&gt;Node16 -->
<g id="edge17" class="edge">
<title>Node15&#45;&gt;Node16</title>
<path fill="none" stroke="midnightblue" d="M1552,-67.48C1552,-59.08 1552,-45.98 1552,-35.16"/>
<polygon fill="midnightblue" stroke="midnightblue" points="1555.5,-35.01 1552,-25.01 1548.5,-35.01 1555.5,-35.01"/>
</g>
<!-- Node17 -->
<g id="node17" class="node">
<title>Node17</title>
<g id="a_node17"><a xlink:title=" ">
<polygon fill="white" stroke="#bfbfbf" points="1608.5,-6 1608.5,-25 1655.5,-25 1655.5,-6 1608.5,-6"/>
<text text-anchor="middle" x="1632" y="-13" font-family="Helvetica,sans-Serif" font-size="10.00">vector</text>
</a>
</g>
</g>
<!-- Node15&#45;&gt;Node17 -->
<g id="edge19" class="edge">
<title>Node15&#45;&gt;Node17</title>
<path fill="none" stroke="midnightblue" d="M1563.46,-67.48C1576.17,-58.02 1596.91,-42.6 1612.25,-31.19"/>
<polygon fill="midnightblue" stroke="midnightblue" points="1614.62,-33.79 1620.56,-25.01 1610.45,-28.17 1614.62,-33.79"/>
</g>
<!-- Node18&#45;&gt;Node19 -->
<g id="edge21" class="edge">
<title>Node18&#45;&gt;Node19</title>
<path fill="none" stroke="midnightblue" d="M1231.36,-294.17C1136.19,-283.21 932.73,-259.79 849.56,-250.21"/>
<polygon fill="midnightblue" stroke="midnightblue" points="849.91,-246.73 839.57,-249.06 849.11,-253.68 849.91,-246.73"/>
</g>
<!-- Node19&#45;&gt;Node3 -->
<g id="edge28" class="edge">
<title>Node19&#45;&gt;Node3</title>
<path fill="none" stroke="midnightblue" d="M786.4,-243.82C695.44,-242.87 397.59,-236.86 311,-199 230.85,-163.95 239.87,-112.24 165,-67 125.29,-43 110.45,-47.27 67,-31 65.12,-30.29 63.18,-29.57 61.23,-28.83"/>
<polygon fill="midnightblue" stroke="midnightblue" points="62.08,-25.41 51.49,-25.13 59.6,-31.95 62.08,-25.41"/>
</g>
<!-- Node19&#45;&gt;Node4 -->
<g id="edge40" class="edge">
<title>Node19&#45;&gt;Node4</title>
<path fill="none" stroke="midnightblue" d="M786.25,-242.56C706.77,-238.04 476.15,-222.94 453,-199 426.7,-171.8 431.86,-123.31 437.3,-96.72"/>
<polygon fill="midnightblue" stroke="midnightblue" points="440.75,-97.32 439.56,-86.79 433.93,-95.77 440.75,-97.32"/>
</g>
<!-- Node19&#45;&gt;Node5 -->
<g id="edge25" class="edge">
<title>Node19&#45;&gt;Node5</title>
<path fill="none" stroke="midnightblue" d="M786.22,-243.54C700.02,-241.73 430.87,-233.39 352,-199 270.9,-163.64 275.89,-117.14 203,-67 181.36,-52.11 154.77,-38.57 134.91,-29.26"/>
<polygon fill="midnightblue" stroke="midnightblue" points="136.3,-26.05 125.75,-25.05 133.38,-32.41 136.3,-26.05"/>
</g>
<!-- Node19&#45;&gt;Node6 -->
<g id="edge30" class="edge">
<title>Node19&#45;&gt;Node6</title>
<path fill="none" stroke="midnightblue" d="M786.41,-243.34C727.96,-241.27 591.29,-232.83 563,-199 557.3,-192.18 558.15,-186.45 563,-179 651.55,-42.91 749.23,-98.29 897,-31 898.16,-30.47 899.33,-29.93 900.52,-29.39"/>
<polygon fill="midnightblue" stroke="midnightblue" points="902.07,-32.53 909.67,-25.15 899.12,-26.18 902.07,-32.53"/>
</g>
<!-- Node19&#45;&gt;Node7 -->
<g id="edge31" class="edge">
<title>Node19&#45;&gt;Node7</title>
<path fill="none" stroke="midnightblue" d="M839.67,-244.18C908.01,-244.06 1086.8,-239.76 1126,-199 1169.02,-154.26 1157.56,-71.91 1149.63,-35.11"/>
<polygon fill="midnightblue" stroke="midnightblue" points="1153.01,-34.2 1147.35,-25.25 1146.19,-35.78 1153.01,-34.2"/>
</g>
<!-- Node19&#45;&gt;Node8 -->
<g id="edge32" class="edge">
<title>Node19&#45;&gt;Node8</title>
<path fill="none" stroke="midnightblue" d="M786.37,-243.67C704.41,-242.29 457.27,-235.14 387,-199 312.3,-160.58 256.13,-72.19 234.6,-34.29"/>
<polygon fill="midnightblue" stroke="midnightblue" points="237.58,-32.45 229.67,-25.41 231.46,-35.85 237.58,-32.45"/>
</g>
<!-- Node19&#45;&gt;Node9 -->
<g id="edge33" class="edge">
<title>Node19&#45;&gt;Node9</title>
<path fill="none" stroke="midnightblue" d="M786.32,-244.14C706.6,-244.08 471.94,-240.31 410,-199 357.29,-163.84 368.65,-74.31 376.59,-35.22"/>
<polygon fill="midnightblue" stroke="midnightblue" points="380.06,-35.74 378.78,-25.23 373.22,-34.25 380.06,-35.74"/>
</g>
<!-- Node19&#45;&gt;Node10 -->
<g id="edge34" class="edge">
<title>Node19&#45;&gt;Node10</title>
<path fill="none" stroke="midnightblue" d="M786.32,-244.4C709.47,-245.03 489.65,-242.85 436,-199 388.83,-160.44 364.22,-117.02 399,-67 409.63,-51.71 453.37,-37.23 488.42,-27.73"/>
<polygon fill="midnightblue" stroke="midnightblue" points="489.73,-31 498.5,-25.07 487.94,-24.24 489.73,-31"/>
</g>
<!-- Node19&#45;&gt;Node11 -->
<g id="edge35" class="edge">
<title>Node19&#45;&gt;Node11</title>
<path fill="none" stroke="midnightblue" d="M786.09,-244.07C718.03,-243.65 541.6,-238.67 502,-199 458.87,-155.79 489.86,-101.82 540,-67 561.62,-51.98 588.11,-41.08 612.62,-33.33"/>
<polygon fill="midnightblue" stroke="midnightblue" points="613.7,-36.66 622.26,-30.41 611.67,-29.96 613.7,-36.66"/>
</g>
<!-- Node19&#45;&gt;Node12 -->
<g id="edge37" class="edge">
<title>Node19&#45;&gt;Node12</title>
<path fill="none" stroke="midnightblue" d="M839.62,-242.72C908.93,-239.01 1093.34,-226.76 1147,-199 1223.26,-159.55 1283.37,-71.73 1306.6,-34.13"/>
<polygon fill="midnightblue" stroke="midnightblue" points="1309.75,-35.69 1311.93,-25.33 1303.76,-32.07 1309.75,-35.69"/>
</g>
<!-- Node19&#45;&gt;Node13 -->
<g id="edge38" class="edge">
<title>Node19&#45;&gt;Node13</title>
<path fill="none" stroke="midnightblue" d="M786.23,-243.97C721.99,-243.28 561.99,-237.63 529,-199 499.35,-164.28 445.18,-172.47 567,-67 633.3,-9.6 675,-48.15 761,-31 767.14,-29.78 773.58,-28.45 779.95,-27.12"/>
<polygon fill="midnightblue" stroke="midnightblue" points="780.78,-30.52 789.84,-25.04 779.34,-23.67 780.78,-30.52"/>
</g>
<!-- Node19&#45;&gt;Node15 -->
<g id="edge41" class="edge">
<title>Node19&#45;&gt;Node15</title>
<path fill="none" stroke="midnightblue" d="M839.64,-243.77C902.88,-242.61 1066.54,-235.95 1197,-199 1217.28,-193.26 1219.88,-185.28 1240,-179 1330.39,-150.78 1361.66,-177.12 1450,-143 1481.76,-130.73 1514.22,-107.92 1533.74,-92.85"/>
<polygon fill="midnightblue" stroke="midnightblue" points="1536.06,-95.48 1541.75,-86.54 1531.73,-89.98 1536.06,-95.48"/>
</g>
<!-- Node20 -->
<g id="node20" class="node">
<title>Node20</title>
<g id="a_node20"><a xlink:title=" ">
<polygon fill="white" stroke="#bfbfbf" points="571.5,-179.5 571.5,-198.5 622.5,-198.5 622.5,-179.5 571.5,-179.5"/>
<text text-anchor="middle" x="597" y="-186.5" font-family="Helvetica,sans-Serif" font-size="10.00">math.h</text>
</a>
</g>
</g>
<!-- Node19&#45;&gt;Node20 -->
<g id="edge22" class="edge">
<title>Node19&#45;&gt;Node20</title>
<path fill="none" stroke="midnightblue" d="M786.3,-237.43C752.77,-229.17 693.22,-214.45 632.38,-199.08"/>
<polygon fill="midnightblue" stroke="midnightblue" points="633.16,-195.67 622.61,-196.61 631.45,-202.45 633.16,-195.67"/>
</g>
<!-- Node21 -->
<g id="node21" class="node">
<title>Node21</title>
<g id="a_node21"><a xlink:title=" ">
<polygon fill="white" stroke="#bfbfbf" points="641,-179.5 641,-198.5 705,-198.5 705,-179.5 641,-179.5"/>
<text text-anchor="middle" x="673" y="-186.5" font-family="Helvetica,sans-Serif" font-size="10.00">algorithm</text>
</a>
</g>
</g>
<!-- Node19&#45;&gt;Node21 -->
<g id="edge23" class="edge">
<title>Node19&#45;&gt;Node21</title>
<path fill="none" stroke="midnightblue" d="M790.82,-235.44C767.57,-226.48 730.85,-212.31 704.58,-202.18"/>
<polygon fill="midnightblue" stroke="midnightblue" points="705.67,-198.85 695.08,-198.52 703.15,-205.38 705.67,-198.85"/>
</g>
<!-- Node22 -->
<g id="node22" class="node">
<title>Node22</title>
<g id="a_node22"><a xlink:title=" ">
<polygon fill="white" stroke="#bfbfbf" points="723.5,-179.5 723.5,-198.5 778.5,-198.5 778.5,-179.5 723.5,-179.5"/>
<text text-anchor="middle" x="751" y="-186.5" font-family="Helvetica,sans-Serif" font-size="10.00">fstream</text>
</a>
</g>
</g>
<!-- Node19&#45;&gt;Node22 -->
<g id="edge24" class="edge">
<title>Node19&#45;&gt;Node22</title>
<path fill="none" stroke="midnightblue" d="M803.04,-235.32C793.87,-227.34 780.06,-215.31 768.97,-205.65"/>
<polygon fill="midnightblue" stroke="midnightblue" points="770.98,-202.76 761.14,-198.83 766.38,-208.04 770.98,-202.76"/>
</g>
<!-- Node23 -->
<g id="node23" class="node">
<title>Node23</title>
<g id="a_node23"><a xlink:title=" ">
<polygon fill="white" stroke="#bfbfbf" points="797,-179.5 797,-198.5 829,-198.5 829,-179.5 797,-179.5"/>
<text text-anchor="middle" x="813" y="-186.5" font-family="Helvetica,sans-Serif" font-size="10.00">list</text>
</a>
</g>
</g>
<!-- Node19&#45;&gt;Node23 -->
<g id="edge26" class="edge">
<title>Node19&#45;&gt;Node23</title>
<path fill="none" stroke="midnightblue" d="M813,-235.08C813,-228.01 813,-217.86 813,-208.99"/>
<polygon fill="midnightblue" stroke="midnightblue" points="816.5,-208.75 813,-198.75 809.5,-208.75 816.5,-208.75"/>
</g>
<!-- Node24 -->
<g id="node24" class="node">
<title>Node24</title>
<g id="a_node24"><a xlink:title=" ">
<polygon fill="white" stroke="#bfbfbf" points="847,-179.5 847,-198.5 885,-198.5 885,-179.5 847,-179.5"/>
<text text-anchor="middle" x="866" y="-186.5" font-family="Helvetica,sans-Serif" font-size="10.00">map</text>
</a>
</g>
</g>
<!-- Node19&#45;&gt;Node24 -->
<g id="edge27" class="edge">
<title>Node19&#45;&gt;Node24</title>
<path fill="none" stroke="midnightblue" d="M821.75,-235.08C829.47,-227.22 840.9,-215.57 850.22,-206.08"/>
<polygon fill="midnightblue" stroke="midnightblue" points="852.9,-208.34 857.41,-198.75 847.91,-203.44 852.9,-208.34"/>
</g>
<!-- Node25 -->
<g id="node25" class="node">
<title>Node25</title>
<g id="a_node25"><a xlink:title=" ">
<polygon fill="white" stroke="#bfbfbf" points="903,-179.5 903,-198.5 959,-198.5 959,-179.5 903,-179.5"/>
<text text-anchor="middle" x="931" y="-186.5" font-family="Helvetica,sans-Serif" font-size="10.00">sstream</text>
</a>
</g>
</g>
<!-- Node19&#45;&gt;Node25 -->
<g id="edge29" class="edge">
<title>Node19&#45;&gt;Node25</title>
<path fill="none" stroke="midnightblue" d="M831.7,-235.44C850.94,-226.64 881.15,-212.81 903.2,-202.72"/>
<polygon fill="midnightblue" stroke="midnightblue" points="904.75,-205.86 912.39,-198.52 901.84,-199.5 904.75,-205.86"/>
</g>
<!-- Node26 -->
<g id="node26" class="node">
<title>Node26</title>
<g id="a_node26"><a xlink:title=" ">
<polygon fill="white" stroke="#bfbfbf" points="977,-179.5 977,-198.5 1117,-198.5 1117,-179.5 977,-179.5"/>
<text text-anchor="middle" x="1047" y="-186.5" font-family="Helvetica,sans-Serif" font-size="10.00">allegro5/allegro_physfs.h</text>
</a>
</g>
</g>
<!-- Node19&#45;&gt;Node26 -->
<g id="edge36" class="edge">
<title>Node19&#45;&gt;Node26</title>
<path fill="none" stroke="midnightblue" d="M839.84,-237.81C878.96,-228.78 952.18,-211.88 1000.26,-200.79"/>
<polygon fill="midnightblue" stroke="midnightblue" points="1001.16,-204.17 1010.12,-198.51 999.59,-197.35 1001.16,-204.17"/>
</g>
<!-- Node27 -->
<g id="node27" class="node">
<title>Node27</title>
<g id="a_node27"><a xlink:title=" ">
<polygon fill="white" stroke="#bfbfbf" points="1335.5,-179.5 1335.5,-198.5 1438.5,-198.5 1438.5,-179.5 1335.5,-179.5"/>
<text text-anchor="middle" x="1387" y="-186.5" font-family="Helvetica,sans-Serif" font-size="10.00">allegro5/bitmap.h</text>
</a>
</g>
</g>
<!-- Node19&#45;&gt;Node27 -->
<g id="edge39" class="edge">
<title>Node19&#45;&gt;Node27</title>
<path fill="none" stroke="midnightblue" d="M839.76,-242.21C914.63,-237.09 1132.79,-221.36 1325.42,-199"/>
<polygon fill="midnightblue" stroke="midnightblue" points="1325.92,-202.46 1335.44,-197.82 1325.1,-195.51 1325.92,-202.46"/>
</g>
<!-- Node19&#45;&gt;Node28 -->
<g id="edge42" class="edge">
<title>Node19&#45;&gt;Node28</title>
<path fill="none" stroke="midnightblue" d="M839.6,-241.51C905.52,-235.75 1080.57,-220.35 1226,-199 1230.11,-198.4 1234.39,-197.7 1238.71,-196.96"/>
<polygon fill="midnightblue" stroke="midnightblue" points="1239.52,-200.37 1248.76,-195.19 1238.3,-193.47 1239.52,-200.37"/>
</g>
<!-- Node19&#45;&gt;Node29 -->
<g id="edge44" class="edge">
<title>Node19&#45;&gt;Node29</title>
<path fill="none" stroke="midnightblue" d="M839.65,-242.53C927,-237.64 1212.51,-220.92 1448,-199 1459.97,-197.89 1472.94,-196.47 1484.81,-195.1"/>
<polygon fill="midnightblue" stroke="midnightblue" points="1485.39,-198.55 1494.91,-193.91 1484.57,-191.6 1485.39,-198.55"/>
</g>
<!-- Node28&#45;&gt;Node19 -->
<g id="edge43" class="edge">
<title>Node28&#45;&gt;Node19</title>
<path fill="none" stroke="midnightblue" d="M1248.85,-198.26C1247.22,-198.52 1245.59,-198.77 1244,-199 1099.13,-220.27 924.88,-235.63 849.95,-241.44"/>
<polygon fill="midnightblue" stroke="midnightblue" points="849.34,-237.98 839.63,-242.23 849.87,-244.96 849.34,-237.98"/>
</g>
<!-- Node29&#45;&gt;Node7 -->
<g id="edge45" class="edge">
<title>Node29&#45;&gt;Node7</title>
<path fill="none" stroke="midnightblue" d="M1494.89,-182.16C1460.91,-175.2 1405.27,-162.05 1360,-143 1284.19,-111.1 1202.54,-56.92 1165.43,-31.06"/>
<polygon fill="midnightblue" stroke="midnightblue" points="1167.19,-28.02 1156.99,-25.13 1163.16,-33.74 1167.19,-28.02"/>
</g>
<!-- Node29&#45;&gt;Node15 -->
<g id="edge46" class="edge">
<title>Node29&#45;&gt;Node15</title>
<path fill="none" stroke="midnightblue" d="M1528.04,-179.37C1532.24,-161.62 1541.92,-120.67 1547.6,-96.6"/>
<polygon fill="midnightblue" stroke="midnightblue" points="1551.08,-97.13 1549.97,-86.59 1544.26,-95.52 1551.08,-97.13"/>
</g>
<!-- Node30 -->
<g id="node30" class="node">
<title>Node30</title>
<g id="a_node30"><a xlink:href="motion_8hpp.html" target="_top" xlink:title="Gerencia efeitos de parallax e animações de cenário.">
<polygon fill="white" stroke="black" points="1369,-123.5 1369,-142.5 1441,-142.5 1441,-123.5 1369,-123.5"/>
<text text-anchor="middle" x="1405" y="-130.5" font-family="Helvetica,sans-Serif" font-size="10.00">motion.hpp</text>
</a>
</g>
</g>
<!-- Node29&#45;&gt;Node30 -->
<g id="edge47" class="edge">
<title>Node29&#45;&gt;Node30</title>
<path fill="none" stroke="midnightblue" d="M1506.83,-179.44C1487.09,-170.64 1456.11,-156.81 1433.51,-146.72"/>
<polygon fill="midnightblue" stroke="midnightblue" points="1434.64,-143.4 1424.08,-142.52 1431.79,-149.79 1434.64,-143.4"/>
</g>
<!-- Node30&#45;&gt;Node4 -->
<g id="edge49" class="edge">
<title>Node30&#45;&gt;Node4</title>
<path fill="none" stroke="midnightblue" d="M1368.72,-129.97C1219.24,-121.58 651.28,-89.74 486.85,-80.51"/>
<polygon fill="midnightblue" stroke="midnightblue" points="486.79,-77.01 476.61,-79.94 486.4,-84 486.79,-77.01"/>
</g>
<!-- Node30&#45;&gt;Node12 -->
<g id="edge48" class="edge">
<title>Node30&#45;&gt;Node12</title>
<path fill="none" stroke="midnightblue" d="M1398.39,-123.32C1383.86,-104.26 1348.96,-58.45 1329.92,-33.46"/>
<polygon fill="midnightblue" stroke="midnightblue" points="1332.54,-31.12 1323.69,-25.28 1326.97,-35.36 1332.54,-31.12"/>
</g>
<!-- Node30&#45;&gt;Node15 -->
<g id="edge50" class="edge">
<title>Node30&#45;&gt;Node15</title>
<path fill="none" stroke="midnightblue" d="M1428.29,-123.44C1452.81,-114.44 1491.6,-100.19 1519.2,-90.05"/>
<polygon fill="midnightblue" stroke="midnightblue" points="1520.64,-93.25 1528.82,-86.52 1518.22,-86.68 1520.64,-93.25"/>
</g>
<!-- Node31&#45;&gt;Node15 -->
<g id="edge58" class="edge">
<title>Node31&#45;&gt;Node15</title>
<path fill="none" stroke="midnightblue" d="M1507.55,-347.32C1532.57,-332.32 1580.82,-298.9 1599,-255 1621.45,-200.8 1622.04,-176.95 1599,-123 1593.85,-110.95 1583.72,-100.58 1574.17,-92.84"/>
<polygon fill="midnightblue" stroke="midnightblue" points="1576.17,-89.96 1566.08,-86.74 1571.96,-95.55 1576.17,-89.96"/>
</g>
<!-- Node31&#45;&gt;Node17 -->
<g id="edge57" class="edge">
<title>Node31&#45;&gt;Node17</title>
<path fill="none" stroke="midnightblue" d="M1521.82,-350.69C1570.34,-340.14 1661,-311.64 1661,-246 1661,-246 1661,-246 1661,-132 1661,-96.64 1648.06,-56.98 1639.47,-34.55"/>
<polygon fill="midnightblue" stroke="midnightblue" points="1642.62,-33.01 1635.67,-25.01 1636.12,-35.59 1642.62,-33.01"/>
</g>
<!-- Node31&#45;&gt;Node18 -->
<g id="edge59" class="edge">
<title>Node31&#45;&gt;Node18</title>
<path fill="none" stroke="midnightblue" d="M1462.36,-348.38C1426.53,-339.17 1365.97,-323.59 1325.01,-313.06"/>
<polygon fill="midnightblue" stroke="midnightblue" points="1325.86,-309.66 1315.3,-310.56 1324.12,-316.44 1325.86,-309.66"/>
</g>
<!-- Node31&#45;&gt;Node19 -->
<g id="edge60" class="edge">
<title>Node31&#45;&gt;Node19</title>
<path fill="none" stroke="midnightblue" d="M1476.82,-347.44C1450.38,-332.98 1393.74,-304.04 1342,-291 1248.35,-267.4 953.56,-252.28 849.67,-247.58"/>
<polygon fill="midnightblue" stroke="midnightblue" points="849.81,-244.08 839.66,-247.13 849.5,-251.07 849.81,-244.08"/>
</g>
<!-- Node31&#45;&gt;Node27 -->
<g id="edge55" class="edge">
<title>Node31&#45;&gt;Node27</title>
<path fill="none" stroke="midnightblue" d="M1502.91,-347.26C1516.99,-334.87 1538.49,-311.42 1528,-291 1505.39,-247 1453.74,-217.88 1419.62,-202.66"/>
<polygon fill="midnightblue" stroke="midnightblue" points="1420.65,-199.29 1410.08,-198.56 1417.88,-205.72 1420.65,-199.29"/>
</g>
<!-- Node32 -->
<g id="node32" class="node">
<title>Node32</title>
<g id="a_node32"><a xlink:title=" ">
<polygon fill="white" stroke="#bfbfbf" points="1465,-291.5 1465,-310.5 1519,-310.5 1519,-291.5 1465,-291.5"/>
<text text-anchor="middle" x="1492" y="-298.5" font-family="Helvetica,sans-Serif" font-size="10.00">random</text>
</a>
</g>
</g>
<!-- Node31&#45;&gt;Node32 -->
<g id="edge56" class="edge">
<title>Node31&#45;&gt;Node32</title>
<path fill="none" stroke="midnightblue" d="M1492,-347.08C1492,-340.01 1492,-329.86 1492,-320.99"/>
<polygon fill="midnightblue" stroke="midnightblue" points="1495.5,-320.75 1492,-310.75 1488.5,-320.75 1495.5,-320.75"/>
</g>
</g>
</svg>
