<?xml version="1.0" encoding="UTF-8" standalone="no"?>
<!DOCTYPE svg PUBLIC "-//W3C//DTD SVG 1.1//EN"
 "http://www.w3.org/Graphics/SVG/1.1/DTD/svg11.dtd">
<!-- Generated by graphviz version 2.43.0 (0)
 -->
<!-- Title: src/assets.cpp Pages: 1 -->
<svg width="1253pt" height="151pt"
 viewBox="0.00 0.00 1253.00 151.00" xmlns="http://www.w3.org/2000/svg" xmlns:xlink="http://www.w3.org/1999/xlink">
<g id="graph0" class="graph" transform="scale(1 1) rotate(0) translate(4 147)">
<title>src/assets.cpp</title>
<polygon fill="white" stroke="transparent" points="-4,4 -4,-147 1249,-147 1249,4 -4,4"/>
<!-- Node1 -->
<g id="node1" class="node">
<title>Node1</title>
<g id="a_node1"><a xlink:title="Carregamento e gerenciamento de assets gráficos/áudio.">
<polygon fill="#bfbfbf" stroke="black" points="175,-123.5 175,-142.5 261,-142.5 261,-123.5 175,-123.5"/>
<text text-anchor="middle" x="218" y="-130.5" font-family="Helvetica,sans-Serif" font-size="10.00">src/assets.cpp</text>
</a>
</g>
</g>
<!-- Node2 -->
<g id="node2" class="node">
<title>Node2</title>
<g id="a_node2"><a xlink:href="assets_8hpp.html" target="_top" xlink:title="Declara classes utilitárias para carregar e usar imagens, sons e fontes no Allegro.">
<polygon fill="white" stroke="black" points="349,-67.5 349,-86.5 465,-86.5 465,-67.5 349,-67.5"/>
<text text-anchor="middle" x="407" y="-74.5" font-family="Helvetica,sans-Serif" font-size="10.00">../include/assets.hpp</text>
</a>
</g>
</g>
<!-- Node1&#45;&gt;Node2 -->
<g id="edge1" class="edge">
<title>Node1&#45;&gt;Node2</title>
<path fill="none" stroke="midnightblue" d="M247.95,-123.44C280.16,-114.24 331.53,-99.56 367.14,-89.39"/>
<polygon fill="midnightblue" stroke="midnightblue" points="368.54,-92.63 377.19,-86.52 366.62,-85.9 368.54,-92.63"/>
</g>
<!-- Node4 -->
<g id="node4" class="node">
<title>Node4</title>
<g id="a_node4"><a xlink:title=" ">
<polygon fill="white" stroke="#bfbfbf" points="0,-6 0,-25 58,-25 58,-6 0,-6"/>
<text text-anchor="middle" x="29" y="-13" font-family="Helvetica,sans-Serif" font-size="10.00">memory</text>
</a>
</g>
</g>
<!-- Node1&#45;&gt;Node4 -->
<g id="edge12" class="edge">
<title>Node1&#45;&gt;Node4</title>
<path fill="none" stroke="midnightblue" d="M203.79,-123.32C171.29,-103.45 91.26,-54.55 51.78,-30.42"/>
<polygon fill="midnightblue" stroke="midnightblue" points="53.47,-27.35 43.11,-25.12 49.82,-33.33 53.47,-27.35"/>
</g>
<!-- Node3 -->
<g id="node3" class="node">
<title>Node3</title>
<g id="a_node3"><a xlink:title=" ">
<polygon fill="white" stroke="#bfbfbf" points="76,-6 76,-25 136,-25 136,-6 76,-6"/>
<text text-anchor="middle" x="106" y="-13" font-family="Helvetica,sans-Serif" font-size="10.00">iostream</text>
</a>
</g>
</g>
<!-- Node2&#45;&gt;Node3 -->
<g id="edge2" class="edge">
<title>Node2&#45;&gt;Node3</title>
<path fill="none" stroke="midnightblue" d="M348.83,-69.16C295.29,-62.13 213.96,-49.57 145,-31 142.19,-30.24 139.29,-29.36 136.42,-28.42"/>
<polygon fill="midnightblue" stroke="midnightblue" points="137.41,-25.06 126.82,-25.05 135.09,-31.67 137.41,-25.06"/>
</g>
<!-- Node2&#45;&gt;Node4 -->
<g id="edge3" class="edge">
<title>Node2&#45;&gt;Node4</title>
<path fill="none" stroke="midnightblue" d="M348.77,-72.43C280.44,-67.3 164.11,-55.6 67,-31 64.18,-30.28 61.28,-29.42 58.4,-28.48"/>
<polygon fill="midnightblue" stroke="midnightblue" points="59.43,-25.13 48.83,-25.07 57.07,-31.73 59.43,-25.13"/>
</g>
<!-- Node5 -->
<g id="node5" class="node">
<title>Node5</title>
<g id="a_node5"><a xlink:title=" ">
<polygon fill="white" stroke="#bfbfbf" points="154,-6 154,-25 198,-25 198,-6 154,-6"/>
<text text-anchor="middle" x="176" y="-13" font-family="Helvetica,sans-Serif" font-size="10.00">string</text>
</a>
</g>
</g>
<!-- Node2&#45;&gt;Node5 -->
<g id="edge4" class="edge">
<title>Node2&#45;&gt;Node5</title>
<path fill="none" stroke="midnightblue" d="M354.77,-67.45C313.91,-60 256,-47.75 207,-31 205.34,-30.43 203.65,-29.8 201.95,-29.13"/>
<polygon fill="midnightblue" stroke="midnightblue" points="203.03,-25.78 192.46,-25 200.23,-32.2 203.03,-25.78"/>
</g>
<!-- Node6 -->
<g id="node6" class="node">
<title>Node6</title>
<g id="a_node6"><a xlink:title=" ">
<polygon fill="white" stroke="#bfbfbf" points="216,-6 216,-25 318,-25 318,-6 216,-6"/>
<text text-anchor="middle" x="267" y="-13" font-family="Helvetica,sans-Serif" font-size="10.00">allegro5/allegro.h</text>
</a>
</g>
</g>
<!-- Node2&#45;&gt;Node6 -->
<g id="edge5" class="edge">
<title>Node2&#45;&gt;Node6</title>
<path fill="none" stroke="midnightblue" d="M386.94,-67.48C363.24,-57.4 323.59,-40.55 296.42,-29"/>
<polygon fill="midnightblue" stroke="midnightblue" points="297.59,-25.7 287.02,-25.01 294.86,-32.14 297.59,-25.7"/>
</g>
<!-- Node7 -->
<g id="node7" class="node">
<title>Node7</title>
<g id="a_node7"><a xlink:title=" ">
<polygon fill="white" stroke="#bfbfbf" points="336,-6 336,-25 478,-25 478,-6 336,-6"/>
<text text-anchor="middle" x="407" y="-13" font-family="Helvetica,sans-Serif" font-size="10.00">allegro5/allegro_acodec.h</text>
</a>
</g>
</g>
<!-- Node2&#45;&gt;Node7 -->
<g id="edge6" class="edge">
<title>Node2&#45;&gt;Node7</title>
<path fill="none" stroke="midnightblue" d="M407,-67.48C407,-59.08 407,-45.98 407,-35.16"/>
<polygon fill="midnightblue" stroke="midnightblue" points="410.5,-35.01 407,-25.01 403.5,-35.01 410.5,-35.01"/>
</g>
<!-- Node8 -->
<g id="node8" class="node">
<title>Node8</title>
<g id="a_node8"><a xlink:title=" ">
<polygon fill="white" stroke="#bfbfbf" points="496,-6 496,-25 630,-25 630,-6 496,-6"/>
<text text-anchor="middle" x="563" y="-13" font-family="Helvetica,sans-Serif" font-size="10.00">allegro5/allegro_audio.h</text>
</a>
</g>
</g>
<!-- Node2&#45;&gt;Node8 -->
<g id="edge7" class="edge">
<title>Node2&#45;&gt;Node8</title>
<path fill="none" stroke="midnightblue" d="M429.35,-67.48C455.99,-57.31 500.71,-40.26 531.01,-28.7"/>
<polygon fill="midnightblue" stroke="midnightblue" points="532.59,-31.84 540.69,-25.01 530.1,-25.3 532.59,-31.84"/>
</g>
<!-- Node9 -->
<g id="node9" class="node">
<title>Node9</title>
<g id="a_node9"><a xlink:title=" ">
<polygon fill="white" stroke="#bfbfbf" points="648,-6 648,-25 786,-25 786,-6 648,-6"/>
<text text-anchor="middle" x="717" y="-13" font-family="Helvetica,sans-Serif" font-size="10.00">allegro5/allegro_image.h</text>
</a>
</g>
</g>
<!-- Node2&#45;&gt;Node9 -->
<g id="edge8" class="edge">
<title>Node2&#45;&gt;Node9</title>
<path fill="none" stroke="midnightblue" d="M451.42,-67.48C507.12,-56.78 602.6,-38.46 662.62,-26.94"/>
<polygon fill="midnightblue" stroke="midnightblue" points="663.51,-30.33 672.67,-25.01 662.19,-23.46 663.51,-30.33"/>
</g>
<!-- Node10 -->
<g id="node10" class="node">
<title>Node10</title>
<g id="a_node10"><a xlink:title=" ">
<polygon fill="white" stroke="#bfbfbf" points="804.5,-0.5 804.5,-30.5 933.5,-30.5 933.5,-0.5 804.5,-0.5"/>
<text text-anchor="start" x="812.5" y="-18.5" font-family="Helvetica,sans-Serif" font-size="10.00">allegro5/allegro_native</text>
<text text-anchor="middle" x="869" y="-7.5" font-family="Helvetica,sans-Serif" font-size="10.00">_dialog.h</text>
</a>
</g>
</g>
<!-- Node2&#45;&gt;Node10 -->
<g id="edge9" class="edge">
<title>Node2&#45;&gt;Node10</title>
<path fill="none" stroke="midnightblue" d="M465.04,-70.69C539.06,-63.61 671.21,-49.9 794.48,-31"/>
<polygon fill="midnightblue" stroke="midnightblue" points="795.13,-34.44 804.48,-29.45 794.06,-27.52 795.13,-34.44"/>
</g>
<!-- Node11 -->
<g id="node11" class="node">
<title>Node11</title>
<g id="a_node11"><a xlink:title=" ">
<polygon fill="white" stroke="#bfbfbf" points="951.5,-6 951.5,-25 1108.5,-25 1108.5,-6 951.5,-6"/>
<text text-anchor="middle" x="1030" y="-13" font-family="Helvetica,sans-Serif" font-size="10.00">allegro5/allegro_primitives.h</text>
</a>
</g>
</g>
<!-- Node2&#45;&gt;Node11 -->
<g id="edge10" class="edge">
<title>Node2&#45;&gt;Node11</title>
<path fill="none" stroke="midnightblue" d="M465.06,-72.68C563.59,-66.7 769.72,-52.68 943,-31 952.8,-29.77 963.18,-28.25 973.24,-26.64"/>
<polygon fill="midnightblue" stroke="midnightblue" points="973.84,-30.09 983.14,-25.03 972.71,-23.18 973.84,-30.09"/>
</g>
<!-- Node12 -->
<g id="node12" class="node">
<title>Node12</title>
<g id="a_node12"><a xlink:title=" ">
<polygon fill="white" stroke="#bfbfbf" points="1127,-6 1127,-25 1245,-25 1245,-6 1127,-6"/>
<text text-anchor="middle" x="1186" y="-13" font-family="Helvetica,sans-Serif" font-size="10.00">allegro5/allegro_ttf.h</text>
</a>
</g>
</g>
<!-- Node2&#45;&gt;Node12 -->
<g id="edge11" class="edge">
<title>Node2&#45;&gt;Node12</title>
<path fill="none" stroke="midnightblue" d="M465.35,-75.2C587.17,-72.9 877.23,-64.11 1118,-31 1125.48,-29.97 1133.37,-28.58 1141.02,-27.06"/>
<polygon fill="midnightblue" stroke="midnightblue" points="1141.8,-30.47 1150.88,-25.02 1140.38,-23.62 1141.8,-30.47"/>
</g>
</g>
</svg>
