<?xml version="1.0" encoding="UTF-8" standalone="no"?>
<!DOCTYPE svg PUBLIC "-//W3C//DTD SVG 1.1//EN"
 "http://www.w3.org/Graphics/SVG/1.1/DTD/svg11.dtd">
<!-- Generated by graphviz version 2.43.0 (0)
 -->
<!-- Title: include/assets.hpp Pages: 1 -->
<svg width="1889pt" height="509pt"
 viewBox="0.00 0.00 1889.00 509.00" xmlns="http://www.w3.org/2000/svg" xmlns:xlink="http://www.w3.org/1999/xlink">
<g id="graph0" class="graph" transform="scale(1 1) rotate(0) translate(4 505)">
<title>include/assets.hpp</title>
<polygon fill="white" stroke="transparent" points="-4,4 -4,-505 1885,-505 1885,4 -4,4"/>
<!-- Node1 -->
<g id="node1" class="node">
<title>Node1</title>
<g id="a_node1"><a xlink:title="Declara classes utilitárias para carregar e usar imagens, sons e fontes no Allegro.">
<polygon fill="#bfbfbf" stroke="black" points="838.5,-481.5 838.5,-500.5 945.5,-500.5 945.5,-481.5 838.5,-481.5"/>
<text text-anchor="middle" x="892" y="-488.5" font-family="Helvetica,sans-Serif" font-size="10.00">include/assets.hpp</text>
</a>
</g>
</g>
<!-- Node2 -->
<g id="node2" class="node">
<title>Node2</title>
<g id="a_node2"><a xlink:href="flappy__bird__controller_8hpp.html" target="_top" xlink:title="Declaracao da classe FlappyBird (controlador principal).">
<polygon fill="white" stroke="black" points="1306.5,-112.5 1306.5,-142.5 1415.5,-142.5 1415.5,-112.5 1306.5,-112.5"/>
<text text-anchor="start" x="1314.5" y="-130.5" font-family="Helvetica,sans-Serif" font-size="10.00">include/flappy_bird</text>
<text text-anchor="middle" x="1361" y="-119.5" font-family="Helvetica,sans-Serif" font-size="10.00">_controller.hpp</text>
</a>
</g>
</g>
<!-- Node1&#45;&gt;Node2 -->
<g id="edge1" class="edge">
<title>Node1&#45;&gt;Node2</title>
<path fill="none" stroke="midnightblue" d="M955.89,-488.68C1157.5,-483.67 1767,-461.78 1767,-380 1767,-380 1767,-380 1767,-322 1767,-287.18 1773.35,-269.86 1748,-246 1684.46,-186.2 1634.39,-246.22 1555,-210 1534.86,-200.81 1535.5,-189.48 1516,-179 1484.47,-162.05 1446.25,-149.52 1415.65,-141.18"/>
<polygon fill="midnightblue" stroke="midnightblue" points="955.66,-485.18 945.75,-488.93 955.83,-492.18 955.66,-485.18"/>
</g>
<!-- Node7 -->
<g id="node7" class="node">
<title>Node7</title>
<g id="a_node7"><a xlink:href="load__game_8cpp.html" target="_top" xlink:title="Implementação da classe LoadName, responsável pela tela de inserção de nome do jogador.">
<polygon fill="white" stroke="black" points="57.5,-0.5 57.5,-19.5 198.5,-19.5 198.5,-0.5 57.5,-0.5"/>
<text text-anchor="middle" x="128" y="-7.5" font-family="Helvetica,sans-Serif" font-size="10.00">src/states/load_game.cpp</text>
</a>
</g>
</g>
<!-- Node1&#45;&gt;Node7 -->
<g id="edge80" class="edge">
<title>Node1&#45;&gt;Node7</title>
<path fill="none" stroke="midnightblue" d="M827.93,-488.83C623.49,-484.26 0,-463.49 0,-380 0,-380 0,-380 0,-126.5 0,-70.68 67.93,-34.89 104.82,-19.57"/>
<polygon fill="midnightblue" stroke="midnightblue" points="828.14,-492.34 838.21,-489.06 828.29,-485.34 828.14,-492.34"/>
</g>
<!-- Node10 -->
<g id="node10" class="node">
<title>Node10</title>
<g id="a_node10"><a xlink:href="init_8hpp.html" target="_top" xlink:title="Declara funções de inicialização e finalização do Allegro.">
<polygon fill="white" stroke="black" points="939,-313.5 939,-332.5 1031,-332.5 1031,-313.5 939,-313.5"/>
<text text-anchor="middle" x="985" y="-320.5" font-family="Helvetica,sans-Serif" font-size="10.00">include/init.hpp</text>
</a>
</g>
</g>
<!-- Node1&#45;&gt;Node10 -->
<g id="edge10" class="edge">
<title>Node1&#45;&gt;Node10</title>
<path fill="none" stroke="midnightblue" d="M905.33,-473.28C911.65,-465 919.08,-454.73 925,-445 949.5,-404.74 972.51,-353.11 981.27,-332.78"/>
<polygon fill="midnightblue" stroke="midnightblue" points="902.43,-471.31 899.04,-481.35 907.95,-475.61 902.43,-471.31"/>
</g>
<!-- Node19 -->
<g id="node19" class="node">
<title>Node19</title>
<g id="a_node19"><a xlink:href="difficulty__menu_8hpp.html" target="_top" xlink:title="Definição da classe DifficultyMenu, que representa o estado do menu de seleção de dificuldade.">
<polygon fill="white" stroke="black" points="566.5,-246.5 566.5,-276.5 697.5,-276.5 697.5,-246.5 566.5,-246.5"/>
<text text-anchor="start" x="574.5" y="-264.5" font-family="Helvetica,sans-Serif" font-size="10.00">include/states/difficulty</text>
<text text-anchor="middle" x="632" y="-253.5" font-family="Helvetica,sans-Serif" font-size="10.00">_menu.hpp</text>
</a>
</g>
</g>
<!-- Node1&#45;&gt;Node19 -->
<g id="edge72" class="edge">
<title>Node1&#45;&gt;Node19</title>
<path fill="none" stroke="midnightblue" d="M874.46,-474.65C826.6,-432.77 694.3,-317.01 648.14,-276.62"/>
<polygon fill="midnightblue" stroke="midnightblue" points="872.29,-477.41 882.13,-481.36 876.9,-472.14 872.29,-477.41"/>
</g>
<!-- Node22 -->
<g id="node22" class="node">
<title>Node22</title>
<g id="a_node22"><a xlink:href="leaderboard__menu_8hpp.html" target="_top" xlink:title="Definição da classe LeaderboardMenu, que representa o estado da tela de ranking.">
<polygon fill="white" stroke="black" points="326,-246.5 326,-276.5 472,-276.5 472,-246.5 326,-246.5"/>
<text text-anchor="start" x="334" y="-264.5" font-family="Helvetica,sans-Serif" font-size="10.00">include/states/leaderboard</text>
<text text-anchor="middle" x="399" y="-253.5" font-family="Helvetica,sans-Serif" font-size="10.00">_menu.hpp</text>
</a>
</g>
</g>
<!-- Node1&#45;&gt;Node22 -->
<g id="edge73" class="edge">
<title>Node1&#45;&gt;Node22</title>
<path fill="none" stroke="midnightblue" d="M828.12,-489.44C742.08,-485.54 588.12,-467.13 487,-389 446.56,-357.76 417.48,-302.72 405.32,-276.78"/>
<polygon fill="midnightblue" stroke="midnightblue" points="828.14,-492.95 838.27,-489.85 828.42,-485.95 828.14,-492.95"/>
</g>
<!-- Node24 -->
<g id="node24" class="node">
<title>Node24</title>
<g id="a_node24"><a xlink:href="load__game_8hpp.html" target="_top" xlink:title="Definição da classe LoadName, que representa o estado de inserção de nome.">
<polygon fill="white" stroke="black" points="28.5,-246.5 28.5,-276.5 137.5,-276.5 137.5,-246.5 28.5,-246.5"/>
<text text-anchor="start" x="36.5" y="-264.5" font-family="Helvetica,sans-Serif" font-size="10.00">include/states/load</text>
<text text-anchor="middle" x="83" y="-253.5" font-family="Helvetica,sans-Serif" font-size="10.00">_game.hpp</text>
</a>
</g>
</g>
<!-- Node1&#45;&gt;Node24 -->
<g id="edge74" class="edge">
<title>Node1&#45;&gt;Node24</title>
<path fill="none" stroke="midnightblue" d="M827.9,-488.91C747.59,-486.17 606.38,-476.77 490,-445 337.23,-403.29 168.82,-311.76 107.24,-276.62"/>
<polygon fill="midnightblue" stroke="midnightblue" points="828.23,-492.42 838.34,-489.24 828.45,-485.43 828.23,-492.42"/>
</g>
<!-- Node25 -->
<g id="node25" class="node">
<title>Node25</title>
<g id="a_node25"><a xlink:href="main__menu_8hpp.html" target="_top" xlink:title="Definição da classe MainMenu, o estado que representa o menu principal do jogo.">
<polygon fill="white" stroke="black" points="194.5,-246.5 194.5,-276.5 307.5,-276.5 307.5,-246.5 194.5,-246.5"/>
<text text-anchor="start" x="202.5" y="-264.5" font-family="Helvetica,sans-Serif" font-size="10.00">include/states/main</text>
<text text-anchor="middle" x="251" y="-253.5" font-family="Helvetica,sans-Serif" font-size="10.00">_menu.hpp</text>
</a>
</g>
</g>
<!-- Node1&#45;&gt;Node25 -->
<g id="edge75" class="edge">
<title>Node1&#45;&gt;Node25</title>
<path fill="none" stroke="midnightblue" d="M828.28,-488.94C756.91,-486.13 638.57,-476.58 542,-445 425.52,-406.91 308.53,-312.37 266.91,-276.56"/>
<polygon fill="midnightblue" stroke="midnightblue" points="828.34,-492.44 838.46,-489.3 828.59,-485.45 828.34,-492.44"/>
</g>
<!-- Node27 -->
<g id="node27" class="node">
<title>Node27</title>
<g id="a_node27"><a xlink:href="settings__menu_8hpp.html" target="_top" xlink:title="Definição da classe SettingsMenu, que representa o estado do menu de configurações.">
<polygon fill="white" stroke="black" points="715.5,-246.5 715.5,-276.5 842.5,-276.5 842.5,-246.5 715.5,-246.5"/>
<text text-anchor="start" x="723.5" y="-264.5" font-family="Helvetica,sans-Serif" font-size="10.00">include/states/settings</text>
<text text-anchor="middle" x="779" y="-253.5" font-family="Helvetica,sans-Serif" font-size="10.00">_menu.hpp</text>
</a>
</g>
</g>
<!-- Node1&#45;&gt;Node27 -->
<g id="edge76" class="edge">
<title>Node1&#45;&gt;Node27</title>
<path fill="none" stroke="midnightblue" d="M897.38,-471.25C906.09,-436.74 919.28,-362.18 887,-313 875.59,-295.61 856.49,-284.09 837.5,-276.51"/>
<polygon fill="midnightblue" stroke="midnightblue" points="893.89,-470.76 894.67,-481.33 900.64,-472.58 893.89,-470.76"/>
</g>
<!-- Node28 -->
<g id="node28" class="node">
<title>Node28</title>
<g id="a_node28"><a xlink:href="init_8cpp.html" target="_top" xlink:title="Inicialização de Allegro, fontes, addons e recursos globais.">
<polygon fill="white" stroke="black" points="1561,-252 1561,-271 1631,-271 1631,-252 1561,-252"/>
<text text-anchor="middle" x="1596" y="-259" font-family="Helvetica,sans-Serif" font-size="10.00">src/init.cpp</text>
</a>
</g>
</g>
<!-- Node1&#45;&gt;Node28 -->
<g id="edge78" class="edge">
<title>Node1&#45;&gt;Node28</title>
<path fill="none" stroke="midnightblue" d="M928.12,-478.33C1052.5,-438.14 1461.39,-306 1569.56,-271.05"/>
<polygon fill="midnightblue" stroke="midnightblue" points="926.75,-475.09 918.31,-481.5 928.9,-481.75 926.75,-475.09"/>
</g>
<!-- Node29 -->
<g id="node29" class="node">
<title>Node29</title>
<g id="a_node29"><a xlink:href="motion_8cpp.html" target="_top" xlink:title="Implementação da classe Motion (parallax e clima).">
<polygon fill="white" stroke="black" points="1649.5,-252 1649.5,-271 1738.5,-271 1738.5,-252 1649.5,-252"/>
<text text-anchor="middle" x="1694" y="-259" font-family="Helvetica,sans-Serif" font-size="10.00">src/motion.cpp</text>
</a>
</g>
</g>
<!-- Node1&#45;&gt;Node29 -->
<g id="edge79" class="edge">
<title>Node1&#45;&gt;Node29</title>
<path fill="none" stroke="midnightblue" d="M938.07,-479.11C974.74,-470.31 1027.29,-457.39 1073,-445 1303.74,-382.44 1579.86,-297.82 1666.57,-271.01"/>
<polygon fill="midnightblue" stroke="midnightblue" points="937.09,-475.75 928.17,-481.48 938.71,-482.56 937.09,-475.75"/>
</g>
<!-- Node30 -->
<g id="node30" class="node">
<title>Node30</title>
<g id="a_node30"><a xlink:href="motion_8hpp.html" target="_top" xlink:title="Gerencia efeitos de parallax e animações de cenário.">
<polygon fill="white" stroke="black" points="614,-425.5 614,-444.5 724,-444.5 724,-425.5 614,-425.5"/>
<text text-anchor="middle" x="669" y="-432.5" font-family="Helvetica,sans-Serif" font-size="10.00">include/motion.hpp</text>
</a>
</g>
</g>
<!-- Node1&#45;&gt;Node30 -->
<g id="edge58" class="edge">
<title>Node1&#45;&gt;Node30</title>
<path fill="none" stroke="midnightblue" d="M846.94,-479.09C804.81,-468.89 742.76,-453.86 704.17,-444.52"/>
<polygon fill="midnightblue" stroke="midnightblue" points="846.12,-482.49 856.66,-481.44 847.77,-475.69 846.12,-482.49"/>
</g>
<!-- Node33 -->
<g id="node33" class="node">
<title>Node33</title>
<g id="a_node33"><a xlink:href="assets_8cpp.html" target="_top" xlink:title="Carregamento e gerenciamento de assets gráficos/áudio.">
<polygon fill="white" stroke="black" points="1795,-425.5 1795,-444.5 1881,-444.5 1881,-425.5 1795,-425.5"/>
<text text-anchor="middle" x="1838" y="-432.5" font-family="Helvetica,sans-Serif" font-size="10.00">src/assets.cpp</text>
</a>
</g>
</g>
<!-- Node1&#45;&gt;Node33 -->
<g id="edge77" class="edge">
<title>Node1&#45;&gt;Node33</title>
<path fill="none" stroke="midnightblue" d="M955.64,-489.09C1101.83,-486.5 1472.72,-477.05 1781,-445 1785.48,-444.53 1790.15,-443.95 1794.8,-443.31"/>
<polygon fill="midnightblue" stroke="midnightblue" points="955.45,-485.59 945.51,-489.27 955.57,-492.59 955.45,-485.59"/>
</g>
<!-- Node3 -->
<g id="node3" class="node">
<title>Node3</title>
<g id="a_node3"><a xlink:href="allegro__interface_8hpp.html" target="_top" xlink:title="Declara o controlador que integra Allegro e a máquina de estados.">
<polygon fill="white" stroke="black" points="1282,-56.5 1282,-75.5 1440,-75.5 1440,-56.5 1282,-56.5"/>
<text text-anchor="middle" x="1361" y="-63.5" font-family="Helvetica,sans-Serif" font-size="10.00">include/allegro_interface.hpp</text>
</a>
</g>
</g>
<!-- Node2&#45;&gt;Node3 -->
<g id="edge2" class="edge">
<title>Node2&#45;&gt;Node3</title>
<path fill="none" stroke="midnightblue" d="M1361,-102.29C1361,-92.86 1361,-82.65 1361,-75.66"/>
<polygon fill="midnightblue" stroke="midnightblue" points="1357.5,-102.4 1361,-112.4 1364.5,-102.4 1357.5,-102.4"/>
</g>
<!-- Node6 -->
<g id="node6" class="node">
<title>Node6</title>
<g id="a_node6"><a xlink:href="play_8hpp.html" target="_top" xlink:title="Declaracao da classe Play, responsavel pelo estado de jogo ativo.">
<polygon fill="white" stroke="black" points="232,-56.5 232,-75.5 360,-75.5 360,-56.5 232,-56.5"/>
<text text-anchor="middle" x="296" y="-63.5" font-family="Helvetica,sans-Serif" font-size="10.00">include/states/play.hpp</text>
</a>
</g>
</g>
<!-- Node2&#45;&gt;Node6 -->
<g id="edge5" class="edge">
<title>Node2&#45;&gt;Node6</title>
<path fill="none" stroke="midnightblue" d="M1296.37,-111.98C1096.47,-86.64 548.04,-72.58 360.1,-68.36"/>
<polygon fill="midnightblue" stroke="midnightblue" points="1296.1,-115.48 1306.48,-113.31 1297.02,-108.54 1296.1,-115.48"/>
</g>
<!-- Node9 -->
<g id="node9" class="node">
<title>Node9</title>
<g id="a_node9"><a xlink:href="flappy__bird__controller_8cpp.html" target="_top" xlink:title="Controlador de fluxo do jogo (pontuação, eventos globais).">
<polygon fill="white" stroke="black" points="1498.5,-56.5 1498.5,-75.5 1657.5,-75.5 1657.5,-56.5 1498.5,-56.5"/>
<text text-anchor="middle" x="1578" y="-63.5" font-family="Helvetica,sans-Serif" font-size="10.00">src/flappy_bird_controller.cpp</text>
</a>
</g>
</g>
<!-- Node2&#45;&gt;Node9 -->
<g id="edge9" class="edge">
<title>Node2&#45;&gt;Node9</title>
<path fill="none" stroke="midnightblue" d="M1421.98,-109.78C1462.68,-98.62 1514.51,-84.41 1546.98,-75.51"/>
<polygon fill="midnightblue" stroke="midnightblue" points="1420.87,-106.45 1412.15,-112.47 1422.72,-113.21 1420.87,-106.45"/>
</g>
<!-- Node4 -->
<g id="node4" class="node">
<title>Node4</title>
<g id="a_node4"><a xlink:href="allegro__interface_8cpp.html" target="_top" xlink:title="Implementação do controlador principal que integra Allegro às lógicas de estado do jogo.">
<polygon fill="white" stroke="black" points="523.5,-0.5 523.5,-19.5 660.5,-19.5 660.5,-0.5 523.5,-0.5"/>
<text text-anchor="middle" x="592" y="-7.5" font-family="Helvetica,sans-Serif" font-size="10.00">src/allegro_interface.cpp</text>
</a>
</g>
</g>
<!-- Node3&#45;&gt;Node4 -->
<g id="edge3" class="edge">
<title>Node3&#45;&gt;Node4</title>
<path fill="none" stroke="midnightblue" d="M1271.98,-58.75C1116.87,-47.86 800.29,-25.63 660.72,-15.83"/>
<polygon fill="midnightblue" stroke="midnightblue" points="1271.74,-62.24 1281.96,-59.45 1272.23,-55.26 1271.74,-62.24"/>
</g>
<!-- Node5 -->
<g id="node5" class="node">
<title>Node5</title>
<g id="a_node5"><a xlink:href="main_8cpp.html" target="_top" xlink:title="Ponto de entrada do jogo Flappy Bird.">
<polygon fill="white" stroke="black" points="1503.5,-0.5 1503.5,-19.5 1582.5,-19.5 1582.5,-0.5 1503.5,-0.5"/>
<text text-anchor="middle" x="1543" y="-7.5" font-family="Helvetica,sans-Serif" font-size="10.00">src/main.cpp</text>
</a>
</g>
</g>
<!-- Node3&#45;&gt;Node5 -->
<g id="edge4" class="edge">
<title>Node3&#45;&gt;Node5</title>
<path fill="none" stroke="midnightblue" d="M1399.53,-53.57C1433.86,-43.38 1483.33,-28.7 1514.3,-19.52"/>
<polygon fill="midnightblue" stroke="midnightblue" points="1398.43,-50.24 1389.84,-56.44 1400.42,-56.95 1398.43,-50.24"/>
</g>
<!-- Node6&#45;&gt;Node4 -->
<g id="edge6" class="edge">
<title>Node6&#45;&gt;Node4</title>
<path fill="none" stroke="midnightblue" d="M353,-54.6C408.94,-44.4 493.23,-29.02 545.32,-19.52"/>
<polygon fill="midnightblue" stroke="midnightblue" points="352.11,-51.21 342.9,-56.44 353.37,-58.09 352.11,-51.21"/>
</g>
<!-- Node6&#45;&gt;Node7 -->
<g id="edge7" class="edge">
<title>Node6&#45;&gt;Node7</title>
<path fill="none" stroke="midnightblue" d="M259.61,-53.3C227.96,-43.13 182.83,-28.62 154.5,-19.52"/>
<polygon fill="midnightblue" stroke="midnightblue" points="258.79,-56.72 269.38,-56.44 260.93,-50.05 258.79,-56.72"/>
</g>
<!-- Node8 -->
<g id="node8" class="node">
<title>Node8</title>
<g id="a_node8"><a xlink:href="play_8cpp.html" target="_top" xlink:title="Implementacao da classe Play.">
<polygon fill="white" stroke="black" points="229.5,-0.5 229.5,-19.5 336.5,-19.5 336.5,-0.5 229.5,-0.5"/>
<text text-anchor="middle" x="283" y="-7.5" font-family="Helvetica,sans-Serif" font-size="10.00">src/states/play.cpp</text>
</a>
</g>
</g>
<!-- Node6&#45;&gt;Node8 -->
<g id="edge8" class="edge">
<title>Node6&#45;&gt;Node8</title>
<path fill="none" stroke="midnightblue" d="M291.45,-46.1C289.29,-37.14 286.82,-26.86 285.11,-19.75"/>
<polygon fill="midnightblue" stroke="midnightblue" points="288.11,-47.18 293.85,-56.08 294.92,-45.54 288.11,-47.18"/>
</g>
<!-- Node10&#45;&gt;Node2 -->
<g id="edge12" class="edge">
<title>Node10&#45;&gt;Node2</title>
<path fill="none" stroke="midnightblue" d="M1041.28,-313.06C1115.94,-301.08 1238.76,-280.86 1242,-277 1270.34,-243.26 1201.93,-215.24 1227,-179 1236.58,-165.15 1273.56,-151.81 1306.25,-142.33"/>
<polygon fill="midnightblue" stroke="midnightblue" points="1040.4,-309.66 1031.08,-314.7 1041.51,-316.57 1040.4,-309.66"/>
</g>
<!-- Node10&#45;&gt;Node3 -->
<g id="edge11" class="edge">
<title>Node10&#45;&gt;Node3</title>
<path fill="none" stroke="midnightblue" d="M1041.35,-320.56C1152.86,-317.09 1397.67,-306.31 1476,-277 1498.07,-268.74 1497.59,-255.84 1519,-246 1580.9,-217.55 1625.86,-263.53 1668,-210 1693.87,-177.13 1636.82,-116.77 1630,-112 1600.03,-91.04 1508.25,-78.99 1440.19,-72.73"/>
<polygon fill="midnightblue" stroke="midnightblue" points="1041.19,-317.06 1031.3,-320.86 1041.4,-324.06 1041.19,-317.06"/>
</g>
<!-- Node10&#45;&gt;Node4 -->
<g id="edge48" class="edge">
<title>Node10&#45;&gt;Node4</title>
<path fill="none" stroke="midnightblue" d="M1009.37,-307.73C1019.95,-300.09 1031.22,-289.64 1037,-277 1042.73,-264.47 1043.01,-258.4 1037,-246 963.98,-95.47 751.19,-38.64 648.61,-19.57"/>
<polygon fill="midnightblue" stroke="midnightblue" points="1007.15,-305 1000.78,-313.47 1011.04,-310.82 1007.15,-305"/>
</g>
<!-- Node10&#45;&gt;Node5 -->
<g id="edge50" class="edge">
<title>Node10&#45;&gt;Node5</title>
<path fill="none" stroke="midnightblue" d="M1041.54,-321.1C1159.21,-318.6 1426.48,-309.43 1511,-277 1532.33,-268.82 1531.49,-256.06 1552,-246 1606.98,-219.04 1647.78,-258.63 1685,-210 1708.78,-178.93 1736.36,-141.07 1667,-56 1646.45,-30.8 1610.55,-19.71 1582.64,-14.83"/>
<polygon fill="midnightblue" stroke="midnightblue" points="1041.23,-317.61 1031.31,-321.31 1041.38,-324.61 1041.23,-317.61"/>
</g>
<!-- Node10&#45;&gt;Node7 -->
<g id="edge55" class="edge">
<title>Node10&#45;&gt;Node7</title>
<path fill="none" stroke="midnightblue" d="M989.02,-303.27C991.49,-287.23 992.73,-263.95 984,-246 963.28,-203.36 944.38,-198.11 901,-179 622.07,-56.13 506.56,-187.75 223,-76 188.23,-62.3 153.57,-33.93 137.41,-19.63"/>
<polygon fill="midnightblue" stroke="midnightblue" points="985.5,-303.01 987.12,-313.48 992.39,-304.29 985.5,-303.01"/>
</g>
<!-- Node11 -->
<g id="node11" class="node">
<title>Node11</title>
<g id="a_node11"><a xlink:href="game__object_8hpp.html" target="_top" xlink:title="Classe base abstrata para todos os objetos renderizáveis.">
<polygon fill="white" stroke="black" points="1327.5,-252 1327.5,-271 1466.5,-271 1466.5,-252 1327.5,-252"/>
<text text-anchor="middle" x="1397" y="-259" font-family="Helvetica,sans-Serif" font-size="10.00">include/game_object.hpp</text>
</a>
</g>
</g>
<!-- Node10&#45;&gt;Node11 -->
<g id="edge13" class="edge">
<title>Node10&#45;&gt;Node11</title>
<path fill="none" stroke="midnightblue" d="M1041.18,-313.55C1042.46,-313.36 1043.74,-313.18 1045,-313 1163.98,-296.09 1194.21,-295.22 1313,-277 1324.85,-275.18 1337.61,-273.06 1349.52,-271.02"/>
<polygon fill="midnightblue" stroke="midnightblue" points="1040.57,-310.1 1031.18,-315 1041.58,-317.03 1040.57,-310.1"/>
</g>
<!-- Node14 -->
<g id="node14" class="node">
<title>Node14</title>
<g id="a_node14"><a xlink:href="pipe_8hpp.html" target="_top" xlink:title="Declaration of pipe&#45;related classes (Pipe, PipePair, PipeList).">
<polygon fill="white" stroke="black" points="1235.5,-185 1235.5,-204 1332.5,-204 1332.5,-185 1235.5,-185"/>
<text text-anchor="middle" x="1284" y="-192" font-family="Helvetica,sans-Serif" font-size="10.00">include/pipe.hpp</text>
</a>
</g>
</g>
<!-- Node10&#45;&gt;Node14 -->
<g id="edge23" class="edge">
<title>Node10&#45;&gt;Node14</title>
<path fill="none" stroke="midnightblue" d="M1040.98,-313.53C1124.97,-300.79 1273.99,-278.06 1275,-277 1294.09,-257.05 1289.42,-220.53 1286.03,-204.01"/>
<polygon fill="midnightblue" stroke="midnightblue" points="1040.43,-310.07 1031.07,-315.03 1041.48,-316.99 1040.43,-310.07"/>
</g>
<!-- Node17 -->
<g id="node17" class="node">
<title>Node17</title>
<g id="a_node17"><a xlink:href="player_8hpp.html" target="_top" xlink:title="Modela um jogador e operações de ranking.">
<polygon fill="white" stroke="black" points="1127,-252 1127,-271 1233,-271 1233,-252 1127,-252"/>
<text text-anchor="middle" x="1180" y="-259" font-family="Helvetica,sans-Serif" font-size="10.00">include/player.hpp</text>
</a>
</g>
</g>
<!-- Node10&#45;&gt;Node17 -->
<g id="edge24" class="edge">
<title>Node10&#45;&gt;Node17</title>
<path fill="none" stroke="midnightblue" d="M1017.6,-310.38C1053.63,-298.82 1111.1,-281.34 1147.22,-271.01"/>
<polygon fill="midnightblue" stroke="midnightblue" points="1016.47,-307.07 1008.04,-313.48 1018.63,-313.73 1016.47,-307.07"/>
</g>
<!-- Node18 -->
<g id="node18" class="node">
<title>Node18</title>
<g id="a_node18"><a xlink:href="player_8cpp.html" target="_top" xlink:title="Implementação da classe Player e utilidades de ranking.">
<polygon fill="white" stroke="black" points="1057,-185 1057,-204 1141,-204 1141,-185 1057,-185"/>
<text text-anchor="middle" x="1099" y="-192" font-family="Helvetica,sans-Serif" font-size="10.00">src/player.cpp</text>
</a>
</g>
</g>
<!-- Node10&#45;&gt;Node18 -->
<g id="edge52" class="edge">
<title>Node10&#45;&gt;Node18</title>
<path fill="none" stroke="midnightblue" d="M1025.6,-309.9C1043.01,-302.85 1062.23,-292.26 1075,-277 1093.17,-255.28 1097.59,-220.3 1098.66,-204.16"/>
<polygon fill="midnightblue" stroke="midnightblue" points="1024.29,-306.66 1016.17,-313.47 1026.76,-313.21 1024.29,-306.66"/>
</g>
<!-- Node10&#45;&gt;Node19 -->
<g id="edge28" class="edge">
<title>Node10&#45;&gt;Node19</title>
<path fill="none" stroke="midnightblue" d="M928.37,-313.44C871.93,-304.77 782.84,-290.72 706,-277 703.29,-276.52 700.53,-276.02 697.75,-275.5"/>
<polygon fill="midnightblue" stroke="midnightblue" points="928.1,-316.94 938.52,-314.99 929.16,-310.02 928.1,-316.94"/>
</g>
<!-- Node20 -->
<g id="node20" class="node">
<title>Node20</title>
<g id="a_node20"><a xlink:href="difficulty__menu_8cpp.html" target="_top" xlink:title="Implementação da classe DifficultyMenu, que gerencia a tela de seleção de dificuldade.">
<polygon fill="white" stroke="black" points="658,-179.5 658,-209.5 768,-209.5 768,-179.5 658,-179.5"/>
<text text-anchor="start" x="666" y="-197.5" font-family="Helvetica,sans-Serif" font-size="10.00">src/states/difficulty</text>
<text text-anchor="middle" x="713" y="-186.5" font-family="Helvetica,sans-Serif" font-size="10.00">_menu.cpp</text>
</a>
</g>
</g>
<!-- Node10&#45;&gt;Node20 -->
<g id="edge53" class="edge">
<title>Node10&#45;&gt;Node20</title>
<path fill="none" stroke="midnightblue" d="M975.51,-304.72C964.98,-287.22 946.35,-260.68 923,-246 919.65,-243.89 829.2,-222.56 768.11,-208.3"/>
<polygon fill="midnightblue" stroke="midnightblue" points="972.48,-306.47 980.5,-313.39 978.54,-302.98 972.48,-306.47"/>
</g>
<!-- Node21 -->
<g id="node21" class="node">
<title>Node21</title>
<g id="a_node21"><a xlink:href="main__menu_8cpp.html" target="_top" xlink:title="Implementação da classe MainMenu, o estado principal e tela inicial do jogo.">
<polygon fill="white" stroke="black" points="275.5,-185 275.5,-204 420.5,-204 420.5,-185 275.5,-185"/>
<text text-anchor="middle" x="348" y="-192" font-family="Helvetica,sans-Serif" font-size="10.00">src/states/main_menu.cpp</text>
</a>
</g>
</g>
<!-- Node10&#45;&gt;Node21 -->
<g id="edge56" class="edge">
<title>Node10&#45;&gt;Node21</title>
<path fill="none" stroke="midnightblue" d="M951.1,-309.86C931.06,-301.94 905.65,-290.56 885,-277 867.91,-265.78 869.74,-254.19 851,-246 764.76,-208.29 522.31,-222.31 429,-210 416.82,-208.39 403.68,-206.23 391.6,-204.07"/>
<polygon fill="midnightblue" stroke="midnightblue" points="949.87,-313.13 960.46,-313.46 952.39,-306.6 949.87,-313.13"/>
</g>
<!-- Node10&#45;&gt;Node22 -->
<g id="edge31" class="edge">
<title>Node10&#45;&gt;Node22</title>
<path fill="none" stroke="midnightblue" d="M928.28,-316.24C821.52,-305.4 590.83,-281.98 472.41,-269.95"/>
<polygon fill="midnightblue" stroke="midnightblue" points="928.23,-319.75 938.53,-317.28 928.93,-312.79 928.23,-319.75"/>
</g>
<!-- Node23 -->
<g id="node23" class="node">
<title>Node23</title>
<g id="a_node23"><a xlink:href="leaderboard__menu_8cpp.html" target="_top" xlink:title="Implementação da classe LeaderboardMenu, responsável por exibir a tela de ranking.">
<polygon fill="white" stroke="black" points="438.5,-179.5 438.5,-209.5 563.5,-209.5 563.5,-179.5 438.5,-179.5"/>
<text text-anchor="start" x="446.5" y="-197.5" font-family="Helvetica,sans-Serif" font-size="10.00">src/states/leaderboard</text>
<text text-anchor="middle" x="501" y="-186.5" font-family="Helvetica,sans-Serif" font-size="10.00">_menu.cpp</text>
</a>
</g>
</g>
<!-- Node10&#45;&gt;Node23 -->
<g id="edge54" class="edge">
<title>Node10&#45;&gt;Node23</title>
<path fill="none" stroke="midnightblue" d="M964.33,-307.44C952.17,-298.77 936.57,-287.45 923,-277 905.73,-263.7 905.01,-254.64 885,-246 856.18,-233.56 665.06,-212.39 563.77,-201.86"/>
<polygon fill="midnightblue" stroke="midnightblue" points="962.32,-310.3 972.5,-313.24 966.37,-304.6 962.32,-310.3"/>
</g>
<!-- Node10&#45;&gt;Node24 -->
<g id="edge34" class="edge">
<title>Node10&#45;&gt;Node24</title>
<path fill="none" stroke="midnightblue" d="M928.73,-320.48C797.92,-316.59 463.32,-304.56 185,-277 169.6,-275.48 152.97,-273.33 137.68,-271.15"/>
<polygon fill="midnightblue" stroke="midnightblue" points="928.8,-323.98 938.9,-320.78 929.01,-316.99 928.8,-323.98"/>
</g>
<!-- Node10&#45;&gt;Node25 -->
<g id="edge37" class="edge">
<title>Node10&#45;&gt;Node25</title>
<path fill="none" stroke="midnightblue" d="M928.65,-321.03C813.3,-318.43 542.12,-309.13 317,-277 313.98,-276.57 310.89,-276.08 307.78,-275.54"/>
<polygon fill="midnightblue" stroke="midnightblue" points="928.92,-324.54 939,-321.26 929.07,-317.54 928.92,-324.54"/>
</g>
<!-- Node26 -->
<g id="node26" class="node">
<title>Node26</title>
<g id="a_node26"><a xlink:href="settings__menu_8cpp.html" target="_top" xlink:title="Implementação da classe SettingsMenu, que gerencia a tela de configurações do jogo.">
<polygon fill="white" stroke="black" points="786,-179.5 786,-209.5 892,-209.5 892,-179.5 786,-179.5"/>
<text text-anchor="start" x="794" y="-197.5" font-family="Helvetica,sans-Serif" font-size="10.00">src/states/settings</text>
<text text-anchor="middle" x="839" y="-186.5" font-family="Helvetica,sans-Serif" font-size="10.00">_menu.cpp</text>
</a>
</g>
</g>
<!-- Node10&#45;&gt;Node26 -->
<g id="edge57" class="edge">
<title>Node10&#45;&gt;Node26</title>
<path fill="none" stroke="midnightblue" d="M983.48,-303.02C981.19,-286.14 975.44,-261.74 961,-246 942.95,-226.32 916.06,-214.09 892.12,-206.61"/>
<polygon fill="midnightblue" stroke="midnightblue" points="980.04,-303.74 984.58,-313.31 987,-303 980.04,-303.74"/>
</g>
<!-- Node10&#45;&gt;Node27 -->
<g id="edge45" class="edge">
<title>Node10&#45;&gt;Node27</title>
<path fill="none" stroke="midnightblue" d="M945.56,-310.61C911.96,-300.9 863.53,-286.92 827.55,-276.52"/>
<polygon fill="midnightblue" stroke="midnightblue" points="944.91,-314.06 955.49,-313.48 946.85,-307.34 944.91,-314.06"/>
</g>
<!-- Node10&#45;&gt;Node28 -->
<g id="edge49" class="edge">
<title>Node10&#45;&gt;Node28</title>
<path fill="none" stroke="midnightblue" d="M1041.16,-313.44C1042.45,-313.29 1043.73,-313.14 1045,-313 1267.33,-288.39 1326.92,-316.97 1547,-277 1554.94,-275.56 1563.43,-273.31 1571.07,-271.01"/>
<polygon fill="midnightblue" stroke="midnightblue" points="1040.62,-309.98 1031.14,-314.71 1041.5,-316.92 1040.62,-309.98"/>
</g>
<!-- Node10&#45;&gt;Node29 -->
<g id="edge51" class="edge">
<title>Node10&#45;&gt;Node29</title>
<path fill="none" stroke="midnightblue" d="M1041.16,-313.42C1042.45,-313.27 1043.73,-313.13 1045,-313 1308.48,-285.32 1378.51,-319.57 1640,-277 1648.72,-275.58 1658.06,-273.34 1666.48,-271.04"/>
<polygon fill="midnightblue" stroke="midnightblue" points="1040.63,-309.96 1031.14,-314.66 1041.49,-316.91 1040.63,-309.96"/>
</g>
<!-- Node11&#45;&gt;Node2 -->
<g id="edge18" class="edge">
<title>Node11&#45;&gt;Node2</title>
<path fill="none" stroke="midnightblue" d="M1390.94,-242.37C1387.81,-232.79 1384.03,-220.81 1381,-210 1374.42,-186.58 1367.92,-159.03 1364.19,-142.71"/>
<polygon fill="midnightblue" stroke="midnightblue" points="1387.65,-243.58 1394.11,-251.97 1394.3,-241.38 1387.65,-243.58"/>
</g>
<!-- Node12 -->
<g id="node12" class="node">
<title>Node12</title>
<g id="a_node12"><a xlink:href="bird_8hpp.html" target="_top" xlink:title="Declaracao da classe Bird (personagem controlavel).">
<polygon fill="white" stroke="black" points="1563.5,-185 1563.5,-204 1658.5,-204 1658.5,-185 1563.5,-185"/>
<text text-anchor="middle" x="1611" y="-192" font-family="Helvetica,sans-Serif" font-size="10.00">include/bird.hpp</text>
</a>
</g>
</g>
<!-- Node11&#45;&gt;Node12 -->
<g id="edge14" class="edge">
<title>Node11&#45;&gt;Node12</title>
<path fill="none" stroke="midnightblue" d="M1435.1,-248.93C1477.47,-236.06 1544.92,-215.57 1582.81,-204.06"/>
<polygon fill="midnightblue" stroke="midnightblue" points="1433.97,-245.61 1425.42,-251.87 1436,-252.31 1433.97,-245.61"/>
</g>
<!-- Node11&#45;&gt;Node14 -->
<g id="edge19" class="edge">
<title>Node11&#45;&gt;Node14</title>
<path fill="none" stroke="midnightblue" d="M1372.86,-246.62C1350.47,-233.74 1317.86,-214.98 1299,-204.13"/>
<polygon fill="midnightblue" stroke="midnightblue" points="1371.35,-249.78 1381.76,-251.73 1374.84,-243.71 1371.35,-249.78"/>
</g>
<!-- Node16 -->
<g id="node16" class="node">
<title>Node16</title>
<g id="a_node16"><a xlink:href="game__object_8cpp.html" target="_top" xlink:title="Métodos utilitários da classe base GameObject.">
<polygon fill="white" stroke="black" points="1389.5,-185 1389.5,-204 1506.5,-204 1506.5,-185 1389.5,-185"/>
<text text-anchor="middle" x="1448" y="-192" font-family="Helvetica,sans-Serif" font-size="10.00">src/game_object.cpp</text>
</a>
</g>
</g>
<!-- Node11&#45;&gt;Node16 -->
<g id="edge22" class="edge">
<title>Node11&#45;&gt;Node16</title>
<path fill="none" stroke="midnightblue" d="M1410.13,-243.77C1420.07,-231.1 1433.33,-214.2 1441.23,-204.13"/>
<polygon fill="midnightblue" stroke="midnightblue" points="1407.3,-241.71 1403.88,-251.73 1412.8,-246.03 1407.3,-241.71"/>
</g>
<!-- Node12&#45;&gt;Node2 -->
<g id="edge15" class="edge">
<title>Node12&#45;&gt;Node2</title>
<path fill="none" stroke="midnightblue" d="M1568.34,-182.41C1526.01,-171.4 1461,-154.5 1415.07,-142.56"/>
<polygon fill="midnightblue" stroke="midnightblue" points="1567.5,-185.81 1578.06,-184.94 1569.26,-179.03 1567.5,-185.81"/>
</g>
<!-- Node12&#45;&gt;Node9 -->
<g id="edge17" class="edge">
<title>Node12&#45;&gt;Node9</title>
<path fill="none" stroke="midnightblue" d="M1621.56,-175.72C1630.17,-158.75 1639.49,-132.77 1630,-112 1622.61,-95.82 1606.2,-83.23 1593.78,-75.53"/>
<polygon fill="midnightblue" stroke="midnightblue" points="1618.45,-174.11 1616.71,-184.56 1624.59,-177.47 1618.45,-174.11"/>
</g>
<!-- Node13 -->
<g id="node13" class="node">
<title>Node13</title>
<g id="a_node13"><a xlink:href="bird_8cpp.html" target="_top" xlink:title="Implementação da classe Bird (animação, física e colisões).">
<polygon fill="white" stroke="black" points="1547.5,-118 1547.5,-137 1620.5,-137 1620.5,-118 1547.5,-118"/>
<text text-anchor="middle" x="1584" y="-125" font-family="Helvetica,sans-Serif" font-size="10.00">src/bird.cpp</text>
</a>
</g>
</g>
<!-- Node12&#45;&gt;Node13 -->
<g id="edge16" class="edge">
<title>Node12&#45;&gt;Node13</title>
<path fill="none" stroke="midnightblue" d="M1603.44,-175.29C1598.25,-162.81 1591.61,-146.81 1587.58,-137.13"/>
<polygon fill="midnightblue" stroke="midnightblue" points="1600.29,-176.84 1607.36,-184.73 1606.75,-174.16 1600.29,-176.84"/>
</g>
<!-- Node14&#45;&gt;Node2 -->
<g id="edge20" class="edge">
<title>Node14&#45;&gt;Node2</title>
<path fill="none" stroke="midnightblue" d="M1302.08,-178.24C1314.86,-167.45 1331.86,-153.1 1344.31,-142.59"/>
<polygon fill="midnightblue" stroke="midnightblue" points="1299.77,-175.61 1294.38,-184.73 1304.28,-180.96 1299.77,-175.61"/>
</g>
<!-- Node15 -->
<g id="node15" class="node">
<title>Node15</title>
<g id="a_node15"><a xlink:href="pipe_8cpp.html" target="_top" xlink:title="Implementação das classes Pipe, PipePair e PipeList.">
<polygon fill="white" stroke="black" points="1213.5,-118 1213.5,-137 1288.5,-137 1288.5,-118 1213.5,-118"/>
<text text-anchor="middle" x="1251" y="-125" font-family="Helvetica,sans-Serif" font-size="10.00">src/pipe.cpp</text>
</a>
</g>
</g>
<!-- Node14&#45;&gt;Node15 -->
<g id="edge21" class="edge">
<title>Node14&#45;&gt;Node15</title>
<path fill="none" stroke="midnightblue" d="M1274.94,-175.66C1268.58,-163.13 1260.35,-146.91 1255.38,-137.13"/>
<polygon fill="midnightblue" stroke="midnightblue" points="1271.9,-177.4 1279.55,-184.73 1278.14,-174.23 1271.9,-177.4"/>
</g>
<!-- Node17&#45;&gt;Node2 -->
<g id="edge25" class="edge">
<title>Node17&#45;&gt;Node2</title>
<path fill="none" stroke="midnightblue" d="M1177.73,-241.65C1176.62,-223.44 1178,-196.15 1193,-179 1200.74,-170.14 1260.33,-153.58 1306.36,-141.84"/>
<polygon fill="midnightblue" stroke="midnightblue" points="1174.24,-242.01 1178.64,-251.65 1181.21,-241.37 1174.24,-242.01"/>
</g>
<!-- Node17&#45;&gt;Node10 -->
<g id="edge26" class="edge">
<title>Node17&#45;&gt;Node10</title>
<path fill="none" stroke="midnightblue" d="M1147.46,-274.1C1111.44,-285.66 1053.98,-303.14 1017.84,-313.48"/>
<polygon fill="midnightblue" stroke="midnightblue" points="1148.57,-277.42 1157.01,-271.01 1146.42,-270.76 1148.57,-277.42"/>
</g>
<!-- Node17&#45;&gt;Node18 -->
<g id="edge27" class="edge">
<title>Node17&#45;&gt;Node18</title>
<path fill="none" stroke="midnightblue" d="M1160.95,-245.21C1144.99,-232.41 1122.79,-214.59 1109.75,-204.13"/>
<polygon fill="midnightblue" stroke="midnightblue" points="1159.09,-248.2 1169.08,-251.73 1163.47,-242.75 1159.09,-248.2"/>
</g>
<!-- Node19&#45;&gt;Node20 -->
<g id="edge29" class="edge">
<title>Node19&#45;&gt;Node20</title>
<path fill="none" stroke="midnightblue" d="M657.69,-239.88C670,-230.01 684.43,-218.43 695.46,-209.58"/>
<polygon fill="midnightblue" stroke="midnightblue" points="655.18,-237.41 649.58,-246.4 659.57,-242.87 655.18,-237.41"/>
</g>
<!-- Node19&#45;&gt;Node21 -->
<g id="edge30" class="edge">
<title>Node19&#45;&gt;Node21</title>
<path fill="none" stroke="midnightblue" d="M560.9,-244.23C505.14,-231.47 429.76,-214.21 385.26,-204.03"/>
<polygon fill="midnightblue" stroke="midnightblue" points="560.2,-247.66 570.73,-246.48 561.76,-240.83 560.2,-247.66"/>
</g>
<!-- Node22&#45;&gt;Node21 -->
<g id="edge33" class="edge">
<title>Node22&#45;&gt;Node21</title>
<path fill="none" stroke="midnightblue" d="M381.59,-238.32C372.4,-226.6 361.64,-212.88 354.82,-204.19"/>
<polygon fill="midnightblue" stroke="midnightblue" points="379.01,-240.69 387.93,-246.4 384.51,-236.37 379.01,-240.69"/>
</g>
<!-- Node22&#45;&gt;Node23 -->
<g id="edge32" class="edge">
<title>Node22&#45;&gt;Node23</title>
<path fill="none" stroke="midnightblue" d="M429.58,-241.02C445.45,-230.9 464.48,-218.77 478.91,-209.58"/>
<polygon fill="midnightblue" stroke="midnightblue" points="427.68,-238.07 421.13,-246.4 431.45,-243.97 427.68,-238.07"/>
</g>
<!-- Node24&#45;&gt;Node7 -->
<g id="edge35" class="edge">
<title>Node24&#45;&gt;Node7</title>
<path fill="none" stroke="midnightblue" d="M85.47,-236.26C89.67,-197.74 99.2,-120.34 114,-56 116.97,-43.08 121.79,-28.49 124.92,-19.52"/>
<polygon fill="midnightblue" stroke="midnightblue" points="81.96,-236.16 84.39,-246.48 88.92,-236.9 81.96,-236.16"/>
</g>
<!-- Node24&#45;&gt;Node21 -->
<g id="edge36" class="edge">
<title>Node24&#45;&gt;Node21</title>
<path fill="none" stroke="midnightblue" d="M147.43,-244.7C199.67,-231.88 271.28,-214.32 313.29,-204.01"/>
<polygon fill="midnightblue" stroke="midnightblue" points="146.47,-241.33 137.59,-247.11 148.13,-248.13 146.47,-241.33"/>
</g>
<!-- Node25&#45;&gt;Node4 -->
<g id="edge38" class="edge">
<title>Node25&#45;&gt;Node4</title>
<path fill="none" stroke="midnightblue" d="M250.03,-236.33C250.52,-218.83 253.79,-195.46 266,-179 337.91,-82.11 481.99,-36.61 551.99,-19.51"/>
<polygon fill="midnightblue" stroke="midnightblue" points="246.53,-236.35 250.02,-246.35 253.53,-236.35 246.53,-236.35"/>
</g>
<!-- Node25&#45;&gt;Node7 -->
<g id="edge41" class="edge">
<title>Node25&#45;&gt;Node7</title>
<path fill="none" stroke="midnightblue" d="M227.31,-239.58C204.27,-217.82 170.17,-181.6 152,-143 131.76,-100.01 128.54,-41.71 128.06,-19.8"/>
<polygon fill="midnightblue" stroke="midnightblue" points="224.95,-242.16 234.66,-246.39 229.7,-237.02 224.95,-242.16"/>
</g>
<!-- Node25&#45;&gt;Node8 -->
<g id="edge43" class="edge">
<title>Node25&#45;&gt;Node8</title>
<path fill="none" stroke="midnightblue" d="M239.52,-237.13C221.85,-197.61 193,-116 223,-56 231.44,-39.11 249.57,-26.92 263.7,-19.52"/>
<polygon fill="midnightblue" stroke="midnightblue" points="236.46,-238.85 243.84,-246.46 242.81,-235.91 236.46,-238.85"/>
</g>
<!-- Node25&#45;&gt;Node20 -->
<g id="edge39" class="edge">
<title>Node25&#45;&gt;Node20</title>
<path fill="none" stroke="midnightblue" d="M317.76,-245.97C445.28,-224.21 583.26,-208.69 658,-200.94"/>
<polygon fill="midnightblue" stroke="midnightblue" points="317.08,-242.53 307.82,-247.68 318.27,-249.43 317.08,-242.53"/>
</g>
<!-- Node25&#45;&gt;Node21 -->
<g id="edge42" class="edge">
<title>Node25&#45;&gt;Node21</title>
<path fill="none" stroke="midnightblue" d="M280.64,-240.64C298.94,-228.37 321.49,-213.26 335.3,-204.01"/>
<polygon fill="midnightblue" stroke="midnightblue" points="278.41,-237.92 272.05,-246.4 282.3,-243.74 278.41,-237.92"/>
</g>
<!-- Node25&#45;&gt;Node23 -->
<g id="edge40" class="edge">
<title>Node25&#45;&gt;Node23</title>
<path fill="none" stroke="midnightblue" d="M314.78,-243.92C355.58,-233.31 407.93,-219.7 446.73,-209.61"/>
<polygon fill="midnightblue" stroke="midnightblue" points="313.74,-240.57 304.94,-246.48 315.5,-247.35 313.74,-240.57"/>
</g>
<!-- Node25&#45;&gt;Node26 -->
<g id="edge44" class="edge">
<title>Node25&#45;&gt;Node26</title>
<path fill="none" stroke="midnightblue" d="M317.92,-246.02C521.65,-216.73 577.62,-240.93 777,-210 779.84,-209.56 782.74,-209.06 785.67,-208.51"/>
<polygon fill="midnightblue" stroke="midnightblue" points="317.18,-242.59 307.79,-247.5 318.19,-249.52 317.18,-242.59"/>
</g>
<!-- Node27&#45;&gt;Node21 -->
<g id="edge46" class="edge">
<title>Node27&#45;&gt;Node21</title>
<path fill="none" stroke="midnightblue" d="M705.12,-245.93C581.75,-226.04 548.46,-228.44 429,-210 417.42,-208.21 404.95,-206.08 393.35,-204.01"/>
<polygon fill="midnightblue" stroke="midnightblue" points="704.91,-249.44 715.34,-247.6 706.04,-242.53 704.91,-249.44"/>
</g>
<!-- Node27&#45;&gt;Node26 -->
<g id="edge47" class="edge">
<title>Node27&#45;&gt;Node26</title>
<path fill="none" stroke="midnightblue" d="M798.82,-239.02C807.76,-229.34 818.07,-218.17 826.01,-209.58"/>
<polygon fill="midnightblue" stroke="midnightblue" points="796.23,-236.67 792.02,-246.4 801.37,-241.42 796.23,-236.67"/>
</g>
<!-- Node30&#45;&gt;Node25 -->
<g id="edge70" class="edge">
<title>Node30&#45;&gt;Node25</title>
<path fill="none" stroke="midnightblue" d="M611.77,-423.41C575.4,-415.82 527.68,-404.24 487,-389 436,-369.89 426.04,-358.66 378,-333 342.19,-313.87 301.19,-290.92 275.69,-276.52"/>
<polygon fill="midnightblue" stroke="midnightblue" points="611.22,-426.87 621.72,-425.45 612.62,-420.02 611.22,-426.87"/>
</g>
<!-- Node30&#45;&gt;Node29 -->
<g id="edge71" class="edge">
<title>Node30&#45;&gt;Node29</title>
<path fill="none" stroke="midnightblue" d="M734.08,-425.81C890.91,-405.58 1301.8,-349.55 1640,-277 1647.97,-275.29 1656.53,-273.14 1664.42,-271.02"/>
<polygon fill="midnightblue" stroke="midnightblue" points="733.59,-422.35 724.12,-427.1 734.48,-429.29 733.59,-422.35"/>
</g>
<!-- Node31 -->
<g id="node31" class="node">
<title>Node31</title>
<g id="a_node31"><a xlink:href="state_8hpp.html" target="_top" xlink:title="Interface base para estados da máquina de estados do jogo.">
<polygon fill="white" stroke="black" points="496.5,-369.5 496.5,-388.5 597.5,-388.5 597.5,-369.5 496.5,-369.5"/>
<text text-anchor="middle" x="547" y="-376.5" font-family="Helvetica,sans-Serif" font-size="10.00">include/state.hpp</text>
</a>
</g>
</g>
<!-- Node30&#45;&gt;Node31 -->
<g id="edge59" class="edge">
<title>Node30&#45;&gt;Node31</title>
<path fill="none" stroke="midnightblue" d="M640.46,-421.37C617.61,-411.26 586.19,-397.35 566.24,-388.52"/>
<polygon fill="midnightblue" stroke="midnightblue" points="639.11,-424.6 649.67,-425.44 641.94,-418.2 639.11,-424.6"/>
</g>
<!-- Node31&#45;&gt;Node3 -->
<g id="edge60" class="edge">
<title>Node31&#45;&gt;Node3</title>
<path fill="none" stroke="midnightblue" d="M569.64,-363.26C579.38,-355.54 589.73,-345.16 595,-333 598.53,-324.84 598.51,-321.17 595,-313 585.81,-291.63 566.19,-298.37 557,-277 551.56,-264.34 550.75,-258.28 557,-246 557.36,-245.3 648.27,-179.3 649,-179 865.76,-89.21 1146.95,-70.87 1281.91,-67.48"/>
<polygon fill="midnightblue" stroke="midnightblue" points="567.36,-360.59 561.37,-369.33 571.5,-366.23 567.36,-360.59"/>
</g>
<!-- Node31&#45;&gt;Node4 -->
<g id="edge68" class="edge">
<title>Node31&#45;&gt;Node4</title>
<path fill="none" stroke="midnightblue" d="M523.9,-363.35C513.96,-355.66 503.39,-345.27 498,-333 494.42,-324.86 495.28,-321.46 498,-313 506.64,-286.17 562.03,-236.36 572,-210 598.29,-140.5 594.6,-48.14 592.68,-19.7"/>
<polygon fill="midnightblue" stroke="midnightblue" points="522.17,-366.42 532.34,-369.4 526.25,-360.73 522.17,-366.42"/>
</g>
<!-- Node31&#45;&gt;Node6 -->
<g id="edge66" class="edge">
<title>Node31&#45;&gt;Node6</title>
<path fill="none" stroke="midnightblue" d="M500.15,-367.04C466.21,-358.71 419.38,-346.43 379,-333 356.29,-325.45 351.77,-320.36 329,-313 266.23,-292.7 225.6,-329 185,-277 130.18,-206.79 246.89,-105.56 284.7,-75.64"/>
<polygon fill="midnightblue" stroke="midnightblue" points="499.71,-370.53 510.25,-369.49 501.36,-363.73 499.71,-370.53"/>
</g>
<!-- Node31&#45;&gt;Node10 -->
<g id="edge61" class="edge">
<title>Node31&#45;&gt;Node10</title>
<path fill="none" stroke="midnightblue" d="M607.84,-370.5C696.48,-359.57 859.21,-339.51 938.76,-329.7"/>
<polygon fill="midnightblue" stroke="midnightblue" points="607.17,-367.06 597.67,-371.75 608.03,-374 607.17,-367.06"/>
</g>
<!-- Node31&#45;&gt;Node19 -->
<g id="edge62" class="edge">
<title>Node31&#45;&gt;Node19</title>
<path fill="none" stroke="midnightblue" d="M587.69,-365.46C603.32,-358.49 619.64,-348.08 629,-333 639.6,-315.93 637.85,-291.8 635.22,-276.66"/>
<polygon fill="midnightblue" stroke="midnightblue" points="586.05,-362.35 578.12,-369.37 588.7,-368.83 586.05,-362.35"/>
</g>
<!-- Node31&#45;&gt;Node22 -->
<g id="edge63" class="edge">
<title>Node31&#45;&gt;Node22</title>
<path fill="none" stroke="midnightblue" d="M518.28,-365.04C501.89,-356.98 481.41,-345.74 465,-333 443.28,-316.14 422.3,-291.95 410.03,-276.74"/>
<polygon fill="midnightblue" stroke="midnightblue" points="516.86,-368.24 527.39,-369.41 519.88,-361.93 516.86,-368.24"/>
</g>
<!-- Node31&#45;&gt;Node24 -->
<g id="edge64" class="edge">
<title>Node31&#45;&gt;Node24</title>
<path fill="none" stroke="midnightblue" d="M498.29,-367.26C458.57,-358.4 401.05,-345.33 351,-333 275.44,-314.39 188.37,-291.15 134.5,-276.56"/>
<polygon fill="midnightblue" stroke="midnightblue" points="497.72,-370.72 508.24,-369.48 499.24,-363.89 497.72,-370.72"/>
</g>
<!-- Node31&#45;&gt;Node25 -->
<g id="edge65" class="edge">
<title>Node31&#45;&gt;Node25</title>
<path fill="none" stroke="midnightblue" d="M515.43,-365.68C459.97,-344.04 345.43,-299.35 286.99,-276.55"/>
<polygon fill="midnightblue" stroke="midnightblue" points="514.16,-368.94 524.75,-369.32 516.71,-362.42 514.16,-368.94"/>
</g>
<!-- Node31&#45;&gt;Node27 -->
<g id="edge67" class="edge">
<title>Node31&#45;&gt;Node27</title>
<path fill="none" stroke="midnightblue" d="M576.34,-365.42C596.4,-356.67 623.51,-344.54 647,-333 684.77,-314.44 727.6,-291.14 753.96,-276.53"/>
<polygon fill="midnightblue" stroke="midnightblue" points="574.89,-362.24 567.11,-369.43 577.67,-368.66 574.89,-362.24"/>
</g>
<!-- Node32 -->
<g id="node32" class="node">
<title>Node32</title>
<g id="a_node32"><a xlink:href="state_8cpp.html" target="_top" xlink:title="Implementação base de State para máquina de estados do jogo.">
<polygon fill="white" stroke="black" points="507.5,-313.5 507.5,-332.5 586.5,-332.5 586.5,-313.5 507.5,-313.5"/>
<text text-anchor="middle" x="547" y="-320.5" font-family="Helvetica,sans-Serif" font-size="10.00">src/state.cpp</text>
</a>
</g>
</g>
<!-- Node31&#45;&gt;Node32 -->
<g id="edge69" class="edge">
<title>Node31&#45;&gt;Node32</title>
<path fill="none" stroke="midnightblue" d="M547,-358.8C547,-349.91 547,-339.78 547,-332.75"/>
<polygon fill="midnightblue" stroke="midnightblue" points="543.5,-359.08 547,-369.08 550.5,-359.08 543.5,-359.08"/>
</g>
</g>
</svg>
