<?xml version="1.0" encoding="UTF-8" standalone="no"?>
<!DOCTYPE svg PUBLIC "-//W3C//DTD SVG 1.1//EN"
 "http://www.w3.org/Graphics/SVG/1.1/DTD/svg11.dtd">
<!-- Generated by graphviz version 2.43.0 (0)
 -->
<!-- Title: loadGlobalAssets Pages: 1 -->
<svg width="254pt" height="28pt"
 viewBox="0.00 0.00 254.00 28.00" xmlns="http://www.w3.org/2000/svg" xmlns:xlink="http://www.w3.org/1999/xlink">
<g id="graph0" class="graph" transform="scale(1 1) rotate(0) translate(4 24)">
<title>loadGlobalAssets</title>
<polygon fill="white" stroke="transparent" points="-4,4 -4,-24 250,-24 250,4 -4,4"/>
<!-- Node1 -->
<g id="node1" class="node">
<title>Node1</title>
<g id="a_node1"><a xlink:title="Carrega recursos globais utilizados em múltiplas cenas.">
<polygon fill="#bfbfbf" stroke="black" points="145,-0.5 145,-19.5 246,-19.5 246,-0.5 145,-0.5"/>
<text text-anchor="middle" x="195.5" y="-7.5" font-family="Helvetica,sans-Serif" font-size="10.00">loadGlobalAssets</text>
</a>
</g>
</g>
<!-- Node2 -->
<g id="node2" class="node">
<title>Node2</title>
<g id="a_node2"><a xlink:href="init_8hpp.html#a02fd73d861ef2e4aabb38c0c9ff82947" target="_top" xlink:title="Inicializa Allegro, janela, áudio e recursos globais.">
<polygon fill="white" stroke="black" points="77,-0.5 77,-19.5 109,-19.5 109,-0.5 77,-0.5"/>
<text text-anchor="middle" x="93" y="-7.5" font-family="Helvetica,sans-Serif" font-size="10.00">init</text>
</a>
</g>
</g>
<!-- Node1&#45;&gt;Node2 -->
<g id="edge1" class="edge">
<title>Node1&#45;&gt;Node2</title>
<path fill="none" stroke="midnightblue" d="M134.79,-10C125.26,-10 116.19,-10 109.04,-10"/>
<polygon fill="midnightblue" stroke="midnightblue" points="134.84,-13.5 144.84,-10 134.84,-6.5 134.84,-13.5"/>
</g>
<!-- Node3 -->
<g id="node3" class="node">
<title>Node3</title>
<g id="a_node3"><a xlink:href="main_8cpp.html#ae66f6b31b5ad750f1fe042a706a4e3d4" target="_top" xlink:title="Função principal que inicializa, executa e encerra o jogo.">
<polygon fill="white" stroke="black" points="0,-0.5 0,-19.5 41,-19.5 41,-0.5 0,-0.5"/>
<text text-anchor="middle" x="20.5" y="-7.5" font-family="Helvetica,sans-Serif" font-size="10.00">main</text>
</a>
</g>
</g>
<!-- Node2&#45;&gt;Node3 -->
<g id="edge2" class="edge">
<title>Node2&#45;&gt;Node3</title>
<path fill="none" stroke="midnightblue" d="M66.64,-10C58.22,-10 48.98,-10 41.06,-10"/>
<polygon fill="midnightblue" stroke="midnightblue" points="66.7,-13.5 76.7,-10 66.7,-6.5 66.7,-13.5"/>
</g>
</g>
</svg>
