<?xml version="1.0" encoding="UTF-8" standalone="no"?>
<!DOCTYPE svg PUBLIC "-//W3C//DTD SVG 1.1//EN"
 "http://www.w3.org/Graphics/SVG/1.1/DTD/svg11.dtd">
<!-- Generated by graphviz version 2.43.0 (0)
 -->
<!-- Title: include/assets.hpp Pages: 1 -->
<svg width="1253pt" height="95pt"
 viewBox="0.00 0.00 1253.00 95.00" xmlns="http://www.w3.org/2000/svg" xmlns:xlink="http://www.w3.org/1999/xlink">
<g id="graph0" class="graph" transform="scale(1 1) rotate(0) translate(4 91)">
<title>include/assets.hpp</title>
<polygon fill="white" stroke="transparent" points="-4,4 -4,-91 1249,-91 1249,4 -4,4"/>
<!-- Node1 -->
<g id="node1" class="node">
<title>Node1</title>
<g id="a_node1"><a xlink:title="Declara classes utilitárias para carregar e usar imagens, sons e fontes no Allegro.">
<polygon fill="#bfbfbf" stroke="black" points="431.5,-67.5 431.5,-86.5 538.5,-86.5 538.5,-67.5 431.5,-67.5"/>
<text text-anchor="middle" x="485" y="-74.5" font-family="Helvetica,sans-Serif" font-size="10.00">include/assets.hpp</text>
</a>
</g>
</g>
<!-- Node2 -->
<g id="node2" class="node">
<title>Node2</title>
<g id="a_node2"><a xlink:title=" ">
<polygon fill="white" stroke="#bfbfbf" points="0,-6 0,-25 60,-25 60,-6 0,-6"/>
<text text-anchor="middle" x="30" y="-13" font-family="Helvetica,sans-Serif" font-size="10.00">iostream</text>
</a>
</g>
</g>
<!-- Node1&#45;&gt;Node2 -->
<g id="edge1" class="edge">
<title>Node1&#45;&gt;Node2</title>
<path fill="none" stroke="midnightblue" d="M431.42,-74.44C351.51,-71.17 196.79,-61.17 69,-31 66,-30.29 62.92,-29.42 59.87,-28.45"/>
<polygon fill="midnightblue" stroke="midnightblue" points="60.94,-25.12 50.35,-25.15 58.65,-31.73 60.94,-25.12"/>
</g>
<!-- Node3 -->
<g id="node3" class="node">
<title>Node3</title>
<g id="a_node3"><a xlink:title=" ">
<polygon fill="white" stroke="#bfbfbf" points="78,-6 78,-25 136,-25 136,-6 78,-6"/>
<text text-anchor="middle" x="107" y="-13" font-family="Helvetica,sans-Serif" font-size="10.00">memory</text>
</a>
</g>
</g>
<!-- Node1&#45;&gt;Node3 -->
<g id="edge2" class="edge">
<title>Node1&#45;&gt;Node3</title>
<path fill="none" stroke="midnightblue" d="M431.27,-72.77C363.63,-67.81 244.28,-56.14 145,-31 142.18,-30.28 139.28,-29.42 136.4,-28.48"/>
<polygon fill="midnightblue" stroke="midnightblue" points="137.43,-25.13 126.83,-25.07 135.07,-31.73 137.43,-25.13"/>
</g>
<!-- Node4 -->
<g id="node4" class="node">
<title>Node4</title>
<g id="a_node4"><a xlink:title=" ">
<polygon fill="white" stroke="#bfbfbf" points="154,-6 154,-25 198,-25 198,-6 154,-6"/>
<text text-anchor="middle" x="176" y="-13" font-family="Helvetica,sans-Serif" font-size="10.00">string</text>
</a>
</g>
</g>
<!-- Node1&#45;&gt;Node4 -->
<g id="edge3" class="edge">
<title>Node1&#45;&gt;Node4</title>
<path fill="none" stroke="midnightblue" d="M431.48,-71.77C374.76,-66.26 283.04,-54.44 207,-31 205.13,-30.42 203.22,-29.75 201.32,-29.02"/>
<polygon fill="midnightblue" stroke="midnightblue" points="202.64,-25.78 192.07,-25.05 199.88,-32.21 202.64,-25.78"/>
</g>
<!-- Node5 -->
<g id="node5" class="node">
<title>Node5</title>
<g id="a_node5"><a xlink:title=" ">
<polygon fill="white" stroke="#bfbfbf" points="216,-6 216,-25 318,-25 318,-6 216,-6"/>
<text text-anchor="middle" x="267" y="-13" font-family="Helvetica,sans-Serif" font-size="10.00">allegro5/allegro.h</text>
</a>
</g>
</g>
<!-- Node1&#45;&gt;Node5 -->
<g id="edge4" class="edge">
<title>Node1&#45;&gt;Node5</title>
<path fill="none" stroke="midnightblue" d="M453.77,-67.48C415.4,-57 350.21,-39.21 307.89,-27.66"/>
<polygon fill="midnightblue" stroke="midnightblue" points="308.74,-24.27 298.18,-25.01 306.9,-31.02 308.74,-24.27"/>
</g>
<!-- Node6 -->
<g id="node6" class="node">
<title>Node6</title>
<g id="a_node6"><a xlink:title=" ">
<polygon fill="white" stroke="#bfbfbf" points="336,-6 336,-25 478,-25 478,-6 336,-6"/>
<text text-anchor="middle" x="407" y="-13" font-family="Helvetica,sans-Serif" font-size="10.00">allegro5/allegro_acodec.h</text>
</a>
</g>
</g>
<!-- Node1&#45;&gt;Node6 -->
<g id="edge5" class="edge">
<title>Node1&#45;&gt;Node6</title>
<path fill="none" stroke="midnightblue" d="M473.82,-67.48C461.43,-58.02 441.21,-42.6 426.25,-31.19"/>
<polygon fill="midnightblue" stroke="midnightblue" points="428.23,-28.29 418.15,-25.01 423.98,-33.86 428.23,-28.29"/>
</g>
<!-- Node7 -->
<g id="node7" class="node">
<title>Node7</title>
<g id="a_node7"><a xlink:title=" ">
<polygon fill="white" stroke="#bfbfbf" points="496,-6 496,-25 630,-25 630,-6 496,-6"/>
<text text-anchor="middle" x="563" y="-13" font-family="Helvetica,sans-Serif" font-size="10.00">allegro5/allegro_audio.h</text>
</a>
</g>
</g>
<!-- Node1&#45;&gt;Node7 -->
<g id="edge6" class="edge">
<title>Node1&#45;&gt;Node7</title>
<path fill="none" stroke="midnightblue" d="M496.18,-67.48C508.57,-58.02 528.79,-42.6 543.75,-31.19"/>
<polygon fill="midnightblue" stroke="midnightblue" points="546.02,-33.86 551.85,-25.01 541.77,-28.29 546.02,-33.86"/>
</g>
<!-- Node8 -->
<g id="node8" class="node">
<title>Node8</title>
<g id="a_node8"><a xlink:title=" ">
<polygon fill="white" stroke="#bfbfbf" points="648,-6 648,-25 786,-25 786,-6 648,-6"/>
<text text-anchor="middle" x="717" y="-13" font-family="Helvetica,sans-Serif" font-size="10.00">allegro5/allegro_image.h</text>
</a>
</g>
</g>
<!-- Node1&#45;&gt;Node8 -->
<g id="edge7" class="edge">
<title>Node1&#45;&gt;Node8</title>
<path fill="none" stroke="midnightblue" d="M518.24,-67.48C559.24,-56.96 629.03,-39.06 674.05,-27.51"/>
<polygon fill="midnightblue" stroke="midnightblue" points="675,-30.88 683.82,-25.01 673.27,-24.1 675,-30.88"/>
</g>
<!-- Node9 -->
<g id="node9" class="node">
<title>Node9</title>
<g id="a_node9"><a xlink:title=" ">
<polygon fill="white" stroke="#bfbfbf" points="804.5,-0.5 804.5,-30.5 933.5,-30.5 933.5,-0.5 804.5,-0.5"/>
<text text-anchor="start" x="812.5" y="-18.5" font-family="Helvetica,sans-Serif" font-size="10.00">allegro5/allegro_native</text>
<text text-anchor="middle" x="869" y="-7.5" font-family="Helvetica,sans-Serif" font-size="10.00">_dialog.h</text>
</a>
</g>
</g>
<!-- Node1&#45;&gt;Node9 -->
<g id="edge8" class="edge">
<title>Node1&#45;&gt;Node9</title>
<path fill="none" stroke="midnightblue" d="M538.61,-69.04C598.46,-61.08 698.42,-47.24 794.57,-31.02"/>
<polygon fill="midnightblue" stroke="midnightblue" points="795.19,-34.47 804.46,-29.34 794.02,-27.56 795.19,-34.47"/>
</g>
<!-- Node10 -->
<g id="node10" class="node">
<title>Node10</title>
<g id="a_node10"><a xlink:title=" ">
<polygon fill="white" stroke="#bfbfbf" points="951.5,-6 951.5,-25 1108.5,-25 1108.5,-6 951.5,-6"/>
<text text-anchor="middle" x="1030" y="-13" font-family="Helvetica,sans-Serif" font-size="10.00">allegro5/allegro_primitives.h</text>
</a>
</g>
</g>
<!-- Node1&#45;&gt;Node10 -->
<g id="edge9" class="edge">
<title>Node1&#45;&gt;Node10</title>
<path fill="none" stroke="midnightblue" d="M538.72,-71.9C624.42,-65.09 797.26,-50.28 943,-31 952.46,-29.75 962.48,-28.25 972.21,-26.69"/>
<polygon fill="midnightblue" stroke="midnightblue" points="972.92,-30.12 982.22,-25.06 971.79,-23.21 972.92,-30.12"/>
</g>
<!-- Node11 -->
<g id="node11" class="node">
<title>Node11</title>
<g id="a_node11"><a xlink:title=" ">
<polygon fill="white" stroke="#bfbfbf" points="1127,-6 1127,-25 1245,-25 1245,-6 1127,-6"/>
<text text-anchor="middle" x="1186" y="-13" font-family="Helvetica,sans-Serif" font-size="10.00">allegro5/allegro_ttf.h</text>
</a>
</g>
</g>
<!-- Node1&#45;&gt;Node11 -->
<g id="edge10" class="edge">
<title>Node1&#45;&gt;Node11</title>
<path fill="none" stroke="midnightblue" d="M538.62,-74.7C648.04,-71.5 904.73,-61.17 1118,-31 1125.31,-29.97 1133.02,-28.6 1140.5,-27.11"/>
<polygon fill="midnightblue" stroke="midnightblue" points="1141.44,-30.49 1150.52,-25.04 1140.02,-23.64 1141.44,-30.49"/>
</g>
</g>
</svg>
