<?xml version="1.0" encoding="UTF-8" standalone="no"?>
<!DOCTYPE svg PUBLIC "-//W3C//DTD SVG 1.1//EN"
 "http://www.w3.org/Graphics/SVG/1.1/DTD/svg11.dtd">
<!-- Generated by graphviz version 2.43.0 (0)
 -->
<!-- Title: src/bird.cpp Pages: 1 -->
<svg width="1417pt" height="431pt"
 viewBox="0.00 0.00 1417.00 431.00" xmlns="http://www.w3.org/2000/svg" xmlns:xlink="http://www.w3.org/1999/xlink">
<g id="graph0" class="graph" transform="scale(1 1) rotate(0) translate(4 427)">
<title>src/bird.cpp</title>
<polygon fill="white" stroke="transparent" points="-4,4 -4,-427 1413,-427 1413,4 -4,4"/>
<!-- Node1 -->
<g id="node1" class="node">
<title>Node1</title>
<g id="a_node1"><a xlink:title="Implementação da classe Bird (animação, física e colisões).">
<polygon fill="#bfbfbf" stroke="black" points="1320.5,-403.5 1320.5,-422.5 1393.5,-422.5 1393.5,-403.5 1320.5,-403.5"/>
<text text-anchor="middle" x="1357" y="-410.5" font-family="Helvetica,sans-Serif" font-size="10.00">src/bird.cpp</text>
</a>
</g>
</g>
<!-- Node2 -->
<g id="node2" class="node">
<title>Node2</title>
<g id="a_node2"><a xlink:href="bird_8hpp.html" target="_top" xlink:title="Declaracao da classe Bird (personagem controlavel).">
<polygon fill="white" stroke="black" points="1305,-347.5 1305,-366.5 1409,-366.5 1409,-347.5 1305,-347.5"/>
<text text-anchor="middle" x="1357" y="-354.5" font-family="Helvetica,sans-Serif" font-size="10.00">../include/bird.hpp</text>
</a>
</g>
</g>
<!-- Node1&#45;&gt;Node2 -->
<g id="edge1" class="edge">
<title>Node1&#45;&gt;Node2</title>
<path fill="none" stroke="midnightblue" d="M1357,-403.08C1357,-396.01 1357,-385.86 1357,-376.99"/>
<polygon fill="midnightblue" stroke="midnightblue" points="1360.5,-376.75 1357,-366.75 1353.5,-376.75 1360.5,-376.75"/>
</g>
<!-- Node3 -->
<g id="node3" class="node">
<title>Node3</title>
<g id="a_node3"><a xlink:title=" ">
<polygon fill="white" stroke="#bfbfbf" points="1108.5,-6 1108.5,-25 1265.5,-25 1265.5,-6 1108.5,-6"/>
<text text-anchor="middle" x="1187" y="-13" font-family="Helvetica,sans-Serif" font-size="10.00">allegro5/allegro_primitives.h</text>
</a>
</g>
</g>
<!-- Node2&#45;&gt;Node3 -->
<g id="edge2" class="edge">
<title>Node2&#45;&gt;Node3</title>
<path fill="none" stroke="midnightblue" d="M1358.61,-347.46C1366.49,-304.53 1399.35,-112.45 1365,-67 1351.27,-48.83 1298.15,-35.3 1253.49,-26.84"/>
<polygon fill="midnightblue" stroke="midnightblue" points="1253.99,-23.37 1243.52,-25.01 1252.72,-30.26 1253.99,-23.37"/>
</g>
<!-- Node4 -->
<g id="node4" class="node">
<title>Node4</title>
<g id="a_node4"><a xlink:href="defines_8hpp.html" target="_top" xlink:title="Constantes globais, macros e estruturas auxiliares do jogo.">
<polygon fill="white" stroke="black" points="1282.5,-67.5 1282.5,-86.5 1355.5,-86.5 1355.5,-67.5 1282.5,-67.5"/>
<text text-anchor="middle" x="1319" y="-74.5" font-family="Helvetica,sans-Serif" font-size="10.00">defines.hpp</text>
</a>
</g>
</g>
<!-- Node2&#45;&gt;Node4 -->
<g id="edge3" class="edge">
<title>Node2&#45;&gt;Node4</title>
<path fill="none" stroke="midnightblue" d="M1360.6,-347.22C1364.06,-338.28 1369.03,-323.94 1371,-311 1372.34,-302.21 1371.86,-299.85 1371,-291 1363.63,-215.26 1360.25,-195.77 1338,-123 1335.21,-113.88 1331.2,-104.08 1327.59,-95.97"/>
<polygon fill="midnightblue" stroke="midnightblue" points="1330.71,-94.38 1323.34,-86.76 1324.35,-97.31 1330.71,-94.38"/>
</g>
<!-- Node8 -->
<g id="node8" class="node">
<title>Node8</title>
<g id="a_node8"><a xlink:href="game__object_8hpp.html" target="_top" xlink:title="Classe base abstrata para todos os objetos renderizáveis.">
<polygon fill="white" stroke="black" points="895.5,-291.5 895.5,-310.5 996.5,-310.5 996.5,-291.5 895.5,-291.5"/>
<text text-anchor="middle" x="946" y="-298.5" font-family="Helvetica,sans-Serif" font-size="10.00">game_object.hpp</text>
</a>
</g>
</g>
<!-- Node2&#45;&gt;Node8 -->
<g id="edge7" class="edge">
<title>Node2&#45;&gt;Node8</title>
<path fill="none" stroke="midnightblue" d="M1304.95,-349.16C1228.82,-339.16 1087.42,-320.58 1006.68,-309.97"/>
<polygon fill="midnightblue" stroke="midnightblue" points="1007.04,-306.49 996.67,-308.66 1006.12,-313.43 1007.04,-306.49"/>
</g>
<!-- Node5 -->
<g id="node5" class="node">
<title>Node5</title>
<g id="a_node5"><a xlink:title=" ">
<polygon fill="white" stroke="#bfbfbf" points="1288.5,-6 1288.5,-25 1335.5,-25 1335.5,-6 1288.5,-6"/>
<text text-anchor="middle" x="1312" y="-13" font-family="Helvetica,sans-Serif" font-size="10.00">cmath</text>
</a>
</g>
</g>
<!-- Node4&#45;&gt;Node5 -->
<g id="edge4" class="edge">
<title>Node4&#45;&gt;Node5</title>
<path fill="none" stroke="midnightblue" d="M1318,-67.48C1317.01,-59.08 1315.47,-45.98 1314.2,-35.16"/>
<polygon fill="midnightblue" stroke="midnightblue" points="1317.65,-34.53 1313,-25.01 1310.69,-35.35 1317.65,-34.53"/>
</g>
<!-- Node6 -->
<g id="node6" class="node">
<title>Node6</title>
<g id="a_node6"><a xlink:title=" ">
<polygon fill="white" stroke="#bfbfbf" points="1036,-6 1036,-25 1080,-25 1080,-6 1036,-6"/>
<text text-anchor="middle" x="1058" y="-13" font-family="Helvetica,sans-Serif" font-size="10.00">string</text>
</a>
</g>
</g>
<!-- Node4&#45;&gt;Node6 -->
<g id="edge5" class="edge">
<title>Node4&#45;&gt;Node6</title>
<path fill="none" stroke="midnightblue" d="M1282.23,-69.95C1238.44,-62.4 1163.26,-48.34 1100,-31 1096.62,-30.07 1093.13,-29.02 1089.65,-27.92"/>
<polygon fill="midnightblue" stroke="midnightblue" points="1090.66,-24.56 1080.06,-24.72 1088.44,-31.2 1090.66,-24.56"/>
</g>
<!-- Node7 -->
<g id="node7" class="node">
<title>Node7</title>
<g id="a_node7"><a xlink:title=" ">
<polygon fill="white" stroke="#bfbfbf" points="1353.5,-6 1353.5,-25 1400.5,-25 1400.5,-6 1353.5,-6"/>
<text text-anchor="middle" x="1377" y="-13" font-family="Helvetica,sans-Serif" font-size="10.00">vector</text>
</a>
</g>
</g>
<!-- Node4&#45;&gt;Node7 -->
<g id="edge6" class="edge">
<title>Node4&#45;&gt;Node7</title>
<path fill="none" stroke="midnightblue" d="M1327.31,-67.48C1336.18,-58.37 1350.45,-43.74 1361.42,-32.48"/>
<polygon fill="midnightblue" stroke="midnightblue" points="1364.23,-34.61 1368.71,-25.01 1359.22,-29.73 1364.23,-34.61"/>
</g>
<!-- Node9 -->
<g id="node9" class="node">
<title>Node9</title>
<g id="a_node9"><a xlink:href="init_8hpp.html" target="_top" xlink:title="Declara funções de inicialização e finalização do Allegro.">
<polygon fill="white" stroke="black" points="635.5,-235.5 635.5,-254.5 688.5,-254.5 688.5,-235.5 635.5,-235.5"/>
<text text-anchor="middle" x="662" y="-242.5" font-family="Helvetica,sans-Serif" font-size="10.00">init.hpp</text>
</a>
</g>
</g>
<!-- Node8&#45;&gt;Node9 -->
<g id="edge8" class="edge">
<title>Node8&#45;&gt;Node9</title>
<path fill="none" stroke="midnightblue" d="M901,-291.44C845.1,-280.82 750.8,-262.88 698.93,-253.02"/>
<polygon fill="midnightblue" stroke="midnightblue" points="699.32,-249.53 688.84,-251.1 698.01,-256.41 699.32,-249.53"/>
</g>
<!-- Node9&#45;&gt;Node3 -->
<g id="edge24" class="edge">
<title>Node9&#45;&gt;Node3</title>
<path fill="none" stroke="midnightblue" d="M688.71,-243.7C791.29,-242.3 1156.05,-234.79 1192,-199 1235.95,-155.24 1209.79,-71.75 1195.02,-34.83"/>
<polygon fill="midnightblue" stroke="midnightblue" points="1198.14,-33.22 1191.06,-25.34 1191.68,-35.92 1198.14,-33.22"/>
</g>
<!-- Node9&#45;&gt;Node4 -->
<g id="edge38" class="edge">
<title>Node9&#45;&gt;Node4</title>
<path fill="none" stroke="midnightblue" d="M688.8,-244.04C804.13,-243.94 1254.4,-240.87 1300,-199 1328.23,-173.08 1326.13,-123.67 1322.41,-96.7"/>
<polygon fill="midnightblue" stroke="midnightblue" points="1325.84,-95.98 1320.8,-86.65 1318.93,-97.08 1325.84,-95.98"/>
</g>
<!-- Node9&#45;&gt;Node6 -->
<g id="edge17" class="edge">
<title>Node9&#45;&gt;Node6</title>
<path fill="none" stroke="midnightblue" d="M688.64,-243.11C775.77,-239.93 1048.21,-227.76 1074,-199 1115.55,-152.66 1084.23,-70.53 1067.17,-34.4"/>
<polygon fill="midnightblue" stroke="midnightblue" points="1070.16,-32.56 1062.61,-25.13 1063.88,-35.65 1070.16,-32.56"/>
</g>
<!-- Node10 -->
<g id="node10" class="node">
<title>Node10</title>
<g id="a_node10"><a xlink:title=" ">
<polygon fill="white" stroke="#bfbfbf" points="1239.5,-179.5 1239.5,-198.5 1290.5,-198.5 1290.5,-179.5 1239.5,-179.5"/>
<text text-anchor="middle" x="1265" y="-186.5" font-family="Helvetica,sans-Serif" font-size="10.00">math.h</text>
</a>
</g>
</g>
<!-- Node9&#45;&gt;Node10 -->
<g id="edge9" class="edge">
<title>Node9&#45;&gt;Node10</title>
<path fill="none" stroke="midnightblue" d="M688.53,-243.21C769.44,-240.53 1019.96,-230.1 1225,-199 1226.45,-198.78 1227.93,-198.54 1229.42,-198.28"/>
<polygon fill="midnightblue" stroke="midnightblue" points="1230.14,-201.7 1239.28,-196.35 1228.8,-194.83 1230.14,-201.7"/>
</g>
<!-- Node11 -->
<g id="node11" class="node">
<title>Node11</title>
<g id="a_node11"><a xlink:title=" ">
<polygon fill="white" stroke="#bfbfbf" points="39,-179.5 39,-198.5 103,-198.5 103,-179.5 39,-179.5"/>
<text text-anchor="middle" x="71" y="-186.5" font-family="Helvetica,sans-Serif" font-size="10.00">algorithm</text>
</a>
</g>
</g>
<!-- Node9&#45;&gt;Node11 -->
<g id="edge10" class="edge">
<title>Node9&#45;&gt;Node11</title>
<path fill="none" stroke="midnightblue" d="M635.24,-243.09C556.63,-240.13 319.49,-229.3 113.26,-198.99"/>
<polygon fill="midnightblue" stroke="midnightblue" points="113.56,-195.5 103.15,-197.49 112.53,-202.42 113.56,-195.5"/>
</g>
<!-- Node12 -->
<g id="node12" class="node">
<title>Node12</title>
<g id="a_node12"><a xlink:title=" ">
<polygon fill="white" stroke="#bfbfbf" points="121.5,-179.5 121.5,-198.5 176.5,-198.5 176.5,-179.5 121.5,-179.5"/>
<text text-anchor="middle" x="149" y="-186.5" font-family="Helvetica,sans-Serif" font-size="10.00">fstream</text>
</a>
</g>
</g>
<!-- Node9&#45;&gt;Node12 -->
<g id="edge11" class="edge">
<title>Node9&#45;&gt;Node12</title>
<path fill="none" stroke="midnightblue" d="M635.31,-242.54C563.28,-238.35 359.05,-224.94 191,-199 189.71,-198.8 188.41,-198.59 187.09,-198.36"/>
<polygon fill="midnightblue" stroke="midnightblue" points="187.4,-194.86 176.93,-196.46 186.11,-201.74 187.4,-194.86"/>
</g>
<!-- Node13 -->
<g id="node13" class="node">
<title>Node13</title>
<g id="a_node13"><a xlink:title=" ">
<polygon fill="white" stroke="#bfbfbf" points="592,-6 592,-25 652,-25 652,-6 592,-6"/>
<text text-anchor="middle" x="622" y="-13" font-family="Helvetica,sans-Serif" font-size="10.00">iostream</text>
</a>
</g>
</g>
<!-- Node9&#45;&gt;Node13 -->
<g id="edge12" class="edge">
<title>Node9&#45;&gt;Node13</title>
<path fill="none" stroke="midnightblue" d="M639.09,-235.43C622.6,-228.14 601.04,-216.1 588,-199 556.61,-157.83 563.18,-138.27 556,-87 554.77,-78.2 552.06,-74.97 556,-67 563.92,-50.98 579.62,-38.64 593.73,-30.17"/>
<polygon fill="midnightblue" stroke="midnightblue" points="595.65,-33.1 602.67,-25.16 592.23,-26.99 595.65,-33.1"/>
</g>
<!-- Node14 -->
<g id="node14" class="node">
<title>Node14</title>
<g id="a_node14"><a xlink:title=" ">
<polygon fill="white" stroke="#bfbfbf" points="233,-179.5 233,-198.5 265,-198.5 265,-179.5 233,-179.5"/>
<text text-anchor="middle" x="249" y="-186.5" font-family="Helvetica,sans-Serif" font-size="10.00">list</text>
</a>
</g>
</g>
<!-- Node9&#45;&gt;Node14 -->
<g id="edge13" class="edge">
<title>Node9&#45;&gt;Node14</title>
<path fill="none" stroke="midnightblue" d="M635.29,-243.02C573.32,-240.29 415.01,-230.76 275.27,-198.8"/>
<polygon fill="midnightblue" stroke="midnightblue" points="275.78,-195.32 265.24,-196.46 274.19,-202.14 275.78,-195.32"/>
</g>
<!-- Node15 -->
<g id="node15" class="node">
<title>Node15</title>
<g id="a_node15"><a xlink:title=" ">
<polygon fill="white" stroke="#bfbfbf" points="283,-179.5 283,-198.5 321,-198.5 321,-179.5 283,-179.5"/>
<text text-anchor="middle" x="302" y="-186.5" font-family="Helvetica,sans-Serif" font-size="10.00">map</text>
</a>
</g>
</g>
<!-- Node9&#45;&gt;Node15 -->
<g id="edge14" class="edge">
<title>Node9&#45;&gt;Node15</title>
<path fill="none" stroke="midnightblue" d="M635.1,-241.49C578.95,-235.99 445.33,-221.54 335,-199 333.72,-198.74 332.42,-198.46 331.11,-198.16"/>
<polygon fill="midnightblue" stroke="midnightblue" points="331.64,-194.68 321.09,-195.66 329.95,-201.48 331.64,-194.68"/>
</g>
<!-- Node16 -->
<g id="node16" class="node">
<title>Node16</title>
<g id="a_node16"><a xlink:title=" ">
<polygon fill="white" stroke="#bfbfbf" points="670,-6 670,-25 728,-25 728,-6 670,-6"/>
<text text-anchor="middle" x="699" y="-13" font-family="Helvetica,sans-Serif" font-size="10.00">memory</text>
</a>
</g>
</g>
<!-- Node9&#45;&gt;Node16 -->
<g id="edge15" class="edge">
<title>Node9&#45;&gt;Node16</title>
<path fill="none" stroke="midnightblue" d="M653.79,-235.18C646.46,-226.66 636.24,-213.02 632,-199 629.42,-190.49 630.27,-187.72 632,-179 642.98,-123.57 673.13,-63.31 688.97,-34.21"/>
<polygon fill="midnightblue" stroke="midnightblue" points="692.14,-35.71 693.92,-25.27 686.02,-32.32 692.14,-35.71"/>
</g>
<!-- Node17 -->
<g id="node17" class="node">
<title>Node17</title>
<g id="a_node17"><a xlink:title=" ">
<polygon fill="white" stroke="#bfbfbf" points="377,-179.5 377,-198.5 433,-198.5 433,-179.5 377,-179.5"/>
<text text-anchor="middle" x="405" y="-186.5" font-family="Helvetica,sans-Serif" font-size="10.00">sstream</text>
</a>
</g>
</g>
<!-- Node9&#45;&gt;Node17 -->
<g id="edge16" class="edge">
<title>Node9&#45;&gt;Node17</title>
<path fill="none" stroke="midnightblue" d="M635.18,-238.43C594.48,-229.97 514.71,-213.34 447,-199 445.73,-198.73 444.43,-198.46 443.13,-198.18"/>
<polygon fill="midnightblue" stroke="midnightblue" points="443.52,-194.68 433.01,-196.02 442.06,-201.53 443.52,-194.68"/>
</g>
<!-- Node18 -->
<g id="node18" class="node">
<title>Node18</title>
<g id="a_node18"><a xlink:title=" ">
<polygon fill="white" stroke="#bfbfbf" points="916,-6 916,-25 1018,-25 1018,-6 916,-6"/>
<text text-anchor="middle" x="967" y="-13" font-family="Helvetica,sans-Serif" font-size="10.00">allegro5/allegro.h</text>
</a>
</g>
</g>
<!-- Node9&#45;&gt;Node18 -->
<g id="edge18" class="edge">
<title>Node9&#45;&gt;Node18</title>
<path fill="none" stroke="midnightblue" d="M688.92,-243.83C753.55,-242.83 914.74,-236.52 950,-199 992.46,-153.82 980.13,-71.69 971.82,-35.03"/>
<polygon fill="midnightblue" stroke="midnightblue" points="975.2,-34.1 969.44,-25.21 968.39,-35.75 975.2,-34.1"/>
</g>
<!-- Node19 -->
<g id="node19" class="node">
<title>Node19</title>
<g id="a_node19"><a xlink:title=" ">
<polygon fill="white" stroke="#bfbfbf" points="746,-6 746,-25 888,-25 888,-6 746,-6"/>
<text text-anchor="middle" x="817" y="-13" font-family="Helvetica,sans-Serif" font-size="10.00">allegro5/allegro_acodec.h</text>
</a>
</g>
</g>
<!-- Node9&#45;&gt;Node19 -->
<g id="edge19" class="edge">
<title>Node9&#45;&gt;Node19</title>
<path fill="none" stroke="midnightblue" d="M688.58,-242.47C718.12,-239.25 764.97,-229.34 790,-199 829.36,-151.29 824.7,-71.72 820.04,-35.5"/>
<polygon fill="midnightblue" stroke="midnightblue" points="823.47,-34.76 818.58,-25.36 816.54,-35.75 823.47,-34.76"/>
</g>
<!-- Node20 -->
<g id="node20" class="node">
<title>Node20</title>
<g id="a_node20"><a xlink:title=" ">
<polygon fill="white" stroke="#bfbfbf" points="0,-6 0,-25 134,-25 134,-6 0,-6"/>
<text text-anchor="middle" x="67" y="-13" font-family="Helvetica,sans-Serif" font-size="10.00">allegro5/allegro_audio.h</text>
</a>
</g>
</g>
<!-- Node9&#45;&gt;Node20 -->
<g id="edge20" class="edge">
<title>Node9&#45;&gt;Node20</title>
<path fill="none" stroke="midnightblue" d="M635.48,-243.81C552.06,-242.83 296.24,-236.74 224,-199 150.55,-160.63 96.69,-72.22 76.14,-34.3"/>
<polygon fill="midnightblue" stroke="midnightblue" points="79.21,-32.61 71.44,-25.41 73.02,-35.89 79.21,-32.61"/>
</g>
<!-- Node21 -->
<g id="node21" class="node">
<title>Node21</title>
<g id="a_node21"><a xlink:title=" ">
<polygon fill="white" stroke="#bfbfbf" points="152,-6 152,-25 290,-25 290,-6 152,-6"/>
<text text-anchor="middle" x="221" y="-13" font-family="Helvetica,sans-Serif" font-size="10.00">allegro5/allegro_image.h</text>
</a>
</g>
</g>
<!-- Node9&#45;&gt;Node21 -->
<g id="edge21" class="edge">
<title>Node9&#45;&gt;Node21</title>
<path fill="none" stroke="midnightblue" d="M635.25,-242.37C571.67,-238.12 413.42,-225.15 368,-199 298.38,-158.93 248.71,-72.11 229.63,-34.49"/>
<polygon fill="midnightblue" stroke="midnightblue" points="232.64,-32.68 225.07,-25.26 226.36,-35.78 232.64,-32.68"/>
</g>
<!-- Node22 -->
<g id="node22" class="node">
<title>Node22</title>
<g id="a_node22"><a xlink:title=" ">
<polygon fill="white" stroke="#bfbfbf" points="308.5,-0.5 308.5,-30.5 437.5,-30.5 437.5,-0.5 308.5,-0.5"/>
<text text-anchor="start" x="316.5" y="-18.5" font-family="Helvetica,sans-Serif" font-size="10.00">allegro5/allegro_native</text>
<text text-anchor="middle" x="373" y="-7.5" font-family="Helvetica,sans-Serif" font-size="10.00">_dialog.h</text>
</a>
</g>
</g>
<!-- Node9&#45;&gt;Node22 -->
<g id="edge22" class="edge">
<title>Node9&#45;&gt;Node22</title>
<path fill="none" stroke="midnightblue" d="M635.06,-235.93C612.5,-228.43 580.08,-215.88 555,-199 485.58,-152.27 420.46,-76.43 390.41,-38.94"/>
<polygon fill="midnightblue" stroke="midnightblue" points="392.82,-36.36 383.87,-30.7 387.34,-40.71 392.82,-36.36"/>
</g>
<!-- Node23 -->
<g id="node23" class="node">
<title>Node23</title>
<g id="a_node23"><a xlink:title=" ">
<polygon fill="white" stroke="#bfbfbf" points="641,-179.5 641,-198.5 781,-198.5 781,-179.5 641,-179.5"/>
<text text-anchor="middle" x="711" y="-186.5" font-family="Helvetica,sans-Serif" font-size="10.00">allegro5/allegro_physfs.h</text>
</a>
</g>
</g>
<!-- Node9&#45;&gt;Node23 -->
<g id="edge23" class="edge">
<title>Node9&#45;&gt;Node23</title>
<path fill="none" stroke="midnightblue" d="M670.09,-235.08C677.16,-227.3 687.59,-215.8 696.15,-206.37"/>
<polygon fill="midnightblue" stroke="midnightblue" points="698.93,-208.51 703.06,-198.75 693.75,-203.8 698.93,-208.51"/>
</g>
<!-- Node24 -->
<g id="node24" class="node">
<title>Node24</title>
<g id="a_node24"><a xlink:title=" ">
<polygon fill="white" stroke="#bfbfbf" points="456,-6 456,-25 574,-25 574,-6 456,-6"/>
<text text-anchor="middle" x="515" y="-13" font-family="Helvetica,sans-Serif" font-size="10.00">allegro5/allegro_ttf.h</text>
</a>
</g>
</g>
<!-- Node9&#45;&gt;Node24 -->
<g id="edge25" class="edge">
<title>Node9&#45;&gt;Node24</title>
<path fill="none" stroke="midnightblue" d="M635.17,-236.84C615.11,-230.17 588.41,-218.29 572,-199 530.47,-150.18 519.16,-71.17 516.11,-35.3"/>
<polygon fill="midnightblue" stroke="midnightblue" points="519.6,-34.98 515.38,-25.26 512.61,-35.48 519.6,-34.98"/>
</g>
<!-- Node25 -->
<g id="node25" class="node">
<title>Node25</title>
<g id="a_node25"><a xlink:title=" ">
<polygon fill="white" stroke="#bfbfbf" points="837.5,-179.5 837.5,-198.5 940.5,-198.5 940.5,-179.5 837.5,-179.5"/>
<text text-anchor="middle" x="889" y="-186.5" font-family="Helvetica,sans-Serif" font-size="10.00">allegro5/bitmap.h</text>
</a>
</g>
</g>
<!-- Node9&#45;&gt;Node25 -->
<g id="edge26" class="edge">
<title>Node9&#45;&gt;Node25</title>
<path fill="none" stroke="midnightblue" d="M688.93,-237.59C727.01,-228.54 797.08,-211.87 843.37,-200.86"/>
<polygon fill="midnightblue" stroke="midnightblue" points="844.23,-204.25 853.15,-198.53 842.61,-197.44 844.23,-204.25"/>
</g>
<!-- Node26 -->
<g id="node26" class="node">
<title>Node26</title>
<g id="a_node26"><a xlink:href="assets_8hpp.html" target="_top" xlink:title="Declara classes utilitárias para carregar e usar imagens, sons e fontes no Allegro.">
<polygon fill="white" stroke="black" points="565.5,-67.5 565.5,-86.5 634.5,-86.5 634.5,-67.5 565.5,-67.5"/>
<text text-anchor="middle" x="600" y="-74.5" font-family="Helvetica,sans-Serif" font-size="10.00">assets.hpp</text>
</a>
</g>
</g>
<!-- Node9&#45;&gt;Node26 -->
<g id="edge27" class="edge">
<title>Node9&#45;&gt;Node26</title>
<path fill="none" stroke="midnightblue" d="M641.15,-235.43C626.42,-228.13 607.8,-216.09 599,-199 582.08,-166.12 588.9,-121.24 594.82,-96.42"/>
<polygon fill="midnightblue" stroke="midnightblue" points="598.26,-97.09 597.38,-86.54 591.48,-95.34 598.26,-97.09"/>
</g>
<!-- Node27 -->
<g id="node27" class="node">
<title>Node27</title>
<g id="a_node27"><a xlink:href="player_8hpp.html" target="_top" xlink:title="Modela um jogador e operações de ranking.">
<polygon fill="white" stroke="black" points="997,-179.5 997,-198.5 1065,-198.5 1065,-179.5 997,-179.5"/>
<text text-anchor="middle" x="1031" y="-186.5" font-family="Helvetica,sans-Serif" font-size="10.00">player.hpp</text>
</a>
</g>
</g>
<!-- Node9&#45;&gt;Node27 -->
<g id="edge39" class="edge">
<title>Node9&#45;&gt;Node27</title>
<path fill="none" stroke="midnightblue" d="M688.65,-240.01C742.77,-232.7 868.48,-216.28 974,-199 978.14,-198.32 982.48,-197.57 986.84,-196.8"/>
<polygon fill="midnightblue" stroke="midnightblue" points="987.77,-200.19 996.99,-194.98 986.54,-193.3 987.77,-200.19"/>
</g>
<!-- Node28 -->
<g id="node28" class="node">
<title>Node28</title>
<g id="a_node28"><a xlink:href="state_8hpp.html" target="_top" xlink:title="Interface base para estados da máquina de estados do jogo.">
<polygon fill="white" stroke="black" points="1121,-179.5 1121,-198.5 1183,-198.5 1183,-179.5 1121,-179.5"/>
<text text-anchor="middle" x="1152" y="-186.5" font-family="Helvetica,sans-Serif" font-size="10.00">state.hpp</text>
</a>
</g>
</g>
<!-- Node9&#45;&gt;Node28 -->
<g id="edge41" class="edge">
<title>Node9&#45;&gt;Node28</title>
<path fill="none" stroke="midnightblue" d="M688.7,-242.2C757.99,-237.35 949.2,-222.7 1107,-199 1108.1,-198.83 1109.22,-198.66 1110.35,-198.48"/>
<polygon fill="midnightblue" stroke="midnightblue" points="1111.35,-201.86 1120.6,-196.68 1110.14,-194.96 1111.35,-201.86"/>
</g>
<!-- Node26&#45;&gt;Node3 -->
<g id="edge36" class="edge">
<title>Node26&#45;&gt;Node3</title>
<path fill="none" stroke="midnightblue" d="M634.75,-73.46C714.95,-67.47 919.07,-51.37 1089,-31 1099.98,-29.68 1111.63,-28.11 1122.92,-26.5"/>
<polygon fill="midnightblue" stroke="midnightblue" points="1123.76,-29.91 1133.16,-25.01 1122.76,-22.99 1123.76,-29.91"/>
</g>
<!-- Node26&#45;&gt;Node6 -->
<g id="edge30" class="edge">
<title>Node26&#45;&gt;Node6</title>
<path fill="none" stroke="midnightblue" d="M634.76,-76.2C708.48,-75.8 885.34,-70.4 1027,-31 1028.93,-30.46 1030.89,-29.82 1032.84,-29.1"/>
<polygon fill="midnightblue" stroke="midnightblue" points="1034.46,-32.21 1042.3,-25.08 1031.73,-25.77 1034.46,-32.21"/>
</g>
<!-- Node26&#45;&gt;Node13 -->
<g id="edge28" class="edge">
<title>Node26&#45;&gt;Node13</title>
<path fill="none" stroke="midnightblue" d="M603.15,-67.48C606.32,-58.9 611.3,-45.43 615.35,-34.48"/>
<polygon fill="midnightblue" stroke="midnightblue" points="618.67,-35.6 618.85,-25.01 612.1,-33.17 618.67,-35.6"/>
</g>
<!-- Node26&#45;&gt;Node16 -->
<g id="edge29" class="edge">
<title>Node26&#45;&gt;Node16</title>
<path fill="none" stroke="midnightblue" d="M614.18,-67.48C630.36,-57.75 657.03,-41.73 676.14,-30.24"/>
<polygon fill="midnightblue" stroke="midnightblue" points="678.07,-33.16 684.84,-25.01 674.47,-27.16 678.07,-33.16"/>
</g>
<!-- Node26&#45;&gt;Node18 -->
<g id="edge31" class="edge">
<title>Node26&#45;&gt;Node18</title>
<path fill="none" stroke="midnightblue" d="M634.85,-71.34C690.44,-63.77 802.55,-47.93 897,-31 903.73,-29.79 910.81,-28.44 917.77,-27.05"/>
<polygon fill="midnightblue" stroke="midnightblue" points="918.73,-30.42 927.83,-25 917.33,-23.56 918.73,-30.42"/>
</g>
<!-- Node26&#45;&gt;Node19 -->
<g id="edge32" class="edge">
<title>Node26&#45;&gt;Node19</title>
<path fill="none" stroke="midnightblue" d="M631.09,-67.48C669.28,-57 734.17,-39.21 776.3,-27.66"/>
<polygon fill="midnightblue" stroke="midnightblue" points="777.25,-31.03 785.97,-25.01 775.4,-24.28 777.25,-31.03"/>
</g>
<!-- Node26&#45;&gt;Node20 -->
<g id="edge33" class="edge">
<title>Node26&#45;&gt;Node20</title>
<path fill="none" stroke="midnightblue" d="M565.47,-73.67C489.07,-68.28 300.02,-53.66 143,-31 134.87,-29.83 126.29,-28.39 117.94,-26.87"/>
<polygon fill="midnightblue" stroke="midnightblue" points="118.38,-23.4 107.91,-25.01 117.1,-30.28 118.38,-23.4"/>
</g>
<!-- Node26&#45;&gt;Node21 -->
<g id="edge34" class="edge">
<title>Node26&#45;&gt;Node21</title>
<path fill="none" stroke="midnightblue" d="M565.18,-71.2C509.05,-63.38 395.14,-47.12 299,-31 291.36,-29.72 283.31,-28.3 275.4,-26.87"/>
<polygon fill="midnightblue" stroke="midnightblue" points="275.97,-23.41 265.5,-25.05 274.71,-30.3 275.97,-23.41"/>
</g>
<!-- Node26&#45;&gt;Node22 -->
<g id="edge35" class="edge">
<title>Node26&#45;&gt;Node22</title>
<path fill="none" stroke="midnightblue" d="M567.48,-67.48C533.36,-58.53 478.86,-44.25 436.23,-33.07"/>
<polygon fill="midnightblue" stroke="midnightblue" points="437.06,-29.67 426.5,-30.52 435.29,-36.44 437.06,-29.67"/>
</g>
<!-- Node26&#45;&gt;Node24 -->
<g id="edge37" class="edge">
<title>Node26&#45;&gt;Node24</title>
<path fill="none" stroke="midnightblue" d="M587.82,-67.48C574.19,-57.93 551.87,-42.31 535.53,-30.87"/>
<polygon fill="midnightblue" stroke="midnightblue" points="537.36,-27.88 527.16,-25.01 533.34,-33.61 537.36,-27.88"/>
</g>
<!-- Node27&#45;&gt;Node9 -->
<g id="edge40" class="edge">
<title>Node27&#45;&gt;Node9</title>
<path fill="none" stroke="midnightblue" d="M996.84,-198.19C995.21,-198.47 993.59,-198.74 992,-199 886.22,-216.32 760.14,-232.78 698.82,-240.07"/>
<polygon fill="midnightblue" stroke="midnightblue" points="698.37,-236.6 688.85,-241.24 699.19,-243.55 698.37,-236.6"/>
</g>
<!-- Node28&#45;&gt;Node4 -->
<g id="edge43" class="edge">
<title>Node28&#45;&gt;Node4</title>
<path fill="none" stroke="midnightblue" d="M1165.1,-179.37C1193.76,-160.49 1262.24,-115.38 1297.39,-92.24"/>
<polygon fill="midnightblue" stroke="midnightblue" points="1299.53,-95.02 1305.96,-86.59 1295.68,-89.17 1299.53,-95.02"/>
</g>
<!-- Node28&#45;&gt;Node18 -->
<g id="edge42" class="edge">
<title>Node28&#45;&gt;Node18</title>
<path fill="none" stroke="midnightblue" d="M1142.83,-179.5C1113.54,-152.35 1022.01,-67.5 983.91,-32.17"/>
<polygon fill="midnightblue" stroke="midnightblue" points="985.94,-29.29 976.23,-25.06 981.18,-34.42 985.94,-29.29"/>
</g>
<!-- Node29 -->
<g id="node29" class="node">
<title>Node29</title>
<g id="a_node29"><a xlink:href="motion_8hpp.html" target="_top" xlink:title="Gerencia efeitos de parallax e animações de cenário.">
<polygon fill="white" stroke="black" points="1116,-123.5 1116,-142.5 1188,-142.5 1188,-123.5 1116,-123.5"/>
<text text-anchor="middle" x="1152" y="-130.5" font-family="Helvetica,sans-Serif" font-size="10.00">motion.hpp</text>
</a>
</g>
</g>
<!-- Node28&#45;&gt;Node29 -->
<g id="edge44" class="edge">
<title>Node28&#45;&gt;Node29</title>
<path fill="none" stroke="midnightblue" d="M1152,-179.08C1152,-172.01 1152,-161.86 1152,-152.99"/>
<polygon fill="midnightblue" stroke="midnightblue" points="1155.5,-152.75 1152,-142.75 1148.5,-152.75 1155.5,-152.75"/>
</g>
<!-- Node29&#45;&gt;Node3 -->
<g id="edge45" class="edge">
<title>Node29&#45;&gt;Node3</title>
<path fill="none" stroke="midnightblue" d="M1154.63,-123.32C1160.28,-104.67 1173.68,-60.44 1181.35,-35.13"/>
<polygon fill="midnightblue" stroke="midnightblue" points="1184.79,-35.87 1184.34,-25.28 1178.09,-33.84 1184.79,-35.87"/>
</g>
<!-- Node29&#45;&gt;Node4 -->
<g id="edge47" class="edge">
<title>Node29&#45;&gt;Node4</title>
<path fill="none" stroke="midnightblue" d="M1178.46,-123.44C1206.68,-114.32 1251.54,-99.81 1282.97,-89.65"/>
<polygon fill="midnightblue" stroke="midnightblue" points="1284.22,-92.92 1292.66,-86.52 1282.07,-86.26 1284.22,-92.92"/>
</g>
<!-- Node29&#45;&gt;Node26 -->
<g id="edge46" class="edge">
<title>Node29&#45;&gt;Node26</title>
<path fill="none" stroke="midnightblue" d="M1115.78,-128.46C1018.41,-118.93 751.16,-92.79 644.66,-82.37"/>
<polygon fill="midnightblue" stroke="midnightblue" points="644.86,-78.87 634.57,-81.38 644.18,-85.84 644.86,-78.87"/>
</g>
</g>
</svg>
