<?xml version="1.0" encoding="UTF-8" standalone="no"?>
<!DOCTYPE svg PUBLIC "-//W3C//DTD SVG 1.1//EN"
 "http://www.w3.org/Graphics/SVG/1.1/DTD/svg11.dtd">
<!-- Generated by graphviz version 2.43.0 (0)
 -->
<!-- Title: include/bird.hpp Pages: 1 -->
<svg width="574pt" height="207pt"
 viewBox="0.00 0.00 574.00 207.00" xmlns="http://www.w3.org/2000/svg" xmlns:xlink="http://www.w3.org/1999/xlink">
<g id="graph0" class="graph" transform="scale(1 1) rotate(0) translate(4 203)">
<title>include/bird.hpp</title>
<polygon fill="white" stroke="transparent" points="-4,4 -4,-203 570,-203 570,4 -4,4"/>
<!-- Node1 -->
<g id="node1" class="node">
<title>Node1</title>
<g id="a_node1"><a xlink:title="Declaracao da classe Bird (personagem controlavel).">
<polygon fill="#bfbfbf" stroke="black" points="417,-179.5 417,-198.5 512,-198.5 512,-179.5 417,-179.5"/>
<text text-anchor="middle" x="464.5" y="-186.5" font-family="Helvetica,sans-Serif" font-size="10.00">include/bird.hpp</text>
</a>
</g>
</g>
<!-- Node2 -->
<g id="node2" class="node">
<title>Node2</title>
<g id="a_node2"><a xlink:href="flappy__bird__controller_8hpp.html" target="_top" xlink:title="Declaracao da classe FlappyBird (controlador principal).">
<polygon fill="white" stroke="black" points="307,-112.5 307,-142.5 416,-142.5 416,-112.5 307,-112.5"/>
<text text-anchor="start" x="315" y="-130.5" font-family="Helvetica,sans-Serif" font-size="10.00">include/flappy_bird</text>
<text text-anchor="middle" x="361.5" y="-119.5" font-family="Helvetica,sans-Serif" font-size="10.00">_controller.hpp</text>
</a>
</g>
</g>
<!-- Node1&#45;&gt;Node2 -->
<g id="edge1" class="edge">
<title>Node1&#45;&gt;Node2</title>
<path fill="none" stroke="midnightblue" d="M440.74,-174.28C424.26,-164.75 402.37,-152.11 385.78,-142.52"/>
<polygon fill="midnightblue" stroke="midnightblue" points="439.33,-177.5 449.74,-179.48 442.83,-171.44 439.33,-177.5"/>
</g>
<!-- Node9 -->
<g id="node9" class="node">
<title>Node9</title>
<g id="a_node9"><a xlink:href="flappy__bird__controller_8cpp.html" target="_top" xlink:title="Controlador de fluxo do jogo (pontuação, eventos globais).">
<polygon fill="white" stroke="black" points="405,-56.5 405,-75.5 564,-75.5 564,-56.5 405,-56.5"/>
<text text-anchor="middle" x="484.5" y="-63.5" font-family="Helvetica,sans-Serif" font-size="10.00">src/flappy_bird_controller.cpp</text>
</a>
</g>
</g>
<!-- Node1&#45;&gt;Node9 -->
<g id="edge11" class="edge">
<title>Node1&#45;&gt;Node9</title>
<path fill="none" stroke="midnightblue" d="M467.58,-169.35C471.98,-142.77 479.86,-95.08 483.07,-75.62"/>
<polygon fill="midnightblue" stroke="midnightblue" points="464.12,-168.86 465.94,-179.3 471.02,-170 464.12,-168.86"/>
</g>
<!-- Node10 -->
<g id="node10" class="node">
<title>Node10</title>
<g id="a_node10"><a xlink:href="bird_8cpp.html" target="_top" xlink:title="Implementação da classe Bird (animação, física e colisões).">
<polygon fill="white" stroke="black" points="493,-118 493,-137 566,-137 566,-118 493,-118"/>
<text text-anchor="middle" x="529.5" y="-125" font-family="Helvetica,sans-Serif" font-size="10.00">src/bird.cpp</text>
</a>
</g>
</g>
<!-- Node1&#45;&gt;Node10 -->
<g id="edge10" class="edge">
<title>Node1&#45;&gt;Node10</title>
<path fill="none" stroke="midnightblue" d="M481.27,-172.65C493.66,-161.31 510.08,-146.28 520.2,-137.01"/>
<polygon fill="midnightblue" stroke="midnightblue" points="478.83,-170.14 473.81,-179.48 483.55,-175.3 478.83,-170.14"/>
</g>
<!-- Node3 -->
<g id="node3" class="node">
<title>Node3</title>
<g id="a_node3"><a xlink:href="allegro__interface_8hpp.html" target="_top" xlink:title="Declara o controlador que integra Allegro e a máquina de estados.">
<polygon fill="white" stroke="black" points="82.5,-56.5 82.5,-75.5 240.5,-75.5 240.5,-56.5 82.5,-56.5"/>
<text text-anchor="middle" x="161.5" y="-63.5" font-family="Helvetica,sans-Serif" font-size="10.00">include/allegro_interface.hpp</text>
</a>
</g>
</g>
<!-- Node2&#45;&gt;Node3 -->
<g id="edge2" class="edge">
<title>Node2&#45;&gt;Node3</title>
<path fill="none" stroke="midnightblue" d="M304.59,-109.57C267.18,-98.44 219.83,-84.35 190.09,-75.51"/>
<polygon fill="midnightblue" stroke="midnightblue" points="303.77,-112.98 314.36,-112.47 305.77,-106.27 303.77,-112.98"/>
</g>
<!-- Node6 -->
<g id="node6" class="node">
<title>Node6</title>
<g id="a_node6"><a xlink:href="play_8hpp.html" target="_top" xlink:title="Declaracao da classe Play, responsavel pelo estado de jogo ativo.">
<polygon fill="white" stroke="black" points="258.5,-56.5 258.5,-75.5 386.5,-75.5 386.5,-56.5 258.5,-56.5"/>
<text text-anchor="middle" x="322.5" y="-63.5" font-family="Helvetica,sans-Serif" font-size="10.00">include/states/play.hpp</text>
</a>
</g>
</g>
<!-- Node2&#45;&gt;Node6 -->
<g id="edge5" class="edge">
<title>Node2&#45;&gt;Node6</title>
<path fill="none" stroke="midnightblue" d="M346.62,-103.8C340.17,-93.96 333.01,-83.03 328.17,-75.66"/>
<polygon fill="midnightblue" stroke="midnightblue" points="343.85,-105.95 352.26,-112.4 349.7,-102.12 343.85,-105.95"/>
</g>
<!-- Node2&#45;&gt;Node9 -->
<g id="edge9" class="edge">
<title>Node2&#45;&gt;Node9</title>
<path fill="none" stroke="midnightblue" d="M399.87,-107.94C422.15,-97.16 449.18,-84.08 466.6,-75.66"/>
<polygon fill="midnightblue" stroke="midnightblue" points="398.13,-104.89 390.65,-112.4 401.18,-111.2 398.13,-104.89"/>
</g>
<!-- Node4 -->
<g id="node4" class="node">
<title>Node4</title>
<g id="a_node4"><a xlink:href="allegro__interface_8cpp.html" target="_top" xlink:title="Implementação do controlador principal que integra Allegro às lógicas de estado do jogo.">
<polygon fill="white" stroke="black" points="97,-0.5 97,-19.5 234,-19.5 234,-0.5 97,-0.5"/>
<text text-anchor="middle" x="165.5" y="-7.5" font-family="Helvetica,sans-Serif" font-size="10.00">src/allegro_interface.cpp</text>
</a>
</g>
</g>
<!-- Node3&#45;&gt;Node4 -->
<g id="edge3" class="edge">
<title>Node3&#45;&gt;Node4</title>
<path fill="none" stroke="midnightblue" d="M162.9,-46.1C163.56,-37.14 164.33,-26.86 164.85,-19.75"/>
<polygon fill="midnightblue" stroke="midnightblue" points="159.41,-45.85 162.16,-56.08 166.39,-46.37 159.41,-45.85"/>
</g>
<!-- Node5 -->
<g id="node5" class="node">
<title>Node5</title>
<g id="a_node5"><a xlink:href="main_8cpp.html" target="_top" xlink:title="Ponto de entrada do jogo Flappy Bird.">
<polygon fill="white" stroke="black" points="0,-0.5 0,-19.5 79,-19.5 79,-0.5 0,-0.5"/>
<text text-anchor="middle" x="39.5" y="-7.5" font-family="Helvetica,sans-Serif" font-size="10.00">src/main.cpp</text>
</a>
</g>
</g>
<!-- Node3&#45;&gt;Node5 -->
<g id="edge4" class="edge">
<title>Node3&#45;&gt;Node5</title>
<path fill="none" stroke="midnightblue" d="M132.96,-52.37C110.11,-42.26 78.69,-28.35 58.74,-19.52"/>
<polygon fill="midnightblue" stroke="midnightblue" points="131.61,-55.6 142.17,-56.44 134.44,-49.2 131.61,-55.6"/>
</g>
<!-- Node6&#45;&gt;Node4 -->
<g id="edge6" class="edge">
<title>Node6&#45;&gt;Node4</title>
<path fill="none" stroke="midnightblue" d="M288.11,-53.17C258.55,-43 216.63,-28.59 190.26,-19.52"/>
<polygon fill="midnightblue" stroke="midnightblue" points="287.03,-56.5 297.62,-56.44 289.3,-49.88 287.03,-56.5"/>
</g>
<!-- Node7 -->
<g id="node7" class="node">
<title>Node7</title>
<g id="a_node7"><a xlink:href="load__game_8cpp.html" target="_top" xlink:title="Implementação da classe LoadName, responsável pela tela de inserção de nome do jogador.">
<polygon fill="white" stroke="black" points="252,-0.5 252,-19.5 393,-19.5 393,-0.5 252,-0.5"/>
<text text-anchor="middle" x="322.5" y="-7.5" font-family="Helvetica,sans-Serif" font-size="10.00">src/states/load_game.cpp</text>
</a>
</g>
</g>
<!-- Node6&#45;&gt;Node7 -->
<g id="edge7" class="edge">
<title>Node6&#45;&gt;Node7</title>
<path fill="none" stroke="midnightblue" d="M322.5,-45.8C322.5,-36.91 322.5,-26.78 322.5,-19.75"/>
<polygon fill="midnightblue" stroke="midnightblue" points="319,-46.08 322.5,-56.08 326,-46.08 319,-46.08"/>
</g>
<!-- Node8 -->
<g id="node8" class="node">
<title>Node8</title>
<g id="a_node8"><a xlink:href="play_8cpp.html" target="_top" xlink:title="Implementacao da classe Play.">
<polygon fill="white" stroke="black" points="411,-0.5 411,-19.5 518,-19.5 518,-0.5 411,-0.5"/>
<text text-anchor="middle" x="464.5" y="-7.5" font-family="Helvetica,sans-Serif" font-size="10.00">src/states/play.cpp</text>
</a>
</g>
</g>
<!-- Node6&#45;&gt;Node8 -->
<g id="edge8" class="edge">
<title>Node6&#45;&gt;Node8</title>
<path fill="none" stroke="midnightblue" d="M354.66,-52.77C381.33,-42.63 418.57,-28.47 442.1,-19.52"/>
<polygon fill="midnightblue" stroke="midnightblue" points="353.1,-49.62 345,-56.44 355.59,-56.16 353.1,-49.62"/>
</g>
</g>
</svg>
