<?xml version="1.0" encoding="UTF-8" standalone="no"?>
<!DOCTYPE svg PUBLIC "-//W3C//DTD SVG 1.1//EN"
 "http://www.w3.org/Graphics/SVG/1.1/DTD/svg11.dtd">
<!-- Generated by graphviz version 2.43.0 (0)
 -->
<!-- Title: Bird::set_by Pages: 1 -->
<svg width="339pt" height="28pt"
 viewBox="0.00 0.00 339.00 28.00" xmlns="http://www.w3.org/2000/svg" xmlns:xlink="http://www.w3.org/1999/xlink">
<g id="graph0" class="graph" transform="scale(1 1) rotate(0) translate(4 24)">
<title>Bird::set_by</title>
<polygon fill="white" stroke="transparent" points="-4,4 -4,-24 335,-24 335,4 -4,4"/>
<!-- Node1 -->
<g id="node1" class="node">
<title>Node1</title>
<g id="a_node1"><a xlink:title="Atualiza coordenada by (usada na HUD ou limites).">
<polygon fill="#bfbfbf" stroke="black" points="257,-0.5 257,-19.5 331,-19.5 331,-0.5 257,-0.5"/>
<text text-anchor="middle" x="294" y="-7.5" font-family="Helvetica,sans-Serif" font-size="10.00">Bird::set_by</text>
</a>
</g>
</g>
<!-- Node2 -->
<g id="node2" class="node">
<title>Node2</title>
<g id="a_node2"><a xlink:href="classBird.html#ae2718aad2ef1de73e399482ab6068324" target="_top" xlink:title="Atualiza fisica e posicao.">
<polygon fill="white" stroke="black" points="145,-0.5 145,-19.5 221,-19.5 221,-0.5 145,-0.5"/>
<text text-anchor="middle" x="183" y="-7.5" font-family="Helvetica,sans-Serif" font-size="10.00">Bird::update</text>
</a>
</g>
</g>
<!-- Node1&#45;&gt;Node2 -->
<g id="edge1" class="edge">
<title>Node1&#45;&gt;Node2</title>
<path fill="none" stroke="midnightblue" d="M246.58,-10C238.12,-10 229.4,-10 221.25,-10"/>
<polygon fill="midnightblue" stroke="midnightblue" points="246.7,-13.5 256.7,-10 246.7,-6.5 246.7,-13.5"/>
</g>
<!-- Node3 -->
<g id="node3" class="node">
<title>Node3</title>
<g id="a_node3"><a xlink:href="classFlappyBird.html#acfe4ae73e3b97741bf9acd9162ba8070" target="_top" xlink:title="Atualiza logica principal (estado, objetos, pipes).">
<polygon fill="white" stroke="black" points="0,-0.5 0,-19.5 109,-19.5 109,-0.5 0,-0.5"/>
<text text-anchor="middle" x="54.5" y="-7.5" font-family="Helvetica,sans-Serif" font-size="10.00">FlappyBird::update</text>
</a>
</g>
</g>
<!-- Node2&#45;&gt;Node3 -->
<g id="edge2" class="edge">
<title>Node2&#45;&gt;Node3</title>
<path fill="none" stroke="midnightblue" d="M134.57,-10C126.35,-10 117.75,-10 109.38,-10"/>
<polygon fill="midnightblue" stroke="midnightblue" points="134.73,-13.5 144.73,-10 134.73,-6.5 134.73,-13.5"/>
</g>
</g>
</svg>
