<?xml version="1.0" encoding="UTF-8" standalone="no"?>
<!DOCTYPE svg PUBLIC "-//W3C//DTD SVG 1.1//EN"
 "http://www.w3.org/Graphics/SVG/1.1/DTD/svg11.dtd">
<!-- Generated by graphviz version 2.43.0 (0)
 -->
<!-- Title: SettingsMenu::update Pages: 1 -->
<svg width="286pt" height="66pt"
 viewBox="0.00 0.00 286.00 66.00" xmlns="http://www.w3.org/2000/svg" xmlns:xlink="http://www.w3.org/1999/xlink">
<g id="graph0" class="graph" transform="scale(1 1) rotate(0) translate(4 62)">
<title>SettingsMenu::update</title>
<polygon fill="white" stroke="transparent" points="-4,4 -4,-62 282,-62 282,4 -4,4"/>
<!-- Node1 -->
<g id="node1" class="node">
<title>Node1</title>
<g id="a_node1"><a xlink:title="Atualiza a lógica do estado de movimento/animação de fundo.">
<polygon fill="#bfbfbf" stroke="black" points="0,-19.5 0,-38.5 123,-38.5 123,-19.5 0,-19.5"/>
<text text-anchor="middle" x="61.5" y="-26.5" font-family="Helvetica,sans-Serif" font-size="10.00">SettingsMenu::update</text>
</a>
</g>
</g>
<!-- Node2 -->
<g id="node2" class="node">
<title>Node2</title>
<g id="a_node2"><a xlink:href="classMotion.html#aa551dae9dbe0eb2b833bfb778f2007b9" target="_top" xlink:title="Seleciona o cenário (1 = dia, 2 = neve, 3 = chuva).">
<polygon fill="white" stroke="black" points="159,-38.5 159,-57.5 278,-57.5 278,-38.5 159,-38.5"/>
<text text-anchor="middle" x="218.5" y="-45.5" font-family="Helvetica,sans-Serif" font-size="10.00">Motion::setController</text>
</a>
</g>
</g>
<!-- Node1&#45;&gt;Node2 -->
<g id="edge1" class="edge">
<title>Node1&#45;&gt;Node2</title>
<path fill="none" stroke="midnightblue" d="M123.32,-36.45C131.73,-37.49 140.42,-38.55 148.96,-39.6"/>
<polygon fill="midnightblue" stroke="midnightblue" points="148.54,-43.07 158.89,-40.82 149.39,-36.12 148.54,-43.07"/>
</g>
<!-- Node3 -->
<g id="node3" class="node">
<title>Node3</title>
<g id="a_node3"><a xlink:href="classMotion.html#a01805ce60c0e4c9aae97979dd884b59c" target="_top" xlink:title="Atualiza posições dos elementos de background conforme cenário.">
<polygon fill="white" stroke="black" points="173.5,-0.5 173.5,-19.5 263.5,-19.5 263.5,-0.5 173.5,-0.5"/>
<text text-anchor="middle" x="218.5" y="-7.5" font-family="Helvetica,sans-Serif" font-size="10.00">Motion::update</text>
</a>
</g>
</g>
<!-- Node1&#45;&gt;Node3 -->
<g id="edge2" class="edge">
<title>Node1&#45;&gt;Node3</title>
<path fill="none" stroke="midnightblue" d="M123.32,-21.55C136.43,-19.94 150.22,-18.25 163.07,-16.67"/>
<polygon fill="midnightblue" stroke="midnightblue" points="163.65,-20.13 173.15,-15.44 162.8,-13.18 163.65,-20.13"/>
</g>
</g>
</svg>
