<?xml version="1.0" encoding="UTF-8" standalone="no"?>
<!DOCTYPE svg PUBLIC "-//W3C//DTD SVG 1.1//EN"
 "http://www.w3.org/Graphics/SVG/1.1/DTD/svg11.dtd">
<!-- Generated by graphviz version 2.43.0 (0)
 -->
<!-- Title: FlappyBird::update_score Pages: 1 -->
<svg width="274pt" height="104pt"
 viewBox="0.00 0.00 274.00 104.00" xmlns="http://www.w3.org/2000/svg" xmlns:xlink="http://www.w3.org/1999/xlink">
<g id="graph0" class="graph" transform="scale(1 1) rotate(0) translate(4 100)">
<title>FlappyBird::update_score</title>
<polygon fill="white" stroke="transparent" points="-4,4 -4,-100 270,-100 270,4 -4,4"/>
<!-- Node1 -->
<g id="node1" class="node">
<title>Node1</title>
<g id="a_node1"><a xlink:title="Atualiza pontuacao quando passaro passa canos.">
<polygon fill="#bfbfbf" stroke="black" points="0,-33 0,-63 109,-63 109,-33 0,-33"/>
<text text-anchor="start" x="8" y="-51" font-family="Helvetica,sans-Serif" font-size="10.00">FlappyBird::update</text>
<text text-anchor="middle" x="54.5" y="-40" font-family="Helvetica,sans-Serif" font-size="10.00">_score</text>
</a>
</g>
</g>
<!-- Node2 -->
<g id="node2" class="node">
<title>Node2</title>
<g id="a_node2"><a xlink:href="classPipeList.html#a05148696dde39f9b1b3bdd3154b1a67f" target="_top" xlink:title="Check if any pipe pair increments the score.">
<polygon fill="white" stroke="black" points="145,-76.5 145,-95.5 266,-95.5 266,-76.5 145,-76.5"/>
<text text-anchor="middle" x="205.5" y="-83.5" font-family="Helvetica,sans-Serif" font-size="10.00">PipeList::check_score</text>
</a>
</g>
</g>
<!-- Node1&#45;&gt;Node2 -->
<g id="edge1" class="edge">
<title>Node1&#45;&gt;Node2</title>
<path fill="none" stroke="midnightblue" d="M109.29,-61.72C125.02,-65.73 142.08,-70.08 157.37,-73.98"/>
<polygon fill="midnightblue" stroke="midnightblue" points="156.56,-77.39 167.12,-76.47 158.29,-70.6 156.56,-77.39"/>
</g>
<!-- Node3 -->
<g id="node3" class="node">
<title>Node3</title>
<g id="a_node3"><a xlink:href="classPipeList.html#a1cb8ddd5cf7c71189070d14699a26b6a" target="_top" xlink:title="Get current score.">
<polygon fill="white" stroke="black" points="149.5,-38.5 149.5,-57.5 261.5,-57.5 261.5,-38.5 149.5,-38.5"/>
<text text-anchor="middle" x="205.5" y="-45.5" font-family="Helvetica,sans-Serif" font-size="10.00">PipeList::get_points</text>
</a>
</g>
</g>
<!-- Node1&#45;&gt;Node3 -->
<g id="edge2" class="edge">
<title>Node1&#45;&gt;Node3</title>
<path fill="none" stroke="midnightblue" d="M109.29,-48C118.94,-48 129.1,-48 139.04,-48"/>
<polygon fill="midnightblue" stroke="midnightblue" points="139.28,-51.5 149.28,-48 139.28,-44.5 139.28,-51.5"/>
</g>
<!-- Node4 -->
<g id="node4" class="node">
<title>Node4</title>
<g id="a_node4"><a xlink:href="classGameObject.html#a5d5fbd225b26550e9ace43672184e50b" target="_top" xlink:title="Obtém coordenada X.">
<polygon fill="white" stroke="black" points="150.5,-0.5 150.5,-19.5 260.5,-19.5 260.5,-0.5 150.5,-0.5"/>
<text text-anchor="middle" x="205.5" y="-7.5" font-family="Helvetica,sans-Serif" font-size="10.00">GameObject::get_x</text>
</a>
</g>
</g>
<!-- Node1&#45;&gt;Node4 -->
<g id="edge3" class="edge">
<title>Node1&#45;&gt;Node4</title>
<path fill="none" stroke="midnightblue" d="M109.29,-34.28C125.02,-30.27 142.08,-25.92 157.37,-22.02"/>
<polygon fill="midnightblue" stroke="midnightblue" points="158.29,-25.4 167.12,-19.53 156.56,-18.61 158.29,-25.4"/>
</g>
</g>
</svg>
