<?xml version="1.0" encoding="UTF-8" standalone="no"?>
<!DOCTYPE svg PUBLIC "-//W3C//DTD SVG 1.1//EN"
 "http://www.w3.org/Graphics/SVG/1.1/DTD/svg11.dtd">
<!-- Generated by graphviz version 2.43.0 (0)
 -->
<!-- Title: Bird::update Pages: 1 -->
<svg width="250pt" height="66pt"
 viewBox="0.00 0.00 250.00 66.00" xmlns="http://www.w3.org/2000/svg" xmlns:xlink="http://www.w3.org/1999/xlink">
<g id="graph0" class="graph" transform="scale(1 1) rotate(0) translate(4 62)">
<title>Bird::update</title>
<polygon fill="white" stroke="transparent" points="-4,4 -4,-62 246,-62 246,4 -4,4"/>
<!-- Node1 -->
<g id="node1" class="node">
<title>Node1</title>
<g id="a_node1"><a xlink:title="Atualiza fisica e posicao.">
<polygon fill="#bfbfbf" stroke="black" points="0,-19.5 0,-38.5 76,-38.5 76,-19.5 0,-19.5"/>
<text text-anchor="middle" x="38" y="-26.5" font-family="Helvetica,sans-Serif" font-size="10.00">Bird::update</text>
</a>
</g>
</g>
<!-- Node2 -->
<g id="node2" class="node">
<title>Node2</title>
<g id="a_node2"><a xlink:href="classBird.html#af260e4528dadc8849a349b1221d41160" target="_top" xlink:title="Atualiza coordenada by (usada na HUD ou limites).">
<polygon fill="white" stroke="black" points="140,-38.5 140,-57.5 214,-57.5 214,-38.5 140,-38.5"/>
<text text-anchor="middle" x="177" y="-45.5" font-family="Helvetica,sans-Serif" font-size="10.00">Bird::set_by</text>
</a>
</g>
</g>
<!-- Node1&#45;&gt;Node2 -->
<g id="edge1" class="edge">
<title>Node1&#45;&gt;Node2</title>
<path fill="none" stroke="midnightblue" d="M76.07,-34.14C92.64,-36.44 112.32,-39.17 129.83,-41.6"/>
<polygon fill="midnightblue" stroke="midnightblue" points="129.46,-45.08 139.84,-42.99 130.42,-38.15 129.46,-45.08"/>
</g>
<!-- Node3 -->
<g id="node3" class="node">
<title>Node3</title>
<g id="a_node3"><a xlink:href="classGameObject.html#ad94cabd831719e862ee43d9a39839215" target="_top" xlink:title="Atualiza limites inferiores (x_final, y_final) para colisão.">
<polygon fill="white" stroke="black" points="112,-0.5 112,-19.5 242,-19.5 242,-0.5 112,-0.5"/>
<text text-anchor="middle" x="177" y="-7.5" font-family="Helvetica,sans-Serif" font-size="10.00">GameObject::set_finals</text>
</a>
</g>
</g>
<!-- Node1&#45;&gt;Node3 -->
<g id="edge2" class="edge">
<title>Node1&#45;&gt;Node3</title>
<path fill="none" stroke="midnightblue" d="M76.07,-23.86C84.13,-22.74 92.94,-21.52 101.87,-20.28"/>
<polygon fill="midnightblue" stroke="midnightblue" points="102.55,-23.72 111.97,-18.88 101.59,-16.79 102.55,-23.72"/>
</g>
</g>
</svg>
