<?xml version="1.0" encoding="UTF-8" standalone="no"?>
<!DOCTYPE svg PUBLIC "-//W3C//DTD SVG 1.1//EN"
 "http://www.w3.org/Graphics/SVG/1.1/DTD/svg11.dtd">
<!-- Generated by graphviz version 2.43.0 (0)
 -->
<!-- Title: Motion::update Pages: 1 -->
<svg width="278pt" height="218pt"
 viewBox="0.00 0.00 278.00 218.00" xmlns="http://www.w3.org/2000/svg" xmlns:xlink="http://www.w3.org/1999/xlink">
<g id="graph0" class="graph" transform="scale(1 1) rotate(0) translate(4 214)">
<title>Motion::update</title>
<polygon fill="white" stroke="transparent" points="-4,4 -4,-214 274,-214 274,4 -4,4"/>
<!-- Node1 -->
<g id="node1" class="node">
<title>Node1</title>
<g id="a_node1"><a xlink:title="Atualiza posições dos elementos de background conforme cenário.">
<polygon fill="#bfbfbf" stroke="black" points="180,-95.5 180,-114.5 270,-114.5 270,-95.5 180,-95.5"/>
<text text-anchor="middle" x="225" y="-102.5" font-family="Helvetica,sans-Serif" font-size="10.00">Motion::update</text>
</a>
</g>
</g>
<!-- Node2 -->
<g id="node2" class="node">
<title>Node2</title>
<g id="a_node2"><a xlink:href="classDifficultyMenu.html#a024907d1a77fef3b969a90dc2cc2f26f" target="_top" xlink:title="Atualiza a lógica do estado a cada quadro.">
<polygon fill="white" stroke="black" points="8,-190.5 8,-209.5 136,-209.5 136,-190.5 8,-190.5"/>
<text text-anchor="middle" x="72" y="-197.5" font-family="Helvetica,sans-Serif" font-size="10.00">DifficultyMenu::update</text>
</a>
</g>
</g>
<!-- Node1&#45;&gt;Node2 -->
<g id="edge1" class="edge">
<title>Node1&#45;&gt;Node2</title>
<path fill="none" stroke="midnightblue" d="M209.99,-122.7C195.33,-140.05 170.76,-166.01 144,-181 137.1,-184.87 129.37,-187.97 121.63,-190.46"/>
<polygon fill="midnightblue" stroke="midnightblue" points="213.07,-124.46 216.72,-114.51 207.66,-120.02 213.07,-124.46"/>
</g>
<!-- Node3 -->
<g id="node3" class="node">
<title>Node3</title>
<g id="a_node3"><a xlink:href="classLeaderboardMenu.html#a8e73c70836903711bc8599b8780be61b" target="_top" xlink:title="Atualiza a lógica do estado do movimento/animação do fundo.">
<polygon fill="white" stroke="black" points="0,-152.5 0,-171.5 144,-171.5 144,-152.5 0,-152.5"/>
<text text-anchor="middle" x="72" y="-159.5" font-family="Helvetica,sans-Serif" font-size="10.00">LeaderboardMenu::update</text>
</a>
</g>
</g>
<!-- Node1&#45;&gt;Node3 -->
<g id="edge2" class="edge">
<title>Node1&#45;&gt;Node3</title>
<path fill="none" stroke="midnightblue" d="M197.38,-119.14C182.07,-126.9 162.28,-136.27 144,-143 134.42,-146.52 123.89,-149.7 113.95,-152.4"/>
<polygon fill="midnightblue" stroke="midnightblue" points="199,-122.25 206.29,-114.56 195.8,-116.02 199,-122.25"/>
</g>
<!-- Node4 -->
<g id="node4" class="node">
<title>Node4</title>
<g id="a_node4"><a xlink:href="classLoadName.html#a7eae3d9938449ae7c1f43b0261f62293" target="_top" xlink:title="Atualiza a lógica do estado do movimento/animação de fundo a cada quadro.">
<polygon fill="white" stroke="black" points="17.5,-114.5 17.5,-133.5 126.5,-133.5 126.5,-114.5 17.5,-114.5"/>
<text text-anchor="middle" x="72" y="-121.5" font-family="Helvetica,sans-Serif" font-size="10.00">LoadName::update</text>
</a>
</g>
</g>
<!-- Node1&#45;&gt;Node4 -->
<g id="edge3" class="edge">
<title>Node1&#45;&gt;Node4</title>
<path fill="none" stroke="midnightblue" d="M169.87,-111.81C155.77,-113.59 140.58,-115.5 126.5,-117.27"/>
<polygon fill="midnightblue" stroke="midnightblue" points="170.43,-115.27 179.92,-110.55 169.56,-108.32 170.43,-115.27"/>
</g>
<!-- Node5 -->
<g id="node5" class="node">
<title>Node5</title>
<g id="a_node5"><a xlink:href="classMainMenu.html#a00df3d6357e26f276850cc02e5a9cc46" target="_top" xlink:title="Atualiza a lógica do estado do movimento/animação de fundo a cada quadro.">
<polygon fill="white" stroke="black" points="18.5,-76.5 18.5,-95.5 125.5,-95.5 125.5,-76.5 18.5,-76.5"/>
<text text-anchor="middle" x="72" y="-83.5" font-family="Helvetica,sans-Serif" font-size="10.00">MainMenu::update</text>
</a>
</g>
</g>
<!-- Node1&#45;&gt;Node5 -->
<g id="edge4" class="edge">
<title>Node1&#45;&gt;Node5</title>
<path fill="none" stroke="midnightblue" d="M169.71,-98.17C155.38,-96.37 139.93,-94.42 125.68,-92.63"/>
<polygon fill="midnightblue" stroke="midnightblue" points="169.56,-101.68 179.92,-99.45 170.43,-94.73 169.56,-101.68"/>
</g>
<!-- Node6 -->
<g id="node6" class="node">
<title>Node6</title>
<g id="a_node6"><a xlink:href="classPlay.html#a5315ef30e6e278d20cc07c5fc5e07bdf" target="_top" xlink:title="Atualiza simulacao do jogo.">
<polygon fill="white" stroke="black" points="33.5,-38.5 33.5,-57.5 110.5,-57.5 110.5,-38.5 33.5,-38.5"/>
<text text-anchor="middle" x="72" y="-45.5" font-family="Helvetica,sans-Serif" font-size="10.00">Play::update</text>
</a>
</g>
</g>
<!-- Node1&#45;&gt;Node6 -->
<g id="edge5" class="edge">
<title>Node1&#45;&gt;Node6</title>
<path fill="none" stroke="midnightblue" d="M197.38,-90.86C182.07,-83.1 162.28,-73.73 144,-67 133.34,-63.08 121.51,-59.59 110.62,-56.7"/>
<polygon fill="midnightblue" stroke="midnightblue" points="195.8,-93.98 206.29,-95.44 199,-87.75 195.8,-93.98"/>
</g>
<!-- Node7 -->
<g id="node7" class="node">
<title>Node7</title>
<g id="a_node7"><a xlink:href="classSettingsMenu.html#af8a41c0862665063f23d8b3806cd1f40" target="_top" xlink:title="Atualiza a lógica do estado de movimento/animação de fundo.">
<polygon fill="white" stroke="black" points="10.5,-0.5 10.5,-19.5 133.5,-19.5 133.5,-0.5 10.5,-0.5"/>
<text text-anchor="middle" x="72" y="-7.5" font-family="Helvetica,sans-Serif" font-size="10.00">SettingsMenu::update</text>
</a>
</g>
</g>
<!-- Node1&#45;&gt;Node7 -->
<g id="edge6" class="edge">
<title>Node1&#45;&gt;Node7</title>
<path fill="none" stroke="midnightblue" d="M209.99,-87.3C195.33,-69.95 170.76,-43.99 144,-29 137.1,-25.13 129.37,-22.03 121.63,-19.54"/>
<polygon fill="midnightblue" stroke="midnightblue" points="207.66,-89.98 216.72,-95.49 213.07,-85.54 207.66,-89.98"/>
</g>
</g>
</svg>
