<?xml version="1.0" encoding="UTF-8" standalone="no"?>
<!DOCTYPE svg PUBLIC "-//W3C//DTD SVG 1.1//EN"
 "http://www.w3.org/Graphics/SVG/1.1/DTD/svg11.dtd">
<!-- Generated by graphviz version 2.43.0 (0)
 -->
<!-- Title: AllegroController Pages: 1 -->
<svg width="243pt" height="219pt"
 viewBox="0.00 0.00 243.00 219.00" xmlns="http://www.w3.org/2000/svg" xmlns:xlink="http://www.w3.org/1999/xlink">
<g id="graph0" class="graph" transform="scale(1 1) rotate(0) translate(4 215)">
<title>AllegroController</title>
<polygon fill="white" stroke="transparent" points="-4,4 -4,-215 239,-215 239,4 -4,4"/>
<!-- Node1 -->
<g id="node1" class="node">
<title>Node1</title>
<g id="a_node1"><a xlink:title="Gerencia display, eventos e transições de estados do jogo.">
<polygon fill="#bfbfbf" stroke="black" points="66,-0.5 66,-19.5 165,-19.5 165,-0.5 66,-0.5"/>
<text text-anchor="middle" x="115.5" y="-7.5" font-family="Helvetica,sans-Serif" font-size="10.00">AllegroController</text>
</a>
</g>
</g>
<!-- Node2 -->
<g id="node2" class="node">
<title>Node2</title>
<g id="a_node2"><a xlink:href="classFlappyBird.html" target="_top" xlink:title="Controlador principal do jogo: orquestra objetos, HUD, pontuação e fluxo de estados.">
<polygon fill="white" stroke="black" points="81,-67.5 81,-86.5 150,-86.5 150,-67.5 81,-67.5"/>
<text text-anchor="middle" x="115.5" y="-74.5" font-family="Helvetica,sans-Serif" font-size="10.00">FlappyBird</text>
</a>
</g>
</g>
<!-- Node2&#45;&gt;Node1 -->
<g id="edge1" class="edge">
<title>Node2&#45;&gt;Node1</title>
<path fill="none" stroke="#9a32cd" stroke-dasharray="5,2" d="M115.5,-57.04C115.5,-44.67 115.5,-29.12 115.5,-19.63"/>
<polygon fill="#9a32cd" stroke="#9a32cd" points="112,-57.23 115.5,-67.23 119,-57.23 112,-57.23"/>
<text text-anchor="middle" x="131" y="-41" font-family="Helvetica,sans-Serif" font-size="10.00"> game</text>
</g>
<!-- Node3 -->
<g id="node3" class="node">
<title>Node3</title>
<g id="a_node3"><a xlink:href="classBird.html" target="_top" xlink:title="Personagem controlável: gerencia movimento, animação de asas, pulo e detecção de colisões.">
<polygon fill="white" stroke="black" points="20.5,-134.5 20.5,-153.5 56.5,-153.5 56.5,-134.5 20.5,-134.5"/>
<text text-anchor="middle" x="38.5" y="-141.5" font-family="Helvetica,sans-Serif" font-size="10.00">Bird</text>
</a>
</g>
</g>
<!-- Node3&#45;&gt;Node2 -->
<g id="edge2" class="edge">
<title>Node3&#45;&gt;Node2</title>
<path fill="none" stroke="#9a32cd" stroke-dasharray="5,2" d="M44.52,-125.05C47.55,-118.11 51.82,-110.53 57.5,-105 65.86,-96.87 77.12,-90.87 87.49,-86.61"/>
<polygon fill="#9a32cd" stroke="#9a32cd" points="41.24,-123.86 40.94,-134.45 47.78,-126.35 41.24,-123.86"/>
<text text-anchor="middle" x="84.5" y="-108" font-family="Helvetica,sans-Serif" font-size="10.00"> flappy_obj</text>
</g>
<!-- Node4 -->
<g id="node4" class="node">
<title>Node4</title>
<g id="a_node4"><a xlink:href="classGameObject.html" target="_top" xlink:title="Objeto genérico do jogo contendo posição, sprite e hitbox.">
<polygon fill="white" stroke="black" points="0,-191.5 0,-210.5 77,-210.5 77,-191.5 0,-191.5"/>
<text text-anchor="middle" x="38.5" y="-198.5" font-family="Helvetica,sans-Serif" font-size="10.00">GameObject</text>
</a>
</g>
</g>
<!-- Node4&#45;&gt;Node3 -->
<g id="edge3" class="edge">
<title>Node4&#45;&gt;Node3</title>
<path fill="none" stroke="midnightblue" d="M38.5,-181.12C38.5,-171.82 38.5,-161.06 38.5,-153.71"/>
<polygon fill="midnightblue" stroke="midnightblue" points="35,-181.41 38.5,-191.41 42,-181.41 35,-181.41"/>
</g>
<!-- Node5 -->
<g id="node5" class="node">
<title>Node5</title>
<g id="a_node5"><a xlink:href="classPlayer.html" target="_top" xlink:title="Armazena nome e pontuação e provê utilidades para ranking.">
<polygon fill="white" stroke="black" points="92,-134.5 92,-153.5 139,-153.5 139,-134.5 92,-134.5"/>
<text text-anchor="middle" x="115.5" y="-141.5" font-family="Helvetica,sans-Serif" font-size="10.00">Player</text>
</a>
</g>
</g>
<!-- Node5&#45;&gt;Node2 -->
<g id="edge4" class="edge">
<title>Node5&#45;&gt;Node2</title>
<path fill="none" stroke="#9a32cd" stroke-dasharray="5,2" d="M115.5,-124.04C115.5,-111.67 115.5,-96.12 115.5,-86.63"/>
<polygon fill="#9a32cd" stroke="#9a32cd" points="112,-124.23 115.5,-134.23 119,-124.23 112,-124.23"/>
<text text-anchor="middle" x="150" y="-108" font-family="Helvetica,sans-Serif" font-size="10.00"> currentPlayer</text>
</g>
<!-- Node6 -->
<g id="node6" class="node">
<title>Node6</title>
<g id="a_node6"><a xlink:href="classPipeList.html" target="_top" xlink:title="Gerencia vetor de PipePair: spawn, atualização, colisão e score.">
<polygon fill="white" stroke="black" points="180,-134.5 180,-153.5 235,-153.5 235,-134.5 180,-134.5"/>
<text text-anchor="middle" x="207.5" y="-141.5" font-family="Helvetica,sans-Serif" font-size="10.00">PipeList</text>
</a>
</g>
</g>
<!-- Node6&#45;&gt;Node2 -->
<g id="edge5" class="edge">
<title>Node6&#45;&gt;Node2</title>
<path fill="none" stroke="#9a32cd" stroke-dasharray="5,2" d="M200.17,-124.85C196.61,-117.88 191.73,-110.32 185.5,-105 175.4,-96.37 162.23,-90.33 150.05,-86.19"/>
<polygon fill="#9a32cd" stroke="#9a32cd" points="197.14,-126.65 204.45,-134.32 203.52,-123.77 197.14,-126.65"/>
<text text-anchor="middle" x="214.5" y="-108" font-family="Helvetica,sans-Serif" font-size="10.00"> pipelist</text>
</g>
</g>
</svg>
