<?xml version="1.0" encoding="UTF-8" standalone="no"?>
<!DOCTYPE svg PUBLIC "-//W3C//DTD SVG 1.1//EN"
 "http://www.w3.org/Graphics/SVG/1.1/DTD/svg11.dtd">
<!-- Generated by graphviz version 2.43.0 (0)
 -->
<!-- Title: FlappyBird::check_collisions Pages: 1 -->
<svg width="529pt" height="122pt"
 viewBox="0.00 0.00 529.00 121.50" xmlns="http://www.w3.org/2000/svg" xmlns:xlink="http://www.w3.org/1999/xlink">
<g id="graph0" class="graph" transform="scale(1 1) rotate(0) translate(4 117.5)">
<title>FlappyBird::check_collisions</title>
<polygon fill="white" stroke="transparent" points="-4,4 -4,-117.5 525,-117.5 525,4 -4,4"/>
<!-- Node1 -->
<g id="node1" class="node">
<title>Node1</title>
<g id="a_node1"><a xlink:title="Verifica colisao entre passaro, limites ou canos.">
<polygon fill="#bfbfbf" stroke="black" points="0,-44.5 0,-63.5 155,-63.5 155,-44.5 0,-44.5"/>
<text text-anchor="middle" x="77.5" y="-51.5" font-family="Helvetica,sans-Serif" font-size="10.00">FlappyBird::check_collisions</text>
</a>
</g>
</g>
<!-- Node2 -->
<g id="node2" class="node">
<title>Node2</title>
<g id="a_node2"><a xlink:href="classPipeList.html#a993d7ac941ceba1eff657032df7e8fd4" target="_top" xlink:title="Check bird collision against any pipe.">
<polygon fill="white" stroke="black" points="202.5,-88.5 202.5,-107.5 337.5,-107.5 337.5,-88.5 202.5,-88.5"/>
<text text-anchor="middle" x="270" y="-95.5" font-family="Helvetica,sans-Serif" font-size="10.00">PipeList::check_collision</text>
</a>
</g>
</g>
<!-- Node1&#45;&gt;Node2 -->
<g id="edge1" class="edge">
<title>Node1&#45;&gt;Node2</title>
<path fill="none" stroke="midnightblue" d="M119.84,-63.55C148.54,-70.18 186.99,-79.06 217.67,-86.14"/>
<polygon fill="midnightblue" stroke="midnightblue" points="217.21,-89.63 227.75,-88.47 218.79,-82.81 217.21,-89.63"/>
</g>
<!-- Node4 -->
<g id="node4" class="node">
<title>Node4</title>
<g id="a_node4"><a xlink:href="classGameObject.html#a87de78d5ae334c22f45efb34f16a3b7f" target="_top" xlink:title="Detecta colisão do objeto com o teto ou chão da tela.">
<polygon fill="white" stroke="black" points="191,-39 191,-69 349,-69 349,-39 191,-39"/>
<text text-anchor="start" x="199" y="-57" font-family="Helvetica,sans-Serif" font-size="10.00">GameObject::check_collision</text>
<text text-anchor="middle" x="270" y="-46" font-family="Helvetica,sans-Serif" font-size="10.00">_with_boundaries</text>
</a>
</g>
</g>
<!-- Node1&#45;&gt;Node4 -->
<g id="edge3" class="edge">
<title>Node1&#45;&gt;Node4</title>
<path fill="none" stroke="midnightblue" d="M155.16,-54C163.63,-54 172.31,-54 180.9,-54"/>
<polygon fill="midnightblue" stroke="midnightblue" points="180.94,-57.5 190.94,-54 180.94,-50.5 180.94,-57.5"/>
</g>
<!-- Node5 -->
<g id="node5" class="node">
<title>Node5</title>
<g id="a_node5"><a xlink:href="classBird.html#a567645317bcf90078d9cad97cadfc1ec" target="_top" xlink:title="Habilita/desabilita animacao apos colisao.">
<polygon fill="white" stroke="black" points="225,-0.5 225,-19.5 315,-19.5 315,-0.5 225,-0.5"/>
<text text-anchor="middle" x="270" y="-7.5" font-family="Helvetica,sans-Serif" font-size="10.00">Bird::set_break</text>
</a>
</g>
</g>
<!-- Node1&#45;&gt;Node5 -->
<g id="edge4" class="edge">
<title>Node1&#45;&gt;Node5</title>
<path fill="none" stroke="midnightblue" d="M119.84,-44.45C148.54,-37.82 186.99,-28.94 217.67,-21.86"/>
<polygon fill="midnightblue" stroke="midnightblue" points="218.79,-25.19 227.75,-19.53 217.21,-18.37 218.79,-25.19"/>
</g>
<!-- Node3 -->
<g id="node3" class="node">
<title>Node3</title>
<g id="a_node3"><a xlink:href="classGameObject.html#a55ee46cc9cd076b01fa26b6de065c9e3" target="_top" xlink:title="Verifica colisão entre este objeto e outro.">
<polygon fill="white" stroke="black" points="385,-83 385,-113 521,-113 521,-83 385,-83"/>
<text text-anchor="start" x="393" y="-101" font-family="Helvetica,sans-Serif" font-size="10.00">GameObject::check_bird</text>
<text text-anchor="middle" x="453" y="-90" font-family="Helvetica,sans-Serif" font-size="10.00">_collision</text>
</a>
</g>
</g>
<!-- Node2&#45;&gt;Node3 -->
<g id="edge2" class="edge">
<title>Node2&#45;&gt;Node3</title>
<path fill="none" stroke="midnightblue" d="M337.63,-98C349.68,-98 362.33,-98 374.66,-98"/>
<polygon fill="midnightblue" stroke="midnightblue" points="374.91,-101.5 384.91,-98 374.91,-94.5 374.91,-101.5"/>
</g>
</g>
</svg>
