<?xml version="1.0" encoding="UTF-8" standalone="no"?>
<!DOCTYPE svg PUBLIC "-//W3C//DTD SVG 1.1//EN"
 "http://www.w3.org/Graphics/SVG/1.1/DTD/svg11.dtd">
<!-- Generated by graphviz version 2.43.0 (0)
 -->
<!-- Title: Player::GetName Pages: 1 -->
<svg width="282pt" height="66pt"
 viewBox="0.00 0.00 282.00 66.00" xmlns="http://www.w3.org/2000/svg" xmlns:xlink="http://www.w3.org/1999/xlink">
<g id="graph0" class="graph" transform="scale(1 1) rotate(0) translate(4 62)">
<title>Player::GetName</title>
<polygon fill="white" stroke="transparent" points="-4,4 -4,-62 278,-62 278,4 -4,4"/>
<!-- Node1 -->
<g id="node1" class="node">
<title>Node1</title>
<g id="a_node1"><a xlink:title="Retorna o nome do jogador.">
<polygon fill="#bfbfbf" stroke="black" points="174,-19.5 174,-38.5 274,-38.5 274,-19.5 174,-19.5"/>
<text text-anchor="middle" x="224" y="-26.5" font-family="Helvetica,sans-Serif" font-size="10.00">Player::GetName</text>
</a>
</g>
</g>
<!-- Node2 -->
<g id="node2" class="node">
<title>Node2</title>
<g id="a_node2"><a xlink:href="player_8cpp.html#a188ce17516b9903d7097b8a0f7643538" target="_top" xlink:title="Sobrecarga de operador de streaming para debug.">
<polygon fill="white" stroke="black" points="32,-38.5 32,-57.5 106,-57.5 106,-38.5 32,-38.5"/>
<text text-anchor="middle" x="69" y="-45.5" font-family="Helvetica,sans-Serif" font-size="10.00">operator&lt;&lt;</text>
</a>
</g>
</g>
<!-- Node1&#45;&gt;Node2 -->
<g id="edge1" class="edge">
<title>Node1&#45;&gt;Node2</title>
<path fill="none" stroke="midnightblue" d="M163.74,-36.36C144.29,-38.77 123.26,-41.39 106.06,-43.52"/>
<polygon fill="midnightblue" stroke="midnightblue" points="164.26,-39.82 173.75,-35.12 163.39,-32.88 164.26,-39.82"/>
</g>
<!-- Node3 -->
<g id="node3" class="node">
<title>Node3</title>
<g id="a_node3"><a xlink:href="classPlayer.html#aa1d3822725ad3678fde7a4de91887277" target="_top" xlink:title="Salva ranking adicionando ou atualizando um jogador.">
<polygon fill="white" stroke="black" points="0,-0.5 0,-19.5 138,-19.5 138,-0.5 0,-0.5"/>
<text text-anchor="middle" x="69" y="-7.5" font-family="Helvetica,sans-Serif" font-size="10.00">Player::SaveLeaderboard</text>
</a>
</g>
</g>
<!-- Node1&#45;&gt;Node3 -->
<g id="edge2" class="edge">
<title>Node1&#45;&gt;Node3</title>
<path fill="none" stroke="midnightblue" d="M163.7,-21.64C155.32,-20.59 146.64,-19.52 138.11,-18.46"/>
<polygon fill="midnightblue" stroke="midnightblue" points="163.39,-25.12 173.75,-22.88 164.26,-18.18 163.39,-25.12"/>
</g>
</g>
</svg>
