<?xml version="1.0" encoding="UTF-8" standalone="no"?>
<!DOCTYPE svg PUBLIC "-//W3C//DTD SVG 1.1//EN"
 "http://www.w3.org/Graphics/SVG/1.1/DTD/svg11.dtd">
<!-- Generated by graphviz version 2.43.0 (0)
 -->
<!-- Title: LoadName::handle_input Pages: 1 -->
<svg width="320pt" height="66pt"
 viewBox="0.00 0.00 320.00 66.00" xmlns="http://www.w3.org/2000/svg" xmlns:xlink="http://www.w3.org/1999/xlink">
<g id="graph0" class="graph" transform="scale(1 1) rotate(0) translate(4 62)">
<title>LoadName::handle_input</title>
<polygon fill="white" stroke="transparent" points="-4,4 -4,-62 316,-62 316,4 -4,4"/>
<!-- Node1 -->
<g id="node1" class="node">
<title>Node1</title>
<g id="a_node1"><a xlink:title="Gerencia toda a entrada de teclado do usuário.">
<polygon fill="#bfbfbf" stroke="black" points="0,-19.5 0,-38.5 138,-38.5 138,-19.5 0,-19.5"/>
<text text-anchor="middle" x="69" y="-26.5" font-family="Helvetica,sans-Serif" font-size="10.00">LoadName::handle_input</text>
</a>
</g>
</g>
<!-- Node2 -->
<g id="node2" class="node">
<title>Node2</title>
<g id="a_node2"><a xlink:href="classPlayer.html#aeca0931abbc8d5333a8dbbd500d2359b" target="_top" xlink:title="Verifica se um nome já existe no ranking.">
<polygon fill="white" stroke="black" points="179,-38.5 179,-57.5 307,-57.5 307,-38.5 179,-38.5"/>
<text text-anchor="middle" x="243" y="-45.5" font-family="Helvetica,sans-Serif" font-size="10.00">Player::CheckingName</text>
</a>
</g>
</g>
<!-- Node1&#45;&gt;Node2 -->
<g id="edge1" class="edge">
<title>Node1&#45;&gt;Node2</title>
<path fill="none" stroke="midnightblue" d="M138.47,-36.56C148.45,-37.67 158.76,-38.8 168.82,-39.92"/>
<polygon fill="midnightblue" stroke="midnightblue" points="168.46,-43.4 178.79,-41.02 169.23,-36.44 168.46,-43.4"/>
</g>
<!-- Node3 -->
<g id="node3" class="node">
<title>Node3</title>
<g id="a_node3"><a xlink:href="classPlayer.html#a1b05c0a0131a430ed63cc7c3c2cd99e2" target="_top" xlink:title="Salva lista de jogadores no arquivo, sobrescrevendo conteúdo.">
<polygon fill="white" stroke="black" points="174,-0.5 174,-19.5 312,-19.5 312,-0.5 174,-0.5"/>
<text text-anchor="middle" x="243" y="-7.5" font-family="Helvetica,sans-Serif" font-size="10.00">Player::SaveLeaderboard</text>
</a>
</g>
</g>
<!-- Node1&#45;&gt;Node3 -->
<g id="edge2" class="edge">
<title>Node1&#45;&gt;Node3</title>
<path fill="none" stroke="midnightblue" d="M138.47,-21.44C146.73,-20.52 155.22,-19.59 163.6,-18.66"/>
<polygon fill="midnightblue" stroke="midnightblue" points="164.21,-22.11 173.76,-17.54 163.44,-15.16 164.21,-22.11"/>
</g>
</g>
</svg>
