<?xml version="1.0" encoding="UTF-8" standalone="no"?>
<!DOCTYPE svg PUBLIC "-//W3C//DTD SVG 1.1//EN"
 "http://www.w3.org/Graphics/SVG/1.1/DTD/svg11.dtd">
<!-- Generated by graphviz version 2.43.0 (0)
 -->
<!-- Title: FlappyBird::update Pages: 1 -->
<svg width="441pt" height="329pt"
 viewBox="0.00 0.00 441.00 328.50" xmlns="http://www.w3.org/2000/svg" xmlns:xlink="http://www.w3.org/1999/xlink">
<g id="graph0" class="graph" transform="scale(1 1) rotate(0) translate(4 324.5)">
<title>FlappyBird::update</title>
<polygon fill="white" stroke="transparent" points="-4,4 -4,-324.5 437,-324.5 437,4 -4,4"/>
<!-- Node1 -->
<g id="node1" class="node">
<title>Node1</title>
<g id="a_node1"><a xlink:title="Atualiza logica principal (estado, objetos, pipes).">
<polygon fill="#bfbfbf" stroke="black" points="0,-136.5 0,-155.5 109,-155.5 109,-136.5 0,-136.5"/>
<text text-anchor="middle" x="54.5" y="-143.5" font-family="Helvetica,sans-Serif" font-size="10.00">FlappyBird::update</text>
</a>
</g>
</g>
<!-- Node2 -->
<g id="node2" class="node">
<title>Node2</title>
<g id="a_node2"><a xlink:href="classFlappyBird.html#aa01d41a7f7d403671d958f422e8788eb" target="_top" xlink:title="Aumenta velocidade conforme pontuacao.">
<polygon fill="white" stroke="black" points="145,-290 145,-320 255,-320 255,-290 145,-290"/>
<text text-anchor="start" x="153" y="-308" font-family="Helvetica,sans-Serif" font-size="10.00">FlappyBird::change</text>
<text text-anchor="middle" x="200" y="-297" font-family="Helvetica,sans-Serif" font-size="10.00">_velocity</text>
</a>
</g>
</g>
<!-- Node1&#45;&gt;Node2 -->
<g id="edge1" class="edge">
<title>Node1&#45;&gt;Node2</title>
<path fill="none" stroke="midnightblue" d="M59.5,-155.51C70.07,-179.6 100.98,-243.78 145,-281 146.5,-282.27 148.07,-283.48 149.71,-284.64"/>
<polygon fill="midnightblue" stroke="midnightblue" points="147.93,-287.65 158.26,-289.98 151.63,-281.71 147.93,-287.65"/>
</g>
<!-- Node3 -->
<g id="node3" class="node">
<title>Node3</title>
<g id="a_node3"><a xlink:href="classFlappyBird.html#a4984ed1f498df20ac647f427fae92e5d" target="_top" xlink:title="Adiciona / remove canos conforme necessidade.">
<polygon fill="white" stroke="black" points="145.5,-241 145.5,-271 254.5,-271 254.5,-241 145.5,-241"/>
<text text-anchor="start" x="153.5" y="-259" font-family="Helvetica,sans-Serif" font-size="10.00">FlappyBird::control</text>
<text text-anchor="middle" x="200" y="-248" font-family="Helvetica,sans-Serif" font-size="10.00">_pipes</text>
</a>
</g>
</g>
<!-- Node1&#45;&gt;Node3 -->
<g id="edge2" class="edge">
<title>Node1&#45;&gt;Node3</title>
<path fill="none" stroke="midnightblue" d="M64.83,-155.63C80.48,-171.48 113.41,-203.53 145,-226 149.81,-229.42 155.06,-232.76 160.32,-235.9"/>
<polygon fill="midnightblue" stroke="midnightblue" points="158.72,-239.01 169.13,-240.95 162.2,-232.94 158.72,-239.01"/>
</g>
<!-- Node6 -->
<g id="node6" class="node">
<title>Node6</title>
<g id="a_node6"><a xlink:href="classGameObject.html#a5d5fbd225b26550e9ace43672184e50b" target="_top" xlink:title="Obtém coordenada X.">
<polygon fill="white" stroke="black" points="307,-200.5 307,-219.5 417,-219.5 417,-200.5 307,-200.5"/>
<text text-anchor="middle" x="362" y="-207.5" font-family="Helvetica,sans-Serif" font-size="10.00">GameObject::get_x</text>
</a>
</g>
</g>
<!-- Node1&#45;&gt;Node6 -->
<g id="edge5" class="edge">
<title>Node1&#45;&gt;Node6</title>
<path fill="none" stroke="midnightblue" d="M69.31,-155.55C86.27,-166.71 116.33,-184.72 145,-193 194.52,-207.3 252.9,-211.16 296.48,-211.66"/>
<polygon fill="midnightblue" stroke="midnightblue" points="296.64,-215.16 306.67,-211.72 296.69,-208.16 296.64,-215.16"/>
</g>
<!-- Node7 -->
<g id="node7" class="node">
<title>Node7</title>
<g id="a_node7"><a xlink:href="classPipeList.html#a6a9ef3aaee030f0ff01c21121c549a24" target="_top" xlink:title="Begin spawning logic (first call after game starts).">
<polygon fill="white" stroke="black" points="148,-114.5 148,-133.5 252,-133.5 252,-114.5 148,-114.5"/>
<text text-anchor="middle" x="200" y="-121.5" font-family="Helvetica,sans-Serif" font-size="10.00">PipeList::set_start</text>
</a>
</g>
</g>
<!-- Node1&#45;&gt;Node7 -->
<g id="edge6" class="edge">
<title>Node1&#45;&gt;Node7</title>
<path fill="none" stroke="midnightblue" d="M109.34,-137.75C118.57,-136.33 128.22,-134.85 137.63,-133.41"/>
<polygon fill="midnightblue" stroke="midnightblue" points="138.35,-136.84 147.71,-131.86 137.29,-129.92 138.35,-136.84"/>
</g>
<!-- Node8 -->
<g id="node8" class="node">
<title>Node8</title>
<g id="a_node8"><a xlink:href="classPipeList.html#a1c8417430dd4a796ccc25481c0c1139d" target="_top" xlink:title="Set uniform horizontal velocity for all pipes.">
<polygon fill="white" stroke="black" points="153.5,-76.5 153.5,-95.5 246.5,-95.5 246.5,-76.5 153.5,-76.5"/>
<text text-anchor="middle" x="200" y="-83.5" font-family="Helvetica,sans-Serif" font-size="10.00">PipeList::set_vx</text>
</a>
</g>
</g>
<!-- Node1&#45;&gt;Node8 -->
<g id="edge7" class="edge">
<title>Node1&#45;&gt;Node8</title>
<path fill="none" stroke="midnightblue" d="M75.18,-136.36C93.17,-127.69 120.6,-114.86 145,-105 150.07,-102.95 155.45,-100.91 160.78,-98.96"/>
<polygon fill="midnightblue" stroke="midnightblue" points="162,-102.24 170.23,-95.58 159.64,-95.65 162,-102.24"/>
</g>
<!-- Node9 -->
<g id="node9" class="node">
<title>Node9</title>
<g id="a_node9"><a xlink:href="classBird.html#ae2718aad2ef1de73e399482ab6068324" target="_top" xlink:title="Atualiza fisica e posicao.">
<polygon fill="white" stroke="black" points="162,-38.5 162,-57.5 238,-57.5 238,-38.5 162,-38.5"/>
<text text-anchor="middle" x="200" y="-45.5" font-family="Helvetica,sans-Serif" font-size="10.00">Bird::update</text>
</a>
</g>
</g>
<!-- Node1&#45;&gt;Node9 -->
<g id="edge8" class="edge">
<title>Node1&#45;&gt;Node9</title>
<path fill="none" stroke="midnightblue" d="M63.98,-136.41C78.88,-120.08 111.4,-86.72 145,-67 148.47,-64.96 152.19,-63.1 156,-61.4"/>
<polygon fill="midnightblue" stroke="midnightblue" points="157.6,-64.52 165.55,-57.51 154.96,-58.04 157.6,-64.52"/>
</g>
<!-- Node12 -->
<g id="node12" class="node">
<title>Node12</title>
<g id="a_node12"><a xlink:href="classPipeList.html#ad8b071b9187819c0d3d38f22452d6db0" target="_top" xlink:title="Update positions of all pipes and handle vertical motion.">
<polygon fill="white" stroke="black" points="152.5,-0.5 152.5,-19.5 247.5,-19.5 247.5,-0.5 152.5,-0.5"/>
<text text-anchor="middle" x="200" y="-7.5" font-family="Helvetica,sans-Serif" font-size="10.00">PipeList::update</text>
</a>
</g>
</g>
<!-- Node1&#45;&gt;Node12 -->
<g id="edge11" class="edge">
<title>Node1&#45;&gt;Node12</title>
<path fill="none" stroke="midnightblue" d="M60.36,-136.3C71.95,-114.11 103.41,-59.2 145,-29 147.53,-27.16 150.26,-25.49 153.09,-23.97"/>
<polygon fill="midnightblue" stroke="midnightblue" points="154.83,-27.02 162.41,-19.61 151.86,-20.68 154.83,-27.02"/>
</g>
<!-- Node13 -->
<g id="node13" class="node">
<title>Node13</title>
<g id="a_node13"><a xlink:href="classFlappyBird.html#a4458c5b09023ad145b787be7aea53605" target="_top" xlink:title="Atualiza pontuacao quando passaro passa canos.">
<polygon fill="white" stroke="black" points="145.5,-153 145.5,-183 254.5,-183 254.5,-153 145.5,-153"/>
<text text-anchor="start" x="153.5" y="-171" font-family="Helvetica,sans-Serif" font-size="10.00">FlappyBird::update</text>
<text text-anchor="middle" x="200" y="-160" font-family="Helvetica,sans-Serif" font-size="10.00">_score</text>
</a>
</g>
</g>
<!-- Node1&#45;&gt;Node13 -->
<g id="edge12" class="edge">
<title>Node1&#45;&gt;Node13</title>
<path fill="none" stroke="midnightblue" d="M109.34,-154.25C117.8,-155.55 126.62,-156.9 135.27,-158.23"/>
<polygon fill="midnightblue" stroke="midnightblue" points="134.92,-161.72 145.33,-159.77 135.98,-154.8 134.92,-161.72"/>
</g>
<!-- Node4 -->
<g id="node4" class="node">
<title>Node4</title>
<g id="a_node4"><a xlink:href="classPipeList.html#a3fa0a58e8017e08d80a5b9cabbff7385" target="_top" xlink:title="Spawn a new pair if gap condition is satisfied.">
<polygon fill="white" stroke="black" points="297.5,-280.5 297.5,-299.5 426.5,-299.5 426.5,-280.5 297.5,-280.5"/>
<text text-anchor="middle" x="362" y="-287.5" font-family="Helvetica,sans-Serif" font-size="10.00">PipeList::add_pipe_pair</text>
</a>
</g>
</g>
<!-- Node3&#45;&gt;Node4 -->
<g id="edge3" class="edge">
<title>Node3&#45;&gt;Node4</title>
<path fill="none" stroke="midnightblue" d="M254.72,-267.42C271.26,-270.93 289.49,-274.8 306.11,-278.33"/>
<polygon fill="midnightblue" stroke="midnightblue" points="305.71,-281.83 316.21,-280.48 307.16,-274.98 305.71,-281.83"/>
</g>
<!-- Node5 -->
<g id="node5" class="node">
<title>Node5</title>
<g id="a_node5"><a xlink:href="classPipeList.html#ab588b7f5e210c66b0cfe754550ca4f09" target="_top" xlink:title="Remove pipes that left the screen.">
<polygon fill="white" stroke="black" points="291,-242.5 291,-261.5 433,-261.5 433,-242.5 291,-242.5"/>
<text text-anchor="middle" x="362" y="-249.5" font-family="Helvetica,sans-Serif" font-size="10.00">PipeList::delete_pipe_pair</text>
</a>
</g>
</g>
<!-- Node3&#45;&gt;Node5 -->
<g id="edge4" class="edge">
<title>Node3&#45;&gt;Node5</title>
<path fill="none" stroke="midnightblue" d="M254.72,-254.66C263.17,-254.45 272.05,-254.22 280.93,-254"/>
<polygon fill="midnightblue" stroke="midnightblue" points="281.03,-257.5 290.94,-253.75 280.85,-250.5 281.03,-257.5"/>
</g>
<!-- Node10 -->
<g id="node10" class="node">
<title>Node10</title>
<g id="a_node10"><a xlink:href="classBird.html#af260e4528dadc8849a349b1221d41160" target="_top" xlink:title="Atualiza coordenada by (usada na HUD ou limites).">
<polygon fill="white" stroke="black" points="325,-57.5 325,-76.5 399,-76.5 399,-57.5 325,-57.5"/>
<text text-anchor="middle" x="362" y="-64.5" font-family="Helvetica,sans-Serif" font-size="10.00">Bird::set_by</text>
</a>
</g>
</g>
<!-- Node9&#45;&gt;Node10 -->
<g id="edge9" class="edge">
<title>Node9&#45;&gt;Node10</title>
<path fill="none" stroke="midnightblue" d="M238.11,-52.41C260.97,-55.12 290.46,-58.62 314.83,-61.52"/>
<polygon fill="midnightblue" stroke="midnightblue" points="314.58,-65.01 324.92,-62.72 315.4,-58.06 314.58,-65.01"/>
</g>
<!-- Node11 -->
<g id="node11" class="node">
<title>Node11</title>
<g id="a_node11"><a xlink:href="classGameObject.html#ad94cabd831719e862ee43d9a39839215" target="_top" xlink:title="Atualiza limites inferiores (x_final, y_final) para colisão.">
<polygon fill="white" stroke="black" points="297,-19.5 297,-38.5 427,-38.5 427,-19.5 297,-19.5"/>
<text text-anchor="middle" x="362" y="-26.5" font-family="Helvetica,sans-Serif" font-size="10.00">GameObject::set_finals</text>
</a>
</g>
</g>
<!-- Node9&#45;&gt;Node11 -->
<g id="edge10" class="edge">
<title>Node9&#45;&gt;Node11</title>
<path fill="none" stroke="midnightblue" d="M238.11,-43.59C252.56,-41.88 269.66,-39.85 286.44,-37.85"/>
<polygon fill="midnightblue" stroke="midnightblue" points="287.3,-41.28 296.82,-36.62 286.47,-34.33 287.3,-41.28"/>
</g>
<!-- Node13&#45;&gt;Node6 -->
<g id="edge15" class="edge">
<title>Node13&#45;&gt;Node6</title>
<path fill="none" stroke="midnightblue" d="M254.72,-182.1C274.27,-187.23 296.17,-192.98 314.99,-197.92"/>
<polygon fill="midnightblue" stroke="midnightblue" points="314.24,-201.34 324.8,-200.5 316.02,-194.57 314.24,-201.34"/>
</g>
<!-- Node14 -->
<g id="node14" class="node">
<title>Node14</title>
<g id="a_node14"><a xlink:href="classPipeList.html#a05148696dde39f9b1b3bdd3154b1a67f" target="_top" xlink:title="Check if any pipe pair increments the score.">
<polygon fill="white" stroke="black" points="301.5,-159.5 301.5,-178.5 422.5,-178.5 422.5,-159.5 301.5,-159.5"/>
<text text-anchor="middle" x="362" y="-166.5" font-family="Helvetica,sans-Serif" font-size="10.00">PipeList::check_score</text>
</a>
</g>
</g>
<!-- Node13&#45;&gt;Node14 -->
<g id="edge13" class="edge">
<title>Node13&#45;&gt;Node14</title>
<path fill="none" stroke="midnightblue" d="M254.72,-168.34C266.43,-168.41 278.97,-168.49 291.2,-168.56"/>
<polygon fill="midnightblue" stroke="midnightblue" points="291.34,-172.06 301.36,-168.63 291.38,-165.06 291.34,-172.06"/>
</g>
<!-- Node15 -->
<g id="node15" class="node">
<title>Node15</title>
<g id="a_node15"><a xlink:href="classPipeList.html#a1cb8ddd5cf7c71189070d14699a26b6a" target="_top" xlink:title="Get current score.">
<polygon fill="white" stroke="black" points="306,-121.5 306,-140.5 418,-140.5 418,-121.5 306,-121.5"/>
<text text-anchor="middle" x="362" y="-128.5" font-family="Helvetica,sans-Serif" font-size="10.00">PipeList::get_points</text>
</a>
</g>
</g>
<!-- Node13&#45;&gt;Node15 -->
<g id="edge14" class="edge">
<title>Node13&#45;&gt;Node15</title>
<path fill="none" stroke="midnightblue" d="M254.72,-155.58C272.48,-151.47 292.18,-146.91 309.75,-142.85"/>
<polygon fill="midnightblue" stroke="midnightblue" points="310.86,-146.19 319.82,-140.52 309.29,-139.37 310.86,-146.19"/>
</g>
</g>
</svg>
