<?xml version="1.0" encoding="UTF-8" standalone="no"?>
<!DOCTYPE svg PUBLIC "-//W3C//DTD SVG 1.1//EN"
 "http://www.w3.org/Graphics/SVG/1.1/DTD/svg11.dtd">
<!-- Generated by graphviz version 2.43.0 (0)
 -->
<!-- Title: FlappyBird Pages: 1 -->
<svg width="243pt" height="152pt"
 viewBox="0.00 0.00 243.00 152.00" xmlns="http://www.w3.org/2000/svg" xmlns:xlink="http://www.w3.org/1999/xlink">
<g id="graph0" class="graph" transform="scale(1 1) rotate(0) translate(4 148)">
<title>FlappyBird</title>
<polygon fill="white" stroke="transparent" points="-4,4 -4,-148 239,-148 239,4 -4,4"/>
<!-- Node1 -->
<g id="node1" class="node">
<title>Node1</title>
<g id="a_node1"><a xlink:title="Controlador principal do jogo: orquestra objetos, HUD, pontuação e fluxo de estados.">
<polygon fill="#bfbfbf" stroke="black" points="81,-0.5 81,-19.5 150,-19.5 150,-0.5 81,-0.5"/>
<text text-anchor="middle" x="115.5" y="-7.5" font-family="Helvetica,sans-Serif" font-size="10.00">FlappyBird</text>
</a>
</g>
</g>
<!-- Node2 -->
<g id="node2" class="node">
<title>Node2</title>
<g id="a_node2"><a xlink:href="classBird.html" target="_top" xlink:title="Personagem controlável: gerencia movimento, animação de asas, pulo e detecção de colisões.">
<polygon fill="white" stroke="black" points="20.5,-67.5 20.5,-86.5 56.5,-86.5 56.5,-67.5 20.5,-67.5"/>
<text text-anchor="middle" x="38.5" y="-74.5" font-family="Helvetica,sans-Serif" font-size="10.00">Bird</text>
</a>
</g>
</g>
<!-- Node2&#45;&gt;Node1 -->
<g id="edge1" class="edge">
<title>Node2&#45;&gt;Node1</title>
<path fill="none" stroke="#9a32cd" stroke-dasharray="5,2" d="M44.52,-58.05C47.55,-51.11 51.82,-43.53 57.5,-38 65.86,-29.87 77.12,-23.87 87.49,-19.61"/>
<polygon fill="#9a32cd" stroke="#9a32cd" points="41.24,-56.86 40.94,-67.45 47.78,-59.35 41.24,-56.86"/>
<text text-anchor="middle" x="84.5" y="-41" font-family="Helvetica,sans-Serif" font-size="10.00"> flappy_obj</text>
</g>
<!-- Node3 -->
<g id="node3" class="node">
<title>Node3</title>
<g id="a_node3"><a xlink:href="classGameObject.html" target="_top" xlink:title="Objeto genérico do jogo contendo posição, sprite e hitbox.">
<polygon fill="white" stroke="black" points="0,-124.5 0,-143.5 77,-143.5 77,-124.5 0,-124.5"/>
<text text-anchor="middle" x="38.5" y="-131.5" font-family="Helvetica,sans-Serif" font-size="10.00">GameObject</text>
</a>
</g>
</g>
<!-- Node3&#45;&gt;Node2 -->
<g id="edge2" class="edge">
<title>Node3&#45;&gt;Node2</title>
<path fill="none" stroke="midnightblue" d="M38.5,-114.12C38.5,-104.82 38.5,-94.06 38.5,-86.71"/>
<polygon fill="midnightblue" stroke="midnightblue" points="35,-114.41 38.5,-124.41 42,-114.41 35,-114.41"/>
</g>
<!-- Node4 -->
<g id="node4" class="node">
<title>Node4</title>
<g id="a_node4"><a xlink:href="classPlayer.html" target="_top" xlink:title="Armazena nome e pontuação e provê utilidades para ranking.">
<polygon fill="white" stroke="black" points="92,-67.5 92,-86.5 139,-86.5 139,-67.5 92,-67.5"/>
<text text-anchor="middle" x="115.5" y="-74.5" font-family="Helvetica,sans-Serif" font-size="10.00">Player</text>
</a>
</g>
</g>
<!-- Node4&#45;&gt;Node1 -->
<g id="edge3" class="edge">
<title>Node4&#45;&gt;Node1</title>
<path fill="none" stroke="#9a32cd" stroke-dasharray="5,2" d="M115.5,-57.04C115.5,-44.67 115.5,-29.12 115.5,-19.63"/>
<polygon fill="#9a32cd" stroke="#9a32cd" points="112,-57.23 115.5,-67.23 119,-57.23 112,-57.23"/>
<text text-anchor="middle" x="150" y="-41" font-family="Helvetica,sans-Serif" font-size="10.00"> currentPlayer</text>
</g>
<!-- Node5 -->
<g id="node5" class="node">
<title>Node5</title>
<g id="a_node5"><a xlink:href="classPipeList.html" target="_top" xlink:title="Gerencia vetor de PipePair: spawn, atualização, colisão e score.">
<polygon fill="white" stroke="black" points="180,-67.5 180,-86.5 235,-86.5 235,-67.5 180,-67.5"/>
<text text-anchor="middle" x="207.5" y="-74.5" font-family="Helvetica,sans-Serif" font-size="10.00">PipeList</text>
</a>
</g>
</g>
<!-- Node5&#45;&gt;Node1 -->
<g id="edge4" class="edge">
<title>Node5&#45;&gt;Node1</title>
<path fill="none" stroke="#9a32cd" stroke-dasharray="5,2" d="M200.17,-57.85C196.61,-50.88 191.73,-43.32 185.5,-38 175.4,-29.37 162.23,-23.33 150.05,-19.19"/>
<polygon fill="#9a32cd" stroke="#9a32cd" points="197.14,-59.65 204.45,-67.32 203.52,-56.77 197.14,-59.65"/>
<text text-anchor="middle" x="214.5" y="-41" font-family="Helvetica,sans-Serif" font-size="10.00"> pipelist</text>
</g>
</g>
</svg>
