<?xml version="1.0" encoding="UTF-8" standalone="no"?>
<!DOCTYPE svg PUBLIC "-//W3C//DTD SVG 1.1//EN"
 "http://www.w3.org/Graphics/SVG/1.1/DTD/svg11.dtd">
<!-- Generated by graphviz version 2.43.0 (0)
 -->
<!-- Title: FlappyBird::draw Pages: 1 -->
<svg width="451pt" height="192pt"
 viewBox="0.00 0.00 451.00 192.00" xmlns="http://www.w3.org/2000/svg" xmlns:xlink="http://www.w3.org/1999/xlink">
<g id="graph0" class="graph" transform="scale(1 1) rotate(0) translate(4 188)">
<title>FlappyBird::draw</title>
<polygon fill="white" stroke="transparent" points="-4,4 -4,-188 447,-188 447,4 -4,4"/>
<!-- Node1 -->
<g id="node1" class="node">
<title>Node1</title>
<g id="a_node1"><a xlink:title="Desenha cena completa conforme estado.">
<polygon fill="#bfbfbf" stroke="black" points="0,-82.5 0,-101.5 99,-101.5 99,-82.5 0,-82.5"/>
<text text-anchor="middle" x="49.5" y="-89.5" font-family="Helvetica,sans-Serif" font-size="10.00">FlappyBird::draw</text>
</a>
</g>
</g>
<!-- Node2 -->
<g id="node2" class="node">
<title>Node2</title>
<g id="a_node2"><a xlink:href="classPipeList.html#a4ba16ab542cc297017747954866e800a" target="_top" xlink:title="Draw every pipe pair.">
<polygon fill="white" stroke="black" points="169.5,-164.5 169.5,-183.5 254.5,-183.5 254.5,-164.5 169.5,-164.5"/>
<text text-anchor="middle" x="212" y="-171.5" font-family="Helvetica,sans-Serif" font-size="10.00">PipeList::draw</text>
</a>
</g>
</g>
<!-- Node1&#45;&gt;Node2 -->
<g id="edge1" class="edge">
<title>Node1&#45;&gt;Node2</title>
<path fill="none" stroke="midnightblue" d="M60.55,-101.63C75.55,-115.47 105.24,-140.89 135,-155 142.68,-158.64 151.15,-161.64 159.55,-164.09"/>
<polygon fill="midnightblue" stroke="midnightblue" points="158.78,-167.51 169.34,-166.72 160.59,-160.75 158.78,-167.51"/>
</g>
<!-- Node3 -->
<g id="node3" class="node">
<title>Node3</title>
<g id="a_node3"><a xlink:href="classBird.html#a7f672f464d181f24f03301f1713d23dc" target="_top" xlink:title="Desenha sprite atual com rotacao.">
<polygon fill="white" stroke="black" points="179,-126.5 179,-145.5 245,-145.5 245,-126.5 179,-126.5"/>
<text text-anchor="middle" x="212" y="-133.5" font-family="Helvetica,sans-Serif" font-size="10.00">Bird::draw</text>
</a>
</g>
</g>
<!-- Node1&#45;&gt;Node3 -->
<g id="edge2" class="edge">
<title>Node1&#45;&gt;Node3</title>
<path fill="none" stroke="midnightblue" d="M81.71,-101.58C97.61,-106.37 117.29,-112.17 135,-117 145.95,-119.99 157.84,-123.05 168.89,-125.81"/>
<polygon fill="midnightblue" stroke="midnightblue" points="168.2,-129.25 178.75,-128.26 169.89,-122.45 168.2,-129.25"/>
</g>
<!-- Node5 -->
<g id="node5" class="node">
<title>Node5</title>
<g id="a_node5"><a xlink:href="classFlappyBird.html#ac88fcc78ac50475800b005bf3aceb8d5" target="_top" xlink:title="Desenha solo em loop para criar efeito de movimento.">
<polygon fill="white" stroke="black" points="136.5,-77 136.5,-107 287.5,-107 287.5,-77 136.5,-77"/>
<text text-anchor="start" x="144.5" y="-95" font-family="Helvetica,sans-Serif" font-size="10.00">FlappyBird::draw_animated</text>
<text text-anchor="middle" x="212" y="-84" font-family="Helvetica,sans-Serif" font-size="10.00">_ground</text>
</a>
</g>
</g>
<!-- Node1&#45;&gt;Node5 -->
<g id="edge4" class="edge">
<title>Node1&#45;&gt;Node5</title>
<path fill="none" stroke="midnightblue" d="M99.09,-92C107.7,-92 116.88,-92 126.14,-92"/>
<polygon fill="midnightblue" stroke="midnightblue" points="126.21,-95.5 136.21,-92 126.21,-88.5 126.21,-95.5"/>
</g>
<!-- Node6 -->
<g id="node6" class="node">
<title>Node6</title>
<g id="a_node6"><a xlink:href="classFlappyBird.html#ad7cf0c94eeb27e71d5abc64357870247" target="_top" xlink:title="Desenha HUD de pontuacao.">
<polygon fill="white" stroke="black" points="148.5,-38.5 148.5,-57.5 275.5,-57.5 275.5,-38.5 148.5,-38.5"/>
<text text-anchor="middle" x="212" y="-45.5" font-family="Helvetica,sans-Serif" font-size="10.00">FlappyBird::draw_HUD</text>
</a>
</g>
</g>
<!-- Node1&#45;&gt;Node6 -->
<g id="edge5" class="edge">
<title>Node1&#45;&gt;Node6</title>
<path fill="none" stroke="midnightblue" d="M83.77,-82.39C99.31,-77.94 118.08,-72.63 135,-68 144.47,-65.41 154.63,-62.69 164.34,-60.13"/>
<polygon fill="midnightblue" stroke="midnightblue" points="165.46,-63.45 174.24,-57.52 163.68,-56.68 165.46,-63.45"/>
</g>
<!-- Node7 -->
<g id="node7" class="node">
<title>Node7</title>
<g id="a_node7"><a xlink:href="classFlappyBird.html#a0c449363de8ddf536688491afb74ad74" target="_top" xlink:title="Desenha texto inicial &quot;PRESS SPACE TO PLAY&quot;.">
<polygon fill="white" stroke="black" points="135,-0.5 135,-19.5 289,-19.5 289,-0.5 135,-0.5"/>
<text text-anchor="middle" x="212" y="-7.5" font-family="Helvetica,sans-Serif" font-size="10.00">FlappyBird::draw_intial_text</text>
</a>
</g>
</g>
<!-- Node1&#45;&gt;Node7 -->
<g id="edge6" class="edge">
<title>Node1&#45;&gt;Node7</title>
<path fill="none" stroke="midnightblue" d="M60.55,-82.37C75.55,-68.53 105.24,-43.11 135,-29 140.2,-26.54 145.75,-24.37 151.4,-22.46"/>
<polygon fill="midnightblue" stroke="midnightblue" points="152.44,-25.81 160.95,-19.51 150.36,-19.12 152.44,-25.81"/>
</g>
<!-- Node4 -->
<g id="node4" class="node">
<title>Node4</title>
<g id="a_node4"><a xlink:href="classBird.html#a2d551d652ad508b6ba3e5702a0bdb34d" target="_top" xlink:title="Gera animacao de bater de asas.">
<polygon fill="white" stroke="black" points="325,-126.5 325,-145.5 443,-145.5 443,-126.5 325,-126.5"/>
<text text-anchor="middle" x="384" y="-133.5" font-family="Helvetica,sans-Serif" font-size="10.00">Bird::loop_animation</text>
</a>
</g>
</g>
<!-- Node3&#45;&gt;Node4 -->
<g id="edge3" class="edge">
<title>Node3&#45;&gt;Node4</title>
<path fill="none" stroke="midnightblue" d="M245.38,-136C265.02,-136 290.84,-136 314.8,-136"/>
<polygon fill="midnightblue" stroke="midnightblue" points="314.93,-139.5 324.93,-136 314.93,-132.5 314.93,-139.5"/>
</g>
</g>
</svg>
