<?xml version="1.0" encoding="UTF-8" standalone="no"?>
<!DOCTYPE svg PUBLIC "-//W3C//DTD SVG 1.1//EN"
 "http://www.w3.org/Graphics/SVG/1.1/DTD/svg11.dtd">
<!-- Generated by graphviz version 2.43.0 (0)
 -->
<!-- Title: FlappyBird::control_pipes Pages: 1 -->
<svg width="295pt" height="66pt"
 viewBox="0.00 0.00 295.00 66.00" xmlns="http://www.w3.org/2000/svg" xmlns:xlink="http://www.w3.org/1999/xlink">
<g id="graph0" class="graph" transform="scale(1 1) rotate(0) translate(4 62)">
<title>FlappyBird::control_pipes</title>
<polygon fill="white" stroke="transparent" points="-4,4 -4,-62 291,-62 291,4 -4,4"/>
<!-- Node1 -->
<g id="node1" class="node">
<title>Node1</title>
<g id="a_node1"><a xlink:title="Adiciona / remove canos conforme necessidade.">
<polygon fill="#bfbfbf" stroke="black" points="0,-14 0,-44 109,-44 109,-14 0,-14"/>
<text text-anchor="start" x="8" y="-32" font-family="Helvetica,sans-Serif" font-size="10.00">FlappyBird::control</text>
<text text-anchor="middle" x="54.5" y="-21" font-family="Helvetica,sans-Serif" font-size="10.00">_pipes</text>
</a>
</g>
</g>
<!-- Node2 -->
<g id="node2" class="node">
<title>Node2</title>
<g id="a_node2"><a xlink:href="classPipeList.html#a3fa0a58e8017e08d80a5b9cabbff7385" target="_top" xlink:title="Spawn a new pair if gap condition is satisfied.">
<polygon fill="white" stroke="black" points="151.5,-38.5 151.5,-57.5 280.5,-57.5 280.5,-38.5 151.5,-38.5"/>
<text text-anchor="middle" x="216" y="-45.5" font-family="Helvetica,sans-Serif" font-size="10.00">PipeList::add_pipe_pair</text>
</a>
</g>
</g>
<!-- Node1&#45;&gt;Node2 -->
<g id="edge1" class="edge">
<title>Node1&#45;&gt;Node2</title>
<path fill="none" stroke="midnightblue" d="M109.05,-35.38C119.45,-36.62 130.51,-37.94 141.42,-39.23"/>
<polygon fill="midnightblue" stroke="midnightblue" points="141.02,-42.71 151.37,-40.42 141.85,-35.76 141.02,-42.71"/>
</g>
<!-- Node3 -->
<g id="node3" class="node">
<title>Node3</title>
<g id="a_node3"><a xlink:href="classPipeList.html#ab588b7f5e210c66b0cfe754550ca4f09" target="_top" xlink:title="Remove pipes that left the screen.">
<polygon fill="white" stroke="black" points="145,-0.5 145,-19.5 287,-19.5 287,-0.5 145,-0.5"/>
<text text-anchor="middle" x="216" y="-7.5" font-family="Helvetica,sans-Serif" font-size="10.00">PipeList::delete_pipe_pair</text>
</a>
</g>
</g>
<!-- Node1&#45;&gt;Node3 -->
<g id="edge2" class="edge">
<title>Node1&#45;&gt;Node3</title>
<path fill="none" stroke="midnightblue" d="M109.05,-22.62C117.32,-21.64 126,-20.6 134.69,-19.57"/>
<polygon fill="midnightblue" stroke="midnightblue" points="135.36,-23.01 144.87,-18.35 134.53,-16.06 135.36,-23.01"/>
</g>
</g>
</svg>
