<?xml version="1.0" encoding="UTF-8" standalone="no"?>
<!DOCTYPE svg PUBLIC "-//W3C//DTD SVG 1.1//EN"
 "http://www.w3.org/Graphics/SVG/1.1/DTD/svg11.dtd">
<!-- Generated by graphviz version 2.43.0 (0)
 -->
<!-- Title: Bird::check_bird_collision Pages: 1 -->
<svg width="319pt" height="142pt"
 viewBox="0.00 0.00 319.00 142.00" xmlns="http://www.w3.org/2000/svg" xmlns:xlink="http://www.w3.org/1999/xlink">
<g id="graph0" class="graph" transform="scale(1 1) rotate(0) translate(4 138)">
<title>Bird::check_bird_collision</title>
<polygon fill="white" stroke="transparent" points="-4,4 -4,-138 315,-138 315,4 -4,4"/>
<!-- Node1 -->
<g id="node1" class="node">
<title>Node1</title>
<g id="a_node1"><a xlink:title="Verifica colisao com outro GameObject.">
<polygon fill="#bfbfbf" stroke="black" points="0,-57.5 0,-76.5 140,-76.5 140,-57.5 0,-57.5"/>
<text text-anchor="middle" x="70" y="-64.5" font-family="Helvetica,sans-Serif" font-size="10.00">Bird::check_bird_collision</text>
</a>
</g>
</g>
<!-- Node2 -->
<g id="node2" class="node">
<title>Node2</title>
<g id="a_node2"><a xlink:href="classGameObject.html#a00d3a9c5ec66407ef577b2bbf70293bc" target="_top" xlink:title=" ">
<polygon fill="white" stroke="black" points="176,-114.5 176,-133.5 311,-133.5 311,-114.5 176,-114.5"/>
<text text-anchor="middle" x="243.5" y="-121.5" font-family="Helvetica,sans-Serif" font-size="10.00">GameObject::get_height</text>
</a>
</g>
</g>
<!-- Node1&#45;&gt;Node2 -->
<g id="edge1" class="edge">
<title>Node1&#45;&gt;Node2</title>
<path fill="none" stroke="midnightblue" d="M95.87,-76.55C117.04,-84.54 148.33,-96.05 176,-105 182.99,-107.26 190.44,-109.53 197.73,-111.66"/>
<polygon fill="midnightblue" stroke="midnightblue" points="196.93,-115.08 207.5,-114.49 198.87,-108.35 196.93,-115.08"/>
</g>
<!-- Node3 -->
<g id="node3" class="node">
<title>Node3</title>
<g id="a_node3"><a xlink:href="classGameObject.html#a9d93ff9458cca274434ba7368533b786" target="_top" xlink:title=" ">
<polygon fill="white" stroke="black" points="178,-76.5 178,-95.5 309,-95.5 309,-76.5 178,-76.5"/>
<text text-anchor="middle" x="243.5" y="-83.5" font-family="Helvetica,sans-Serif" font-size="10.00">GameObject::get_width</text>
</a>
</g>
</g>
<!-- Node1&#45;&gt;Node3 -->
<g id="edge2" class="edge">
<title>Node1&#45;&gt;Node3</title>
<path fill="none" stroke="midnightblue" d="M140.26,-74.67C149.31,-75.68 158.62,-76.71 167.75,-77.72"/>
<polygon fill="midnightblue" stroke="midnightblue" points="167.65,-81.23 177.97,-78.85 168.42,-74.27 167.65,-81.23"/>
</g>
<!-- Node4 -->
<g id="node4" class="node">
<title>Node4</title>
<g id="a_node4"><a xlink:href="classGameObject.html#a5d5fbd225b26550e9ace43672184e50b" target="_top" xlink:title="Obtém coordenada X.">
<polygon fill="white" stroke="black" points="188.5,-38.5 188.5,-57.5 298.5,-57.5 298.5,-38.5 188.5,-38.5"/>
<text text-anchor="middle" x="243.5" y="-45.5" font-family="Helvetica,sans-Serif" font-size="10.00">GameObject::get_x</text>
</a>
</g>
</g>
<!-- Node1&#45;&gt;Node4 -->
<g id="edge3" class="edge">
<title>Node1&#45;&gt;Node4</title>
<path fill="none" stroke="midnightblue" d="M140.26,-59.33C152.75,-57.94 165.73,-56.51 178.08,-55.14"/>
<polygon fill="midnightblue" stroke="midnightblue" points="178.72,-58.59 188.28,-54.01 177.95,-51.63 178.72,-58.59"/>
</g>
<!-- Node5 -->
<g id="node5" class="node">
<title>Node5</title>
<g id="a_node5"><a xlink:href="classGameObject.html#a97c3a607cce50e5b2e23eb40f9dc77d3" target="_top" xlink:title="Obtém coordenada Y.">
<polygon fill="white" stroke="black" points="188.5,-0.5 188.5,-19.5 298.5,-19.5 298.5,-0.5 188.5,-0.5"/>
<text text-anchor="middle" x="243.5" y="-7.5" font-family="Helvetica,sans-Serif" font-size="10.00">GameObject::get_y</text>
</a>
</g>
</g>
<!-- Node1&#45;&gt;Node5 -->
<g id="edge4" class="edge">
<title>Node1&#45;&gt;Node5</title>
<path fill="none" stroke="midnightblue" d="M95.87,-57.45C117.04,-49.46 148.33,-37.95 176,-29 182.99,-26.74 190.44,-24.47 197.73,-22.34"/>
<polygon fill="midnightblue" stroke="midnightblue" points="198.87,-25.65 207.5,-19.51 196.93,-18.92 198.87,-25.65"/>
</g>
</g>
</svg>
