<?xml version="1.0" encoding="UTF-8" standalone="no"?>
<!DOCTYPE svg PUBLIC "-//W3C//DTD SVG 1.1//EN"
 "http://www.w3.org/Graphics/SVG/1.1/DTD/svg11.dtd">
<!-- Generated by graphviz version 2.43.0 (0)
 -->
<!-- Title: GameObject Pages: 1 -->
<svg width="100pt" height="84pt"
 viewBox="0.00 0.00 100.00 84.00" xmlns="http://www.w3.org/2000/svg" xmlns:xlink="http://www.w3.org/1999/xlink">
<g id="graph0" class="graph" transform="scale(1 1) rotate(0) translate(4 80)">
<title>GameObject</title>
<polygon fill="white" stroke="transparent" points="-4,4 -4,-80 96,-80 96,4 -4,4"/>
<!-- Node1 -->
<g id="node1" class="node">
<title>Node1</title>
<g id="a_node1"><a xlink:title="Objeto genérico do jogo contendo posição, sprite e hitbox.">
<polygon fill="#bfbfbf" stroke="black" points="6.5,-56.5 6.5,-75.5 83.5,-75.5 83.5,-56.5 6.5,-56.5"/>
<text text-anchor="middle" x="45" y="-63.5" font-family="Helvetica,sans-Serif" font-size="10.00">GameObject</text>
</a>
</g>
</g>
<!-- Node2 -->
<g id="node2" class="node">
<title>Node2</title>
<g id="a_node2"><a xlink:href="classBird.html" target="_top" xlink:title="Personagem controlável: gerencia movimento, animação de asas, pulo e detecção de colisões.">
<polygon fill="white" stroke="black" points="0,-0.5 0,-19.5 36,-19.5 36,-0.5 0,-0.5"/>
<text text-anchor="middle" x="18" y="-7.5" font-family="Helvetica,sans-Serif" font-size="10.00">Bird</text>
</a>
</g>
</g>
<!-- Node1&#45;&gt;Node2 -->
<g id="edge1" class="edge">
<title>Node1&#45;&gt;Node2</title>
<path fill="none" stroke="midnightblue" d="M35.99,-46.98C31.41,-37.82 26.05,-27.09 22.38,-19.75"/>
<polygon fill="midnightblue" stroke="midnightblue" points="32.94,-48.7 40.54,-56.08 39.2,-45.57 32.94,-48.7"/>
</g>
<!-- Node3 -->
<g id="node3" class="node">
<title>Node3</title>
<g id="a_node3"><a xlink:href="classPipe.html" target="_top" xlink:title="Obstáculo individual que se move horizontalmente e gera pontuação.">
<polygon fill="white" stroke="black" points="54,-0.5 54,-19.5 92,-19.5 92,-0.5 54,-0.5"/>
<text text-anchor="middle" x="73" y="-7.5" font-family="Helvetica,sans-Serif" font-size="10.00">Pipe</text>
</a>
</g>
</g>
<!-- Node1&#45;&gt;Node3 -->
<g id="edge2" class="edge">
<title>Node1&#45;&gt;Node3</title>
<path fill="none" stroke="midnightblue" d="M54.34,-46.98C59.09,-37.82 64.66,-27.09 68.46,-19.75"/>
<polygon fill="midnightblue" stroke="midnightblue" points="51.12,-45.59 49.62,-56.08 57.33,-48.82 51.12,-45.59"/>
</g>
</g>
</svg>
