<?xml version="1.0" encoding="UTF-8" standalone="no"?>
<!DOCTYPE svg PUBLIC "-//W3C//DTD SVG 1.1//EN"
 "http://www.w3.org/Graphics/SVG/1.1/DTD/svg11.dtd">
<!-- Generated by graphviz version 2.43.0 (0)
 -->
<!-- Title: PipeList::get_points Pages: 1 -->
<svg width="410pt" height="39pt"
 viewBox="0.00 0.00 410.00 39.00" xmlns="http://www.w3.org/2000/svg" xmlns:xlink="http://www.w3.org/1999/xlink">
<g id="graph0" class="graph" transform="scale(1 1) rotate(0) translate(4 35)">
<title>PipeList::get_points</title>
<polygon fill="white" stroke="transparent" points="-4,4 -4,-35 406,-35 406,4 -4,4"/>
<!-- Node1 -->
<g id="node1" class="node">
<title>Node1</title>
<g id="a_node1"><a xlink:title="Get current score.">
<polygon fill="#bfbfbf" stroke="black" points="290,-6 290,-25 402,-25 402,-6 290,-6"/>
<text text-anchor="middle" x="346" y="-13" font-family="Helvetica,sans-Serif" font-size="10.00">PipeList::get_points</text>
</a>
</g>
</g>
<!-- Node2 -->
<g id="node2" class="node">
<title>Node2</title>
<g id="a_node2"><a xlink:href="classFlappyBird.html#a4458c5b09023ad145b787be7aea53605" target="_top" xlink:title="Atualiza pontuacao quando passaro passa canos.">
<polygon fill="white" stroke="black" points="145,-0.5 145,-30.5 254,-30.5 254,-0.5 145,-0.5"/>
<text text-anchor="start" x="153" y="-18.5" font-family="Helvetica,sans-Serif" font-size="10.00">FlappyBird::update</text>
<text text-anchor="middle" x="199.5" y="-7.5" font-family="Helvetica,sans-Serif" font-size="10.00">_score</text>
</a>
</g>
</g>
<!-- Node1&#45;&gt;Node2 -->
<g id="edge1" class="edge">
<title>Node1&#45;&gt;Node2</title>
<path fill="none" stroke="midnightblue" d="M279.73,-15.5C271.27,-15.5 262.68,-15.5 254.43,-15.5"/>
<polygon fill="midnightblue" stroke="midnightblue" points="279.96,-19 289.96,-15.5 279.96,-12 279.96,-19"/>
</g>
<!-- Node3 -->
<g id="node3" class="node">
<title>Node3</title>
<g id="a_node3"><a xlink:href="classFlappyBird.html#acfe4ae73e3b97741bf9acd9162ba8070" target="_top" xlink:title="Atualiza logica principal (estado, objetos, pipes).">
<polygon fill="white" stroke="black" points="0,-6 0,-25 109,-25 109,-6 0,-6"/>
<text text-anchor="middle" x="54.5" y="-13" font-family="Helvetica,sans-Serif" font-size="10.00">FlappyBird::update</text>
</a>
</g>
</g>
<!-- Node2&#45;&gt;Node3 -->
<g id="edge2" class="edge">
<title>Node2&#45;&gt;Node3</title>
<path fill="none" stroke="midnightblue" d="M134.68,-15.5C126.25,-15.5 117.69,-15.5 109.46,-15.5"/>
<polygon fill="midnightblue" stroke="midnightblue" points="134.85,-19 144.85,-15.5 134.85,-12 134.85,-19"/>
</g>
</g>
</svg>
