<?xml version="1.0" encoding="UTF-8" standalone="no"?>
<!DOCTYPE svg PUBLIC "-//W3C//DTD SVG 1.1//EN"
 "http://www.w3.org/Graphics/SVG/1.1/DTD/svg11.dtd">
<!-- Generated by graphviz version 2.43.0 (0)
 -->
<!-- Title: GameObject::set_finals Pages: 1 -->
<svg width="396pt" height="104pt"
 viewBox="0.00 0.00 396.00 104.00" xmlns="http://www.w3.org/2000/svg" xmlns:xlink="http://www.w3.org/1999/xlink">
<g id="graph0" class="graph" transform="scale(1 1) rotate(0) translate(4 100)">
<title>GameObject::set_finals</title>
<polygon fill="white" stroke="transparent" points="-4,4 -4,-100 392,-100 392,4 -4,4"/>
<!-- Node1 -->
<g id="node1" class="node">
<title>Node1</title>
<g id="a_node1"><a xlink:title="Atualiza limites inferiores (x_final, y_final) para colisão.">
<polygon fill="#bfbfbf" stroke="black" points="258,-38.5 258,-57.5 388,-57.5 388,-38.5 258,-38.5"/>
<text text-anchor="middle" x="323" y="-45.5" font-family="Helvetica,sans-Serif" font-size="10.00">GameObject::set_finals</text>
</a>
</g>
</g>
<!-- Node2 -->
<g id="node2" class="node">
<title>Node2</title>
<g id="a_node2"><a xlink:href="classPipe.html#adc16cc6616f4990f272620cc41aad879" target="_top" xlink:title="Construct a pipe object.">
<polygon fill="white" stroke="black" points="151,-76.5 151,-95.5 216,-95.5 216,-76.5 151,-76.5"/>
<text text-anchor="middle" x="183.5" y="-83.5" font-family="Helvetica,sans-Serif" font-size="10.00">Pipe::Pipe</text>
</a>
</g>
</g>
<!-- Node1&#45;&gt;Node2 -->
<g id="edge1" class="edge">
<title>Node1&#45;&gt;Node2</title>
<path fill="none" stroke="midnightblue" d="M277.51,-60.3C257.58,-65.8 234.53,-72.17 216.36,-77.2"/>
<polygon fill="midnightblue" stroke="midnightblue" points="278.6,-63.63 287.3,-57.59 276.73,-56.88 278.6,-63.63"/>
</g>
<!-- Node3 -->
<g id="node3" class="node">
<title>Node3</title>
<g id="a_node3"><a xlink:href="classBird.html#ae2718aad2ef1de73e399482ab6068324" target="_top" xlink:title="Atualiza fisica e posicao.">
<polygon fill="white" stroke="black" points="145.5,-38.5 145.5,-57.5 221.5,-57.5 221.5,-38.5 145.5,-38.5"/>
<text text-anchor="middle" x="183.5" y="-45.5" font-family="Helvetica,sans-Serif" font-size="10.00">Bird::update</text>
</a>
</g>
</g>
<!-- Node1&#45;&gt;Node3 -->
<g id="edge2" class="edge">
<title>Node1&#45;&gt;Node3</title>
<path fill="none" stroke="midnightblue" d="M247.58,-48C238.65,-48 229.85,-48 221.79,-48"/>
<polygon fill="midnightblue" stroke="midnightblue" points="247.68,-51.5 257.68,-48 247.68,-44.5 247.68,-51.5"/>
</g>
<!-- Node5 -->
<g id="node5" class="node">
<title>Node5</title>
<g id="a_node5"><a xlink:href="classPipe.html#a5c21f37e6bf9ff0ee1c16fee62eb1039" target="_top" xlink:title="Move the pipe horizontally and update bounding box.">
<polygon fill="white" stroke="black" points="145,-0.5 145,-19.5 222,-19.5 222,-0.5 145,-0.5"/>
<text text-anchor="middle" x="183.5" y="-7.5" font-family="Helvetica,sans-Serif" font-size="10.00">Pipe::update</text>
</a>
</g>
</g>
<!-- Node1&#45;&gt;Node5 -->
<g id="edge4" class="edge">
<title>Node1&#45;&gt;Node5</title>
<path fill="none" stroke="midnightblue" d="M277.43,-35.68C258.54,-30.46 236.85,-24.47 219.19,-19.59"/>
<polygon fill="midnightblue" stroke="midnightblue" points="276.73,-39.12 287.3,-38.41 278.6,-32.37 276.73,-39.12"/>
</g>
<!-- Node4 -->
<g id="node4" class="node">
<title>Node4</title>
<g id="a_node4"><a xlink:href="classFlappyBird.html#acfe4ae73e3b97741bf9acd9162ba8070" target="_top" xlink:title="Atualiza logica principal (estado, objetos, pipes).">
<polygon fill="white" stroke="black" points="0,-38.5 0,-57.5 109,-57.5 109,-38.5 0,-38.5"/>
<text text-anchor="middle" x="54.5" y="-45.5" font-family="Helvetica,sans-Serif" font-size="10.00">FlappyBird::update</text>
</a>
</g>
</g>
<!-- Node3&#45;&gt;Node4 -->
<g id="edge3" class="edge">
<title>Node3&#45;&gt;Node4</title>
<path fill="none" stroke="midnightblue" d="M135.35,-48C126.89,-48 118.01,-48 109.38,-48"/>
<polygon fill="midnightblue" stroke="midnightblue" points="135.42,-51.5 145.42,-48 135.42,-44.5 135.42,-51.5"/>
</g>
</g>
</svg>
