<?xml version="1.0" encoding="UTF-8" standalone="no"?>
<!DOCTYPE svg PUBLIC "-//W3C//DTD SVG 1.1//EN"
 "http://www.w3.org/Graphics/SVG/1.1/DTD/svg11.dtd">
<!-- Generated by graphviz version 2.43.0 (0)
 -->
<!-- Title: Player::SaveLeaderboard Pages: 1 -->
<svg width="347pt" height="78pt"
 viewBox="0.00 0.00 347.00 77.50" xmlns="http://www.w3.org/2000/svg" xmlns:xlink="http://www.w3.org/1999/xlink">
<g id="graph0" class="graph" transform="scale(1 1) rotate(0) translate(4 73.5)">
<title>Player::SaveLeaderboard</title>
<polygon fill="white" stroke="transparent" points="-4,4 -4,-73.5 343,-73.5 343,4 -4,4"/>
<!-- Node1 -->
<g id="node1" class="node">
<title>Node1</title>
<g id="a_node1"><a xlink:title="Salva lista de jogadores no arquivo, sobrescrevendo conteúdo.">
<polygon fill="#bfbfbf" stroke="black" points="201,-28 201,-47 339,-47 339,-28 201,-28"/>
<text text-anchor="middle" x="270" y="-35" font-family="Helvetica,sans-Serif" font-size="10.00">Player::SaveLeaderboard</text>
</a>
</g>
</g>
<!-- Node2 -->
<g id="node2" class="node">
<title>Node2</title>
<g id="a_node2"><a xlink:href="classLoadName.html#a5ce4fb95dd055fc1530a548149a15cda" target="_top" xlink:title="Gerencia toda a entrada de teclado do usuário.">
<polygon fill="white" stroke="black" points="13.5,-50 13.5,-69 151.5,-69 151.5,-50 13.5,-50"/>
<text text-anchor="middle" x="82.5" y="-57" font-family="Helvetica,sans-Serif" font-size="10.00">LoadName::handle_input</text>
</a>
</g>
</g>
<!-- Node1&#45;&gt;Node2 -->
<g id="edge1" class="edge">
<title>Node1&#45;&gt;Node2</title>
<path fill="none" stroke="midnightblue" d="M191.04,-46.75C177.9,-48.3 164.37,-49.91 151.51,-51.43"/>
<polygon fill="midnightblue" stroke="midnightblue" points="191.46,-50.22 200.98,-45.57 190.64,-43.27 191.46,-50.22"/>
</g>
<!-- Node3 -->
<g id="node3" class="node">
<title>Node3</title>
<g id="a_node3"><a xlink:href="classFlappyBird.html#a5e5b5440c5ddd780e8011536f28058b5" target="_top" xlink:title="Salva pontuacao no leaderboard externo.">
<polygon fill="white" stroke="black" points="0,-0.5 0,-30.5 165,-30.5 165,-0.5 0,-0.5"/>
<text text-anchor="start" x="8" y="-18.5" font-family="Helvetica,sans-Serif" font-size="10.00">FlappyBird::saveCurrentPlayer</text>
<text text-anchor="middle" x="82.5" y="-7.5" font-family="Helvetica,sans-Serif" font-size="10.00">Score</text>
</a>
</g>
</g>
<!-- Node1&#45;&gt;Node3 -->
<g id="edge2" class="edge">
<title>Node1&#45;&gt;Node3</title>
<path fill="none" stroke="midnightblue" d="M191.01,-28.25C182.43,-27.23 173.67,-26.19 165.05,-25.17"/>
<polygon fill="midnightblue" stroke="midnightblue" points="190.64,-31.73 200.98,-29.43 191.46,-24.78 190.64,-31.73"/>
</g>
</g>
</svg>
