<?xml version="1.0" encoding="UTF-8" standalone="no"?>
<!DOCTYPE svg PUBLIC "-//W3C//DTD SVG 1.1//EN"
 "http://www.w3.org/Graphics/SVG/1.1/DTD/svg11.dtd">
<!-- Generated by graphviz version 2.43.0 (0)
 -->
<!-- Title: LeaderboardMenu::enter Pages: 1 -->
<svg width="439pt" height="66pt"
 viewBox="0.00 0.00 439.00 66.00" xmlns="http://www.w3.org/2000/svg" xmlns:xlink="http://www.w3.org/1999/xlink">
<g id="graph0" class="graph" transform="scale(1 1) rotate(0) translate(4 62)">
<title>LeaderboardMenu::enter</title>
<polygon fill="white" stroke="transparent" points="-4,4 -4,-62 435,-62 435,4 -4,4"/>
<!-- Node1 -->
<g id="node1" class="node">
<title>Node1</title>
<g id="a_node1"><a xlink:title="Executado uma vez ao entrar no estado do Leaderboard.">
<polygon fill="#bfbfbf" stroke="black" points="0,-19.5 0,-38.5 136,-38.5 136,-19.5 0,-19.5"/>
<text text-anchor="middle" x="68" y="-26.5" font-family="Helvetica,sans-Serif" font-size="10.00">LeaderboardMenu::enter</text>
</a>
</g>
</g>
<!-- Node2 -->
<g id="node2" class="node">
<title>Node2</title>
<g id="a_node2"><a xlink:href="classPlayer.html#aef5308fd57957507968e971d23ac3fe6" target="_top" xlink:title="Lê arquivo de ranking e retorna vetor de jogadores.">
<polygon fill="white" stroke="black" points="172,-38.5 172,-57.5 311,-57.5 311,-38.5 172,-38.5"/>
<text text-anchor="middle" x="241.5" y="-45.5" font-family="Helvetica,sans-Serif" font-size="10.00">Player::ReadLeaderboard</text>
</a>
</g>
</g>
<!-- Node1&#45;&gt;Node2 -->
<g id="edge1" class="edge">
<title>Node1&#45;&gt;Node2</title>
<path fill="none" stroke="midnightblue" d="M136.29,-36.45C144.72,-37.39 153.4,-38.35 161.98,-39.3"/>
<polygon fill="midnightblue" stroke="midnightblue" points="161.67,-42.79 172,-40.41 162.44,-35.83 161.67,-42.79"/>
</g>
<!-- Node4 -->
<g id="node4" class="node">
<title>Node4</title>
<g id="a_node4"><a xlink:href="classPlayer.html#a821a6a7bbfeeabc956d063d24eb15889" target="_top" xlink:title="Ordena vetor de jogadores por pontuação decrescente.">
<polygon fill="white" stroke="black" points="174.5,-0.5 174.5,-19.5 308.5,-19.5 308.5,-0.5 174.5,-0.5"/>
<text text-anchor="middle" x="241.5" y="-7.5" font-family="Helvetica,sans-Serif" font-size="10.00">Player::SortLeaderboard</text>
</a>
</g>
</g>
<!-- Node1&#45;&gt;Node4 -->
<g id="edge3" class="edge">
<title>Node1&#45;&gt;Node4</title>
<path fill="none" stroke="midnightblue" d="M136.29,-21.55C145.45,-20.53 154.92,-19.48 164.23,-18.45"/>
<polygon fill="midnightblue" stroke="midnightblue" points="164.69,-21.92 174.25,-17.34 163.92,-14.96 164.69,-21.92"/>
</g>
<!-- Node3 -->
<g id="node3" class="node">
<title>Node3</title>
<g id="a_node3"><a xlink:href="classPlayer.html#a1b1eb725b1cd830c7ccb0d03459044f2" target="_top" xlink:title="Constrói um jogador com nome e pontuação inicial.">
<polygon fill="white" stroke="black" points="347,-38.5 347,-57.5 431,-57.5 431,-38.5 347,-38.5"/>
<text text-anchor="middle" x="389" y="-45.5" font-family="Helvetica,sans-Serif" font-size="10.00">Player::Player</text>
</a>
</g>
</g>
<!-- Node2&#45;&gt;Node3 -->
<g id="edge2" class="edge">
<title>Node2&#45;&gt;Node3</title>
<path fill="none" stroke="midnightblue" d="M311.42,-48C319.89,-48 328.42,-48 336.57,-48"/>
<polygon fill="midnightblue" stroke="midnightblue" points="336.65,-51.5 346.65,-48 336.65,-44.5 336.65,-51.5"/>
</g>
</g>
</svg>
