<?xml version="1.0" encoding="UTF-8" standalone="no"?>
<!DOCTYPE svg PUBLIC "-//W3C//DTD SVG 1.1//EN"
 "http://www.w3.org/Graphics/SVG/1.1/DTD/svg11.dtd">
<!-- Generated by graphviz version 2.43.0 (0)
 -->
<!-- Title: GameObject::check_bird_collision Pages: 1 -->
<svg width="506pt" height="39pt"
 viewBox="0.00 0.00 506.00 39.00" xmlns="http://www.w3.org/2000/svg" xmlns:xlink="http://www.w3.org/1999/xlink">
<g id="graph0" class="graph" transform="scale(1 1) rotate(0) translate(4 35)">
<title>GameObject::check_bird_collision</title>
<polygon fill="white" stroke="transparent" points="-4,4 -4,-35 502,-35 502,4 -4,4"/>
<!-- Node1 -->
<g id="node1" class="node">
<title>Node1</title>
<g id="a_node1"><a xlink:title="Verifica colisão entre este objeto e outro.">
<polygon fill="#bfbfbf" stroke="black" points="362,-0.5 362,-30.5 498,-30.5 498,-0.5 362,-0.5"/>
<text text-anchor="start" x="370" y="-18.5" font-family="Helvetica,sans-Serif" font-size="10.00">GameObject::check_bird</text>
<text text-anchor="middle" x="430" y="-7.5" font-family="Helvetica,sans-Serif" font-size="10.00">_collision</text>
</a>
</g>
</g>
<!-- Node2 -->
<g id="node2" class="node">
<title>Node2</title>
<g id="a_node2"><a xlink:href="classPipeList.html#a993d7ac941ceba1eff657032df7e8fd4" target="_top" xlink:title="Check bird collision against any pipe.">
<polygon fill="white" stroke="black" points="191,-6 191,-25 326,-25 326,-6 191,-6"/>
<text text-anchor="middle" x="258.5" y="-13" font-family="Helvetica,sans-Serif" font-size="10.00">PipeList::check_collision</text>
</a>
</g>
</g>
<!-- Node1&#45;&gt;Node2 -->
<g id="edge1" class="edge">
<title>Node1&#45;&gt;Node2</title>
<path fill="none" stroke="midnightblue" d="M351.34,-15.5C342.94,-15.5 334.45,-15.5 326.19,-15.5"/>
<polygon fill="midnightblue" stroke="midnightblue" points="351.52,-19 361.52,-15.5 351.52,-12 351.52,-19"/>
</g>
<!-- Node3 -->
<g id="node3" class="node">
<title>Node3</title>
<g id="a_node3"><a xlink:href="classFlappyBird.html#a229cec49a07214226a449da13eb90f9d" target="_top" xlink:title="Verifica colisao entre passaro, limites ou canos.">
<polygon fill="white" stroke="black" points="0,-6 0,-25 155,-25 155,-6 0,-6"/>
<text text-anchor="middle" x="77.5" y="-13" font-family="Helvetica,sans-Serif" font-size="10.00">FlappyBird::check_collisions</text>
</a>
</g>
</g>
<!-- Node2&#45;&gt;Node3 -->
<g id="edge2" class="edge">
<title>Node2&#45;&gt;Node3</title>
<path fill="none" stroke="midnightblue" d="M180.64,-15.5C172.2,-15.5 163.6,-15.5 155.16,-15.5"/>
<polygon fill="midnightblue" stroke="midnightblue" points="180.85,-19 190.85,-15.5 180.85,-12 180.85,-19"/>
</g>
</g>
</svg>
