<?xml version="1.0" encoding="UTF-8" standalone="no"?>
<!DOCTYPE svg PUBLIC "-//W3C//DTD SVG 1.1//EN"
 "http://www.w3.org/Graphics/SVG/1.1/DTD/svg11.dtd">
<!-- Generated by graphviz version 2.43.0 (0)
 -->
<!-- Title: State Pages: 1 -->
<svg width="550pt" height="84pt"
 viewBox="0.00 0.00 549.50 84.00" xmlns="http://www.w3.org/2000/svg" xmlns:xlink="http://www.w3.org/1999/xlink">
<g id="graph0" class="graph" transform="scale(1 1) rotate(0) translate(4 80)">
<title>State</title>
<polygon fill="white" stroke="transparent" points="-4,4 -4,-80 545.5,-80 545.5,4 -4,4"/>
<!-- Node1 -->
<g id="node1" class="node">
<title>Node1</title>
<g id="a_node1"><a xlink:title="Define a interface que cada tela/estado deve implementar.">
<polygon fill="#bfbfbf" stroke="black" points="285,-56.5 285,-75.5 327,-75.5 327,-56.5 285,-56.5"/>
<text text-anchor="middle" x="306" y="-63.5" font-family="Helvetica,sans-Serif" font-size="10.00">State</text>
</a>
</g>
</g>
<!-- Node2 -->
<g id="node2" class="node">
<title>Node2</title>
<g id="a_node2"><a xlink:href="classDifficultyMenu.html" target="_top" xlink:title="Gerencia a lógica e a renderização da tela de seleção de dificuldade.">
<polygon fill="white" stroke="black" points="0,-0.5 0,-19.5 88,-19.5 88,-0.5 0,-0.5"/>
<text text-anchor="middle" x="44" y="-7.5" font-family="Helvetica,sans-Serif" font-size="10.00">DifficultyMenu</text>
</a>
</g>
</g>
<!-- Node1&#45;&gt;Node2 -->
<g id="edge1" class="edge">
<title>Node1&#45;&gt;Node2</title>
<path fill="none" stroke="midnightblue" d="M274.59,-58.53C227.3,-48.78 137.78,-30.33 85.27,-19.51"/>
<polygon fill="midnightblue" stroke="midnightblue" points="274.06,-61.99 284.56,-60.58 275.47,-55.13 274.06,-61.99"/>
</g>
<!-- Node3 -->
<g id="node3" class="node">
<title>Node3</title>
<g id="a_node3"><a xlink:href="classLeaderboardMenu.html" target="_top" xlink:title="Exibe ranking de jogadores e permite retorno ao menu principal.">
<polygon fill="white" stroke="black" points="106,-0.5 106,-19.5 210,-19.5 210,-0.5 106,-0.5"/>
<text text-anchor="middle" x="158" y="-7.5" font-family="Helvetica,sans-Serif" font-size="10.00">LeaderboardMenu</text>
</a>
</g>
</g>
<!-- Node1&#45;&gt;Node3 -->
<g id="edge2" class="edge">
<title>Node1&#45;&gt;Node3</title>
<path fill="none" stroke="midnightblue" d="M275.13,-53.74C247.2,-43.55 206.68,-28.76 181.36,-19.52"/>
<polygon fill="midnightblue" stroke="midnightblue" points="274.2,-57.12 284.8,-57.26 276.6,-50.55 274.2,-57.12"/>
</g>
<!-- Node4 -->
<g id="node4" class="node">
<title>Node4</title>
<g id="a_node4"><a xlink:href="classLoadName.html" target="_top" xlink:title="Tela de inserção de nome usada por Novo Jogo e Carregar Jogo.">
<polygon fill="white" stroke="black" points="228.5,-0.5 228.5,-19.5 297.5,-19.5 297.5,-0.5 228.5,-0.5"/>
<text text-anchor="middle" x="263" y="-7.5" font-family="Helvetica,sans-Serif" font-size="10.00">LoadName</text>
</a>
</g>
</g>
<!-- Node1&#45;&gt;Node4 -->
<g id="edge3" class="edge">
<title>Node1&#45;&gt;Node4</title>
<path fill="none" stroke="midnightblue" d="M292.58,-48.14C285.09,-38.74 276.06,-27.4 269.97,-19.75"/>
<polygon fill="midnightblue" stroke="midnightblue" points="289.93,-50.44 298.9,-56.08 295.41,-46.08 289.93,-50.44"/>
</g>
<!-- Node5 -->
<g id="node5" class="node">
<title>Node5</title>
<g id="a_node5"><a xlink:href="classMainMenu.html" target="_top" xlink:title="Tela inicial do jogo, centraliza navegação para demais estados.">
<polygon fill="white" stroke="black" points="316,-0.5 316,-19.5 384,-19.5 384,-0.5 316,-0.5"/>
<text text-anchor="middle" x="350" y="-7.5" font-family="Helvetica,sans-Serif" font-size="10.00">MainMenu</text>
</a>
</g>
</g>
<!-- Node1&#45;&gt;Node5 -->
<g id="edge4" class="edge">
<title>Node1&#45;&gt;Node5</title>
<path fill="none" stroke="midnightblue" d="M319.73,-48.14C327.4,-38.74 336.63,-27.4 342.87,-19.75"/>
<polygon fill="midnightblue" stroke="midnightblue" points="316.87,-46.12 313.27,-56.08 322.3,-50.54 316.87,-46.12"/>
</g>
<!-- Node6 -->
<g id="node6" class="node">
<title>Node6</title>
<g id="a_node6"><a xlink:href="classPlay.html" target="_top" xlink:title="Estado principal de jogo: controla loop ativo, pontuação e game over.">
<polygon fill="white" stroke="black" points="402,-0.5 402,-19.5 440,-19.5 440,-0.5 402,-0.5"/>
<text text-anchor="middle" x="421" y="-7.5" font-family="Helvetica,sans-Serif" font-size="10.00">Play</text>
</a>
</g>
</g>
<!-- Node1&#45;&gt;Node6 -->
<g id="edge5" class="edge">
<title>Node1&#45;&gt;Node6</title>
<path fill="none" stroke="midnightblue" d="M333.48,-52.1C354.97,-42.01 384.22,-28.27 402.86,-19.52"/>
<polygon fill="midnightblue" stroke="midnightblue" points="331.79,-49.02 324.22,-56.44 334.76,-55.36 331.79,-49.02"/>
</g>
<!-- Node7 -->
<g id="node7" class="node">
<title>Node7</title>
<g id="a_node7"><a xlink:href="classSettingsMenu.html" target="_top" xlink:title="Tela de configurações: permite alterar clima e habilitar/desabilitar música.">
<polygon fill="white" stroke="black" points="458.5,-0.5 458.5,-19.5 541.5,-19.5 541.5,-0.5 458.5,-0.5"/>
<text text-anchor="middle" x="500" y="-7.5" font-family="Helvetica,sans-Serif" font-size="10.00">SettingsMenu</text>
</a>
</g>
</g>
<!-- Node1&#45;&gt;Node7 -->
<g id="edge6" class="edge">
<title>Node1&#45;&gt;Node7</title>
<path fill="none" stroke="midnightblue" d="M337.17,-56.32C373.52,-46.21 433.23,-29.59 469.36,-19.53"/>
<polygon fill="midnightblue" stroke="midnightblue" points="335.83,-53.06 327.13,-59.12 337.7,-59.81 335.83,-53.06"/>
</g>
</g>
</svg>
