<?xml version="1.0" encoding="UTF-8" standalone="no"?>
<!DOCTYPE svg PUBLIC "-//W3C//DTD SVG 1.1//EN"
 "http://www.w3.org/Graphics/SVG/1.1/DTD/svg11.dtd">
<!-- Generated by graphviz version 2.43.0 (0)
 -->
<!-- Title: Player::Player Pages: 1 -->
<svg width="439pt" height="28pt"
 viewBox="0.00 0.00 439.00 28.00" xmlns="http://www.w3.org/2000/svg" xmlns:xlink="http://www.w3.org/1999/xlink">
<g id="graph0" class="graph" transform="scale(1 1) rotate(0) translate(4 24)">
<title>Player::Player</title>
<polygon fill="white" stroke="transparent" points="-4,4 -4,-24 435,-24 435,4 -4,4"/>
<!-- Node1 -->
<g id="node1" class="node">
<title>Node1</title>
<g id="a_node1"><a xlink:title="Constrói um jogador com nome e pontuação inicial.">
<polygon fill="#bfbfbf" stroke="black" points="347,-0.5 347,-19.5 431,-19.5 431,-0.5 347,-0.5"/>
<text text-anchor="middle" x="389" y="-7.5" font-family="Helvetica,sans-Serif" font-size="10.00">Player::Player</text>
</a>
</g>
</g>
<!-- Node2 -->
<g id="node2" class="node">
<title>Node2</title>
<g id="a_node2"><a xlink:href="classPlayer.html#aef5308fd57957507968e971d23ac3fe6" target="_top" xlink:title="Lê arquivo de ranking e retorna vetor de jogadores.">
<polygon fill="white" stroke="black" points="172,-0.5 172,-19.5 311,-19.5 311,-0.5 172,-0.5"/>
<text text-anchor="middle" x="241.5" y="-7.5" font-family="Helvetica,sans-Serif" font-size="10.00">Player::ReadLeaderboard</text>
</a>
</g>
</g>
<!-- Node1&#45;&gt;Node2 -->
<g id="edge1" class="edge">
<title>Node1&#45;&gt;Node2</title>
<path fill="none" stroke="midnightblue" d="M336.53,-10C328.32,-10 319.7,-10 311.16,-10"/>
<polygon fill="midnightblue" stroke="midnightblue" points="336.69,-13.5 346.69,-10 336.69,-6.5 336.69,-13.5"/>
</g>
<!-- Node3 -->
<g id="node3" class="node">
<title>Node3</title>
<g id="a_node3"><a xlink:href="classLeaderboardMenu.html#a7eb26a277cc3ff52e703921a69f24fe4" target="_top" xlink:title="Executado uma vez ao entrar no estado do Leaderboard.">
<polygon fill="white" stroke="black" points="0,-0.5 0,-19.5 136,-19.5 136,-0.5 0,-0.5"/>
<text text-anchor="middle" x="68" y="-7.5" font-family="Helvetica,sans-Serif" font-size="10.00">LeaderboardMenu::enter</text>
</a>
</g>
</g>
<!-- Node2&#45;&gt;Node3 -->
<g id="edge2" class="edge">
<title>Node2&#45;&gt;Node3</title>
<path fill="none" stroke="midnightblue" d="M161.46,-10C152.99,-10 144.43,-10 136.11,-10"/>
<polygon fill="midnightblue" stroke="midnightblue" points="161.73,-13.5 171.73,-10 161.73,-6.5 161.73,-13.5"/>
</g>
</g>
</svg>
