<?xml version="1.0" encoding="UTF-8" standalone="no"?>
<!DOCTYPE svg PUBLIC "-//W3C//DTD SVG 1.1//EN"
 "http://www.w3.org/Graphics/SVG/1.1/DTD/svg11.dtd">
<!-- Generated by graphviz version 2.43.0 (0)
 -->
<!-- Title: Player::SaveLeaderboard Pages: 1 -->
<svg width="282pt" height="66pt"
 viewBox="0.00 0.00 282.00 66.00" xmlns="http://www.w3.org/2000/svg" xmlns:xlink="http://www.w3.org/1999/xlink">
<g id="graph0" class="graph" transform="scale(1 1) rotate(0) translate(4 62)">
<title>Player::SaveLeaderboard</title>
<polygon fill="white" stroke="transparent" points="-4,4 -4,-62 278,-62 278,4 -4,4"/>
<!-- Node1 -->
<g id="node1" class="node">
<title>Node1</title>
<g id="a_node1"><a xlink:title="Salva ranking adicionando ou atualizando um jogador.">
<polygon fill="#bfbfbf" stroke="black" points="0,-19.5 0,-38.5 138,-38.5 138,-19.5 0,-19.5"/>
<text text-anchor="middle" x="69" y="-26.5" font-family="Helvetica,sans-Serif" font-size="10.00">Player::SaveLeaderboard</text>
</a>
</g>
</g>
<!-- Node2 -->
<g id="node2" class="node">
<title>Node2</title>
<g id="a_node2"><a xlink:href="classPlayer.html#affddef50f994746a860e2366e412917f" target="_top" xlink:title="Retorna o nome do jogador.">
<polygon fill="white" stroke="black" points="174,-38.5 174,-57.5 274,-57.5 274,-38.5 174,-38.5"/>
<text text-anchor="middle" x="224" y="-45.5" font-family="Helvetica,sans-Serif" font-size="10.00">Player::GetName</text>
</a>
</g>
</g>
<!-- Node1&#45;&gt;Node2 -->
<g id="edge1" class="edge">
<title>Node1&#45;&gt;Node2</title>
<path fill="none" stroke="midnightblue" d="M138.44,-37.5C146.93,-38.55 155.55,-39.62 163.88,-40.66"/>
<polygon fill="midnightblue" stroke="midnightblue" points="163.51,-44.14 173.86,-41.9 164.37,-37.19 163.51,-44.14"/>
</g>
<!-- Node3 -->
<g id="node3" class="node">
<title>Node3</title>
<g id="a_node3"><a xlink:href="classPlayer.html#a777fb06bddf27e2810053843cb0cc6f9" target="_top" xlink:title="Retorna a pontuação atual.">
<polygon fill="white" stroke="black" points="175,-0.5 175,-19.5 273,-19.5 273,-0.5 175,-0.5"/>
<text text-anchor="middle" x="224" y="-7.5" font-family="Helvetica,sans-Serif" font-size="10.00">Player::GetScore</text>
</a>
</g>
</g>
<!-- Node1&#45;&gt;Node3 -->
<g id="edge2" class="edge">
<title>Node1&#45;&gt;Node3</title>
<path fill="none" stroke="midnightblue" d="M138.44,-20.5C147.25,-19.41 156.2,-18.3 164.82,-17.22"/>
<polygon fill="midnightblue" stroke="midnightblue" points="165.27,-20.7 174.76,-15.99 164.41,-13.75 165.27,-20.7"/>
</g>
</g>
</svg>
