<?xml version="1.0" encoding="UTF-8" standalone="no"?>
<!DOCTYPE svg PUBLIC "-//W3C//DTD SVG 1.1//EN"
 "http://www.w3.org/Graphics/SVG/1.1/DTD/svg11.dtd">
<!-- Generated by graphviz version 2.43.0 (0)
 -->
<!-- Title: GameObject::get_x Pages: 1 -->
<svg width="439pt" height="116pt"
 viewBox="0.00 0.00 439.00 115.50" xmlns="http://www.w3.org/2000/svg" xmlns:xlink="http://www.w3.org/1999/xlink">
<g id="graph0" class="graph" transform="scale(1 1) rotate(0) translate(4 111.5)">
<title>GameObject::get_x</title>
<polygon fill="white" stroke="transparent" points="-4,4 -4,-111.5 435,-111.5 435,4 -4,4"/>
<!-- Node1 -->
<g id="node1" class="node">
<title>Node1</title>
<g id="a_node1"><a xlink:title="Obtém coordenada X.">
<polygon fill="#bfbfbf" stroke="black" points="321,-50 321,-69 431,-69 431,-50 321,-50"/>
<text text-anchor="middle" x="376" y="-57" font-family="Helvetica,sans-Serif" font-size="10.00">GameObject::get_x</text>
</a>
</g>
</g>
<!-- Node2 -->
<g id="node2" class="node">
<title>Node2</title>
<g id="a_node2"><a xlink:href="classBird.html#a5b63706c73ef35ac37a8c01495abf4e3" target="_top" xlink:title="Verifica colisao com outro GameObject.">
<polygon fill="white" stroke="black" points="145,-88 145,-107 285,-107 285,-88 145,-88"/>
<text text-anchor="middle" x="215" y="-95" font-family="Helvetica,sans-Serif" font-size="10.00">Bird::check_bird_collision</text>
</a>
</g>
</g>
<!-- Node1&#45;&gt;Node2 -->
<g id="edge1" class="edge">
<title>Node1&#45;&gt;Node2</title>
<path fill="none" stroke="midnightblue" d="M324.92,-71.47C302.64,-76.79 276.77,-82.98 255.83,-87.98"/>
<polygon fill="midnightblue" stroke="midnightblue" points="325.97,-74.82 334.88,-69.09 324.34,-68.01 325.97,-74.82"/>
</g>
<!-- Node3 -->
<g id="node3" class="node">
<title>Node3</title>
<g id="a_node3"><a xlink:href="classFlappyBird.html#acfe4ae73e3b97741bf9acd9162ba8070" target="_top" xlink:title="Atualiza logica principal (estado, objetos, pipes).">
<polygon fill="white" stroke="black" points="0,-28 0,-47 109,-47 109,-28 0,-28"/>
<text text-anchor="middle" x="54.5" y="-35" font-family="Helvetica,sans-Serif" font-size="10.00">FlappyBird::update</text>
</a>
</g>
</g>
<!-- Node1&#45;&gt;Node3 -->
<g id="edge2" class="edge">
<title>Node1&#45;&gt;Node3</title>
<path fill="none" stroke="midnightblue" d="M310.82,-55.08C251.63,-51 164.76,-45.02 109.16,-41.2"/>
<polygon fill="midnightblue" stroke="midnightblue" points="310.58,-58.57 320.8,-55.77 311.07,-51.59 310.58,-58.57"/>
</g>
<!-- Node4 -->
<g id="node4" class="node">
<title>Node4</title>
<g id="a_node4"><a xlink:href="classFlappyBird.html#a4458c5b09023ad145b787be7aea53605" target="_top" xlink:title="Atualiza pontuacao quando passaro passa canos.">
<polygon fill="white" stroke="black" points="160.5,-0.5 160.5,-30.5 269.5,-30.5 269.5,-0.5 160.5,-0.5"/>
<text text-anchor="start" x="168.5" y="-18.5" font-family="Helvetica,sans-Serif" font-size="10.00">FlappyBird::update</text>
<text text-anchor="middle" x="215" y="-7.5" font-family="Helvetica,sans-Serif" font-size="10.00">_score</text>
</a>
</g>
</g>
<!-- Node1&#45;&gt;Node4 -->
<g id="edge3" class="edge">
<title>Node1&#45;&gt;Node4</title>
<path fill="none" stroke="midnightblue" d="M330.63,-47.22C311.67,-41.98 289.38,-35.81 269.51,-30.31"/>
<polygon fill="midnightblue" stroke="midnightblue" points="329.93,-50.66 340.5,-49.95 331.8,-43.91 329.93,-50.66"/>
</g>
<!-- Node4&#45;&gt;Node3 -->
<g id="edge4" class="edge">
<title>Node4&#45;&gt;Node3</title>
<path fill="none" stroke="midnightblue" d="M150.09,-24.37C136.49,-26.26 122.27,-28.23 109.11,-30.06"/>
<polygon fill="midnightblue" stroke="midnightblue" points="150.92,-27.79 160.34,-22.95 149.95,-20.86 150.92,-27.79"/>
</g>
</g>
</svg>
