<?xml version="1.0" encoding="UTF-8" standalone="no"?>
<!DOCTYPE svg PUBLIC "-//W3C//DTD SVG 1.1//EN"
 "http://www.w3.org/Graphics/SVG/1.1/DTD/svg11.dtd">
<!-- Generated by graphviz version 2.43.0 (0)
 -->
<!-- Title: FlappyBird::reset Pages: 1 -->
<svg width="268pt" height="142pt"
 viewBox="0.00 0.00 268.00 142.00" xmlns="http://www.w3.org/2000/svg" xmlns:xlink="http://www.w3.org/1999/xlink">
<g id="graph0" class="graph" transform="scale(1 1) rotate(0) translate(4 138)">
<title>FlappyBird::reset</title>
<polygon fill="white" stroke="transparent" points="-4,4 -4,-138 264,-138 264,4 -4,4"/>
<!-- Node1 -->
<g id="node1" class="node">
<title>Node1</title>
<g id="a_node1"><a xlink:title="Reseta jogo para configuracao inicial.">
<polygon fill="#bfbfbf" stroke="black" points="0,-57.5 0,-76.5 100,-76.5 100,-57.5 0,-57.5"/>
<text text-anchor="middle" x="50" y="-64.5" font-family="Helvetica,sans-Serif" font-size="10.00">FlappyBird::reset</text>
</a>
</g>
</g>
<!-- Node2 -->
<g id="node2" class="node">
<title>Node2</title>
<g id="a_node2"><a xlink:href="classPipeList.html#a542ce3b33a138db92365d668fd9f6e28" target="_top" xlink:title="Clear list and reset all counters.">
<polygon fill="white" stroke="black" points="155,-114.5 155,-133.5 241,-133.5 241,-114.5 155,-114.5"/>
<text text-anchor="middle" x="198" y="-121.5" font-family="Helvetica,sans-Serif" font-size="10.00">PipeList::reset</text>
</a>
</g>
</g>
<!-- Node1&#45;&gt;Node2 -->
<g id="edge1" class="edge">
<title>Node1&#45;&gt;Node2</title>
<path fill="none" stroke="midnightblue" d="M70.64,-76.58C87.7,-84.7 113.17,-96.37 136,-105 141.86,-107.21 148.1,-109.37 154.26,-111.4"/>
<polygon fill="midnightblue" stroke="midnightblue" points="153.24,-114.74 163.83,-114.45 155.37,-108.08 153.24,-114.74"/>
</g>
<!-- Node3 -->
<g id="node3" class="node">
<title>Node3</title>
<g id="a_node3"><a xlink:href="classBird.html#a36a1dad86634842ebd97e869a2732aaf" target="_top" xlink:title="Reseta posicao inicial e velocidade.">
<polygon fill="white" stroke="black" points="156,-76.5 156,-95.5 240,-95.5 240,-76.5 156,-76.5"/>
<text text-anchor="middle" x="198" y="-83.5" font-family="Helvetica,sans-Serif" font-size="10.00">Bird::reset_xy</text>
</a>
</g>
</g>
<!-- Node1&#45;&gt;Node3 -->
<g id="edge2" class="edge">
<title>Node1&#45;&gt;Node3</title>
<path fill="none" stroke="midnightblue" d="M100.02,-73.38C114.7,-75.29 130.82,-77.39 145.64,-79.32"/>
<polygon fill="midnightblue" stroke="midnightblue" points="145.29,-82.8 155.66,-80.62 146.19,-75.86 145.29,-82.8"/>
</g>
<!-- Node4 -->
<g id="node4" class="node">
<title>Node4</title>
<g id="a_node4"><a xlink:href="classBird.html#a567645317bcf90078d9cad97cadfc1ec" target="_top" xlink:title="Habilita/desabilita animacao apos colisao.">
<polygon fill="white" stroke="black" points="153,-38.5 153,-57.5 243,-57.5 243,-38.5 153,-38.5"/>
<text text-anchor="middle" x="198" y="-45.5" font-family="Helvetica,sans-Serif" font-size="10.00">Bird::set_break</text>
</a>
</g>
</g>
<!-- Node1&#45;&gt;Node4 -->
<g id="edge3" class="edge">
<title>Node1&#45;&gt;Node4</title>
<path fill="none" stroke="midnightblue" d="M100.02,-60.62C113.75,-58.83 128.76,-56.88 142.77,-55.06"/>
<polygon fill="midnightblue" stroke="midnightblue" points="143.31,-58.52 152.77,-53.76 142.4,-51.58 143.31,-58.52"/>
</g>
<!-- Node5 -->
<g id="node5" class="node">
<title>Node5</title>
<g id="a_node5"><a xlink:href="classPipeList.html#ac50083f33c6f14425302c76ff6e17650" target="_top" xlink:title="Configure difficulty (1 = static, 2 = vertical movers).">
<polygon fill="white" stroke="black" points="136,-0.5 136,-19.5 260,-19.5 260,-0.5 136,-0.5"/>
<text text-anchor="middle" x="198" y="-7.5" font-family="Helvetica,sans-Serif" font-size="10.00">PipeList::set_difficulty</text>
</a>
</g>
</g>
<!-- Node1&#45;&gt;Node5 -->
<g id="edge4" class="edge">
<title>Node1&#45;&gt;Node5</title>
<path fill="none" stroke="midnightblue" d="M70.64,-57.42C87.7,-49.3 113.17,-37.63 136,-29 141.86,-26.79 148.1,-24.63 154.26,-22.6"/>
<polygon fill="midnightblue" stroke="midnightblue" points="155.37,-25.92 163.83,-19.55 153.24,-19.26 155.37,-25.92"/>
</g>
</g>
</svg>
