<?xml version="1.0" encoding="UTF-8" standalone="no"?>
<!DOCTYPE svg PUBLIC "-//W3C//DTD SVG 1.1//EN"
 "http://www.w3.org/Graphics/SVG/1.1/DTD/svg11.dtd">
<!-- Generated by graphviz version 2.43.0 (0)
 -->
<!-- Title: Player::GetScore Pages: 1 -->
<svg width="280pt" height="66pt"
 viewBox="0.00 0.00 280.00 66.00" xmlns="http://www.w3.org/2000/svg" xmlns:xlink="http://www.w3.org/1999/xlink">
<g id="graph0" class="graph" transform="scale(1 1) rotate(0) translate(4 62)">
<title>Player::GetScore</title>
<polygon fill="white" stroke="transparent" points="-4,4 -4,-62 276,-62 276,4 -4,4"/>
<!-- Node1 -->
<g id="node1" class="node">
<title>Node1</title>
<g id="a_node1"><a xlink:title="Retorna a pontuação atual.">
<polygon fill="#bfbfbf" stroke="black" points="174,-19.5 174,-38.5 272,-38.5 272,-19.5 174,-19.5"/>
<text text-anchor="middle" x="223" y="-26.5" font-family="Helvetica,sans-Serif" font-size="10.00">Player::GetScore</text>
</a>
</g>
</g>
<!-- Node2 -->
<g id="node2" class="node">
<title>Node2</title>
<g id="a_node2"><a xlink:href="player_8cpp.html#a188ce17516b9903d7097b8a0f7643538" target="_top" xlink:title="Sobrecarga de operador de streaming para debug.">
<polygon fill="white" stroke="black" points="32,-38.5 32,-57.5 106,-57.5 106,-38.5 32,-38.5"/>
<text text-anchor="middle" x="69" y="-45.5" font-family="Helvetica,sans-Serif" font-size="10.00">operator&lt;&lt;</text>
</a>
</g>
</g>
<!-- Node1&#45;&gt;Node2 -->
<g id="edge1" class="edge">
<title>Node1&#45;&gt;Node2</title>
<path fill="none" stroke="midnightblue" d="M163.94,-36.26C144.53,-38.68 123.47,-41.32 106.21,-43.47"/>
<polygon fill="midnightblue" stroke="midnightblue" points="164.42,-39.73 173.91,-35.01 163.55,-32.78 164.42,-39.73"/>
</g>
<!-- Node3 -->
<g id="node3" class="node">
<title>Node3</title>
<g id="a_node3"><a xlink:href="classPlayer.html#aa1d3822725ad3678fde7a4de91887277" target="_top" xlink:title="Salva ranking adicionando ou atualizando um jogador.">
<polygon fill="white" stroke="black" points="0,-0.5 0,-19.5 138,-19.5 138,-0.5 0,-0.5"/>
<text text-anchor="middle" x="69" y="-7.5" font-family="Helvetica,sans-Serif" font-size="10.00">Player::SaveLeaderboard</text>
</a>
</g>
</g>
<!-- Node1&#45;&gt;Node3 -->
<g id="edge2" class="edge">
<title>Node1&#45;&gt;Node3</title>
<path fill="none" stroke="midnightblue" d="M163.81,-21.73C155.39,-20.67 146.65,-19.58 138.05,-18.51"/>
<polygon fill="midnightblue" stroke="midnightblue" points="163.55,-25.22 173.91,-22.99 164.42,-18.27 163.55,-25.22"/>
</g>
</g>
</svg>
