<?xml version="1.0" encoding="UTF-8" standalone="no"?>
<!DOCTYPE svg PUBLIC "-//W3C//DTD SVG 1.1//EN"
 "http://www.w3.org/Graphics/SVG/1.1/DTD/svg11.dtd">
<!-- Generated by graphviz version 2.43.0 (0)
 -->
<!-- Title: Bird::set_break Pages: 1 -->
<svg width="289pt" height="142pt"
 viewBox="0.00 0.00 289.00 142.00" xmlns="http://www.w3.org/2000/svg" xmlns:xlink="http://www.w3.org/1999/xlink">
<g id="graph0" class="graph" transform="scale(1 1) rotate(0) translate(4 138)">
<title>Bird::set_break</title>
<polygon fill="white" stroke="transparent" points="-4,4 -4,-138 285,-138 285,4 -4,4"/>
<!-- Node1 -->
<g id="node1" class="node">
<title>Node1</title>
<g id="a_node1"><a xlink:title="Habilita/desabilita animacao apos colisao.">
<polygon fill="#bfbfbf" stroke="black" points="191,-57.5 191,-76.5 281,-76.5 281,-57.5 191,-57.5"/>
<text text-anchor="middle" x="236" y="-64.5" font-family="Helvetica,sans-Serif" font-size="10.00">Bird::set_break</text>
</a>
</g>
</g>
<!-- Node2 -->
<g id="node2" class="node">
<title>Node2</title>
<g id="a_node2"><a xlink:href="classFlappyBird.html#a23bf3f77850cabdfa4a6bb9a7e9bfbe2" target="_top" xlink:title="Pausa fisica e anima passaro colidido.">
<polygon fill="white" stroke="black" points="21.5,-114.5 21.5,-133.5 133.5,-133.5 133.5,-114.5 21.5,-114.5"/>
<text text-anchor="middle" x="77.5" y="-121.5" font-family="Helvetica,sans-Serif" font-size="10.00">FlappyBird::breaker</text>
</a>
</g>
</g>
<!-- Node1&#45;&gt;Node2 -->
<g id="edge1" class="edge">
<title>Node1&#45;&gt;Node2</title>
<path fill="none" stroke="midnightblue" d="M208.43,-81.27C193.13,-89.06 173.34,-98.44 155,-105 144.95,-108.59 133.92,-111.76 123.44,-114.43"/>
<polygon fill="midnightblue" stroke="midnightblue" points="210.06,-84.37 217.33,-76.66 206.84,-78.15 210.06,-84.37"/>
</g>
<!-- Node3 -->
<g id="node3" class="node">
<title>Node3</title>
<g id="a_node3"><a xlink:href="classFlappyBird.html#a229cec49a07214226a449da13eb90f9d" target="_top" xlink:title="Verifica colisao entre passaro, limites ou canos.">
<polygon fill="white" stroke="black" points="0,-76.5 0,-95.5 155,-95.5 155,-76.5 0,-76.5"/>
<text text-anchor="middle" x="77.5" y="-83.5" font-family="Helvetica,sans-Serif" font-size="10.00">FlappyBird::check_collisions</text>
</a>
</g>
</g>
<!-- Node1&#45;&gt;Node3 -->
<g id="edge2" class="edge">
<title>Node1&#45;&gt;Node3</title>
<path fill="none" stroke="midnightblue" d="M181,-73.56C172.63,-74.57 163.84,-75.64 155.08,-76.7"/>
<polygon fill="midnightblue" stroke="midnightblue" points="181.48,-77.02 190.99,-72.34 180.64,-70.07 181.48,-77.02"/>
</g>
<!-- Node4 -->
<g id="node4" class="node">
<title>Node4</title>
<g id="a_node4"><a xlink:href="classFlappyBird.html#a185beae77101e7a8be97f7a4ac6a19d8" target="_top" xlink:title="Reseta jogo para configuracao inicial.">
<polygon fill="white" stroke="black" points="27.5,-38.5 27.5,-57.5 127.5,-57.5 127.5,-38.5 27.5,-38.5"/>
<text text-anchor="middle" x="77.5" y="-45.5" font-family="Helvetica,sans-Serif" font-size="10.00">FlappyBird::reset</text>
</a>
</g>
</g>
<!-- Node1&#45;&gt;Node4 -->
<g id="edge3" class="edge">
<title>Node1&#45;&gt;Node4</title>
<path fill="none" stroke="midnightblue" d="M181.03,-60.45C163.71,-58.35 144.63,-56.03 127.68,-53.97"/>
<polygon fill="midnightblue" stroke="midnightblue" points="180.64,-63.93 190.99,-61.66 181.48,-56.98 180.64,-63.93"/>
</g>
<!-- Node5 -->
<g id="node5" class="node">
<title>Node5</title>
<g id="a_node5"><a xlink:href="classFlappyBird.html#afbf176f9bfba9a2eb43f29e5e665d239" target="_top" xlink:title="Retoma jogo apos pausa.">
<polygon fill="white" stroke="black" points="15.5,-0.5 15.5,-19.5 139.5,-19.5 139.5,-0.5 15.5,-0.5"/>
<text text-anchor="middle" x="77.5" y="-7.5" font-family="Helvetica,sans-Serif" font-size="10.00">FlappyBird::unbreaker</text>
</a>
</g>
</g>
<!-- Node1&#45;&gt;Node5 -->
<g id="edge4" class="edge">
<title>Node1&#45;&gt;Node5</title>
<path fill="none" stroke="midnightblue" d="M208.43,-52.73C193.13,-44.94 173.34,-35.56 155,-29 144.95,-25.41 133.92,-22.24 123.44,-19.57"/>
<polygon fill="midnightblue" stroke="midnightblue" points="206.84,-55.85 217.33,-57.34 210.06,-49.63 206.84,-55.85"/>
</g>
</g>
</svg>
