<?xml version="1.0" encoding="UTF-8" standalone="no"?>
<!DOCTYPE svg PUBLIC "-//W3C//DTD SVG 1.1//EN"
 "http://www.w3.org/Graphics/SVG/1.1/DTD/svg11.dtd">
<!-- Generated by graphviz version 2.43.0 (0)
 -->
<!-- Title: Motion::draw Pages: 1 -->
<svg width="258pt" height="218pt"
 viewBox="0.00 0.00 258.00 218.00" xmlns="http://www.w3.org/2000/svg" xmlns:xlink="http://www.w3.org/1999/xlink">
<g id="graph0" class="graph" transform="scale(1 1) rotate(0) translate(4 214)">
<title>Motion::draw</title>
<polygon fill="white" stroke="transparent" points="-4,4 -4,-214 254,-214 254,4 -4,4"/>
<!-- Node1 -->
<g id="node1" class="node">
<title>Node1</title>
<g id="a_node1"><a xlink:title="Desenha todos os elementos do background baseado no cenário ativo.">
<polygon fill="#bfbfbf" stroke="black" points="170,-95.5 170,-114.5 250,-114.5 250,-95.5 170,-95.5"/>
<text text-anchor="middle" x="210" y="-102.5" font-family="Helvetica,sans-Serif" font-size="10.00">Motion::draw</text>
</a>
</g>
</g>
<!-- Node2 -->
<g id="node2" class="node">
<title>Node2</title>
<g id="a_node2"><a xlink:href="classDifficultyMenu.html#acace55cbd6b946a87e133cfed19594f2" target="_top" xlink:title="Desenha todos os elementos visuais do estado na tela.">
<polygon fill="white" stroke="black" points="8,-190.5 8,-209.5 126,-209.5 126,-190.5 8,-190.5"/>
<text text-anchor="middle" x="67" y="-197.5" font-family="Helvetica,sans-Serif" font-size="10.00">DifficultyMenu::draw</text>
</a>
</g>
</g>
<!-- Node1&#45;&gt;Node2 -->
<g id="edge1" class="edge">
<title>Node1&#45;&gt;Node2</title>
<path fill="none" stroke="midnightblue" d="M195.83,-122.9C182.2,-140.19 159.38,-165.92 134,-181 127.54,-184.84 120.27,-187.94 112.96,-190.43"/>
<polygon fill="midnightblue" stroke="midnightblue" points="198.79,-124.8 202.09,-114.73 193.23,-120.54 198.79,-124.8"/>
</g>
<!-- Node3 -->
<g id="node3" class="node">
<title>Node3</title>
<g id="a_node3"><a xlink:href="classLeaderboardMenu.html#af5be1d3eea81adbc7822eaa4697cd9c4" target="_top" xlink:title="Desenha todos os elementos visuais do estado na tela.">
<polygon fill="white" stroke="black" points="0,-152.5 0,-171.5 134,-171.5 134,-152.5 0,-152.5"/>
<text text-anchor="middle" x="67" y="-159.5" font-family="Helvetica,sans-Serif" font-size="10.00">LeaderboardMenu::draw</text>
</a>
</g>
</g>
<!-- Node1&#45;&gt;Node3 -->
<g id="edge2" class="edge">
<title>Node1&#45;&gt;Node3</title>
<path fill="none" stroke="midnightblue" d="M183.29,-119.55C169.06,-127.21 150.89,-136.36 134,-143 125.01,-146.53 115.1,-149.73 105.76,-152.46"/>
<polygon fill="midnightblue" stroke="midnightblue" points="185.35,-122.41 192.44,-114.54 181.99,-116.27 185.35,-122.41"/>
</g>
<!-- Node4 -->
<g id="node4" class="node">
<title>Node4</title>
<g id="a_node4"><a xlink:href="classLoadName.html#a44a209d257f203588c151ceaf8d7607e" target="_top" xlink:title="Desenha todos os elementos visuais do estado na tela.">
<polygon fill="white" stroke="black" points="17.5,-114.5 17.5,-133.5 116.5,-133.5 116.5,-114.5 17.5,-114.5"/>
<text text-anchor="middle" x="67" y="-121.5" font-family="Helvetica,sans-Serif" font-size="10.00">LoadName::draw</text>
</a>
</g>
</g>
<!-- Node1&#45;&gt;Node4 -->
<g id="edge3" class="edge">
<title>Node1&#45;&gt;Node4</title>
<path fill="none" stroke="midnightblue" d="M159.79,-111.63C145.8,-113.52 130.57,-115.57 116.61,-117.45"/>
<polygon fill="midnightblue" stroke="midnightblue" points="160.28,-115.1 169.72,-110.29 159.35,-108.16 160.28,-115.1"/>
</g>
<!-- Node5 -->
<g id="node5" class="node">
<title>Node5</title>
<g id="a_node5"><a xlink:href="classMainMenu.html#acb76d4f007c328dab0a34bfe379128e2" target="_top" xlink:title="Desenha todos os elementos visuais do menu principal na tela.">
<polygon fill="white" stroke="black" points="18,-76.5 18,-95.5 116,-95.5 116,-76.5 18,-76.5"/>
<text text-anchor="middle" x="67" y="-83.5" font-family="Helvetica,sans-Serif" font-size="10.00">MainMenu::draw</text>
</a>
</g>
</g>
<!-- Node1&#45;&gt;Node5 -->
<g id="edge4" class="edge">
<title>Node1&#45;&gt;Node5</title>
<path fill="none" stroke="midnightblue" d="M159.69,-98.36C145.55,-96.45 130.16,-94.38 116.1,-92.48"/>
<polygon fill="midnightblue" stroke="midnightblue" points="159.35,-101.84 169.72,-99.71 160.28,-94.9 159.35,-101.84"/>
</g>
<!-- Node6 -->
<g id="node6" class="node">
<title>Node6</title>
<g id="a_node6"><a xlink:href="classPlay.html#a658ac92ca655bfd00d475e9c0402f2c5" target="_top" xlink:title="Renderiza cena completa.">
<polygon fill="white" stroke="black" points="33.5,-38.5 33.5,-57.5 100.5,-57.5 100.5,-38.5 33.5,-38.5"/>
<text text-anchor="middle" x="67" y="-45.5" font-family="Helvetica,sans-Serif" font-size="10.00">Play::draw</text>
</a>
</g>
</g>
<!-- Node1&#45;&gt;Node6 -->
<g id="edge5" class="edge">
<title>Node1&#45;&gt;Node6</title>
<path fill="none" stroke="midnightblue" d="M183.29,-90.45C169.06,-82.79 150.89,-73.64 134,-67 123.35,-62.81 111.4,-59.09 100.63,-56.08"/>
<polygon fill="midnightblue" stroke="midnightblue" points="181.99,-93.73 192.44,-95.46 185.35,-87.59 181.99,-93.73"/>
</g>
<!-- Node7 -->
<g id="node7" class="node">
<title>Node7</title>
<g id="a_node7"><a xlink:href="classSettingsMenu.html#afb7ad08f3b72956a39624f6667b7ebe1" target="_top" xlink:title="Desenha todos os elementos visuais do estado na tela.">
<polygon fill="white" stroke="black" points="10.5,-0.5 10.5,-19.5 123.5,-19.5 123.5,-0.5 10.5,-0.5"/>
<text text-anchor="middle" x="67" y="-7.5" font-family="Helvetica,sans-Serif" font-size="10.00">SettingsMenu::draw</text>
</a>
</g>
</g>
<!-- Node1&#45;&gt;Node7 -->
<g id="edge6" class="edge">
<title>Node1&#45;&gt;Node7</title>
<path fill="none" stroke="midnightblue" d="M195.83,-87.1C182.2,-69.81 159.38,-44.08 134,-29 127.54,-25.16 120.27,-22.06 112.96,-19.57"/>
<polygon fill="midnightblue" stroke="midnightblue" points="193.23,-89.46 202.09,-95.27 198.79,-85.2 193.23,-89.46"/>
</g>
</g>
</svg>
