<?xml version="1.0" encoding="UTF-8" standalone="no"?>
<!DOCTYPE svg PUBLIC "-//W3C//DTD SVG 1.1//EN"
 "http://www.w3.org/Graphics/SVG/1.1/DTD/svg11.dtd">
<!-- Generated by graphviz version 2.43.0 (0)
 -->
<!-- Title: PipeList::add_pipe_pair Pages: 1 -->
<svg width="427pt" height="39pt"
 viewBox="0.00 0.00 427.00 39.00" xmlns="http://www.w3.org/2000/svg" xmlns:xlink="http://www.w3.org/1999/xlink">
<g id="graph0" class="graph" transform="scale(1 1) rotate(0) translate(4 35)">
<title>PipeList::add_pipe_pair</title>
<polygon fill="white" stroke="transparent" points="-4,4 -4,-35 423,-35 423,4 -4,4"/>
<!-- Node1 -->
<g id="node1" class="node">
<title>Node1</title>
<g id="a_node1"><a xlink:title="Spawn a new pair if gap condition is satisfied.">
<polygon fill="#bfbfbf" stroke="black" points="290,-6 290,-25 419,-25 419,-6 290,-6"/>
<text text-anchor="middle" x="354.5" y="-13" font-family="Helvetica,sans-Serif" font-size="10.00">PipeList::add_pipe_pair</text>
</a>
</g>
</g>
<!-- Node2 -->
<g id="node2" class="node">
<title>Node2</title>
<g id="a_node2"><a xlink:href="classFlappyBird.html#a4984ed1f498df20ac647f427fae92e5d" target="_top" xlink:title="Adiciona / remove canos conforme necessidade.">
<polygon fill="white" stroke="black" points="145,-0.5 145,-30.5 254,-30.5 254,-0.5 145,-0.5"/>
<text text-anchor="start" x="153" y="-18.5" font-family="Helvetica,sans-Serif" font-size="10.00">FlappyBird::control</text>
<text text-anchor="middle" x="199.5" y="-7.5" font-family="Helvetica,sans-Serif" font-size="10.00">_pipes</text>
</a>
</g>
</g>
<!-- Node1&#45;&gt;Node2 -->
<g id="edge1" class="edge">
<title>Node1&#45;&gt;Node2</title>
<path fill="none" stroke="midnightblue" d="M279.89,-15.5C271.29,-15.5 262.64,-15.5 254.37,-15.5"/>
<polygon fill="midnightblue" stroke="midnightblue" points="279.94,-19 289.94,-15.5 279.94,-12 279.94,-19"/>
</g>
<!-- Node3 -->
<g id="node3" class="node">
<title>Node3</title>
<g id="a_node3"><a xlink:href="classFlappyBird.html#acfe4ae73e3b97741bf9acd9162ba8070" target="_top" xlink:title="Atualiza logica principal (estado, objetos, pipes).">
<polygon fill="white" stroke="black" points="0,-6 0,-25 109,-25 109,-6 0,-6"/>
<text text-anchor="middle" x="54.5" y="-13" font-family="Helvetica,sans-Serif" font-size="10.00">FlappyBird::update</text>
</a>
</g>
</g>
<!-- Node2&#45;&gt;Node3 -->
<g id="edge2" class="edge">
<title>Node2&#45;&gt;Node3</title>
<path fill="none" stroke="midnightblue" d="M134.68,-15.5C126.25,-15.5 117.69,-15.5 109.46,-15.5"/>
<polygon fill="midnightblue" stroke="midnightblue" points="134.85,-19 144.85,-15.5 134.85,-12 134.85,-19"/>
</g>
</g>
</svg>
