<?xml version="1.0" encoding="UTF-8" standalone="no"?>
<!DOCTYPE svg PUBLIC "-//W3C//DTD SVG 1.1//EN"
 "http://www.w3.org/Graphics/SVG/1.1/DTD/svg11.dtd">
<!-- Generated by graphviz version 2.43.0 (0)
 -->
<!-- Title: Bird::jump Pages: 1 -->
<svg width="218pt" height="66pt"
 viewBox="0.00 0.00 218.00 66.00" xmlns="http://www.w3.org/2000/svg" xmlns:xlink="http://www.w3.org/1999/xlink">
<g id="graph0" class="graph" transform="scale(1 1) rotate(0) translate(4 62)">
<title>Bird::jump</title>
<polygon fill="white" stroke="transparent" points="-4,4 -4,-62 214,-62 214,4 -4,4"/>
<!-- Node1 -->
<g id="node1" class="node">
<title>Node1</title>
<g id="a_node1"><a xlink:title="Aplica impulso de pulo.">
<polygon fill="#bfbfbf" stroke="black" points="143,-19.5 143,-38.5 210,-38.5 210,-19.5 143,-19.5"/>
<text text-anchor="middle" x="176.5" y="-26.5" font-family="Helvetica,sans-Serif" font-size="10.00">Bird::jump</text>
</a>
</g>
</g>
<!-- Node2 -->
<g id="node2" class="node">
<title>Node2</title>
<g id="a_node2"><a xlink:href="classFlappyBird.html#adfe007f047a54586cbada405fdf3a277" target="_top" xlink:title="Comanda pulo do passaro (estado 2).">
<polygon fill="white" stroke="black" points="3.5,-38.5 3.5,-57.5 103.5,-57.5 103.5,-38.5 3.5,-38.5"/>
<text text-anchor="middle" x="53.5" y="-45.5" font-family="Helvetica,sans-Serif" font-size="10.00">FlappyBird::jump</text>
</a>
</g>
</g>
<!-- Node1&#45;&gt;Node2 -->
<g id="edge1" class="edge">
<title>Node1&#45;&gt;Node2</title>
<path fill="none" stroke="midnightblue" d="M132.82,-35.7C123.38,-37.18 113.31,-38.77 103.64,-40.28"/>
<polygon fill="midnightblue" stroke="midnightblue" points="133.42,-39.15 142.76,-34.14 132.33,-32.24 133.42,-39.15"/>
</g>
<!-- Node3 -->
<g id="node3" class="node">
<title>Node3</title>
<g id="a_node3"><a xlink:href="classFlappyBird.html#ab327a6cfe8d4afd6382070d98c7d00c0" target="_top" xlink:title="Transita do estado 1 para 2 e aplica primeiro pulo.">
<polygon fill="white" stroke="black" points="0,-0.5 0,-19.5 107,-19.5 107,-0.5 0,-0.5"/>
<text text-anchor="middle" x="53.5" y="-7.5" font-family="Helvetica,sans-Serif" font-size="10.00">FlappyBird::starter</text>
</a>
</g>
</g>
<!-- Node1&#45;&gt;Node3 -->
<g id="edge2" class="edge">
<title>Node1&#45;&gt;Node3</title>
<path fill="none" stroke="midnightblue" d="M132.68,-22.28C124.48,-20.99 115.8,-19.63 107.33,-18.3"/>
<polygon fill="midnightblue" stroke="midnightblue" points="132.33,-25.76 142.76,-23.86 133.42,-18.85 132.33,-25.76"/>
</g>
</g>
</svg>
