<?xml version="1.0" encoding="UTF-8" standalone="no"?>
<!DOCTYPE svg PUBLIC "-//W3C//DTD SVG 1.1//EN"
 "http://www.w3.org/Graphics/SVG/1.1/DTD/svg11.dtd">
<!-- Generated by graphviz version 2.43.0 (0)
 -->
<!-- Title: include/defines.hpp Pages: 1 -->
<svg width="1862pt" height="509pt"
 viewBox="0.00 0.00 1861.50 509.00" xmlns="http://www.w3.org/2000/svg" xmlns:xlink="http://www.w3.org/1999/xlink">
<g id="graph0" class="graph" transform="scale(1 1) rotate(0) translate(4 505)">
<title>include/defines.hpp</title>
<polygon fill="white" stroke="transparent" points="-4,4 -4,-505 1857.5,-505 1857.5,4 -4,4"/>
<!-- Node1 -->
<g id="node1" class="node">
<title>Node1</title>
<g id="a_node1"><a xlink:title="Constantes globais, macros e estruturas auxiliares do jogo.">
<polygon fill="#bfbfbf" stroke="black" points="1091.5,-481.5 1091.5,-500.5 1202.5,-500.5 1202.5,-481.5 1091.5,-481.5"/>
<text text-anchor="middle" x="1147" y="-488.5" font-family="Helvetica,sans-Serif" font-size="10.00">include/defines.hpp</text>
</a>
</g>
</g>
<!-- Node2 -->
<g id="node2" class="node">
<title>Node2</title>
<g id="a_node2"><a xlink:href="bird_8hpp.html" target="_top" xlink:title="Declaracao da classe Bird (personagem controlavel).">
<polygon fill="white" stroke="black" points="66.5,-185 66.5,-204 161.5,-204 161.5,-185 66.5,-185"/>
<text text-anchor="middle" x="114" y="-192" font-family="Helvetica,sans-Serif" font-size="10.00">include/bird.hpp</text>
</a>
</g>
</g>
<!-- Node1&#45;&gt;Node2 -->
<g id="edge1" class="edge">
<title>Node1&#45;&gt;Node2</title>
<path fill="none" stroke="midnightblue" d="M1080.98,-490.42C842.27,-491.07 38,-485.45 38,-380 38,-380 38,-380 38,-322 38,-271.27 83.46,-223.34 104.06,-204.23"/>
<polygon fill="midnightblue" stroke="midnightblue" points="1081.26,-493.92 1091.24,-490.39 1081.23,-486.92 1081.26,-493.92"/>
</g>
<!-- Node3 -->
<g id="node3" class="node">
<title>Node3</title>
<g id="a_node3"><a xlink:href="flappy__bird__controller_8hpp.html" target="_top" xlink:title="Declaracao da classe FlappyBird (controlador principal).">
<polygon fill="white" stroke="black" points="478.5,-112.5 478.5,-142.5 587.5,-142.5 587.5,-112.5 478.5,-112.5"/>
<text text-anchor="start" x="486.5" y="-130.5" font-family="Helvetica,sans-Serif" font-size="10.00">include/flappy_bird</text>
<text text-anchor="middle" x="533" y="-119.5" font-family="Helvetica,sans-Serif" font-size="10.00">_controller.hpp</text>
</a>
</g>
</g>
<!-- Node1&#45;&gt;Node3 -->
<g id="edge13" class="edge">
<title>Node1&#45;&gt;Node3</title>
<path fill="none" stroke="midnightblue" d="M1081.26,-487.83C890.12,-480.66 348,-453.82 348,-380 348,-380 348,-380 348,-322 348,-287.07 343.46,-270.86 368,-246 410.12,-203.34 452.84,-249.43 498,-210 518.19,-192.38 527.1,-161.06 530.74,-142.81"/>
<polygon fill="midnightblue" stroke="midnightblue" points="1081.33,-491.34 1091.45,-488.21 1081.59,-484.34 1081.33,-491.34"/>
</g>
<!-- Node12 -->
<g id="node12" class="node">
<title>Node12</title>
<g id="a_node12"><a xlink:href="init_8hpp.html" target="_top" xlink:title="Declara funções de inicialização e finalização do Allegro.">
<polygon fill="white" stroke="black" points="807,-313.5 807,-332.5 899,-332.5 899,-313.5 807,-313.5"/>
<text text-anchor="middle" x="853" y="-320.5" font-family="Helvetica,sans-Serif" font-size="10.00">include/init.hpp</text>
</a>
</g>
</g>
<!-- Node1&#45;&gt;Node12 -->
<g id="edge14" class="edge">
<title>Node1&#45;&gt;Node12</title>
<path fill="none" stroke="midnightblue" d="M1115.6,-477.55C1095.14,-469.1 1068.05,-457.27 1045,-445 974.39,-407.43 895.03,-353.36 865.2,-332.58"/>
<polygon fill="midnightblue" stroke="midnightblue" points="1114.49,-480.88 1125.07,-481.42 1117.14,-474.4 1114.49,-480.88"/>
</g>
<!-- Node14 -->
<g id="node14" class="node">
<title>Node14</title>
<g id="a_node14"><a xlink:href="pipe_8hpp.html" target="_top" xlink:title="Declaration of pipe&#45;related classes (Pipe, PipePair, PipeList).">
<polygon fill="white" stroke="black" points="391.5,-185 391.5,-204 488.5,-204 488.5,-185 391.5,-185"/>
<text text-anchor="middle" x="440" y="-192" font-family="Helvetica,sans-Serif" font-size="10.00">include/pipe.hpp</text>
</a>
</g>
</g>
<!-- Node1&#45;&gt;Node14 -->
<g id="edge73" class="edge">
<title>Node1&#45;&gt;Node14</title>
<path fill="none" stroke="midnightblue" d="M1081.31,-490.44C898.52,-491.11 393.46,-488.92 334,-445 309.23,-426.7 310,-410.8 310,-380 310,-380 310,-380 310,-322 310,-286.58 310.75,-272.72 334,-246 352.67,-224.55 382.46,-211.48 405.72,-204.03"/>
<polygon fill="midnightblue" stroke="midnightblue" points="1081.34,-493.94 1091.32,-490.4 1081.31,-486.94 1081.34,-493.94"/>
</g>
<!-- Node19 -->
<g id="node19" class="node">
<title>Node19</title>
<g id="a_node19"><a xlink:href="difficulty__menu_8hpp.html" target="_top" xlink:title="Definição da classe DifficultyMenu, que representa o estado do menu de seleção de dificuldade.">
<polygon fill="white" stroke="black" points="982.5,-246.5 982.5,-276.5 1113.5,-276.5 1113.5,-246.5 982.5,-246.5"/>
<text text-anchor="start" x="990.5" y="-264.5" font-family="Helvetica,sans-Serif" font-size="10.00">include/states/difficulty</text>
<text text-anchor="middle" x="1048" y="-253.5" font-family="Helvetica,sans-Serif" font-size="10.00">_menu.hpp</text>
</a>
</g>
</g>
<!-- Node1&#45;&gt;Node19 -->
<g id="edge75" class="edge">
<title>Node1&#45;&gt;Node19</title>
<path fill="none" stroke="midnightblue" d="M1139.15,-471.95C1120.03,-428.01 1071.36,-316.18 1054.15,-276.62"/>
<polygon fill="midnightblue" stroke="midnightblue" points="1136.04,-473.59 1143.24,-481.36 1142.46,-470.79 1136.04,-473.59"/>
</g>
<!-- Node22 -->
<g id="node22" class="node">
<title>Node22</title>
<g id="a_node22"><a xlink:href="leaderboard__menu_8hpp.html" target="_top" xlink:title="Definição da classe LeaderboardMenu, que representa o estado da tela de ranking.">
<polygon fill="white" stroke="black" points="1208,-246.5 1208,-276.5 1354,-276.5 1354,-246.5 1208,-246.5"/>
<text text-anchor="start" x="1216" y="-264.5" font-family="Helvetica,sans-Serif" font-size="10.00">include/states/leaderboard</text>
<text text-anchor="middle" x="1281" y="-253.5" font-family="Helvetica,sans-Serif" font-size="10.00">_menu.hpp</text>
</a>
</g>
</g>
<!-- Node1&#45;&gt;Node22 -->
<g id="edge76" class="edge">
<title>Node1&#45;&gt;Node22</title>
<path fill="none" stroke="midnightblue" d="M1157.3,-472.51C1182.95,-428.96 1249.29,-316.34 1272.68,-276.62"/>
<polygon fill="midnightblue" stroke="midnightblue" points="1154.15,-470.97 1152.09,-481.36 1160.18,-474.52 1154.15,-470.97"/>
</g>
<!-- Node24 -->
<g id="node24" class="node">
<title>Node24</title>
<g id="a_node24"><a xlink:href="load__game_8hpp.html" target="_top" xlink:title="Definição da classe LoadName, que representa o estado de inserção de nome.">
<polygon fill="white" stroke="black" points="376.5,-246.5 376.5,-276.5 485.5,-276.5 485.5,-246.5 376.5,-246.5"/>
<text text-anchor="start" x="384.5" y="-264.5" font-family="Helvetica,sans-Serif" font-size="10.00">include/states/load</text>
<text text-anchor="middle" x="431" y="-253.5" font-family="Helvetica,sans-Serif" font-size="10.00">_game.hpp</text>
</a>
</g>
</g>
<!-- Node1&#45;&gt;Node24 -->
<g id="edge77" class="edge">
<title>Node1&#45;&gt;Node24</title>
<path fill="none" stroke="midnightblue" d="M1110.39,-478.37C989.87,-440.07 605.8,-318.04 475.07,-276.5"/>
<polygon fill="midnightblue" stroke="midnightblue" points="1109.65,-481.8 1120.24,-481.5 1111.77,-475.13 1109.65,-481.8"/>
</g>
<!-- Node25 -->
<g id="node25" class="node">
<title>Node25</title>
<g id="a_node25"><a xlink:href="main__menu_8hpp.html" target="_top" xlink:title="Definição da classe MainMenu, o estado que representa o menu principal do jogo.">
<polygon fill="white" stroke="black" points="1556.5,-246.5 1556.5,-276.5 1669.5,-276.5 1669.5,-246.5 1556.5,-246.5"/>
<text text-anchor="start" x="1564.5" y="-264.5" font-family="Helvetica,sans-Serif" font-size="10.00">include/states/main</text>
<text text-anchor="middle" x="1613" y="-253.5" font-family="Helvetica,sans-Serif" font-size="10.00">_menu.hpp</text>
</a>
</g>
</g>
<!-- Node1&#45;&gt;Node25 -->
<g id="edge78" class="edge">
<title>Node1&#45;&gt;Node25</title>
<path fill="none" stroke="midnightblue" d="M1212.74,-485.51C1266,-480.25 1342.25,-468.95 1405,-445 1486.78,-413.78 1507.72,-397.41 1567,-333 1583.13,-315.47 1597.37,-291.68 1605.59,-276.71"/>
<polygon fill="midnightblue" stroke="midnightblue" points="1212.36,-482.03 1202.73,-486.46 1213.02,-489 1212.36,-482.03"/>
</g>
<!-- Node27 -->
<g id="node27" class="node">
<title>Node27</title>
<g id="a_node27"><a xlink:href="settings__menu_8hpp.html" target="_top" xlink:title="Definição da classe SettingsMenu, que representa o estado do menu de configurações.">
<polygon fill="white" stroke="black" points="1372.5,-246.5 1372.5,-276.5 1499.5,-276.5 1499.5,-246.5 1372.5,-246.5"/>
<text text-anchor="start" x="1380.5" y="-264.5" font-family="Helvetica,sans-Serif" font-size="10.00">include/states/settings</text>
<text text-anchor="middle" x="1436" y="-253.5" font-family="Helvetica,sans-Serif" font-size="10.00">_menu.hpp</text>
</a>
</g>
</g>
<!-- Node1&#45;&gt;Node27 -->
<g id="edge79" class="edge">
<title>Node1&#45;&gt;Node27</title>
<path fill="none" stroke="midnightblue" d="M1210.44,-479.71C1297.05,-464.23 1445.23,-432.08 1477,-389 1502.9,-353.88 1468.21,-301.67 1448.28,-276.74"/>
<polygon fill="midnightblue" stroke="midnightblue" points="1209.69,-476.29 1200.45,-481.48 1210.91,-483.19 1209.69,-476.29"/>
</g>
<!-- Node29 -->
<g id="node29" class="node">
<title>Node29</title>
<g id="a_node29"><a xlink:href="motion_8cpp.html" target="_top" xlink:title="Implementação da classe Motion (parallax e clima).">
<polygon fill="white" stroke="black" points="1764.5,-252 1764.5,-271 1853.5,-271 1853.5,-252 1764.5,-252"/>
<text text-anchor="middle" x="1809" y="-259" font-family="Helvetica,sans-Serif" font-size="10.00">src/motion.cpp</text>
</a>
</g>
</g>
<!-- Node1&#45;&gt;Node29 -->
<g id="edge80" class="edge">
<title>Node1&#45;&gt;Node29</title>
<path fill="none" stroke="midnightblue" d="M1212.86,-490.63C1375.42,-491.49 1785.61,-489.22 1827,-445 1873.78,-395.03 1829.29,-300.27 1813.84,-271.2"/>
<polygon fill="midnightblue" stroke="midnightblue" points="1212.54,-487.13 1202.52,-490.57 1212.5,-494.13 1212.54,-487.13"/>
</g>
<!-- Node30 -->
<g id="node30" class="node">
<title>Node30</title>
<g id="a_node30"><a xlink:href="motion_8hpp.html" target="_top" xlink:title="Gerencia efeitos de parallax e animações de cenário.">
<polygon fill="white" stroke="black" points="1708,-425.5 1708,-444.5 1818,-444.5 1818,-425.5 1708,-425.5"/>
<text text-anchor="middle" x="1763" y="-432.5" font-family="Helvetica,sans-Serif" font-size="10.00">include/motion.hpp</text>
</a>
</g>
</g>
<!-- Node1&#45;&gt;Node30 -->
<g id="edge59" class="edge">
<title>Node1&#45;&gt;Node30</title>
<path fill="none" stroke="midnightblue" d="M1212.83,-485.6C1315.67,-478.5 1520.64,-463.43 1694,-445 1698.44,-444.53 1703.05,-444 1707.67,-443.45"/>
<polygon fill="midnightblue" stroke="midnightblue" points="1212.34,-482.13 1202.6,-486.3 1212.82,-489.11 1212.34,-482.13"/>
</g>
<!-- Node31 -->
<g id="node31" class="node">
<title>Node31</title>
<g id="a_node31"><a xlink:href="state_8hpp.html" target="_top" xlink:title="Interface base para estados da máquina de estados do jogo.">
<polygon fill="white" stroke="black" points="1366.5,-369.5 1366.5,-388.5 1467.5,-388.5 1467.5,-369.5 1366.5,-369.5"/>
<text text-anchor="middle" x="1417" y="-376.5" font-family="Helvetica,sans-Serif" font-size="10.00">include/state.hpp</text>
</a>
</g>
</g>
<!-- Node1&#45;&gt;Node31 -->
<g id="edge74" class="edge">
<title>Node1&#45;&gt;Node31</title>
<path fill="none" stroke="midnightblue" d="M1177.47,-477.59C1232.79,-455.05 1348.39,-407.95 1395.91,-388.59"/>
<polygon fill="midnightblue" stroke="midnightblue" points="1176.13,-474.35 1168.19,-481.37 1178.77,-480.84 1176.13,-474.35"/>
</g>
<!-- Node2&#45;&gt;Node3 -->
<g id="edge2" class="edge">
<title>Node2&#45;&gt;Node3</title>
<path fill="none" stroke="midnightblue" d="M154.11,-182.42C159.43,-181.16 164.83,-179.98 170,-179 301.96,-154.11 337.71,-166.09 470,-143 472.76,-142.52 475.59,-141.99 478.44,-141.43"/>
<polygon fill="midnightblue" stroke="midnightblue" points="152.92,-179.11 144.06,-184.93 154.61,-185.91 152.92,-179.11"/>
</g>
<!-- Node10 -->
<g id="node10" class="node">
<title>Node10</title>
<g id="a_node10"><a xlink:href="flappy__bird__controller_8cpp.html" target="_top" xlink:title="Controlador de fluxo do jogo (pontuação, eventos globais).">
<polygon fill="white" stroke="black" points="411.5,-56.5 411.5,-75.5 570.5,-75.5 570.5,-56.5 411.5,-56.5"/>
<text text-anchor="middle" x="491" y="-63.5" font-family="Helvetica,sans-Serif" font-size="10.00">src/flappy_bird_controller.cpp</text>
</a>
</g>
</g>
<!-- Node2&#45;&gt;Node10 -->
<g id="edge12" class="edge">
<title>Node2&#45;&gt;Node10</title>
<path fill="none" stroke="midnightblue" d="M149.12,-181.71C224.34,-156.48 399.49,-97.71 465.35,-75.61"/>
<polygon fill="midnightblue" stroke="midnightblue" points="147.98,-178.41 139.62,-184.9 150.21,-185.04 147.98,-178.41"/>
</g>
<!-- Node11 -->
<g id="node11" class="node">
<title>Node11</title>
<g id="a_node11"><a xlink:href="bird_8cpp.html" target="_top" xlink:title="Implementação da classe Bird (animação, física e colisões).">
<polygon fill="white" stroke="black" points="77.5,-118 77.5,-137 150.5,-137 150.5,-118 77.5,-118"/>
<text text-anchor="middle" x="114" y="-125" font-family="Helvetica,sans-Serif" font-size="10.00">src/bird.cpp</text>
</a>
</g>
</g>
<!-- Node2&#45;&gt;Node11 -->
<g id="edge11" class="edge">
<title>Node2&#45;&gt;Node11</title>
<path fill="none" stroke="midnightblue" d="M114,-174.54C114,-162.17 114,-146.62 114,-137.13"/>
<polygon fill="midnightblue" stroke="midnightblue" points="110.5,-174.73 114,-184.73 117.5,-174.73 110.5,-174.73"/>
</g>
<!-- Node4 -->
<g id="node4" class="node">
<title>Node4</title>
<g id="a_node4"><a xlink:href="allegro__interface_8hpp.html" target="_top" xlink:title="Declara o controlador que integra Allegro e a máquina de estados.">
<polygon fill="white" stroke="black" points="673,-56.5 673,-75.5 831,-75.5 831,-56.5 673,-56.5"/>
<text text-anchor="middle" x="752" y="-63.5" font-family="Helvetica,sans-Serif" font-size="10.00">include/allegro_interface.hpp</text>
</a>
</g>
</g>
<!-- Node3&#45;&gt;Node4 -->
<g id="edge3" class="edge">
<title>Node3&#45;&gt;Node4</title>
<path fill="none" stroke="midnightblue" d="M594.28,-109.85C635.4,-98.68 687.85,-84.43 720.69,-75.51"/>
<polygon fill="midnightblue" stroke="midnightblue" points="593.36,-106.48 584.62,-112.47 595.19,-113.23 593.36,-106.48"/>
</g>
<!-- Node7 -->
<g id="node7" class="node">
<title>Node7</title>
<g id="a_node7"><a xlink:href="play_8hpp.html" target="_top" xlink:title="Declaracao da classe Play, responsavel pelo estado de jogo ativo.">
<polygon fill="white" stroke="black" points="1504,-56.5 1504,-75.5 1632,-75.5 1632,-56.5 1504,-56.5"/>
<text text-anchor="middle" x="1568" y="-63.5" font-family="Helvetica,sans-Serif" font-size="10.00">include/states/play.hpp</text>
</a>
</g>
</g>
<!-- Node3&#45;&gt;Node7 -->
<g id="edge6" class="edge">
<title>Node3&#45;&gt;Node7</title>
<path fill="none" stroke="midnightblue" d="M597.72,-122.78C783.73,-112.09 1318.31,-81.35 1503.74,-70.69"/>
<polygon fill="midnightblue" stroke="midnightblue" points="597.33,-119.3 587.55,-123.36 597.74,-126.28 597.33,-119.3"/>
</g>
<!-- Node3&#45;&gt;Node10 -->
<g id="edge10" class="edge">
<title>Node3&#45;&gt;Node10</title>
<path fill="none" stroke="midnightblue" d="M517.19,-104.1C510.19,-94.19 502.37,-83.11 497.11,-75.66"/>
<polygon fill="midnightblue" stroke="midnightblue" points="514.42,-106.25 523.05,-112.4 520.14,-102.21 514.42,-106.25"/>
</g>
<!-- Node5 -->
<g id="node5" class="node">
<title>Node5</title>
<g id="a_node5"><a xlink:href="allegro__interface_8cpp.html" target="_top" xlink:title="Implementação do controlador principal que integra Allegro às lógicas de estado do jogo.">
<polygon fill="white" stroke="black" points="1489.5,-0.5 1489.5,-19.5 1626.5,-19.5 1626.5,-0.5 1489.5,-0.5"/>
<text text-anchor="middle" x="1558" y="-7.5" font-family="Helvetica,sans-Serif" font-size="10.00">src/allegro_interface.cpp</text>
</a>
</g>
</g>
<!-- Node4&#45;&gt;Node5 -->
<g id="edge4" class="edge">
<title>Node4&#45;&gt;Node5</title>
<path fill="none" stroke="midnightblue" d="M841.56,-59C1004,-48.12 1343.84,-25.35 1489.42,-15.59"/>
<polygon fill="midnightblue" stroke="midnightblue" points="840.86,-55.54 831.12,-59.7 841.33,-62.52 840.86,-55.54"/>
</g>
<!-- Node6 -->
<g id="node6" class="node">
<title>Node6</title>
<g id="a_node6"><a xlink:href="main_8cpp.html" target="_top" xlink:title="Ponto de entrada do jogo Flappy Bird.">
<polygon fill="white" stroke="black" points="336.5,-0.5 336.5,-19.5 415.5,-19.5 415.5,-0.5 336.5,-0.5"/>
<text text-anchor="middle" x="376" y="-7.5" font-family="Helvetica,sans-Serif" font-size="10.00">src/main.cpp</text>
</a>
</g>
</g>
<!-- Node4&#45;&gt;Node6 -->
<g id="edge5" class="edge">
<title>Node4&#45;&gt;Node6</title>
<path fill="none" stroke="midnightblue" d="M682.14,-54.97C603.66,-43.7 478.99,-25.79 415.69,-16.7"/>
<polygon fill="midnightblue" stroke="midnightblue" points="682.03,-58.49 692.42,-56.44 683.02,-51.56 682.03,-58.49"/>
</g>
<!-- Node7&#45;&gt;Node5 -->
<g id="edge7" class="edge">
<title>Node7&#45;&gt;Node5</title>
<path fill="none" stroke="midnightblue" d="M1564.5,-46.1C1562.84,-37.14 1560.94,-26.86 1559.62,-19.75"/>
<polygon fill="midnightblue" stroke="midnightblue" points="1561.09,-46.89 1566.35,-56.08 1567.97,-45.61 1561.09,-46.89"/>
</g>
<!-- Node8 -->
<g id="node8" class="node">
<title>Node8</title>
<g id="a_node8"><a xlink:href="load__game_8cpp.html" target="_top" xlink:title="Implementação da classe LoadName, responsável pela tela de inserção de nome do jogador.">
<polygon fill="white" stroke="black" points="1070.5,-0.5 1070.5,-19.5 1211.5,-19.5 1211.5,-0.5 1070.5,-0.5"/>
<text text-anchor="middle" x="1141" y="-7.5" font-family="Helvetica,sans-Serif" font-size="10.00">src/states/load_game.cpp</text>
</a>
</g>
</g>
<!-- Node7&#45;&gt;Node8 -->
<g id="edge8" class="edge">
<title>Node7&#45;&gt;Node8</title>
<path fill="none" stroke="midnightblue" d="M1493.55,-55.58C1413.09,-45.41 1285.98,-29.34 1208.38,-19.52"/>
<polygon fill="midnightblue" stroke="midnightblue" points="1493.25,-59.07 1503.61,-56.86 1494.13,-52.13 1493.25,-59.07"/>
</g>
<!-- Node9 -->
<g id="node9" class="node">
<title>Node9</title>
<g id="a_node9"><a xlink:href="play_8cpp.html" target="_top" xlink:title="Implementacao da classe Play.">
<polygon fill="white" stroke="black" points="1644.5,-0.5 1644.5,-19.5 1751.5,-19.5 1751.5,-0.5 1644.5,-0.5"/>
<text text-anchor="middle" x="1698" y="-7.5" font-family="Helvetica,sans-Serif" font-size="10.00">src/states/play.cpp</text>
</a>
</g>
</g>
<!-- Node7&#45;&gt;Node9 -->
<g id="edge9" class="edge">
<title>Node7&#45;&gt;Node9</title>
<path fill="none" stroke="midnightblue" d="M1598.09,-52.5C1622.46,-42.38 1656.14,-28.39 1677.5,-19.52"/>
<polygon fill="midnightblue" stroke="midnightblue" points="1596.49,-49.38 1588.6,-56.44 1599.18,-55.84 1596.49,-49.38"/>
</g>
<!-- Node12&#45;&gt;Node3 -->
<g id="edge16" class="edge">
<title>Node12&#45;&gt;Node3</title>
<path fill="none" stroke="midnightblue" d="M796.83,-316.35C719.39,-308.07 587.44,-291.98 571,-277 532.26,-241.68 530.64,-172.78 531.95,-142.9"/>
<polygon fill="midnightblue" stroke="midnightblue" points="796.61,-319.85 806.92,-317.42 797.35,-312.89 796.61,-319.85"/>
</g>
<!-- Node12&#45;&gt;Node4 -->
<g id="edge15" class="edge">
<title>Node12&#45;&gt;Node4</title>
<path fill="none" stroke="midnightblue" d="M829.48,-307.65C818.64,-299.88 806.53,-289.33 799,-277 756.95,-208.12 752.4,-105.97 752,-75.73"/>
<polygon fill="midnightblue" stroke="midnightblue" points="827.55,-310.58 837.8,-313.28 831.48,-304.78 827.55,-310.58"/>
</g>
<!-- Node12&#45;&gt;Node5 -->
<g id="edge49" class="edge">
<title>Node12&#45;&gt;Node5</title>
<path fill="none" stroke="midnightblue" d="M872.19,-306.7C880.98,-298.73 890.81,-288.3 897,-277 914.88,-244.39 916,-232.69 916,-195.5 916,-195.5 916,-195.5 916,-126.5 916,-68.74 1323.68,-29.69 1489.29,-16.21"/>
<polygon fill="midnightblue" stroke="midnightblue" points="869.83,-304.11 864.54,-313.29 874.4,-309.42 869.83,-304.11"/>
</g>
<!-- Node12&#45;&gt;Node6 -->
<g id="edge51" class="edge">
<title>Node12&#45;&gt;Node6</title>
<path fill="none" stroke="midnightblue" d="M796.95,-321.01C630.52,-317.77 146.71,-305.92 82,-277 35.09,-256.03 0,-246.88 0,-195.5 0,-195.5 0,-195.5 0,-126.5 0,-56.68 239.94,-24.7 336.47,-14.66"/>
<polygon fill="midnightblue" stroke="midnightblue" points="796.92,-324.51 806.98,-321.21 797.05,-317.51 796.92,-324.51"/>
</g>
<!-- Node12&#45;&gt;Node8 -->
<g id="edge56" class="edge">
<title>Node12&#45;&gt;Node8</title>
<path fill="none" stroke="midnightblue" d="M796.7,-320.58C637.83,-316.27 193.65,-302.11 133,-277 60.17,-246.85 12.75,-168.21 68,-112 138.26,-40.53 842.47,-17.95 1070.3,-12.48"/>
<polygon fill="midnightblue" stroke="midnightblue" points="796.65,-324.08 806.74,-320.85 796.84,-317.08 796.65,-324.08"/>
</g>
<!-- Node13 -->
<g id="node13" class="node">
<title>Node13</title>
<g id="a_node13"><a xlink:href="game__object_8hpp.html" target="_top" xlink:title="Classe base abstrata para todos os objetos renderizáveis.">
<polygon fill="white" stroke="black" points="142.5,-252 142.5,-271 281.5,-271 281.5,-252 142.5,-252"/>
<text text-anchor="middle" x="212" y="-259" font-family="Helvetica,sans-Serif" font-size="10.00">include/game_object.hpp</text>
</a>
</g>
</g>
<!-- Node12&#45;&gt;Node13 -->
<g id="edge17" class="edge">
<title>Node12&#45;&gt;Node13</title>
<path fill="none" stroke="midnightblue" d="M796.83,-316.79C706.48,-308.41 523.26,-291.42 368,-277 339.7,-274.37 308.51,-271.47 281.5,-268.96"/>
<polygon fill="midnightblue" stroke="midnightblue" points="796.58,-320.28 806.86,-317.72 797.22,-313.31 796.58,-320.28"/>
</g>
<!-- Node12&#45;&gt;Node14 -->
<g id="edge24" class="edge">
<title>Node12&#45;&gt;Node14</title>
<path fill="none" stroke="midnightblue" d="M796.87,-317.68C719.14,-311.06 583.18,-297.06 538,-277 517.77,-268.02 469.34,-223.33 449.11,-204.2"/>
<polygon fill="midnightblue" stroke="midnightblue" points="796.72,-321.18 806.97,-318.52 797.3,-314.2 796.72,-321.18"/>
</g>
<!-- Node17 -->
<g id="node17" class="node">
<title>Node17</title>
<g id="a_node17"><a xlink:href="player_8hpp.html" target="_top" xlink:title="Modela um jogador e operações de ranking.">
<polygon fill="white" stroke="black" points="580,-252 580,-271 686,-271 686,-252 580,-252"/>
<text text-anchor="middle" x="633" y="-259" font-family="Helvetica,sans-Serif" font-size="10.00">include/player.hpp</text>
</a>
</g>
</g>
<!-- Node12&#45;&gt;Node17 -->
<g id="edge25" class="edge">
<title>Node12&#45;&gt;Node17</title>
<path fill="none" stroke="midnightblue" d="M806.83,-310.97C762.14,-299.41 696.12,-281.52 659.57,-271.01"/>
<polygon fill="midnightblue" stroke="midnightblue" points="806.02,-314.38 816.58,-313.48 807.76,-307.6 806.02,-314.38"/>
</g>
<!-- Node18 -->
<g id="node18" class="node">
<title>Node18</title>
<g id="a_node18"><a xlink:href="player_8cpp.html" target="_top" xlink:title="Implementação da classe Player e utilidades de ranking.">
<polygon fill="white" stroke="black" points="637,-185 637,-204 721,-204 721,-185 637,-185"/>
<text text-anchor="middle" x="679" y="-192" font-family="Helvetica,sans-Serif" font-size="10.00">src/player.cpp</text>
</a>
</g>
</g>
<!-- Node12&#45;&gt;Node18 -->
<g id="edge53" class="edge">
<title>Node12&#45;&gt;Node18</title>
<path fill="none" stroke="midnightblue" d="M806.73,-310.53C784.4,-303.42 758.16,-292.6 738,-277 711.48,-256.47 691.55,-220.89 683.25,-204.39"/>
<polygon fill="midnightblue" stroke="midnightblue" points="805.76,-313.89 816.35,-313.45 807.79,-307.19 805.76,-313.89"/>
</g>
<!-- Node12&#45;&gt;Node19 -->
<g id="edge29" class="edge">
<title>Node12&#45;&gt;Node19</title>
<path fill="none" stroke="midnightblue" d="M890.74,-310.48C922.54,-300.78 968.13,-286.87 1002.04,-276.52"/>
<polygon fill="midnightblue" stroke="midnightblue" points="889.48,-307.21 880.94,-313.48 891.52,-313.9 889.48,-307.21"/>
</g>
<!-- Node20 -->
<g id="node20" class="node">
<title>Node20</title>
<g id="a_node20"><a xlink:href="difficulty__menu_8cpp.html" target="_top" xlink:title="Implementação da classe DifficultyMenu, que gerencia a tela de seleção de dificuldade.">
<polygon fill="white" stroke="black" points="1110,-179.5 1110,-209.5 1220,-209.5 1220,-179.5 1110,-179.5"/>
<text text-anchor="start" x="1118" y="-197.5" font-family="Helvetica,sans-Serif" font-size="10.00">src/states/difficulty</text>
<text text-anchor="middle" x="1165" y="-186.5" font-family="Helvetica,sans-Serif" font-size="10.00">_menu.cpp</text>
</a>
</g>
</g>
<!-- Node12&#45;&gt;Node20 -->
<g id="edge54" class="edge">
<title>Node12&#45;&gt;Node20</title>
<path fill="none" stroke="midnightblue" d="M877.42,-308.43C892.72,-299.76 912.74,-288.09 930,-277 950.12,-264.06 952.32,-256.11 974,-246 986.44,-240.2 1057.94,-221.93 1109.81,-209.03"/>
<polygon fill="midnightblue" stroke="midnightblue" points="875.57,-305.46 868.57,-313.41 879,-311.56 875.57,-305.46"/>
</g>
<!-- Node21 -->
<g id="node21" class="node">
<title>Node21</title>
<g id="a_node21"><a xlink:href="main__menu_8cpp.html" target="_top" xlink:title="Implementação da classe MainMenu, o estado principal e tela inicial do jogo.">
<polygon fill="white" stroke="black" points="946.5,-185 946.5,-204 1091.5,-204 1091.5,-185 946.5,-185"/>
<text text-anchor="middle" x="1019" y="-192" font-family="Helvetica,sans-Serif" font-size="10.00">src/states/main_menu.cpp</text>
</a>
</g>
</g>
<!-- Node12&#45;&gt;Node21 -->
<g id="edge57" class="edge">
<title>Node12&#45;&gt;Node21</title>
<path fill="none" stroke="midnightblue" d="M833.43,-306.68C815.44,-290.73 793.7,-265.42 809,-246 826.06,-224.35 892.77,-210.91 946.48,-203.4"/>
<polygon fill="midnightblue" stroke="midnightblue" points="831.38,-309.53 841.29,-313.29 835.89,-304.18 831.38,-309.53"/>
</g>
<!-- Node12&#45;&gt;Node22 -->
<g id="edge32" class="edge">
<title>Node12&#45;&gt;Node22</title>
<path fill="none" stroke="midnightblue" d="M909.14,-315.18C976.79,-306.83 1093.87,-291.95 1194,-277 1198.54,-276.32 1203.22,-275.6 1207.93,-274.86"/>
<polygon fill="midnightblue" stroke="midnightblue" points="908.62,-311.72 899.12,-316.42 909.48,-318.67 908.62,-311.72"/>
</g>
<!-- Node23 -->
<g id="node23" class="node">
<title>Node23</title>
<g id="a_node23"><a xlink:href="leaderboard__menu_8cpp.html" target="_top" xlink:title="Implementação da classe LeaderboardMenu, responsável por exibir a tela de ranking.">
<polygon fill="white" stroke="black" points="1238.5,-179.5 1238.5,-209.5 1363.5,-209.5 1363.5,-179.5 1238.5,-179.5"/>
<text text-anchor="start" x="1246.5" y="-197.5" font-family="Helvetica,sans-Serif" font-size="10.00">src/states/leaderboard</text>
<text text-anchor="middle" x="1301" y="-186.5" font-family="Helvetica,sans-Serif" font-size="10.00">_menu.cpp</text>
</a>
</g>
</g>
<!-- Node12&#45;&gt;Node23 -->
<g id="edge55" class="edge">
<title>Node12&#45;&gt;Node23</title>
<path fill="none" stroke="midnightblue" d="M909.28,-320.07C965.37,-316.46 1053.01,-306.17 1123,-277 1144.75,-267.94 1145.23,-257.11 1166,-246 1194.13,-230.95 1227.73,-218.36 1254.37,-209.52"/>
<polygon fill="midnightblue" stroke="midnightblue" points="908.96,-316.59 899.18,-320.67 909.37,-323.57 908.96,-316.59"/>
</g>
<!-- Node12&#45;&gt;Node24 -->
<g id="edge35" class="edge">
<title>Node12&#45;&gt;Node24</title>
<path fill="none" stroke="midnightblue" d="M796.52,-316.21C726.64,-308.73 604.16,-294.55 500,-277 495.29,-276.21 490.42,-275.32 485.54,-274.38"/>
<polygon fill="midnightblue" stroke="midnightblue" points="796.54,-319.74 806.85,-317.31 797.28,-312.78 796.54,-319.74"/>
</g>
<!-- Node12&#45;&gt;Node25 -->
<g id="edge38" class="edge">
<title>Node12&#45;&gt;Node25</title>
<path fill="none" stroke="midnightblue" d="M909.42,-319.46C1023.09,-314.06 1287.68,-299.99 1509,-277 1524.41,-275.4 1541.06,-273.26 1556.41,-271.12"/>
<polygon fill="midnightblue" stroke="midnightblue" points="909.05,-315.98 899.22,-319.94 909.38,-322.97 909.05,-315.98"/>
</g>
<!-- Node26 -->
<g id="node26" class="node">
<title>Node26</title>
<g id="a_node26"><a xlink:href="settings__menu_8cpp.html" target="_top" xlink:title="Implementação da classe SettingsMenu, que gerencia a tela de configurações do jogo.">
<polygon fill="white" stroke="black" points="1383,-179.5 1383,-209.5 1489,-209.5 1489,-179.5 1383,-179.5"/>
<text text-anchor="start" x="1391" y="-197.5" font-family="Helvetica,sans-Serif" font-size="10.00">src/states/settings</text>
<text text-anchor="middle" x="1436" y="-186.5" font-family="Helvetica,sans-Serif" font-size="10.00">_menu.cpp</text>
</a>
</g>
</g>
<!-- Node12&#45;&gt;Node26 -->
<g id="edge58" class="edge">
<title>Node12&#45;&gt;Node26</title>
<path fill="none" stroke="midnightblue" d="M909.19,-321.96C972.13,-320.07 1076.05,-311.35 1158,-277 1179.07,-268.17 1178.19,-255.43 1199,-246 1270.92,-213.39 1295.85,-226.86 1373,-210 1376.18,-209.31 1379.45,-208.58 1382.74,-207.85"/>
<polygon fill="midnightblue" stroke="midnightblue" points="908.98,-318.47 899.07,-322.22 909.16,-325.46 908.98,-318.47"/>
</g>
<!-- Node12&#45;&gt;Node27 -->
<g id="edge46" class="edge">
<title>Node12&#45;&gt;Node27</title>
<path fill="none" stroke="midnightblue" d="M909.43,-319.02C1003.71,-313.59 1199.1,-300.44 1363,-277 1366.07,-276.56 1369.21,-276.08 1372.37,-275.56"/>
<polygon fill="midnightblue" stroke="midnightblue" points="909.04,-315.54 899.25,-319.6 909.44,-322.52 909.04,-315.54"/>
</g>
<!-- Node28 -->
<g id="node28" class="node">
<title>Node28</title>
<g id="a_node28"><a xlink:href="init_8cpp.html" target="_top" xlink:title="Inicialização de Allegro, fontes, addons e recursos globais.">
<polygon fill="white" stroke="black" points="818,-252 818,-271 888,-271 888,-252 818,-252"/>
<text text-anchor="middle" x="853" y="-259" font-family="Helvetica,sans-Serif" font-size="10.00">src/init.cpp</text>
</a>
</g>
</g>
<!-- Node12&#45;&gt;Node28 -->
<g id="edge50" class="edge">
<title>Node12&#45;&gt;Node28</title>
<path fill="none" stroke="midnightblue" d="M853,-303.32C853,-292.5 853,-279.4 853,-271.01"/>
<polygon fill="midnightblue" stroke="midnightblue" points="849.5,-303.48 853,-313.48 856.5,-303.48 849.5,-303.48"/>
</g>
<!-- Node12&#45;&gt;Node29 -->
<g id="edge52" class="edge">
<title>Node12&#45;&gt;Node29</title>
<path fill="none" stroke="midnightblue" d="M909.19,-320.04C1042.79,-315.13 1389.91,-300.98 1679,-277 1707.4,-274.64 1739.2,-271.11 1764.24,-268.13"/>
<polygon fill="midnightblue" stroke="midnightblue" points="909.05,-316.54 899.18,-320.4 909.3,-323.54 909.05,-316.54"/>
</g>
<!-- Node13&#45;&gt;Node2 -->
<g id="edge18" class="edge">
<title>Node13&#45;&gt;Node2</title>
<path fill="none" stroke="midnightblue" d="M190.28,-246.09C170.89,-233.24 143.14,-214.83 127.01,-204.13"/>
<polygon fill="midnightblue" stroke="midnightblue" points="188.52,-249.12 198.78,-251.73 192.38,-243.29 188.52,-249.12"/>
</g>
<!-- Node13&#45;&gt;Node3 -->
<g id="edge19" class="edge">
<title>Node13&#45;&gt;Node3</title>
<path fill="none" stroke="midnightblue" d="M237.16,-247.34C270.13,-230.35 330.01,-200.46 383,-179 417.13,-165.18 456.63,-151.99 486.52,-142.56"/>
<polygon fill="midnightblue" stroke="midnightblue" points="235.49,-244.26 228.21,-251.97 238.7,-250.48 235.49,-244.26"/>
</g>
<!-- Node13&#45;&gt;Node14 -->
<g id="edge20" class="edge">
<title>Node13&#45;&gt;Node14</title>
<path fill="none" stroke="midnightblue" d="M252.02,-249.09C297.12,-236.23 369.43,-215.62 409.96,-204.06"/>
<polygon fill="midnightblue" stroke="midnightblue" points="250.93,-245.76 242.28,-251.87 252.85,-252.49 250.93,-245.76"/>
</g>
<!-- Node16 -->
<g id="node16" class="node">
<title>Node16</title>
<g id="a_node16"><a xlink:href="game__object_8cpp.html" target="_top" xlink:title="Métodos utilitários da classe base GameObject.">
<polygon fill="white" stroke="black" points="179.5,-185 179.5,-204 296.5,-204 296.5,-185 179.5,-185"/>
<text text-anchor="middle" x="238" y="-192" font-family="Helvetica,sans-Serif" font-size="10.00">src/game_object.cpp</text>
</a>
</g>
</g>
<!-- Node13&#45;&gt;Node16 -->
<g id="edge23" class="edge">
<title>Node13&#45;&gt;Node16</title>
<path fill="none" stroke="midnightblue" d="M219.28,-242.29C224.28,-229.81 230.67,-213.81 234.55,-204.13"/>
<polygon fill="midnightblue" stroke="midnightblue" points="215.97,-241.15 215.51,-251.73 222.47,-243.75 215.97,-241.15"/>
</g>
<!-- Node14&#45;&gt;Node3 -->
<g id="edge21" class="edge">
<title>Node14&#45;&gt;Node3</title>
<path fill="none" stroke="midnightblue" d="M460.96,-178.85C476.48,-168 497.51,-153.3 512.84,-142.59"/>
<polygon fill="midnightblue" stroke="midnightblue" points="458.73,-176.14 452.54,-184.73 462.74,-181.87 458.73,-176.14"/>
</g>
<!-- Node15 -->
<g id="node15" class="node">
<title>Node15</title>
<g id="a_node15"><a xlink:href="pipe_8cpp.html" target="_top" xlink:title="Implementação das classes Pipe, PipePair e PipeList.">
<polygon fill="white" stroke="black" points="385.5,-118 385.5,-137 460.5,-137 460.5,-118 385.5,-118"/>
<text text-anchor="middle" x="423" y="-125" font-family="Helvetica,sans-Serif" font-size="10.00">src/pipe.cpp</text>
</a>
</g>
</g>
<!-- Node14&#45;&gt;Node15 -->
<g id="edge22" class="edge">
<title>Node14&#45;&gt;Node15</title>
<path fill="none" stroke="midnightblue" d="M435.14,-174.91C431.89,-162.49 427.76,-146.72 425.26,-137.13"/>
<polygon fill="midnightblue" stroke="midnightblue" points="431.79,-175.94 437.71,-184.73 438.56,-174.17 431.79,-175.94"/>
</g>
<!-- Node17&#45;&gt;Node3 -->
<g id="edge26" class="edge">
<title>Node17&#45;&gt;Node3</title>
<path fill="none" stroke="midnightblue" d="M620.23,-243.64C600.36,-217.42 562.42,-167.33 543.82,-142.78"/>
<polygon fill="midnightblue" stroke="midnightblue" points="617.61,-245.98 626.44,-251.84 623.19,-241.75 617.61,-245.98"/>
</g>
<!-- Node17&#45;&gt;Node12 -->
<g id="edge27" class="edge">
<title>Node17&#45;&gt;Node12</title>
<path fill="none" stroke="midnightblue" d="M679.11,-273.51C723.78,-285.06 789.79,-302.96 826.38,-313.48"/>
<polygon fill="midnightblue" stroke="midnightblue" points="679.92,-270.11 669.36,-271.01 678.17,-276.89 679.92,-270.11"/>
</g>
<!-- Node17&#45;&gt;Node18 -->
<g id="edge28" class="edge">
<title>Node17&#45;&gt;Node18</title>
<path fill="none" stroke="midnightblue" d="M645.1,-243.4C654.04,-230.77 665.83,-214.1 672.89,-204.13"/>
<polygon fill="midnightblue" stroke="midnightblue" points="642.12,-241.55 639.2,-251.73 647.84,-245.59 642.12,-241.55"/>
</g>
<!-- Node19&#45;&gt;Node20 -->
<g id="edge30" class="edge">
<title>Node19&#45;&gt;Node20</title>
<path fill="none" stroke="midnightblue" d="M1082.32,-241.44C1100.67,-231.24 1122.88,-218.9 1139.66,-209.58"/>
<polygon fill="midnightblue" stroke="midnightblue" points="1080.43,-238.48 1073.39,-246.4 1083.83,-244.6 1080.43,-238.48"/>
</g>
<!-- Node19&#45;&gt;Node21 -->
<g id="edge31" class="edge">
<title>Node19&#45;&gt;Node21</title>
<path fill="none" stroke="midnightblue" d="M1037.49,-236.94C1032.4,-225.54 1026.6,-212.55 1022.88,-204.19"/>
<polygon fill="midnightblue" stroke="midnightblue" points="1034.44,-238.69 1041.71,-246.4 1040.83,-235.84 1034.44,-238.69"/>
</g>
<!-- Node22&#45;&gt;Node21 -->
<g id="edge34" class="edge">
<title>Node22&#45;&gt;Node21</title>
<path fill="none" stroke="midnightblue" d="M1214.45,-243.99C1163.11,-231.25 1094.17,-214.15 1053.38,-204.03"/>
<polygon fill="midnightblue" stroke="midnightblue" points="1213.92,-247.47 1224.47,-246.48 1215.61,-240.67 1213.92,-247.47"/>
</g>
<!-- Node22&#45;&gt;Node23 -->
<g id="edge33" class="edge">
<title>Node22&#45;&gt;Node23</title>
<path fill="none" stroke="midnightblue" d="M1288.32,-236.7C1291.13,-227.59 1294.23,-217.49 1296.67,-209.58"/>
<polygon fill="midnightblue" stroke="midnightblue" points="1284.94,-235.81 1285.34,-246.4 1291.63,-237.87 1284.94,-235.81"/>
</g>
<!-- Node24&#45;&gt;Node8 -->
<g id="edge36" class="edge">
<title>Node24&#45;&gt;Node8</title>
<path fill="none" stroke="midnightblue" d="M404.68,-239.26C396.32,-231.04 387.96,-220.97 383,-210 354.56,-147.11 345.98,-94.89 403,-56 457.25,-19 896.29,-12.4 1070.32,-11.24"/>
<polygon fill="midnightblue" stroke="midnightblue" points="402.55,-242.05 412.27,-246.25 407.29,-236.9 402.55,-242.05"/>
</g>
<!-- Node24&#45;&gt;Node21 -->
<g id="edge37" class="edge">
<title>Node24&#45;&gt;Node21</title>
<path fill="none" stroke="midnightblue" d="M495.53,-253.37C605.99,-241.16 830.56,-216.33 946.35,-203.53"/>
<polygon fill="midnightblue" stroke="midnightblue" points="495.08,-249.89 485.53,-254.47 495.85,-256.85 495.08,-249.89"/>
</g>
<!-- Node25&#45;&gt;Node5 -->
<g id="edge39" class="edge">
<title>Node25&#45;&gt;Node5</title>
<path fill="none" stroke="midnightblue" d="M1625.15,-237.17C1644.19,-197.1 1675.47,-113.91 1641,-56 1630.02,-37.55 1608.54,-26.2 1590.18,-19.51"/>
<polygon fill="midnightblue" stroke="midnightblue" points="1621.89,-235.87 1620.63,-246.39 1628.18,-238.96 1621.89,-235.87"/>
</g>
<!-- Node25&#45;&gt;Node8 -->
<g id="edge42" class="edge">
<title>Node25&#45;&gt;Node8</title>
<path fill="none" stroke="midnightblue" d="M1607.32,-236.37C1598.24,-203.24 1577.23,-144.12 1537,-112 1442.18,-36.3 1297.35,-16.67 1211.62,-11.97"/>
<polygon fill="midnightblue" stroke="midnightblue" points="1603.95,-237.35 1609.86,-246.14 1610.73,-235.59 1603.95,-237.35"/>
</g>
<!-- Node25&#45;&gt;Node9 -->
<g id="edge44" class="edge">
<title>Node25&#45;&gt;Node9</title>
<path fill="none" stroke="midnightblue" d="M1635.44,-238.99C1643.01,-230.61 1650.84,-220.49 1656,-210 1689.32,-142.18 1696.28,-48.69 1697.67,-19.84"/>
<polygon fill="midnightblue" stroke="midnightblue" points="1632.7,-236.8 1628.35,-246.46 1637.78,-241.62 1632.7,-236.8"/>
</g>
<!-- Node25&#45;&gt;Node20 -->
<g id="edge40" class="edge">
<title>Node25&#45;&gt;Node20</title>
<path fill="none" stroke="midnightblue" d="M1546.11,-251.07C1533.77,-249.36 1521,-247.61 1509,-246 1385.08,-229.37 1353.14,-231.63 1230,-210 1226.81,-209.44 1223.54,-208.83 1220.25,-208.18"/>
<polygon fill="midnightblue" stroke="midnightblue" points="1545.95,-254.58 1556.34,-252.49 1546.92,-247.65 1545.95,-254.58"/>
</g>
<!-- Node25&#45;&gt;Node21 -->
<g id="edge43" class="edge">
<title>Node25&#45;&gt;Node21</title>
<path fill="none" stroke="midnightblue" d="M1546.16,-250.67C1533.81,-249 1521.03,-247.37 1509,-246 1328.13,-225.42 1281.47,-233.87 1101,-210 1088.67,-208.37 1075.38,-206.2 1063.15,-204.03"/>
<polygon fill="midnightblue" stroke="midnightblue" points="1546.01,-254.18 1556.39,-252.08 1546.96,-247.25 1546.01,-254.18"/>
</g>
<!-- Node25&#45;&gt;Node23 -->
<g id="edge41" class="edge">
<title>Node25&#45;&gt;Node23</title>
<path fill="none" stroke="midnightblue" d="M1546.66,-246.68C1492.52,-235.4 1416.58,-219.58 1363.51,-208.52"/>
<polygon fill="midnightblue" stroke="midnightblue" points="1546,-250.12 1556.5,-248.73 1547.42,-243.26 1546,-250.12"/>
</g>
<!-- Node25&#45;&gt;Node26 -->
<g id="edge45" class="edge">
<title>Node25&#45;&gt;Node26</title>
<path fill="none" stroke="midnightblue" d="M1564.85,-242.82C1536.4,-232.37 1500.87,-219.32 1474.33,-209.58"/>
<polygon fill="midnightblue" stroke="midnightblue" points="1564,-246.23 1574.59,-246.4 1566.41,-239.66 1564,-246.23"/>
</g>
<!-- Node27&#45;&gt;Node21 -->
<g id="edge47" class="edge">
<title>Node27&#45;&gt;Node21</title>
<path fill="none" stroke="midnightblue" d="M1362.27,-245.94C1245.38,-226.62 1213.94,-227.74 1101,-210 1089.43,-208.18 1076.97,-206.06 1065.35,-204.02"/>
<polygon fill="midnightblue" stroke="midnightblue" points="1361.9,-249.43 1372.34,-247.62 1363.05,-242.53 1361.9,-249.43"/>
</g>
<!-- Node27&#45;&gt;Node26 -->
<g id="edge48" class="edge">
<title>Node27&#45;&gt;Node26</title>
<path fill="none" stroke="midnightblue" d="M1436,-236.11C1436,-227.15 1436,-217.32 1436,-209.58"/>
<polygon fill="midnightblue" stroke="midnightblue" points="1432.5,-236.4 1436,-246.4 1439.5,-236.4 1432.5,-236.4"/>
</g>
<!-- Node30&#45;&gt;Node25 -->
<g id="edge71" class="edge">
<title>Node30&#45;&gt;Node25</title>
<path fill="none" stroke="midnightblue" d="M1756.08,-416C1745.66,-390.67 1723.92,-344.12 1694,-313 1679.53,-297.95 1659.68,-285.48 1643.25,-276.7"/>
<polygon fill="midnightblue" stroke="midnightblue" points="1752.9,-417.46 1759.85,-425.45 1759.4,-414.87 1752.9,-417.46"/>
</g>
<!-- Node30&#45;&gt;Node29 -->
<g id="edge72" class="edge">
<title>Node30&#45;&gt;Node29</title>
<path fill="none" stroke="midnightblue" d="M1772.42,-416.39C1776.47,-408.24 1780.95,-398.32 1784,-389 1798.05,-346.02 1805.49,-292.1 1808.01,-271.27"/>
<polygon fill="midnightblue" stroke="midnightblue" points="1769.31,-414.8 1767.84,-425.29 1775.53,-418.01 1769.31,-414.8"/>
</g>
<!-- Node30&#45;&gt;Node31 -->
<g id="edge60" class="edge">
<title>Node30&#45;&gt;Node31</title>
<path fill="none" stroke="midnightblue" d="M1698.18,-423.88C1631.4,-413.46 1528.68,-397.43 1467.63,-387.9"/>
<polygon fill="midnightblue" stroke="midnightblue" points="1697.76,-427.36 1708.18,-425.44 1698.83,-420.44 1697.76,-427.36"/>
</g>
<!-- Node31&#45;&gt;Node4 -->
<g id="edge61" class="edge">
<title>Node31&#45;&gt;Node4</title>
<path fill="none" stroke="midnightblue" d="M1437.5,-363.21C1459.97,-345.61 1494.71,-313.91 1509,-277 1518,-253.75 1500.81,-181.78 1498,-179 1404.94,-87.2 1003.4,-70.47 831.06,-67.55"/>
<polygon fill="midnightblue" stroke="midnightblue" points="1435.13,-360.62 1429.28,-369.46 1439.36,-366.2 1435.13,-360.62"/>
</g>
<!-- Node31&#45;&gt;Node5 -->
<g id="edge69" class="edge">
<title>Node31&#45;&gt;Node5</title>
<path fill="none" stroke="midnightblue" d="M1477.73,-376.47C1526.31,-372.89 1594.7,-362.44 1647,-333 1710.44,-297.29 1736,-268.3 1736,-195.5 1736,-195.5 1736,-195.5 1736,-126.5 1736,-62.95 1655.18,-32.6 1602.46,-19.57"/>
<polygon fill="midnightblue" stroke="midnightblue" points="1477.43,-372.98 1467.68,-377.13 1477.89,-379.96 1477.43,-372.98"/>
</g>
<!-- Node31&#45;&gt;Node7 -->
<g id="edge67" class="edge">
<title>Node31&#45;&gt;Node7</title>
<path fill="none" stroke="midnightblue" d="M1477.77,-374.61C1541.13,-367.36 1636.94,-345.06 1679,-277 1725.61,-201.58 1615.64,-104.72 1579.22,-75.63"/>
<polygon fill="midnightblue" stroke="midnightblue" points="1477.09,-371.16 1467.51,-375.68 1477.82,-378.12 1477.09,-371.16"/>
</g>
<!-- Node31&#45;&gt;Node12 -->
<g id="edge62" class="edge">
<title>Node31&#45;&gt;Node12</title>
<path fill="none" stroke="midnightblue" d="M1356.2,-372.18C1242.65,-361.31 1000.69,-338.14 899.26,-328.43"/>
<polygon fill="midnightblue" stroke="midnightblue" points="1356.16,-375.69 1366.45,-373.16 1356.83,-368.72 1356.16,-375.69"/>
</g>
<!-- Node31&#45;&gt;Node19 -->
<g id="edge63" class="edge">
<title>Node31&#45;&gt;Node19</title>
<path fill="none" stroke="midnightblue" d="M1379.67,-366.32C1311.38,-344.94 1166.57,-299.61 1092.97,-276.58"/>
<polygon fill="midnightblue" stroke="midnightblue" points="1378.98,-369.77 1389.57,-369.41 1381.07,-363.09 1378.98,-369.77"/>
</g>
<!-- Node31&#45;&gt;Node22 -->
<g id="edge64" class="edge">
<title>Node31&#45;&gt;Node22</title>
<path fill="none" stroke="midnightblue" d="M1409.92,-360.18C1403.55,-345.97 1393.04,-326.32 1379,-313 1362.19,-297.07 1339.38,-284.91 1319.99,-276.53"/>
<polygon fill="midnightblue" stroke="midnightblue" points="1406.7,-361.55 1413.82,-369.39 1413.15,-358.82 1406.7,-361.55"/>
</g>
<!-- Node31&#45;&gt;Node24 -->
<g id="edge65" class="edge">
<title>Node31&#45;&gt;Node24</title>
<path fill="none" stroke="midnightblue" d="M1356.25,-375.78C1245.09,-371.24 1001.66,-359.02 798,-333 661.29,-315.53 627.92,-305.15 493,-277 490.62,-276.5 488.19,-275.98 485.74,-275.45"/>
<polygon fill="midnightblue" stroke="midnightblue" points="1356.13,-379.28 1366.26,-376.19 1356.41,-372.29 1356.13,-379.28"/>
</g>
<!-- Node31&#45;&gt;Node25 -->
<g id="edge66" class="edge">
<title>Node31&#45;&gt;Node25</title>
<path fill="none" stroke="midnightblue" d="M1463.19,-366.62C1487.78,-359.3 1517.84,-348.27 1542,-333 1566.52,-317.5 1589.26,-292.22 1602.11,-276.52"/>
<polygon fill="midnightblue" stroke="midnightblue" points="1462.02,-363.32 1453.37,-369.44 1463.95,-370.05 1462.02,-363.32"/>
</g>
<!-- Node31&#45;&gt;Node27 -->
<g id="edge68" class="edge">
<title>Node31&#45;&gt;Node27</title>
<path fill="none" stroke="midnightblue" d="M1420.06,-359.38C1423.87,-336.26 1430.27,-297.32 1433.69,-276.55"/>
<polygon fill="midnightblue" stroke="midnightblue" points="1416.6,-358.88 1418.43,-369.32 1423.5,-360.02 1416.6,-358.88"/>
</g>
<!-- Node32 -->
<g id="node32" class="node">
<title>Node32</title>
<g id="a_node32"><a xlink:href="state_8cpp.html" target="_top" xlink:title="Implementação base de State para máquina de estados do jogo.">
<polygon fill="white" stroke="black" points="1290.5,-313.5 1290.5,-332.5 1369.5,-332.5 1369.5,-313.5 1290.5,-313.5"/>
<text text-anchor="middle" x="1330" y="-320.5" font-family="Helvetica,sans-Serif" font-size="10.00">src/state.cpp</text>
</a>
</g>
</g>
<!-- Node31&#45;&gt;Node32 -->
<g id="edge70" class="edge">
<title>Node31&#45;&gt;Node32</title>
<path fill="none" stroke="midnightblue" d="M1394.28,-363.9C1378.33,-354 1357.5,-341.07 1343.94,-332.65"/>
<polygon fill="midnightblue" stroke="midnightblue" points="1392.68,-367.02 1403.02,-369.32 1396.37,-361.08 1392.68,-367.02"/>
</g>
</g>
</svg>
