<?xml version="1.0" encoding="UTF-8" standalone="no"?>
<!DOCTYPE svg PUBLIC "-//W3C//DTD SVG 1.1//EN"
 "http://www.w3.org/Graphics/SVG/1.1/DTD/svg11.dtd">
<!-- Generated by graphviz version 2.43.0 (0)
 -->
<!-- Title: src/states/difficulty_menu.cpp Pages: 1 -->
<svg width="1546pt" height="397pt"
 viewBox="0.00 0.00 1545.50 397.00" xmlns="http://www.w3.org/2000/svg" xmlns:xlink="http://www.w3.org/1999/xlink">
<g id="graph0" class="graph" transform="scale(1 1) rotate(0) translate(4 393)">
<title>src/states/difficulty_menu.cpp</title>
<polygon fill="white" stroke="transparent" points="-4,4 -4,-393 1541.5,-393 1541.5,4 -4,4"/>
<!-- Node1 -->
<g id="node1" class="node">
<title>Node1</title>
<g id="a_node1"><a xlink:title="Implementação da classe DifficultyMenu, que gerencia a tela de seleção de dificuldade.">
<polygon fill="#bfbfbf" stroke="black" points="837,-358.5 837,-388.5 947,-388.5 947,-358.5 837,-358.5"/>
<text text-anchor="start" x="845" y="-376.5" font-family="Helvetica,sans-Serif" font-size="10.00">src/states/difficulty</text>
<text text-anchor="middle" x="892" y="-365.5" font-family="Helvetica,sans-Serif" font-size="10.00">_menu.cpp</text>
</a>
</g>
</g>
<!-- Node2 -->
<g id="node2" class="node">
<title>Node2</title>
<g id="a_node2"><a xlink:title=" ">
<polygon fill="white" stroke="#bfbfbf" points="28,-6 28,-25 86,-25 86,-6 28,-6"/>
<text text-anchor="middle" x="57" y="-13" font-family="Helvetica,sans-Serif" font-size="10.00">memory</text>
</a>
</g>
</g>
<!-- Node1&#45;&gt;Node2 -->
<g id="edge1" class="edge">
<title>Node1&#45;&gt;Node2</title>
<path fill="none" stroke="midnightblue" d="M836.87,-370.52C642.4,-362.82 0,-330.95 0,-246 0,-246 0,-246 0,-132 0,-93.28 26.07,-54.1 42.95,-32.8"/>
<polygon fill="midnightblue" stroke="midnightblue" points="45.67,-35.01 49.31,-25.06 40.26,-30.56 45.67,-35.01"/>
</g>
<!-- Node3 -->
<g id="node3" class="node">
<title>Node3</title>
<g id="a_node3"><a xlink:href="difficulty__menu_8hpp.html" target="_top" xlink:title="Definição da classe DifficultyMenu, que representa o estado do menu de seleção de dificuldade.">
<polygon fill="white" stroke="black" points="1061,-291.5 1061,-321.5 1177,-321.5 1177,-291.5 1061,-291.5"/>
<text text-anchor="start" x="1069" y="-309.5" font-family="Helvetica,sans-Serif" font-size="10.00">../../include/states</text>
<text text-anchor="middle" x="1119" y="-298.5" font-family="Helvetica,sans-Serif" font-size="10.00">/difficulty_menu.hpp</text>
</a>
</g>
</g>
<!-- Node1&#45;&gt;Node3 -->
<g id="edge2" class="edge">
<title>Node1&#45;&gt;Node3</title>
<path fill="none" stroke="midnightblue" d="M940.98,-358.48C975.91,-348.47 1023.06,-334.97 1060.06,-324.38"/>
<polygon fill="midnightblue" stroke="midnightblue" points="1061.07,-327.73 1069.72,-321.61 1059.14,-321 1061.07,-327.73"/>
</g>
<!-- Node8 -->
<g id="node8" class="node">
<title>Node8</title>
<g id="a_node8"><a xlink:href="init_8hpp.html" target="_top" xlink:title="Declara funções de inicialização e finalização do Allegro.">
<polygon fill="white" stroke="black" points="668,-235.5 668,-254.5 730,-254.5 730,-235.5 668,-235.5"/>
<text text-anchor="middle" x="699" y="-242.5" font-family="Helvetica,sans-Serif" font-size="10.00">../init.hpp</text>
</a>
</g>
</g>
<!-- Node1&#45;&gt;Node8 -->
<g id="edge50" class="edge">
<title>Node1&#45;&gt;Node8</title>
<path fill="none" stroke="midnightblue" d="M870.61,-358.48C833.69,-334.28 758.4,-284.94 721.04,-260.45"/>
<polygon fill="midnightblue" stroke="midnightblue" points="722.69,-257.34 712.41,-254.79 718.85,-263.2 722.69,-257.34"/>
</g>
<!-- Node29 -->
<g id="node29" class="node">
<title>Node29</title>
<g id="a_node29"><a xlink:href="main__menu_8hpp.html" target="_top" xlink:title="Definição da classe MainMenu, o estado que representa o menu principal do jogo.">
<polygon fill="white" stroke="black" points="1287.5,-291.5 1287.5,-321.5 1390.5,-321.5 1390.5,-291.5 1287.5,-291.5"/>
<text text-anchor="start" x="1295.5" y="-309.5" font-family="Helvetica,sans-Serif" font-size="10.00">../../include/states</text>
<text text-anchor="middle" x="1339" y="-298.5" font-family="Helvetica,sans-Serif" font-size="10.00">/main_menu.hpp</text>
</a>
</g>
</g>
<!-- Node1&#45;&gt;Node29 -->
<g id="edge51" class="edge">
<title>Node1&#45;&gt;Node29</title>
<path fill="none" stroke="midnightblue" d="M947.26,-364.46C1031.07,-352.28 1189.79,-329.2 1277.28,-316.48"/>
<polygon fill="midnightblue" stroke="midnightblue" points="1277.93,-319.92 1287.32,-315.01 1276.92,-312.99 1277.93,-319.92"/>
</g>
<!-- Node3&#45;&gt;Node2 -->
<g id="edge3" class="edge">
<title>Node3&#45;&gt;Node2</title>
<path fill="none" stroke="midnightblue" d="M1060.88,-305.45C836.35,-304.5 38,-293.81 38,-190 38,-190 38,-190 38,-132 38,-97.4 46.4,-57.74 52.03,-35.05"/>
<polygon fill="midnightblue" stroke="midnightblue" points="55.49,-35.67 54.59,-25.11 48.71,-33.92 55.49,-35.67"/>
</g>
<!-- Node4 -->
<g id="node4" class="node">
<title>Node4</title>
<g id="a_node4"><a xlink:href="defines_8hpp.html" target="_top" xlink:title="Constantes globais, macros e estruturas auxiliares do jogo.">
<polygon fill="white" stroke="black" points="1413,-67.5 1413,-86.5 1495,-86.5 1495,-67.5 1413,-67.5"/>
<text text-anchor="middle" x="1454" y="-74.5" font-family="Helvetica,sans-Serif" font-size="10.00">../defines.hpp</text>
</a>
</g>
</g>
<!-- Node3&#45;&gt;Node4 -->
<g id="edge4" class="edge">
<title>Node3&#45;&gt;Node4</title>
<path fill="none" stroke="midnightblue" d="M1177.04,-297.86C1243.65,-286.48 1353.07,-259.53 1426,-199 1448.06,-180.69 1450.64,-170.71 1458,-143 1460.28,-134.41 1458.39,-131.88 1458,-123 1457.62,-114.37 1456.82,-104.84 1456.04,-96.78"/>
<polygon fill="midnightblue" stroke="midnightblue" points="1459.5,-96.2 1454.99,-86.61 1452.54,-96.92 1459.5,-96.2"/>
</g>
<!-- Node3&#45;&gt;Node8 -->
<g id="edge8" class="edge">
<title>Node3&#45;&gt;Node8</title>
<path fill="none" stroke="midnightblue" d="M1060.6,-297.23C974.38,-285.01 815.17,-262.46 740.14,-251.83"/>
<polygon fill="midnightblue" stroke="midnightblue" points="740.53,-248.35 730.13,-250.41 739.54,-255.28 740.53,-248.35"/>
</g>
<!-- Node25 -->
<g id="node25" class="node">
<title>Node25</title>
<g id="a_node25"><a xlink:href="assets_8hpp.html" target="_top" xlink:title="Declara classes utilitárias para carregar e usar imagens, sons e fontes no Allegro.">
<polygon fill="white" stroke="black" points="867.5,-67.5 867.5,-86.5 936.5,-86.5 936.5,-67.5 867.5,-67.5"/>
<text text-anchor="middle" x="902" y="-74.5" font-family="Helvetica,sans-Serif" font-size="10.00">assets.hpp</text>
</a>
</g>
</g>
<!-- Node3&#45;&gt;Node25 -->
<g id="edge49" class="edge">
<title>Node3&#45;&gt;Node25</title>
<path fill="none" stroke="midnightblue" d="M1120.08,-291.41C1121.26,-266.27 1120.3,-213.12 1095,-179 1058.56,-129.86 991.11,-102.49 946.39,-89.01"/>
<polygon fill="midnightblue" stroke="midnightblue" points="947.23,-85.61 936.66,-86.18 945.28,-92.33 947.23,-85.61"/>
</g>
<!-- Node27 -->
<g id="node27" class="node">
<title>Node27</title>
<g id="a_node27"><a xlink:href="state_8hpp.html" target="_top" xlink:title="Interface base para estados da máquina de estados do jogo.">
<polygon fill="white" stroke="black" points="1332,-179.5 1332,-198.5 1394,-198.5 1394,-179.5 1332,-179.5"/>
<text text-anchor="middle" x="1363" y="-186.5" font-family="Helvetica,sans-Serif" font-size="10.00">state.hpp</text>
</a>
</g>
</g>
<!-- Node3&#45;&gt;Node27 -->
<g id="edge48" class="edge">
<title>Node3&#45;&gt;Node27</title>
<path fill="none" stroke="midnightblue" d="M1148.46,-291.4C1178.31,-277.13 1225.83,-254.46 1267,-235 1290.06,-224.1 1316.29,-211.81 1335.5,-202.84"/>
<polygon fill="midnightblue" stroke="midnightblue" points="1337,-206 1344.58,-198.59 1334.04,-199.65 1337,-206"/>
</g>
<!-- Node5 -->
<g id="node5" class="node">
<title>Node5</title>
<g id="a_node5"><a xlink:title=" ">
<polygon fill="white" stroke="#bfbfbf" points="1425.5,-6 1425.5,-25 1472.5,-25 1472.5,-6 1425.5,-6"/>
<text text-anchor="middle" x="1449" y="-13" font-family="Helvetica,sans-Serif" font-size="10.00">cmath</text>
</a>
</g>
</g>
<!-- Node4&#45;&gt;Node5 -->
<g id="edge5" class="edge">
<title>Node4&#45;&gt;Node5</title>
<path fill="none" stroke="midnightblue" d="M1453.28,-67.48C1452.58,-59.08 1451.48,-45.98 1450.57,-35.16"/>
<polygon fill="midnightblue" stroke="midnightblue" points="1454.04,-34.68 1449.72,-25.01 1447.06,-35.27 1454.04,-34.68"/>
</g>
<!-- Node6 -->
<g id="node6" class="node">
<title>Node6</title>
<g id="a_node6"><a xlink:title=" ">
<polygon fill="white" stroke="#bfbfbf" points="1353,-6 1353,-25 1397,-25 1397,-6 1353,-6"/>
<text text-anchor="middle" x="1375" y="-13" font-family="Helvetica,sans-Serif" font-size="10.00">string</text>
</a>
</g>
</g>
<!-- Node4&#45;&gt;Node6 -->
<g id="edge6" class="edge">
<title>Node4&#45;&gt;Node6</title>
<path fill="none" stroke="midnightblue" d="M1442.68,-67.48C1430.13,-58.02 1409.65,-42.6 1394.5,-31.19"/>
<polygon fill="midnightblue" stroke="midnightblue" points="1396.39,-28.23 1386.3,-25.01 1392.18,-33.82 1396.39,-28.23"/>
</g>
<!-- Node7 -->
<g id="node7" class="node">
<title>Node7</title>
<g id="a_node7"><a xlink:title=" ">
<polygon fill="white" stroke="#bfbfbf" points="1490.5,-6 1490.5,-25 1537.5,-25 1537.5,-6 1490.5,-6"/>
<text text-anchor="middle" x="1514" y="-13" font-family="Helvetica,sans-Serif" font-size="10.00">vector</text>
</a>
</g>
</g>
<!-- Node4&#45;&gt;Node7 -->
<g id="edge7" class="edge">
<title>Node4&#45;&gt;Node7</title>
<path fill="none" stroke="midnightblue" d="M1462.6,-67.48C1471.86,-58.28 1486.82,-43.46 1498.21,-32.16"/>
<polygon fill="midnightblue" stroke="midnightblue" points="1500.78,-34.54 1505.42,-25.01 1495.85,-29.57 1500.78,-34.54"/>
</g>
<!-- Node8&#45;&gt;Node2 -->
<g id="edge15" class="edge">
<title>Node8&#45;&gt;Node2</title>
<path fill="none" stroke="midnightblue" d="M667.81,-243.32C556.54,-240.63 183.33,-229.42 140,-199 84.24,-159.85 65.22,-73.87 59.36,-35.56"/>
<polygon fill="midnightblue" stroke="midnightblue" points="62.78,-34.73 57.94,-25.31 55.85,-35.7 62.78,-34.73"/>
</g>
<!-- Node8&#45;&gt;Node4 -->
<g id="edge38" class="edge">
<title>Node8&#45;&gt;Node4</title>
<path fill="none" stroke="midnightblue" d="M730.02,-243.91C858.87,-243.3 1347.6,-238.38 1403,-199 1436.66,-175.08 1448.22,-124.44 1452.1,-96.86"/>
<polygon fill="midnightblue" stroke="midnightblue" points="1455.62,-96.94 1453.34,-86.6 1448.67,-96.11 1455.62,-96.94"/>
</g>
<!-- Node8&#45;&gt;Node6 -->
<g id="edge17" class="edge">
<title>Node8&#45;&gt;Node6</title>
<path fill="none" stroke="midnightblue" d="M730.2,-243.38C820.88,-241.21 1082.93,-232.16 1161,-199 1251.29,-160.66 1331.66,-70.1 1362.07,-32.9"/>
<polygon fill="midnightblue" stroke="midnightblue" points="1364.86,-35.02 1368.4,-25.03 1359.41,-30.63 1364.86,-35.02"/>
</g>
<!-- Node9 -->
<g id="node9" class="node">
<title>Node9</title>
<g id="a_node9"><a xlink:title=" ">
<polygon fill="white" stroke="#bfbfbf" points="266.5,-179.5 266.5,-198.5 317.5,-198.5 317.5,-179.5 266.5,-179.5"/>
<text text-anchor="middle" x="292" y="-186.5" font-family="Helvetica,sans-Serif" font-size="10.00">math.h</text>
</a>
</g>
</g>
<!-- Node8&#45;&gt;Node9 -->
<g id="edge9" class="edge">
<title>Node8&#45;&gt;Node9</title>
<path fill="none" stroke="midnightblue" d="M667.92,-241.63C605.36,-236.56 459.65,-223.26 327.43,-198.83"/>
<polygon fill="midnightblue" stroke="midnightblue" points="328,-195.38 317.53,-196.98 326.71,-202.26 328,-195.38"/>
</g>
<!-- Node10 -->
<g id="node10" class="node">
<title>Node10</title>
<g id="a_node10"><a xlink:title=" ">
<polygon fill="white" stroke="#bfbfbf" points="336,-179.5 336,-198.5 400,-198.5 400,-179.5 336,-179.5"/>
<text text-anchor="middle" x="368" y="-186.5" font-family="Helvetica,sans-Serif" font-size="10.00">algorithm</text>
</a>
</g>
</g>
<!-- Node8&#45;&gt;Node10 -->
<g id="edge10" class="edge">
<title>Node8&#45;&gt;Node10</title>
<path fill="none" stroke="midnightblue" d="M667.99,-239.83C616.53,-232.78 510.05,-217.59 410.15,-199.12"/>
<polygon fill="midnightblue" stroke="midnightblue" points="410.66,-195.66 400.19,-197.26 409.38,-202.54 410.66,-195.66"/>
</g>
<!-- Node11 -->
<g id="node11" class="node">
<title>Node11</title>
<g id="a_node11"><a xlink:title=" ">
<polygon fill="white" stroke="#bfbfbf" points="418.5,-179.5 418.5,-198.5 473.5,-198.5 473.5,-179.5 418.5,-179.5"/>
<text text-anchor="middle" x="446" y="-186.5" font-family="Helvetica,sans-Serif" font-size="10.00">fstream</text>
</a>
</g>
</g>
<!-- Node8&#45;&gt;Node11 -->
<g id="edge11" class="edge">
<title>Node8&#45;&gt;Node11</title>
<path fill="none" stroke="midnightblue" d="M667.89,-237.38C626.73,-228.61 551.92,-212.66 488,-199 486.54,-198.69 485.05,-198.37 483.55,-198.05"/>
<polygon fill="midnightblue" stroke="midnightblue" points="484.07,-194.58 473.56,-195.91 482.61,-201.43 484.07,-194.58"/>
</g>
<!-- Node12 -->
<g id="node12" class="node">
<title>Node12</title>
<g id="a_node12"><a xlink:title=" ">
<polygon fill="white" stroke="#bfbfbf" points="144,-6 144,-25 204,-25 204,-6 144,-6"/>
<text text-anchor="middle" x="174" y="-13" font-family="Helvetica,sans-Serif" font-size="10.00">iostream</text>
</a>
</g>
</g>
<!-- Node8&#45;&gt;Node12 -->
<g id="edge12" class="edge">
<title>Node8&#45;&gt;Node12</title>
<path fill="none" stroke="midnightblue" d="M667.83,-243.82C557.59,-242.85 190.8,-236.8 156,-199 113.8,-153.16 146.63,-70.77 164.45,-34.49"/>
<polygon fill="midnightblue" stroke="midnightblue" points="167.77,-35.67 169.2,-25.17 161.54,-32.49 167.77,-35.67"/>
</g>
<!-- Node13 -->
<g id="node13" class="node">
<title>Node13</title>
<g id="a_node13"><a xlink:title=" ">
<polygon fill="white" stroke="#bfbfbf" points="606,-179.5 606,-198.5 638,-198.5 638,-179.5 606,-179.5"/>
<text text-anchor="middle" x="622" y="-186.5" font-family="Helvetica,sans-Serif" font-size="10.00">list</text>
</a>
</g>
</g>
<!-- Node8&#45;&gt;Node13 -->
<g id="edge13" class="edge">
<title>Node8&#45;&gt;Node13</title>
<path fill="none" stroke="midnightblue" d="M686.63,-235.32C674.84,-227.06 656.87,-214.45 642.86,-204.63"/>
<polygon fill="midnightblue" stroke="midnightblue" points="644.54,-201.53 634.34,-198.65 640.52,-207.26 644.54,-201.53"/>
</g>
<!-- Node14 -->
<g id="node14" class="node">
<title>Node14</title>
<g id="a_node14"><a xlink:title=" ">
<polygon fill="white" stroke="#bfbfbf" points="656,-179.5 656,-198.5 694,-198.5 694,-179.5 656,-179.5"/>
<text text-anchor="middle" x="675" y="-186.5" font-family="Helvetica,sans-Serif" font-size="10.00">map</text>
</a>
</g>
</g>
<!-- Node8&#45;&gt;Node14 -->
<g id="edge14" class="edge">
<title>Node8&#45;&gt;Node14</title>
<path fill="none" stroke="midnightblue" d="M695.04,-235.08C691.79,-227.77 687.08,-217.18 683.05,-208.1"/>
<polygon fill="midnightblue" stroke="midnightblue" points="686.15,-206.47 678.89,-198.75 679.75,-209.31 686.15,-206.47"/>
</g>
<!-- Node15 -->
<g id="node15" class="node">
<title>Node15</title>
<g id="a_node15"><a xlink:title=" ">
<polygon fill="white" stroke="#bfbfbf" points="750,-179.5 750,-198.5 806,-198.5 806,-179.5 750,-179.5"/>
<text text-anchor="middle" x="778" y="-186.5" font-family="Helvetica,sans-Serif" font-size="10.00">sstream</text>
</a>
</g>
</g>
<!-- Node8&#45;&gt;Node15 -->
<g id="edge16" class="edge">
<title>Node8&#45;&gt;Node15</title>
<path fill="none" stroke="midnightblue" d="M711.69,-235.32C723.9,-226.98 742.58,-214.21 757,-204.35"/>
<polygon fill="midnightblue" stroke="midnightblue" points="759.06,-207.19 765.34,-198.65 755.11,-201.41 759.06,-207.19"/>
</g>
<!-- Node16 -->
<g id="node16" class="node">
<title>Node16</title>
<g id="a_node16"><a xlink:title=" ">
<polygon fill="white" stroke="#bfbfbf" points="1057,-6 1057,-25 1159,-25 1159,-6 1057,-6"/>
<text text-anchor="middle" x="1108" y="-13" font-family="Helvetica,sans-Serif" font-size="10.00">allegro5/allegro.h</text>
</a>
</g>
</g>
<!-- Node8&#45;&gt;Node16 -->
<g id="edge18" class="edge">
<title>Node8&#45;&gt;Node16</title>
<path fill="none" stroke="midnightblue" d="M730.27,-242.97C822.47,-239.6 1088.44,-227.49 1114,-199 1155.43,-152.83 1130.02,-70.61 1115.74,-34.43"/>
<polygon fill="midnightblue" stroke="midnightblue" points="1118.96,-33.05 1111.92,-25.14 1112.49,-35.72 1118.96,-33.05"/>
</g>
<!-- Node17 -->
<g id="node17" class="node">
<title>Node17</title>
<g id="a_node17"><a xlink:title=" ">
<polygon fill="white" stroke="#bfbfbf" points="259,-6 259,-25 401,-25 401,-6 259,-6"/>
<text text-anchor="middle" x="330" y="-13" font-family="Helvetica,sans-Serif" font-size="10.00">allegro5/allegro_acodec.h</text>
</a>
</g>
</g>
<!-- Node8&#45;&gt;Node17 -->
<g id="edge19" class="edge">
<title>Node8&#45;&gt;Node17</title>
<path fill="none" stroke="midnightblue" d="M667.95,-243.74C559.85,-242.52 204.72,-235.72 171,-199 113.92,-136.85 244.24,-59.9 303.07,-29.62"/>
<polygon fill="midnightblue" stroke="midnightblue" points="304.84,-32.64 312.18,-25.01 301.68,-26.4 304.84,-32.64"/>
</g>
<!-- Node18 -->
<g id="node18" class="node">
<title>Node18</title>
<g id="a_node18"><a xlink:title=" ">
<polygon fill="white" stroke="#bfbfbf" points="437,-6 437,-25 571,-25 571,-6 437,-6"/>
<text text-anchor="middle" x="504" y="-13" font-family="Helvetica,sans-Serif" font-size="10.00">allegro5/allegro_audio.h</text>
</a>
</g>
</g>
<!-- Node8&#45;&gt;Node18 -->
<g id="edge20" class="edge">
<title>Node8&#45;&gt;Node18</title>
<path fill="none" stroke="midnightblue" d="M667.93,-239.76C640.75,-234.53 601.83,-223.17 577,-199 529.56,-152.83 512.1,-71.83 506.42,-35.3"/>
<polygon fill="midnightblue" stroke="midnightblue" points="509.85,-34.51 504.97,-25.11 502.92,-35.5 509.85,-34.51"/>
</g>
<!-- Node19 -->
<g id="node19" class="node">
<title>Node19</title>
<g id="a_node19"><a xlink:title=" ">
<polygon fill="white" stroke="#bfbfbf" points="604,-6 604,-25 742,-25 742,-6 604,-6"/>
<text text-anchor="middle" x="673" y="-13" font-family="Helvetica,sans-Serif" font-size="10.00">allegro5/allegro_image.h</text>
</a>
</g>
</g>
<!-- Node8&#45;&gt;Node19 -->
<g id="edge21" class="edge">
<title>Node8&#45;&gt;Node19</title>
<path fill="none" stroke="midnightblue" d="M667.94,-240.65C641.98,-236.02 606.48,-225.04 589,-199 550.84,-142.16 620.57,-65.21 655.18,-32.39"/>
<polygon fill="midnightblue" stroke="midnightblue" points="657.79,-34.74 662.76,-25.38 653.04,-29.6 657.79,-34.74"/>
</g>
<!-- Node20 -->
<g id="node20" class="node">
<title>Node20</title>
<g id="a_node20"><a xlink:title=" ">
<polygon fill="white" stroke="#bfbfbf" points="762.5,-0.5 762.5,-30.5 891.5,-30.5 891.5,-0.5 762.5,-0.5"/>
<text text-anchor="start" x="770.5" y="-18.5" font-family="Helvetica,sans-Serif" font-size="10.00">allegro5/allegro_native</text>
<text text-anchor="middle" x="827" y="-7.5" font-family="Helvetica,sans-Serif" font-size="10.00">_dialog.h</text>
</a>
</g>
</g>
<!-- Node8&#45;&gt;Node20 -->
<g id="edge22" class="edge">
<title>Node8&#45;&gt;Node20</title>
<path fill="none" stroke="midnightblue" d="M703.86,-235.36C722.01,-203.1 786.2,-89.01 814,-39.6"/>
<polygon fill="midnightblue" stroke="midnightblue" points="817.2,-41.06 819.05,-30.62 811.1,-37.62 817.2,-41.06"/>
</g>
<!-- Node21 -->
<g id="node21" class="node">
<title>Node21</title>
<g id="a_node21"><a xlink:title=" ">
<polygon fill="white" stroke="#bfbfbf" points="824,-179.5 824,-198.5 964,-198.5 964,-179.5 824,-179.5"/>
<text text-anchor="middle" x="894" y="-186.5" font-family="Helvetica,sans-Serif" font-size="10.00">allegro5/allegro_physfs.h</text>
</a>
</g>
</g>
<!-- Node8&#45;&gt;Node21 -->
<g id="edge23" class="edge">
<title>Node8&#45;&gt;Node21</title>
<path fill="none" stroke="midnightblue" d="M729.9,-235.44C763.27,-226.2 816.59,-211.44 853.35,-201.26"/>
<polygon fill="midnightblue" stroke="midnightblue" points="854.54,-204.56 863.25,-198.52 852.67,-197.81 854.54,-204.56"/>
</g>
<!-- Node22 -->
<g id="node22" class="node">
<title>Node22</title>
<g id="a_node22"><a xlink:title=" ">
<polygon fill="white" stroke="#bfbfbf" points="1177.5,-6 1177.5,-25 1334.5,-25 1334.5,-6 1177.5,-6"/>
<text text-anchor="middle" x="1256" y="-13" font-family="Helvetica,sans-Serif" font-size="10.00">allegro5/allegro_primitives.h</text>
</a>
</g>
</g>
<!-- Node8&#45;&gt;Node22 -->
<g id="edge24" class="edge">
<title>Node8&#45;&gt;Node22</title>
<path fill="none" stroke="midnightblue" d="M730.1,-244.15C817.93,-244.05 1065.88,-240.05 1134,-199 1198.17,-160.33 1235.73,-73.43 1249.71,-35.17"/>
<polygon fill="midnightblue" stroke="midnightblue" points="1253.14,-35.96 1253.16,-25.36 1246.54,-33.63 1253.14,-35.96"/>
</g>
<!-- Node23 -->
<g id="node23" class="node">
<title>Node23</title>
<g id="a_node23"><a xlink:title=" ">
<polygon fill="white" stroke="#bfbfbf" points="917,-6 917,-25 1035,-25 1035,-6 917,-6"/>
<text text-anchor="middle" x="976" y="-13" font-family="Helvetica,sans-Serif" font-size="10.00">allegro5/allegro_ttf.h</text>
</a>
</g>
</g>
<!-- Node8&#45;&gt;Node23 -->
<g id="edge25" class="edge">
<title>Node8&#45;&gt;Node23</title>
<path fill="none" stroke="midnightblue" d="M730.1,-242.8C819.23,-239.05 1070.78,-226.13 1095,-199 1145.3,-142.66 1044.73,-63.17 998.04,-30.93"/>
<polygon fill="midnightblue" stroke="midnightblue" points="999.73,-27.84 989.49,-25.13 995.8,-33.64 999.73,-27.84"/>
</g>
<!-- Node24 -->
<g id="node24" class="node">
<title>Node24</title>
<g id="a_node24"><a xlink:title=" ">
<polygon fill="white" stroke="#bfbfbf" points="982.5,-179.5 982.5,-198.5 1085.5,-198.5 1085.5,-179.5 982.5,-179.5"/>
<text text-anchor="middle" x="1034" y="-186.5" font-family="Helvetica,sans-Serif" font-size="10.00">allegro5/bitmap.h</text>
</a>
</g>
</g>
<!-- Node8&#45;&gt;Node24 -->
<g id="edge26" class="edge">
<title>Node8&#45;&gt;Node24</title>
<path fill="none" stroke="midnightblue" d="M730.22,-238.97C785.25,-230.1 900.49,-211.52 972.14,-199.97"/>
<polygon fill="midnightblue" stroke="midnightblue" points="973.07,-203.37 982.39,-198.32 971.96,-196.46 973.07,-203.37"/>
</g>
<!-- Node8&#45;&gt;Node25 -->
<g id="edge27" class="edge">
<title>Node8&#45;&gt;Node25</title>
<path fill="none" stroke="midnightblue" d="M667.72,-237.38C630.42,-228 575.61,-208.62 597,-179 657.03,-95.88 788.1,-80.05 857.24,-77.74"/>
<polygon fill="midnightblue" stroke="midnightblue" points="857.48,-81.23 867.38,-77.48 857.3,-74.23 857.48,-81.23"/>
</g>
<!-- Node26 -->
<g id="node26" class="node">
<title>Node26</title>
<g id="a_node26"><a xlink:href="player_8hpp.html" target="_top" xlink:title="Modela um jogador e operações de ranking.">
<polygon fill="white" stroke="black" points="180,-179.5 180,-198.5 248,-198.5 248,-179.5 180,-179.5"/>
<text text-anchor="middle" x="214" y="-186.5" font-family="Helvetica,sans-Serif" font-size="10.00">player.hpp</text>
</a>
</g>
</g>
<!-- Node8&#45;&gt;Node26 -->
<g id="edge39" class="edge">
<title>Node8&#45;&gt;Node26</title>
<path fill="none" stroke="midnightblue" d="M667.86,-242.26C595.74,-237.65 412.54,-223.88 255.56,-200.14"/>
<polygon fill="midnightblue" stroke="midnightblue" points="255.68,-196.61 245.26,-198.56 254.62,-203.53 255.68,-196.61"/>
</g>
<!-- Node8&#45;&gt;Node27 -->
<g id="edge41" class="edge">
<title>Node8&#45;&gt;Node27</title>
<path fill="none" stroke="midnightblue" d="M730.2,-241.92C817.27,-236.05 1070.22,-218.49 1280,-199 1293.55,-197.74 1308.33,-196.19 1321.61,-194.74"/>
<polygon fill="midnightblue" stroke="midnightblue" points="1322.33,-198.18 1331.89,-193.6 1321.56,-191.23 1322.33,-198.18"/>
</g>
<!-- Node25&#45;&gt;Node2 -->
<g id="edge29" class="edge">
<title>Node25&#45;&gt;Node2</title>
<path fill="none" stroke="midnightblue" d="M867.46,-75.51C759.11,-73.65 416.37,-65.27 135,-31 122.29,-29.45 108.52,-27.12 96.14,-24.77"/>
<polygon fill="midnightblue" stroke="midnightblue" points="96.61,-21.29 86.13,-22.81 95.27,-28.16 96.61,-21.29"/>
</g>
<!-- Node25&#45;&gt;Node6 -->
<g id="edge30" class="edge">
<title>Node25&#45;&gt;Node6</title>
<path fill="none" stroke="midnightblue" d="M936.54,-76.38C1011.96,-76.37 1196.42,-71.76 1344,-31 1345.93,-30.47 1347.89,-29.82 1349.84,-29.1"/>
<polygon fill="midnightblue" stroke="midnightblue" points="1351.47,-32.22 1359.3,-25.09 1348.73,-25.77 1351.47,-32.22"/>
</g>
<!-- Node25&#45;&gt;Node12 -->
<g id="edge28" class="edge">
<title>Node25&#45;&gt;Node12</title>
<path fill="none" stroke="midnightblue" d="M867.22,-75.06C769.56,-72.12 484.61,-61.37 250,-31 238.25,-29.48 225.58,-27.29 214.02,-25.06"/>
<polygon fill="midnightblue" stroke="midnightblue" points="214.68,-21.63 204.19,-23.12 213.32,-28.49 214.68,-21.63"/>
</g>
<!-- Node25&#45;&gt;Node16 -->
<g id="edge31" class="edge">
<title>Node25&#45;&gt;Node16</title>
<path fill="none" stroke="midnightblue" d="M931.51,-67.48C967.62,-57.05 1028.85,-39.36 1068.85,-27.81"/>
<polygon fill="midnightblue" stroke="midnightblue" points="1069.9,-31.15 1078.54,-25.01 1067.96,-24.42 1069.9,-31.15"/>
</g>
<!-- Node25&#45;&gt;Node17 -->
<g id="edge32" class="edge">
<title>Node25&#45;&gt;Node17</title>
<path fill="none" stroke="midnightblue" d="M867.44,-73.34C789.11,-67.18 592.12,-50.92 428,-31 417.08,-29.68 405.51,-28.11 394.28,-26.5"/>
<polygon fill="midnightblue" stroke="midnightblue" points="394.5,-23 384.1,-25.02 393.5,-29.92 394.5,-23"/>
</g>
<!-- Node25&#45;&gt;Node18 -->
<g id="edge33" class="edge">
<title>Node25&#45;&gt;Node18</title>
<path fill="none" stroke="midnightblue" d="M867.45,-71.08C810.6,-62.95 693.78,-46.11 595,-31 585.94,-29.61 576.38,-28.12 567,-26.64"/>
<polygon fill="midnightblue" stroke="midnightblue" points="567.34,-23.15 556.91,-25.05 566.24,-30.07 567.34,-23.15"/>
</g>
<!-- Node25&#45;&gt;Node19 -->
<g id="edge34" class="edge">
<title>Node25&#45;&gt;Node19</title>
<path fill="none" stroke="midnightblue" d="M869.19,-67.48C828.8,-56.98 760.12,-39.14 715.67,-27.59"/>
<polygon fill="midnightblue" stroke="midnightblue" points="716.31,-24.14 705.75,-25.01 714.55,-30.91 716.31,-24.14"/>
</g>
<!-- Node25&#45;&gt;Node20 -->
<g id="edge35" class="edge">
<title>Node25&#45;&gt;Node20</title>
<path fill="none" stroke="midnightblue" d="M891.25,-67.48C881.19,-59.49 865.77,-47.25 852.55,-36.77"/>
<polygon fill="midnightblue" stroke="midnightblue" points="854.69,-34 844.68,-30.52 850.33,-39.48 854.69,-34"/>
</g>
<!-- Node25&#45;&gt;Node22 -->
<g id="edge36" class="edge">
<title>Node25&#45;&gt;Node22</title>
<path fill="none" stroke="midnightblue" d="M936.59,-70.19C996.49,-60.12 1120.27,-39.31 1194.93,-26.76"/>
<polygon fill="midnightblue" stroke="midnightblue" points="1195.84,-30.16 1205.13,-25.05 1194.68,-23.26 1195.84,-30.16"/>
</g>
<!-- Node25&#45;&gt;Node23 -->
<g id="edge37" class="edge">
<title>Node25&#45;&gt;Node23</title>
<path fill="none" stroke="midnightblue" d="M912.6,-67.48C924.25,-58.11 943.19,-42.88 957.33,-31.51"/>
<polygon fill="midnightblue" stroke="midnightblue" points="959.82,-34 965.42,-25.01 955.43,-28.55 959.82,-34"/>
</g>
<!-- Node26&#45;&gt;Node8 -->
<g id="edge40" class="edge">
<title>Node26&#45;&gt;Node8</title>
<path fill="none" stroke="midnightblue" d="M248.15,-195.77C254.16,-196.96 260.27,-198.11 266,-199 409.23,-221.22 580.34,-235.06 657.67,-240.86"/>
<polygon fill="midnightblue" stroke="midnightblue" points="657.71,-244.37 667.94,-241.62 658.23,-237.39 657.71,-244.37"/>
</g>
<!-- Node27&#45;&gt;Node4 -->
<g id="edge43" class="edge">
<title>Node27&#45;&gt;Node4</title>
<path fill="none" stroke="midnightblue" d="M1371.13,-179.18C1379.33,-170.2 1392.28,-155.83 1403,-143 1416.45,-126.9 1431.18,-107.98 1441.33,-94.72"/>
<polygon fill="midnightblue" stroke="midnightblue" points="1444.28,-96.62 1447.56,-86.55 1438.72,-92.38 1444.28,-96.62"/>
</g>
<!-- Node27&#45;&gt;Node16 -->
<g id="edge42" class="edge">
<title>Node27&#45;&gt;Node16</title>
<path fill="none" stroke="midnightblue" d="M1350.35,-179.5C1309.4,-151.95 1180.1,-64.99 1129.04,-30.65"/>
<polygon fill="midnightblue" stroke="midnightblue" points="1130.97,-27.73 1120.72,-25.06 1127.07,-33.54 1130.97,-27.73"/>
</g>
<!-- Node28 -->
<g id="node28" class="node">
<title>Node28</title>
<g id="a_node28"><a xlink:href="motion_8hpp.html" target="_top" xlink:title="Gerencia efeitos de parallax e animações de cenário.">
<polygon fill="white" stroke="black" points="1322,-123.5 1322,-142.5 1394,-142.5 1394,-123.5 1322,-123.5"/>
<text text-anchor="middle" x="1358" y="-130.5" font-family="Helvetica,sans-Serif" font-size="10.00">motion.hpp</text>
</a>
</g>
</g>
<!-- Node27&#45;&gt;Node28 -->
<g id="edge44" class="edge">
<title>Node27&#45;&gt;Node28</title>
<path fill="none" stroke="midnightblue" d="M1362.17,-179.08C1361.52,-172.01 1360.58,-161.86 1359.76,-152.99"/>
<polygon fill="midnightblue" stroke="midnightblue" points="1363.22,-152.39 1358.81,-142.75 1356.25,-153.03 1363.22,-152.39"/>
</g>
<!-- Node28&#45;&gt;Node4 -->
<g id="edge47" class="edge">
<title>Node28&#45;&gt;Node4</title>
<path fill="none" stroke="midnightblue" d="M1373.42,-123.32C1388.54,-114.82 1411.82,-101.73 1429.47,-91.8"/>
<polygon fill="midnightblue" stroke="midnightblue" points="1431.61,-94.61 1438.61,-86.65 1428.18,-88.51 1431.61,-94.61"/>
</g>
<!-- Node28&#45;&gt;Node22 -->
<g id="edge45" class="edge">
<title>Node28&#45;&gt;Node22</title>
<path fill="none" stroke="midnightblue" d="M1350.33,-123.32C1333.35,-104.09 1292.33,-57.64 1270.4,-32.81"/>
<polygon fill="midnightblue" stroke="midnightblue" points="1273,-30.46 1263.76,-25.28 1267.75,-35.09 1273,-30.46"/>
</g>
<!-- Node28&#45;&gt;Node25 -->
<g id="edge46" class="edge">
<title>Node28&#45;&gt;Node25</title>
<path fill="none" stroke="midnightblue" d="M1321.84,-127.72C1239.27,-117.94 1037.05,-93.99 946.78,-83.3"/>
<polygon fill="midnightblue" stroke="midnightblue" points="946.94,-79.8 936.6,-82.1 946.12,-86.75 946.94,-79.8"/>
</g>
<!-- Node29&#45;&gt;Node4 -->
<g id="edge53" class="edge">
<title>Node29&#45;&gt;Node4</title>
<path fill="none" stroke="midnightblue" d="M1385.29,-291.43C1426.79,-276.07 1485.16,-247.03 1512,-199 1528.47,-169.51 1526.86,-153.33 1512,-123 1505.48,-109.68 1492.9,-99.18 1481.13,-91.68"/>
<polygon fill="midnightblue" stroke="midnightblue" points="1482.78,-88.59 1472.39,-86.53 1479.23,-94.62 1482.78,-88.59"/>
</g>
<!-- Node29&#45;&gt;Node8 -->
<g id="edge54" class="edge">
<title>Node29&#45;&gt;Node8</title>
<path fill="none" stroke="midnightblue" d="M1287.3,-300.57C1257.66,-297.75 1219.74,-294.16 1186,-291 1020.82,-275.54 824.08,-257.47 740.19,-249.77"/>
<polygon fill="midnightblue" stroke="midnightblue" points="740.33,-246.27 730.05,-248.84 739.69,-253.24 740.33,-246.27"/>
</g>
<!-- Node29&#45;&gt;Node25 -->
<g id="edge52" class="edge">
<title>Node29&#45;&gt;Node25</title>
<path fill="none" stroke="midnightblue" d="M1321.35,-291.33C1278.61,-257.65 1165.15,-171.94 1058,-123 1021.91,-106.52 978.34,-94.55 946.43,-87.13"/>
<polygon fill="midnightblue" stroke="midnightblue" points="947.03,-83.67 936.5,-84.87 945.48,-90.5 947.03,-83.67"/>
</g>
<!-- Node29&#45;&gt;Node27 -->
<g id="edge56" class="edge">
<title>Node29&#45;&gt;Node27</title>
<path fill="none" stroke="midnightblue" d="M1341.94,-291.34C1346.27,-270.53 1354.34,-231.66 1359.14,-208.58"/>
<polygon fill="midnightblue" stroke="midnightblue" points="1362.59,-209.17 1361.2,-198.67 1355.74,-207.75 1362.59,-209.17"/>
</g>
<!-- Node29&#45;&gt;Node28 -->
<g id="edge55" class="edge">
<title>Node29&#45;&gt;Node28</title>
<path fill="none" stroke="midnightblue" d="M1351.14,-291.19C1366.71,-271.79 1392.91,-235.38 1403,-199 1405.38,-190.43 1406.4,-187.21 1403,-179 1398.08,-167.12 1388.33,-156.74 1379.17,-148.96"/>
<polygon fill="midnightblue" stroke="midnightblue" points="1381.08,-146.01 1371.06,-142.56 1376.75,-151.51 1381.08,-146.01"/>
</g>
</g>
</svg>
