<?xml version="1.0" encoding="UTF-8" standalone="no"?>
<!DOCTYPE svg PUBLIC "-//W3C//DTD SVG 1.1//EN"
 "http://www.w3.org/Graphics/SVG/1.1/DTD/svg11.dtd">
<!-- Generated by graphviz version 2.43.0 (0)
 -->
<!-- Title: include/flappy_bird_controller.hpp Pages: 1 -->
<svg width="1663pt" height="442pt"
 viewBox="0.00 0.00 1662.96 442.00" xmlns="http://www.w3.org/2000/svg" xmlns:xlink="http://www.w3.org/1999/xlink">
<g id="graph0" class="graph" transform="scale(1 1) rotate(0) translate(4 438)">
<title>include/flappy_bird_controller.hpp</title>
<polygon fill="white" stroke="transparent" points="-4,4 -4,-438 1658.96,-438 1658.96,4 -4,4"/>
<!-- Node1 -->
<g id="node1" class="node">
<title>Node1</title>
<g id="a_node1"><a xlink:title="Declaracao da classe FlappyBird (controlador principal).">
<polygon fill="#bfbfbf" stroke="black" points="1166.5,-403.5 1166.5,-433.5 1275.5,-433.5 1275.5,-403.5 1166.5,-403.5"/>
<text text-anchor="start" x="1174.5" y="-421.5" font-family="Helvetica,sans-Serif" font-size="10.00">include/flappy_bird</text>
<text text-anchor="middle" x="1221" y="-410.5" font-family="Helvetica,sans-Serif" font-size="10.00">_controller.hpp</text>
</a>
</g>
</g>
<!-- Node2 -->
<g id="node2" class="node">
<title>Node2</title>
<g id="a_node2"><a xlink:title=" ">
<polygon fill="white" stroke="#bfbfbf" points="0,-6 0,-25 58,-25 58,-6 0,-6"/>
<text text-anchor="middle" x="29" y="-13" font-family="Helvetica,sans-Serif" font-size="10.00">memory</text>
</a>
</g>
</g>
<!-- Node1&#45;&gt;Node2 -->
<g id="edge1" class="edge">
<title>Node1&#45;&gt;Node2</title>
<path fill="none" stroke="midnightblue" d="M1166.31,-416.7C958.7,-413.42 226.04,-399.63 127,-367 77.71,-350.76 30,-353.9 30,-302 30,-302 30,-302 30,-132 30,-97.86 29.56,-58.05 29.26,-35.21"/>
<polygon fill="midnightblue" stroke="midnightblue" points="32.76,-35.15 29.13,-25.19 25.76,-35.24 32.76,-35.15"/>
</g>
<!-- Node3 -->
<g id="node3" class="node">
<title>Node3</title>
<g id="a_node3"><a xlink:href="assets_8hpp.html" target="_top" xlink:title="Declara classes utilitárias para carregar e usar imagens, sons e fontes no Allegro.">
<polygon fill="white" stroke="black" points="630.5,-67.5 630.5,-86.5 699.5,-86.5 699.5,-67.5 630.5,-67.5"/>
<text text-anchor="middle" x="665" y="-74.5" font-family="Helvetica,sans-Serif" font-size="10.00">assets.hpp</text>
</a>
</g>
</g>
<!-- Node1&#45;&gt;Node3 -->
<g id="edge2" class="edge">
<title>Node1&#45;&gt;Node3</title>
<path fill="none" stroke="midnightblue" d="M1166.26,-417.83C937.52,-418.48 70,-413.59 70,-302 70,-302 70,-302 70,-244 70,-129.81 481.72,-90.73 620.18,-80.82"/>
<polygon fill="midnightblue" stroke="midnightblue" points="620.71,-84.29 630.44,-80.1 620.22,-77.31 620.71,-84.29"/>
</g>
<!-- Node13 -->
<g id="node13" class="node">
<title>Node13</title>
<g id="a_node13"><a xlink:href="bird_8hpp.html" target="_top" xlink:title="Declaracao da classe Bird (personagem controlavel).">
<polygon fill="white" stroke="black" points="1301,-347.5 1301,-366.5 1357,-366.5 1357,-347.5 1301,-347.5"/>
<text text-anchor="middle" x="1329" y="-354.5" font-family="Helvetica,sans-Serif" font-size="10.00">bird.hpp</text>
</a>
</g>
</g>
<!-- Node1&#45;&gt;Node13 -->
<g id="edge13" class="edge">
<title>Node1&#45;&gt;Node13</title>
<path fill="none" stroke="midnightblue" d="M1246.59,-403.4C1264.07,-393.77 1287.09,-381.09 1304.36,-371.58"/>
<polygon fill="midnightblue" stroke="midnightblue" points="1306.22,-374.55 1313.29,-366.66 1302.84,-368.42 1306.22,-374.55"/>
</g>
<!-- Node14 -->
<g id="node14" class="node">
<title>Node14</title>
<g id="a_node14"><a xlink:href="defines_8hpp.html" target="_top" xlink:title="Constantes globais, macros e estruturas auxiliares do jogo.">
<polygon fill="white" stroke="black" points="1334.5,-67.5 1334.5,-86.5 1407.5,-86.5 1407.5,-67.5 1334.5,-67.5"/>
<text text-anchor="middle" x="1371" y="-74.5" font-family="Helvetica,sans-Serif" font-size="10.00">defines.hpp</text>
</a>
</g>
</g>
<!-- Node1&#45;&gt;Node14 -->
<g id="edge50" class="edge">
<title>Node1&#45;&gt;Node14</title>
<path fill="none" stroke="midnightblue" d="M1275.81,-410.03C1368.43,-396.08 1549.16,-362.74 1583,-311 1626.43,-244.6 1764.71,-366.42 1479,-123 1460.85,-107.53 1436.63,-96.79 1415.73,-89.69"/>
<polygon fill="midnightblue" stroke="midnightblue" points="1416.67,-86.32 1406.08,-86.58 1414.53,-92.98 1416.67,-86.32"/>
</g>
<!-- Node17 -->
<g id="node17" class="node">
<title>Node17</title>
<g id="a_node17"><a xlink:href="game__object_8hpp.html" target="_top" xlink:title="Classe base abstrata para todos os objetos renderizáveis.">
<polygon fill="white" stroke="black" points="1210.5,-291.5 1210.5,-310.5 1311.5,-310.5 1311.5,-291.5 1210.5,-291.5"/>
<text text-anchor="middle" x="1261" y="-298.5" font-family="Helvetica,sans-Serif" font-size="10.00">game_object.hpp</text>
</a>
</g>
</g>
<!-- Node1&#45;&gt;Node17 -->
<g id="edge51" class="edge">
<title>Node1&#45;&gt;Node17</title>
<path fill="none" stroke="midnightblue" d="M1225.9,-403.34C1233.14,-382.43 1246.69,-343.31 1254.67,-320.27"/>
<polygon fill="midnightblue" stroke="midnightblue" points="1258.03,-321.26 1258,-310.67 1251.42,-318.97 1258.03,-321.26"/>
</g>
<!-- Node18 -->
<g id="node18" class="node">
<title>Node18</title>
<g id="a_node18"><a xlink:href="init_8hpp.html" target="_top" xlink:title="Declara funções de inicialização e finalização do Allegro.">
<polygon fill="white" stroke="black" points="824.5,-235.5 824.5,-254.5 877.5,-254.5 877.5,-235.5 824.5,-235.5"/>
<text text-anchor="middle" x="851" y="-242.5" font-family="Helvetica,sans-Serif" font-size="10.00">init.hpp</text>
</a>
</g>
</g>
<!-- Node1&#45;&gt;Node18 -->
<g id="edge52" class="edge">
<title>Node1&#45;&gt;Node18</title>
<path fill="none" stroke="midnightblue" d="M1190.72,-403.47C1120.31,-370.83 946.44,-290.24 878.67,-258.83"/>
<polygon fill="midnightblue" stroke="midnightblue" points="880.01,-255.59 869.47,-254.56 877.07,-261.94 880.01,-255.59"/>
</g>
<!-- Node27 -->
<g id="node27" class="node">
<title>Node27</title>
<g id="a_node27"><a xlink:href="player_8hpp.html" target="_top" xlink:title="Modela um jogador e operações de ranking.">
<polygon fill="white" stroke="black" points="1198,-179.5 1198,-198.5 1266,-198.5 1266,-179.5 1198,-179.5"/>
<text text-anchor="middle" x="1232" y="-186.5" font-family="Helvetica,sans-Serif" font-size="10.00">player.hpp</text>
</a>
</g>
</g>
<!-- Node1&#45;&gt;Node27 -->
<g id="edge60" class="edge">
<title>Node1&#45;&gt;Node27</title>
<path fill="none" stroke="midnightblue" d="M1216.18,-403.47C1208.78,-380.13 1196.06,-331.88 1202,-291 1206.33,-261.23 1217.47,-228.03 1224.89,-208.09"/>
<polygon fill="midnightblue" stroke="midnightblue" points="1228.17,-209.31 1228.47,-198.72 1221.63,-206.82 1228.17,-209.31"/>
</g>
<!-- Node30 -->
<g id="node30" class="node">
<title>Node30</title>
<g id="a_node30"><a xlink:href="pipe_8hpp.html" target="_top" xlink:title="Declaration of pipe&#45;related classes (Pipe, PipePair, PipeList).">
<polygon fill="white" stroke="black" points="1386.5,-347.5 1386.5,-366.5 1445.5,-366.5 1445.5,-347.5 1386.5,-347.5"/>
<text text-anchor="middle" x="1416" y="-354.5" font-family="Helvetica,sans-Serif" font-size="10.00">pipe.hpp</text>
</a>
</g>
</g>
<!-- Node1&#45;&gt;Node30 -->
<g id="edge53" class="edge">
<title>Node1&#45;&gt;Node30</title>
<path fill="none" stroke="midnightblue" d="M1267.21,-403.4C1301.05,-393.07 1346.42,-379.23 1378.13,-369.56"/>
<polygon fill="midnightblue" stroke="midnightblue" points="1379.37,-372.84 1387.91,-366.57 1377.32,-366.14 1379.37,-372.84"/>
</g>
<!-- Node3&#45;&gt;Node2 -->
<g id="edge4" class="edge">
<title>Node3&#45;&gt;Node2</title>
<path fill="none" stroke="midnightblue" d="M630.39,-74.71C519.75,-70.38 175.59,-55.26 67,-31 64,-30.33 60.91,-29.47 57.87,-28.5"/>
<polygon fill="midnightblue" stroke="midnightblue" points="58.98,-25.18 48.39,-25.14 56.64,-31.78 58.98,-25.18"/>
</g>
<!-- Node4 -->
<g id="node4" class="node">
<title>Node4</title>
<g id="a_node4"><a xlink:title=" ">
<polygon fill="white" stroke="#bfbfbf" points="516,-6 516,-25 576,-25 576,-6 516,-6"/>
<text text-anchor="middle" x="546" y="-13" font-family="Helvetica,sans-Serif" font-size="10.00">iostream</text>
</a>
</g>
</g>
<!-- Node3&#45;&gt;Node4 -->
<g id="edge3" class="edge">
<title>Node3&#45;&gt;Node4</title>
<path fill="none" stroke="midnightblue" d="M647.95,-67.48C628.16,-57.58 595.28,-41.14 572.23,-29.62"/>
<polygon fill="midnightblue" stroke="midnightblue" points="573.53,-26.35 563.02,-25.01 570.4,-32.61 573.53,-26.35"/>
</g>
<!-- Node5 -->
<g id="node5" class="node">
<title>Node5</title>
<g id="a_node5"><a xlink:title=" ">
<polygon fill="white" stroke="#bfbfbf" points="1202,-6 1202,-25 1246,-25 1246,-6 1202,-6"/>
<text text-anchor="middle" x="1224" y="-13" font-family="Helvetica,sans-Serif" font-size="10.00">string</text>
</a>
</g>
</g>
<!-- Node3&#45;&gt;Node5 -->
<g id="edge5" class="edge">
<title>Node3&#45;&gt;Node5</title>
<path fill="none" stroke="midnightblue" d="M699.52,-74.64C801.35,-70.38 1099.23,-56.07 1193,-31 1194.94,-30.48 1196.9,-29.85 1198.85,-29.14"/>
<polygon fill="midnightblue" stroke="midnightblue" points="1200.47,-32.26 1208.32,-25.14 1197.74,-25.81 1200.47,-32.26"/>
</g>
<!-- Node6 -->
<g id="node6" class="node">
<title>Node6</title>
<g id="a_node6"><a xlink:title=" ">
<polygon fill="white" stroke="#bfbfbf" points="1082,-6 1082,-25 1184,-25 1184,-6 1082,-6"/>
<text text-anchor="middle" x="1133" y="-13" font-family="Helvetica,sans-Serif" font-size="10.00">allegro5/allegro.h</text>
</a>
</g>
</g>
<!-- Node3&#45;&gt;Node6 -->
<g id="edge6" class="edge">
<title>Node3&#45;&gt;Node6</title>
<path fill="none" stroke="midnightblue" d="M699.6,-73.68C770.2,-68.61 935.77,-55.05 1073,-31 1078.88,-29.97 1085.05,-28.7 1091.09,-27.34"/>
<polygon fill="midnightblue" stroke="midnightblue" points="1092.14,-30.69 1101.09,-25.01 1090.55,-23.88 1092.14,-30.69"/>
</g>
<!-- Node7 -->
<g id="node7" class="node">
<title>Node7</title>
<g id="a_node7"><a xlink:title=" ">
<polygon fill="white" stroke="#bfbfbf" points="594,-6 594,-25 736,-25 736,-6 594,-6"/>
<text text-anchor="middle" x="665" y="-13" font-family="Helvetica,sans-Serif" font-size="10.00">allegro5/allegro_acodec.h</text>
</a>
</g>
</g>
<!-- Node3&#45;&gt;Node7 -->
<g id="edge7" class="edge">
<title>Node3&#45;&gt;Node7</title>
<path fill="none" stroke="midnightblue" d="M665,-67.48C665,-59.08 665,-45.98 665,-35.16"/>
<polygon fill="midnightblue" stroke="midnightblue" points="668.5,-35.01 665,-25.01 661.5,-35.01 668.5,-35.01"/>
</g>
<!-- Node8 -->
<g id="node8" class="node">
<title>Node8</title>
<g id="a_node8"><a xlink:title=" ">
<polygon fill="white" stroke="#bfbfbf" points="754,-6 754,-25 888,-25 888,-6 754,-6"/>
<text text-anchor="middle" x="821" y="-13" font-family="Helvetica,sans-Serif" font-size="10.00">allegro5/allegro_audio.h</text>
</a>
</g>
</g>
<!-- Node3&#45;&gt;Node8 -->
<g id="edge8" class="edge">
<title>Node3&#45;&gt;Node8</title>
<path fill="none" stroke="midnightblue" d="M687.35,-67.48C713.99,-57.31 758.71,-40.26 789.01,-28.7"/>
<polygon fill="midnightblue" stroke="midnightblue" points="790.59,-31.84 798.69,-25.01 788.1,-25.3 790.59,-31.84"/>
</g>
<!-- Node9 -->
<g id="node9" class="node">
<title>Node9</title>
<g id="a_node9"><a xlink:title=" ">
<polygon fill="white" stroke="#bfbfbf" points="76,-6 76,-25 214,-25 214,-6 76,-6"/>
<text text-anchor="middle" x="145" y="-13" font-family="Helvetica,sans-Serif" font-size="10.00">allegro5/allegro_image.h</text>
</a>
</g>
</g>
<!-- Node3&#45;&gt;Node9 -->
<g id="edge9" class="edge">
<title>Node3&#45;&gt;Node9</title>
<path fill="none" stroke="midnightblue" d="M630.3,-73.41C555.71,-67.63 374.67,-52.48 224,-31 215.57,-29.8 206.66,-28.34 197.98,-26.83"/>
<polygon fill="midnightblue" stroke="midnightblue" points="198.41,-23.35 187.95,-25.03 197.17,-30.24 198.41,-23.35"/>
</g>
<!-- Node10 -->
<g id="node10" class="node">
<title>Node10</title>
<g id="a_node10"><a xlink:title=" ">
<polygon fill="white" stroke="#bfbfbf" points="232.5,-0.5 232.5,-30.5 361.5,-30.5 361.5,-0.5 232.5,-0.5"/>
<text text-anchor="start" x="240.5" y="-18.5" font-family="Helvetica,sans-Serif" font-size="10.00">allegro5/allegro_native</text>
<text text-anchor="middle" x="297" y="-7.5" font-family="Helvetica,sans-Serif" font-size="10.00">_dialog.h</text>
</a>
</g>
</g>
<!-- Node3&#45;&gt;Node10 -->
<g id="edge10" class="edge">
<title>Node3&#45;&gt;Node10</title>
<path fill="none" stroke="midnightblue" d="M630.08,-71.13C576.7,-63.59 471.41,-48.31 371.51,-31.04"/>
<polygon fill="midnightblue" stroke="midnightblue" points="372,-27.58 361.54,-29.31 370.8,-34.47 372,-27.58"/>
</g>
<!-- Node11 -->
<g id="node11" class="node">
<title>Node11</title>
<g id="a_node11"><a xlink:title=" ">
<polygon fill="white" stroke="#bfbfbf" points="906.5,-6 906.5,-25 1063.5,-25 1063.5,-6 906.5,-6"/>
<text text-anchor="middle" x="985" y="-13" font-family="Helvetica,sans-Serif" font-size="10.00">allegro5/allegro_primitives.h</text>
</a>
</g>
</g>
<!-- Node3&#45;&gt;Node11 -->
<g id="edge11" class="edge">
<title>Node3&#45;&gt;Node11</title>
<path fill="none" stroke="midnightblue" d="M699.55,-69.58C754.66,-59.33 862.98,-39.19 929.19,-26.88"/>
<polygon fill="midnightblue" stroke="midnightblue" points="929.84,-30.32 939.04,-25.05 928.56,-23.43 929.84,-30.32"/>
</g>
<!-- Node12 -->
<g id="node12" class="node">
<title>Node12</title>
<g id="a_node12"><a xlink:title=" ">
<polygon fill="white" stroke="#bfbfbf" points="380,-6 380,-25 498,-25 498,-6 380,-6"/>
<text text-anchor="middle" x="439" y="-13" font-family="Helvetica,sans-Serif" font-size="10.00">allegro5/allegro_ttf.h</text>
</a>
</g>
</g>
<!-- Node3&#45;&gt;Node12 -->
<g id="edge12" class="edge">
<title>Node3&#45;&gt;Node12</title>
<path fill="none" stroke="midnightblue" d="M632.62,-67.48C592.76,-56.98 524.98,-39.14 481.11,-27.59"/>
<polygon fill="midnightblue" stroke="midnightblue" points="481.88,-24.17 471.32,-25.01 480.1,-30.94 481.88,-24.17"/>
</g>
<!-- Node13&#45;&gt;Node11 -->
<g id="edge14" class="edge">
<title>Node13&#45;&gt;Node11</title>
<path fill="none" stroke="midnightblue" d="M1337.82,-347.22C1363.86,-320.22 1436.26,-236.69 1397,-179 1353.86,-115.61 1127.87,-52.36 1030.13,-27.51"/>
<polygon fill="midnightblue" stroke="midnightblue" points="1030.8,-24.07 1020.24,-25.02 1029.08,-30.86 1030.8,-24.07"/>
</g>
<!-- Node13&#45;&gt;Node14 -->
<g id="edge15" class="edge">
<title>Node13&#45;&gt;Node14</title>
<path fill="none" stroke="midnightblue" d="M1353.1,-347.41C1389.42,-332.75 1454,-299.19 1454,-246 1454,-246 1454,-246 1454,-188 1454,-146.91 1416.64,-111.44 1392.05,-92.55"/>
<polygon fill="midnightblue" stroke="midnightblue" points="1394.09,-89.7 1383.97,-86.57 1389.93,-95.33 1394.09,-89.7"/>
</g>
<!-- Node13&#45;&gt;Node17 -->
<g id="edge19" class="edge">
<title>Node13&#45;&gt;Node17</title>
<path fill="none" stroke="midnightblue" d="M1318.07,-347.32C1307.83,-339.18 1292.28,-326.84 1280,-317.09"/>
<polygon fill="midnightblue" stroke="midnightblue" points="1282.13,-314.31 1272.12,-310.83 1277.78,-319.79 1282.13,-314.31"/>
</g>
<!-- Node14&#45;&gt;Node5 -->
<g id="edge17" class="edge">
<title>Node14&#45;&gt;Node5</title>
<path fill="none" stroke="midnightblue" d="M1349.94,-67.48C1324.94,-57.36 1283.06,-40.4 1254.51,-28.85"/>
<polygon fill="midnightblue" stroke="midnightblue" points="1255.61,-25.52 1245.02,-25.01 1252.98,-32.01 1255.61,-25.52"/>
</g>
<!-- Node15 -->
<g id="node15" class="node">
<title>Node15</title>
<g id="a_node15"><a xlink:title=" ">
<polygon fill="white" stroke="#bfbfbf" points="1347.5,-6 1347.5,-25 1394.5,-25 1394.5,-6 1347.5,-6"/>
<text text-anchor="middle" x="1371" y="-13" font-family="Helvetica,sans-Serif" font-size="10.00">cmath</text>
</a>
</g>
</g>
<!-- Node14&#45;&gt;Node15 -->
<g id="edge16" class="edge">
<title>Node14&#45;&gt;Node15</title>
<path fill="none" stroke="midnightblue" d="M1371,-67.48C1371,-59.08 1371,-45.98 1371,-35.16"/>
<polygon fill="midnightblue" stroke="midnightblue" points="1374.5,-35.01 1371,-25.01 1367.5,-35.01 1374.5,-35.01"/>
</g>
<!-- Node16 -->
<g id="node16" class="node">
<title>Node16</title>
<g id="a_node16"><a xlink:title=" ">
<polygon fill="white" stroke="#bfbfbf" points="1495.5,-6 1495.5,-25 1542.5,-25 1542.5,-6 1495.5,-6"/>
<text text-anchor="middle" x="1519" y="-13" font-family="Helvetica,sans-Serif" font-size="10.00">vector</text>
</a>
</g>
</g>
<!-- Node14&#45;&gt;Node16 -->
<g id="edge18" class="edge">
<title>Node14&#45;&gt;Node16</title>
<path fill="none" stroke="midnightblue" d="M1392.2,-67.48C1417.37,-57.36 1459.54,-40.4 1488.28,-28.85"/>
<polygon fill="midnightblue" stroke="midnightblue" points="1489.86,-31.99 1497.83,-25.01 1487.25,-25.49 1489.86,-31.99"/>
</g>
<!-- Node17&#45;&gt;Node18 -->
<g id="edge20" class="edge">
<title>Node17&#45;&gt;Node18</title>
<path fill="none" stroke="midnightblue" d="M1210.31,-293.32C1126.59,-282.3 961.35,-260.53 887.81,-250.85"/>
<polygon fill="midnightblue" stroke="midnightblue" points="888.01,-247.34 877.64,-249.51 887.1,-254.28 888.01,-247.34"/>
</g>
<!-- Node18&#45;&gt;Node2 -->
<g id="edge27" class="edge">
<title>Node18&#45;&gt;Node2</title>
<path fill="none" stroke="midnightblue" d="M824.32,-243.56C705.13,-241.4 224.69,-230.78 166,-199 96.9,-161.59 52.63,-72.59 36.2,-34.4"/>
<polygon fill="midnightblue" stroke="midnightblue" points="39.39,-32.95 32.31,-25.07 32.92,-35.64 39.39,-32.95"/>
</g>
<!-- Node18&#45;&gt;Node3 -->
<g id="edge39" class="edge">
<title>Node18&#45;&gt;Node3</title>
<path fill="none" stroke="midnightblue" d="M835.01,-235.38C820.11,-227 797.59,-213.45 780,-199 739.52,-165.73 698.86,-119.1 678.46,-94.58"/>
<polygon fill="midnightblue" stroke="midnightblue" points="680.96,-92.11 671.9,-86.61 675.55,-96.55 680.96,-92.11"/>
</g>
<!-- Node18&#45;&gt;Node4 -->
<g id="edge24" class="edge">
<title>Node18&#45;&gt;Node4</title>
<path fill="none" stroke="midnightblue" d="M824.36,-242.45C748.01,-237.74 532.56,-222.47 512,-199 470.26,-151.36 512.64,-69.31 534.59,-33.76"/>
<polygon fill="midnightblue" stroke="midnightblue" points="537.73,-35.35 540.15,-25.03 531.82,-31.59 537.73,-35.35"/>
</g>
<!-- Node18&#45;&gt;Node5 -->
<g id="edge29" class="edge">
<title>Node18&#45;&gt;Node5</title>
<path fill="none" stroke="midnightblue" d="M877.63,-236.02C902.12,-228.18 939.06,-215.08 969,-199 1064.63,-147.66 1165.97,-65.59 1206.12,-31.8"/>
<polygon fill="midnightblue" stroke="midnightblue" points="1208.58,-34.31 1213.95,-25.17 1204.06,-28.97 1208.58,-34.31"/>
</g>
<!-- Node18&#45;&gt;Node6 -->
<g id="edge30" class="edge">
<title>Node18&#45;&gt;Node6</title>
<path fill="none" stroke="midnightblue" d="M877.68,-243.34C937.83,-241.26 1081.22,-232.78 1113,-199 1155.56,-153.77 1144.92,-71.67 1137.41,-35.03"/>
<polygon fill="midnightblue" stroke="midnightblue" points="1140.81,-34.21 1135.24,-25.2 1133.98,-35.72 1140.81,-34.21"/>
</g>
<!-- Node18&#45;&gt;Node7 -->
<g id="edge31" class="edge">
<title>Node18&#45;&gt;Node7</title>
<path fill="none" stroke="midnightblue" d="M844.32,-235.43C824.21,-209.66 762.32,-130.77 709,-67 699.42,-55.55 688.38,-42.88 679.76,-33.1"/>
<polygon fill="midnightblue" stroke="midnightblue" points="682.15,-30.51 672.9,-25.35 676.91,-35.15 682.15,-30.51"/>
</g>
<!-- Node18&#45;&gt;Node8 -->
<g id="edge32" class="edge">
<title>Node18&#45;&gt;Node8</title>
<path fill="none" stroke="midnightblue" d="M849.86,-235.36C845.47,-202.07 829.59,-81.65 823.45,-35.07"/>
<polygon fill="midnightblue" stroke="midnightblue" points="826.92,-34.61 822.14,-25.15 819.98,-35.52 826.92,-34.61"/>
</g>
<!-- Node18&#45;&gt;Node9 -->
<g id="edge33" class="edge">
<title>Node18&#45;&gt;Node9</title>
<path fill="none" stroke="midnightblue" d="M824.38,-244.03C706.63,-243.94 236.18,-240.94 187,-199 138.58,-157.7 139.65,-72.86 142.84,-35.21"/>
<polygon fill="midnightblue" stroke="midnightblue" points="146.33,-35.43 143.84,-25.14 139.37,-34.74 146.33,-35.43"/>
</g>
<!-- Node18&#45;&gt;Node10 -->
<g id="edge34" class="edge">
<title>Node18&#45;&gt;Node10</title>
<path fill="none" stroke="midnightblue" d="M824.4,-244.24C707.83,-245 245.98,-245.07 203,-199 157.07,-149.77 230.11,-73.82 271.55,-37.39"/>
<polygon fill="midnightblue" stroke="midnightblue" points="274.08,-39.83 279.37,-30.65 269.51,-34.53 274.08,-39.83"/>
</g>
<!-- Node18&#45;&gt;Node11 -->
<g id="edge36" class="edge">
<title>Node18&#45;&gt;Node11</title>
<path fill="none" stroke="midnightblue" d="M853.84,-235.44C860.76,-215.14 879.61,-162.83 903,-123 923.16,-88.67 952.88,-52.79 970.45,-32.68"/>
<polygon fill="midnightblue" stroke="midnightblue" points="973.17,-34.88 977.18,-25.08 967.93,-30.25 973.17,-34.88"/>
</g>
<!-- Node18&#45;&gt;Node12 -->
<g id="edge37" class="edge">
<title>Node18&#45;&gt;Node12</title>
<path fill="none" stroke="midnightblue" d="M824.26,-244.22C750.4,-244.29 545.72,-240.63 496,-199 446.18,-157.29 439.22,-72.66 438.71,-35.14"/>
<polygon fill="midnightblue" stroke="midnightblue" points="442.21,-35.11 438.71,-25.1 435.21,-35.1 442.21,-35.11"/>
</g>
<!-- Node18&#45;&gt;Node14 -->
<g id="edge40" class="edge">
<title>Node18&#45;&gt;Node14</title>
<path fill="none" stroke="midnightblue" d="M877.75,-242.96C930.41,-240.27 1050.67,-230.84 1146,-199 1167.08,-191.96 1293.11,-121.75 1346.8,-91.62"/>
<polygon fill="midnightblue" stroke="midnightblue" points="1348.65,-94.6 1355.65,-86.65 1345.22,-88.49 1348.65,-94.6"/>
</g>
<!-- Node19 -->
<g id="node19" class="node">
<title>Node19</title>
<g id="a_node19"><a xlink:title=" ">
<polygon fill="white" stroke="#bfbfbf" points="520.5,-179.5 520.5,-198.5 571.5,-198.5 571.5,-179.5 520.5,-179.5"/>
<text text-anchor="middle" x="546" y="-186.5" font-family="Helvetica,sans-Serif" font-size="10.00">math.h</text>
</a>
</g>
</g>
<!-- Node18&#45;&gt;Node19 -->
<g id="edge21" class="edge">
<title>Node18&#45;&gt;Node19</title>
<path fill="none" stroke="midnightblue" d="M824.41,-240.35C777.45,-233.73 676.56,-218.77 581.34,-198.91"/>
<polygon fill="midnightblue" stroke="midnightblue" points="582.06,-195.48 571.55,-196.84 580.62,-202.33 582.06,-195.48"/>
</g>
<!-- Node20 -->
<g id="node20" class="node">
<title>Node20</title>
<g id="a_node20"><a xlink:title=" ">
<polygon fill="white" stroke="#bfbfbf" points="590,-179.5 590,-198.5 654,-198.5 654,-179.5 590,-179.5"/>
<text text-anchor="middle" x="622" y="-186.5" font-family="Helvetica,sans-Serif" font-size="10.00">algorithm</text>
</a>
</g>
</g>
<!-- Node18&#45;&gt;Node20 -->
<g id="edge22" class="edge">
<title>Node18&#45;&gt;Node20</title>
<path fill="none" stroke="midnightblue" d="M824.28,-237.7C784.82,-228.39 710.6,-210.89 663.87,-199.87"/>
<polygon fill="midnightblue" stroke="midnightblue" points="664.58,-196.45 654.05,-197.56 662.98,-203.26 664.58,-196.45"/>
</g>
<!-- Node21 -->
<g id="node21" class="node">
<title>Node21</title>
<g id="a_node21"><a xlink:title=" ">
<polygon fill="white" stroke="#bfbfbf" points="672.5,-179.5 672.5,-198.5 727.5,-198.5 727.5,-179.5 672.5,-179.5"/>
<text text-anchor="middle" x="700" y="-186.5" font-family="Helvetica,sans-Serif" font-size="10.00">fstream</text>
</a>
</g>
</g>
<!-- Node18&#45;&gt;Node21 -->
<g id="edge23" class="edge">
<title>Node18&#45;&gt;Node21</title>
<path fill="none" stroke="midnightblue" d="M827.07,-235.44C801.78,-226.4 761.7,-212.06 733.32,-201.92"/>
<polygon fill="midnightblue" stroke="midnightblue" points="734.41,-198.59 723.81,-198.52 732.05,-205.18 734.41,-198.59"/>
</g>
<!-- Node22 -->
<g id="node22" class="node">
<title>Node22</title>
<g id="a_node22"><a xlink:title=" ">
<polygon fill="white" stroke="#bfbfbf" points="1016,-179.5 1016,-198.5 1048,-198.5 1048,-179.5 1016,-179.5"/>
<text text-anchor="middle" x="1032" y="-186.5" font-family="Helvetica,sans-Serif" font-size="10.00">list</text>
</a>
</g>
</g>
<!-- Node18&#45;&gt;Node22 -->
<g id="edge25" class="edge">
<title>Node18&#45;&gt;Node22</title>
<path fill="none" stroke="midnightblue" d="M877.74,-236.05C907.92,-227.07 958.49,-212.01 1002,-199 1003.26,-198.62 1004.55,-198.24 1005.85,-197.85"/>
<polygon fill="midnightblue" stroke="midnightblue" points="1007.24,-201.09 1015.81,-194.86 1005.23,-194.38 1007.24,-201.09"/>
</g>
<!-- Node23 -->
<g id="node23" class="node">
<title>Node23</title>
<g id="a_node23"><a xlink:title=" ">
<polygon fill="white" stroke="#bfbfbf" points="1066,-179.5 1066,-198.5 1104,-198.5 1104,-179.5 1066,-179.5"/>
<text text-anchor="middle" x="1085" y="-186.5" font-family="Helvetica,sans-Serif" font-size="10.00">map</text>
</a>
</g>
</g>
<!-- Node18&#45;&gt;Node23 -->
<g id="edge26" class="edge">
<title>Node18&#45;&gt;Node23</title>
<path fill="none" stroke="midnightblue" d="M877.54,-239.05C915.19,-231.84 986.42,-217.54 1055.99,-199.07"/>
<polygon fill="midnightblue" stroke="midnightblue" points="1057.04,-202.42 1065.79,-196.44 1055.23,-195.66 1057.04,-202.42"/>
</g>
<!-- Node24 -->
<g id="node24" class="node">
<title>Node24</title>
<g id="a_node24"><a xlink:title=" ">
<polygon fill="white" stroke="#bfbfbf" points="212,-179.5 212,-198.5 268,-198.5 268,-179.5 212,-179.5"/>
<text text-anchor="middle" x="240" y="-186.5" font-family="Helvetica,sans-Serif" font-size="10.00">sstream</text>
</a>
</g>
</g>
<!-- Node18&#45;&gt;Node24 -->
<g id="edge28" class="edge">
<title>Node18&#45;&gt;Node24</title>
<path fill="none" stroke="midnightblue" d="M824.21,-243.42C743.22,-241.36 493.72,-232.66 278.1,-198.92"/>
<polygon fill="midnightblue" stroke="midnightblue" points="278.61,-195.46 268.19,-197.35 277.52,-202.37 278.61,-195.46"/>
</g>
<!-- Node25 -->
<g id="node25" class="node">
<title>Node25</title>
<g id="a_node25"><a xlink:title=" ">
<polygon fill="white" stroke="#bfbfbf" points="286,-179.5 286,-198.5 426,-198.5 426,-179.5 286,-179.5"/>
<text text-anchor="middle" x="356" y="-186.5" font-family="Helvetica,sans-Serif" font-size="10.00">allegro5/allegro_physfs.h</text>
</a>
</g>
</g>
<!-- Node18&#45;&gt;Node25 -->
<g id="edge35" class="edge">
<title>Node18&#45;&gt;Node25</title>
<path fill="none" stroke="midnightblue" d="M824.39,-241.1C752.07,-233.21 549.75,-211.14 436.09,-198.74"/>
<polygon fill="midnightblue" stroke="midnightblue" points="436.37,-195.25 426.05,-197.64 435.61,-202.21 436.37,-195.25"/>
</g>
<!-- Node26 -->
<g id="node26" class="node">
<title>Node26</title>
<g id="a_node26"><a xlink:title=" ">
<polygon fill="white" stroke="#bfbfbf" points="1284.5,-179.5 1284.5,-198.5 1387.5,-198.5 1387.5,-179.5 1284.5,-179.5"/>
<text text-anchor="middle" x="1336" y="-186.5" font-family="Helvetica,sans-Serif" font-size="10.00">allegro5/bitmap.h</text>
</a>
</g>
</g>
<!-- Node18&#45;&gt;Node26 -->
<g id="edge38" class="edge">
<title>Node18&#45;&gt;Node26</title>
<path fill="none" stroke="midnightblue" d="M877.83,-241.54C943.45,-235.43 1117.49,-218.73 1274.14,-199.06"/>
<polygon fill="midnightblue" stroke="midnightblue" points="1274.95,-202.48 1284.44,-197.76 1274.08,-195.54 1274.95,-202.48"/>
</g>
<!-- Node18&#45;&gt;Node27 -->
<g id="edge41" class="edge">
<title>Node18&#45;&gt;Node27</title>
<path fill="none" stroke="midnightblue" d="M877.53,-240.26C933.08,-233.14 1064.71,-216.78 1175,-199 1179.14,-198.33 1183.48,-197.59 1187.84,-196.82"/>
<polygon fill="midnightblue" stroke="midnightblue" points="1188.77,-200.21 1198,-195.01 1187.54,-193.32 1188.77,-200.21"/>
</g>
<!-- Node28 -->
<g id="node28" class="node">
<title>Node28</title>
<g id="a_node28"><a xlink:href="state_8hpp.html" target="_top" xlink:title="Interface base para estados da máquina de estados do jogo.">
<polygon fill="white" stroke="black" points="898,-179.5 898,-198.5 960,-198.5 960,-179.5 898,-179.5"/>
<text text-anchor="middle" x="929" y="-186.5" font-family="Helvetica,sans-Serif" font-size="10.00">state.hpp</text>
</a>
</g>
</g>
<!-- Node18&#45;&gt;Node28 -->
<g id="edge43" class="edge">
<title>Node18&#45;&gt;Node28</title>
<path fill="none" stroke="midnightblue" d="M863.53,-235.32C875.59,-226.98 894.03,-214.21 908.27,-204.35"/>
<polygon fill="midnightblue" stroke="midnightblue" points="910.27,-207.22 916.5,-198.65 906.28,-201.47 910.27,-207.22"/>
</g>
<!-- Node27&#45;&gt;Node18 -->
<g id="edge42" class="edge">
<title>Node27&#45;&gt;Node18</title>
<path fill="none" stroke="midnightblue" d="M1197.84,-198.2C1196.21,-198.48 1194.59,-198.74 1193,-199 1082.75,-216.77 951.19,-233.13 888.07,-240.25"/>
<polygon fill="midnightblue" stroke="midnightblue" points="887.37,-236.8 877.82,-241.39 888.14,-243.76 887.37,-236.8"/>
</g>
<!-- Node28&#45;&gt;Node6 -->
<g id="edge44" class="edge">
<title>Node28&#45;&gt;Node6</title>
<path fill="none" stroke="midnightblue" d="M942.09,-179.48C955.26,-170.75 976.02,-156.56 993,-143 1039.89,-105.56 1091.36,-56.93 1116.84,-32.3"/>
<polygon fill="midnightblue" stroke="midnightblue" points="1119.43,-34.66 1124.16,-25.19 1114.55,-29.64 1119.43,-34.66"/>
</g>
<!-- Node28&#45;&gt;Node14 -->
<g id="edge45" class="edge">
<title>Node28&#45;&gt;Node14</title>
<path fill="none" stroke="midnightblue" d="M960.08,-180.27C1037.18,-161.08 1237.45,-111.24 1326.82,-89"/>
<polygon fill="midnightblue" stroke="midnightblue" points="1327.78,-92.36 1336.64,-86.55 1326.09,-85.57 1327.78,-92.36"/>
</g>
<!-- Node29 -->
<g id="node29" class="node">
<title>Node29</title>
<g id="a_node29"><a xlink:href="motion_8hpp.html" target="_top" xlink:title="Gerencia efeitos de parallax e animações de cenário.">
<polygon fill="white" stroke="black" points="912,-123.5 912,-142.5 984,-142.5 984,-123.5 912,-123.5"/>
<text text-anchor="middle" x="948" y="-130.5" font-family="Helvetica,sans-Serif" font-size="10.00">motion.hpp</text>
</a>
</g>
</g>
<!-- Node28&#45;&gt;Node29 -->
<g id="edge46" class="edge">
<title>Node28&#45;&gt;Node29</title>
<path fill="none" stroke="midnightblue" d="M932.14,-179.08C934.68,-171.85 938.36,-161.41 941.53,-152.4"/>
<polygon fill="midnightblue" stroke="midnightblue" points="944.9,-153.35 944.92,-142.75 938.3,-151.02 944.9,-153.35"/>
</g>
<!-- Node29&#45;&gt;Node3 -->
<g id="edge48" class="edge">
<title>Node29&#45;&gt;Node3</title>
<path fill="none" stroke="midnightblue" d="M911.87,-125.11C860.25,-115.26 765.46,-97.17 709.55,-86.5"/>
<polygon fill="midnightblue" stroke="midnightblue" points="710.07,-83.04 699.59,-84.6 708.75,-89.91 710.07,-83.04"/>
</g>
<!-- Node29&#45;&gt;Node11 -->
<g id="edge47" class="edge">
<title>Node29&#45;&gt;Node11</title>
<path fill="none" stroke="midnightblue" d="M950.78,-123.32C956.75,-104.67 970.92,-60.44 979.03,-35.13"/>
<polygon fill="midnightblue" stroke="midnightblue" points="982.47,-35.87 982.19,-25.28 975.8,-33.74 982.47,-35.87"/>
</g>
<!-- Node29&#45;&gt;Node14 -->
<g id="edge49" class="edge">
<title>Node29&#45;&gt;Node14</title>
<path fill="none" stroke="midnightblue" d="M984.06,-127.4C1060.59,-117.63 1239.17,-94.83 1324.28,-83.96"/>
<polygon fill="midnightblue" stroke="midnightblue" points="1324.95,-87.41 1334.43,-82.67 1324.06,-80.46 1324.95,-87.41"/>
</g>
<!-- Node30&#45;&gt;Node14 -->
<g id="edge57" class="edge">
<title>Node30&#45;&gt;Node14</title>
<path fill="none" stroke="midnightblue" d="M1427.54,-347.43C1448.8,-330.57 1492,-290.8 1492,-246 1492,-246 1492,-246 1492,-188 1492,-139.99 1439.2,-107.41 1403.36,-90.82"/>
<polygon fill="midnightblue" stroke="midnightblue" points="1404.32,-87.42 1393.76,-86.57 1401.48,-93.82 1404.32,-87.42"/>
</g>
<!-- Node30&#45;&gt;Node16 -->
<g id="edge56" class="edge">
<title>Node30&#45;&gt;Node16</title>
<path fill="none" stroke="midnightblue" d="M1445.58,-356.34C1482.67,-355.12 1545.88,-347.34 1583,-311 1604.51,-289.94 1602,-276.1 1602,-246 1602,-246 1602,-246 1602,-132 1602,-89.15 1563.86,-51.32 1539.29,-31.39"/>
<polygon fill="midnightblue" stroke="midnightblue" points="1541.28,-28.51 1531.25,-25.11 1536.97,-34.03 1541.28,-28.51"/>
</g>
<!-- Node30&#45;&gt;Node17 -->
<g id="edge58" class="edge">
<title>Node30&#45;&gt;Node17</title>
<path fill="none" stroke="midnightblue" d="M1391.44,-347.44C1365.48,-338.4 1324.33,-324.06 1295.2,-313.92"/>
<polygon fill="midnightblue" stroke="midnightblue" points="1296.04,-310.5 1285.45,-310.52 1293.74,-317.11 1296.04,-310.5"/>
</g>
<!-- Node30&#45;&gt;Node18 -->
<g id="edge59" class="edge">
<title>Node30&#45;&gt;Node18</title>
<path fill="none" stroke="midnightblue" d="M1406.93,-347.39C1391,-332.86 1356.32,-303.8 1321,-291 1241.34,-262.12 983.79,-250.54 887.65,-247.15"/>
<polygon fill="midnightblue" stroke="midnightblue" points="887.65,-243.65 877.53,-246.8 887.41,-250.64 887.65,-243.65"/>
</g>
<!-- Node30&#45;&gt;Node26 -->
<g id="edge54" class="edge">
<title>Node30&#45;&gt;Node26</title>
<path fill="none" stroke="midnightblue" d="M1411.7,-347.08C1399,-320.72 1361.48,-242.88 1344.51,-207.66"/>
<polygon fill="midnightblue" stroke="midnightblue" points="1347.62,-206.06 1340.13,-198.57 1341.32,-209.1 1347.62,-206.06"/>
</g>
<!-- Node31 -->
<g id="node31" class="node">
<title>Node31</title>
<g id="a_node31"><a xlink:title=" ">
<polygon fill="white" stroke="#bfbfbf" points="1520,-291.5 1520,-310.5 1574,-310.5 1574,-291.5 1520,-291.5"/>
<text text-anchor="middle" x="1547" y="-298.5" font-family="Helvetica,sans-Serif" font-size="10.00">random</text>
</a>
</g>
</g>
<!-- Node30&#45;&gt;Node31 -->
<g id="edge55" class="edge">
<title>Node30&#45;&gt;Node31</title>
<path fill="none" stroke="midnightblue" d="M1436.76,-347.44C1458.32,-338.56 1492.26,-324.56 1516.79,-314.45"/>
<polygon fill="midnightblue" stroke="midnightblue" points="1518.43,-317.56 1526.34,-310.52 1515.76,-311.09 1518.43,-317.56"/>
</g>
</g>
</svg>
