<?xml version="1.0" encoding="UTF-8" standalone="no"?>
<!DOCTYPE svg PUBLIC "-//W3C//DTD SVG 1.1//EN"
 "http://www.w3.org/Graphics/SVG/1.1/DTD/svg11.dtd">
<!-- Generated by graphviz version 2.43.0 (0)
 -->
<!-- Title: src/flappy_bird_controller.cpp Pages: 1 -->
<svg width="1760pt" height="498pt"
 viewBox="0.00 0.00 1760.00 498.00" xmlns="http://www.w3.org/2000/svg" xmlns:xlink="http://www.w3.org/1999/xlink">
<g id="graph0" class="graph" transform="scale(1 1) rotate(0) translate(4 494)">
<title>src/flappy_bird_controller.cpp</title>
<polygon fill="white" stroke="transparent" points="-4,4 -4,-494 1756,-494 1756,4 -4,4"/>
<!-- Node1 -->
<g id="node1" class="node">
<title>Node1</title>
<g id="a_node1"><a xlink:title="Controlador de fluxo do jogo (pontuação, eventos globais).">
<polygon fill="#bfbfbf" stroke="black" points="1431.5,-470.5 1431.5,-489.5 1590.5,-489.5 1590.5,-470.5 1431.5,-470.5"/>
<text text-anchor="middle" x="1511" y="-477.5" font-family="Helvetica,sans-Serif" font-size="10.00">src/flappy_bird_controller.cpp</text>
</a>
</g>
</g>
<!-- Node2 -->
<g id="node2" class="node">
<title>Node2</title>
<g id="a_node2"><a xlink:href="flappy__bird__controller_8hpp.html" target="_top" xlink:title="Declaracao da classe FlappyBird (controlador principal).">
<polygon fill="white" stroke="black" points="1066,-403.5 1066,-433.5 1184,-433.5 1184,-403.5 1066,-403.5"/>
<text text-anchor="start" x="1074" y="-421.5" font-family="Helvetica,sans-Serif" font-size="10.00">../include/flappy_bird</text>
<text text-anchor="middle" x="1125" y="-410.5" font-family="Helvetica,sans-Serif" font-size="10.00">_controller.hpp</text>
</a>
</g>
</g>
<!-- Node1&#45;&gt;Node2 -->
<g id="edge1" class="edge">
<title>Node1&#45;&gt;Node2</title>
<path fill="none" stroke="midnightblue" d="M1455.7,-470.48C1386.91,-459.87 1269.43,-441.76 1194.59,-430.23"/>
<polygon fill="midnightblue" stroke="midnightblue" points="1194.74,-426.71 1184.32,-428.64 1193.67,-433.63 1194.74,-426.71"/>
</g>
<!-- Node5 -->
<g id="node5" class="node">
<title>Node5</title>
<g id="a_node5"><a xlink:title=" ">
<polygon fill="white" stroke="#bfbfbf" points="1692,-6 1692,-25 1752,-25 1752,-6 1692,-6"/>
<text text-anchor="middle" x="1722" y="-13" font-family="Helvetica,sans-Serif" font-size="10.00">iostream</text>
</a>
</g>
</g>
<!-- Node1&#45;&gt;Node5 -->
<g id="edge63" class="edge">
<title>Node1&#45;&gt;Node5</title>
<path fill="none" stroke="midnightblue" d="M1520.71,-470.35C1540.36,-451.85 1583,-406.16 1583,-358 1583,-358 1583,-358 1583,-132 1583,-102.44 1658.28,-53.84 1698.04,-30.23"/>
<polygon fill="midnightblue" stroke="midnightblue" points="1700.01,-33.13 1706.86,-25.05 1696.46,-27.09 1700.01,-33.13"/>
</g>
<!-- Node14 -->
<g id="node14" class="node">
<title>Node14</title>
<g id="a_node14"><a xlink:href="bird_8hpp.html" target="_top" xlink:title="Declaracao da classe Bird (personagem controlavel).">
<polygon fill="white" stroke="black" points="1097,-347.5 1097,-366.5 1153,-366.5 1153,-347.5 1097,-347.5"/>
<text text-anchor="middle" x="1125" y="-354.5" font-family="Helvetica,sans-Serif" font-size="10.00">bird.hpp</text>
</a>
</g>
</g>
<!-- Node1&#45;&gt;Node14 -->
<g id="edge64" class="edge">
<title>Node1&#45;&gt;Node14</title>
<path fill="none" stroke="midnightblue" d="M1483.86,-470.49C1416.11,-449.26 1239.49,-393.89 1162.17,-369.65"/>
<polygon fill="midnightblue" stroke="midnightblue" points="1162.96,-366.23 1152.37,-366.58 1160.87,-372.91 1162.96,-366.23"/>
</g>
<!-- Node33 -->
<g id="node33" class="node">
<title>Node33</title>
<g id="a_node33"><a xlink:title=" ">
<polygon fill="white" stroke="#bfbfbf" points="1611.5,-409 1611.5,-428 1742.5,-428 1742.5,-409 1611.5,-409"/>
<text text-anchor="middle" x="1677" y="-416" font-family="Helvetica,sans-Serif" font-size="10.00">allegro5/bitmap_draw.h</text>
</a>
</g>
</g>
<!-- Node1&#45;&gt;Node33 -->
<g id="edge62" class="edge">
<title>Node1&#45;&gt;Node33</title>
<path fill="none" stroke="midnightblue" d="M1534.78,-470.48C1563.38,-460.22 1611.55,-442.96 1643.8,-431.4"/>
<polygon fill="midnightblue" stroke="midnightblue" points="1645.03,-434.68 1653.26,-428.01 1642.67,-428.09 1645.03,-434.68"/>
</g>
<!-- Node3 -->
<g id="node3" class="node">
<title>Node3</title>
<g id="a_node3"><a xlink:title=" ">
<polygon fill="white" stroke="#bfbfbf" points="1616,-6 1616,-25 1674,-25 1674,-6 1616,-6"/>
<text text-anchor="middle" x="1645" y="-13" font-family="Helvetica,sans-Serif" font-size="10.00">memory</text>
</a>
</g>
</g>
<!-- Node2&#45;&gt;Node3 -->
<g id="edge2" class="edge">
<title>Node2&#45;&gt;Node3</title>
<path fill="none" stroke="midnightblue" d="M1184.28,-413.58C1300.06,-404.3 1545,-375.92 1545,-302 1545,-302 1545,-302 1545,-132 1545,-101.2 1549.9,-91.16 1569,-67 1581.65,-51 1600.79,-38.32 1616.7,-29.67"/>
<polygon fill="midnightblue" stroke="midnightblue" points="1618.36,-32.76 1625.63,-25.05 1615.14,-26.54 1618.36,-32.76"/>
</g>
<!-- Node4 -->
<g id="node4" class="node">
<title>Node4</title>
<g id="a_node4"><a xlink:href="assets_8hpp.html" target="_top" xlink:title="Declara classes utilitárias para carregar e usar imagens, sons e fontes no Allegro.">
<polygon fill="white" stroke="black" points="1133.5,-67.5 1133.5,-86.5 1202.5,-86.5 1202.5,-67.5 1133.5,-67.5"/>
<text text-anchor="middle" x="1168" y="-74.5" font-family="Helvetica,sans-Serif" font-size="10.00">assets.hpp</text>
</a>
</g>
</g>
<!-- Node2&#45;&gt;Node4 -->
<g id="edge3" class="edge">
<title>Node2&#45;&gt;Node4</title>
<path fill="none" stroke="midnightblue" d="M1184.27,-411.97C1291.57,-400.31 1507,-368.6 1507,-302 1507,-302 1507,-302 1507,-188 1507,-126.86 1304.96,-94.56 1212.83,-83.01"/>
<polygon fill="midnightblue" stroke="midnightblue" points="1213.04,-79.51 1202.69,-81.77 1212.19,-86.46 1213.04,-79.51"/>
</g>
<!-- Node2&#45;&gt;Node14 -->
<g id="edge14" class="edge">
<title>Node2&#45;&gt;Node14</title>
<path fill="none" stroke="midnightblue" d="M1125,-403.4C1125,-395.47 1125,-385.46 1125,-376.86"/>
<polygon fill="midnightblue" stroke="midnightblue" points="1128.5,-376.66 1125,-366.66 1121.5,-376.66 1128.5,-376.66"/>
</g>
<!-- Node15 -->
<g id="node15" class="node">
<title>Node15</title>
<g id="a_node15"><a xlink:href="defines_8hpp.html" target="_top" xlink:title="Constantes globais, macros e estruturas auxiliares do jogo.">
<polygon fill="white" stroke="black" points="157.5,-67.5 157.5,-86.5 230.5,-86.5 230.5,-67.5 157.5,-67.5"/>
<text text-anchor="middle" x="194" y="-74.5" font-family="Helvetica,sans-Serif" font-size="10.00">defines.hpp</text>
</a>
</g>
</g>
<!-- Node2&#45;&gt;Node15 -->
<g id="edge51" class="edge">
<title>Node2&#45;&gt;Node15</title>
<path fill="none" stroke="midnightblue" d="M1065.81,-418C929.32,-418.25 582.3,-413.79 297,-367 202.95,-351.57 158.95,-376.8 90,-311 29.48,-253.25 23.4,-183.66 81,-123 98.6,-104.46 124.83,-93.39 147.59,-86.87"/>
<polygon fill="midnightblue" stroke="midnightblue" points="148.66,-90.21 157.43,-84.27 146.87,-83.44 148.66,-90.21"/>
</g>
<!-- Node18 -->
<g id="node18" class="node">
<title>Node18</title>
<g id="a_node18"><a xlink:href="game__object_8hpp.html" target="_top" xlink:title="Classe base abstrata para todos os objetos renderizáveis.">
<polygon fill="white" stroke="black" points="863.5,-291.5 863.5,-310.5 964.5,-310.5 964.5,-291.5 863.5,-291.5"/>
<text text-anchor="middle" x="914" y="-298.5" font-family="Helvetica,sans-Serif" font-size="10.00">game_object.hpp</text>
</a>
</g>
</g>
<!-- Node2&#45;&gt;Node18 -->
<g id="edge52" class="edge">
<title>Node2&#45;&gt;Node18</title>
<path fill="none" stroke="midnightblue" d="M1099.13,-403.34C1058.07,-380.86 978.55,-337.33 938.42,-315.37"/>
<polygon fill="midnightblue" stroke="midnightblue" points="940.02,-312.25 929.57,-310.52 936.66,-318.39 940.02,-312.25"/>
</g>
<!-- Node19 -->
<g id="node19" class="node">
<title>Node19</title>
<g id="a_node19"><a xlink:href="init_8hpp.html" target="_top" xlink:title="Declara funções de inicialização e finalização do Allegro.">
<polygon fill="white" stroke="black" points="887.5,-235.5 887.5,-254.5 940.5,-254.5 940.5,-235.5 887.5,-235.5"/>
<text text-anchor="middle" x="914" y="-242.5" font-family="Helvetica,sans-Serif" font-size="10.00">init.hpp</text>
</a>
</g>
</g>
<!-- Node2&#45;&gt;Node19 -->
<g id="edge53" class="edge">
<title>Node2&#45;&gt;Node19</title>
<path fill="none" stroke="midnightblue" d="M1065.88,-413.02C1001.48,-404.61 901.33,-380.45 854,-311 840.68,-291.46 865.1,-271.9 886.67,-259.43"/>
<polygon fill="midnightblue" stroke="midnightblue" points="888.53,-262.4 895.62,-254.53 885.17,-256.26 888.53,-262.4"/>
</g>
<!-- Node28 -->
<g id="node28" class="node">
<title>Node28</title>
<g id="a_node28"><a xlink:href="player_8hpp.html" target="_top" xlink:title="Modela um jogador e operações de ranking.">
<polygon fill="white" stroke="black" points="1373,-179.5 1373,-198.5 1441,-198.5 1441,-179.5 1373,-179.5"/>
<text text-anchor="middle" x="1407" y="-186.5" font-family="Helvetica,sans-Serif" font-size="10.00">player.hpp</text>
</a>
</g>
</g>
<!-- Node2&#45;&gt;Node28 -->
<g id="edge61" class="edge">
<title>Node2&#45;&gt;Node28</title>
<path fill="none" stroke="midnightblue" d="M1142.64,-403.27C1192.91,-362.72 1336.58,-246.81 1388.22,-205.15"/>
<polygon fill="midnightblue" stroke="midnightblue" points="1390.64,-207.69 1396.23,-198.69 1386.25,-202.25 1390.64,-207.69"/>
</g>
<!-- Node31 -->
<g id="node31" class="node">
<title>Node31</title>
<g id="a_node31"><a xlink:href="pipe_8hpp.html" target="_top" xlink:title="Declaration of pipe&#45;related classes (Pipe, PipePair, PipeList).">
<polygon fill="white" stroke="black" points="306.5,-347.5 306.5,-366.5 365.5,-366.5 365.5,-347.5 306.5,-347.5"/>
<text text-anchor="middle" x="336" y="-354.5" font-family="Helvetica,sans-Serif" font-size="10.00">pipe.hpp</text>
</a>
</g>
</g>
<!-- Node2&#45;&gt;Node31 -->
<g id="edge54" class="edge">
<title>Node2&#45;&gt;Node31</title>
<path fill="none" stroke="midnightblue" d="M1065.7,-413.03C912.32,-401.46 505.52,-370.78 376.12,-361.03"/>
<polygon fill="midnightblue" stroke="midnightblue" points="376.11,-357.52 365.88,-360.25 375.59,-364.5 376.11,-357.52"/>
</g>
<!-- Node4&#45;&gt;Node3 -->
<g id="edge5" class="edge">
<title>Node4&#45;&gt;Node3</title>
<path fill="none" stroke="midnightblue" d="M1202.59,-73.63C1292.17,-67.31 1530.13,-49.27 1607,-31 1609.99,-30.29 1613.07,-29.4 1616.12,-28.41"/>
<polygon fill="midnightblue" stroke="midnightblue" points="1617.35,-31.69 1625.59,-25.03 1614.99,-25.1 1617.35,-31.69"/>
</g>
<!-- Node4&#45;&gt;Node5 -->
<g id="edge4" class="edge">
<title>Node4&#45;&gt;Node5</title>
<path fill="none" stroke="midnightblue" d="M1202.65,-74.19C1302.73,-68.76 1590.96,-51.73 1683,-31 1686.07,-30.31 1689.23,-29.43 1692.35,-28.45"/>
<polygon fill="midnightblue" stroke="midnightblue" points="1693.77,-31.67 1702.07,-25.08 1691.48,-25.05 1693.77,-31.67"/>
</g>
<!-- Node6 -->
<g id="node6" class="node">
<title>Node6</title>
<g id="a_node6"><a xlink:title=" ">
<polygon fill="white" stroke="#bfbfbf" points="506,-6 506,-25 550,-25 550,-6 506,-6"/>
<text text-anchor="middle" x="528" y="-13" font-family="Helvetica,sans-Serif" font-size="10.00">string</text>
</a>
</g>
</g>
<!-- Node4&#45;&gt;Node6 -->
<g id="edge6" class="edge">
<title>Node4&#45;&gt;Node6</title>
<path fill="none" stroke="midnightblue" d="M1133.46,-75.09C1021.4,-71.89 668.88,-59.72 559,-31 557.02,-30.48 555.01,-29.84 553.01,-29.12"/>
<polygon fill="midnightblue" stroke="midnightblue" points="553.93,-25.71 543.36,-25.03 551.2,-32.15 553.93,-25.71"/>
</g>
<!-- Node7 -->
<g id="node7" class="node">
<title>Node7</title>
<g id="a_node7"><a xlink:title=" ">
<polygon fill="white" stroke="#bfbfbf" points="568,-6 568,-25 670,-25 670,-6 568,-6"/>
<text text-anchor="middle" x="619" y="-13" font-family="Helvetica,sans-Serif" font-size="10.00">allegro5/allegro.h</text>
</a>
</g>
</g>
<!-- Node4&#45;&gt;Node7 -->
<g id="edge7" class="edge">
<title>Node4&#45;&gt;Node7</title>
<path fill="none" stroke="midnightblue" d="M1133.39,-74.55C1053.09,-70.79 848.05,-59.05 679,-31 673.04,-30.01 666.8,-28.75 660.68,-27.4"/>
<polygon fill="midnightblue" stroke="midnightblue" points="661.12,-23.9 650.58,-25.04 659.53,-30.72 661.12,-23.9"/>
</g>
<!-- Node8 -->
<g id="node8" class="node">
<title>Node8</title>
<g id="a_node8"><a xlink:title=" ">
<polygon fill="white" stroke="#bfbfbf" points="864,-6 864,-25 1006,-25 1006,-6 864,-6"/>
<text text-anchor="middle" x="935" y="-13" font-family="Helvetica,sans-Serif" font-size="10.00">allegro5/allegro_acodec.h</text>
</a>
</g>
</g>
<!-- Node4&#45;&gt;Node8 -->
<g id="edge8" class="edge">
<title>Node4&#45;&gt;Node8</title>
<path fill="none" stroke="midnightblue" d="M1134.62,-67.48C1093.44,-56.96 1023.35,-39.06 978.13,-27.51"/>
<polygon fill="midnightblue" stroke="midnightblue" points="978.88,-24.09 968.32,-25.01 977.14,-30.87 978.88,-24.09"/>
</g>
<!-- Node9 -->
<g id="node9" class="node">
<title>Node9</title>
<g id="a_node9"><a xlink:title=" ">
<polygon fill="white" stroke="#bfbfbf" points="1024,-6 1024,-25 1158,-25 1158,-6 1024,-6"/>
<text text-anchor="middle" x="1091" y="-13" font-family="Helvetica,sans-Serif" font-size="10.00">allegro5/allegro_audio.h</text>
</a>
</g>
</g>
<!-- Node4&#45;&gt;Node9 -->
<g id="edge9" class="edge">
<title>Node4&#45;&gt;Node9</title>
<path fill="none" stroke="midnightblue" d="M1156.97,-67.48C1144.73,-58.02 1124.77,-42.6 1110.01,-31.19"/>
<polygon fill="midnightblue" stroke="midnightblue" points="1112.06,-28.35 1102.01,-25.01 1107.78,-33.89 1112.06,-28.35"/>
</g>
<!-- Node10 -->
<g id="node10" class="node">
<title>Node10</title>
<g id="a_node10"><a xlink:title=" ">
<polygon fill="white" stroke="#bfbfbf" points="1176,-6 1176,-25 1314,-25 1314,-6 1176,-6"/>
<text text-anchor="middle" x="1245" y="-13" font-family="Helvetica,sans-Serif" font-size="10.00">allegro5/allegro_image.h</text>
</a>
</g>
</g>
<!-- Node4&#45;&gt;Node10 -->
<g id="edge10" class="edge">
<title>Node4&#45;&gt;Node10</title>
<path fill="none" stroke="midnightblue" d="M1179.03,-67.48C1191.27,-58.02 1211.23,-42.6 1225.99,-31.19"/>
<polygon fill="midnightblue" stroke="midnightblue" points="1228.22,-33.89 1233.99,-25.01 1223.94,-28.35 1228.22,-33.89"/>
</g>
<!-- Node11 -->
<g id="node11" class="node">
<title>Node11</title>
<g id="a_node11"><a xlink:title=" ">
<polygon fill="white" stroke="#bfbfbf" points="1332.5,-0.5 1332.5,-30.5 1461.5,-30.5 1461.5,-0.5 1332.5,-0.5"/>
<text text-anchor="start" x="1340.5" y="-18.5" font-family="Helvetica,sans-Serif" font-size="10.00">allegro5/allegro_native</text>
<text text-anchor="middle" x="1397" y="-7.5" font-family="Helvetica,sans-Serif" font-size="10.00">_dialog.h</text>
</a>
</g>
</g>
<!-- Node4&#45;&gt;Node11 -->
<g id="edge11" class="edge">
<title>Node4&#45;&gt;Node11</title>
<path fill="none" stroke="midnightblue" d="M1200.81,-67.48C1235.23,-58.53 1290.2,-44.25 1333.21,-33.07"/>
<polygon fill="midnightblue" stroke="midnightblue" points="1334.23,-36.43 1343.03,-30.52 1332.47,-29.65 1334.23,-36.43"/>
</g>
<!-- Node12 -->
<g id="node12" class="node">
<title>Node12</title>
<g id="a_node12"><a xlink:title=" ">
<polygon fill="white" stroke="#bfbfbf" points="688.5,-6 688.5,-25 845.5,-25 845.5,-6 688.5,-6"/>
<text text-anchor="middle" x="767" y="-13" font-family="Helvetica,sans-Serif" font-size="10.00">allegro5/allegro_primitives.h</text>
</a>
</g>
</g>
<!-- Node4&#45;&gt;Node12 -->
<g id="edge12" class="edge">
<title>Node4&#45;&gt;Node12</title>
<path fill="none" stroke="midnightblue" d="M1133.23,-71.24C1075.42,-63.27 955.92,-46.57 855,-31 846.22,-29.65 836.95,-28.17 827.85,-26.69"/>
<polygon fill="midnightblue" stroke="midnightblue" points="828.13,-23.19 817.69,-25.04 827,-30.1 828.13,-23.19"/>
</g>
<!-- Node13 -->
<g id="node13" class="node">
<title>Node13</title>
<g id="a_node13"><a xlink:title=" ">
<polygon fill="white" stroke="#bfbfbf" points="1480,-6 1480,-25 1598,-25 1598,-6 1480,-6"/>
<text text-anchor="middle" x="1539" y="-13" font-family="Helvetica,sans-Serif" font-size="10.00">allegro5/allegro_ttf.h</text>
</a>
</g>
</g>
<!-- Node4&#45;&gt;Node13 -->
<g id="edge13" class="edge">
<title>Node4&#45;&gt;Node13</title>
<path fill="none" stroke="midnightblue" d="M1202.53,-71.53C1258.74,-64.11 1373.47,-48.32 1470,-31 1476.64,-29.81 1483.61,-28.46 1490.48,-27.07"/>
<polygon fill="midnightblue" stroke="midnightblue" points="1491.31,-30.48 1500.4,-25.03 1489.9,-23.62 1491.31,-30.48"/>
</g>
<!-- Node14&#45;&gt;Node12 -->
<g id="edge15" class="edge">
<title>Node14&#45;&gt;Node12</title>
<path fill="none" stroke="midnightblue" d="M1153.27,-352.27C1246.85,-338.8 1535.83,-287.64 1450,-179 1429.98,-153.66 974.85,-58.87 818.88,-27.02"/>
<polygon fill="midnightblue" stroke="midnightblue" points="819.55,-23.58 809.05,-25.01 818.15,-30.44 819.55,-23.58"/>
</g>
<!-- Node14&#45;&gt;Node15 -->
<g id="edge16" class="edge">
<title>Node14&#45;&gt;Node15</title>
<path fill="none" stroke="midnightblue" d="M1109.14,-347.35C1082.09,-333.03 1024.91,-304.62 973,-291 791.37,-243.34 258.35,-338.82 133,-199 103.97,-166.62 148.68,-117.9 175.77,-93.33"/>
<polygon fill="midnightblue" stroke="midnightblue" points="178.31,-95.76 183.51,-86.53 173.69,-90.5 178.31,-95.76"/>
</g>
<!-- Node14&#45;&gt;Node18 -->
<g id="edge20" class="edge">
<title>Node14&#45;&gt;Node18</title>
<path fill="none" stroke="midnightblue" d="M1096.98,-348.83C1061.25,-339.69 999.1,-323.78 957.27,-313.07"/>
<polygon fill="midnightblue" stroke="midnightblue" points="957.91,-309.63 947.36,-310.54 956.18,-316.41 957.91,-309.63"/>
</g>
<!-- Node15&#45;&gt;Node6 -->
<g id="edge18" class="edge">
<title>Node15&#45;&gt;Node6</title>
<path fill="none" stroke="midnightblue" d="M230.7,-69.46C296.54,-57.73 433.65,-33.31 495.95,-22.21"/>
<polygon fill="midnightblue" stroke="midnightblue" points="496.76,-25.62 505.99,-20.42 495.53,-18.73 496.76,-25.62"/>
</g>
<!-- Node16 -->
<g id="node16" class="node">
<title>Node16</title>
<g id="a_node16"><a xlink:title=" ">
<polygon fill="white" stroke="#bfbfbf" points="170.5,-6 170.5,-25 217.5,-25 217.5,-6 170.5,-6"/>
<text text-anchor="middle" x="194" y="-13" font-family="Helvetica,sans-Serif" font-size="10.00">cmath</text>
</a>
</g>
</g>
<!-- Node15&#45;&gt;Node16 -->
<g id="edge17" class="edge">
<title>Node15&#45;&gt;Node16</title>
<path fill="none" stroke="midnightblue" d="M194,-67.48C194,-59.08 194,-45.98 194,-35.16"/>
<polygon fill="midnightblue" stroke="midnightblue" points="197.5,-35.01 194,-25.01 190.5,-35.01 197.5,-35.01"/>
</g>
<!-- Node17 -->
<g id="node17" class="node">
<title>Node17</title>
<g id="a_node17"><a xlink:title=" ">
<polygon fill="white" stroke="#bfbfbf" points="81.5,-6 81.5,-25 128.5,-25 128.5,-6 81.5,-6"/>
<text text-anchor="middle" x="105" y="-13" font-family="Helvetica,sans-Serif" font-size="10.00">vector</text>
</a>
</g>
</g>
<!-- Node15&#45;&gt;Node17 -->
<g id="edge19" class="edge">
<title>Node15&#45;&gt;Node17</title>
<path fill="none" stroke="midnightblue" d="M181.25,-67.48C166.97,-57.93 143.6,-42.31 126.49,-30.87"/>
<polygon fill="midnightblue" stroke="midnightblue" points="127.99,-27.66 117.73,-25.01 124.1,-33.48 127.99,-27.66"/>
</g>
<!-- Node18&#45;&gt;Node19 -->
<g id="edge21" class="edge">
<title>Node18&#45;&gt;Node19</title>
<path fill="none" stroke="midnightblue" d="M914,-291.08C914,-284.01 914,-273.86 914,-264.99"/>
<polygon fill="midnightblue" stroke="midnightblue" points="917.5,-264.75 914,-254.75 910.5,-264.75 917.5,-264.75"/>
</g>
<!-- Node19&#45;&gt;Node3 -->
<g id="edge28" class="edge">
<title>Node19&#45;&gt;Node3</title>
<path fill="none" stroke="midnightblue" d="M940.85,-242.23C1007.2,-237.52 1177.23,-223.36 1228,-199 1305.39,-161.86 1291.75,-104.44 1369,-67 1465.27,-20.34 1503.54,-58.23 1607,-31 1609.66,-30.3 1612.39,-29.48 1615.11,-28.58"/>
<polygon fill="midnightblue" stroke="midnightblue" points="1616.51,-31.8 1624.75,-25.15 1614.16,-25.21 1616.51,-31.8"/>
</g>
<!-- Node19&#45;&gt;Node4 -->
<g id="edge40" class="edge">
<title>Node19&#45;&gt;Node4</title>
<path fill="none" stroke="midnightblue" d="M940.68,-241.39C990.47,-236.02 1094.97,-222.25 1122,-199 1152.71,-172.59 1162.98,-123.38 1166.37,-96.58"/>
<polygon fill="midnightblue" stroke="midnightblue" points="1169.85,-96.91 1167.44,-86.59 1162.89,-96.16 1169.85,-96.91"/>
</g>
<!-- Node19&#45;&gt;Node5 -->
<g id="edge25" class="edge">
<title>Node19&#45;&gt;Node5</title>
<path fill="none" stroke="midnightblue" d="M940.81,-242.96C999.35,-240.16 1142.64,-230.4 1258,-199 1402.89,-159.57 1428.13,-119 1569,-67 1618.85,-48.6 1632.75,-48.26 1683,-31 1685.25,-30.23 1687.56,-29.41 1689.89,-28.58"/>
<polygon fill="midnightblue" stroke="midnightblue" points="1691.18,-31.84 1699.38,-25.13 1688.79,-25.26 1691.18,-31.84"/>
</g>
<!-- Node19&#45;&gt;Node6 -->
<g id="edge30" class="edge">
<title>Node19&#45;&gt;Node6</title>
<path fill="none" stroke="midnightblue" d="M908.21,-235.46C898.77,-222.04 878.9,-195.82 857,-179 843.76,-168.84 631.68,-66.39 555.21,-29.58"/>
<polygon fill="midnightblue" stroke="midnightblue" points="556.29,-26.22 545.76,-25.04 553.26,-32.53 556.29,-26.22"/>
</g>
<!-- Node19&#45;&gt;Node7 -->
<g id="edge31" class="edge">
<title>Node19&#45;&gt;Node7</title>
<path fill="none" stroke="midnightblue" d="M913.28,-235.33C910.38,-206.42 896.93,-112.49 842,-67 784.86,-19.68 751.28,-47.71 679,-31 674.04,-29.85 668.85,-28.63 663.69,-27.4"/>
<polygon fill="midnightblue" stroke="midnightblue" points="664.41,-23.98 653.87,-25.05 662.78,-30.78 664.41,-23.98"/>
</g>
<!-- Node19&#45;&gt;Node8 -->
<g id="edge32" class="edge">
<title>Node19&#45;&gt;Node8</title>
<path fill="none" stroke="midnightblue" d="M940.57,-243.51C971.7,-241.33 1022.05,-232.47 1046,-199 1081.75,-149.04 1048.59,-110.29 1005,-67 990.87,-52.97 972.55,-39.9 958.19,-30.57"/>
<polygon fill="midnightblue" stroke="midnightblue" points="959.74,-27.4 949.42,-25.01 955.99,-33.32 959.74,-27.4"/>
</g>
<!-- Node19&#45;&gt;Node9 -->
<g id="edge33" class="edge">
<title>Node19&#45;&gt;Node9</title>
<path fill="none" stroke="midnightblue" d="M940.6,-244.31C975.11,-243.15 1034.62,-235.54 1066,-199 1106.42,-151.93 1099.93,-71.39 1094.42,-35.14"/>
<polygon fill="midnightblue" stroke="midnightblue" points="1097.83,-34.31 1092.73,-25.03 1090.93,-35.47 1097.83,-34.31"/>
</g>
<!-- Node19&#45;&gt;Node10 -->
<g id="edge34" class="edge">
<title>Node19&#45;&gt;Node10</title>
<path fill="none" stroke="midnightblue" d="M940.73,-241.55C994.27,-236.21 1112.3,-222.11 1145,-199 1202.75,-158.18 1230.65,-73.08 1240.59,-35.28"/>
<polygon fill="midnightblue" stroke="midnightblue" points="1244.08,-35.72 1243.11,-25.18 1237.29,-34.03 1244.08,-35.72"/>
</g>
<!-- Node19&#45;&gt;Node11 -->
<g id="edge35" class="edge">
<title>Node19&#45;&gt;Node11</title>
<path fill="none" stroke="midnightblue" d="M940.86,-244.72C989.58,-244.91 1094.45,-240.01 1170,-199 1240.47,-160.74 1228.51,-114.65 1293,-67 1310.54,-54.04 1331.92,-42.99 1350.73,-34.55"/>
<polygon fill="midnightblue" stroke="midnightblue" points="1352.24,-37.71 1360.01,-30.51 1349.44,-31.29 1352.24,-37.71"/>
</g>
<!-- Node19&#45;&gt;Node12 -->
<g id="edge37" class="edge">
<title>Node19&#45;&gt;Node12</title>
<path fill="none" stroke="midnightblue" d="M940.67,-240C964.21,-234.91 997.16,-223.6 1013,-199 1031.29,-170.6 1027.63,-153.44 1013,-123 995.74,-87.09 978.39,-85.29 943,-67 906.12,-47.94 861.06,-35.18 825.77,-27.26"/>
<polygon fill="midnightblue" stroke="midnightblue" points="826.13,-23.75 815.62,-25.05 824.64,-30.59 826.13,-23.75"/>
</g>
<!-- Node19&#45;&gt;Node13 -->
<g id="edge38" class="edge">
<title>Node19&#45;&gt;Node13</title>
<path fill="none" stroke="midnightblue" d="M940.68,-241.9C1002.53,-236.7 1153.92,-221.96 1199,-199 1272.93,-161.35 1258.66,-107.63 1331,-67 1344.75,-59.27 1431.77,-39.58 1488.82,-27.19"/>
<polygon fill="midnightblue" stroke="midnightblue" points="1489.71,-30.58 1498.74,-25.04 1488.23,-23.74 1489.71,-30.58"/>
</g>
<!-- Node19&#45;&gt;Node15 -->
<g id="edge41" class="edge">
<title>Node19&#45;&gt;Node15</title>
<path fill="none" stroke="midnightblue" d="M887.25,-243.3C775.11,-240.21 346.31,-226.67 293,-199 248.59,-175.95 216.8,-123.35 202.49,-95.71"/>
<polygon fill="midnightblue" stroke="midnightblue" points="205.61,-94.14 198.01,-86.76 199.35,-97.27 205.61,-94.14"/>
</g>
<!-- Node20 -->
<g id="node20" class="node">
<title>Node20</title>
<g id="a_node20"><a xlink:title=" ">
<polygon fill="white" stroke="#bfbfbf" points="302.5,-179.5 302.5,-198.5 353.5,-198.5 353.5,-179.5 302.5,-179.5"/>
<text text-anchor="middle" x="328" y="-186.5" font-family="Helvetica,sans-Serif" font-size="10.00">math.h</text>
</a>
</g>
</g>
<!-- Node19&#45;&gt;Node20 -->
<g id="edge22" class="edge">
<title>Node19&#45;&gt;Node20</title>
<path fill="none" stroke="midnightblue" d="M887.42,-243.43C808.81,-241.41 570.56,-232.86 363.65,-198.79"/>
<polygon fill="midnightblue" stroke="midnightblue" points="363.95,-195.29 353.51,-197.09 362.79,-202.19 363.95,-195.29"/>
</g>
<!-- Node21 -->
<g id="node21" class="node">
<title>Node21</title>
<g id="a_node21"><a xlink:title=" ">
<polygon fill="white" stroke="#bfbfbf" points="372,-179.5 372,-198.5 436,-198.5 436,-179.5 372,-179.5"/>
<text text-anchor="middle" x="404" y="-186.5" font-family="Helvetica,sans-Serif" font-size="10.00">algorithm</text>
</a>
</g>
</g>
<!-- Node19&#45;&gt;Node21 -->
<g id="edge23" class="edge">
<title>Node19&#45;&gt;Node21</title>
<path fill="none" stroke="midnightblue" d="M887.41,-242.57C817.04,-238.56 619.97,-225.78 446.25,-199.02"/>
<polygon fill="midnightblue" stroke="midnightblue" points="446.58,-195.53 436.16,-197.44 445.5,-202.44 446.58,-195.53"/>
</g>
<!-- Node22 -->
<g id="node22" class="node">
<title>Node22</title>
<g id="a_node22"><a xlink:title=" ">
<polygon fill="white" stroke="#bfbfbf" points="454.5,-179.5 454.5,-198.5 509.5,-198.5 509.5,-179.5 454.5,-179.5"/>
<text text-anchor="middle" x="482" y="-186.5" font-family="Helvetica,sans-Serif" font-size="10.00">fstream</text>
</a>
</g>
</g>
<!-- Node19&#45;&gt;Node22 -->
<g id="edge24" class="edge">
<title>Node19&#45;&gt;Node22</title>
<path fill="none" stroke="midnightblue" d="M887.49,-242.13C825.1,-237.49 664.06,-224.1 519.72,-198.91"/>
<polygon fill="midnightblue" stroke="midnightblue" points="520.26,-195.45 509.8,-197.16 519.04,-202.35 520.26,-195.45"/>
</g>
<!-- Node23 -->
<g id="node23" class="node">
<title>Node23</title>
<g id="a_node23"><a xlink:title=" ">
<polygon fill="white" stroke="#bfbfbf" points="528,-179.5 528,-198.5 560,-198.5 560,-179.5 528,-179.5"/>
<text text-anchor="middle" x="544" y="-186.5" font-family="Helvetica,sans-Serif" font-size="10.00">list</text>
</a>
</g>
</g>
<!-- Node19&#45;&gt;Node23 -->
<g id="edge26" class="edge">
<title>Node19&#45;&gt;Node23</title>
<path fill="none" stroke="midnightblue" d="M887.24,-242.48C830.31,-238.83 693.03,-227.83 570.2,-198.82"/>
<polygon fill="midnightblue" stroke="midnightblue" points="570.79,-195.36 560.25,-196.42 569.15,-202.17 570.79,-195.36"/>
</g>
<!-- Node24 -->
<g id="node24" class="node">
<title>Node24</title>
<g id="a_node24"><a xlink:title=" ">
<polygon fill="white" stroke="#bfbfbf" points="578,-179.5 578,-198.5 616,-198.5 616,-179.5 578,-179.5"/>
<text text-anchor="middle" x="597" y="-186.5" font-family="Helvetica,sans-Serif" font-size="10.00">map</text>
</a>
</g>
</g>
<!-- Node19&#45;&gt;Node24 -->
<g id="edge27" class="edge">
<title>Node19&#45;&gt;Node24</title>
<path fill="none" stroke="midnightblue" d="M887.43,-241.27C837.8,-235.88 727.54,-222.48 625.97,-198.91"/>
<polygon fill="midnightblue" stroke="midnightblue" points="626.7,-195.49 616.17,-196.6 625.1,-202.3 626.7,-195.49"/>
</g>
<!-- Node25 -->
<g id="node25" class="node">
<title>Node25</title>
<g id="a_node25"><a xlink:title=" ">
<polygon fill="white" stroke="#bfbfbf" points="634,-179.5 634,-198.5 690,-198.5 690,-179.5 634,-179.5"/>
<text text-anchor="middle" x="662" y="-186.5" font-family="Helvetica,sans-Serif" font-size="10.00">sstream</text>
</a>
</g>
</g>
<!-- Node19&#45;&gt;Node25 -->
<g id="edge29" class="edge">
<title>Node19&#45;&gt;Node25</title>
<path fill="none" stroke="midnightblue" d="M887.46,-238.73C848.55,-230.95 773.51,-215.7 700.13,-199.2"/>
<polygon fill="midnightblue" stroke="midnightblue" points="700.79,-195.76 690.26,-196.97 699.24,-202.59 700.79,-195.76"/>
</g>
<!-- Node26 -->
<g id="node26" class="node">
<title>Node26</title>
<g id="a_node26"><a xlink:title=" ">
<polygon fill="white" stroke="#bfbfbf" points="708,-179.5 708,-198.5 848,-198.5 848,-179.5 708,-179.5"/>
<text text-anchor="middle" x="778" y="-186.5" font-family="Helvetica,sans-Serif" font-size="10.00">allegro5/allegro_physfs.h</text>
</a>
</g>
</g>
<!-- Node19&#45;&gt;Node26 -->
<g id="edge36" class="edge">
<title>Node19&#45;&gt;Node26</title>
<path fill="none" stroke="midnightblue" d="M892.45,-235.44C869.97,-226.52 834.51,-212.44 809.02,-202.32"/>
<polygon fill="midnightblue" stroke="midnightblue" points="810.03,-198.95 799.45,-198.52 807.45,-205.46 810.03,-198.95"/>
</g>
<!-- Node27 -->
<g id="node27" class="node">
<title>Node27</title>
<g id="a_node27"><a xlink:title=" ">
<polygon fill="white" stroke="#bfbfbf" points="142.5,-179.5 142.5,-198.5 245.5,-198.5 245.5,-179.5 142.5,-179.5"/>
<text text-anchor="middle" x="194" y="-186.5" font-family="Helvetica,sans-Serif" font-size="10.00">allegro5/bitmap.h</text>
</a>
</g>
</g>
<!-- Node19&#45;&gt;Node27 -->
<g id="edge39" class="edge">
<title>Node19&#45;&gt;Node27</title>
<path fill="none" stroke="midnightblue" d="M887.47,-242.81C798.57,-238.7 503.13,-223.91 260,-199 258.71,-198.87 257.4,-198.73 256.08,-198.59"/>
<polygon fill="midnightblue" stroke="midnightblue" points="256.18,-195.07 245.84,-197.4 255.37,-202.03 256.18,-195.07"/>
</g>
<!-- Node19&#45;&gt;Node28 -->
<g id="edge42" class="edge">
<title>Node19&#45;&gt;Node28</title>
<path fill="none" stroke="midnightblue" d="M940.5,-241.76C1008.83,-236.34 1195.32,-221.28 1350,-199 1354.11,-198.41 1358.4,-197.71 1362.71,-196.98"/>
<polygon fill="midnightblue" stroke="midnightblue" points="1363.52,-200.39 1372.76,-195.21 1362.31,-193.5 1363.52,-200.39"/>
</g>
<!-- Node29 -->
<g id="node29" class="node">
<title>Node29</title>
<g id="a_node29"><a xlink:href="state_8hpp.html" target="_top" xlink:title="Interface base para estados da máquina de estados do jogo.">
<polygon fill="white" stroke="black" points="942,-179.5 942,-198.5 1004,-198.5 1004,-179.5 942,-179.5"/>
<text text-anchor="middle" x="973" y="-186.5" font-family="Helvetica,sans-Serif" font-size="10.00">state.hpp</text>
</a>
</g>
</g>
<!-- Node19&#45;&gt;Node29 -->
<g id="edge44" class="edge">
<title>Node19&#45;&gt;Node29</title>
<path fill="none" stroke="midnightblue" d="M923.48,-235.32C932.2,-227.34 945.34,-215.31 955.9,-205.65"/>
<polygon fill="midnightblue" stroke="midnightblue" points="958.33,-208.17 963.35,-198.83 953.61,-203 958.33,-208.17"/>
</g>
<!-- Node28&#45;&gt;Node19 -->
<g id="edge43" class="edge">
<title>Node28&#45;&gt;Node19</title>
<path fill="none" stroke="midnightblue" d="M1372.85,-198.27C1371.22,-198.53 1369.59,-198.77 1368,-199 1214.03,-221.18 1028.54,-236.2 950.83,-241.69"/>
<polygon fill="midnightblue" stroke="midnightblue" points="950.32,-238.21 940.59,-242.4 950.81,-245.2 950.32,-238.21"/>
</g>
<!-- Node29&#45;&gt;Node7 -->
<g id="edge45" class="edge">
<title>Node29&#45;&gt;Node7</title>
<path fill="none" stroke="midnightblue" d="M961.29,-179.27C950.48,-170.81 934.41,-157.21 923,-143 898.7,-112.74 911.66,-89.44 880,-67 805.96,-14.52 767.81,-49.67 679,-31 673.69,-29.88 668.13,-28.64 662.64,-27.37"/>
<polygon fill="midnightblue" stroke="midnightblue" points="663.41,-23.95 652.87,-25.06 661.8,-30.77 663.41,-23.95"/>
</g>
<!-- Node29&#45;&gt;Node15 -->
<g id="edge46" class="edge">
<title>Node29&#45;&gt;Node15</title>
<path fill="none" stroke="midnightblue" d="M941.98,-183.62C821.75,-166.64 386,-105.11 241.17,-84.66"/>
<polygon fill="midnightblue" stroke="midnightblue" points="241.24,-81.14 230.85,-83.2 240.26,-88.07 241.24,-81.14"/>
</g>
<!-- Node30 -->
<g id="node30" class="node">
<title>Node30</title>
<g id="a_node30"><a xlink:href="motion_8hpp.html" target="_top" xlink:title="Gerencia efeitos de parallax e animações de cenário.">
<polygon fill="white" stroke="black" points="932,-123.5 932,-142.5 1004,-142.5 1004,-123.5 932,-123.5"/>
<text text-anchor="middle" x="968" y="-130.5" font-family="Helvetica,sans-Serif" font-size="10.00">motion.hpp</text>
</a>
</g>
</g>
<!-- Node29&#45;&gt;Node30 -->
<g id="edge47" class="edge">
<title>Node29&#45;&gt;Node30</title>
<path fill="none" stroke="midnightblue" d="M972.17,-179.08C971.52,-172.01 970.58,-161.86 969.76,-152.99"/>
<polygon fill="midnightblue" stroke="midnightblue" points="973.22,-152.39 968.81,-142.75 966.25,-153.03 973.22,-152.39"/>
</g>
<!-- Node30&#45;&gt;Node4 -->
<g id="edge49" class="edge">
<title>Node30&#45;&gt;Node4</title>
<path fill="none" stroke="midnightblue" d="M999.69,-123.44C1034.07,-114.16 1089.08,-99.31 1126.79,-89.13"/>
<polygon fill="midnightblue" stroke="midnightblue" points="1127.72,-92.5 1136.46,-86.52 1125.89,-85.74 1127.72,-92.5"/>
</g>
<!-- Node30&#45;&gt;Node12 -->
<g id="edge48" class="edge">
<title>Node30&#45;&gt;Node12</title>
<path fill="none" stroke="midnightblue" d="M963.42,-123.07C955.83,-109.13 939.34,-82.2 918,-67 890.49,-47.4 854.84,-35.01 825.09,-27.41"/>
<polygon fill="midnightblue" stroke="midnightblue" points="825.79,-23.98 815.25,-25.01 824.13,-30.78 825.79,-23.98"/>
</g>
<!-- Node30&#45;&gt;Node15 -->
<g id="edge50" class="edge">
<title>Node30&#45;&gt;Node15</title>
<path fill="none" stroke="midnightblue" d="M931.96,-129.49C805.61,-120.67 382.64,-91.16 240.81,-81.27"/>
<polygon fill="midnightblue" stroke="midnightblue" points="240.92,-77.77 230.7,-80.56 240.44,-84.75 240.92,-77.77"/>
</g>
<!-- Node31&#45;&gt;Node15 -->
<g id="edge58" class="edge">
<title>Node31&#45;&gt;Node15</title>
<path fill="none" stroke="midnightblue" d="M306.43,-356.6C238.28,-356.28 76,-345.13 76,-246 76,-246 76,-246 76,-188 76,-157.2 79.26,-145.76 100,-123 113.95,-107.7 134.21,-97.08 152.35,-90.02"/>
<polygon fill="midnightblue" stroke="midnightblue" points="153.68,-93.27 161.88,-86.56 151.28,-86.69 153.68,-93.27"/>
</g>
<!-- Node31&#45;&gt;Node17 -->
<g id="edge57" class="edge">
<title>Node31&#45;&gt;Node17</title>
<path fill="none" stroke="midnightblue" d="M306.44,-353.32C249.23,-347.68 125.86,-333.29 90,-311 33.08,-275.62 0,-257.02 0,-190 0,-190 0,-190 0,-132 0,-85.09 48,-48.81 79.1,-30.24"/>
<polygon fill="midnightblue" stroke="midnightblue" points="81.2,-33.06 88.13,-25.05 77.72,-26.99 81.2,-33.06"/>
</g>
<!-- Node31&#45;&gt;Node18 -->
<g id="edge59" class="edge">
<title>Node31&#45;&gt;Node18</title>
<path fill="none" stroke="midnightblue" d="M365.86,-353.21C456.58,-344.73 730.3,-319.16 853.16,-307.68"/>
<polygon fill="midnightblue" stroke="midnightblue" points="853.52,-311.17 863.15,-306.75 852.87,-304.2 853.52,-311.17"/>
</g>
<!-- Node31&#45;&gt;Node19 -->
<g id="edge60" class="edge">
<title>Node31&#45;&gt;Node19</title>
<path fill="none" stroke="midnightblue" d="M365.86,-350.32C463.18,-331.8 771.04,-273.21 877.42,-252.96"/>
<polygon fill="midnightblue" stroke="midnightblue" points="878.19,-256.38 887.36,-251.07 876.88,-249.5 878.19,-256.38"/>
</g>
<!-- Node31&#45;&gt;Node27 -->
<g id="edge55" class="edge">
<title>Node31&#45;&gt;Node27</title>
<path fill="none" stroke="midnightblue" d="M335.11,-347.32C333.42,-334.17 328.8,-308.85 317,-291 291.41,-252.27 246.43,-220.87 218.54,-203.87"/>
<polygon fill="midnightblue" stroke="midnightblue" points="220.17,-200.76 209.78,-198.66 216.59,-206.78 220.17,-200.76"/>
</g>
<!-- Node32 -->
<g id="node32" class="node">
<title>Node32</title>
<g id="a_node32"><a xlink:title=" ">
<polygon fill="white" stroke="#bfbfbf" points="254,-291.5 254,-310.5 308,-310.5 308,-291.5 254,-291.5"/>
<text text-anchor="middle" x="281" y="-298.5" font-family="Helvetica,sans-Serif" font-size="10.00">random</text>
</a>
</g>
</g>
<!-- Node31&#45;&gt;Node32 -->
<g id="edge56" class="edge">
<title>Node31&#45;&gt;Node32</title>
<path fill="none" stroke="midnightblue" d="M326.92,-347.08C318.83,-339.14 306.8,-327.34 297.09,-317.8"/>
<polygon fill="midnightblue" stroke="midnightblue" points="299.5,-315.26 289.91,-310.75 294.6,-320.25 299.5,-315.26"/>
</g>
</g>
</svg>
