<?xml version="1.0" encoding="UTF-8" standalone="no"?>
<!DOCTYPE svg PUBLIC "-//W3C//DTD SVG 1.1//EN"
 "http://www.w3.org/Graphics/SVG/1.1/DTD/svg11.dtd">
<!-- Generated by graphviz version 2.43.0 (0)
 -->
<!-- Title: include/game_object.hpp Pages: 1 -->
<svg width="558pt" height="263pt"
 viewBox="0.00 0.00 558.00 263.00" xmlns="http://www.w3.org/2000/svg" xmlns:xlink="http://www.w3.org/1999/xlink">
<g id="graph0" class="graph" transform="scale(1 1) rotate(0) translate(4 259)">
<title>include/game_object.hpp</title>
<polygon fill="white" stroke="transparent" points="-4,4 -4,-259 554,-259 554,4 -4,4"/>
<!-- Node1 -->
<g id="node1" class="node">
<title>Node1</title>
<g id="a_node1"><a xlink:title="Classe base abstrata para todos os objetos renderizáveis.">
<polygon fill="#bfbfbf" stroke="black" points="207,-235.5 207,-254.5 346,-254.5 346,-235.5 207,-235.5"/>
<text text-anchor="middle" x="276.5" y="-242.5" font-family="Helvetica,sans-Serif" font-size="10.00">include/game_object.hpp</text>
</a>
</g>
</g>
<!-- Node2 -->
<g id="node2" class="node">
<title>Node2</title>
<g id="a_node2"><a xlink:href="bird_8hpp.html" target="_top" xlink:title="Declaracao da classe Bird (personagem controlavel).">
<polygon fill="white" stroke="black" points="107,-179.5 107,-198.5 202,-198.5 202,-179.5 107,-179.5"/>
<text text-anchor="middle" x="154.5" y="-186.5" font-family="Helvetica,sans-Serif" font-size="10.00">include/bird.hpp</text>
</a>
</g>
</g>
<!-- Node1&#45;&gt;Node2 -->
<g id="edge1" class="edge">
<title>Node1&#45;&gt;Node2</title>
<path fill="none" stroke="midnightblue" d="M247.96,-231.37C225.11,-221.26 193.69,-207.35 173.74,-198.52"/>
<polygon fill="midnightblue" stroke="midnightblue" points="246.61,-234.6 257.17,-235.44 249.44,-228.2 246.61,-234.6"/>
</g>
<!-- Node3 -->
<g id="node3" class="node">
<title>Node3</title>
<g id="a_node3"><a xlink:href="flappy__bird__controller_8hpp.html" target="_top" xlink:title="Declaracao da classe FlappyBird (controlador principal).">
<polygon fill="white" stroke="black" points="193,-112.5 193,-142.5 302,-142.5 302,-112.5 193,-112.5"/>
<text text-anchor="start" x="201" y="-130.5" font-family="Helvetica,sans-Serif" font-size="10.00">include/flappy_bird</text>
<text text-anchor="middle" x="247.5" y="-119.5" font-family="Helvetica,sans-Serif" font-size="10.00">_controller.hpp</text>
</a>
</g>
</g>
<!-- Node1&#45;&gt;Node3 -->
<g id="edge13" class="edge">
<title>Node1&#45;&gt;Node3</title>
<path fill="none" stroke="midnightblue" d="M268.23,-226.04C264.78,-217.92 261,-208.13 258.5,-199 253.26,-179.89 250.27,-157.12 248.77,-142.74"/>
<polygon fill="midnightblue" stroke="midnightblue" points="265.06,-227.51 272.31,-235.24 271.46,-224.68 265.06,-227.51"/>
</g>
<!-- Node12 -->
<g id="node12" class="node">
<title>Node12</title>
<g id="a_node12"><a xlink:href="pipe_8hpp.html" target="_top" xlink:title="Declaration of pipe&#45;related classes (Pipe, PipePair, PipeList).">
<polygon fill="white" stroke="black" points="267,-179.5 267,-198.5 364,-198.5 364,-179.5 267,-179.5"/>
<text text-anchor="middle" x="315.5" y="-186.5" font-family="Helvetica,sans-Serif" font-size="10.00">include/pipe.hpp</text>
</a>
</g>
</g>
<!-- Node1&#45;&gt;Node12 -->
<g id="edge14" class="edge">
<title>Node1&#45;&gt;Node12</title>
<path fill="none" stroke="midnightblue" d="M288.88,-226.86C295.64,-217.5 303.71,-206.33 309.18,-198.75"/>
<polygon fill="midnightblue" stroke="midnightblue" points="285.96,-224.93 282.94,-235.08 291.63,-229.03 285.96,-224.93"/>
</g>
<!-- Node14 -->
<g id="node14" class="node">
<title>Node14</title>
<g id="a_node14"><a xlink:href="game__object_8cpp.html" target="_top" xlink:title="Métodos utilitários da classe base GameObject.">
<polygon fill="white" stroke="black" points="382,-179.5 382,-198.5 499,-198.5 499,-179.5 382,-179.5"/>
<text text-anchor="middle" x="440.5" y="-186.5" font-family="Helvetica,sans-Serif" font-size="10.00">src/game_object.cpp</text>
</a>
</g>
</g>
<!-- Node1&#45;&gt;Node14 -->
<g id="edge17" class="edge">
<title>Node1&#45;&gt;Node14</title>
<path fill="none" stroke="midnightblue" d="M312.02,-232.3C342.92,-222.13 386.97,-207.62 414.64,-198.52"/>
<polygon fill="midnightblue" stroke="midnightblue" points="310.89,-228.99 302.49,-235.44 313.08,-235.64 310.89,-228.99"/>
</g>
<!-- Node2&#45;&gt;Node3 -->
<g id="edge2" class="edge">
<title>Node2&#45;&gt;Node3</title>
<path fill="none" stroke="midnightblue" d="M176.37,-174.01C191.2,-164.52 210.74,-152.02 225.58,-142.52"/>
<polygon fill="midnightblue" stroke="midnightblue" points="174.36,-171.14 167.82,-179.48 178.13,-177.03 174.36,-171.14"/>
</g>
<!-- Node10 -->
<g id="node10" class="node">
<title>Node10</title>
<g id="a_node10"><a xlink:href="flappy__bird__controller_8cpp.html" target="_top" xlink:title="Controlador de fluxo do jogo (pontuação, eventos globais).">
<polygon fill="white" stroke="black" points="0,-56.5 0,-75.5 159,-75.5 159,-56.5 0,-56.5"/>
<text text-anchor="middle" x="79.5" y="-63.5" font-family="Helvetica,sans-Serif" font-size="10.00">src/flappy_bird_controller.cpp</text>
</a>
</g>
</g>
<!-- Node2&#45;&gt;Node10 -->
<g id="edge12" class="edge">
<title>Node2&#45;&gt;Node10</title>
<path fill="none" stroke="midnightblue" d="M126.93,-174.39C114.49,-166.84 100.75,-156.27 92.5,-143 79.21,-121.63 78.43,-90.66 78.95,-75.71"/>
<polygon fill="midnightblue" stroke="midnightblue" points="125.25,-177.46 135.67,-179.35 128.7,-171.37 125.25,-177.46"/>
</g>
<!-- Node11 -->
<g id="node11" class="node">
<title>Node11</title>
<g id="a_node11"><a xlink:href="bird_8cpp.html" target="_top" xlink:title="Implementação da classe Bird (animação, física e colisões).">
<polygon fill="white" stroke="black" points="102,-118 102,-137 175,-137 175,-118 102,-118"/>
<text text-anchor="middle" x="138.5" y="-125" font-family="Helvetica,sans-Serif" font-size="10.00">src/bird.cpp</text>
</a>
</g>
</g>
<!-- Node2&#45;&gt;Node11 -->
<g id="edge11" class="edge">
<title>Node2&#45;&gt;Node11</title>
<path fill="none" stroke="midnightblue" d="M149.57,-169.66C146.64,-158.77 143.07,-145.49 140.79,-137.01"/>
<polygon fill="midnightblue" stroke="midnightblue" points="146.23,-170.73 152.21,-179.48 152.99,-168.91 146.23,-170.73"/>
</g>
<!-- Node4 -->
<g id="node4" class="node">
<title>Node4</title>
<g id="a_node4"><a xlink:href="allegro__interface_8hpp.html" target="_top" xlink:title="Declara o controlador que integra Allegro e a máquina de estados.">
<polygon fill="white" stroke="black" points="326.5,-56.5 326.5,-75.5 484.5,-75.5 484.5,-56.5 326.5,-56.5"/>
<text text-anchor="middle" x="405.5" y="-63.5" font-family="Helvetica,sans-Serif" font-size="10.00">include/allegro_interface.hpp</text>
</a>
</g>
</g>
<!-- Node3&#45;&gt;Node4 -->
<g id="edge3" class="edge">
<title>Node3&#45;&gt;Node4</title>
<path fill="none" stroke="midnightblue" d="M294.5,-108.8C323.54,-97.86 359.53,-84.31 382.51,-75.66"/>
<polygon fill="midnightblue" stroke="midnightblue" points="293.07,-105.6 284.94,-112.4 295.54,-112.15 293.07,-105.6"/>
</g>
<!-- Node7 -->
<g id="node7" class="node">
<title>Node7</title>
<g id="a_node7"><a xlink:href="play_8hpp.html" target="_top" xlink:title="Declaracao da classe Play, responsavel pelo estado de jogo ativo.">
<polygon fill="white" stroke="black" points="180.5,-56.5 180.5,-75.5 308.5,-75.5 308.5,-56.5 180.5,-56.5"/>
<text text-anchor="middle" x="244.5" y="-63.5" font-family="Helvetica,sans-Serif" font-size="10.00">include/states/play.hpp</text>
</a>
</g>
</g>
<!-- Node3&#45;&gt;Node7 -->
<g id="edge6" class="edge">
<title>Node3&#45;&gt;Node7</title>
<path fill="none" stroke="midnightblue" d="M246.28,-102.29C245.8,-92.86 245.29,-82.65 244.94,-75.66"/>
<polygon fill="midnightblue" stroke="midnightblue" points="242.79,-102.59 246.79,-112.4 249.78,-102.24 242.79,-102.59"/>
</g>
<!-- Node3&#45;&gt;Node10 -->
<g id="edge10" class="edge">
<title>Node3&#45;&gt;Node10</title>
<path fill="none" stroke="midnightblue" d="M197.93,-108.94C166.98,-97.98 128.48,-84.35 103.95,-75.66"/>
<polygon fill="midnightblue" stroke="midnightblue" points="197.09,-112.36 207.69,-112.4 199.43,-105.76 197.09,-112.36"/>
</g>
<!-- Node5 -->
<g id="node5" class="node">
<title>Node5</title>
<g id="a_node5"><a xlink:href="allegro__interface_8cpp.html" target="_top" xlink:title="Implementação do controlador principal que integra Allegro às lógicas de estado do jogo.">
<polygon fill="white" stroke="black" points="316,-0.5 316,-19.5 453,-19.5 453,-0.5 316,-0.5"/>
<text text-anchor="middle" x="384.5" y="-7.5" font-family="Helvetica,sans-Serif" font-size="10.00">src/allegro_interface.cpp</text>
</a>
</g>
</g>
<!-- Node4&#45;&gt;Node5 -->
<g id="edge4" class="edge">
<title>Node4&#45;&gt;Node5</title>
<path fill="none" stroke="midnightblue" d="M398.38,-46.69C394.84,-37.59 390.73,-27.01 387.9,-19.75"/>
<polygon fill="midnightblue" stroke="midnightblue" points="395.15,-48.03 402.03,-56.08 401.67,-45.49 395.15,-48.03"/>
</g>
<!-- Node6 -->
<g id="node6" class="node">
<title>Node6</title>
<g id="a_node6"><a xlink:href="main_8cpp.html" target="_top" xlink:title="Ponto de entrada do jogo Flappy Bird.">
<polygon fill="white" stroke="black" points="471,-0.5 471,-19.5 550,-19.5 550,-0.5 471,-0.5"/>
<text text-anchor="middle" x="510.5" y="-7.5" font-family="Helvetica,sans-Serif" font-size="10.00">src/main.cpp</text>
</a>
</g>
</g>
<!-- Node4&#45;&gt;Node6 -->
<g id="edge5" class="edge">
<title>Node4&#45;&gt;Node6</title>
<path fill="none" stroke="midnightblue" d="M431.31,-51.73C450.75,-41.73 476.85,-28.31 493.67,-19.65"/>
<polygon fill="midnightblue" stroke="midnightblue" points="429.66,-48.64 422.37,-56.32 432.86,-54.86 429.66,-48.64"/>
</g>
<!-- Node7&#45;&gt;Node5 -->
<g id="edge7" class="edge">
<title>Node7&#45;&gt;Node5</title>
<path fill="none" stroke="midnightblue" d="M276.2,-52.77C302.5,-42.63 339.22,-28.47 362.42,-19.52"/>
<polygon fill="midnightblue" stroke="midnightblue" points="274.75,-49.58 266.68,-56.44 277.27,-56.11 274.75,-49.58"/>
</g>
<!-- Node8 -->
<g id="node8" class="node">
<title>Node8</title>
<g id="a_node8"><a xlink:href="load__game_8cpp.html" target="_top" xlink:title="Implementação da classe LoadName, responsável pela tela de inserção de nome do jogador.">
<polygon fill="white" stroke="black" points="32,-0.5 32,-19.5 173,-19.5 173,-0.5 32,-0.5"/>
<text text-anchor="middle" x="102.5" y="-7.5" font-family="Helvetica,sans-Serif" font-size="10.00">src/states/load_game.cpp</text>
</a>
</g>
</g>
<!-- Node7&#45;&gt;Node8 -->
<g id="edge8" class="edge">
<title>Node7&#45;&gt;Node8</title>
<path fill="none" stroke="midnightblue" d="M212.34,-52.77C185.67,-42.63 148.43,-28.47 124.9,-19.52"/>
<polygon fill="midnightblue" stroke="midnightblue" points="211.41,-56.16 222,-56.44 213.9,-49.62 211.41,-56.16"/>
</g>
<!-- Node9 -->
<g id="node9" class="node">
<title>Node9</title>
<g id="a_node9"><a xlink:href="play_8cpp.html" target="_top" xlink:title="Implementacao da classe Play.">
<polygon fill="white" stroke="black" points="191,-0.5 191,-19.5 298,-19.5 298,-0.5 191,-0.5"/>
<text text-anchor="middle" x="244.5" y="-7.5" font-family="Helvetica,sans-Serif" font-size="10.00">src/states/play.cpp</text>
</a>
</g>
</g>
<!-- Node7&#45;&gt;Node9 -->
<g id="edge9" class="edge">
<title>Node7&#45;&gt;Node9</title>
<path fill="none" stroke="midnightblue" d="M244.5,-45.8C244.5,-36.91 244.5,-26.78 244.5,-19.75"/>
<polygon fill="midnightblue" stroke="midnightblue" points="241,-46.08 244.5,-56.08 248,-46.08 241,-46.08"/>
</g>
<!-- Node12&#45;&gt;Node3 -->
<g id="edge15" class="edge">
<title>Node12&#45;&gt;Node3</title>
<path fill="none" stroke="midnightblue" d="M297.95,-172.65C287.32,-163.35 273.87,-151.57 263.53,-142.52"/>
<polygon fill="midnightblue" stroke="midnightblue" points="295.93,-175.52 305.76,-179.48 300.54,-170.26 295.93,-175.52"/>
</g>
<!-- Node13 -->
<g id="node13" class="node">
<title>Node13</title>
<g id="a_node13"><a xlink:href="pipe_8cpp.html" target="_top" xlink:title="Implementação das classes Pipe, PipePair e PipeList.">
<polygon fill="white" stroke="black" points="320,-118 320,-137 395,-137 395,-118 320,-118"/>
<text text-anchor="middle" x="357.5" y="-125" font-family="Helvetica,sans-Serif" font-size="10.00">src/pipe.cpp</text>
</a>
</g>
</g>
<!-- Node12&#45;&gt;Node13 -->
<g id="edge16" class="edge">
<title>Node12&#45;&gt;Node13</title>
<path fill="none" stroke="midnightblue" d="M327.5,-171.01C335.34,-159.89 345.26,-145.84 351.49,-137.01"/>
<polygon fill="midnightblue" stroke="midnightblue" points="324.43,-169.29 321.52,-179.48 330.14,-173.32 324.43,-169.29"/>
</g>
</g>
</svg>
