<?xml version="1.0" encoding="UTF-8" standalone="no"?>
<!DOCTYPE svg PUBLIC "-//W3C//DTD SVG 1.1//EN"
 "http://www.w3.org/Graphics/SVG/1.1/DTD/svg11.dtd">
<!-- Generated by graphviz version 2.43.0 (0)
 -->
<!-- Title: src/game_object.cpp Pages: 1 -->
<svg width="1391pt" height="375pt"
 viewBox="0.00 0.00 1391.00 375.00" xmlns="http://www.w3.org/2000/svg" xmlns:xlink="http://www.w3.org/1999/xlink">
<g id="graph0" class="graph" transform="scale(1 1) rotate(0) translate(4 371)">
<title>src/game_object.cpp</title>
<polygon fill="white" stroke="transparent" points="-4,4 -4,-371 1387,-371 1387,4 -4,4"/>
<!-- Node1 -->
<g id="node1" class="node">
<title>Node1</title>
<g id="a_node1"><a xlink:title="Métodos utilitários da classe base GameObject.">
<polygon fill="#bfbfbf" stroke="black" points="572,-347.5 572,-366.5 689,-366.5 689,-347.5 572,-347.5"/>
<text text-anchor="middle" x="630.5" y="-354.5" font-family="Helvetica,sans-Serif" font-size="10.00">src/game_object.cpp</text>
</a>
</g>
</g>
<!-- Node2 -->
<g id="node2" class="node">
<title>Node2</title>
<g id="a_node2"><a xlink:href="game__object_8hpp.html" target="_top" xlink:title="Classe base abstrata para todos os objetos renderizáveis.">
<polygon fill="white" stroke="black" points="556.5,-291.5 556.5,-310.5 704.5,-310.5 704.5,-291.5 556.5,-291.5"/>
<text text-anchor="middle" x="630.5" y="-298.5" font-family="Helvetica,sans-Serif" font-size="10.00">../include/game_object.hpp</text>
</a>
</g>
</g>
<!-- Node1&#45;&gt;Node2 -->
<g id="edge1" class="edge">
<title>Node1&#45;&gt;Node2</title>
<path fill="none" stroke="midnightblue" d="M630.5,-347.08C630.5,-340.01 630.5,-329.86 630.5,-320.99"/>
<polygon fill="midnightblue" stroke="midnightblue" points="634,-320.75 630.5,-310.75 627,-320.75 634,-320.75"/>
</g>
<!-- Node3 -->
<g id="node3" class="node">
<title>Node3</title>
<g id="a_node3"><a xlink:href="init_8hpp.html" target="_top" xlink:title="Declara funções de inicialização e finalização do Allegro.">
<polygon fill="white" stroke="black" points="604,-235.5 604,-254.5 657,-254.5 657,-235.5 604,-235.5"/>
<text text-anchor="middle" x="630.5" y="-242.5" font-family="Helvetica,sans-Serif" font-size="10.00">init.hpp</text>
</a>
</g>
</g>
<!-- Node2&#45;&gt;Node3 -->
<g id="edge2" class="edge">
<title>Node2&#45;&gt;Node3</title>
<path fill="none" stroke="midnightblue" d="M630.5,-291.08C630.5,-284.01 630.5,-273.86 630.5,-264.99"/>
<polygon fill="midnightblue" stroke="midnightblue" points="634,-264.75 630.5,-254.75 627,-264.75 634,-264.75"/>
</g>
<!-- Node4 -->
<g id="node4" class="node">
<title>Node4</title>
<g id="a_node4"><a xlink:title=" ">
<polygon fill="white" stroke="#bfbfbf" points="0,-179.5 0,-198.5 51,-198.5 51,-179.5 0,-179.5"/>
<text text-anchor="middle" x="25.5" y="-186.5" font-family="Helvetica,sans-Serif" font-size="10.00">math.h</text>
</a>
</g>
</g>
<!-- Node3&#45;&gt;Node4 -->
<g id="edge3" class="edge">
<title>Node3&#45;&gt;Node4</title>
<path fill="none" stroke="midnightblue" d="M603.88,-243.53C523.39,-241.77 275.49,-233.82 60.88,-198.74"/>
<polygon fill="midnightblue" stroke="midnightblue" points="61.44,-195.28 51.01,-197.1 60.3,-202.19 61.44,-195.28"/>
</g>
<!-- Node5 -->
<g id="node5" class="node">
<title>Node5</title>
<g id="a_node5"><a xlink:title=" ">
<polygon fill="white" stroke="#bfbfbf" points="69.5,-179.5 69.5,-198.5 133.5,-198.5 133.5,-179.5 69.5,-179.5"/>
<text text-anchor="middle" x="101.5" y="-186.5" font-family="Helvetica,sans-Serif" font-size="10.00">algorithm</text>
</a>
</g>
</g>
<!-- Node3&#45;&gt;Node5 -->
<g id="edge4" class="edge">
<title>Node3&#45;&gt;Node5</title>
<path fill="none" stroke="midnightblue" d="M603.91,-242.71C531.57,-238.96 325.02,-226.61 143.64,-198.99"/>
<polygon fill="midnightblue" stroke="midnightblue" points="144.07,-195.52 133.66,-197.45 143.01,-202.44 144.07,-195.52"/>
</g>
<!-- Node6 -->
<g id="node6" class="node">
<title>Node6</title>
<g id="a_node6"><a xlink:title=" ">
<polygon fill="white" stroke="#bfbfbf" points="152,-179.5 152,-198.5 207,-198.5 207,-179.5 152,-179.5"/>
<text text-anchor="middle" x="179.5" y="-186.5" font-family="Helvetica,sans-Serif" font-size="10.00">fstream</text>
</a>
</g>
</g>
<!-- Node3&#45;&gt;Node6 -->
<g id="edge5" class="edge">
<title>Node3&#45;&gt;Node6</title>
<path fill="none" stroke="midnightblue" d="M603.57,-241.99C537.95,-236.88 364.65,-222.15 221.5,-199 220.22,-198.79 218.91,-198.57 217.6,-198.34"/>
<polygon fill="midnightblue" stroke="midnightblue" points="217.92,-194.84 207.44,-196.4 216.61,-201.71 217.92,-194.84"/>
</g>
<!-- Node7 -->
<g id="node7" class="node">
<title>Node7</title>
<g id="a_node7"><a xlink:title=" ">
<polygon fill="white" stroke="#bfbfbf" points="6.5,-6 6.5,-25 66.5,-25 66.5,-6 6.5,-6"/>
<text text-anchor="middle" x="36.5" y="-13" font-family="Helvetica,sans-Serif" font-size="10.00">iostream</text>
</a>
</g>
</g>
<!-- Node3&#45;&gt;Node7 -->
<g id="edge6" class="edge">
<title>Node3&#45;&gt;Node7</title>
<path fill="none" stroke="midnightblue" d="M603.78,-242.78C528.77,-239.03 317.64,-226.3 254.5,-199 163.9,-159.83 81.83,-70.5 50.24,-33.27"/>
<polygon fill="midnightblue" stroke="midnightblue" points="52.74,-30.8 43.64,-25.38 47.37,-35.29 52.74,-30.8"/>
</g>
<!-- Node8 -->
<g id="node8" class="node">
<title>Node8</title>
<g id="a_node8"><a xlink:title=" ">
<polygon fill="white" stroke="#bfbfbf" points="263.5,-179.5 263.5,-198.5 295.5,-198.5 295.5,-179.5 263.5,-179.5"/>
<text text-anchor="middle" x="279.5" y="-186.5" font-family="Helvetica,sans-Serif" font-size="10.00">list</text>
</a>
</g>
</g>
<!-- Node3&#45;&gt;Node8 -->
<g id="edge7" class="edge">
<title>Node3&#45;&gt;Node8</title>
<path fill="none" stroke="midnightblue" d="M603.95,-242.22C549.46,-238.16 421.07,-226.56 305.47,-198.78"/>
<polygon fill="midnightblue" stroke="midnightblue" points="306.3,-195.38 295.76,-196.4 304.64,-202.18 306.3,-195.38"/>
</g>
<!-- Node9 -->
<g id="node9" class="node">
<title>Node9</title>
<g id="a_node9"><a xlink:title=" ">
<polygon fill="white" stroke="#bfbfbf" points="313.5,-179.5 313.5,-198.5 351.5,-198.5 351.5,-179.5 313.5,-179.5"/>
<text text-anchor="middle" x="332.5" y="-186.5" font-family="Helvetica,sans-Serif" font-size="10.00">map</text>
</a>
</g>
</g>
<!-- Node3&#45;&gt;Node9 -->
<g id="edge8" class="edge">
<title>Node3&#45;&gt;Node9</title>
<path fill="none" stroke="midnightblue" d="M603.63,-240.33C555.57,-233.56 451.85,-218.06 365.5,-199 364.23,-198.72 362.93,-198.42 361.62,-198.11"/>
<polygon fill="midnightblue" stroke="midnightblue" points="362.17,-194.64 351.62,-195.55 360.44,-201.42 362.17,-194.64"/>
</g>
<!-- Node10 -->
<g id="node10" class="node">
<title>Node10</title>
<g id="a_node10"><a xlink:title=" ">
<polygon fill="white" stroke="#bfbfbf" points="84.5,-6 84.5,-25 142.5,-25 142.5,-6 84.5,-6"/>
<text text-anchor="middle" x="113.5" y="-13" font-family="Helvetica,sans-Serif" font-size="10.00">memory</text>
</a>
</g>
</g>
<!-- Node3&#45;&gt;Node10 -->
<g id="edge9" class="edge">
<title>Node3&#45;&gt;Node10</title>
<path fill="none" stroke="midnightblue" d="M603.66,-243.34C558.89,-241.26 467.12,-232.85 398.5,-199 319.16,-159.86 325.45,-112.37 249.5,-67 209.67,-43.2 194.95,-47.27 151.5,-31 149.62,-30.29 147.68,-29.57 145.73,-28.83"/>
<polygon fill="midnightblue" stroke="midnightblue" points="146.58,-25.41 135.99,-25.13 144.1,-31.95 146.58,-25.41"/>
</g>
<!-- Node11 -->
<g id="node11" class="node">
<title>Node11</title>
<g id="a_node11"><a xlink:title=" ">
<polygon fill="white" stroke="#bfbfbf" points="407.5,-179.5 407.5,-198.5 463.5,-198.5 463.5,-179.5 407.5,-179.5"/>
<text text-anchor="middle" x="435.5" y="-186.5" font-family="Helvetica,sans-Serif" font-size="10.00">sstream</text>
</a>
</g>
</g>
<!-- Node3&#45;&gt;Node11 -->
<g id="edge10" class="edge">
<title>Node3&#45;&gt;Node11</title>
<path fill="none" stroke="midnightblue" d="M603.79,-236.6C570.09,-227.27 511.9,-211.16 473.55,-200.54"/>
<polygon fill="midnightblue" stroke="midnightblue" points="474.35,-197.13 463.78,-197.83 472.48,-203.87 474.35,-197.13"/>
</g>
<!-- Node12 -->
<g id="node12" class="node">
<title>Node12</title>
<g id="a_node12"><a xlink:title=" ">
<polygon fill="white" stroke="#bfbfbf" points="1208.5,-6 1208.5,-25 1252.5,-25 1252.5,-6 1208.5,-6"/>
<text text-anchor="middle" x="1230.5" y="-13" font-family="Helvetica,sans-Serif" font-size="10.00">string</text>
</a>
</g>
</g>
<!-- Node3&#45;&gt;Node12 -->
<g id="edge11" class="edge">
<title>Node3&#45;&gt;Node12</title>
<path fill="none" stroke="midnightblue" d="M657.31,-243.45C760.32,-241.09 1126.93,-230.55 1167.5,-199 1194.1,-178.32 1217.77,-77.57 1226.71,-35.27"/>
<polygon fill="midnightblue" stroke="midnightblue" points="1230.15,-35.92 1228.75,-25.42 1223.3,-34.51 1230.15,-35.92"/>
</g>
<!-- Node13 -->
<g id="node13" class="node">
<title>Node13</title>
<g id="a_node13"><a xlink:title=" ">
<polygon fill="white" stroke="#bfbfbf" points="912.5,-6 912.5,-25 1014.5,-25 1014.5,-6 912.5,-6"/>
<text text-anchor="middle" x="963.5" y="-13" font-family="Helvetica,sans-Serif" font-size="10.00">allegro5/allegro.h</text>
</a>
</g>
</g>
<!-- Node3&#45;&gt;Node13 -->
<g id="edge12" class="edge">
<title>Node3&#45;&gt;Node13</title>
<path fill="none" stroke="midnightblue" d="M657.31,-242.77C716.33,-239.54 855.01,-228.89 889.5,-199 936.13,-158.6 906.63,-123.01 932.5,-67 937.87,-55.37 945.35,-43.11 951.62,-33.58"/>
<polygon fill="midnightblue" stroke="midnightblue" points="954.66,-35.33 957.35,-25.09 948.86,-31.41 954.66,-35.33"/>
</g>
<!-- Node14 -->
<g id="node14" class="node">
<title>Node14</title>
<g id="a_node14"><a xlink:title=" ">
<polygon fill="white" stroke="#bfbfbf" points="160.5,-6 160.5,-25 302.5,-25 302.5,-6 160.5,-6"/>
<text text-anchor="middle" x="231.5" y="-13" font-family="Helvetica,sans-Serif" font-size="10.00">allegro5/allegro_acodec.h</text>
</a>
</g>
</g>
<!-- Node3&#45;&gt;Node14 -->
<g id="edge13" class="edge">
<title>Node3&#45;&gt;Node14</title>
<path fill="none" stroke="midnightblue" d="M621.36,-235.3C591.23,-207.08 491.39,-116.95 393.5,-67 357.95,-48.86 314.65,-35.77 281.77,-27.48"/>
<polygon fill="midnightblue" stroke="midnightblue" points="282.46,-24.04 271.92,-25.05 280.79,-30.84 282.46,-24.04"/>
</g>
<!-- Node15 -->
<g id="node15" class="node">
<title>Node15</title>
<g id="a_node15"><a xlink:title=" ">
<polygon fill="white" stroke="#bfbfbf" points="320.5,-6 320.5,-25 454.5,-25 454.5,-6 320.5,-6"/>
<text text-anchor="middle" x="387.5" y="-13" font-family="Helvetica,sans-Serif" font-size="10.00">allegro5/allegro_audio.h</text>
</a>
</g>
</g>
<!-- Node3&#45;&gt;Node15 -->
<g id="edge14" class="edge">
<title>Node3&#45;&gt;Node15</title>
<path fill="none" stroke="midnightblue" d="M624.73,-235.26C602.34,-201.38 521.59,-80.01 505.5,-67 483.19,-48.96 453.47,-36.29 429.44,-28.15"/>
<polygon fill="midnightblue" stroke="midnightblue" points="430.46,-24.8 419.87,-25.05 428.3,-31.46 430.46,-24.8"/>
</g>
<!-- Node16 -->
<g id="node16" class="node">
<title>Node16</title>
<g id="a_node16"><a xlink:title=" ">
<polygon fill="white" stroke="#bfbfbf" points="472.5,-6 472.5,-25 610.5,-25 610.5,-6 472.5,-6"/>
<text text-anchor="middle" x="541.5" y="-13" font-family="Helvetica,sans-Serif" font-size="10.00">allegro5/allegro_image.h</text>
</a>
</g>
</g>
<!-- Node3&#45;&gt;Node16 -->
<g id="edge15" class="edge">
<title>Node3&#45;&gt;Node16</title>
<path fill="none" stroke="midnightblue" d="M627.12,-235.36C614.04,-201.93 566.59,-80.63 548.54,-34.49"/>
<polygon fill="midnightblue" stroke="midnightblue" points="551.79,-33.19 544.88,-25.15 545.27,-35.74 551.79,-33.19"/>
</g>
<!-- Node17 -->
<g id="node17" class="node">
<title>Node17</title>
<g id="a_node17"><a xlink:title=" ">
<polygon fill="white" stroke="#bfbfbf" points="629,-0.5 629,-30.5 758,-30.5 758,-0.5 629,-0.5"/>
<text text-anchor="start" x="637" y="-18.5" font-family="Helvetica,sans-Serif" font-size="10.00">allegro5/allegro_native</text>
<text text-anchor="middle" x="693.5" y="-7.5" font-family="Helvetica,sans-Serif" font-size="10.00">_dialog.h</text>
</a>
</g>
</g>
<!-- Node3&#45;&gt;Node17 -->
<g id="edge16" class="edge">
<title>Node3&#45;&gt;Node17</title>
<path fill="none" stroke="midnightblue" d="M633.28,-235.4C636.19,-226.37 640.81,-211.73 644.5,-199 660.88,-142.46 678.37,-75.52 687.37,-40.53"/>
<polygon fill="midnightblue" stroke="midnightblue" points="690.78,-41.31 689.88,-30.75 684,-39.57 690.78,-41.31"/>
</g>
<!-- Node18 -->
<g id="node18" class="node">
<title>Node18</title>
<g id="a_node18"><a xlink:title=" ">
<polygon fill="white" stroke="#bfbfbf" points="740.5,-179.5 740.5,-198.5 880.5,-198.5 880.5,-179.5 740.5,-179.5"/>
<text text-anchor="middle" x="810.5" y="-186.5" font-family="Helvetica,sans-Serif" font-size="10.00">allegro5/allegro_physfs.h</text>
</a>
</g>
</g>
<!-- Node3&#45;&gt;Node18 -->
<g id="edge17" class="edge">
<title>Node3&#45;&gt;Node18</title>
<path fill="none" stroke="midnightblue" d="M657.06,-236.03C687.5,-226.9 737.64,-211.86 772.28,-201.47"/>
<polygon fill="midnightblue" stroke="midnightblue" points="773.47,-204.76 782.05,-198.54 771.46,-198.06 773.47,-204.76"/>
</g>
<!-- Node19 -->
<g id="node19" class="node">
<title>Node19</title>
<g id="a_node19"><a xlink:title=" ">
<polygon fill="white" stroke="#bfbfbf" points="1033,-6 1033,-25 1190,-25 1190,-6 1033,-6"/>
<text text-anchor="middle" x="1111.5" y="-13" font-family="Helvetica,sans-Serif" font-size="10.00">allegro5/allegro_primitives.h</text>
</a>
</g>
</g>
<!-- Node3&#45;&gt;Node19 -->
<g id="edge18" class="edge">
<title>Node3&#45;&gt;Node19</title>
<path fill="none" stroke="midnightblue" d="M657.17,-244.69C708.91,-244.98 825.38,-240.52 911.5,-199 995.81,-158.35 1069.97,-70.52 1098.76,-33.5"/>
<polygon fill="midnightblue" stroke="midnightblue" points="1101.78,-35.31 1105.08,-25.24 1096.22,-31.06 1101.78,-35.31"/>
</g>
<!-- Node20 -->
<g id="node20" class="node">
<title>Node20</title>
<g id="a_node20"><a xlink:title=" ">
<polygon fill="white" stroke="#bfbfbf" points="776.5,-6 776.5,-25 894.5,-25 894.5,-6 776.5,-6"/>
<text text-anchor="middle" x="835.5" y="-13" font-family="Helvetica,sans-Serif" font-size="10.00">allegro5/allegro_ttf.h</text>
</a>
</g>
</g>
<!-- Node3&#45;&gt;Node20 -->
<g id="edge19" class="edge">
<title>Node3&#45;&gt;Node20</title>
<path fill="none" stroke="midnightblue" d="M638.29,-235.36C668.79,-201.5 780.48,-77.55 820.83,-32.77"/>
<polygon fill="midnightblue" stroke="midnightblue" points="823.61,-34.92 827.71,-25.15 818.41,-30.24 823.61,-34.92"/>
</g>
<!-- Node21 -->
<g id="node21" class="node">
<title>Node21</title>
<g id="a_node21"><a xlink:title=" ">
<polygon fill="white" stroke="#bfbfbf" points="975,-179.5 975,-198.5 1078,-198.5 1078,-179.5 975,-179.5"/>
<text text-anchor="middle" x="1026.5" y="-186.5" font-family="Helvetica,sans-Serif" font-size="10.00">allegro5/bitmap.h</text>
</a>
</g>
</g>
<!-- Node3&#45;&gt;Node21 -->
<g id="edge20" class="edge">
<title>Node3&#45;&gt;Node21</title>
<path fill="none" stroke="midnightblue" d="M657.1,-240.37C719.57,-231.85 877,-210.39 964.84,-198.41"/>
<polygon fill="midnightblue" stroke="midnightblue" points="965.5,-201.85 974.94,-197.03 964.55,-194.91 965.5,-201.85"/>
</g>
<!-- Node22 -->
<g id="node22" class="node">
<title>Node22</title>
<g id="a_node22"><a xlink:href="assets_8hpp.html" target="_top" xlink:title="Declara classes utilitárias para carregar e usar imagens, sons e fontes no Allegro.">
<polygon fill="white" stroke="black" points="596,-67.5 596,-86.5 665,-86.5 665,-67.5 596,-67.5"/>
<text text-anchor="middle" x="630.5" y="-74.5" font-family="Helvetica,sans-Serif" font-size="10.00">assets.hpp</text>
</a>
</g>
</g>
<!-- Node3&#45;&gt;Node22 -->
<g id="edge21" class="edge">
<title>Node3&#45;&gt;Node22</title>
<path fill="none" stroke="midnightblue" d="M630.5,-235.08C630.5,-208.95 630.5,-132.21 630.5,-96.58"/>
<polygon fill="midnightblue" stroke="midnightblue" points="634,-96.57 630.5,-86.57 627,-96.57 634,-96.57"/>
</g>
<!-- Node23 -->
<g id="node23" class="node">
<title>Node23</title>
<g id="a_node23"><a xlink:href="defines_8hpp.html" target="_top" xlink:title="Constantes globais, macros e estruturas auxiliares do jogo.">
<polygon fill="white" stroke="black" points="1236,-67.5 1236,-86.5 1309,-86.5 1309,-67.5 1236,-67.5"/>
<text text-anchor="middle" x="1272.5" y="-74.5" font-family="Helvetica,sans-Serif" font-size="10.00">defines.hpp</text>
</a>
</g>
</g>
<!-- Node3&#45;&gt;Node23 -->
<g id="edge32" class="edge">
<title>Node3&#45;&gt;Node23</title>
<path fill="none" stroke="midnightblue" d="M657.24,-244.28C775.48,-245.22 1247.58,-246.02 1291.5,-199 1317.89,-170.75 1297.22,-121.61 1283.02,-95.49"/>
<polygon fill="midnightblue" stroke="midnightblue" points="1286,-93.65 1278,-86.7 1279.92,-97.12 1286,-93.65"/>
</g>
<!-- Node26 -->
<g id="node26" class="node">
<title>Node26</title>
<g id="a_node26"><a xlink:href="player_8hpp.html" target="_top" xlink:title="Modela um jogador e operações de ranking.">
<polygon fill="white" stroke="black" points="1214.5,-179.5 1214.5,-198.5 1282.5,-198.5 1282.5,-179.5 1214.5,-179.5"/>
<text text-anchor="middle" x="1248.5" y="-186.5" font-family="Helvetica,sans-Serif" font-size="10.00">player.hpp</text>
</a>
</g>
</g>
<!-- Node3&#45;&gt;Node26 -->
<g id="edge36" class="edge">
<title>Node3&#45;&gt;Node26</title>
<path fill="none" stroke="midnightblue" d="M657.05,-242.73C737.86,-238.93 986.58,-226.22 1191.5,-199 1195.61,-198.45 1199.91,-197.79 1204.23,-197.07"/>
<polygon fill="midnightblue" stroke="midnightblue" points="1205.02,-200.48 1214.28,-195.32 1203.82,-193.58 1205.02,-200.48"/>
</g>
<!-- Node27 -->
<g id="node27" class="node">
<title>Node27</title>
<g id="a_node27"><a xlink:href="state_8hpp.html" target="_top" xlink:title="Interface base para estados da máquina de estados do jogo.">
<polygon fill="white" stroke="black" points="1096.5,-179.5 1096.5,-198.5 1158.5,-198.5 1158.5,-179.5 1096.5,-179.5"/>
<text text-anchor="middle" x="1127.5" y="-186.5" font-family="Helvetica,sans-Serif" font-size="10.00">state.hpp</text>
</a>
</g>
</g>
<!-- Node3&#45;&gt;Node27 -->
<g id="edge38" class="edge">
<title>Node3&#45;&gt;Node27</title>
<path fill="none" stroke="midnightblue" d="M657.18,-242.53C726.39,-238.46 917.5,-225.67 1086.08,-199.05"/>
<polygon fill="midnightblue" stroke="midnightblue" points="1086.81,-202.48 1096.13,-197.44 1085.7,-195.57 1086.81,-202.48"/>
</g>
<!-- Node22&#45;&gt;Node7 -->
<g id="edge22" class="edge">
<title>Node22&#45;&gt;Node7</title>
<path fill="none" stroke="midnightblue" d="M595.91,-76.47C507.89,-76.96 268.73,-73.89 75.5,-31 72.43,-30.32 69.27,-29.45 66.14,-28.47"/>
<polygon fill="midnightblue" stroke="midnightblue" points="67.02,-25.07 56.42,-25.11 64.73,-31.69 67.02,-25.07"/>
</g>
<!-- Node22&#45;&gt;Node10 -->
<g id="edge23" class="edge">
<title>Node22&#45;&gt;Node10</title>
<path fill="none" stroke="midnightblue" d="M595.72,-75.93C516.04,-75.09 314.59,-69.03 151.5,-31 148.5,-30.3 145.42,-29.42 142.38,-28.44"/>
<polygon fill="midnightblue" stroke="midnightblue" points="143.5,-25.12 132.91,-25.06 141.15,-31.72 143.5,-25.12"/>
</g>
<!-- Node22&#45;&gt;Node12 -->
<g id="edge24" class="edge">
<title>Node22&#45;&gt;Node12</title>
<path fill="none" stroke="midnightblue" d="M665.01,-74.89C772.08,-71.17 1097.58,-57.92 1199.5,-31 1201.48,-30.48 1203.49,-29.83 1205.49,-29.11"/>
<polygon fill="midnightblue" stroke="midnightblue" points="1207.3,-32.14 1215.14,-25.01 1204.57,-25.69 1207.3,-32.14"/>
</g>
<!-- Node22&#45;&gt;Node13 -->
<g id="edge25" class="edge">
<title>Node22&#45;&gt;Node13</title>
<path fill="none" stroke="midnightblue" d="M665.13,-71.13C717.1,-63.63 818.29,-48.29 903.5,-31 908.88,-29.91 914.51,-28.67 920.08,-27.39"/>
<polygon fill="midnightblue" stroke="midnightblue" points="921.03,-30.77 929.96,-25.07 919.42,-23.95 921.03,-30.77"/>
</g>
<!-- Node22&#45;&gt;Node14 -->
<g id="edge26" class="edge">
<title>Node22&#45;&gt;Node14</title>
<path fill="none" stroke="midnightblue" d="M595.97,-71.58C537.38,-63.98 414.76,-47.63 311.5,-31 303.48,-29.71 295.01,-28.26 286.72,-26.8"/>
<polygon fill="midnightblue" stroke="midnightblue" points="287.18,-23.33 276.72,-25.01 285.95,-30.22 287.18,-23.33"/>
</g>
<!-- Node22&#45;&gt;Node15 -->
<g id="edge27" class="edge">
<title>Node22&#45;&gt;Node15</title>
<path fill="none" stroke="midnightblue" d="M595.94,-67.54C552.97,-57.02 479.53,-39.04 432.29,-27.47"/>
<polygon fill="midnightblue" stroke="midnightblue" points="432.88,-24.01 422.33,-25.03 431.21,-30.81 432.88,-24.01"/>
</g>
<!-- Node22&#45;&gt;Node16 -->
<g id="edge28" class="edge">
<title>Node22&#45;&gt;Node16</title>
<path fill="none" stroke="midnightblue" d="M617.75,-67.48C603.47,-57.93 580.1,-42.31 562.99,-30.87"/>
<polygon fill="midnightblue" stroke="midnightblue" points="564.49,-27.66 554.23,-25.01 560.6,-33.48 564.49,-27.66"/>
</g>
<!-- Node22&#45;&gt;Node17 -->
<g id="edge29" class="edge">
<title>Node22&#45;&gt;Node17</title>
<path fill="none" stroke="midnightblue" d="M639.53,-67.48C647.74,-59.72 660.21,-47.94 671.09,-37.66"/>
<polygon fill="midnightblue" stroke="midnightblue" points="673.79,-39.93 678.65,-30.52 668.98,-34.84 673.79,-39.93"/>
</g>
<!-- Node22&#45;&gt;Node19 -->
<g id="edge30" class="edge">
<title>Node22&#45;&gt;Node19</title>
<path fill="none" stroke="midnightblue" d="M665.01,-72.63C733.49,-65.8 891.38,-49.44 1023.5,-31 1032.83,-29.7 1042.7,-28.19 1052.32,-26.66"/>
<polygon fill="midnightblue" stroke="midnightblue" points="1052.92,-30.11 1062.23,-25.06 1051.8,-23.2 1052.92,-30.11"/>
</g>
<!-- Node22&#45;&gt;Node20 -->
<g id="edge31" class="edge">
<title>Node22&#45;&gt;Node20</title>
<path fill="none" stroke="midnightblue" d="M659.87,-67.48C695.8,-57.05 756.73,-39.36 796.54,-27.81"/>
<polygon fill="midnightblue" stroke="midnightblue" points="797.55,-31.16 806.18,-25.01 795.6,-24.44 797.55,-31.16"/>
</g>
<!-- Node23&#45;&gt;Node12 -->
<g id="edge34" class="edge">
<title>Node23&#45;&gt;Node12</title>
<path fill="none" stroke="midnightblue" d="M1266.48,-67.48C1260.24,-58.64 1250.33,-44.59 1242.48,-33.48"/>
<polygon fill="midnightblue" stroke="midnightblue" points="1245.13,-31.16 1236.51,-25.01 1239.41,-35.2 1245.13,-31.16"/>
</g>
<!-- Node24 -->
<g id="node24" class="node">
<title>Node24</title>
<g id="a_node24"><a xlink:title=" ">
<polygon fill="white" stroke="#bfbfbf" points="1271,-6 1271,-25 1318,-25 1318,-6 1271,-6"/>
<text text-anchor="middle" x="1294.5" y="-13" font-family="Helvetica,sans-Serif" font-size="10.00">cmath</text>
</a>
</g>
</g>
<!-- Node23&#45;&gt;Node24 -->
<g id="edge33" class="edge">
<title>Node23&#45;&gt;Node24</title>
<path fill="none" stroke="midnightblue" d="M1275.65,-67.48C1278.82,-58.9 1283.8,-45.43 1287.85,-34.48"/>
<polygon fill="midnightblue" stroke="midnightblue" points="1291.17,-35.6 1291.35,-25.01 1284.6,-33.17 1291.17,-35.6"/>
</g>
<!-- Node25 -->
<g id="node25" class="node">
<title>Node25</title>
<g id="a_node25"><a xlink:title=" ">
<polygon fill="white" stroke="#bfbfbf" points="1336,-6 1336,-25 1383,-25 1383,-6 1336,-6"/>
<text text-anchor="middle" x="1359.5" y="-13" font-family="Helvetica,sans-Serif" font-size="10.00">vector</text>
</a>
</g>
</g>
<!-- Node23&#45;&gt;Node25 -->
<g id="edge35" class="edge">
<title>Node23&#45;&gt;Node25</title>
<path fill="none" stroke="midnightblue" d="M1284.96,-67.48C1298.92,-57.93 1321.76,-42.31 1338.49,-30.87"/>
<polygon fill="midnightblue" stroke="midnightblue" points="1340.78,-33.54 1347.06,-25.01 1336.83,-27.77 1340.78,-33.54"/>
</g>
<!-- Node26&#45;&gt;Node3 -->
<g id="edge37" class="edge">
<title>Node26&#45;&gt;Node3</title>
<path fill="none" stroke="midnightblue" d="M1214.36,-198.31C1212.72,-198.56 1211.1,-198.79 1209.5,-199 1005.99,-226.03 759.29,-238.76 667.26,-242.65"/>
<polygon fill="midnightblue" stroke="midnightblue" points="666.91,-239.16 657.07,-243.07 667.2,-246.15 666.91,-239.16"/>
</g>
<!-- Node27&#45;&gt;Node13 -->
<g id="edge39" class="edge">
<title>Node27&#45;&gt;Node13</title>
<path fill="none" stroke="midnightblue" d="M1102.08,-179.38C1083.15,-172 1057.56,-159.87 1039.5,-143 1005.61,-111.35 981.66,-61.23 970.52,-34.57"/>
<polygon fill="midnightblue" stroke="midnightblue" points="973.77,-33.25 966.78,-25.29 967.28,-35.88 973.77,-33.25"/>
</g>
<!-- Node27&#45;&gt;Node23 -->
<g id="edge40" class="edge">
<title>Node27&#45;&gt;Node23</title>
<path fill="none" stroke="midnightblue" d="M1138.88,-179.37C1163.55,-160.65 1222.21,-116.15 1252.95,-92.83"/>
<polygon fill="midnightblue" stroke="midnightblue" points="1255.32,-95.42 1261.17,-86.59 1251.09,-89.85 1255.32,-95.42"/>
</g>
<!-- Node28 -->
<g id="node28" class="node">
<title>Node28</title>
<g id="a_node28"><a xlink:href="motion_8hpp.html" target="_top" xlink:title="Gerencia efeitos de parallax e animações de cenário.">
<polygon fill="white" stroke="black" points="1048.5,-123.5 1048.5,-142.5 1120.5,-142.5 1120.5,-123.5 1048.5,-123.5"/>
<text text-anchor="middle" x="1084.5" y="-130.5" font-family="Helvetica,sans-Serif" font-size="10.00">motion.hpp</text>
</a>
</g>
</g>
<!-- Node27&#45;&gt;Node28 -->
<g id="edge41" class="edge">
<title>Node27&#45;&gt;Node28</title>
<path fill="none" stroke="midnightblue" d="M1120.4,-179.08C1114.26,-171.38 1105.23,-160.03 1097.76,-150.65"/>
<polygon fill="midnightblue" stroke="midnightblue" points="1100.44,-148.39 1091.47,-142.75 1094.96,-152.75 1100.44,-148.39"/>
</g>
<!-- Node28&#45;&gt;Node19 -->
<g id="edge42" class="edge">
<title>Node28&#45;&gt;Node19</title>
<path fill="none" stroke="midnightblue" d="M1086.53,-123.32C1090.89,-104.67 1101.23,-60.44 1107.14,-35.13"/>
<polygon fill="midnightblue" stroke="midnightblue" points="1110.58,-35.82 1109.45,-25.28 1103.76,-34.22 1110.58,-35.82"/>
</g>
<!-- Node28&#45;&gt;Node22 -->
<g id="edge43" class="edge">
<title>Node28&#45;&gt;Node22</title>
<path fill="none" stroke="midnightblue" d="M1048.5,-127.72C966.39,-117.95 765.45,-94.05 675.42,-83.34"/>
<polygon fill="midnightblue" stroke="midnightblue" points="675.6,-79.84 665.26,-82.13 674.78,-86.79 675.6,-79.84"/>
</g>
<!-- Node28&#45;&gt;Node23 -->
<g id="edge44" class="edge">
<title>Node28&#45;&gt;Node23</title>
<path fill="none" stroke="midnightblue" d="M1114.29,-123.44C1146.33,-114.24 1197.43,-99.56 1232.85,-89.39"/>
<polygon fill="midnightblue" stroke="midnightblue" points="1234.21,-92.64 1242.85,-86.52 1232.27,-85.91 1234.21,-92.64"/>
</g>
</g>
</svg>
