<?xml version="1.0" encoding="UTF-8" standalone="no"?>
<!DOCTYPE svg PUBLIC "-//W3C//DTD SVG 1.1//EN"
 "http://www.w3.org/Graphics/SVG/1.1/DTD/svg11.dtd">
<!-- Generated by graphviz version 2.43.0 (0)
 -->
<!-- Title: Gráfico de Hierarquia de Classes Pages: 1 -->
<svg width="190pt" height="218pt"
 viewBox="0.00 0.00 190.00 218.00" xmlns="http://www.w3.org/2000/svg" xmlns:xlink="http://www.w3.org/1999/xlink">
<g id="graph0" class="graph" transform="scale(1 1) rotate(0) translate(4 214)">
<title>Gráfico de Hierarquia de Classes</title>
<polygon fill="white" stroke="transparent" points="-4,4 -4,-214 186,-214 186,4 -4,4"/>
<!-- Node0 -->
<g id="node1" class="node">
<title>Node0</title>
<g id="a_node1"><a xlink:href="classState.html" target="_top" xlink:title="Define a interface que cada tela/estado deve implementar.">
<polygon fill="white" stroke="black" points="0,-95.5 0,-114.5 42,-114.5 42,-95.5 0,-95.5"/>
<text text-anchor="middle" x="21" y="-102.5" font-family="Helvetica,sans-Serif" font-size="10.00">State</text>
</a>
</g>
</g>
<!-- Node1 -->
<g id="node2" class="node">
<title>Node1</title>
<g id="a_node2"><a xlink:href="classDifficultyMenu.html" target="_top" xlink:title="Gerencia a lógica e a renderização da tela de seleção de dificuldade.">
<polygon fill="white" stroke="black" points="86,-190.5 86,-209.5 174,-209.5 174,-190.5 86,-190.5"/>
<text text-anchor="middle" x="130" y="-197.5" font-family="Helvetica,sans-Serif" font-size="10.00">DifficultyMenu</text>
</a>
</g>
</g>
<!-- Node0&#45;&gt;Node1 -->
<g id="edge1" class="edge">
<title>Node0&#45;&gt;Node1</title>
<path fill="none" stroke="midnightblue" d="M31.56,-123.58C41.19,-140.65 57.55,-165.57 78,-181 83.05,-184.81 88.96,-187.93 94.92,-190.46"/>
<polygon fill="midnightblue" stroke="midnightblue" points="34.52,-121.69 26.68,-114.57 28.36,-125.03 34.52,-121.69"/>
</g>
<!-- Node2 -->
<g id="node3" class="node">
<title>Node2</title>
<g id="a_node3"><a xlink:href="classLeaderboardMenu.html" target="_top" xlink:title="Exibe ranking de jogadores e permite retorno ao menu principal.">
<polygon fill="white" stroke="black" points="78,-152.5 78,-171.5 182,-171.5 182,-152.5 78,-152.5"/>
<text text-anchor="middle" x="130" y="-159.5" font-family="Helvetica,sans-Serif" font-size="10.00">LeaderboardMenu</text>
</a>
</g>
</g>
<!-- Node0&#45;&gt;Node2 -->
<g id="edge2" class="edge">
<title>Node0&#45;&gt;Node2</title>
<path fill="none" stroke="midnightblue" d="M42.65,-120.76C52.91,-128.14 65.73,-136.67 78,-143 84.8,-146.51 92.4,-149.7 99.62,-152.42"/>
<polygon fill="midnightblue" stroke="midnightblue" points="44.49,-117.77 34.36,-114.66 40.34,-123.41 44.49,-117.77"/>
</g>
<!-- Node3 -->
<g id="node4" class="node">
<title>Node3</title>
<g id="a_node4"><a xlink:href="classLoadName.html" target="_top" xlink:title="Tela de inserção de nome usada por Novo Jogo e Carregar Jogo.">
<polygon fill="white" stroke="black" points="95.5,-114.5 95.5,-133.5 164.5,-133.5 164.5,-114.5 95.5,-114.5"/>
<text text-anchor="middle" x="130" y="-121.5" font-family="Helvetica,sans-Serif" font-size="10.00">LoadName</text>
</a>
</g>
</g>
<!-- Node0&#45;&gt;Node3 -->
<g id="edge3" class="edge">
<title>Node0&#45;&gt;Node3</title>
<path fill="none" stroke="midnightblue" d="M52.23,-110.37C65.58,-112.74 81.33,-115.54 95.08,-117.98"/>
<polygon fill="midnightblue" stroke="midnightblue" points="52.58,-106.88 42.13,-108.57 51.36,-113.77 52.58,-106.88"/>
</g>
<!-- Node4 -->
<g id="node5" class="node">
<title>Node4</title>
<g id="a_node5"><a xlink:href="classMainMenu.html" target="_top" xlink:title="Tela inicial do jogo, centraliza navegação para demais estados.">
<polygon fill="white" stroke="black" points="96,-76.5 96,-95.5 164,-95.5 164,-76.5 96,-76.5"/>
<text text-anchor="middle" x="130" y="-83.5" font-family="Helvetica,sans-Serif" font-size="10.00">MainMenu</text>
</a>
</g>
</g>
<!-- Node0&#45;&gt;Node4 -->
<g id="edge4" class="edge">
<title>Node0&#45;&gt;Node4</title>
<path fill="none" stroke="midnightblue" d="M52,-99.67C65.68,-97.24 81.9,-94.36 95.93,-91.87"/>
<polygon fill="midnightblue" stroke="midnightblue" points="51.36,-96.23 42.13,-101.43 52.58,-103.12 51.36,-96.23"/>
</g>
<!-- Node5 -->
<g id="node6" class="node">
<title>Node5</title>
<g id="a_node6"><a xlink:href="classPlay.html" target="_top" xlink:title="Estado principal de jogo: controla loop ativo, pontuação e game over.">
<polygon fill="white" stroke="black" points="111,-38.5 111,-57.5 149,-57.5 149,-38.5 111,-38.5"/>
<text text-anchor="middle" x="130" y="-45.5" font-family="Helvetica,sans-Serif" font-size="10.00">Play</text>
</a>
</g>
</g>
<!-- Node0&#45;&gt;Node5 -->
<g id="edge5" class="edge">
<title>Node0&#45;&gt;Node5</title>
<path fill="none" stroke="midnightblue" d="M42.65,-89.24C52.91,-81.86 65.73,-73.33 78,-67 88.41,-61.63 100.7,-57 110.61,-53.66"/>
<polygon fill="midnightblue" stroke="midnightblue" points="40.34,-86.59 34.36,-95.34 44.49,-92.23 40.34,-86.59"/>
</g>
<!-- Node6 -->
<g id="node7" class="node">
<title>Node6</title>
<g id="a_node7"><a xlink:href="classSettingsMenu.html" target="_top" xlink:title="Tela de configurações: permite alterar clima e habilitar/desabilitar música.">
<polygon fill="white" stroke="black" points="88.5,-0.5 88.5,-19.5 171.5,-19.5 171.5,-0.5 88.5,-0.5"/>
<text text-anchor="middle" x="130" y="-7.5" font-family="Helvetica,sans-Serif" font-size="10.00">SettingsMenu</text>
</a>
</g>
</g>
<!-- Node0&#45;&gt;Node6 -->
<g id="edge6" class="edge">
<title>Node0&#45;&gt;Node6</title>
<path fill="none" stroke="midnightblue" d="M31.56,-86.42C41.19,-69.35 57.55,-44.43 78,-29 83.05,-25.19 88.96,-22.07 94.92,-19.54"/>
<polygon fill="midnightblue" stroke="midnightblue" points="28.36,-84.97 26.68,-95.43 34.52,-88.31 28.36,-84.97"/>
</g>
</g>
</svg>
