<?xml version="1.0" encoding="UTF-8" standalone="no"?>
<!DOCTYPE svg PUBLIC "-//W3C//DTD SVG 1.1//EN"
 "http://www.w3.org/Graphics/SVG/1.1/DTD/svg11.dtd">
<!-- Generated by graphviz version 2.43.0 (0)
 -->
<!-- Title: Gráfico de Hierarquia de Classes Pages: 1 -->
<svg width="159pt" height="66pt"
 viewBox="0.00 0.00 159.00 66.00" xmlns="http://www.w3.org/2000/svg" xmlns:xlink="http://www.w3.org/1999/xlink">
<g id="graph0" class="graph" transform="scale(1 1) rotate(0) translate(4 62)">
<title>Gráfico de Hierarquia de Classes</title>
<polygon fill="white" stroke="transparent" points="-4,4 -4,-62 155,-62 155,4 -4,4"/>
<!-- Node0 -->
<g id="node1" class="node">
<title>Node0</title>
<g id="a_node1"><a xlink:href="classGameObject.html" target="_top" xlink:title="Objeto genérico do jogo contendo posição, sprite e hitbox.">
<polygon fill="white" stroke="black" points="0,-19.5 0,-38.5 77,-38.5 77,-19.5 0,-19.5"/>
<text text-anchor="middle" x="38.5" y="-26.5" font-family="Helvetica,sans-Serif" font-size="10.00">GameObject</text>
</a>
</g>
</g>
<!-- Node1 -->
<g id="node2" class="node">
<title>Node1</title>
<g id="a_node2"><a xlink:href="classBird.html" target="_top" xlink:title="Personagem controlável: gerencia movimento, animação de asas, pulo e detecção de colisões.">
<polygon fill="white" stroke="black" points="114,-38.5 114,-57.5 150,-57.5 150,-38.5 114,-38.5"/>
<text text-anchor="middle" x="132" y="-45.5" font-family="Helvetica,sans-Serif" font-size="10.00">Bird</text>
</a>
</g>
</g>
<!-- Node0&#45;&gt;Node1 -->
<g id="edge1" class="edge">
<title>Node0&#45;&gt;Node1</title>
<path fill="none" stroke="midnightblue" d="M87.09,-38.88C96.57,-40.85 105.94,-42.8 113.57,-44.38"/>
<polygon fill="midnightblue" stroke="midnightblue" points="87.75,-35.44 77.24,-36.84 86.32,-42.3 87.75,-35.44"/>
</g>
<!-- Node2 -->
<g id="node3" class="node">
<title>Node2</title>
<g id="a_node3"><a xlink:href="classPipe.html" target="_top" xlink:title="Obstáculo individual que se move horizontalmente e gera pontuação.">
<polygon fill="white" stroke="black" points="113,-0.5 113,-19.5 151,-19.5 151,-0.5 113,-0.5"/>
<text text-anchor="middle" x="132" y="-7.5" font-family="Helvetica,sans-Serif" font-size="10.00">Pipe</text>
</a>
</g>
</g>
<!-- Node0&#45;&gt;Node2 -->
<g id="edge2" class="edge">
<title>Node0&#45;&gt;Node2</title>
<path fill="none" stroke="midnightblue" d="M87.07,-19.12C96.16,-17.24 105.14,-15.37 112.6,-13.82"/>
<polygon fill="midnightblue" stroke="midnightblue" points="86.32,-15.7 77.24,-21.16 87.75,-22.56 86.32,-15.7"/>
</g>
</g>
</svg>
