<?xml version="1.0" encoding="UTF-8" standalone="no"?>
<!DOCTYPE svg PUBLIC "-//W3C//DTD SVG 1.1//EN"
 "http://www.w3.org/Graphics/SVG/1.1/DTD/svg11.dtd">
<!-- Generated by graphviz version 2.43.0 (0)
 -->
<!-- Title: include/init.hpp Pages: 1 -->
<svg width="1758pt" height="341pt"
 viewBox="0.00 0.00 1757.50 341.00" xmlns="http://www.w3.org/2000/svg" xmlns:xlink="http://www.w3.org/1999/xlink">
<g id="graph0" class="graph" transform="scale(1 1) rotate(0) translate(4 337)">
<title>include/init.hpp</title>
<polygon fill="white" stroke="transparent" points="-4,4 -4,-337 1753.5,-337 1753.5,4 -4,4"/>
<!-- Node1 -->
<g id="node1" class="node">
<title>Node1</title>
<g id="a_node1"><a xlink:title="Declara funções de inicialização e finalização do Allegro.">
<polygon fill="#bfbfbf" stroke="black" points="722,-313.5 722,-332.5 814,-332.5 814,-313.5 722,-313.5"/>
<text text-anchor="middle" x="768" y="-320.5" font-family="Helvetica,sans-Serif" font-size="10.00">include/init.hpp</text>
</a>
</g>
</g>
<!-- Node2 -->
<g id="node2" class="node">
<title>Node2</title>
<g id="a_node2"><a xlink:href="allegro__interface_8hpp.html" target="_top" xlink:title="Declara o controlador que integra Allegro e a máquina de estados.">
<polygon fill="white" stroke="black" points="51,-56.5 51,-75.5 209,-75.5 209,-56.5 51,-56.5"/>
<text text-anchor="middle" x="130" y="-63.5" font-family="Helvetica,sans-Serif" font-size="10.00">include/allegro_interface.hpp</text>
</a>
</g>
</g>
<!-- Node1&#45;&gt;Node2 -->
<g id="edge1" class="edge">
<title>Node1&#45;&gt;Node2</title>
<path fill="none" stroke="midnightblue" d="M711.78,-320.51C585.69,-316.71 283.75,-304.91 186,-277 123.88,-259.26 90.54,-265.22 57,-210 45.67,-191.35 60.08,-124.84 68,-112 78.2,-95.47 96.93,-83.16 111.14,-75.63"/>
<polygon fill="midnightblue" stroke="midnightblue" points="711.89,-324.02 721.99,-320.81 712.1,-317.02 711.89,-324.02"/>
</g>
<!-- Node3 -->
<g id="node3" class="node">
<title>Node3</title>
<g id="a_node3"><a xlink:href="allegro__interface_8cpp.html" target="_top" xlink:title="Implementação do controlador principal que integra Allegro às lógicas de estado do jogo.">
<polygon fill="white" stroke="black" points="620.5,-0.5 620.5,-19.5 757.5,-19.5 757.5,-0.5 620.5,-0.5"/>
<text text-anchor="middle" x="689" y="-7.5" font-family="Helvetica,sans-Serif" font-size="10.00">src/allegro_interface.cpp</text>
</a>
</g>
</g>
<!-- Node1&#45;&gt;Node3 -->
<g id="edge46" class="edge">
<title>Node1&#45;&gt;Node3</title>
<path fill="none" stroke="midnightblue" d="M729.14,-309.43C713.33,-302.36 696.38,-291.9 686,-277 627.65,-193.26 672.28,-55.86 685.58,-19.86"/>
<polygon fill="midnightblue" stroke="midnightblue" points="728.18,-312.82 738.76,-313.4 730.85,-306.35 728.18,-312.82"/>
</g>
<!-- Node4 -->
<g id="node4" class="node">
<title>Node4</title>
<g id="a_node4"><a xlink:href="main_8cpp.html" target="_top" xlink:title="Ponto de entrada do jogo Flappy Bird.">
<polygon fill="white" stroke="black" points="37.5,-0.5 37.5,-19.5 116.5,-19.5 116.5,-0.5 37.5,-0.5"/>
<text text-anchor="middle" x="77" y="-7.5" font-family="Helvetica,sans-Serif" font-size="10.00">src/main.cpp</text>
</a>
</g>
</g>
<!-- Node1&#45;&gt;Node4 -->
<g id="edge48" class="edge">
<title>Node1&#45;&gt;Node4</title>
<path fill="none" stroke="midnightblue" d="M711.77,-320.48C558.78,-316.02 142.63,-301.76 86,-277 37.75,-255.9 0,-248.16 0,-195.5 0,-195.5 0,-195.5 0,-126.5 0,-79.51 44.68,-37.09 65.97,-19.54"/>
<polygon fill="midnightblue" stroke="midnightblue" points="711.8,-323.98 721.89,-320.77 712,-316.98 711.8,-323.98"/>
</g>
<!-- Node5 -->
<g id="node5" class="node">
<title>Node5</title>
<g id="a_node5"><a xlink:href="flappy__bird__controller_8hpp.html" target="_top" xlink:title="Declaracao da classe FlappyBird (controlador principal).">
<polygon fill="white" stroke="black" points="273.5,-112.5 273.5,-142.5 382.5,-142.5 382.5,-112.5 273.5,-112.5"/>
<text text-anchor="start" x="281.5" y="-130.5" font-family="Helvetica,sans-Serif" font-size="10.00">include/flappy_bird</text>
<text text-anchor="middle" x="328" y="-119.5" font-family="Helvetica,sans-Serif" font-size="10.00">_controller.hpp</text>
</a>
</g>
</g>
<!-- Node1&#45;&gt;Node5 -->
<g id="edge4" class="edge">
<title>Node1&#45;&gt;Node5</title>
<path fill="none" stroke="midnightblue" d="M711.65,-319.43C629.55,-314.83 481.85,-303.14 436,-277 380.89,-245.58 346.2,-173.28 333.48,-142.63"/>
<polygon fill="midnightblue" stroke="midnightblue" points="711.63,-322.93 721.81,-319.98 712.01,-315.94 711.63,-322.93"/>
</g>
<!-- Node7 -->
<g id="node7" class="node">
<title>Node7</title>
<g id="a_node7"><a xlink:href="load__game_8cpp.html" target="_top" xlink:title="Implementação da classe LoadName, responsável pela tela de inserção de nome do jogador.">
<polygon fill="white" stroke="black" points="1075.5,-0.5 1075.5,-19.5 1216.5,-19.5 1216.5,-0.5 1075.5,-0.5"/>
<text text-anchor="middle" x="1146" y="-7.5" font-family="Helvetica,sans-Serif" font-size="10.00">src/states/load_game.cpp</text>
</a>
</g>
</g>
<!-- Node1&#45;&gt;Node7 -->
<g id="edge53" class="edge">
<title>Node1&#45;&gt;Node7</title>
<path fill="none" stroke="midnightblue" d="M824.45,-321.78C986.97,-320.7 1447.97,-314.34 1504,-277 1537.58,-254.62 1544,-235.85 1544,-195.5 1544,-195.5 1544,-195.5 1544,-126.5 1544,-59.14 1331.07,-28.53 1216.7,-16.94"/>
<polygon fill="midnightblue" stroke="midnightblue" points="824.16,-318.28 814.18,-321.84 824.2,-325.28 824.16,-318.28"/>
</g>
<!-- Node10 -->
<g id="node10" class="node">
<title>Node10</title>
<g id="a_node10"><a xlink:href="game__object_8hpp.html" target="_top" xlink:title="Classe base abstrata para todos os objetos renderizáveis.">
<polygon fill="white" stroke="black" points="195.5,-252 195.5,-271 334.5,-271 334.5,-252 195.5,-252"/>
<text text-anchor="middle" x="265" y="-259" font-family="Helvetica,sans-Serif" font-size="10.00">include/game_object.hpp</text>
</a>
</g>
</g>
<!-- Node1&#45;&gt;Node10 -->
<g id="edge11" class="edge">
<title>Node1&#45;&gt;Node10</title>
<path fill="none" stroke="midnightblue" d="M711.27,-317.07C630.58,-309.79 478.15,-295.06 349,-277 336.69,-275.28 323.41,-273.13 311.13,-271.01"/>
<polygon fill="midnightblue" stroke="midnightblue" points="711.42,-320.59 721.69,-318 712.04,-313.62 711.42,-320.59"/>
</g>
<!-- Node13 -->
<g id="node13" class="node">
<title>Node13</title>
<g id="a_node13"><a xlink:href="pipe_8hpp.html" target="_top" xlink:title="Declaration of pipe&#45;related classes (Pipe, PipePair, PipeList).">
<polygon fill="white" stroke="black" points="391.5,-185 391.5,-204 488.5,-204 488.5,-185 391.5,-185"/>
<text text-anchor="middle" x="440" y="-192" font-family="Helvetica,sans-Serif" font-size="10.00">include/pipe.hpp</text>
</a>
</g>
</g>
<!-- Node1&#45;&gt;Node13 -->
<g id="edge21" class="edge">
<title>Node1&#45;&gt;Node13</title>
<path fill="none" stroke="midnightblue" d="M711.57,-321.52C631.51,-319.62 490.7,-311.32 455,-277 434.88,-257.65 436.64,-220.83 438.67,-204.12"/>
<polygon fill="midnightblue" stroke="midnightblue" points="711.9,-325.03 721.97,-321.74 712.05,-318.03 711.9,-325.03"/>
</g>
<!-- Node16 -->
<g id="node16" class="node">
<title>Node16</title>
<g id="a_node16"><a xlink:href="player_8hpp.html" target="_top" xlink:title="Modela um jogador e operações de ranking.">
<polygon fill="white" stroke="black" points="464,-252 464,-271 570,-271 570,-252 464,-252"/>
<text text-anchor="middle" x="517" y="-259" font-family="Helvetica,sans-Serif" font-size="10.00">include/player.hpp</text>
</a>
</g>
</g>
<!-- Node1&#45;&gt;Node16 -->
<g id="edge22" class="edge">
<title>Node1&#45;&gt;Node16</title>
<path fill="none" stroke="midnightblue" d="M717.35,-311.26C666.64,-299.72 590.38,-281.61 548,-271.01"/>
<polygon fill="midnightblue" stroke="midnightblue" points="716.61,-314.68 727.14,-313.48 718.16,-307.85 716.61,-314.68"/>
</g>
<!-- Node17 -->
<g id="node17" class="node">
<title>Node17</title>
<g id="a_node17"><a xlink:href="player_8cpp.html" target="_top" xlink:title="Implementação da classe Player e utilidades de ranking.">
<polygon fill="white" stroke="black" points="545,-185 545,-204 629,-204 629,-185 545,-185"/>
<text text-anchor="middle" x="587" y="-192" font-family="Helvetica,sans-Serif" font-size="10.00">src/player.cpp</text>
</a>
</g>
</g>
<!-- Node1&#45;&gt;Node17 -->
<g id="edge50" class="edge">
<title>Node1&#45;&gt;Node17</title>
<path fill="none" stroke="midnightblue" d="M712.04,-316.16C682.24,-310.47 646.73,-299.22 622,-277 599.78,-257.03 591.14,-220.52 588.25,-204.01"/>
<polygon fill="midnightblue" stroke="midnightblue" points="711.46,-319.61 721.91,-317.89 712.66,-312.72 711.46,-319.61"/>
</g>
<!-- Node18 -->
<g id="node18" class="node">
<title>Node18</title>
<g id="a_node18"><a xlink:href="difficulty__menu_8hpp.html" target="_top" xlink:title="Definição da classe DifficultyMenu, que representa o estado do menu de seleção de dificuldade.">
<polygon fill="white" stroke="black" points="702.5,-246.5 702.5,-276.5 833.5,-276.5 833.5,-246.5 702.5,-246.5"/>
<text text-anchor="start" x="710.5" y="-264.5" font-family="Helvetica,sans-Serif" font-size="10.00">include/states/difficulty</text>
<text text-anchor="middle" x="768" y="-253.5" font-family="Helvetica,sans-Serif" font-size="10.00">_menu.hpp</text>
</a>
</g>
</g>
<!-- Node1&#45;&gt;Node18 -->
<g id="edge26" class="edge">
<title>Node1&#45;&gt;Node18</title>
<path fill="none" stroke="midnightblue" d="M768,-303.23C768,-294.59 768,-284.5 768,-276.52"/>
<polygon fill="midnightblue" stroke="midnightblue" points="764.5,-303.48 768,-313.48 771.5,-303.48 764.5,-303.48"/>
</g>
<!-- Node19 -->
<g id="node19" class="node">
<title>Node19</title>
<g id="a_node19"><a xlink:href="difficulty__menu_8cpp.html" target="_top" xlink:title="Implementação da classe DifficultyMenu, que gerencia a tela de seleção de dificuldade.">
<polygon fill="white" stroke="black" points="685,-179.5 685,-209.5 795,-209.5 795,-179.5 685,-179.5"/>
<text text-anchor="start" x="693" y="-197.5" font-family="Helvetica,sans-Serif" font-size="10.00">src/states/difficulty</text>
<text text-anchor="middle" x="740" y="-186.5" font-family="Helvetica,sans-Serif" font-size="10.00">_menu.cpp</text>
</a>
</g>
</g>
<!-- Node1&#45;&gt;Node19 -->
<g id="edge51" class="edge">
<title>Node1&#45;&gt;Node19</title>
<path fill="none" stroke="midnightblue" d="M731.76,-309.15C717.33,-302.05 702.22,-291.62 694,-277 680.7,-253.35 704.33,-225.87 722.36,-209.63"/>
<polygon fill="midnightblue" stroke="midnightblue" points="730.52,-312.43 741.07,-313.36 733.4,-306.05 730.52,-312.43"/>
</g>
<!-- Node20 -->
<g id="node20" class="node">
<title>Node20</title>
<g id="a_node20"><a xlink:href="main__menu_8cpp.html" target="_top" xlink:title="Implementação da classe MainMenu, o estado principal e tela inicial do jogo.">
<polygon fill="white" stroke="black" points="1111.5,-185 1111.5,-204 1256.5,-204 1256.5,-185 1111.5,-185"/>
<text text-anchor="middle" x="1184" y="-192" font-family="Helvetica,sans-Serif" font-size="10.00">src/states/main_menu.cpp</text>
</a>
</g>
</g>
<!-- Node1&#45;&gt;Node20 -->
<g id="edge54" class="edge">
<title>Node1&#45;&gt;Node20</title>
<path fill="none" stroke="midnightblue" d="M824.26,-319.67C930.39,-314.72 1151.73,-301.56 1176,-277 1195.39,-257.38 1189.98,-220.69 1186.23,-204.07"/>
<polygon fill="midnightblue" stroke="midnightblue" points="823.88,-316.18 814.05,-320.14 824.2,-323.18 823.88,-316.18"/>
</g>
<!-- Node21 -->
<g id="node21" class="node">
<title>Node21</title>
<g id="a_node21"><a xlink:href="leaderboard__menu_8hpp.html" target="_top" xlink:title="Definição da classe LeaderboardMenu, que representa o estado da tela de ranking.">
<polygon fill="white" stroke="black" points="1021,-246.5 1021,-276.5 1167,-276.5 1167,-246.5 1021,-246.5"/>
<text text-anchor="start" x="1029" y="-264.5" font-family="Helvetica,sans-Serif" font-size="10.00">include/states/leaderboard</text>
<text text-anchor="middle" x="1094" y="-253.5" font-family="Helvetica,sans-Serif" font-size="10.00">_menu.hpp</text>
</a>
</g>
</g>
<!-- Node1&#45;&gt;Node21 -->
<g id="edge29" class="edge">
<title>Node1&#45;&gt;Node21</title>
<path fill="none" stroke="midnightblue" d="M824.17,-311.75C878.58,-301.82 961.37,-286.71 1020.89,-275.84"/>
<polygon fill="midnightblue" stroke="midnightblue" points="823.23,-308.36 814.02,-313.6 824.48,-315.25 823.23,-308.36"/>
</g>
<!-- Node22 -->
<g id="node22" class="node">
<title>Node22</title>
<g id="a_node22"><a xlink:href="leaderboard__menu_8cpp.html" target="_top" xlink:title="Implementação da classe LeaderboardMenu, responsável por exibir a tela de ranking.">
<polygon fill="white" stroke="black" points="968.5,-179.5 968.5,-209.5 1093.5,-209.5 1093.5,-179.5 968.5,-179.5"/>
<text text-anchor="start" x="976.5" y="-197.5" font-family="Helvetica,sans-Serif" font-size="10.00">src/states/leaderboard</text>
<text text-anchor="middle" x="1031" y="-186.5" font-family="Helvetica,sans-Serif" font-size="10.00">_menu.cpp</text>
</a>
</g>
</g>
<!-- Node1&#45;&gt;Node22 -->
<g id="edge52" class="edge">
<title>Node1&#45;&gt;Node22</title>
<path fill="none" stroke="midnightblue" d="M824.53,-320.65C868.55,-317.14 929.44,-306.69 974,-277 999.15,-260.24 1016.55,-228.31 1025.04,-209.78"/>
<polygon fill="midnightblue" stroke="midnightblue" points="824.02,-317.18 814.29,-321.37 824.51,-324.16 824.02,-317.18"/>
</g>
<!-- Node23 -->
<g id="node23" class="node">
<title>Node23</title>
<g id="a_node23"><a xlink:href="load__game_8hpp.html" target="_top" xlink:title="Definição da classe LoadName, que representa o estado de inserção de nome.">
<polygon fill="white" stroke="black" points="1223.5,-246.5 1223.5,-276.5 1332.5,-276.5 1332.5,-246.5 1223.5,-246.5"/>
<text text-anchor="start" x="1231.5" y="-264.5" font-family="Helvetica,sans-Serif" font-size="10.00">include/states/load</text>
<text text-anchor="middle" x="1278" y="-253.5" font-family="Helvetica,sans-Serif" font-size="10.00">_game.hpp</text>
</a>
</g>
</g>
<!-- Node1&#45;&gt;Node23 -->
<g id="edge32" class="edge">
<title>Node1&#45;&gt;Node23</title>
<path fill="none" stroke="midnightblue" d="M824.33,-318.16C908.42,-312 1071.58,-298.39 1209,-277 1213.72,-276.27 1218.6,-275.42 1223.48,-274.51"/>
<polygon fill="midnightblue" stroke="midnightblue" points="823.95,-314.68 814.23,-318.89 824.46,-321.66 823.95,-314.68"/>
</g>
<!-- Node24 -->
<g id="node24" class="node">
<title>Node24</title>
<g id="a_node24"><a xlink:href="main__menu_8hpp.html" target="_top" xlink:title="Definição da classe MainMenu, o estado que representa o menu principal do jogo.">
<polygon fill="white" stroke="black" points="851.5,-246.5 851.5,-276.5 964.5,-276.5 964.5,-246.5 851.5,-246.5"/>
<text text-anchor="start" x="859.5" y="-264.5" font-family="Helvetica,sans-Serif" font-size="10.00">include/states/main</text>
<text text-anchor="middle" x="908" y="-253.5" font-family="Helvetica,sans-Serif" font-size="10.00">_menu.hpp</text>
</a>
</g>
</g>
<!-- Node1&#45;&gt;Node24 -->
<g id="edge35" class="edge">
<title>Node1&#45;&gt;Node24</title>
<path fill="none" stroke="midnightblue" d="M797.5,-309.46C820.18,-299.82 851.5,-286.51 875,-276.52"/>
<polygon fill="midnightblue" stroke="midnightblue" points="795.89,-306.34 788.06,-313.48 798.63,-312.78 795.89,-306.34"/>
</g>
<!-- Node25 -->
<g id="node25" class="node">
<title>Node25</title>
<g id="a_node25"><a xlink:href="settings__menu_8cpp.html" target="_top" xlink:title="Implementação da classe SettingsMenu, que gerencia a tela de configurações do jogo.">
<polygon fill="white" stroke="black" points="1361,-179.5 1361,-209.5 1467,-209.5 1467,-179.5 1361,-179.5"/>
<text text-anchor="start" x="1369" y="-197.5" font-family="Helvetica,sans-Serif" font-size="10.00">src/states/settings</text>
<text text-anchor="middle" x="1414" y="-186.5" font-family="Helvetica,sans-Serif" font-size="10.00">_menu.cpp</text>
</a>
</g>
</g>
<!-- Node1&#45;&gt;Node25 -->
<g id="edge55" class="edge">
<title>Node1&#45;&gt;Node25</title>
<path fill="none" stroke="midnightblue" d="M824.47,-320.55C990.1,-316.04 1464.4,-301.06 1487,-277 1508.85,-253.74 1470.58,-225.91 1441.69,-209.52"/>
<polygon fill="midnightblue" stroke="midnightblue" points="823.92,-317.07 814.02,-320.84 824.11,-324.06 823.92,-317.07"/>
</g>
<!-- Node26 -->
<g id="node26" class="node">
<title>Node26</title>
<g id="a_node26"><a xlink:href="settings__menu_8hpp.html" target="_top" xlink:title="Definição da classe SettingsMenu, que representa o estado do menu de configurações.">
<polygon fill="white" stroke="black" points="1350.5,-246.5 1350.5,-276.5 1477.5,-276.5 1477.5,-246.5 1350.5,-246.5"/>
<text text-anchor="start" x="1358.5" y="-264.5" font-family="Helvetica,sans-Serif" font-size="10.00">include/states/settings</text>
<text text-anchor="middle" x="1414" y="-253.5" font-family="Helvetica,sans-Serif" font-size="10.00">_menu.hpp</text>
</a>
</g>
</g>
<!-- Node1&#45;&gt;Node26 -->
<g id="edge43" class="edge">
<title>Node1&#45;&gt;Node26</title>
<path fill="none" stroke="midnightblue" d="M824.53,-319.83C927.74,-315.36 1153.44,-303.28 1342,-277 1344.78,-276.61 1347.61,-276.18 1350.47,-275.73"/>
<polygon fill="midnightblue" stroke="midnightblue" points="824.18,-316.34 814.33,-320.26 824.47,-323.33 824.18,-316.34"/>
</g>
<!-- Node27 -->
<g id="node27" class="node">
<title>Node27</title>
<g id="a_node27"><a xlink:href="init_8cpp.html" target="_top" xlink:title="Inicialização de Allegro, fontes, addons e recursos globais.">
<polygon fill="white" stroke="black" points="1572,-252 1572,-271 1642,-271 1642,-252 1572,-252"/>
<text text-anchor="middle" x="1607" y="-259" font-family="Helvetica,sans-Serif" font-size="10.00">src/init.cpp</text>
</a>
</g>
</g>
<!-- Node1&#45;&gt;Node27 -->
<g id="edge47" class="edge">
<title>Node1&#45;&gt;Node27</title>
<path fill="none" stroke="midnightblue" d="M824.47,-320.48C980.75,-315.99 1416.77,-301.58 1558,-277 1566.04,-275.6 1574.63,-273.33 1582.34,-271.01"/>
<polygon fill="midnightblue" stroke="midnightblue" points="824.04,-316.99 814.14,-320.77 824.24,-323.98 824.04,-316.99"/>
</g>
<!-- Node28 -->
<g id="node28" class="node">
<title>Node28</title>
<g id="a_node28"><a xlink:href="motion_8cpp.html" target="_top" xlink:title="Implementação da classe Motion (parallax e clima).">
<polygon fill="white" stroke="black" points="1660.5,-252 1660.5,-271 1749.5,-271 1749.5,-252 1660.5,-252"/>
<text text-anchor="middle" x="1705" y="-259" font-family="Helvetica,sans-Serif" font-size="10.00">src/motion.cpp</text>
</a>
</g>
</g>
<!-- Node1&#45;&gt;Node28 -->
<g id="edge49" class="edge">
<title>Node1&#45;&gt;Node28</title>
<path fill="none" stroke="midnightblue" d="M824.36,-320.69C992.8,-316.51 1490.7,-302.31 1651,-277 1659.82,-275.61 1669.28,-273.34 1677.77,-271.01"/>
<polygon fill="midnightblue" stroke="midnightblue" points="824.13,-317.19 814.22,-320.93 824.3,-324.19 824.13,-317.19"/>
</g>
<!-- Node2&#45;&gt;Node3 -->
<g id="edge2" class="edge">
<title>Node2&#45;&gt;Node3</title>
<path fill="none" stroke="midnightblue" d="M219.42,-56.36C330.98,-45.59 519.32,-27.39 620.25,-17.64"/>
<polygon fill="midnightblue" stroke="midnightblue" points="218.82,-52.9 209.2,-57.35 219.49,-59.87 218.82,-52.9"/>
</g>
<!-- Node2&#45;&gt;Node4 -->
<g id="edge3" class="edge">
<title>Node2&#45;&gt;Node4</title>
<path fill="none" stroke="midnightblue" d="M114.02,-48.72C104.68,-39.2 93.25,-27.56 85.59,-19.75"/>
<polygon fill="midnightblue" stroke="midnightblue" points="111.75,-51.4 121.25,-56.08 116.74,-46.49 111.75,-51.4"/>
</g>
<!-- Node5&#45;&gt;Node2 -->
<g id="edge5" class="edge">
<title>Node5&#45;&gt;Node2</title>
<path fill="none" stroke="midnightblue" d="M271.66,-109.57C234.62,-98.44 187.75,-84.35 158.31,-75.51"/>
<polygon fill="midnightblue" stroke="midnightblue" points="270.74,-112.95 281.33,-112.47 272.76,-106.24 270.74,-112.95"/>
</g>
<!-- Node6 -->
<g id="node6" class="node">
<title>Node6</title>
<g id="a_node6"><a xlink:href="play_8hpp.html" target="_top" xlink:title="Declaracao da classe Play, responsavel pelo estado de jogo ativo.">
<polygon fill="white" stroke="black" points="746,-56.5 746,-75.5 874,-75.5 874,-56.5 746,-56.5"/>
<text text-anchor="middle" x="810" y="-63.5" font-family="Helvetica,sans-Serif" font-size="10.00">include/states/play.hpp</text>
</a>
</g>
</g>
<!-- Node5&#45;&gt;Node6 -->
<g id="edge6" class="edge">
<title>Node5&#45;&gt;Node6</title>
<path fill="none" stroke="midnightblue" d="M392.61,-112.23C393.07,-112.15 393.54,-112.08 394,-112 517.85,-91.76 663.98,-78.34 745.93,-71.76"/>
<polygon fill="midnightblue" stroke="midnightblue" points="391.88,-108.8 382.65,-114.01 393.11,-115.7 391.88,-108.8"/>
</g>
<!-- Node9 -->
<g id="node9" class="node">
<title>Node9</title>
<g id="a_node9"><a xlink:href="flappy__bird__controller_8cpp.html" target="_top" xlink:title="Controlador de fluxo do jogo (pontuação, eventos globais).">
<polygon fill="white" stroke="black" points="238.5,-56.5 238.5,-75.5 397.5,-75.5 397.5,-56.5 238.5,-56.5"/>
<text text-anchor="middle" x="318" y="-63.5" font-family="Helvetica,sans-Serif" font-size="10.00">src/flappy_bird_controller.cpp</text>
</a>
</g>
</g>
<!-- Node5&#45;&gt;Node9 -->
<g id="edge10" class="edge">
<title>Node5&#45;&gt;Node9</title>
<path fill="none" stroke="midnightblue" d="M323.93,-102.29C322.35,-92.86 320.63,-82.65 319.46,-75.66"/>
<polygon fill="midnightblue" stroke="midnightblue" points="320.52,-103.12 325.63,-112.4 327.42,-101.96 320.52,-103.12"/>
</g>
<!-- Node6&#45;&gt;Node3 -->
<g id="edge7" class="edge">
<title>Node6&#45;&gt;Node3</title>
<path fill="none" stroke="midnightblue" d="M781.69,-52.37C759.03,-42.26 727.87,-28.35 708.08,-19.52"/>
<polygon fill="midnightblue" stroke="midnightblue" points="780.27,-55.56 790.83,-56.44 783.12,-49.17 780.27,-55.56"/>
</g>
<!-- Node6&#45;&gt;Node7 -->
<g id="edge8" class="edge">
<title>Node6&#45;&gt;Node7</title>
<path fill="none" stroke="midnightblue" d="M873.13,-54.85C936.62,-44.65 1033.39,-29.1 1093.01,-19.52"/>
<polygon fill="midnightblue" stroke="midnightblue" points="872.56,-51.4 863.24,-56.44 873.67,-58.31 872.56,-51.4"/>
</g>
<!-- Node8 -->
<g id="node8" class="node">
<title>Node8</title>
<g id="a_node8"><a xlink:href="play_8cpp.html" target="_top" xlink:title="Implementacao da classe Play.">
<polygon fill="white" stroke="black" points="784.5,-0.5 784.5,-19.5 891.5,-19.5 891.5,-0.5 784.5,-0.5"/>
<text text-anchor="middle" x="838" y="-7.5" font-family="Helvetica,sans-Serif" font-size="10.00">src/states/play.cpp</text>
</a>
</g>
</g>
<!-- Node6&#45;&gt;Node8 -->
<g id="edge9" class="edge">
<title>Node6&#45;&gt;Node8</title>
<path fill="none" stroke="midnightblue" d="M819.34,-46.98C824.09,-37.82 829.66,-27.09 833.46,-19.75"/>
<polygon fill="midnightblue" stroke="midnightblue" points="816.12,-45.59 814.62,-56.08 822.33,-48.82 816.12,-45.59"/>
</g>
<!-- Node10&#45;&gt;Node5 -->
<g id="edge16" class="edge">
<title>Node10&#45;&gt;Node5</title>
<path fill="none" stroke="midnightblue" d="M280.34,-244.55C288.67,-235.14 298.54,-222.63 305,-210 316.31,-187.88 322.71,-159.44 325.75,-142.67"/>
<polygon fill="midnightblue" stroke="midnightblue" points="277.74,-242.22 273.55,-251.95 282.89,-246.95 277.74,-242.22"/>
</g>
<!-- Node11 -->
<g id="node11" class="node">
<title>Node11</title>
<g id="a_node11"><a xlink:href="bird_8hpp.html" target="_top" xlink:title="Declaracao da classe Bird (personagem controlavel).">
<polygon fill="white" stroke="black" points="66.5,-185 66.5,-204 161.5,-204 161.5,-185 66.5,-185"/>
<text text-anchor="middle" x="114" y="-192" font-family="Helvetica,sans-Serif" font-size="10.00">include/bird.hpp</text>
</a>
</g>
</g>
<!-- Node10&#45;&gt;Node11 -->
<g id="edge12" class="edge">
<title>Node10&#45;&gt;Node11</title>
<path fill="none" stroke="midnightblue" d="M235.45,-247.78C205.55,-234.91 160.12,-215.35 134.13,-204.17"/>
<polygon fill="midnightblue" stroke="midnightblue" points="234.38,-251.13 244.95,-251.87 237.15,-244.7 234.38,-251.13"/>
</g>
<!-- Node10&#45;&gt;Node13 -->
<g id="edge17" class="edge">
<title>Node10&#45;&gt;Node13</title>
<path fill="none" stroke="midnightblue" d="M297.93,-248.27C332.66,-235.37 386.49,-215.38 416.94,-204.06"/>
<polygon fill="midnightblue" stroke="midnightblue" points="296.39,-245.11 288.24,-251.87 298.83,-251.67 296.39,-245.11"/>
</g>
<!-- Node15 -->
<g id="node15" class="node">
<title>Node15</title>
<g id="a_node15"><a xlink:href="game__object_8cpp.html" target="_top" xlink:title="Métodos utilitários da classe base GameObject.">
<polygon fill="white" stroke="black" points="179.5,-185 179.5,-204 296.5,-204 296.5,-185 179.5,-185"/>
<text text-anchor="middle" x="238" y="-192" font-family="Helvetica,sans-Serif" font-size="10.00">src/game_object.cpp</text>
</a>
</g>
</g>
<!-- Node10&#45;&gt;Node15 -->
<g id="edge20" class="edge">
<title>Node10&#45;&gt;Node15</title>
<path fill="none" stroke="midnightblue" d="M257.44,-242.29C252.25,-229.81 245.61,-213.81 241.58,-204.13"/>
<polygon fill="midnightblue" stroke="midnightblue" points="254.29,-243.84 261.36,-251.73 260.75,-241.16 254.29,-243.84"/>
</g>
<!-- Node11&#45;&gt;Node5 -->
<g id="edge13" class="edge">
<title>Node11&#45;&gt;Node5</title>
<path fill="none" stroke="midnightblue" d="M152.14,-181.92C188.42,-170.9 243.08,-154.29 281.82,-142.53"/>
<polygon fill="midnightblue" stroke="midnightblue" points="150.97,-178.61 142.42,-184.87 153,-185.31 150.97,-178.61"/>
</g>
<!-- Node11&#45;&gt;Node9 -->
<g id="edge15" class="edge">
<title>Node11&#45;&gt;Node9</title>
<path fill="none" stroke="midnightblue" d="M136.54,-179.52C178.97,-153.21 269.53,-97.06 304.15,-75.59"/>
<polygon fill="midnightblue" stroke="midnightblue" points="134.68,-176.56 128.02,-184.81 138.36,-182.51 134.68,-176.56"/>
</g>
<!-- Node12 -->
<g id="node12" class="node">
<title>Node12</title>
<g id="a_node12"><a xlink:href="bird_8cpp.html" target="_top" xlink:title="Implementação da classe Bird (animação, física e colisões).">
<polygon fill="white" stroke="black" points="77.5,-118 77.5,-137 150.5,-137 150.5,-118 77.5,-118"/>
<text text-anchor="middle" x="114" y="-125" font-family="Helvetica,sans-Serif" font-size="10.00">src/bird.cpp</text>
</a>
</g>
</g>
<!-- Node11&#45;&gt;Node12 -->
<g id="edge14" class="edge">
<title>Node11&#45;&gt;Node12</title>
<path fill="none" stroke="midnightblue" d="M114,-174.54C114,-162.17 114,-146.62 114,-137.13"/>
<polygon fill="midnightblue" stroke="midnightblue" points="110.5,-174.73 114,-184.73 117.5,-174.73 110.5,-174.73"/>
</g>
<!-- Node13&#45;&gt;Node5 -->
<g id="edge18" class="edge">
<title>Node13&#45;&gt;Node5</title>
<path fill="none" stroke="midnightblue" d="M416.06,-179.6C397.25,-168.69 371.17,-153.55 352.28,-142.59"/>
<polygon fill="midnightblue" stroke="midnightblue" points="414.49,-182.74 424.9,-184.73 418,-176.69 414.49,-182.74"/>
</g>
<!-- Node14 -->
<g id="node14" class="node">
<title>Node14</title>
<g id="a_node14"><a xlink:href="pipe_8cpp.html" target="_top" xlink:title="Implementação das classes Pipe, PipePair e PipeList.">
<polygon fill="white" stroke="black" points="402.5,-118 402.5,-137 477.5,-137 477.5,-118 402.5,-118"/>
<text text-anchor="middle" x="440" y="-125" font-family="Helvetica,sans-Serif" font-size="10.00">src/pipe.cpp</text>
</a>
</g>
</g>
<!-- Node13&#45;&gt;Node14 -->
<g id="edge19" class="edge">
<title>Node13&#45;&gt;Node14</title>
<path fill="none" stroke="midnightblue" d="M440,-174.54C440,-162.17 440,-146.62 440,-137.13"/>
<polygon fill="midnightblue" stroke="midnightblue" points="436.5,-174.73 440,-184.73 443.5,-174.73 436.5,-174.73"/>
</g>
<!-- Node16&#45;&gt;Node1 -->
<g id="edge24" class="edge">
<title>Node16&#45;&gt;Node1</title>
<path fill="none" stroke="midnightblue" d="M567.57,-273.22C618.26,-284.76 694.52,-302.87 736.94,-313.48"/>
<polygon fill="midnightblue" stroke="midnightblue" points="568.32,-269.8 557.79,-271.01 566.77,-276.63 568.32,-269.8"/>
</g>
<!-- Node16&#45;&gt;Node5 -->
<g id="edge23" class="edge">
<title>Node16&#45;&gt;Node5</title>
<path fill="none" stroke="midnightblue" d="M517.71,-241.51C517.33,-223.18 513.84,-195.82 498,-179 489.82,-170.32 429.22,-153.63 382.68,-141.82"/>
<polygon fill="midnightblue" stroke="midnightblue" points="514.21,-241.54 517.62,-251.57 521.21,-241.6 514.21,-241.54"/>
</g>
<!-- Node16&#45;&gt;Node17 -->
<g id="edge25" class="edge">
<title>Node16&#45;&gt;Node17</title>
<path fill="none" stroke="midnightblue" d="M533.85,-244.86C547.61,-232.08 566.55,-214.49 577.71,-204.13"/>
<polygon fill="midnightblue" stroke="midnightblue" points="531.39,-242.36 526.44,-251.73 536.15,-247.49 531.39,-242.36"/>
</g>
<!-- Node18&#45;&gt;Node19 -->
<g id="edge27" class="edge">
<title>Node18&#45;&gt;Node19</title>
<path fill="none" stroke="midnightblue" d="M757.87,-236.99C753.92,-227.8 749.51,-217.58 746.06,-209.58"/>
<polygon fill="midnightblue" stroke="midnightblue" points="754.75,-238.6 761.92,-246.4 761.18,-235.83 754.75,-238.6"/>
</g>
<!-- Node18&#45;&gt;Node20 -->
<g id="edge28" class="edge">
<title>Node18&#45;&gt;Node20</title>
<path fill="none" stroke="midnightblue" d="M843.8,-245.92C959.78,-226.98 990.93,-227.78 1103,-210 1114.43,-208.19 1126.73,-206.07 1138.22,-204.02"/>
<polygon fill="midnightblue" stroke="midnightblue" points="843.11,-242.49 833.81,-247.57 844.25,-249.4 843.11,-242.49"/>
</g>
<!-- Node21&#45;&gt;Node20 -->
<g id="edge31" class="edge">
<title>Node21&#45;&gt;Node20</title>
<path fill="none" stroke="midnightblue" d="M1121.96,-240.31C1138.86,-228.1 1159.52,-213.18 1172.22,-204.01"/>
<polygon fill="midnightblue" stroke="midnightblue" points="1119.59,-237.7 1113.53,-246.4 1123.68,-243.38 1119.59,-237.7"/>
</g>
<!-- Node21&#45;&gt;Node22 -->
<g id="edge30" class="edge">
<title>Node21&#45;&gt;Node22</title>
<path fill="none" stroke="midnightblue" d="M1073.19,-239.02C1063.8,-229.34 1052.98,-218.17 1044.64,-209.58"/>
<polygon fill="midnightblue" stroke="midnightblue" points="1070.86,-241.65 1080.33,-246.4 1075.88,-236.78 1070.86,-241.65"/>
</g>
<!-- Node23&#45;&gt;Node7 -->
<g id="edge33" class="edge">
<title>Node23&#45;&gt;Node7</title>
<path fill="none" stroke="midnightblue" d="M1277.42,-236.41C1276.32,-219.76 1273.41,-197.39 1266,-179 1238.26,-110.19 1176.92,-42.81 1154.46,-19.55"/>
<polygon fill="midnightblue" stroke="midnightblue" points="1273.93,-236.61 1277.92,-246.43 1280.92,-236.27 1273.93,-236.61"/>
</g>
<!-- Node23&#45;&gt;Node20 -->
<g id="edge34" class="edge">
<title>Node23&#45;&gt;Node20</title>
<path fill="none" stroke="midnightblue" d="M1249.28,-240.64C1231.54,-228.37 1209.69,-213.26 1196.3,-204.01"/>
<polygon fill="midnightblue" stroke="midnightblue" points="1247.39,-243.59 1257.6,-246.4 1251.37,-237.83 1247.39,-243.59"/>
</g>
<!-- Node24&#45;&gt;Node3 -->
<g id="edge36" class="edge">
<title>Node24&#45;&gt;Node3</title>
<path fill="none" stroke="midnightblue" d="M886.31,-238.72C853.01,-204.92 787.81,-137.34 737,-76 720.89,-56.55 703.71,-32.32 694.92,-19.64"/>
<polygon fill="midnightblue" stroke="midnightblue" points="884.16,-241.52 893.68,-246.18 889.14,-236.6 884.16,-241.52"/>
</g>
<!-- Node24&#45;&gt;Node7 -->
<g id="edge39" class="edge">
<title>Node24&#45;&gt;Node7</title>
<path fill="none" stroke="midnightblue" d="M920.57,-237.27C930.27,-220.32 944.6,-197.21 960,-179 1018.17,-110.23 1103.88,-42.83 1134.56,-19.55"/>
<polygon fill="midnightblue" stroke="midnightblue" points="917.26,-236.03 915.42,-246.46 923.37,-239.45 917.26,-236.03"/>
</g>
<!-- Node24&#45;&gt;Node8 -->
<g id="edge41" class="edge">
<title>Node24&#45;&gt;Node8</title>
<path fill="none" stroke="midnightblue" d="M909.95,-236.41C912.14,-196.67 912.15,-115.81 883,-56 875.64,-40.9 861.16,-27.87 850.6,-19.77"/>
<polygon fill="midnightblue" stroke="midnightblue" points="906.45,-236.28 909.3,-246.48 913.44,-236.73 906.45,-236.28"/>
</g>
<!-- Node24&#45;&gt;Node19 -->
<g id="edge37" class="edge">
<title>Node24&#45;&gt;Node19</title>
<path fill="none" stroke="midnightblue" d="M861.95,-242.68C835,-232.26 801.46,-219.28 776.38,-209.58"/>
<polygon fill="midnightblue" stroke="midnightblue" points="860.96,-246.05 871.55,-246.4 863.48,-239.52 860.96,-246.05"/>
</g>
<!-- Node24&#45;&gt;Node20 -->
<g id="edge40" class="edge">
<title>Node24&#45;&gt;Node20</title>
<path fill="none" stroke="midnightblue" d="M974.43,-244.86C1028.85,-232.04 1103.81,-214.39 1147.76,-204.03"/>
<polygon fill="midnightblue" stroke="midnightblue" points="973.45,-241.49 964.52,-247.19 975.05,-248.3 973.45,-241.49"/>
</g>
<!-- Node24&#45;&gt;Node22 -->
<g id="edge38" class="edge">
<title>Node24&#45;&gt;Node22</title>
<path fill="none" stroke="midnightblue" d="M943.55,-241.71C962.95,-231.46 986.56,-218.98 1004.36,-209.58"/>
<polygon fill="midnightblue" stroke="midnightblue" points="941.9,-238.63 934.69,-246.4 945.17,-244.82 941.9,-238.63"/>
</g>
<!-- Node24&#45;&gt;Node25 -->
<g id="edge42" class="edge">
<title>Node24&#45;&gt;Node25</title>
<path fill="none" stroke="midnightblue" d="M974.89,-251.04C987.23,-249.33 1000,-247.59 1012,-246 1136.99,-229.44 1284.04,-211.31 1360.97,-201.93"/>
<polygon fill="midnightblue" stroke="midnightblue" points="974.08,-247.62 964.66,-252.46 975.04,-254.55 974.08,-247.62"/>
</g>
<!-- Node26&#45;&gt;Node20 -->
<g id="edge44" class="edge">
<title>Node26&#45;&gt;Node20</title>
<path fill="none" stroke="midnightblue" d="M1354.73,-243.75C1309.75,-231.04 1249.76,-214.09 1214.18,-204.03"/>
<polygon fill="midnightblue" stroke="midnightblue" points="1353.8,-247.12 1364.38,-246.48 1355.71,-240.39 1353.8,-247.12"/>
</g>
<!-- Node26&#45;&gt;Node25 -->
<g id="edge45" class="edge">
<title>Node26&#45;&gt;Node25</title>
<path fill="none" stroke="midnightblue" d="M1414,-236.11C1414,-227.15 1414,-217.32 1414,-209.58"/>
<polygon fill="midnightblue" stroke="midnightblue" points="1410.5,-236.4 1414,-246.4 1417.5,-236.4 1410.5,-236.4"/>
</g>
</g>
</svg>
