<?xml version="1.0" encoding="UTF-8" standalone="no"?>
<!DOCTYPE svg PUBLIC "-//W3C//DTD SVG 1.1//EN"
 "http://www.w3.org/Graphics/SVG/1.1/DTD/svg11.dtd">
<!-- Generated by graphviz version 2.43.0 (0)
 -->
<!-- Title: src/init.cpp Pages: 1 -->
<svg width="1392pt" height="319pt"
 viewBox="0.00 0.00 1392.00 319.00" xmlns="http://www.w3.org/2000/svg" xmlns:xlink="http://www.w3.org/1999/xlink">
<g id="graph0" class="graph" transform="scale(1 1) rotate(0) translate(4 315)">
<title>src/init.cpp</title>
<polygon fill="white" stroke="transparent" points="-4,4 -4,-315 1388,-315 1388,4 -4,4"/>
<!-- Node1 -->
<g id="node1" class="node">
<title>Node1</title>
<g id="a_node1"><a xlink:title="Inicialização de Allegro, fontes, addons e recursos globais.">
<polygon fill="#bfbfbf" stroke="black" points="600,-291.5 600,-310.5 670,-310.5 670,-291.5 600,-291.5"/>
<text text-anchor="middle" x="635" y="-298.5" font-family="Helvetica,sans-Serif" font-size="10.00">src/init.cpp</text>
</a>
</g>
</g>
<!-- Node2 -->
<g id="node2" class="node">
<title>Node2</title>
<g id="a_node2"><a xlink:href="init_8hpp.html" target="_top" xlink:title="Declara funções de inicialização e finalização do Allegro.">
<polygon fill="white" stroke="black" points="584.5,-235.5 584.5,-254.5 685.5,-254.5 685.5,-235.5 584.5,-235.5"/>
<text text-anchor="middle" x="635" y="-242.5" font-family="Helvetica,sans-Serif" font-size="10.00">../include/init.hpp</text>
</a>
</g>
</g>
<!-- Node1&#45;&gt;Node2 -->
<g id="edge1" class="edge">
<title>Node1&#45;&gt;Node2</title>
<path fill="none" stroke="midnightblue" d="M635,-291.08C635,-284.01 635,-273.86 635,-264.99"/>
<polygon fill="midnightblue" stroke="midnightblue" points="638.5,-264.75 635,-254.75 631.5,-264.75 638.5,-264.75"/>
</g>
<!-- Node21 -->
<g id="node21" class="node">
<title>Node21</title>
<g id="a_node21"><a xlink:href="assets_8hpp.html" target="_top" xlink:title="Declara classes utilitárias para carregar e usar imagens, sons e fontes no Allegro.">
<polygon fill="white" stroke="black" points="500.5,-67.5 500.5,-86.5 569.5,-86.5 569.5,-67.5 500.5,-67.5"/>
<text text-anchor="middle" x="535" y="-74.5" font-family="Helvetica,sans-Serif" font-size="10.00">assets.hpp</text>
</a>
</g>
</g>
<!-- Node1&#45;&gt;Node21 -->
<g id="edge45" class="edge">
<title>Node1&#45;&gt;Node21</title>
<path fill="none" stroke="midnightblue" d="M599.86,-298.63C494.36,-293.72 183.91,-273.1 123,-199 74,-139.39 373.63,-97.07 490.11,-83.05"/>
<polygon fill="midnightblue" stroke="midnightblue" points="490.63,-86.51 500.15,-81.86 489.8,-79.56 490.63,-86.51"/>
</g>
<!-- Node28 -->
<g id="node28" class="node">
<title>Node28</title>
<g id="a_node28"><a xlink:title=" ">
<polygon fill="white" stroke="#bfbfbf" points="703.5,-235.5 703.5,-254.5 820.5,-254.5 820.5,-235.5 703.5,-235.5"/>
<text text-anchor="middle" x="762" y="-242.5" font-family="Helvetica,sans-Serif" font-size="10.00">allegro5/bitmap_io.h</text>
</a>
</g>
</g>
<!-- Node1&#45;&gt;Node28 -->
<g id="edge44" class="edge">
<title>Node1&#45;&gt;Node28</title>
<path fill="none" stroke="midnightblue" d="M655.12,-291.44C676.02,-282.56 708.93,-268.56 732.72,-258.45"/>
<polygon fill="midnightblue" stroke="midnightblue" points="734.14,-261.65 741.97,-254.52 731.4,-255.21 734.14,-261.65"/>
</g>
<!-- Node3 -->
<g id="node3" class="node">
<title>Node3</title>
<g id="a_node3"><a xlink:title=" ">
<polygon fill="white" stroke="#bfbfbf" points="1212.5,-179.5 1212.5,-198.5 1263.5,-198.5 1263.5,-179.5 1212.5,-179.5"/>
<text text-anchor="middle" x="1238" y="-186.5" font-family="Helvetica,sans-Serif" font-size="10.00">math.h</text>
</a>
</g>
</g>
<!-- Node2&#45;&gt;Node3 -->
<g id="edge2" class="edge">
<title>Node2&#45;&gt;Node3</title>
<path fill="none" stroke="midnightblue" d="M685.7,-236.11C688.85,-235.71 691.96,-235.33 695,-235 916.68,-210.56 977.81,-234.61 1202.37,-198.76"/>
<polygon fill="midnightblue" stroke="midnightblue" points="1203.19,-202.18 1212.5,-197.13 1202.07,-195.27 1203.19,-202.18"/>
</g>
<!-- Node4 -->
<g id="node4" class="node">
<title>Node4</title>
<g id="a_node4"><a xlink:title=" ">
<polygon fill="white" stroke="#bfbfbf" points="1320,-179.5 1320,-198.5 1384,-198.5 1384,-179.5 1320,-179.5"/>
<text text-anchor="middle" x="1352" y="-186.5" font-family="Helvetica,sans-Serif" font-size="10.00">algorithm</text>
</a>
</g>
</g>
<!-- Node2&#45;&gt;Node4 -->
<g id="edge3" class="edge">
<title>Node2&#45;&gt;Node4</title>
<path fill="none" stroke="midnightblue" d="M685.7,-236.07C688.84,-235.68 691.96,-235.32 695,-235 965.56,-206.8 1036.13,-233.19 1306,-199 1307.27,-198.84 1308.56,-198.66 1309.86,-198.48"/>
<polygon fill="midnightblue" stroke="midnightblue" points="1310.61,-201.9 1319.92,-196.85 1309.49,-194.99 1310.61,-201.9"/>
</g>
<!-- Node5 -->
<g id="node5" class="node">
<title>Node5</title>
<g id="a_node5"><a xlink:title=" ">
<polygon fill="white" stroke="#bfbfbf" points="132.5,-179.5 132.5,-198.5 187.5,-198.5 187.5,-179.5 132.5,-179.5"/>
<text text-anchor="middle" x="160" y="-186.5" font-family="Helvetica,sans-Serif" font-size="10.00">fstream</text>
</a>
</g>
</g>
<!-- Node2&#45;&gt;Node5 -->
<g id="edge4" class="edge">
<title>Node2&#45;&gt;Node5</title>
<path fill="none" stroke="midnightblue" d="M584.44,-240.52C503.39,-234.54 339.53,-220.82 202,-199 200.72,-198.8 199.41,-198.58 198.1,-198.35"/>
<polygon fill="midnightblue" stroke="midnightblue" points="198.41,-194.85 187.94,-196.42 197.11,-201.72 198.41,-194.85"/>
</g>
<!-- Node6 -->
<g id="node6" class="node">
<title>Node6</title>
<g id="a_node6"><a xlink:title=" ">
<polygon fill="white" stroke="#bfbfbf" points="0,-6 0,-25 60,-25 60,-6 0,-6"/>
<text text-anchor="middle" x="30" y="-13" font-family="Helvetica,sans-Serif" font-size="10.00">iostream</text>
</a>
</g>
</g>
<!-- Node2&#45;&gt;Node6 -->
<g id="edge5" class="edge">
<title>Node2&#45;&gt;Node6</title>
<path fill="none" stroke="midnightblue" d="M584.43,-242.32C462.71,-237.88 160.68,-224.42 123,-199 65.3,-160.06 41.46,-73.97 33.44,-35.6"/>
<polygon fill="midnightblue" stroke="midnightblue" points="36.79,-34.47 31.44,-25.33 29.92,-35.81 36.79,-34.47"/>
</g>
<!-- Node7 -->
<g id="node7" class="node">
<title>Node7</title>
<g id="a_node7"><a xlink:title=" ">
<polygon fill="white" stroke="#bfbfbf" points="244,-179.5 244,-198.5 276,-198.5 276,-179.5 244,-179.5"/>
<text text-anchor="middle" x="260" y="-186.5" font-family="Helvetica,sans-Serif" font-size="10.00">list</text>
</a>
</g>
</g>
<!-- Node2&#45;&gt;Node7 -->
<g id="edge6" class="edge">
<title>Node2&#45;&gt;Node7</title>
<path fill="none" stroke="midnightblue" d="M584.24,-240.95C517.59,-236.18 397,-224.93 286.25,-198.83"/>
<polygon fill="midnightblue" stroke="midnightblue" points="286.79,-195.36 276.25,-196.43 285.16,-202.17 286.79,-195.36"/>
</g>
<!-- Node8 -->
<g id="node8" class="node">
<title>Node8</title>
<g id="a_node8"><a xlink:title=" ">
<polygon fill="white" stroke="#bfbfbf" points="294,-179.5 294,-198.5 332,-198.5 332,-179.5 294,-179.5"/>
<text text-anchor="middle" x="313" y="-186.5" font-family="Helvetica,sans-Serif" font-size="10.00">map</text>
</a>
</g>
</g>
<!-- Node2&#45;&gt;Node8 -->
<g id="edge7" class="edge">
<title>Node2&#45;&gt;Node8</title>
<path fill="none" stroke="midnightblue" d="M584.31,-237.85C526.35,-230.42 428.81,-216.68 346,-199 344.73,-198.73 343.43,-198.44 342.12,-198.13"/>
<polygon fill="midnightblue" stroke="midnightblue" points="342.66,-194.66 332.11,-195.6 340.94,-201.44 342.66,-194.66"/>
</g>
<!-- Node9 -->
<g id="node9" class="node">
<title>Node9</title>
<g id="a_node9"><a xlink:title=" ">
<polygon fill="white" stroke="#bfbfbf" points="78,-6 78,-25 136,-25 136,-6 78,-6"/>
<text text-anchor="middle" x="107" y="-13" font-family="Helvetica,sans-Serif" font-size="10.00">memory</text>
</a>
</g>
</g>
<!-- Node2&#45;&gt;Node9 -->
<g id="edge8" class="edge">
<title>Node2&#45;&gt;Node9</title>
<path fill="none" stroke="midnightblue" d="M584.42,-243.41C490.38,-241.5 292.92,-233.37 235,-199 169.57,-160.17 129.15,-73.35 113.91,-35.15"/>
<polygon fill="midnightblue" stroke="midnightblue" points="117,-33.42 110.13,-25.35 110.46,-35.94 117,-33.42"/>
</g>
<!-- Node10 -->
<g id="node10" class="node">
<title>Node10</title>
<g id="a_node10"><a xlink:title=" ">
<polygon fill="white" stroke="#bfbfbf" points="388,-179.5 388,-198.5 444,-198.5 444,-179.5 388,-179.5"/>
<text text-anchor="middle" x="416" y="-186.5" font-family="Helvetica,sans-Serif" font-size="10.00">sstream</text>
</a>
</g>
</g>
<!-- Node2&#45;&gt;Node10 -->
<g id="edge9" class="edge">
<title>Node2&#45;&gt;Node10</title>
<path fill="none" stroke="midnightblue" d="M600.3,-235.44C560.49,-225.63 495.43,-209.59 454.21,-199.42"/>
<polygon fill="midnightblue" stroke="midnightblue" points="454.82,-195.97 444.27,-196.97 453.14,-202.76 454.82,-195.97"/>
</g>
<!-- Node11 -->
<g id="node11" class="node">
<title>Node11</title>
<g id="a_node11"><a xlink:title=" ">
<polygon fill="white" stroke="#bfbfbf" points="1202,-6 1202,-25 1246,-25 1246,-6 1202,-6"/>
<text text-anchor="middle" x="1224" y="-13" font-family="Helvetica,sans-Serif" font-size="10.00">string</text>
</a>
</g>
</g>
<!-- Node2&#45;&gt;Node11 -->
<g id="edge10" class="edge">
<title>Node2&#45;&gt;Node11</title>
<path fill="none" stroke="midnightblue" d="M666.39,-235.47C696.74,-227 743.9,-213.25 784,-199 969.17,-133.18 1013.06,-109.99 1193,-31 1194.19,-30.48 1195.41,-29.94 1196.64,-29.38"/>
<polygon fill="midnightblue" stroke="midnightblue" points="1198.4,-32.43 1206.03,-25.08 1195.49,-26.06 1198.4,-32.43"/>
</g>
<!-- Node12 -->
<g id="node12" class="node">
<title>Node12</title>
<g id="a_node12"><a xlink:title=" ">
<polygon fill="white" stroke="#bfbfbf" points="906,-6 906,-25 1008,-25 1008,-6 906,-6"/>
<text text-anchor="middle" x="957" y="-13" font-family="Helvetica,sans-Serif" font-size="10.00">allegro5/allegro.h</text>
</a>
</g>
</g>
<!-- Node2&#45;&gt;Node12 -->
<g id="edge11" class="edge">
<title>Node2&#45;&gt;Node12</title>
<path fill="none" stroke="midnightblue" d="M685.73,-236.34C688.87,-235.88 691.98,-235.43 695,-235 754.05,-226.58 921.75,-243.92 961,-199 1001.63,-152.5 978.1,-71.06 964.53,-34.81"/>
<polygon fill="midnightblue" stroke="midnightblue" points="967.63,-33.13 960.72,-25.1 961.12,-35.68 967.63,-33.13"/>
</g>
<!-- Node13 -->
<g id="node13" class="node">
<title>Node13</title>
<g id="a_node13"><a xlink:title=" ">
<polygon fill="white" stroke="#bfbfbf" points="154,-6 154,-25 296,-25 296,-6 154,-6"/>
<text text-anchor="middle" x="225" y="-13" font-family="Helvetica,sans-Serif" font-size="10.00">allegro5/allegro_acodec.h</text>
</a>
</g>
</g>
<!-- Node2&#45;&gt;Node13 -->
<g id="edge12" class="edge">
<title>Node2&#45;&gt;Node13</title>
<path fill="none" stroke="midnightblue" d="M584.34,-239.22C519.98,-232.45 413.18,-218.66 379,-199 308.05,-158.19 254.94,-71.78 234.35,-34.38"/>
<polygon fill="midnightblue" stroke="midnightblue" points="237.24,-32.35 229.42,-25.2 231.07,-35.67 237.24,-32.35"/>
</g>
<!-- Node14 -->
<g id="node14" class="node">
<title>Node14</title>
<g id="a_node14"><a xlink:title=" ">
<polygon fill="white" stroke="#bfbfbf" points="314,-6 314,-25 448,-25 448,-6 314,-6"/>
<text text-anchor="middle" x="381" y="-13" font-family="Helvetica,sans-Serif" font-size="10.00">allegro5/allegro_audio.h</text>
</a>
</g>
</g>
<!-- Node2&#45;&gt;Node14 -->
<g id="edge13" class="edge">
<title>Node2&#45;&gt;Node14</title>
<path fill="none" stroke="midnightblue" d="M606.74,-235.48C585.16,-228.09 555.41,-215.89 533,-199 468.59,-150.45 413.87,-69.54 391.63,-34.07"/>
<polygon fill="midnightblue" stroke="midnightblue" points="394.47,-32.01 386.24,-25.34 388.51,-35.68 394.47,-32.01"/>
</g>
<!-- Node15 -->
<g id="node15" class="node">
<title>Node15</title>
<g id="a_node15"><a xlink:title=" ">
<polygon fill="white" stroke="#bfbfbf" points="466,-6 466,-25 604,-25 604,-6 466,-6"/>
<text text-anchor="middle" x="535" y="-13" font-family="Helvetica,sans-Serif" font-size="10.00">allegro5/allegro_image.h</text>
</a>
</g>
</g>
<!-- Node2&#45;&gt;Node15 -->
<g id="edge14" class="edge">
<title>Node2&#45;&gt;Node15</title>
<path fill="none" stroke="midnightblue" d="M613.19,-235.36C596.08,-227.75 572.47,-215.34 556,-199 515.14,-158.47 505.96,-142.58 491,-87 488.69,-78.42 487.88,-75.32 491,-67 496.1,-53.39 506.71,-41.03 516.23,-31.94"/>
<polygon fill="midnightblue" stroke="midnightblue" points="518.72,-34.41 523.83,-25.13 514.05,-29.2 518.72,-34.41"/>
</g>
<!-- Node16 -->
<g id="node16" class="node">
<title>Node16</title>
<g id="a_node16"><a xlink:title=" ">
<polygon fill="white" stroke="#bfbfbf" points="622.5,-0.5 622.5,-30.5 751.5,-30.5 751.5,-0.5 622.5,-0.5"/>
<text text-anchor="start" x="630.5" y="-18.5" font-family="Helvetica,sans-Serif" font-size="10.00">allegro5/allegro_native</text>
<text text-anchor="middle" x="687" y="-7.5" font-family="Helvetica,sans-Serif" font-size="10.00">_dialog.h</text>
</a>
</g>
</g>
<!-- Node2&#45;&gt;Node16 -->
<g id="edge15" class="edge">
<title>Node2&#45;&gt;Node16</title>
<path fill="none" stroke="midnightblue" d="M626.79,-235.18C619.46,-226.66 609.24,-213.02 605,-199 602.42,-190.49 602.94,-187.65 605,-179 617.73,-125.51 651.04,-69.66 671.07,-39.37"/>
<polygon fill="midnightblue" stroke="midnightblue" points="674.14,-41.07 676.82,-30.82 668.33,-37.17 674.14,-41.07"/>
</g>
<!-- Node17 -->
<g id="node17" class="node">
<title>Node17</title>
<g id="a_node17"><a xlink:title=" ">
<polygon fill="white" stroke="#bfbfbf" points="614,-179.5 614,-198.5 754,-198.5 754,-179.5 614,-179.5"/>
<text text-anchor="middle" x="684" y="-186.5" font-family="Helvetica,sans-Serif" font-size="10.00">allegro5/allegro_physfs.h</text>
</a>
</g>
</g>
<!-- Node2&#45;&gt;Node17 -->
<g id="edge16" class="edge">
<title>Node2&#45;&gt;Node17</title>
<path fill="none" stroke="midnightblue" d="M643.09,-235.08C650.16,-227.3 660.59,-215.8 669.15,-206.37"/>
<polygon fill="midnightblue" stroke="midnightblue" points="671.93,-208.51 676.06,-198.75 666.75,-203.8 671.93,-208.51"/>
</g>
<!-- Node18 -->
<g id="node18" class="node">
<title>Node18</title>
<g id="a_node18"><a xlink:title=" ">
<polygon fill="white" stroke="#bfbfbf" points="1026.5,-6 1026.5,-25 1183.5,-25 1183.5,-6 1026.5,-6"/>
<text text-anchor="middle" x="1105" y="-13" font-family="Helvetica,sans-Serif" font-size="10.00">allegro5/allegro_primitives.h</text>
</a>
</g>
</g>
<!-- Node2&#45;&gt;Node18 -->
<g id="edge17" class="edge">
<title>Node2&#45;&gt;Node18</title>
<path fill="none" stroke="midnightblue" d="M685.73,-236.3C688.86,-235.86 691.97,-235.42 695,-235 758.46,-226.25 926.38,-232.46 981,-199 1045.22,-159.66 1083.93,-73.12 1098.44,-35.07"/>
<polygon fill="midnightblue" stroke="midnightblue" points="1101.86,-35.9 1102.03,-25.31 1095.29,-33.49 1101.86,-35.9"/>
</g>
<!-- Node19 -->
<g id="node19" class="node">
<title>Node19</title>
<g id="a_node19"><a xlink:title=" ">
<polygon fill="white" stroke="#bfbfbf" points="770,-6 770,-25 888,-25 888,-6 770,-6"/>
<text text-anchor="middle" x="829" y="-13" font-family="Helvetica,sans-Serif" font-size="10.00">allegro5/allegro_ttf.h</text>
</a>
</g>
</g>
<!-- Node2&#45;&gt;Node19 -->
<g id="edge18" class="edge">
<title>Node2&#45;&gt;Node19</title>
<path fill="none" stroke="midnightblue" d="M685.72,-237.11C711.92,-231.1 742.59,-219.89 763,-199 806.12,-154.87 783.62,-124.5 806,-67 810.26,-56.06 815.68,-44.08 820.19,-34.54"/>
<polygon fill="midnightblue" stroke="midnightblue" points="823.45,-35.84 824.62,-25.31 817.14,-32.81 823.45,-35.84"/>
</g>
<!-- Node20 -->
<g id="node20" class="node">
<title>Node20</title>
<g id="a_node20"><a xlink:title=" ">
<polygon fill="white" stroke="#bfbfbf" points="848.5,-179.5 848.5,-198.5 951.5,-198.5 951.5,-179.5 848.5,-179.5"/>
<text text-anchor="middle" x="900" y="-186.5" font-family="Helvetica,sans-Serif" font-size="10.00">allegro5/bitmap.h</text>
</a>
</g>
</g>
<!-- Node2&#45;&gt;Node20 -->
<g id="edge19" class="edge">
<title>Node2&#45;&gt;Node20</title>
<path fill="none" stroke="midnightblue" d="M676.99,-235.44C723.41,-225.98 798.23,-210.74 848.24,-200.55"/>
<polygon fill="midnightblue" stroke="midnightblue" points="849.11,-203.94 858.21,-198.52 847.71,-197.08 849.11,-203.94"/>
</g>
<!-- Node2&#45;&gt;Node21 -->
<g id="edge20" class="edge">
<title>Node2&#45;&gt;Node21</title>
<path fill="none" stroke="midnightblue" d="M617.03,-235.35C602.86,-227.67 583.62,-215.15 572,-199 549.42,-167.61 540.4,-122.17 536.96,-96.85"/>
<polygon fill="midnightblue" stroke="midnightblue" points="540.42,-96.27 535.75,-86.76 533.47,-97.1 540.42,-96.27"/>
</g>
<!-- Node22 -->
<g id="node22" class="node">
<title>Node22</title>
<g id="a_node22"><a xlink:href="defines_8hpp.html" target="_top" xlink:title="Constantes globais, macros e estruturas auxiliares do jogo.">
<polygon fill="white" stroke="black" points="1198.5,-67.5 1198.5,-86.5 1271.5,-86.5 1271.5,-67.5 1198.5,-67.5"/>
<text text-anchor="middle" x="1235" y="-74.5" font-family="Helvetica,sans-Serif" font-size="10.00">defines.hpp</text>
</a>
</g>
</g>
<!-- Node2&#45;&gt;Node22 -->
<g id="edge31" class="edge">
<title>Node2&#45;&gt;Node22</title>
<path fill="none" stroke="midnightblue" d="M685.7,-236.08C688.84,-235.69 691.96,-235.32 695,-235 758.99,-228.22 1228.94,-245.89 1273,-199 1300.65,-169.57 1269.19,-120.22 1249.11,-94.58"/>
<polygon fill="midnightblue" stroke="midnightblue" points="1251.63,-92.13 1242.6,-86.58 1246.2,-96.54 1251.63,-92.13"/>
</g>
<!-- Node25 -->
<g id="node25" class="node">
<title>Node25</title>
<g id="a_node25"><a xlink:href="player_8hpp.html" target="_top" xlink:title="Modela um jogador e operações de ranking.">
<polygon fill="white" stroke="black" points="1046,-179.5 1046,-198.5 1114,-198.5 1114,-179.5 1046,-179.5"/>
<text text-anchor="middle" x="1080" y="-186.5" font-family="Helvetica,sans-Serif" font-size="10.00">player.hpp</text>
</a>
</g>
</g>
<!-- Node2&#45;&gt;Node25 -->
<g id="edge35" class="edge">
<title>Node2&#45;&gt;Node25</title>
<path fill="none" stroke="midnightblue" d="M682.2,-235.5C683.48,-235.33 684.75,-235.16 686,-235 835.4,-215.82 873.97,-220.9 1023,-199 1027.11,-198.4 1031.39,-197.7 1035.71,-196.96"/>
<polygon fill="midnightblue" stroke="midnightblue" points="1036.52,-200.37 1045.76,-195.19 1035.3,-193.47 1036.52,-200.37"/>
</g>
<!-- Node26 -->
<g id="node26" class="node">
<title>Node26</title>
<g id="a_node26"><a xlink:href="state_8hpp.html" target="_top" xlink:title="Interface base para estados da máquina de estados do jogo.">
<polygon fill="white" stroke="black" points="1132,-179.5 1132,-198.5 1194,-198.5 1194,-179.5 1132,-179.5"/>
<text text-anchor="middle" x="1163" y="-186.5" font-family="Helvetica,sans-Serif" font-size="10.00">state.hpp</text>
</a>
</g>
</g>
<!-- Node2&#45;&gt;Node26 -->
<g id="edge37" class="edge">
<title>Node2&#45;&gt;Node26</title>
<path fill="none" stroke="midnightblue" d="M685.71,-236.16C688.85,-235.74 691.97,-235.35 695,-235 881.36,-213.21 932.58,-227.51 1121.65,-199.01"/>
<polygon fill="midnightblue" stroke="midnightblue" points="1122.28,-202.46 1131.63,-197.49 1121.22,-195.54 1122.28,-202.46"/>
</g>
<!-- Node21&#45;&gt;Node6 -->
<g id="edge21" class="edge">
<title>Node21&#45;&gt;Node6</title>
<path fill="none" stroke="midnightblue" d="M500.31,-75.71C422.24,-74.39 227.22,-67.4 69,-31 65.93,-30.29 62.78,-29.41 59.65,-28.42"/>
<polygon fill="midnightblue" stroke="midnightblue" points="60.53,-25.02 49.94,-25.05 58.23,-31.63 60.53,-25.02"/>
</g>
<!-- Node21&#45;&gt;Node9 -->
<g id="edge22" class="edge">
<title>Node21&#45;&gt;Node9</title>
<path fill="none" stroke="midnightblue" d="M500.32,-74.89C431.59,-72.07 273.61,-62.43 145,-31 142.17,-30.31 139.27,-29.46 136.38,-28.53"/>
<polygon fill="midnightblue" stroke="midnightblue" points="137.41,-25.18 126.82,-25.13 135.07,-31.78 137.41,-25.18"/>
</g>
<!-- Node21&#45;&gt;Node11 -->
<g id="edge23" class="edge">
<title>Node21&#45;&gt;Node11</title>
<path fill="none" stroke="midnightblue" d="M569.76,-74.37C696.91,-68.32 1132.51,-46.63 1193,-31 1194.98,-30.49 1197,-29.85 1198.99,-29.13"/>
<polygon fill="midnightblue" stroke="midnightblue" points="1200.8,-32.16 1208.65,-25.04 1198.08,-25.72 1200.8,-32.16"/>
</g>
<!-- Node21&#45;&gt;Node12 -->
<g id="edge24" class="edge">
<title>Node21&#45;&gt;Node12</title>
<path fill="none" stroke="midnightblue" d="M569.64,-73.01C634.31,-67.15 777.69,-52.76 897,-31 902.81,-29.94 908.9,-28.67 914.87,-27.32"/>
<polygon fill="midnightblue" stroke="midnightblue" points="915.82,-30.69 924.76,-25 914.22,-23.87 915.82,-30.69"/>
</g>
<!-- Node21&#45;&gt;Node13 -->
<g id="edge25" class="edge">
<title>Node21&#45;&gt;Node13</title>
<path fill="none" stroke="midnightblue" d="M500.34,-69.35C446.65,-59.04 342.94,-39.14 279.26,-26.91"/>
<polygon fill="midnightblue" stroke="midnightblue" points="279.87,-23.47 269.39,-25.02 278.55,-30.34 279.87,-23.47"/>
</g>
<!-- Node21&#45;&gt;Node14 -->
<g id="edge26" class="edge">
<title>Node21&#45;&gt;Node14</title>
<path fill="none" stroke="midnightblue" d="M512.94,-67.48C486.63,-57.31 442.49,-40.26 412.58,-28.7"/>
<polygon fill="midnightblue" stroke="midnightblue" points="413.61,-25.35 403.02,-25.01 411.09,-31.88 413.61,-25.35"/>
</g>
<!-- Node21&#45;&gt;Node15 -->
<g id="edge27" class="edge">
<title>Node21&#45;&gt;Node15</title>
<path fill="none" stroke="midnightblue" d="M535,-67.48C535,-59.08 535,-45.98 535,-35.16"/>
<polygon fill="midnightblue" stroke="midnightblue" points="538.5,-35.01 535,-25.01 531.5,-35.01 538.5,-35.01"/>
</g>
<!-- Node21&#45;&gt;Node16 -->
<g id="edge28" class="edge">
<title>Node21&#45;&gt;Node16</title>
<path fill="none" stroke="midnightblue" d="M556.78,-67.48C578.81,-58.85 613.52,-45.26 641.57,-34.29"/>
<polygon fill="midnightblue" stroke="midnightblue" points="643.14,-37.43 651.18,-30.52 640.59,-30.91 643.14,-37.43"/>
</g>
<!-- Node21&#45;&gt;Node18 -->
<g id="edge29" class="edge">
<title>Node21&#45;&gt;Node18</title>
<path fill="none" stroke="midnightblue" d="M569.58,-73.61C648.87,-67.94 849.87,-52.54 1017,-31 1026.79,-29.74 1037.16,-28.21 1047.22,-26.62"/>
<polygon fill="midnightblue" stroke="midnightblue" points="1047.82,-30.06 1057.13,-25.01 1046.7,-23.15 1047.82,-30.06"/>
</g>
<!-- Node21&#45;&gt;Node19 -->
<g id="edge30" class="edge">
<title>Node21&#45;&gt;Node19</title>
<path fill="none" stroke="midnightblue" d="M569.87,-69.21C614.29,-60.52 693.41,-44.93 761,-31 766.91,-29.78 773.1,-28.49 779.24,-27.19"/>
<polygon fill="midnightblue" stroke="midnightblue" points="780.41,-30.52 789.47,-25.02 778.96,-23.67 780.41,-30.52"/>
</g>
<!-- Node22&#45;&gt;Node11 -->
<g id="edge33" class="edge">
<title>Node22&#45;&gt;Node11</title>
<path fill="none" stroke="midnightblue" d="M1233.42,-67.48C1231.87,-59.08 1229.45,-45.98 1227.45,-35.16"/>
<polygon fill="midnightblue" stroke="midnightblue" points="1230.83,-34.21 1225.57,-25.01 1223.95,-35.48 1230.83,-34.21"/>
</g>
<!-- Node23 -->
<g id="node23" class="node">
<title>Node23</title>
<g id="a_node23"><a xlink:title=" ">
<polygon fill="white" stroke="#bfbfbf" points="1264.5,-6 1264.5,-25 1311.5,-25 1311.5,-6 1264.5,-6"/>
<text text-anchor="middle" x="1288" y="-13" font-family="Helvetica,sans-Serif" font-size="10.00">cmath</text>
</a>
</g>
</g>
<!-- Node22&#45;&gt;Node23 -->
<g id="edge32" class="edge">
<title>Node22&#45;&gt;Node23</title>
<path fill="none" stroke="midnightblue" d="M1242.59,-67.48C1250.7,-58.37 1263.73,-43.74 1273.76,-32.48"/>
<polygon fill="midnightblue" stroke="midnightblue" points="1276.38,-34.8 1280.42,-25.01 1271.16,-30.15 1276.38,-34.8"/>
</g>
<!-- Node24 -->
<g id="node24" class="node">
<title>Node24</title>
<g id="a_node24"><a xlink:title=" ">
<polygon fill="white" stroke="#bfbfbf" points="1329.5,-6 1329.5,-25 1376.5,-25 1376.5,-6 1329.5,-6"/>
<text text-anchor="middle" x="1353" y="-13" font-family="Helvetica,sans-Serif" font-size="10.00">vector</text>
</a>
</g>
</g>
<!-- Node22&#45;&gt;Node24 -->
<g id="edge34" class="edge">
<title>Node22&#45;&gt;Node24</title>
<path fill="none" stroke="midnightblue" d="M1251.91,-67.48C1271.53,-57.58 1304.13,-41.14 1326.99,-29.62"/>
<polygon fill="midnightblue" stroke="midnightblue" points="1328.77,-32.64 1336.12,-25.01 1325.62,-26.39 1328.77,-32.64"/>
</g>
<!-- Node25&#45;&gt;Node2 -->
<g id="edge36" class="edge">
<title>Node25&#45;&gt;Node2</title>
<path fill="none" stroke="midnightblue" d="M1045.85,-198.26C1044.22,-198.52 1042.59,-198.77 1041,-199 891.97,-220.9 853.4,-215.82 704,-235 701.21,-235.36 698.35,-235.74 695.45,-236.14"/>
<polygon fill="midnightblue" stroke="midnightblue" points="694.93,-232.67 685.51,-237.53 695.89,-239.61 694.93,-232.67"/>
</g>
<!-- Node26&#45;&gt;Node12 -->
<g id="edge38" class="edge">
<title>Node26&#45;&gt;Node12</title>
<path fill="none" stroke="midnightblue" d="M1147.24,-179.36C1132.25,-170.87 1109.32,-157.15 1091,-143 1044.59,-107.16 995.95,-57.8 972.06,-32.65"/>
<polygon fill="midnightblue" stroke="midnightblue" points="974.35,-29.98 964.95,-25.1 969.26,-34.78 974.35,-29.98"/>
</g>
<!-- Node26&#45;&gt;Node22 -->
<g id="edge39" class="edge">
<title>Node26&#45;&gt;Node22</title>
<path fill="none" stroke="midnightblue" d="M1168.65,-179.37C1180.53,-161.22 1208.29,-118.8 1223.88,-94.99"/>
<polygon fill="midnightblue" stroke="midnightblue" points="1226.83,-96.88 1229.38,-86.59 1220.97,-93.04 1226.83,-96.88"/>
</g>
<!-- Node27 -->
<g id="node27" class="node">
<title>Node27</title>
<g id="a_node27"><a xlink:href="motion_8hpp.html" target="_top" xlink:title="Gerencia efeitos de parallax e animações de cenário.">
<polygon fill="white" stroke="black" points="1100,-123.5 1100,-142.5 1172,-142.5 1172,-123.5 1100,-123.5"/>
<text text-anchor="middle" x="1136" y="-130.5" font-family="Helvetica,sans-Serif" font-size="10.00">motion.hpp</text>
</a>
</g>
</g>
<!-- Node26&#45;&gt;Node27 -->
<g id="edge40" class="edge">
<title>Node26&#45;&gt;Node27</title>
<path fill="none" stroke="midnightblue" d="M1158.54,-179.08C1154.85,-171.69 1149.48,-160.95 1144.91,-151.81"/>
<polygon fill="midnightblue" stroke="midnightblue" points="1147.98,-150.13 1140.38,-142.75 1141.72,-153.26 1147.98,-150.13"/>
</g>
<!-- Node27&#45;&gt;Node18 -->
<g id="edge41" class="edge">
<title>Node27&#45;&gt;Node18</title>
<path fill="none" stroke="midnightblue" d="M1133.67,-123.32C1128.67,-104.67 1116.79,-60.44 1110,-35.13"/>
<polygon fill="midnightblue" stroke="midnightblue" points="1113.33,-34.03 1107.36,-25.28 1106.57,-35.85 1113.33,-34.03"/>
</g>
<!-- Node27&#45;&gt;Node21 -->
<g id="edge42" class="edge">
<title>Node27&#45;&gt;Node21</title>
<path fill="none" stroke="midnightblue" d="M1099.76,-128.74C995.41,-119.37 694.45,-92.33 579.95,-82.04"/>
<polygon fill="midnightblue" stroke="midnightblue" points="580.05,-78.53 569.78,-81.12 579.43,-85.51 580.05,-78.53"/>
</g>
<!-- Node27&#45;&gt;Node22 -->
<g id="edge43" class="edge">
<title>Node27&#45;&gt;Node22</title>
<path fill="none" stroke="midnightblue" d="M1151.91,-123.32C1167.64,-114.74 1191.94,-101.49 1210.21,-91.52"/>
<polygon fill="midnightblue" stroke="midnightblue" points="1212.03,-94.52 1219.13,-86.65 1208.68,-88.37 1212.03,-94.52"/>
</g>
</g>
</svg>
