<?xml version="1.0" encoding="UTF-8" standalone="no"?>
<!DOCTYPE svg PUBLIC "-//W3C//DTD SVG 1.1//EN"
 "http://www.w3.org/Graphics/SVG/1.1/DTD/svg11.dtd">
<!-- Generated by graphviz version 2.43.0 (0)
 -->
<!-- Title: init Pages: 1 -->
<svg width="177pt" height="66pt"
 viewBox="0.00 0.00 177.00 66.00" xmlns="http://www.w3.org/2000/svg" xmlns:xlink="http://www.w3.org/1999/xlink">
<g id="graph0" class="graph" transform="scale(1 1) rotate(0) translate(4 62)">
<title>init</title>
<polygon fill="white" stroke="transparent" points="-4,4 -4,-62 173,-62 173,4 -4,4"/>
<!-- Node1 -->
<g id="node1" class="node">
<title>Node1</title>
<g id="a_node1"><a xlink:title="Inicializa Allegro, janela, áudio e recursos globais.">
<polygon fill="#bfbfbf" stroke="black" points="0,-19.5 0,-38.5 32,-38.5 32,-19.5 0,-19.5"/>
<text text-anchor="middle" x="16" y="-26.5" font-family="Helvetica,sans-Serif" font-size="10.00">init</text>
</a>
</g>
</g>
<!-- Node2 -->
<g id="node2" class="node">
<title>Node2</title>
<g id="a_node2"><a xlink:href="assets_8hpp.html#aaccab0735d858c388c02f026c7641c08" target="_top" xlink:title="Carrega recursos globais utilizados em múltiplas cenas.">
<polygon fill="white" stroke="black" points="68,-38.5 68,-57.5 169,-57.5 169,-38.5 68,-38.5"/>
<text text-anchor="middle" x="118.5" y="-45.5" font-family="Helvetica,sans-Serif" font-size="10.00">loadGlobalAssets</text>
</a>
</g>
</g>
<!-- Node1&#45;&gt;Node2 -->
<g id="edge1" class="edge">
<title>Node1&#45;&gt;Node2</title>
<path fill="none" stroke="midnightblue" d="M32.26,-31.89C39.36,-33.23 48.29,-34.92 57.69,-36.69"/>
<polygon fill="midnightblue" stroke="midnightblue" points="57.12,-40.15 67.6,-38.57 58.42,-33.27 57.12,-40.15"/>
</g>
<!-- Node3 -->
<g id="node3" class="node">
<title>Node3</title>
<g id="a_node3"><a xlink:href="classState.html#a1af78c005ab63f5dcbd9bcd1c44bd0e6" target="_top" xlink:title="Configura ponteiros globais de display e fila de eventos.">
<polygon fill="white" stroke="black" points="68.5,-0.5 68.5,-19.5 168.5,-19.5 168.5,-0.5 68.5,-0.5"/>
<text text-anchor="middle" x="118.5" y="-7.5" font-family="Helvetica,sans-Serif" font-size="10.00">State::setGlobals</text>
</a>
</g>
</g>
<!-- Node1&#45;&gt;Node3 -->
<g id="edge2" class="edge">
<title>Node1&#45;&gt;Node3</title>
<path fill="none" stroke="midnightblue" d="M32.26,-26.11C39.59,-24.73 48.9,-22.97 58.65,-21.13"/>
<polygon fill="midnightblue" stroke="midnightblue" points="59.31,-24.56 68.49,-19.27 58.01,-17.69 59.31,-24.56"/>
</g>
</g>
</svg>
