<?xml version="1.0" encoding="UTF-8" standalone="no"?>
<!DOCTYPE svg PUBLIC "-//W3C//DTD SVG 1.1//EN"
 "http://www.w3.org/Graphics/SVG/1.1/DTD/svg11.dtd">
<!-- Generated by graphviz version 2.43.0 (0)
 -->
<!-- Title: include/states/leaderboard_menu.hpp Pages: 1 -->
<svg width="296pt" height="106pt"
 viewBox="0.00 0.00 296.00 106.00" xmlns="http://www.w3.org/2000/svg" xmlns:xlink="http://www.w3.org/1999/xlink">
<g id="graph0" class="graph" transform="scale(1 1) rotate(0) translate(4 102)">
<title>include/states/leaderboard_menu.hpp</title>
<polygon fill="white" stroke="transparent" points="-4,4 -4,-102 292,-102 292,4 -4,4"/>
<!-- Node1 -->
<g id="node1" class="node">
<title>Node1</title>
<g id="a_node1"><a xlink:title="Definição da classe LeaderboardMenu, que representa o estado da tela de ranking.">
<polygon fill="#bfbfbf" stroke="black" points="65.5,-67.5 65.5,-97.5 211.5,-97.5 211.5,-67.5 65.5,-67.5"/>
<text text-anchor="start" x="73.5" y="-85.5" font-family="Helvetica,sans-Serif" font-size="10.00">include/states/leaderboard</text>
<text text-anchor="middle" x="138.5" y="-74.5" font-family="Helvetica,sans-Serif" font-size="10.00">_menu.hpp</text>
</a>
</g>
</g>
<!-- Node2 -->
<g id="node2" class="node">
<title>Node2</title>
<g id="a_node2"><a xlink:href="leaderboard__menu_8cpp.html" target="_top" xlink:title="Implementação da classe LeaderboardMenu, responsável por exibir a tela de ranking.">
<polygon fill="white" stroke="black" points="0,-0.5 0,-30.5 125,-30.5 125,-0.5 0,-0.5"/>
<text text-anchor="start" x="8" y="-18.5" font-family="Helvetica,sans-Serif" font-size="10.00">src/states/leaderboard</text>
<text text-anchor="middle" x="62.5" y="-7.5" font-family="Helvetica,sans-Serif" font-size="10.00">_menu.cpp</text>
</a>
</g>
</g>
<!-- Node1&#45;&gt;Node2 -->
<g id="edge1" class="edge">
<title>Node1&#45;&gt;Node2</title>
<path fill="none" stroke="midnightblue" d="M114.39,-60.88C102.84,-51.01 89.31,-39.43 78.96,-30.58"/>
<polygon fill="midnightblue" stroke="midnightblue" points="112.13,-63.56 122.01,-67.4 116.68,-58.24 112.13,-63.56"/>
</g>
<!-- Node3 -->
<g id="node3" class="node">
<title>Node3</title>
<g id="a_node3"><a xlink:href="main__menu_8cpp.html" target="_top" xlink:title="Implementação da classe MainMenu, o estado principal e tela inicial do jogo.">
<polygon fill="white" stroke="black" points="143,-6 143,-25 288,-25 288,-6 143,-6"/>
<text text-anchor="middle" x="215.5" y="-13" font-family="Helvetica,sans-Serif" font-size="10.00">src/states/main_menu.cpp</text>
</a>
</g>
</g>
<!-- Node1&#45;&gt;Node3 -->
<g id="edge2" class="edge">
<title>Node1&#45;&gt;Node3</title>
<path fill="none" stroke="midnightblue" d="M163.17,-60.67C177.39,-48.67 194.51,-34.22 205.2,-25.19"/>
<polygon fill="midnightblue" stroke="midnightblue" points="160.59,-58.27 155.21,-67.4 165.11,-63.62 160.59,-58.27"/>
</g>
</g>
</svg>
