<?xml version="1.0" encoding="UTF-8" standalone="no"?>
<!DOCTYPE svg PUBLIC "-//W3C//DTD SVG 1.1//EN"
 "http://www.w3.org/Graphics/SVG/1.1/DTD/svg11.dtd">
<!-- Generated by graphviz version 2.43.0 (0)
 -->
<!-- Title: src/states/leaderboard_menu.cpp Pages: 1 -->
<svg width="1536pt" height="397pt"
 viewBox="0.00 0.00 1536.12 397.00" xmlns="http://www.w3.org/2000/svg" xmlns:xlink="http://www.w3.org/1999/xlink">
<g id="graph0" class="graph" transform="scale(1 1) rotate(0) translate(4 393)">
<title>src/states/leaderboard_menu.cpp</title>
<polygon fill="white" stroke="transparent" points="-4,4 -4,-393 1532.12,-393 1532.12,4 -4,4"/>
<!-- Node1 -->
<g id="node1" class="node">
<title>Node1</title>
<g id="a_node1"><a xlink:title="Implementação da classe LeaderboardMenu, responsável por exibir a tela de ranking.">
<polygon fill="#bfbfbf" stroke="black" points="730.5,-358.5 730.5,-388.5 855.5,-388.5 855.5,-358.5 730.5,-358.5"/>
<text text-anchor="start" x="738.5" y="-376.5" font-family="Helvetica,sans-Serif" font-size="10.00">src/states/leaderboard</text>
<text text-anchor="middle" x="793" y="-365.5" font-family="Helvetica,sans-Serif" font-size="10.00">_menu.cpp</text>
</a>
</g>
</g>
<!-- Node2 -->
<g id="node2" class="node">
<title>Node2</title>
<g id="a_node2"><a xlink:href="leaderboard__menu_8hpp.html" target="_top" xlink:title="Definição da classe LeaderboardMenu, que representa o estado da tela de ranking.">
<polygon fill="white" stroke="black" points="774,-291.5 774,-321.5 906,-321.5 906,-291.5 774,-291.5"/>
<text text-anchor="start" x="782" y="-309.5" font-family="Helvetica,sans-Serif" font-size="10.00">../../include/states</text>
<text text-anchor="middle" x="840" y="-298.5" font-family="Helvetica,sans-Serif" font-size="10.00">/leaderboard_menu.hpp</text>
</a>
</g>
</g>
<!-- Node1&#45;&gt;Node2 -->
<g id="edge1" class="edge">
<title>Node1&#45;&gt;Node2</title>
<path fill="none" stroke="midnightblue" d="M803.2,-358.4C809.23,-350.05 817.02,-339.29 823.87,-329.81"/>
<polygon fill="midnightblue" stroke="midnightblue" points="826.8,-331.73 829.82,-321.58 821.13,-327.63 826.8,-331.73"/>
</g>
<!-- Node7 -->
<g id="node7" class="node">
<title>Node7</title>
<g id="a_node7"><a xlink:href="init_8hpp.html" target="_top" xlink:title="Declara funções de inicialização e finalização do Allegro.">
<polygon fill="white" stroke="black" points="715,-235.5 715,-254.5 777,-254.5 777,-235.5 715,-235.5"/>
<text text-anchor="middle" x="746" y="-242.5" font-family="Helvetica,sans-Serif" font-size="10.00">../init.hpp</text>
</a>
</g>
</g>
<!-- Node1&#45;&gt;Node7 -->
<g id="edge48" class="edge">
<title>Node1&#45;&gt;Node7</title>
<path fill="none" stroke="midnightblue" d="M783.87,-358.41C777.82,-348.54 770.08,-334.87 765,-322 757.53,-303.06 752.3,-280.29 749.25,-264.64"/>
<polygon fill="midnightblue" stroke="midnightblue" points="752.66,-263.86 747.4,-254.66 745.78,-265.13 752.66,-263.86"/>
</g>
<!-- Node14 -->
<g id="node14" class="node">
<title>Node14</title>
<g id="a_node14"><a xlink:title=" ">
<polygon fill="white" stroke="#bfbfbf" points="0,-6 0,-25 58,-25 58,-6 0,-6"/>
<text text-anchor="middle" x="29" y="-13" font-family="Helvetica,sans-Serif" font-size="10.00">memory</text>
</a>
</g>
</g>
<!-- Node1&#45;&gt;Node14 -->
<g id="edge55" class="edge">
<title>Node1&#45;&gt;Node14</title>
<path fill="none" stroke="midnightblue" d="M730.48,-368.67C548.68,-356.69 33,-316.52 33,-246 33,-246 33,-246 33,-132 33,-97.84 31.23,-58.04 30.05,-35.2"/>
<polygon fill="midnightblue" stroke="midnightblue" points="33.54,-34.99 29.51,-25.19 26.55,-35.36 33.54,-34.99"/>
</g>
<!-- Node29 -->
<g id="node29" class="node">
<title>Node29</title>
<g id="a_node29"><a xlink:href="main__menu_8hpp.html" target="_top" xlink:title="Definição da classe MainMenu, o estado que representa o menu principal do jogo.">
<polygon fill="white" stroke="black" points="1258.5,-291.5 1258.5,-321.5 1361.5,-321.5 1361.5,-291.5 1258.5,-291.5"/>
<text text-anchor="start" x="1266.5" y="-309.5" font-family="Helvetica,sans-Serif" font-size="10.00">../../include/states</text>
<text text-anchor="middle" x="1310" y="-298.5" font-family="Helvetica,sans-Serif" font-size="10.00">/main_menu.hpp</text>
</a>
</g>
</g>
<!-- Node1&#45;&gt;Node29 -->
<g id="edge49" class="edge">
<title>Node1&#45;&gt;Node29</title>
<path fill="none" stroke="midnightblue" d="M855.62,-364.63C955.32,-352.09 1149,-327.74 1248.19,-315.27"/>
<polygon fill="midnightblue" stroke="midnightblue" points="1248.87,-318.71 1258.36,-313.99 1248,-311.77 1248.87,-318.71"/>
</g>
<!-- Node3 -->
<g id="node3" class="node">
<title>Node3</title>
<g id="a_node3"><a xlink:href="defines_8hpp.html" target="_top" xlink:title="Constantes globais, macros e estruturas auxiliares do jogo.">
<polygon fill="white" stroke="black" points="1389,-67.5 1389,-86.5 1471,-86.5 1471,-67.5 1389,-67.5"/>
<text text-anchor="middle" x="1430" y="-74.5" font-family="Helvetica,sans-Serif" font-size="10.00">../defines.hpp</text>
</a>
</g>
</g>
<!-- Node2&#45;&gt;Node3 -->
<g id="edge2" class="edge">
<title>Node2&#45;&gt;Node3</title>
<path fill="none" stroke="midnightblue" d="M906.17,-301.42C1041.74,-291.81 1344.85,-263.53 1423,-199 1450.12,-176.61 1450.63,-157.71 1445,-123 1443.53,-113.96 1440.51,-104.28 1437.56,-96.22"/>
<polygon fill="midnightblue" stroke="midnightblue" points="1440.76,-94.79 1433.86,-86.75 1434.24,-97.34 1440.76,-94.79"/>
</g>
<!-- Node2&#45;&gt;Node7 -->
<g id="edge6" class="edge">
<title>Node2&#45;&gt;Node7</title>
<path fill="none" stroke="midnightblue" d="M817.72,-291.4C802.8,-281.95 783.22,-269.56 768.29,-260.11"/>
<polygon fill="midnightblue" stroke="midnightblue" points="770,-257.05 759.68,-254.66 766.26,-262.96 770,-257.05"/>
</g>
<!-- Node25 -->
<g id="node25" class="node">
<title>Node25</title>
<g id="a_node25"><a xlink:href="assets_8hpp.html" target="_top" xlink:title="Declara classes utilitárias para carregar e usar imagens, sons e fontes no Allegro.">
<polygon fill="white" stroke="black" points="635.5,-67.5 635.5,-86.5 704.5,-86.5 704.5,-67.5 635.5,-67.5"/>
<text text-anchor="middle" x="670" y="-74.5" font-family="Helvetica,sans-Serif" font-size="10.00">assets.hpp</text>
</a>
</g>
</g>
<!-- Node2&#45;&gt;Node25 -->
<g id="edge47" class="edge">
<title>Node2&#45;&gt;Node25</title>
<path fill="none" stroke="midnightblue" d="M773.96,-303.01C640.2,-296.43 344.68,-273.59 283,-199 189.5,-85.93 504.77,-76.77 625.18,-77.27"/>
<polygon fill="midnightblue" stroke="midnightblue" points="625.18,-80.77 635.2,-77.33 625.22,-73.77 625.18,-80.77"/>
</g>
<!-- Node27 -->
<g id="node27" class="node">
<title>Node27</title>
<g id="a_node27"><a xlink:href="state_8hpp.html" target="_top" xlink:title="Interface base para estados da máquina de estados do jogo.">
<polygon fill="white" stroke="black" points="1330,-179.5 1330,-198.5 1392,-198.5 1392,-179.5 1330,-179.5"/>
<text text-anchor="middle" x="1361" y="-186.5" font-family="Helvetica,sans-Serif" font-size="10.00">state.hpp</text>
</a>
</g>
</g>
<!-- Node2&#45;&gt;Node27 -->
<g id="edge46" class="edge">
<title>Node2&#45;&gt;Node27</title>
<path fill="none" stroke="midnightblue" d="M903.36,-291.45C1011.6,-267.46 1229.18,-219.22 1319.86,-199.12"/>
<polygon fill="midnightblue" stroke="midnightblue" points="1320.76,-202.51 1329.76,-196.92 1319.24,-195.67 1320.76,-202.51"/>
</g>
<!-- Node4 -->
<g id="node4" class="node">
<title>Node4</title>
<g id="a_node4"><a xlink:title=" ">
<polygon fill="white" stroke="#bfbfbf" points="1455.5,-6 1455.5,-25 1502.5,-25 1502.5,-6 1455.5,-6"/>
<text text-anchor="middle" x="1479" y="-13" font-family="Helvetica,sans-Serif" font-size="10.00">cmath</text>
</a>
</g>
</g>
<!-- Node3&#45;&gt;Node4 -->
<g id="edge3" class="edge">
<title>Node3&#45;&gt;Node4</title>
<path fill="none" stroke="midnightblue" d="M1437.02,-67.48C1444.44,-58.46 1456.33,-44.02 1465.57,-32.81"/>
<polygon fill="midnightblue" stroke="midnightblue" points="1468.34,-34.95 1471.99,-25.01 1462.93,-30.5 1468.34,-34.95"/>
</g>
<!-- Node5 -->
<g id="node5" class="node">
<title>Node5</title>
<g id="a_node5"><a xlink:title=" ">
<polygon fill="white" stroke="#bfbfbf" points="1307,-6 1307,-25 1351,-25 1351,-6 1307,-6"/>
<text text-anchor="middle" x="1329" y="-13" font-family="Helvetica,sans-Serif" font-size="10.00">string</text>
</a>
</g>
</g>
<!-- Node3&#45;&gt;Node5 -->
<g id="edge4" class="edge">
<title>Node3&#45;&gt;Node5</title>
<path fill="none" stroke="midnightblue" d="M1415.53,-67.48C1399.03,-57.75 1371.82,-41.73 1352.32,-30.24"/>
<polygon fill="midnightblue" stroke="midnightblue" points="1353.84,-27.07 1343.44,-25.01 1350.28,-33.1 1353.84,-27.07"/>
</g>
<!-- Node6 -->
<g id="node6" class="node">
<title>Node6</title>
<g id="a_node6"><a xlink:title=" ">
<polygon fill="white" stroke="#bfbfbf" points="1390.5,-6 1390.5,-25 1437.5,-25 1437.5,-6 1390.5,-6"/>
<text text-anchor="middle" x="1414" y="-13" font-family="Helvetica,sans-Serif" font-size="10.00">vector</text>
</a>
</g>
</g>
<!-- Node3&#45;&gt;Node6 -->
<g id="edge5" class="edge">
<title>Node3&#45;&gt;Node6</title>
<path fill="none" stroke="midnightblue" d="M1427.71,-67.48C1425.43,-58.99 1421.85,-45.7 1418.93,-34.82"/>
<polygon fill="midnightblue" stroke="midnightblue" points="1422.26,-33.76 1416.29,-25.01 1415.51,-35.57 1422.26,-33.76"/>
</g>
<!-- Node7&#45;&gt;Node3 -->
<g id="edge36" class="edge">
<title>Node7&#45;&gt;Node3</title>
<path fill="none" stroke="midnightblue" d="M777.35,-243.76C900.93,-242.58 1350.04,-235.76 1401,-199 1432.88,-176.01 1434.09,-124.58 1432.13,-96.75"/>
<polygon fill="midnightblue" stroke="midnightblue" points="1435.61,-96.36 1431.21,-86.73 1428.64,-97.01 1435.61,-96.36"/>
</g>
<!-- Node7&#45;&gt;Node5 -->
<g id="edge15" class="edge">
<title>Node7&#45;&gt;Node5</title>
<path fill="none" stroke="midnightblue" d="M777.2,-242.76C877.82,-238.52 1189.35,-223.51 1227,-199 1286.8,-160.06 1314.91,-73.3 1324.73,-35.13"/>
<polygon fill="midnightblue" stroke="midnightblue" points="1328.15,-35.89 1327.12,-25.34 1321.35,-34.23 1328.15,-35.89"/>
</g>
<!-- Node8 -->
<g id="node8" class="node">
<title>Node8</title>
<g id="a_node8"><a xlink:title=" ">
<polygon fill="white" stroke="#bfbfbf" points="292.5,-179.5 292.5,-198.5 343.5,-198.5 343.5,-179.5 292.5,-179.5"/>
<text text-anchor="middle" x="318" y="-186.5" font-family="Helvetica,sans-Serif" font-size="10.00">math.h</text>
</a>
</g>
</g>
<!-- Node7&#45;&gt;Node8 -->
<g id="edge7" class="edge">
<title>Node7&#45;&gt;Node8</title>
<path fill="none" stroke="midnightblue" d="M714.96,-241.91C649.84,-237.2 494.07,-224.32 353.61,-198.85"/>
<polygon fill="midnightblue" stroke="midnightblue" points="353.99,-195.36 343.52,-197 352.73,-202.25 353.99,-195.36"/>
</g>
<!-- Node9 -->
<g id="node9" class="node">
<title>Node9</title>
<g id="a_node9"><a xlink:title=" ">
<polygon fill="white" stroke="#bfbfbf" points="362,-179.5 362,-198.5 426,-198.5 426,-179.5 362,-179.5"/>
<text text-anchor="middle" x="394" y="-186.5" font-family="Helvetica,sans-Serif" font-size="10.00">algorithm</text>
</a>
</g>
</g>
<!-- Node7&#45;&gt;Node9 -->
<g id="edge8" class="edge">
<title>Node7&#45;&gt;Node9</title>
<path fill="none" stroke="midnightblue" d="M714.98,-240.27C660.59,-233.56 544.3,-218.5 436.28,-199.12"/>
<polygon fill="midnightblue" stroke="midnightblue" points="436.65,-195.63 426.18,-197.3 435.4,-202.52 436.65,-195.63"/>
</g>
<!-- Node10 -->
<g id="node10" class="node">
<title>Node10</title>
<g id="a_node10"><a xlink:title=" ">
<polygon fill="white" stroke="#bfbfbf" points="444.5,-179.5 444.5,-198.5 499.5,-198.5 499.5,-179.5 444.5,-179.5"/>
<text text-anchor="middle" x="472" y="-186.5" font-family="Helvetica,sans-Serif" font-size="10.00">fstream</text>
</a>
</g>
</g>
<!-- Node7&#45;&gt;Node10 -->
<g id="edge9" class="edge">
<title>Node7&#45;&gt;Node10</title>
<path fill="none" stroke="midnightblue" d="M714.84,-238.61C671.29,-230.95 589.54,-216.18 510.03,-199.13"/>
<polygon fill="midnightblue" stroke="midnightblue" points="510.36,-195.62 499.85,-196.93 508.88,-202.47 510.36,-195.62"/>
</g>
<!-- Node11 -->
<g id="node11" class="node">
<title>Node11</title>
<g id="a_node11"><a xlink:title=" ">
<polygon fill="white" stroke="#bfbfbf" points="212,-6 212,-25 272,-25 272,-6 212,-6"/>
<text text-anchor="middle" x="242" y="-13" font-family="Helvetica,sans-Serif" font-size="10.00">iostream</text>
</a>
</g>
</g>
<!-- Node7&#45;&gt;Node11 -->
<g id="edge10" class="edge">
<title>Node7&#45;&gt;Node11</title>
<path fill="none" stroke="midnightblue" d="M714.88,-243.48C611.49,-241.43 284.17,-232.36 252,-199 209.08,-154.5 225.7,-72.02 236.09,-35.15"/>
<polygon fill="midnightblue" stroke="midnightblue" points="239.53,-35.85 239.04,-25.27 232.83,-33.85 239.53,-35.85"/>
</g>
<!-- Node12 -->
<g id="node12" class="node">
<title>Node12</title>
<g id="a_node12"><a xlink:title=" ">
<polygon fill="white" stroke="#bfbfbf" points="518,-179.5 518,-198.5 550,-198.5 550,-179.5 518,-179.5"/>
<text text-anchor="middle" x="534" y="-186.5" font-family="Helvetica,sans-Serif" font-size="10.00">list</text>
</a>
</g>
</g>
<!-- Node7&#45;&gt;Node12 -->
<g id="edge11" class="edge">
<title>Node7&#45;&gt;Node12</title>
<path fill="none" stroke="midnightblue" d="M714.95,-237.62C679.52,-230.1 619.69,-216.68 559.68,-198.95"/>
<polygon fill="midnightblue" stroke="midnightblue" points="560.64,-195.59 550.05,-196.07 558.63,-202.29 560.64,-195.59"/>
</g>
<!-- Node13 -->
<g id="node13" class="node">
<title>Node13</title>
<g id="a_node13"><a xlink:title=" ">
<polygon fill="white" stroke="#bfbfbf" points="568,-179.5 568,-198.5 606,-198.5 606,-179.5 568,-179.5"/>
<text text-anchor="middle" x="587" y="-186.5" font-family="Helvetica,sans-Serif" font-size="10.00">map</text>
</a>
</g>
</g>
<!-- Node7&#45;&gt;Node13 -->
<g id="edge12" class="edge">
<title>Node7&#45;&gt;Node13</title>
<path fill="none" stroke="midnightblue" d="M720.81,-235.44C692.17,-225.72 645.52,-209.88 615.56,-199.7"/>
<polygon fill="midnightblue" stroke="midnightblue" points="616.68,-196.38 606.09,-196.48 614.43,-203.01 616.68,-196.38"/>
</g>
<!-- Node7&#45;&gt;Node14 -->
<g id="edge13" class="edge">
<title>Node7&#45;&gt;Node14</title>
<path fill="none" stroke="midnightblue" d="M714.99,-244.21C614.47,-244.45 298.87,-241.7 208,-199 127.99,-161.4 64.11,-71.82 39.71,-33.91"/>
<polygon fill="midnightblue" stroke="midnightblue" points="42.42,-31.66 34.13,-25.06 36.5,-35.39 42.42,-31.66"/>
</g>
<!-- Node15 -->
<g id="node15" class="node">
<title>Node15</title>
<g id="a_node15"><a xlink:title=" ">
<polygon fill="white" stroke="#bfbfbf" points="624,-179.5 624,-198.5 680,-198.5 680,-179.5 624,-179.5"/>
<text text-anchor="middle" x="652" y="-186.5" font-family="Helvetica,sans-Serif" font-size="10.00">sstream</text>
</a>
</g>
</g>
<!-- Node7&#45;&gt;Node15 -->
<g id="edge14" class="edge">
<title>Node7&#45;&gt;Node15</title>
<path fill="none" stroke="midnightblue" d="M730.9,-235.32C716.1,-226.82 693.31,-213.73 676.02,-203.8"/>
<polygon fill="midnightblue" stroke="midnightblue" points="677.48,-200.6 667.07,-198.65 673.99,-206.67 677.48,-200.6"/>
</g>
<!-- Node16 -->
<g id="node16" class="node">
<title>Node16</title>
<g id="a_node16"><a xlink:title=" ">
<polygon fill="white" stroke="#bfbfbf" points="906,-6 906,-25 1008,-25 1008,-6 906,-6"/>
<text text-anchor="middle" x="957" y="-13" font-family="Helvetica,sans-Serif" font-size="10.00">allegro5/allegro.h</text>
</a>
</g>
</g>
<!-- Node7&#45;&gt;Node16 -->
<g id="edge16" class="edge">
<title>Node7&#45;&gt;Node16</title>
<path fill="none" stroke="midnightblue" d="M754.01,-235.36C785.48,-201.43 900.85,-77.04 942.16,-32.5"/>
<polygon fill="midnightblue" stroke="midnightblue" points="944.74,-34.86 948.98,-25.15 939.61,-30.1 944.74,-34.86"/>
</g>
<!-- Node17 -->
<g id="node17" class="node">
<title>Node17</title>
<g id="a_node17"><a xlink:title=" ">
<polygon fill="white" stroke="#bfbfbf" points="290,-6 290,-25 432,-25 432,-6 290,-6"/>
<text text-anchor="middle" x="361" y="-13" font-family="Helvetica,sans-Serif" font-size="10.00">allegro5/allegro_acodec.h</text>
</a>
</g>
</g>
<!-- Node7&#45;&gt;Node17 -->
<g id="edge17" class="edge">
<title>Node7&#45;&gt;Node17</title>
<path fill="none" stroke="midnightblue" d="M714.69,-243.45C613.06,-241.33 297.15,-232.12 267,-199 219.26,-146.57 302.5,-65.41 341.97,-31.84"/>
<polygon fill="midnightblue" stroke="midnightblue" points="344.65,-34.16 350.09,-25.07 340.17,-28.78 344.65,-34.16"/>
</g>
<!-- Node18 -->
<g id="node18" class="node">
<title>Node18</title>
<g id="a_node18"><a xlink:title=" ">
<polygon fill="white" stroke="#bfbfbf" points="450,-6 450,-25 584,-25 584,-6 450,-6"/>
<text text-anchor="middle" x="517" y="-13" font-family="Helvetica,sans-Serif" font-size="10.00">allegro5/allegro_audio.h</text>
</a>
</g>
</g>
<!-- Node7&#45;&gt;Node18 -->
<g id="edge18" class="edge">
<title>Node7&#45;&gt;Node18</title>
<path fill="none" stroke="midnightblue" d="M714.7,-243.34C615.36,-240.92 312,-230.96 283,-199 213.88,-122.84 394.86,-54.48 477.91,-28.07"/>
<polygon fill="midnightblue" stroke="midnightblue" points="479.03,-31.39 487.53,-25.06 476.94,-24.71 479.03,-31.39"/>
</g>
<!-- Node19 -->
<g id="node19" class="node">
<title>Node19</title>
<g id="a_node19"><a xlink:title=" ">
<polygon fill="white" stroke="#bfbfbf" points="602,-6 602,-25 740,-25 740,-6 602,-6"/>
<text text-anchor="middle" x="671" y="-13" font-family="Helvetica,sans-Serif" font-size="10.00">allegro5/allegro_image.h</text>
</a>
</g>
</g>
<!-- Node7&#45;&gt;Node19 -->
<g id="edge19" class="edge">
<title>Node7&#45;&gt;Node19</title>
<path fill="none" stroke="midnightblue" d="M745.91,-235.43C745.31,-209 741.17,-126.98 713,-67 706.93,-54.07 696.74,-41.7 687.92,-32.44"/>
<polygon fill="midnightblue" stroke="midnightblue" points="690.2,-29.77 680.65,-25.16 685.24,-34.71 690.2,-29.77"/>
</g>
<!-- Node20 -->
<g id="node20" class="node">
<title>Node20</title>
<g id="a_node20"><a xlink:title=" ">
<polygon fill="white" stroke="#bfbfbf" points="758.5,-0.5 758.5,-30.5 887.5,-30.5 887.5,-0.5 758.5,-0.5"/>
<text text-anchor="start" x="766.5" y="-18.5" font-family="Helvetica,sans-Serif" font-size="10.00">allegro5/allegro_native</text>
<text text-anchor="middle" x="823" y="-7.5" font-family="Helvetica,sans-Serif" font-size="10.00">_dialog.h</text>
</a>
</g>
</g>
<!-- Node7&#45;&gt;Node20 -->
<g id="edge20" class="edge">
<title>Node7&#45;&gt;Node20</title>
<path fill="none" stroke="midnightblue" d="M748.92,-235.36C759.8,-203.23 798.14,-89.96 814.97,-40.22"/>
<polygon fill="midnightblue" stroke="midnightblue" points="818.33,-41.22 818.22,-30.62 811.7,-38.97 818.33,-41.22"/>
</g>
<!-- Node21 -->
<g id="node21" class="node">
<title>Node21</title>
<g id="a_node21"><a xlink:title=" ">
<polygon fill="white" stroke="#bfbfbf" points="850,-179.5 850,-198.5 990,-198.5 990,-179.5 850,-179.5"/>
<text text-anchor="middle" x="920" y="-186.5" font-family="Helvetica,sans-Serif" font-size="10.00">allegro5/allegro_physfs.h</text>
</a>
</g>
</g>
<!-- Node7&#45;&gt;Node21 -->
<g id="edge21" class="edge">
<title>Node7&#45;&gt;Node21</title>
<path fill="none" stroke="midnightblue" d="M773.57,-235.44C803.1,-226.28 850.12,-211.69 882.88,-201.52"/>
<polygon fill="midnightblue" stroke="midnightblue" points="884.04,-204.82 892.56,-198.52 881.97,-198.14 884.04,-204.82"/>
</g>
<!-- Node22 -->
<g id="node22" class="node">
<title>Node22</title>
<g id="a_node22"><a xlink:title=" ">
<polygon fill="white" stroke="#bfbfbf" points="1131.5,-6 1131.5,-25 1288.5,-25 1288.5,-6 1131.5,-6"/>
<text text-anchor="middle" x="1210" y="-13" font-family="Helvetica,sans-Serif" font-size="10.00">allegro5/allegro_primitives.h</text>
</a>
</g>
</g>
<!-- Node7&#45;&gt;Node22 -->
<g id="edge22" class="edge">
<title>Node7&#45;&gt;Node22</title>
<path fill="none" stroke="midnightblue" d="M777.14,-243.31C875.99,-240.8 1177.87,-230.59 1207,-199 1248.86,-153.61 1228.74,-71.59 1216.73,-35"/>
<polygon fill="midnightblue" stroke="midnightblue" points="1219.92,-33.5 1213.35,-25.19 1213.3,-35.78 1219.92,-33.5"/>
</g>
<!-- Node23 -->
<g id="node23" class="node">
<title>Node23</title>
<g id="a_node23"><a xlink:title=" ">
<polygon fill="white" stroke="#bfbfbf" points="76,-6 76,-25 194,-25 194,-6 76,-6"/>
<text text-anchor="middle" x="135" y="-13" font-family="Helvetica,sans-Serif" font-size="10.00">allegro5/allegro_ttf.h</text>
</a>
</g>
</g>
<!-- Node7&#45;&gt;Node23 -->
<g id="edge23" class="edge">
<title>Node7&#45;&gt;Node23</title>
<path fill="none" stroke="midnightblue" d="M714.69,-242.95C609.82,-239.19 275.17,-225.24 235,-199 175.54,-160.15 148.43,-73.34 139.05,-35.15"/>
<polygon fill="midnightblue" stroke="midnightblue" points="142.45,-34.3 136.78,-25.35 135.63,-35.88 142.45,-34.3"/>
</g>
<!-- Node24 -->
<g id="node24" class="node">
<title>Node24</title>
<g id="a_node24"><a xlink:title=" ">
<polygon fill="white" stroke="#bfbfbf" points="1008.5,-179.5 1008.5,-198.5 1111.5,-198.5 1111.5,-179.5 1008.5,-179.5"/>
<text text-anchor="middle" x="1060" y="-186.5" font-family="Helvetica,sans-Serif" font-size="10.00">allegro5/bitmap.h</text>
</a>
</g>
</g>
<!-- Node7&#45;&gt;Node24 -->
<g id="edge24" class="edge">
<title>Node7&#45;&gt;Node24</title>
<path fill="none" stroke="midnightblue" d="M777.26,-238.62C829.19,-229.69 934.11,-211.65 1000.51,-200.23"/>
<polygon fill="midnightblue" stroke="midnightblue" points="1001.16,-203.67 1010.42,-198.53 999.97,-196.77 1001.16,-203.67"/>
</g>
<!-- Node7&#45;&gt;Node25 -->
<g id="edge25" class="edge">
<title>Node7&#45;&gt;Node25</title>
<path fill="none" stroke="midnightblue" d="M741.04,-235.26C731.33,-217.97 709.41,-178.02 694,-143 687.19,-127.52 680.62,-109.43 676.08,-96.27"/>
<polygon fill="midnightblue" stroke="midnightblue" points="679.31,-94.89 672.78,-86.54 672.68,-97.14 679.31,-94.89"/>
</g>
<!-- Node26 -->
<g id="node26" class="node">
<title>Node26</title>
<g id="a_node26"><a xlink:href="player_8hpp.html" target="_top" xlink:title="Modela um jogador e operações de ranking.">
<polygon fill="white" stroke="black" points="1130,-179.5 1130,-198.5 1198,-198.5 1198,-179.5 1130,-179.5"/>
<text text-anchor="middle" x="1164" y="-186.5" font-family="Helvetica,sans-Serif" font-size="10.00">player.hpp</text>
</a>
</g>
</g>
<!-- Node7&#45;&gt;Node26 -->
<g id="edge37" class="edge">
<title>Node7&#45;&gt;Node26</title>
<path fill="none" stroke="midnightblue" d="M777.09,-240.7C840.5,-234.36 988.42,-219.31 1112,-199 1114.59,-198.57 1117.26,-198.1 1119.97,-197.6"/>
<polygon fill="midnightblue" stroke="midnightblue" points="1120.68,-201.03 1129.84,-195.7 1119.36,-194.15 1120.68,-201.03"/>
</g>
<!-- Node7&#45;&gt;Node27 -->
<g id="edge39" class="edge">
<title>Node7&#45;&gt;Node27</title>
<path fill="none" stroke="midnightblue" d="M777.03,-242.84C863.02,-239.37 1111.49,-227.42 1316,-199 1317.1,-198.85 1318.22,-198.68 1319.35,-198.51"/>
<polygon fill="midnightblue" stroke="midnightblue" points="1320.34,-201.89 1329.61,-196.77 1319.17,-194.99 1320.34,-201.89"/>
</g>
<!-- Node25&#45;&gt;Node5 -->
<g id="edge28" class="edge">
<title>Node25&#45;&gt;Node5</title>
<path fill="none" stroke="midnightblue" d="M704.81,-75.17C819.47,-72.19 1184.41,-60.55 1298,-31 1299.98,-30.48 1302,-29.84 1303.99,-29.12"/>
<polygon fill="midnightblue" stroke="midnightblue" points="1305.8,-32.16 1313.65,-25.03 1303.07,-25.71 1305.8,-32.16"/>
</g>
<!-- Node25&#45;&gt;Node11 -->
<g id="edge26" class="edge">
<title>Node25&#45;&gt;Node11</title>
<path fill="none" stroke="midnightblue" d="M635.43,-74.79C566.92,-71.78 409.41,-61.82 281,-31 278.01,-30.28 274.93,-29.4 271.88,-28.43"/>
<polygon fill="midnightblue" stroke="midnightblue" points="272.95,-25.1 262.36,-25.12 270.65,-31.71 272.95,-25.1"/>
</g>
<!-- Node25&#45;&gt;Node14 -->
<g id="edge27" class="edge">
<title>Node25&#45;&gt;Node14</title>
<path fill="none" stroke="midnightblue" d="M635.49,-74.74C524.34,-70.47 176.63,-55.46 67,-31 64,-30.33 60.91,-29.47 57.86,-28.5"/>
<polygon fill="midnightblue" stroke="midnightblue" points="58.98,-25.18 48.39,-25.14 56.64,-31.78 58.98,-25.18"/>
</g>
<!-- Node25&#45;&gt;Node16 -->
<g id="edge29" class="edge">
<title>Node25&#45;&gt;Node16</title>
<path fill="none" stroke="midnightblue" d="M704.54,-69.53C748.94,-61.12 828.38,-45.76 896,-31 901.32,-29.84 906.88,-28.58 912.4,-27.3"/>
<polygon fill="midnightblue" stroke="midnightblue" points="913.27,-30.69 922.21,-25 911.68,-23.88 913.27,-30.69"/>
</g>
<!-- Node25&#45;&gt;Node17 -->
<g id="edge30" class="edge">
<title>Node25&#45;&gt;Node17</title>
<path fill="none" stroke="midnightblue" d="M635.45,-69.35C581.94,-59.04 478.56,-39.14 415.08,-26.91"/>
<polygon fill="midnightblue" stroke="midnightblue" points="415.73,-23.47 405.25,-25.02 414.41,-30.35 415.73,-23.47"/>
</g>
<!-- Node25&#45;&gt;Node18 -->
<g id="edge31" class="edge">
<title>Node25&#45;&gt;Node18</title>
<path fill="none" stroke="midnightblue" d="M648.08,-67.48C621.95,-57.31 578.09,-40.26 548.37,-28.7"/>
<polygon fill="midnightblue" stroke="midnightblue" points="549.47,-25.37 538.88,-25.01 546.93,-31.9 549.47,-25.37"/>
</g>
<!-- Node25&#45;&gt;Node19 -->
<g id="edge32" class="edge">
<title>Node25&#45;&gt;Node19</title>
<path fill="none" stroke="midnightblue" d="M670.14,-67.48C670.28,-59.08 670.5,-45.98 670.69,-35.16"/>
<polygon fill="midnightblue" stroke="midnightblue" points="674.19,-35.07 670.86,-25.01 667.19,-34.95 674.19,-35.07"/>
</g>
<!-- Node25&#45;&gt;Node20 -->
<g id="edge33" class="edge">
<title>Node25&#45;&gt;Node20</title>
<path fill="none" stroke="midnightblue" d="M691.92,-67.48C714.1,-58.85 749.04,-45.26 777.27,-34.29"/>
<polygon fill="midnightblue" stroke="midnightblue" points="778.89,-37.41 786.94,-30.52 776.35,-30.89 778.89,-37.41"/>
</g>
<!-- Node25&#45;&gt;Node22 -->
<g id="edge34" class="edge">
<title>Node25&#45;&gt;Node22</title>
<path fill="none" stroke="midnightblue" d="M704.6,-72.19C787.81,-63.02 1001.17,-39.51 1122.4,-26.15"/>
<polygon fill="midnightblue" stroke="midnightblue" points="1122.84,-29.63 1132.4,-25.05 1122.07,-22.67 1122.84,-29.63"/>
</g>
<!-- Node25&#45;&gt;Node23 -->
<g id="edge35" class="edge">
<title>Node25&#45;&gt;Node23</title>
<path fill="none" stroke="midnightblue" d="M635.27,-74.01C557.5,-69.27 363.6,-55.78 203,-31 195.86,-29.9 188.35,-28.52 181.03,-27.06"/>
<polygon fill="midnightblue" stroke="midnightblue" points="181.71,-23.62 171.21,-25.02 180.29,-30.48 181.71,-23.62"/>
</g>
<!-- Node26&#45;&gt;Node7 -->
<g id="edge38" class="edge">
<title>Node26&#45;&gt;Node7</title>
<path fill="none" stroke="midnightblue" d="M1132.74,-198.54C1131.82,-198.7 1130.9,-198.85 1130,-199 1006.3,-219.33 858.21,-234.39 787.4,-240.72"/>
<polygon fill="midnightblue" stroke="midnightblue" points="786.78,-237.26 777.12,-241.62 787.39,-244.23 786.78,-237.26"/>
</g>
<!-- Node27&#45;&gt;Node3 -->
<g id="edge41" class="edge">
<title>Node27&#45;&gt;Node3</title>
<path fill="none" stroke="midnightblue" d="M1371.98,-179.41C1382.03,-171.05 1396.71,-157.51 1406,-143 1415.22,-128.6 1421.61,-110.14 1425.46,-96.58"/>
<polygon fill="midnightblue" stroke="midnightblue" points="1428.94,-97.09 1428.1,-86.53 1422.17,-95.31 1428.94,-97.09"/>
</g>
<!-- Node27&#45;&gt;Node16 -->
<g id="edge40" class="edge">
<title>Node27&#45;&gt;Node16</title>
<path fill="none" stroke="midnightblue" d="M1340.97,-179.5C1275.01,-151.49 1064.4,-62.09 986.41,-28.99"/>
<polygon fill="midnightblue" stroke="midnightblue" points="987.73,-25.74 977.16,-25.06 984.99,-32.19 987.73,-25.74"/>
</g>
<!-- Node28 -->
<g id="node28" class="node">
<title>Node28</title>
<g id="a_node28"><a xlink:href="motion_8hpp.html" target="_top" xlink:title="Gerencia efeitos de parallax e animações de cenário.">
<polygon fill="white" stroke="black" points="1325,-123.5 1325,-142.5 1397,-142.5 1397,-123.5 1325,-123.5"/>
<text text-anchor="middle" x="1361" y="-130.5" font-family="Helvetica,sans-Serif" font-size="10.00">motion.hpp</text>
</a>
</g>
</g>
<!-- Node27&#45;&gt;Node28 -->
<g id="edge42" class="edge">
<title>Node27&#45;&gt;Node28</title>
<path fill="none" stroke="midnightblue" d="M1361,-179.08C1361,-172.01 1361,-161.86 1361,-152.99"/>
<polygon fill="midnightblue" stroke="midnightblue" points="1364.5,-152.75 1361,-142.75 1357.5,-152.75 1364.5,-152.75"/>
</g>
<!-- Node28&#45;&gt;Node3 -->
<g id="edge45" class="edge">
<title>Node28&#45;&gt;Node3</title>
<path fill="none" stroke="midnightblue" d="M1372.09,-123.32C1382.49,-115.18 1398.26,-102.84 1410.72,-93.09"/>
<polygon fill="midnightblue" stroke="midnightblue" points="1412.99,-95.75 1418.71,-86.83 1408.68,-90.24 1412.99,-95.75"/>
</g>
<!-- Node28&#45;&gt;Node22 -->
<g id="edge43" class="edge">
<title>Node28&#45;&gt;Node22</title>
<path fill="none" stroke="midnightblue" d="M1351.3,-123.25C1336.95,-110.45 1309.07,-86.06 1284,-67 1266.98,-54.06 1246.9,-40.46 1231.95,-30.63"/>
<polygon fill="midnightblue" stroke="midnightblue" points="1233.67,-27.57 1223.39,-25.04 1229.85,-33.44 1233.67,-27.57"/>
</g>
<!-- Node28&#45;&gt;Node25 -->
<g id="edge44" class="edge">
<title>Node28&#45;&gt;Node25</title>
<path fill="none" stroke="midnightblue" d="M1324.82,-129.17C1208.27,-120.06 842.79,-91.5 714.81,-81.5"/>
<polygon fill="midnightblue" stroke="midnightblue" points="714.83,-77.99 704.59,-80.7 714.28,-84.97 714.83,-77.99"/>
</g>
<!-- Node29&#45;&gt;Node3 -->
<g id="edge51" class="edge">
<title>Node29&#45;&gt;Node3</title>
<path fill="none" stroke="midnightblue" d="M1361.73,-294.69C1410.83,-281.39 1481.9,-253.5 1515,-199 1532.53,-170.13 1532.42,-151.94 1515,-123 1505.71,-107.57 1489.17,-97.16 1473.13,-90.27"/>
<polygon fill="midnightblue" stroke="midnightblue" points="1474.39,-87.01 1463.8,-86.61 1471.83,-93.52 1474.39,-87.01"/>
</g>
<!-- Node29&#45;&gt;Node7 -->
<g id="edge52" class="edge">
<title>Node29&#45;&gt;Node7</title>
<path fill="none" stroke="midnightblue" d="M1258.45,-300.06C1147.62,-288.37 888.51,-261.03 787.42,-250.37"/>
<polygon fill="midnightblue" stroke="midnightblue" points="787.61,-246.87 777.3,-249.3 786.88,-253.83 787.61,-246.87"/>
</g>
<!-- Node29&#45;&gt;Node25 -->
<g id="edge50" class="edge">
<title>Node29&#45;&gt;Node25</title>
<path fill="none" stroke="midnightblue" d="M1302.89,-291.36C1288.66,-264.65 1253.98,-206.95 1207,-179 1123.3,-129.2 828.38,-94.31 714.93,-82.45"/>
<polygon fill="midnightblue" stroke="midnightblue" points="715.16,-78.95 704.85,-81.41 714.44,-85.92 715.16,-78.95"/>
</g>
<!-- Node29&#45;&gt;Node27 -->
<g id="edge54" class="edge">
<title>Node29&#45;&gt;Node27</title>
<path fill="none" stroke="midnightblue" d="M1316.25,-291.34C1325.53,-270.34 1342.92,-230.96 1353.07,-207.96"/>
<polygon fill="midnightblue" stroke="midnightblue" points="1356.33,-209.23 1357.17,-198.67 1349.93,-206.4 1356.33,-209.23"/>
</g>
<!-- Node29&#45;&gt;Node28 -->
<g id="edge53" class="edge">
<title>Node29&#45;&gt;Node28</title>
<path fill="none" stroke="midnightblue" d="M1328.29,-291.3C1350.42,-272.83 1386.52,-238.24 1401,-199 1407.75,-180.71 1393.53,-161.98 1380.21,-149.35"/>
<polygon fill="midnightblue" stroke="midnightblue" points="1382.46,-146.66 1372.64,-142.67 1377.83,-151.91 1382.46,-146.66"/>
</g>
</g>
</svg>
