<?xml version="1.0" encoding="UTF-8" standalone="no"?>
<!DOCTYPE svg PUBLIC "-//W3C//DTD SVG 1.1//EN"
 "http://www.w3.org/Graphics/SVG/1.1/DTD/svg11.dtd">
<!-- Generated by graphviz version 2.43.0 (0)
 -->
<!-- Title: include/states/leaderboard_menu.hpp Pages: 1 -->
<svg width="1508pt" height="330pt"
 viewBox="0.00 0.00 1507.50 330.00" xmlns="http://www.w3.org/2000/svg" xmlns:xlink="http://www.w3.org/1999/xlink">
<g id="graph0" class="graph" transform="scale(1 1) rotate(0) translate(4 326)">
<title>include/states/leaderboard_menu.hpp</title>
<polygon fill="white" stroke="transparent" points="-4,4 -4,-326 1503.5,-326 1503.5,4 -4,4"/>
<!-- Node1 -->
<g id="node1" class="node">
<title>Node1</title>
<g id="a_node1"><a xlink:title="Definição da classe LeaderboardMenu, que representa o estado da tela de ranking.">
<polygon fill="#bfbfbf" stroke="black" points="933,-291.5 933,-321.5 1079,-321.5 1079,-291.5 933,-291.5"/>
<text text-anchor="start" x="941" y="-309.5" font-family="Helvetica,sans-Serif" font-size="10.00">include/states/leaderboard</text>
<text text-anchor="middle" x="1006" y="-298.5" font-family="Helvetica,sans-Serif" font-size="10.00">_menu.hpp</text>
</a>
</g>
</g>
<!-- Node2 -->
<g id="node2" class="node">
<title>Node2</title>
<g id="a_node2"><a xlink:href="defines_8hpp.html" target="_top" xlink:title="Constantes globais, macros e estruturas auxiliares do jogo.">
<polygon fill="white" stroke="black" points="1372,-67.5 1372,-86.5 1454,-86.5 1454,-67.5 1372,-67.5"/>
<text text-anchor="middle" x="1413" y="-74.5" font-family="Helvetica,sans-Serif" font-size="10.00">../defines.hpp</text>
</a>
</g>
</g>
<!-- Node1&#45;&gt;Node2 -->
<g id="edge1" class="edge">
<title>Node1&#45;&gt;Node2</title>
<path fill="none" stroke="midnightblue" d="M1079.11,-302.7C1161.62,-295.84 1295.44,-273.11 1381,-199 1410.6,-173.36 1414.38,-123.84 1414.03,-96.78"/>
<polygon fill="midnightblue" stroke="midnightblue" points="1417.52,-96.57 1413.69,-86.69 1410.53,-96.8 1417.52,-96.57"/>
</g>
<!-- Node6 -->
<g id="node6" class="node">
<title>Node6</title>
<g id="a_node6"><a xlink:href="init_8hpp.html" target="_top" xlink:title="Declara funções de inicialização e finalização do Allegro.">
<polygon fill="white" stroke="black" points="745,-235.5 745,-254.5 807,-254.5 807,-235.5 745,-235.5"/>
<text text-anchor="middle" x="776" y="-242.5" font-family="Helvetica,sans-Serif" font-size="10.00">../init.hpp</text>
</a>
</g>
</g>
<!-- Node1&#45;&gt;Node6 -->
<g id="edge5" class="edge">
<title>Node1&#45;&gt;Node6</title>
<path fill="none" stroke="midnightblue" d="M951.78,-291.47C910.63,-280.83 854.9,-266.41 817.32,-256.69"/>
<polygon fill="midnightblue" stroke="midnightblue" points="817.78,-253.19 807.22,-254.08 816.03,-259.97 817.78,-253.19"/>
</g>
<!-- Node24 -->
<g id="node24" class="node">
<title>Node24</title>
<g id="a_node24"><a xlink:href="assets_8hpp.html" target="_top" xlink:title="Declara classes utilitárias para carregar e usar imagens, sons e fontes no Allegro.">
<polygon fill="white" stroke="black" points="582.5,-67.5 582.5,-86.5 651.5,-86.5 651.5,-67.5 582.5,-67.5"/>
<text text-anchor="middle" x="617" y="-74.5" font-family="Helvetica,sans-Serif" font-size="10.00">assets.hpp</text>
</a>
</g>
</g>
<!-- Node1&#45;&gt;Node24 -->
<g id="edge46" class="edge">
<title>Node1&#45;&gt;Node24</title>
<path fill="none" stroke="midnightblue" d="M932.76,-302.54C724.35,-293.39 139.35,-262.22 83,-199 15.5,-123.27 431.76,-89.71 572.03,-80.64"/>
<polygon fill="midnightblue" stroke="midnightblue" points="572.66,-84.11 582.42,-79.98 572.22,-77.12 572.66,-84.11"/>
</g>
<!-- Node26 -->
<g id="node26" class="node">
<title>Node26</title>
<g id="a_node26"><a xlink:href="state_8hpp.html" target="_top" xlink:title="Interface base para estados da máquina de estados do jogo.">
<polygon fill="white" stroke="black" points="1206,-179.5 1206,-198.5 1268,-198.5 1268,-179.5 1206,-179.5"/>
<text text-anchor="middle" x="1237" y="-186.5" font-family="Helvetica,sans-Serif" font-size="10.00">state.hpp</text>
</a>
</g>
</g>
<!-- Node1&#45;&gt;Node26 -->
<g id="edge45" class="edge">
<title>Node1&#45;&gt;Node26</title>
<path fill="none" stroke="midnightblue" d="M1034.33,-291.34C1079.46,-268.77 1167.07,-224.97 1210.82,-203.09"/>
<polygon fill="midnightblue" stroke="midnightblue" points="1212.58,-206.12 1219.96,-198.52 1209.45,-199.86 1212.58,-206.12"/>
</g>
<!-- Node3 -->
<g id="node3" class="node">
<title>Node3</title>
<g id="a_node3"><a xlink:title=" ">
<polygon fill="white" stroke="#bfbfbf" points="1387.5,-6 1387.5,-25 1434.5,-25 1434.5,-6 1387.5,-6"/>
<text text-anchor="middle" x="1411" y="-13" font-family="Helvetica,sans-Serif" font-size="10.00">cmath</text>
</a>
</g>
</g>
<!-- Node2&#45;&gt;Node3 -->
<g id="edge2" class="edge">
<title>Node2&#45;&gt;Node3</title>
<path fill="none" stroke="midnightblue" d="M1412.71,-67.48C1412.43,-59.08 1411.99,-45.98 1411.63,-35.16"/>
<polygon fill="midnightblue" stroke="midnightblue" points="1415.12,-34.89 1411.29,-25.01 1408.12,-35.12 1415.12,-34.89"/>
</g>
<!-- Node4 -->
<g id="node4" class="node">
<title>Node4</title>
<g id="a_node4"><a xlink:title=" ">
<polygon fill="white" stroke="#bfbfbf" points="1322,-6 1322,-25 1366,-25 1366,-6 1322,-6"/>
<text text-anchor="middle" x="1344" y="-13" font-family="Helvetica,sans-Serif" font-size="10.00">string</text>
</a>
</g>
</g>
<!-- Node2&#45;&gt;Node4 -->
<g id="edge3" class="edge">
<title>Node2&#45;&gt;Node4</title>
<path fill="none" stroke="midnightblue" d="M1403.11,-67.48C1392.35,-58.2 1374.93,-43.17 1361.78,-31.83"/>
<polygon fill="midnightblue" stroke="midnightblue" points="1363.73,-28.89 1353.87,-25.01 1359.16,-34.19 1363.73,-28.89"/>
</g>
<!-- Node5 -->
<g id="node5" class="node">
<title>Node5</title>
<g id="a_node5"><a xlink:title=" ">
<polygon fill="white" stroke="#bfbfbf" points="1452.5,-6 1452.5,-25 1499.5,-25 1499.5,-6 1452.5,-6"/>
<text text-anchor="middle" x="1476" y="-13" font-family="Helvetica,sans-Serif" font-size="10.00">vector</text>
</a>
</g>
</g>
<!-- Node2&#45;&gt;Node5 -->
<g id="edge4" class="edge">
<title>Node2&#45;&gt;Node5</title>
<path fill="none" stroke="midnightblue" d="M1422.03,-67.48C1431.76,-58.28 1447.46,-43.46 1459.42,-32.16"/>
<polygon fill="midnightblue" stroke="midnightblue" points="1462.12,-34.42 1466.99,-25.01 1457.32,-29.33 1462.12,-34.42"/>
</g>
<!-- Node6&#45;&gt;Node2 -->
<g id="edge35" class="edge">
<title>Node6&#45;&gt;Node2</title>
<path fill="none" stroke="midnightblue" d="M807.28,-243.42C921.63,-241.06 1312.7,-230.71 1358,-199 1392.39,-174.93 1405.68,-123.96 1410.49,-96.48"/>
<polygon fill="midnightblue" stroke="midnightblue" points="1413.95,-97.01 1412.03,-86.59 1407.03,-95.93 1413.95,-97.01"/>
</g>
<!-- Node6&#45;&gt;Node4 -->
<g id="edge14" class="edge">
<title>Node6&#45;&gt;Node4</title>
<path fill="none" stroke="midnightblue" d="M807.21,-243.12C910.93,-239.92 1239.71,-227.6 1277,-199 1329.43,-158.79 1340.85,-73.37 1343.32,-35.39"/>
<polygon fill="midnightblue" stroke="midnightblue" points="1346.83,-35.39 1343.84,-25.22 1339.84,-35.03 1346.83,-35.39"/>
</g>
<!-- Node7 -->
<g id="node7" class="node">
<title>Node7</title>
<g id="a_node7"><a xlink:title=" ">
<polygon fill="white" stroke="#bfbfbf" points="828.5,-179.5 828.5,-198.5 879.5,-198.5 879.5,-179.5 828.5,-179.5"/>
<text text-anchor="middle" x="854" y="-186.5" font-family="Helvetica,sans-Serif" font-size="10.00">math.h</text>
</a>
</g>
</g>
<!-- Node6&#45;&gt;Node7 -->
<g id="edge6" class="edge">
<title>Node6&#45;&gt;Node7</title>
<path fill="none" stroke="midnightblue" d="M788.53,-235.32C800.59,-226.98 819.03,-214.21 833.27,-204.35"/>
<polygon fill="midnightblue" stroke="midnightblue" points="835.27,-207.22 841.5,-198.65 831.28,-201.47 835.27,-207.22"/>
</g>
<!-- Node8 -->
<g id="node8" class="node">
<title>Node8</title>
<g id="a_node8"><a xlink:title=" ">
<polygon fill="white" stroke="#bfbfbf" points="936,-179.5 936,-198.5 1000,-198.5 1000,-179.5 936,-179.5"/>
<text text-anchor="middle" x="968" y="-186.5" font-family="Helvetica,sans-Serif" font-size="10.00">algorithm</text>
</a>
</g>
</g>
<!-- Node6&#45;&gt;Node8 -->
<g id="edge7" class="edge">
<title>Node6&#45;&gt;Node8</title>
<path fill="none" stroke="midnightblue" d="M806.42,-235.44C839.28,-226.2 891.78,-211.44 927.97,-201.26"/>
<polygon fill="midnightblue" stroke="midnightblue" points="929.04,-204.59 937.72,-198.52 927.15,-197.85 929.04,-204.59"/>
</g>
<!-- Node9 -->
<g id="node9" class="node">
<title>Node9</title>
<g id="a_node9"><a xlink:title=" ">
<polygon fill="white" stroke="#bfbfbf" points="1018.5,-179.5 1018.5,-198.5 1073.5,-198.5 1073.5,-179.5 1018.5,-179.5"/>
<text text-anchor="middle" x="1046" y="-186.5" font-family="Helvetica,sans-Serif" font-size="10.00">fstream</text>
</a>
</g>
</g>
<!-- Node6&#45;&gt;Node9 -->
<g id="edge8" class="edge">
<title>Node6&#45;&gt;Node9</title>
<path fill="none" stroke="midnightblue" d="M807,-238.5C849.91,-230.78 930.03,-215.99 1008.14,-199.1"/>
<polygon fill="midnightblue" stroke="midnightblue" points="1009.13,-202.47 1018.15,-196.92 1007.64,-195.63 1009.13,-202.47"/>
</g>
<!-- Node10 -->
<g id="node10" class="node">
<title>Node10</title>
<g id="a_node10"><a xlink:title=" ">
<polygon fill="white" stroke="#bfbfbf" points="505,-6 505,-25 565,-25 565,-6 505,-6"/>
<text text-anchor="middle" x="535" y="-13" font-family="Helvetica,sans-Serif" font-size="10.00">iostream</text>
</a>
</g>
</g>
<!-- Node6&#45;&gt;Node10 -->
<g id="edge9" class="edge">
<title>Node6&#45;&gt;Node10</title>
<path fill="none" stroke="midnightblue" d="M744.98,-242.83C655.46,-239.15 401.44,-226.36 377,-199 321.06,-136.39 449.45,-60 507.91,-29.75"/>
<polygon fill="midnightblue" stroke="midnightblue" points="509.66,-32.79 516.98,-25.13 506.48,-26.55 509.66,-32.79"/>
</g>
<!-- Node11 -->
<g id="node11" class="node">
<title>Node11</title>
<g id="a_node11"><a xlink:title=" ">
<polygon fill="white" stroke="#bfbfbf" points="92,-179.5 92,-198.5 124,-198.5 124,-179.5 92,-179.5"/>
<text text-anchor="middle" x="108" y="-186.5" font-family="Helvetica,sans-Serif" font-size="10.00">list</text>
</a>
</g>
</g>
<!-- Node6&#45;&gt;Node11 -->
<g id="edge10" class="edge">
<title>Node6&#45;&gt;Node11</title>
<path fill="none" stroke="midnightblue" d="M744.83,-242.96C635.69,-239.13 270.52,-224.82 134.03,-198.56"/>
<polygon fill="midnightblue" stroke="midnightblue" points="134.72,-195.13 124.22,-196.57 133.32,-201.99 134.72,-195.13"/>
</g>
<!-- Node12 -->
<g id="node12" class="node">
<title>Node12</title>
<g id="a_node12"><a xlink:title=" ">
<polygon fill="white" stroke="#bfbfbf" points="142,-179.5 142,-198.5 180,-198.5 180,-179.5 142,-179.5"/>
<text text-anchor="middle" x="161" y="-186.5" font-family="Helvetica,sans-Serif" font-size="10.00">map</text>
</a>
</g>
</g>
<!-- Node6&#45;&gt;Node12 -->
<g id="edge11" class="edge">
<title>Node6&#45;&gt;Node12</title>
<path fill="none" stroke="midnightblue" d="M744.83,-243.66C657.32,-242.25 402.19,-235.1 194,-199 192.72,-198.78 191.41,-198.53 190.1,-198.25"/>
<polygon fill="midnightblue" stroke="midnightblue" points="190.6,-194.78 180.06,-195.85 188.97,-201.58 190.6,-194.78"/>
</g>
<!-- Node13 -->
<g id="node13" class="node">
<title>Node13</title>
<g id="a_node13"><a xlink:title=" ">
<polygon fill="white" stroke="#bfbfbf" points="586,-6 586,-25 644,-25 644,-6 586,-6"/>
<text text-anchor="middle" x="615" y="-13" font-family="Helvetica,sans-Serif" font-size="10.00">memory</text>
</a>
</g>
</g>
<!-- Node6&#45;&gt;Node13 -->
<g id="edge12" class="edge">
<title>Node6&#45;&gt;Node13</title>
<path fill="none" stroke="midnightblue" d="M744.67,-240.05C699.21,-233.69 618.17,-219.74 598,-199 556.37,-156.19 552.7,-123.15 573,-67 577.8,-53.73 587.77,-41.49 596.8,-32.38"/>
<polygon fill="midnightblue" stroke="midnightblue" points="599.48,-34.66 604.33,-25.24 594.66,-29.58 599.48,-34.66"/>
</g>
<!-- Node14 -->
<g id="node14" class="node">
<title>Node14</title>
<g id="a_node14"><a xlink:title=" ">
<polygon fill="white" stroke="#bfbfbf" points="236,-179.5 236,-198.5 292,-198.5 292,-179.5 236,-179.5"/>
<text text-anchor="middle" x="264" y="-186.5" font-family="Helvetica,sans-Serif" font-size="10.00">sstream</text>
</a>
</g>
</g>
<!-- Node6&#45;&gt;Node14 -->
<g id="edge13" class="edge">
<title>Node6&#45;&gt;Node14</title>
<path fill="none" stroke="midnightblue" d="M744.77,-242.26C669.14,-237.78 470.25,-224.37 306,-199 304.76,-198.81 303.49,-198.6 302.22,-198.38"/>
<polygon fill="midnightblue" stroke="midnightblue" points="302.86,-194.94 292.38,-196.55 301.57,-201.82 302.86,-194.94"/>
</g>
<!-- Node15 -->
<g id="node15" class="node">
<title>Node15</title>
<g id="a_node15"><a xlink:title=" ">
<polygon fill="white" stroke="#bfbfbf" points="1002,-6 1002,-25 1104,-25 1104,-6 1002,-6"/>
<text text-anchor="middle" x="1053" y="-13" font-family="Helvetica,sans-Serif" font-size="10.00">allegro5/allegro.h</text>
</a>
</g>
</g>
<!-- Node6&#45;&gt;Node15 -->
<g id="edge15" class="edge">
<title>Node6&#45;&gt;Node15</title>
<path fill="none" stroke="midnightblue" d="M807.22,-244.59C880.72,-245.24 1061.32,-242.3 1099,-199 1141.14,-150.58 1091.52,-69.01 1066.15,-33.67"/>
<polygon fill="midnightblue" stroke="midnightblue" points="1068.77,-31.33 1060.02,-25.37 1063.14,-35.49 1068.77,-31.33"/>
</g>
<!-- Node16 -->
<g id="node16" class="node">
<title>Node16</title>
<g id="a_node16"><a xlink:title=" ">
<polygon fill="white" stroke="#bfbfbf" points="688,-6 688,-25 830,-25 830,-6 688,-6"/>
<text text-anchor="middle" x="759" y="-13" font-family="Helvetica,sans-Serif" font-size="10.00">allegro5/allegro_acodec.h</text>
</a>
</g>
</g>
<!-- Node6&#45;&gt;Node16 -->
<g id="edge16" class="edge">
<title>Node6&#45;&gt;Node16</title>
<path fill="none" stroke="midnightblue" d="M807.04,-239.76C844.82,-232.93 902.07,-216.27 889,-179 866.7,-115.43 807.91,-58.25 777.63,-31.88"/>
<polygon fill="midnightblue" stroke="midnightblue" points="779.77,-29.11 769.89,-25.28 775.23,-34.44 779.77,-29.11"/>
</g>
<!-- Node17 -->
<g id="node17" class="node">
<title>Node17</title>
<g id="a_node17"><a xlink:title=" ">
<polygon fill="white" stroke="#bfbfbf" points="849,-6 849,-25 983,-25 983,-6 849,-6"/>
<text text-anchor="middle" x="916" y="-13" font-family="Helvetica,sans-Serif" font-size="10.00">allegro5/allegro_audio.h</text>
</a>
</g>
</g>
<!-- Node6&#45;&gt;Node17 -->
<g id="edge17" class="edge">
<title>Node6&#45;&gt;Node17</title>
<path fill="none" stroke="midnightblue" d="M807.26,-244.33C878.11,-244.35 1047.56,-240.01 1083,-199 1111.87,-165.59 986.59,-68.08 936.19,-31.02"/>
<polygon fill="midnightblue" stroke="midnightblue" points="938.11,-28.09 927.97,-25.03 933.99,-33.75 938.11,-28.09"/>
</g>
<!-- Node18 -->
<g id="node18" class="node">
<title>Node18</title>
<g id="a_node18"><a xlink:title=" ">
<polygon fill="white" stroke="#bfbfbf" points="0,-6 0,-25 138,-25 138,-6 0,-6"/>
<text text-anchor="middle" x="69" y="-13" font-family="Helvetica,sans-Serif" font-size="10.00">allegro5/allegro_image.h</text>
</a>
</g>
</g>
<!-- Node6&#45;&gt;Node18 -->
<g id="edge18" class="edge">
<title>Node6&#45;&gt;Node18</title>
<path fill="none" stroke="midnightblue" d="M744.66,-244.32C615.69,-245.34 130.54,-245.98 83,-199 38.96,-155.48 53.85,-72.49 63.48,-35.32"/>
<polygon fill="midnightblue" stroke="midnightblue" points="66.94,-35.92 66.22,-25.35 60.19,-34.06 66.94,-35.92"/>
</g>
<!-- Node19 -->
<g id="node19" class="node">
<title>Node19</title>
<g id="a_node19"><a xlink:title=" ">
<polygon fill="white" stroke="#bfbfbf" points="193.5,-0.5 193.5,-30.5 322.5,-30.5 322.5,-0.5 193.5,-0.5"/>
<text text-anchor="start" x="201.5" y="-18.5" font-family="Helvetica,sans-Serif" font-size="10.00">allegro5/allegro_native</text>
<text text-anchor="middle" x="258" y="-7.5" font-family="Helvetica,sans-Serif" font-size="10.00">_dialog.h</text>
</a>
</g>
</g>
<!-- Node6&#45;&gt;Node19 -->
<g id="edge19" class="edge">
<title>Node6&#45;&gt;Node19</title>
<path fill="none" stroke="midnightblue" d="M744.87,-243.85C633.89,-242.99 262.24,-237.24 227,-199 186.25,-154.77 221.64,-77.68 243.63,-39.41"/>
<polygon fill="midnightblue" stroke="midnightblue" points="246.79,-40.95 248.88,-30.56 240.77,-37.38 246.79,-40.95"/>
</g>
<!-- Node20 -->
<g id="node20" class="node">
<title>Node20</title>
<g id="a_node20"><a xlink:title=" ">
<polygon fill="white" stroke="#bfbfbf" points="386,-179.5 386,-198.5 526,-198.5 526,-179.5 386,-179.5"/>
<text text-anchor="middle" x="456" y="-186.5" font-family="Helvetica,sans-Serif" font-size="10.00">allegro5/allegro_physfs.h</text>
</a>
</g>
</g>
<!-- Node6&#45;&gt;Node20 -->
<g id="edge20" class="edge">
<title>Node6&#45;&gt;Node20</title>
<path fill="none" stroke="midnightblue" d="M744.73,-238.72C692,-229.83 584.52,-211.69 516.6,-200.23"/>
<polygon fill="midnightblue" stroke="midnightblue" points="516.91,-196.73 506.46,-198.52 515.74,-203.63 516.91,-196.73"/>
</g>
<!-- Node21 -->
<g id="node21" class="node">
<title>Node21</title>
<g id="a_node21"><a xlink:title=" ">
<polygon fill="white" stroke="#bfbfbf" points="1122.5,-6 1122.5,-25 1279.5,-25 1279.5,-6 1122.5,-6"/>
<text text-anchor="middle" x="1201" y="-13" font-family="Helvetica,sans-Serif" font-size="10.00">allegro5/allegro_primitives.h</text>
</a>
</g>
</g>
<!-- Node6&#45;&gt;Node21 -->
<g id="edge21" class="edge">
<title>Node6&#45;&gt;Node21</title>
<path fill="none" stroke="midnightblue" d="M807.07,-243.67C881.8,-242.31 1069.03,-235.26 1118,-199 1172.76,-158.45 1192.3,-73.21 1198.47,-35.33"/>
<polygon fill="midnightblue" stroke="midnightblue" points="1201.97,-35.6 1199.98,-25.2 1195.04,-34.57 1201.97,-35.6"/>
</g>
<!-- Node22 -->
<g id="node22" class="node">
<title>Node22</title>
<g id="a_node22"><a xlink:title=" ">
<polygon fill="white" stroke="#bfbfbf" points="360,-6 360,-25 478,-25 478,-6 360,-6"/>
<text text-anchor="middle" x="419" y="-13" font-family="Helvetica,sans-Serif" font-size="10.00">allegro5/allegro_ttf.h</text>
</a>
</g>
</g>
<!-- Node6&#45;&gt;Node22 -->
<g id="edge22" class="edge">
<title>Node6&#45;&gt;Node22</title>
<path fill="none" stroke="midnightblue" d="M744.81,-242.96C652.83,-239.58 387.5,-227.42 362,-199 318.27,-150.26 375.79,-68.26 404.48,-33.21"/>
<polygon fill="midnightblue" stroke="midnightblue" points="407.32,-35.26 411.07,-25.36 401.96,-30.76 407.32,-35.26"/>
</g>
<!-- Node23 -->
<g id="node23" class="node">
<title>Node23</title>
<g id="a_node23"><a xlink:title=" ">
<polygon fill="white" stroke="#bfbfbf" points="620.5,-179.5 620.5,-198.5 723.5,-198.5 723.5,-179.5 620.5,-179.5"/>
<text text-anchor="middle" x="672" y="-186.5" font-family="Helvetica,sans-Serif" font-size="10.00">allegro5/bitmap.h</text>
</a>
</g>
</g>
<!-- Node6&#45;&gt;Node23 -->
<g id="edge23" class="edge">
<title>Node6&#45;&gt;Node23</title>
<path fill="none" stroke="midnightblue" d="M759.29,-235.32C742.69,-226.7 717,-213.36 697.78,-203.39"/>
<polygon fill="midnightblue" stroke="midnightblue" points="699.16,-200.16 688.67,-198.65 695.93,-206.37 699.16,-200.16"/>
</g>
<!-- Node6&#45;&gt;Node24 -->
<g id="edge24" class="edge">
<title>Node6&#45;&gt;Node24</title>
<path fill="none" stroke="midnightblue" d="M744.76,-239.94C701.82,-233.64 628.02,-220.01 612,-199 589.24,-169.16 600.65,-122.1 609.65,-96.35"/>
<polygon fill="midnightblue" stroke="midnightblue" points="613.02,-97.32 613.25,-86.73 606.46,-94.87 613.02,-97.32"/>
</g>
<!-- Node25 -->
<g id="node25" class="node">
<title>Node25</title>
<g id="a_node25"><a xlink:href="player_8hpp.html" target="_top" xlink:title="Modela um jogador e operações de ranking.">
<polygon fill="white" stroke="black" points="742,-179.5 742,-198.5 810,-198.5 810,-179.5 742,-179.5"/>
<text text-anchor="middle" x="776" y="-186.5" font-family="Helvetica,sans-Serif" font-size="10.00">player.hpp</text>
</a>
</g>
</g>
<!-- Node6&#45;&gt;Node25 -->
<g id="edge36" class="edge">
<title>Node6&#45;&gt;Node25</title>
<path fill="none" stroke="midnightblue" d="M770.83,-235.08C769.32,-227.93 768.89,-217.64 769.54,-208.69"/>
<polygon fill="midnightblue" stroke="midnightblue" points="773.02,-209.13 770.87,-198.75 766.08,-208.2 773.02,-209.13"/>
</g>
<!-- Node6&#45;&gt;Node26 -->
<g id="edge38" class="edge">
<title>Node6&#45;&gt;Node26</title>
<path fill="none" stroke="midnightblue" d="M807.17,-241.59C876.57,-236.01 1048.94,-221 1192,-199 1193.1,-198.83 1194.22,-198.65 1195.34,-198.47"/>
<polygon fill="midnightblue" stroke="midnightblue" points="1196.36,-201.84 1205.59,-196.65 1195.14,-194.95 1196.36,-201.84"/>
</g>
<!-- Node24&#45;&gt;Node4 -->
<g id="edge27" class="edge">
<title>Node24&#45;&gt;Node4</title>
<path fill="none" stroke="midnightblue" d="M651.53,-76C751.13,-75.52 1047.26,-70.59 1289,-31 1296.57,-29.76 1304.61,-27.94 1312.14,-26"/>
<polygon fill="midnightblue" stroke="midnightblue" points="1313.26,-29.32 1322,-23.33 1311.43,-22.57 1313.26,-29.32"/>
</g>
<!-- Node24&#45;&gt;Node10 -->
<g id="edge25" class="edge">
<title>Node24&#45;&gt;Node10</title>
<path fill="none" stroke="midnightblue" d="M605.25,-67.48C592.22,-58.02 570.96,-42.6 555.24,-31.19"/>
<polygon fill="midnightblue" stroke="midnightblue" points="556.88,-28.05 546.73,-25.01 552.77,-33.71 556.88,-28.05"/>
</g>
<!-- Node24&#45;&gt;Node13 -->
<g id="edge26" class="edge">
<title>Node24&#45;&gt;Node13</title>
<path fill="none" stroke="midnightblue" d="M616.71,-67.48C616.43,-59.08 615.99,-45.98 615.63,-35.16"/>
<polygon fill="midnightblue" stroke="midnightblue" points="619.12,-34.89 615.29,-25.01 612.12,-35.12 619.12,-34.89"/>
</g>
<!-- Node24&#45;&gt;Node15 -->
<g id="edge28" class="edge">
<title>Node24&#45;&gt;Node15</title>
<path fill="none" stroke="midnightblue" d="M651.58,-73.18C717.93,-67.47 867.57,-53.18 992,-31 997.9,-29.95 1004.09,-28.68 1010.17,-27.33"/>
<polygon fill="midnightblue" stroke="midnightblue" points="1011.26,-30.67 1020.22,-25.02 1009.69,-23.85 1011.26,-30.67"/>
</g>
<!-- Node24&#45;&gt;Node16 -->
<g id="edge29" class="edge">
<title>Node24&#45;&gt;Node16</title>
<path fill="none" stroke="midnightblue" d="M637.35,-67.48C661.39,-57.4 701.6,-40.55 729.16,-29"/>
<polygon fill="midnightblue" stroke="midnightblue" points="730.82,-32.1 738.69,-25.01 728.12,-25.65 730.82,-32.1"/>
</g>
<!-- Node24&#45;&gt;Node17 -->
<g id="edge30" class="edge">
<title>Node24&#45;&gt;Node17</title>
<path fill="none" stroke="midnightblue" d="M651.59,-69.12C703.58,-58.77 802.24,-39.14 863.24,-27"/>
<polygon fill="midnightblue" stroke="midnightblue" points="863.94,-30.43 873.06,-25.04 862.57,-23.56 863.94,-30.43"/>
</g>
<!-- Node24&#45;&gt;Node18 -->
<g id="edge31" class="edge">
<title>Node24&#45;&gt;Node18</title>
<path fill="none" stroke="midnightblue" d="M582.45,-72.67C509.04,-65.53 332.1,-48.03 184,-31 171.26,-29.53 157.73,-27.9 144.59,-26.27"/>
<polygon fill="midnightblue" stroke="midnightblue" points="145.01,-22.8 134.65,-25.03 144.14,-29.74 145.01,-22.8"/>
</g>
<!-- Node24&#45;&gt;Node19 -->
<g id="edge32" class="edge">
<title>Node24&#45;&gt;Node19</title>
<path fill="none" stroke="midnightblue" d="M582.25,-70.24C524.91,-60.74 409.21,-41.56 332.67,-28.88"/>
<polygon fill="midnightblue" stroke="midnightblue" points="333.04,-25.39 322.6,-27.21 331.9,-32.3 333.04,-25.39"/>
</g>
<!-- Node24&#45;&gt;Node21 -->
<g id="edge33" class="edge">
<title>Node24&#45;&gt;Node21</title>
<path fill="none" stroke="midnightblue" d="M651.67,-73.73C732.64,-68.23 940.39,-53.02 1113,-31 1122.79,-29.75 1133.16,-28.22 1143.22,-26.64"/>
<polygon fill="midnightblue" stroke="midnightblue" points="1143.82,-30.08 1153.14,-25.04 1142.71,-23.17 1143.82,-30.08"/>
</g>
<!-- Node24&#45;&gt;Node22 -->
<g id="edge34" class="edge">
<title>Node24&#45;&gt;Node22</title>
<path fill="none" stroke="midnightblue" d="M588.63,-67.48C554.08,-57.09 495.58,-39.51 457.12,-27.95"/>
<polygon fill="midnightblue" stroke="midnightblue" points="457.9,-24.54 447.32,-25.01 455.89,-31.24 457.9,-24.54"/>
</g>
<!-- Node25&#45;&gt;Node6 -->
<g id="edge37" class="edge">
<title>Node25&#45;&gt;Node6</title>
<path fill="none" stroke="midnightblue" d="M781.13,-198.75C782.66,-205.86 783.1,-216.14 782.47,-225.1"/>
<polygon fill="midnightblue" stroke="midnightblue" points="778.99,-224.71 781.17,-235.08 785.93,-225.62 778.99,-224.71"/>
</g>
<!-- Node26&#45;&gt;Node2 -->
<g id="edge40" class="edge">
<title>Node26&#45;&gt;Node2</title>
<path fill="none" stroke="midnightblue" d="M1250.81,-179.37C1281.14,-160.41 1353.8,-115 1390.69,-91.94"/>
<polygon fill="midnightblue" stroke="midnightblue" points="1392.63,-94.86 1399.25,-86.59 1388.92,-88.92 1392.63,-94.86"/>
</g>
<!-- Node26&#45;&gt;Node15 -->
<g id="edge39" class="edge">
<title>Node26&#45;&gt;Node15</title>
<path fill="none" stroke="midnightblue" d="M1229.09,-179.47C1210.19,-159.23 1160.7,-107.04 1116,-67 1101.92,-54.38 1085.19,-41.04 1072.51,-31.24"/>
<polygon fill="midnightblue" stroke="midnightblue" points="1074.53,-28.38 1064.46,-25.08 1070.27,-33.94 1074.53,-28.38"/>
</g>
<!-- Node27 -->
<g id="node27" class="node">
<title>Node27</title>
<g id="a_node27"><a xlink:href="motion_8hpp.html" target="_top" xlink:title="Gerencia efeitos de parallax e animações de cenário.">
<polygon fill="white" stroke="black" points="1206,-123.5 1206,-142.5 1278,-142.5 1278,-123.5 1206,-123.5"/>
<text text-anchor="middle" x="1242" y="-130.5" font-family="Helvetica,sans-Serif" font-size="10.00">motion.hpp</text>
</a>
</g>
</g>
<!-- Node26&#45;&gt;Node27 -->
<g id="edge41" class="edge">
<title>Node26&#45;&gt;Node27</title>
<path fill="none" stroke="midnightblue" d="M1237.83,-179.08C1238.48,-172.01 1239.42,-161.86 1240.24,-152.99"/>
<polygon fill="midnightblue" stroke="midnightblue" points="1243.75,-153.03 1241.19,-142.75 1236.78,-152.39 1243.75,-153.03"/>
</g>
<!-- Node27&#45;&gt;Node2 -->
<g id="edge44" class="edge">
<title>Node27&#45;&gt;Node2</title>
<path fill="none" stroke="midnightblue" d="M1269.1,-123.44C1297.99,-114.32 1343.92,-99.81 1376.11,-89.65"/>
<polygon fill="midnightblue" stroke="midnightblue" points="1377.55,-92.87 1386.03,-86.52 1375.44,-86.19 1377.55,-92.87"/>
</g>
<!-- Node27&#45;&gt;Node21 -->
<g id="edge42" class="edge">
<title>Node27&#45;&gt;Node21</title>
<path fill="none" stroke="midnightblue" d="M1238.92,-123.32C1232.27,-104.59 1216.46,-60.05 1207.49,-34.79"/>
<polygon fill="midnightblue" stroke="midnightblue" points="1210.76,-33.54 1204.12,-25.28 1204.16,-35.88 1210.76,-33.54"/>
</g>
<!-- Node27&#45;&gt;Node24 -->
<g id="edge43" class="edge">
<title>Node27&#45;&gt;Node24</title>
<path fill="none" stroke="midnightblue" d="M1205.7,-128.86C1097.96,-119.56 780.24,-92.1 662,-81.89"/>
<polygon fill="midnightblue" stroke="midnightblue" points="662.12,-78.39 651.85,-81.01 661.52,-85.36 662.12,-78.39"/>
</g>
</g>
</svg>
