<?xml version="1.0" encoding="UTF-8" standalone="no"?>
<!DOCTYPE svg PUBLIC "-//W3C//DTD SVG 1.1//EN"
 "http://www.w3.org/Graphics/SVG/1.1/DTD/svg11.dtd">
<!-- Generated by graphviz version 2.43.0 (0)
 -->
<!-- Title: src/states/load_game.cpp Pages: 1 -->
<svg width="1878pt" height="565pt"
 viewBox="0.00 0.00 1878.00 565.00" xmlns="http://www.w3.org/2000/svg" xmlns:xlink="http://www.w3.org/1999/xlink">
<g id="graph0" class="graph" transform="scale(1 1) rotate(0) translate(4 561)">
<title>src/states/load_game.cpp</title>
<polygon fill="white" stroke="transparent" points="-4,4 -4,-561 1874,-561 1874,4 -4,4"/>
<!-- Node1 -->
<g id="node1" class="node">
<title>Node1</title>
<g id="a_node1"><a xlink:title="Implementação da classe LoadName, responsável pela tela de inserção de nome do jogador.">
<polygon fill="#bfbfbf" stroke="black" points="130.5,-537.5 130.5,-556.5 271.5,-556.5 271.5,-537.5 130.5,-537.5"/>
<text text-anchor="middle" x="201" y="-544.5" font-family="Helvetica,sans-Serif" font-size="10.00">src/states/load_game.cpp</text>
</a>
</g>
</g>
<!-- Node2 -->
<g id="node2" class="node">
<title>Node2</title>
<g id="a_node2"><a xlink:href="load__game_8hpp.html" target="_top" xlink:title="Definição da classe LoadName, que representa o estado de inserção de nome.">
<polygon fill="white" stroke="black" points="142.5,-291.5 142.5,-321.5 245.5,-321.5 245.5,-291.5 142.5,-291.5"/>
<text text-anchor="start" x="150.5" y="-309.5" font-family="Helvetica,sans-Serif" font-size="10.00">../../include/states</text>
<text text-anchor="middle" x="194" y="-298.5" font-family="Helvetica,sans-Serif" font-size="10.00">/load_game.hpp</text>
</a>
</g>
</g>
<!-- Node1&#45;&gt;Node2 -->
<g id="edge1" class="edge">
<title>Node1&#45;&gt;Node2</title>
<path fill="none" stroke="midnightblue" d="M200.74,-537.23C199.76,-503.81 196.24,-383.69 194.71,-331.73"/>
<polygon fill="midnightblue" stroke="midnightblue" points="198.21,-331.63 194.42,-321.74 191.21,-331.84 198.21,-331.63"/>
</g>
<!-- Node3 -->
<g id="node3" class="node">
<title>Node3</title>
<g id="a_node3"><a xlink:title=" ">
<polygon fill="white" stroke="#bfbfbf" points="0,-6 0,-25 58,-25 58,-6 0,-6"/>
<text text-anchor="middle" x="29" y="-13" font-family="Helvetica,sans-Serif" font-size="10.00">memory</text>
</a>
</g>
</g>
<!-- Node1&#45;&gt;Node3 -->
<g id="edge49" class="edge">
<title>Node1&#45;&gt;Node3</title>
<path fill="none" stroke="midnightblue" d="M163.9,-537.41C113.6,-523.32 30,-490.1 30,-425 30,-425 30,-425 30,-132 30,-97.86 29.56,-58.05 29.26,-35.21"/>
<polygon fill="midnightblue" stroke="midnightblue" points="32.76,-35.15 29.13,-25.19 25.76,-35.24 32.76,-35.15"/>
</g>
<!-- Node8 -->
<g id="node8" class="node">
<title>Node8</title>
<g id="a_node8"><a xlink:href="init_8hpp.html" target="_top" xlink:title="Declara funções de inicialização e finalização do Allegro.">
<polygon fill="white" stroke="black" points="839,-235.5 839,-254.5 901,-254.5 901,-235.5 839,-235.5"/>
<text text-anchor="middle" x="870" y="-242.5" font-family="Helvetica,sans-Serif" font-size="10.00">../init.hpp</text>
</a>
</g>
</g>
<!-- Node1&#45;&gt;Node8 -->
<g id="edge51" class="edge">
<title>Node1&#45;&gt;Node8</title>
<path fill="none" stroke="midnightblue" d="M212.12,-537.31C234.11,-519.07 281,-474.36 281,-425 281,-425 281,-425 281,-367 281,-255.07 694.29,-245.76 828.48,-245.68"/>
<polygon fill="midnightblue" stroke="midnightblue" points="828.74,-249.18 838.75,-245.69 828.75,-242.18 828.74,-249.18"/>
</g>
<!-- Node25 -->
<g id="node25" class="node">
<title>Node25</title>
<g id="a_node25"><a xlink:href="assets_8hpp.html" target="_top" xlink:title="Declara classes utilitárias para carregar e usar imagens, sons e fontes no Allegro.">
<polygon fill="white" stroke="black" points="404.5,-67.5 404.5,-86.5 473.5,-86.5 473.5,-67.5 404.5,-67.5"/>
<text text-anchor="middle" x="439" y="-74.5" font-family="Helvetica,sans-Serif" font-size="10.00">assets.hpp</text>
</a>
</g>
</g>
<!-- Node1&#45;&gt;Node25 -->
<g id="edge50" class="edge">
<title>Node1&#45;&gt;Node25</title>
<path fill="none" stroke="midnightblue" d="M178.14,-537.47C140.11,-521.63 68,-483.84 68,-425 68,-425 68,-425 68,-244 68,-102.56 295.45,-80.84 394.17,-78.08"/>
<polygon fill="midnightblue" stroke="midnightblue" points="394.51,-81.57 404.43,-77.85 394.35,-74.57 394.51,-81.57"/>
</g>
<!-- Node29 -->
<g id="node29" class="node">
<title>Node29</title>
<g id="a_node29"><a xlink:href="main__menu_8hpp.html" target="_top" xlink:title="Definição da classe MainMenu, o estado que representa o menu principal do jogo.">
<polygon fill="white" stroke="black" points="1165.5,-291.5 1165.5,-321.5 1268.5,-321.5 1268.5,-291.5 1165.5,-291.5"/>
<text text-anchor="start" x="1173.5" y="-309.5" font-family="Helvetica,sans-Serif" font-size="10.00">../../include/states</text>
<text text-anchor="middle" x="1217" y="-298.5" font-family="Helvetica,sans-Serif" font-size="10.00">/main_menu.hpp</text>
</a>
</g>
</g>
<!-- Node1&#45;&gt;Node29 -->
<g id="edge52" class="edge">
<title>Node1&#45;&gt;Node29</title>
<path fill="none" stroke="midnightblue" d="M237.46,-537.44C388.31,-502.03 964.67,-366.73 1155.34,-321.97"/>
<polygon fill="midnightblue" stroke="midnightblue" points="1156.27,-325.35 1165.2,-319.66 1154.67,-318.54 1156.27,-325.35"/>
</g>
<!-- Node30 -->
<g id="node30" class="node">
<title>Node30</title>
<g id="a_node30"><a xlink:href="play_8hpp.html" target="_top" xlink:title="Declaracao da classe Play, responsavel pelo estado de jogo ativo.">
<polygon fill="white" stroke="black" points="1286.5,-470.5 1286.5,-500.5 1389.5,-500.5 1389.5,-470.5 1286.5,-470.5"/>
<text text-anchor="start" x="1294.5" y="-488.5" font-family="Helvetica,sans-Serif" font-size="10.00">../../include/states</text>
<text text-anchor="middle" x="1338" y="-477.5" font-family="Helvetica,sans-Serif" font-size="10.00">/play.hpp</text>
</a>
</g>
</g>
<!-- Node1&#45;&gt;Node30 -->
<g id="edge58" class="edge">
<title>Node1&#45;&gt;Node30</title>
<path fill="none" stroke="midnightblue" d="M271.69,-542.3C478.67,-531.47 1081.04,-499.95 1276.2,-489.73"/>
<polygon fill="midnightblue" stroke="midnightblue" points="1276.47,-493.22 1286.28,-489.21 1276.11,-486.23 1276.47,-493.22"/>
</g>
<!-- Node2&#45;&gt;Node3 -->
<g id="edge2" class="edge">
<title>Node2&#45;&gt;Node3</title>
<path fill="none" stroke="midnightblue" d="M189.44,-291.36C176.61,-252.87 137.48,-144.02 82,-67 72.41,-53.69 59.01,-40.96 48.09,-31.61"/>
<polygon fill="midnightblue" stroke="midnightblue" points="50.25,-28.86 40.32,-25.17 45.78,-34.25 50.25,-28.86"/>
</g>
<!-- Node4 -->
<g id="node4" class="node">
<title>Node4</title>
<g id="a_node4"><a xlink:href="defines_8hpp.html" target="_top" xlink:title="Constantes globais, macros e estruturas auxiliares do jogo.">
<polygon fill="white" stroke="black" points="1498,-67.5 1498,-86.5 1580,-86.5 1580,-67.5 1498,-67.5"/>
<text text-anchor="middle" x="1539" y="-74.5" font-family="Helvetica,sans-Serif" font-size="10.00">../defines.hpp</text>
</a>
</g>
</g>
<!-- Node2&#45;&gt;Node4 -->
<g id="edge3" class="edge">
<title>Node2&#45;&gt;Node4</title>
<path fill="none" stroke="midnightblue" d="M245.83,-304.15C463,-298.07 1292.59,-270.31 1383,-199 1411.26,-176.71 1385.36,-148.26 1411,-123 1431.59,-102.71 1461.85,-91.54 1487.78,-85.4"/>
<polygon fill="midnightblue" stroke="midnightblue" points="1488.82,-88.75 1497.85,-83.21 1487.33,-81.91 1488.82,-88.75"/>
</g>
<!-- Node2&#45;&gt;Node8 -->
<g id="edge7" class="edge">
<title>Node2&#45;&gt;Node8</title>
<path fill="none" stroke="midnightblue" d="M245.71,-294.42C252.84,-293.13 260.09,-291.94 267,-291 477.01,-262.41 730.82,-250.93 828.72,-247.35"/>
<polygon fill="midnightblue" stroke="midnightblue" points="828.92,-250.85 838.79,-246.99 828.67,-243.85 828.92,-250.85"/>
</g>
<!-- Node2&#45;&gt;Node25 -->
<g id="edge48" class="edge">
<title>Node2&#45;&gt;Node25</title>
<path fill="none" stroke="midnightblue" d="M200.05,-291.47C215.29,-257.7 258.45,-171.17 320,-123 341.76,-105.97 370.68,-94.83 394.56,-87.9"/>
<polygon fill="midnightblue" stroke="midnightblue" points="395.74,-91.21 404.45,-85.18 393.88,-84.46 395.74,-91.21"/>
</g>
<!-- Node27 -->
<g id="node27" class="node">
<title>Node27</title>
<g id="a_node27"><a xlink:href="state_8hpp.html" target="_top" xlink:title="Interface base para estados da máquina de estados do jogo.">
<polygon fill="white" stroke="black" points="1430,-179.5 1430,-198.5 1492,-198.5 1492,-179.5 1430,-179.5"/>
<text text-anchor="middle" x="1461" y="-186.5" font-family="Helvetica,sans-Serif" font-size="10.00">state.hpp</text>
</a>
</g>
</g>
<!-- Node2&#45;&gt;Node27 -->
<g id="edge47" class="edge">
<title>Node2&#45;&gt;Node27</title>
<path fill="none" stroke="midnightblue" d="M245.64,-305.23C460.18,-303.85 1275,-295.95 1382,-255 1408.31,-244.93 1432.35,-222.38 1446.83,-206.69"/>
<polygon fill="midnightblue" stroke="midnightblue" points="1449.81,-208.6 1453.84,-198.8 1444.58,-203.95 1449.81,-208.6"/>
</g>
<!-- Node5 -->
<g id="node5" class="node">
<title>Node5</title>
<g id="a_node5"><a xlink:title=" ">
<polygon fill="white" stroke="#bfbfbf" points="1515.5,-6 1515.5,-25 1562.5,-25 1562.5,-6 1515.5,-6"/>
<text text-anchor="middle" x="1539" y="-13" font-family="Helvetica,sans-Serif" font-size="10.00">cmath</text>
</a>
</g>
</g>
<!-- Node4&#45;&gt;Node5 -->
<g id="edge4" class="edge">
<title>Node4&#45;&gt;Node5</title>
<path fill="none" stroke="midnightblue" d="M1539,-67.48C1539,-59.08 1539,-45.98 1539,-35.16"/>
<polygon fill="midnightblue" stroke="midnightblue" points="1542.5,-35.01 1539,-25.01 1535.5,-35.01 1542.5,-35.01"/>
</g>
<!-- Node6 -->
<g id="node6" class="node">
<title>Node6</title>
<g id="a_node6"><a xlink:title=" ">
<polygon fill="white" stroke="#bfbfbf" points="1026,-6 1026,-25 1070,-25 1070,-6 1026,-6"/>
<text text-anchor="middle" x="1048" y="-13" font-family="Helvetica,sans-Serif" font-size="10.00">string</text>
</a>
</g>
</g>
<!-- Node4&#45;&gt;Node6 -->
<g id="edge5" class="edge">
<title>Node4&#45;&gt;Node6</title>
<path fill="none" stroke="midnightblue" d="M1497.98,-71.03C1402.4,-59.45 1166.45,-30.85 1080.22,-20.4"/>
<polygon fill="midnightblue" stroke="midnightblue" points="1080.58,-16.92 1070.23,-19.19 1079.74,-23.87 1080.58,-16.92"/>
</g>
<!-- Node7 -->
<g id="node7" class="node">
<title>Node7</title>
<g id="a_node7"><a xlink:title=" ">
<polygon fill="white" stroke="#bfbfbf" points="1732.5,-6 1732.5,-25 1779.5,-25 1779.5,-6 1732.5,-6"/>
<text text-anchor="middle" x="1756" y="-13" font-family="Helvetica,sans-Serif" font-size="10.00">vector</text>
</a>
</g>
</g>
<!-- Node4&#45;&gt;Node7 -->
<g id="edge6" class="edge">
<title>Node4&#45;&gt;Node7</title>
<path fill="none" stroke="midnightblue" d="M1570.09,-67.48C1610.58,-56.37 1681.09,-37.04 1722.66,-25.64"/>
<polygon fill="midnightblue" stroke="midnightblue" points="1723.6,-29.01 1732.32,-22.99 1721.75,-22.26 1723.6,-29.01"/>
</g>
<!-- Node8&#45;&gt;Node3 -->
<g id="edge14" class="edge">
<title>Node8&#45;&gt;Node3</title>
<path fill="none" stroke="midnightblue" d="M838.99,-243.08C741.37,-239.92 441.35,-228.03 349,-199 236.93,-163.78 222.25,-124.84 120,-67 97.5,-54.27 71.73,-40 53.37,-29.88"/>
<polygon fill="midnightblue" stroke="midnightblue" points="54.95,-26.76 44.5,-25 51.57,-32.89 54.95,-26.76"/>
</g>
<!-- Node8&#45;&gt;Node4 -->
<g id="edge37" class="edge">
<title>Node8&#45;&gt;Node4</title>
<path fill="none" stroke="midnightblue" d="M901.08,-244.25C962.9,-243.83 1104.91,-238.25 1216,-199 1276.95,-177.47 1280.12,-147.34 1340,-123 1388.25,-103.39 1446.72,-91.46 1487.76,-84.86"/>
<polygon fill="midnightblue" stroke="midnightblue" points="1488.46,-88.29 1497.8,-83.29 1487.38,-81.37 1488.46,-88.29"/>
</g>
<!-- Node8&#45;&gt;Node6 -->
<g id="edge16" class="edge">
<title>Node8&#45;&gt;Node6</title>
<path fill="none" stroke="midnightblue" d="M838.88,-243.17C778.2,-240.83 647.58,-231.99 620,-199 614.3,-192.18 614.93,-186.3 620,-179 673.7,-101.66 930.18,-67.42 1017,-31 1018.37,-30.43 1019.77,-29.82 1021.18,-29.21"/>
<polygon fill="midnightblue" stroke="midnightblue" points="1022.74,-32.34 1030.41,-25.03 1019.85,-25.97 1022.74,-32.34"/>
</g>
<!-- Node9 -->
<g id="node9" class="node">
<title>Node9</title>
<g id="a_node9"><a xlink:title=" ">
<polygon fill="white" stroke="#bfbfbf" points="628.5,-179.5 628.5,-198.5 679.5,-198.5 679.5,-179.5 628.5,-179.5"/>
<text text-anchor="middle" x="654" y="-186.5" font-family="Helvetica,sans-Serif" font-size="10.00">math.h</text>
</a>
</g>
</g>
<!-- Node8&#45;&gt;Node9 -->
<g id="edge8" class="edge">
<title>Node8&#45;&gt;Node9</title>
<path fill="none" stroke="midnightblue" d="M838.91,-236.35C804.74,-227.93 747.97,-213.88 689.4,-199.09"/>
<polygon fill="midnightblue" stroke="midnightblue" points="690.16,-195.67 679.61,-196.61 688.45,-202.45 690.16,-195.67"/>
</g>
<!-- Node10 -->
<g id="node10" class="node">
<title>Node10</title>
<g id="a_node10"><a xlink:title=" ">
<polygon fill="white" stroke="#bfbfbf" points="698,-179.5 698,-198.5 762,-198.5 762,-179.5 698,-179.5"/>
<text text-anchor="middle" x="730" y="-186.5" font-family="Helvetica,sans-Serif" font-size="10.00">algorithm</text>
</a>
</g>
</g>
<!-- Node8&#45;&gt;Node10 -->
<g id="edge9" class="edge">
<title>Node8&#45;&gt;Node10</title>
<path fill="none" stroke="midnightblue" d="M847.82,-235.44C824.57,-226.48 787.85,-212.31 761.58,-202.18"/>
<polygon fill="midnightblue" stroke="midnightblue" points="762.67,-198.85 752.08,-198.52 760.15,-205.38 762.67,-198.85"/>
</g>
<!-- Node11 -->
<g id="node11" class="node">
<title>Node11</title>
<g id="a_node11"><a xlink:title=" ">
<polygon fill="white" stroke="#bfbfbf" points="780.5,-179.5 780.5,-198.5 835.5,-198.5 835.5,-179.5 780.5,-179.5"/>
<text text-anchor="middle" x="808" y="-186.5" font-family="Helvetica,sans-Serif" font-size="10.00">fstream</text>
</a>
</g>
</g>
<!-- Node8&#45;&gt;Node11 -->
<g id="edge10" class="edge">
<title>Node8&#45;&gt;Node11</title>
<path fill="none" stroke="midnightblue" d="M860.04,-235.32C850.87,-227.34 837.06,-215.31 825.97,-205.65"/>
<polygon fill="midnightblue" stroke="midnightblue" points="827.98,-202.76 818.14,-198.83 823.38,-208.04 827.98,-202.76"/>
</g>
<!-- Node12 -->
<g id="node12" class="node">
<title>Node12</title>
<g id="a_node12"><a xlink:title=" ">
<polygon fill="white" stroke="#bfbfbf" points="516,-6 516,-25 576,-25 576,-6 516,-6"/>
<text text-anchor="middle" x="546" y="-13" font-family="Helvetica,sans-Serif" font-size="10.00">iostream</text>
</a>
</g>
</g>
<!-- Node8&#45;&gt;Node12 -->
<g id="edge11" class="edge">
<title>Node8&#45;&gt;Node12</title>
<path fill="none" stroke="midnightblue" d="M838.88,-244.13C768.31,-243.72 599.33,-238.54 562,-199 519.46,-153.94 532.41,-71.75 541.02,-35.05"/>
<polygon fill="midnightblue" stroke="midnightblue" points="544.45,-35.77 543.49,-25.22 537.66,-34.07 544.45,-35.77"/>
</g>
<!-- Node13 -->
<g id="node13" class="node">
<title>Node13</title>
<g id="a_node13"><a xlink:title=" ">
<polygon fill="white" stroke="#bfbfbf" points="854,-179.5 854,-198.5 886,-198.5 886,-179.5 854,-179.5"/>
<text text-anchor="middle" x="870" y="-186.5" font-family="Helvetica,sans-Serif" font-size="10.00">list</text>
</a>
</g>
</g>
<!-- Node8&#45;&gt;Node13 -->
<g id="edge12" class="edge">
<title>Node8&#45;&gt;Node13</title>
<path fill="none" stroke="midnightblue" d="M870,-235.08C870,-228.01 870,-217.86 870,-208.99"/>
<polygon fill="midnightblue" stroke="midnightblue" points="873.5,-208.75 870,-198.75 866.5,-208.75 873.5,-208.75"/>
</g>
<!-- Node14 -->
<g id="node14" class="node">
<title>Node14</title>
<g id="a_node14"><a xlink:title=" ">
<polygon fill="white" stroke="#bfbfbf" points="904,-179.5 904,-198.5 942,-198.5 942,-179.5 904,-179.5"/>
<text text-anchor="middle" x="923" y="-186.5" font-family="Helvetica,sans-Serif" font-size="10.00">map</text>
</a>
</g>
</g>
<!-- Node8&#45;&gt;Node14 -->
<g id="edge13" class="edge">
<title>Node8&#45;&gt;Node14</title>
<path fill="none" stroke="midnightblue" d="M878.75,-235.08C886.47,-227.22 897.9,-215.57 907.22,-206.08"/>
<polygon fill="midnightblue" stroke="midnightblue" points="909.9,-208.34 914.41,-198.75 904.91,-203.44 909.9,-208.34"/>
</g>
<!-- Node15 -->
<g id="node15" class="node">
<title>Node15</title>
<g id="a_node15"><a xlink:title=" ">
<polygon fill="white" stroke="#bfbfbf" points="960,-179.5 960,-198.5 1016,-198.5 1016,-179.5 960,-179.5"/>
<text text-anchor="middle" x="988" y="-186.5" font-family="Helvetica,sans-Serif" font-size="10.00">sstream</text>
</a>
</g>
</g>
<!-- Node8&#45;&gt;Node15 -->
<g id="edge15" class="edge">
<title>Node8&#45;&gt;Node15</title>
<path fill="none" stroke="midnightblue" d="M888.7,-235.44C907.94,-226.64 938.15,-212.81 960.2,-202.72"/>
<polygon fill="midnightblue" stroke="midnightblue" points="961.75,-205.86 969.39,-198.52 958.84,-199.5 961.75,-205.86"/>
</g>
<!-- Node16 -->
<g id="node16" class="node">
<title>Node16</title>
<g id="a_node16"><a xlink:title=" ">
<polygon fill="white" stroke="#bfbfbf" points="906,-6 906,-25 1008,-25 1008,-6 906,-6"/>
<text text-anchor="middle" x="957" y="-13" font-family="Helvetica,sans-Serif" font-size="10.00">allegro5/allegro.h</text>
</a>
</g>
</g>
<!-- Node8&#45;&gt;Node16 -->
<g id="edge17" class="edge">
<title>Node8&#45;&gt;Node16</title>
<path fill="none" stroke="midnightblue" d="M838.83,-243.92C771.98,-243.01 618.26,-236.77 586,-199 580.23,-192.24 581.14,-186.44 586,-179 624.49,-120.12 829.43,-54.02 917.13,-27.95"/>
<polygon fill="midnightblue" stroke="midnightblue" points="918.38,-31.23 926.98,-25.04 916.4,-24.51 918.38,-31.23"/>
</g>
<!-- Node17 -->
<g id="node17" class="node">
<title>Node17</title>
<g id="a_node17"><a xlink:title=" ">
<polygon fill="white" stroke="#bfbfbf" points="594,-6 594,-25 736,-25 736,-6 594,-6"/>
<text text-anchor="middle" x="665" y="-13" font-family="Helvetica,sans-Serif" font-size="10.00">allegro5/allegro_acodec.h</text>
</a>
</g>
</g>
<!-- Node8&#45;&gt;Node17 -->
<g id="edge18" class="edge">
<title>Node8&#45;&gt;Node17</title>
<path fill="none" stroke="midnightblue" d="M838.99,-244.07C770.83,-243.5 611.39,-237.93 578,-199 532.54,-145.99 610.28,-65.15 647.19,-31.75"/>
<polygon fill="midnightblue" stroke="midnightblue" points="649.63,-34.27 654.79,-25.02 644.99,-29.03 649.63,-34.27"/>
</g>
<!-- Node18 -->
<g id="node18" class="node">
<title>Node18</title>
<g id="a_node18"><a xlink:title=" ">
<polygon fill="white" stroke="#bfbfbf" points="754,-6 754,-25 888,-25 888,-6 754,-6"/>
<text text-anchor="middle" x="821" y="-13" font-family="Helvetica,sans-Serif" font-size="10.00">allegro5/allegro_audio.h</text>
</a>
</g>
</g>
<!-- Node8&#45;&gt;Node18 -->
<g id="edge19" class="edge">
<title>Node8&#45;&gt;Node18</title>
<path fill="none" stroke="midnightblue" d="M901.06,-244.43C972.8,-244.7 1146.69,-240.9 1183,-199 1188.82,-192.28 1187.83,-186.46 1183,-179 1145.51,-121.08 945.04,-54.3 859.61,-28"/>
<polygon fill="midnightblue" stroke="midnightblue" points="860.6,-24.64 850.02,-25.07 858.56,-31.34 860.6,-24.64"/>
</g>
<!-- Node19 -->
<g id="node19" class="node">
<title>Node19</title>
<g id="a_node19"><a xlink:title=" ">
<polygon fill="white" stroke="#bfbfbf" points="76,-6 76,-25 214,-25 214,-6 76,-6"/>
<text text-anchor="middle" x="145" y="-13" font-family="Helvetica,sans-Serif" font-size="10.00">allegro5/allegro_image.h</text>
</a>
</g>
</g>
<!-- Node8&#45;&gt;Node19 -->
<g id="edge20" class="edge">
<title>Node8&#45;&gt;Node19</title>
<path fill="none" stroke="midnightblue" d="M838.76,-243.25C745.98,-240.68 473.38,-230.57 391,-199 339.58,-179.29 210.35,-72.02 162.86,-31.77"/>
<polygon fill="midnightblue" stroke="midnightblue" points="164.87,-28.88 154.99,-25.07 160.34,-34.21 164.87,-28.88"/>
</g>
<!-- Node20 -->
<g id="node20" class="node">
<title>Node20</title>
<g id="a_node20"><a xlink:title=" ">
<polygon fill="white" stroke="#bfbfbf" points="232.5,-0.5 232.5,-30.5 361.5,-30.5 361.5,-0.5 232.5,-0.5"/>
<text text-anchor="start" x="240.5" y="-18.5" font-family="Helvetica,sans-Serif" font-size="10.00">allegro5/allegro_native</text>
<text text-anchor="middle" x="297" y="-7.5" font-family="Helvetica,sans-Serif" font-size="10.00">_dialog.h</text>
</a>
</g>
</g>
<!-- Node8&#45;&gt;Node20 -->
<g id="edge21" class="edge">
<title>Node8&#45;&gt;Node20</title>
<path fill="none" stroke="midnightblue" d="M838.96,-244.22C749.45,-244.33 492.69,-240.91 422,-199 359.7,-162.06 321.36,-80.51 305.48,-40.12"/>
<polygon fill="midnightblue" stroke="midnightblue" points="308.67,-38.66 301.84,-30.56 302.13,-41.15 308.67,-38.66"/>
</g>
<!-- Node21 -->
<g id="node21" class="node">
<title>Node21</title>
<g id="a_node21"><a xlink:title=" ">
<polygon fill="white" stroke="#bfbfbf" points="1034,-179.5 1034,-198.5 1174,-198.5 1174,-179.5 1034,-179.5"/>
<text text-anchor="middle" x="1104" y="-186.5" font-family="Helvetica,sans-Serif" font-size="10.00">allegro5/allegro_physfs.h</text>
</a>
</g>
</g>
<!-- Node8&#45;&gt;Node21 -->
<g id="edge22" class="edge">
<title>Node8&#45;&gt;Node21</title>
<path fill="none" stroke="midnightblue" d="M901.07,-236.83C941.03,-227.61 1010.79,-211.51 1057.19,-200.8"/>
<polygon fill="midnightblue" stroke="midnightblue" points="1058.05,-204.2 1067.01,-198.54 1056.47,-197.38 1058.05,-204.2"/>
</g>
<!-- Node22 -->
<g id="node22" class="node">
<title>Node22</title>
<g id="a_node22"><a xlink:title=" ">
<polygon fill="white" stroke="#bfbfbf" points="1298.5,-6 1298.5,-25 1455.5,-25 1455.5,-6 1298.5,-6"/>
<text text-anchor="middle" x="1377" y="-13" font-family="Helvetica,sans-Serif" font-size="10.00">allegro5/allegro_primitives.h</text>
</a>
</g>
</g>
<!-- Node8&#45;&gt;Node22 -->
<g id="edge23" class="edge">
<title>Node8&#45;&gt;Node22</title>
<path fill="none" stroke="midnightblue" d="M901.07,-242.32C972.66,-238.04 1147.07,-225.18 1199,-199 1277.36,-159.5 1341.12,-71.7 1365.89,-34.12"/>
<polygon fill="midnightblue" stroke="midnightblue" points="1369.09,-35.62 1371.57,-25.32 1363.21,-31.82 1369.09,-35.62"/>
</g>
<!-- Node23 -->
<g id="node23" class="node">
<title>Node23</title>
<g id="a_node23"><a xlink:title=" ">
<polygon fill="white" stroke="#bfbfbf" points="380,-6 380,-25 498,-25 498,-6 380,-6"/>
<text text-anchor="middle" x="439" y="-13" font-family="Helvetica,sans-Serif" font-size="10.00">allegro5/allegro_ttf.h</text>
</a>
</g>
</g>
<!-- Node8&#45;&gt;Node23 -->
<g id="edge24" class="edge">
<title>Node8&#45;&gt;Node23</title>
<path fill="none" stroke="midnightblue" d="M838.93,-244.41C753.03,-244.97 514.56,-242.47 452,-199 399.66,-162.64 373.99,-126.81 396,-67 400.97,-53.49 411.34,-41.14 420.65,-32.03"/>
<polygon fill="midnightblue" stroke="midnightblue" points="423.09,-34.53 428.08,-25.18 418.35,-29.38 423.09,-34.53"/>
</g>
<!-- Node24 -->
<g id="node24" class="node">
<title>Node24</title>
<g id="a_node24"><a xlink:title=" ">
<polygon fill="white" stroke="#bfbfbf" points="1586.5,-179.5 1586.5,-198.5 1689.5,-198.5 1689.5,-179.5 1586.5,-179.5"/>
<text text-anchor="middle" x="1638" y="-186.5" font-family="Helvetica,sans-Serif" font-size="10.00">allegro5/bitmap.h</text>
</a>
</g>
</g>
<!-- Node8&#45;&gt;Node24 -->
<g id="edge25" class="edge">
<title>Node8&#45;&gt;Node24</title>
<path fill="none" stroke="midnightblue" d="M901.06,-241.82C1016.2,-233.72 1420.1,-205.32 1575.98,-194.36"/>
<polygon fill="midnightblue" stroke="midnightblue" points="1576.59,-197.83 1586.32,-193.63 1576.1,-190.84 1576.59,-197.83"/>
</g>
<!-- Node8&#45;&gt;Node25 -->
<g id="edge26" class="edge">
<title>Node8&#45;&gt;Node25</title>
<path fill="none" stroke="midnightblue" d="M838.75,-242.46C749.78,-237.82 499.72,-222.76 472,-199 442.2,-173.46 438,-123.9 438.13,-96.8"/>
<polygon fill="midnightblue" stroke="midnightblue" points="441.63,-96.79 438.39,-86.7 434.63,-96.61 441.63,-96.79"/>
</g>
<!-- Node26 -->
<g id="node26" class="node">
<title>Node26</title>
<g id="a_node26"><a xlink:href="player_8hpp.html" target="_top" xlink:title="Modela um jogador e operações de ranking.">
<polygon fill="white" stroke="black" points="1306,-179.5 1306,-198.5 1374,-198.5 1374,-179.5 1306,-179.5"/>
<text text-anchor="middle" x="1340" y="-186.5" font-family="Helvetica,sans-Serif" font-size="10.00">player.hpp</text>
</a>
</g>
</g>
<!-- Node8&#45;&gt;Node26 -->
<g id="edge38" class="edge">
<title>Node8&#45;&gt;Node26</title>
<path fill="none" stroke="midnightblue" d="M901.23,-241.11C970.41,-235.06 1140.85,-219.87 1283,-199 1287.11,-198.4 1291.39,-197.7 1295.71,-196.96"/>
<polygon fill="midnightblue" stroke="midnightblue" points="1296.52,-200.37 1305.76,-195.19 1295.3,-193.47 1296.52,-200.37"/>
</g>
<!-- Node8&#45;&gt;Node27 -->
<g id="edge40" class="edge">
<title>Node8&#45;&gt;Node27</title>
<path fill="none" stroke="midnightblue" d="M901.26,-241.56C981.39,-235.23 1200.66,-217.51 1383,-199 1394.96,-197.79 1407.93,-196.34 1419.8,-194.97"/>
<polygon fill="midnightblue" stroke="midnightblue" points="1420.37,-198.42 1429.9,-193.79 1419.56,-191.47 1420.37,-198.42"/>
</g>
<!-- Node25&#45;&gt;Node3 -->
<g id="edge28" class="edge">
<title>Node25&#45;&gt;Node3</title>
<path fill="none" stroke="midnightblue" d="M404.39,-74.63C338.04,-71.39 188.72,-61.1 67,-31 64.17,-30.3 61.27,-29.45 58.39,-28.52"/>
<polygon fill="midnightblue" stroke="midnightblue" points="59.42,-25.17 48.82,-25.11 57.07,-31.76 59.42,-25.17"/>
</g>
<!-- Node25&#45;&gt;Node6 -->
<g id="edge29" class="edge">
<title>Node25&#45;&gt;Node6</title>
<path fill="none" stroke="midnightblue" d="M473.67,-74.93C582.04,-71.33 913.34,-58.31 1017,-31 1018.98,-30.48 1020.99,-29.83 1022.99,-29.11"/>
<polygon fill="midnightblue" stroke="midnightblue" points="1024.8,-32.14 1032.64,-25.01 1022.07,-25.7 1024.8,-32.14"/>
</g>
<!-- Node25&#45;&gt;Node12 -->
<g id="edge27" class="edge">
<title>Node25&#45;&gt;Node12</title>
<path fill="none" stroke="midnightblue" d="M454.33,-67.48C471.97,-57.67 501.16,-41.43 521.86,-29.92"/>
<polygon fill="midnightblue" stroke="midnightblue" points="523.66,-32.93 530.7,-25.01 520.26,-26.81 523.66,-32.93"/>
</g>
<!-- Node25&#45;&gt;Node16 -->
<g id="edge30" class="edge">
<title>Node25&#45;&gt;Node16</title>
<path fill="none" stroke="midnightblue" d="M473.69,-74.24C550.44,-70 740.23,-57.51 897,-31 902.96,-29.99 909.2,-28.73 915.31,-27.36"/>
<polygon fill="midnightblue" stroke="midnightblue" points="916.47,-30.69 925.41,-25.01 914.88,-23.87 916.47,-30.69"/>
</g>
<!-- Node25&#45;&gt;Node17 -->
<g id="edge31" class="edge">
<title>Node25&#45;&gt;Node17</title>
<path fill="none" stroke="midnightblue" d="M471.38,-67.48C511.24,-56.98 579.02,-39.14 622.89,-27.59"/>
<polygon fill="midnightblue" stroke="midnightblue" points="623.9,-30.94 632.68,-25.01 622.12,-24.17 623.9,-30.94"/>
</g>
<!-- Node25&#45;&gt;Node18 -->
<g id="edge32" class="edge">
<title>Node25&#45;&gt;Node18</title>
<path fill="none" stroke="midnightblue" d="M473.95,-71.35C530.86,-63.67 647.05,-47.54 745,-31 752.46,-29.74 760.32,-28.33 768.03,-26.9"/>
<polygon fill="midnightblue" stroke="midnightblue" points="768.87,-30.31 778.05,-25.02 767.58,-23.43 768.87,-30.31"/>
</g>
<!-- Node25&#45;&gt;Node19 -->
<g id="edge33" class="edge">
<title>Node25&#45;&gt;Node19</title>
<path fill="none" stroke="midnightblue" d="M404.41,-69C353.18,-58.63 256.79,-39.12 197.02,-27.03"/>
<polygon fill="midnightblue" stroke="midnightblue" points="197.53,-23.56 187.03,-25.01 196.14,-30.42 197.53,-23.56"/>
</g>
<!-- Node25&#45;&gt;Node20 -->
<g id="edge34" class="edge">
<title>Node25&#45;&gt;Node20</title>
<path fill="none" stroke="midnightblue" d="M418.65,-67.48C398.16,-58.89 365.93,-45.38 339.79,-34.43"/>
<polygon fill="midnightblue" stroke="midnightblue" points="341.04,-31.16 330.47,-30.52 338.34,-37.62 341.04,-31.16"/>
</g>
<!-- Node25&#45;&gt;Node22 -->
<g id="edge35" class="edge">
<title>Node25&#45;&gt;Node22</title>
<path fill="none" stroke="midnightblue" d="M473.78,-73.79C606.98,-65.34 1087.3,-34.88 1287.95,-22.15"/>
<polygon fill="midnightblue" stroke="midnightblue" points="1288.4,-25.63 1298.15,-21.5 1287.95,-18.64 1288.4,-25.63"/>
</g>
<!-- Node25&#45;&gt;Node23 -->
<g id="edge36" class="edge">
<title>Node25&#45;&gt;Node23</title>
<path fill="none" stroke="midnightblue" d="M439,-67.48C439,-59.08 439,-45.98 439,-35.16"/>
<polygon fill="midnightblue" stroke="midnightblue" points="442.5,-35.01 439,-25.01 435.5,-35.01 442.5,-35.01"/>
</g>
<!-- Node26&#45;&gt;Node8 -->
<g id="edge39" class="edge">
<title>Node26&#45;&gt;Node8</title>
<path fill="none" stroke="midnightblue" d="M1305.85,-198.26C1304.22,-198.52 1302.59,-198.77 1301,-199 1158.97,-219.85 988.69,-235.03 911.47,-241.09"/>
<polygon fill="midnightblue" stroke="midnightblue" points="910.9,-237.63 901.2,-241.89 911.44,-244.6 910.9,-237.63"/>
</g>
<!-- Node27&#45;&gt;Node4 -->
<g id="edge42" class="edge">
<title>Node27&#45;&gt;Node4</title>
<path fill="none" stroke="midnightblue" d="M1469.51,-179.47C1478.01,-170.73 1491.18,-156.54 1501,-143 1512.01,-127.83 1522.61,-109.25 1529.81,-95.85"/>
<polygon fill="midnightblue" stroke="midnightblue" points="1533.04,-97.23 1534.6,-86.75 1526.84,-93.97 1533.04,-97.23"/>
</g>
<!-- Node27&#45;&gt;Node16 -->
<g id="edge41" class="edge">
<title>Node27&#45;&gt;Node16</title>
<path fill="none" stroke="midnightblue" d="M1436.01,-179.5C1353.13,-151.3 1087.23,-60.81 991.64,-28.29"/>
<polygon fill="midnightblue" stroke="midnightblue" points="992.74,-24.96 982.14,-25.06 990.48,-31.59 992.74,-24.96"/>
</g>
<!-- Node28 -->
<g id="node28" class="node">
<title>Node28</title>
<g id="a_node28"><a xlink:href="motion_8hpp.html" target="_top" xlink:title="Gerencia efeitos de parallax e animações de cenário.">
<polygon fill="white" stroke="black" points="1420,-123.5 1420,-142.5 1492,-142.5 1492,-123.5 1420,-123.5"/>
<text text-anchor="middle" x="1456" y="-130.5" font-family="Helvetica,sans-Serif" font-size="10.00">motion.hpp</text>
</a>
</g>
</g>
<!-- Node27&#45;&gt;Node28 -->
<g id="edge43" class="edge">
<title>Node27&#45;&gt;Node28</title>
<path fill="none" stroke="midnightblue" d="M1460.17,-179.08C1459.52,-172.01 1458.58,-161.86 1457.76,-152.99"/>
<polygon fill="midnightblue" stroke="midnightblue" points="1461.22,-152.39 1456.81,-142.75 1454.25,-153.03 1461.22,-152.39"/>
</g>
<!-- Node28&#45;&gt;Node4 -->
<g id="edge46" class="edge">
<title>Node28&#45;&gt;Node4</title>
<path fill="none" stroke="midnightblue" d="M1469.34,-123.32C1482.16,-114.98 1501.78,-102.21 1516.94,-92.35"/>
<polygon fill="midnightblue" stroke="midnightblue" points="1519.22,-95.04 1525.7,-86.65 1515.41,-89.17 1519.22,-95.04"/>
</g>
<!-- Node28&#45;&gt;Node22 -->
<g id="edge44" class="edge">
<title>Node28&#45;&gt;Node22</title>
<path fill="none" stroke="midnightblue" d="M1450.06,-123.32C1437.08,-104.34 1405.97,-58.85 1388.82,-33.79"/>
<polygon fill="midnightblue" stroke="midnightblue" points="1391.54,-31.56 1383.01,-25.28 1385.76,-35.51 1391.54,-31.56"/>
</g>
<!-- Node28&#45;&gt;Node25 -->
<g id="edge45" class="edge">
<title>Node28&#45;&gt;Node25</title>
<path fill="none" stroke="midnightblue" d="M1419.8,-130.08C1264.53,-121.83 654.97,-89.47 483.88,-80.38"/>
<polygon fill="midnightblue" stroke="midnightblue" points="483.88,-76.88 473.71,-79.84 483.51,-83.87 483.88,-76.88"/>
</g>
<!-- Node29&#45;&gt;Node4 -->
<g id="edge54" class="edge">
<title>Node29&#45;&gt;Node4</title>
<path fill="none" stroke="midnightblue" d="M1268.72,-305.77C1323.36,-303.79 1410.16,-293.99 1473,-255 1527.55,-221.15 1537.27,-135.58 1538.82,-97.17"/>
<polygon fill="midnightblue" stroke="midnightblue" points="1542.32,-96.96 1539.08,-86.88 1535.33,-96.79 1542.32,-96.96"/>
</g>
<!-- Node29&#45;&gt;Node8 -->
<g id="edge55" class="edge">
<title>Node29&#45;&gt;Node8</title>
<path fill="none" stroke="midnightblue" d="M1165.43,-296.66C1096.21,-284.79 974.66,-263.95 911.2,-253.06"/>
<polygon fill="midnightblue" stroke="midnightblue" points="911.61,-249.58 901.16,-251.34 910.43,-256.48 911.61,-249.58"/>
</g>
<!-- Node29&#45;&gt;Node25 -->
<g id="edge53" class="edge">
<title>Node29&#45;&gt;Node25</title>
<path fill="none" stroke="midnightblue" d="M1165.43,-305.36C1011.49,-303.89 559.39,-291.6 452,-199 423.03,-174.02 428.54,-123.85 434.24,-96.62"/>
<polygon fill="midnightblue" stroke="midnightblue" points="437.67,-97.32 436.52,-86.79 430.85,-95.74 437.67,-97.32"/>
</g>
<!-- Node29&#45;&gt;Node27 -->
<g id="edge57" class="edge">
<title>Node29&#45;&gt;Node27</title>
<path fill="none" stroke="midnightblue" d="M1268.57,-303.24C1312.5,-299 1375.41,-287.23 1420,-255 1436.18,-243.3 1447.46,-223.06 1454.03,-208.27"/>
<polygon fill="midnightblue" stroke="midnightblue" points="1457.42,-209.24 1457.99,-198.66 1450.95,-206.57 1457.42,-209.24"/>
</g>
<!-- Node29&#45;&gt;Node28 -->
<g id="edge56" class="edge">
<title>Node29&#45;&gt;Node28</title>
<path fill="none" stroke="midnightblue" d="M1268.69,-301.96C1316.39,-296.9 1387.95,-284.63 1443,-255 1474.55,-238.01 1487,-231.98 1501,-199 1508.96,-180.24 1492.55,-161.37 1477.35,-148.83"/>
<polygon fill="midnightblue" stroke="midnightblue" points="1479.26,-145.89 1469.2,-142.56 1474.99,-151.43 1479.26,-145.89"/>
</g>
<!-- Node30&#45;&gt;Node27 -->
<g id="edge78" class="edge">
<title>Node30&#45;&gt;Node27</title>
<path fill="none" stroke="midnightblue" d="M1376.89,-470.3C1393.67,-462.2 1411.94,-450.35 1423,-434 1471.28,-362.61 1467.17,-252.87 1463.17,-209.04"/>
<polygon fill="midnightblue" stroke="midnightblue" points="1466.64,-208.54 1462.14,-198.94 1459.68,-209.25 1466.64,-208.54"/>
</g>
<!-- Node31 -->
<g id="node31" class="node">
<title>Node31</title>
<g id="a_node31"><a xlink:href="flappy__bird__controller_8hpp.html" target="_top" xlink:title="Declaracao da classe FlappyBird (controlador principal).">
<polygon fill="white" stroke="black" points="1262,-414.5 1262,-433.5 1414,-433.5 1414,-414.5 1262,-414.5"/>
<text text-anchor="middle" x="1338" y="-421.5" font-family="Helvetica,sans-Serif" font-size="10.00">../flappy_bird_controller.hpp</text>
</a>
</g>
</g>
<!-- Node30&#45;&gt;Node31 -->
<g id="edge59" class="edge">
<title>Node30&#45;&gt;Node31</title>
<path fill="none" stroke="midnightblue" d="M1338,-470.4C1338,-462.47 1338,-452.46 1338,-443.86"/>
<polygon fill="midnightblue" stroke="midnightblue" points="1341.5,-443.66 1338,-433.66 1334.5,-443.66 1341.5,-443.66"/>
</g>
<!-- Node31&#45;&gt;Node3 -->
<g id="edge60" class="edge">
<title>Node31&#45;&gt;Node3</title>
<path fill="none" stroke="midnightblue" d="M1261.71,-421.78C1010.12,-417.05 217.88,-396.35 133,-322 121.57,-311.99 54.82,-99.54 34.72,-34.96"/>
<polygon fill="midnightblue" stroke="midnightblue" points="38.03,-33.81 31.72,-25.3 31.35,-35.89 38.03,-33.81"/>
</g>
<!-- Node31&#45;&gt;Node4 -->
<g id="edge67" class="edge">
<title>Node31&#45;&gt;Node4</title>
<path fill="none" stroke="midnightblue" d="M1414.01,-423.39C1481.99,-421.24 1583.07,-411.79 1664,-378 1711.54,-358.15 1756,-359.01 1756,-307.5 1756,-307.5 1756,-307.5 1756,-188 1756,-113.93 1654.17,-89.72 1590.02,-81.82"/>
<polygon fill="midnightblue" stroke="midnightblue" points="1590.4,-78.34 1580.07,-80.69 1589.61,-85.29 1590.4,-78.34"/>
</g>
<!-- Node31&#45;&gt;Node8 -->
<g id="edge69" class="edge">
<title>Node31&#45;&gt;Node8</title>
<path fill="none" stroke="midnightblue" d="M1304.64,-414.47C1245.72,-398.97 1119.84,-363.87 1018,-322 972.64,-303.35 922.34,-276 893.61,-259.7"/>
<polygon fill="midnightblue" stroke="midnightblue" points="895.15,-256.55 884.73,-254.63 891.67,-262.63 895.15,-256.55"/>
</g>
<!-- Node31&#45;&gt;Node25 -->
<g id="edge61" class="edge">
<title>Node31&#45;&gt;Node25</title>
<path fill="none" stroke="midnightblue" d="M1261.71,-422.21C1027.41,-418.8 334,-400.82 334,-307.5 334,-307.5 334,-307.5 334,-188 334,-143.02 380.51,-109.19 411.62,-91.59"/>
<polygon fill="midnightblue" stroke="midnightblue" points="413.59,-94.5 420.71,-86.65 410.25,-88.35 413.59,-94.5"/>
</g>
<!-- Node31&#45;&gt;Node26 -->
<g id="edge77" class="edge">
<title>Node31&#45;&gt;Node26</title>
<path fill="none" stroke="midnightblue" d="M1338.07,-414.43C1338.36,-380.75 1339.42,-256.99 1339.84,-209.1"/>
<polygon fill="midnightblue" stroke="midnightblue" points="1343.34,-208.93 1339.92,-198.9 1336.34,-208.87 1343.34,-208.93"/>
</g>
<!-- Node32 -->
<g id="node32" class="node">
<title>Node32</title>
<g id="a_node32"><a xlink:href="bird_8hpp.html" target="_top" xlink:title="Declaracao da classe Bird (personagem controlavel).">
<polygon fill="white" stroke="black" points="1794,-358.5 1794,-377.5 1850,-377.5 1850,-358.5 1794,-358.5"/>
<text text-anchor="middle" x="1822" y="-365.5" font-family="Helvetica,sans-Serif" font-size="10.00">bird.hpp</text>
</a>
</g>
</g>
<!-- Node31&#45;&gt;Node32 -->
<g id="edge62" class="edge">
<title>Node31&#45;&gt;Node32</title>
<path fill="none" stroke="midnightblue" d="M1414.27,-416.63C1500.74,-409.03 1645.82,-395.19 1770,-378 1774.51,-377.38 1779.23,-376.65 1783.91,-375.9"/>
<polygon fill="midnightblue" stroke="midnightblue" points="1784.7,-379.31 1793.99,-374.21 1783.55,-372.41 1784.7,-379.31"/>
</g>
<!-- Node33 -->
<g id="node33" class="node">
<title>Node33</title>
<g id="a_node33"><a xlink:href="game__object_8hpp.html" target="_top" xlink:title="Classe base abstrata para todos os objetos renderizáveis.">
<polygon fill="white" stroke="black" points="1478.5,-297 1478.5,-316 1579.5,-316 1579.5,-297 1478.5,-297"/>
<text text-anchor="middle" x="1529" y="-304" font-family="Helvetica,sans-Serif" font-size="10.00">game_object.hpp</text>
</a>
</g>
</g>
<!-- Node31&#45;&gt;Node33 -->
<g id="edge68" class="edge">
<title>Node31&#45;&gt;Node33</title>
<path fill="none" stroke="midnightblue" d="M1352.36,-414.32C1385.21,-394.45 1466.08,-345.55 1505.98,-321.42"/>
<polygon fill="midnightblue" stroke="midnightblue" points="1507.99,-324.29 1514.74,-316.12 1504.37,-318.3 1507.99,-324.29"/>
</g>
<!-- Node34 -->
<g id="node34" class="node">
<title>Node34</title>
<g id="a_node34"><a xlink:href="pipe_8hpp.html" target="_top" xlink:title="Declaration of pipe&#45;related classes (Pipe, PipePair, PipeList).">
<polygon fill="white" stroke="black" points="1595.5,-358.5 1595.5,-377.5 1654.5,-377.5 1654.5,-358.5 1595.5,-358.5"/>
<text text-anchor="middle" x="1625" y="-365.5" font-family="Helvetica,sans-Serif" font-size="10.00">pipe.hpp</text>
</a>
</g>
</g>
<!-- Node31&#45;&gt;Node34 -->
<g id="edge70" class="edge">
<title>Node31&#45;&gt;Node34</title>
<path fill="none" stroke="midnightblue" d="M1383.48,-414.44C1439.04,-403.99 1532.17,-386.47 1585.08,-376.51"/>
<polygon fill="midnightblue" stroke="midnightblue" points="1585.93,-379.91 1595.11,-374.62 1584.63,-373.03 1585.93,-379.91"/>
</g>
<!-- Node32&#45;&gt;Node4 -->
<g id="edge64" class="edge">
<title>Node32&#45;&gt;Node4</title>
<path fill="none" stroke="midnightblue" d="M1823.23,-358.21C1825.9,-338.3 1832,-288.16 1832,-246 1832,-246 1832,-246 1832,-188 1832,-148.08 1805.02,-142.17 1770,-123 1713.62,-92.15 1639.3,-82.22 1590.38,-79.15"/>
<polygon fill="midnightblue" stroke="midnightblue" points="1590.52,-75.65 1580.35,-78.59 1590.14,-82.64 1590.52,-75.65"/>
</g>
<!-- Node32&#45;&gt;Node22 -->
<g id="edge63" class="edge">
<title>Node32&#45;&gt;Node22</title>
<path fill="none" stroke="midnightblue" d="M1828.08,-358.36C1841,-339.14 1870,-290.97 1870,-246 1870,-246 1870,-246 1870,-132 1870,-89.63 1590.37,-45.57 1452.3,-26.4"/>
<polygon fill="midnightblue" stroke="midnightblue" points="1452.6,-22.9 1442.21,-25 1451.64,-29.84 1452.6,-22.9"/>
</g>
<!-- Node32&#45;&gt;Node33 -->
<g id="edge65" class="edge">
<title>Node32&#45;&gt;Node33</title>
<path fill="none" stroke="midnightblue" d="M1793.94,-362.01C1750.08,-354.12 1662.67,-338.01 1589,-322 1583.89,-320.89 1578.56,-319.68 1573.26,-318.44"/>
<polygon fill="midnightblue" stroke="midnightblue" points="1573.74,-314.96 1563.2,-316.06 1572.13,-321.77 1573.74,-314.96"/>
</g>
<!-- Node33&#45;&gt;Node8 -->
<g id="edge66" class="edge">
<title>Node33&#45;&gt;Node8</title>
<path fill="none" stroke="midnightblue" d="M1478.38,-300.93C1352.42,-289.56 1026.7,-260.15 911.29,-249.73"/>
<polygon fill="midnightblue" stroke="midnightblue" points="911.38,-246.22 901.11,-248.81 910.75,-253.19 911.38,-246.22"/>
</g>
<!-- Node34&#45;&gt;Node4 -->
<g id="edge74" class="edge">
<title>Node34&#45;&gt;Node4</title>
<path fill="none" stroke="midnightblue" d="M1638.32,-358.46C1664.04,-340.83 1718,-297.67 1718,-246 1718,-246 1718,-246 1718,-188 1718,-127.52 1642.9,-99.24 1589.99,-86.82"/>
<polygon fill="midnightblue" stroke="midnightblue" points="1590.59,-83.36 1580.07,-84.61 1589.07,-90.2 1590.59,-83.36"/>
</g>
<!-- Node34&#45;&gt;Node7 -->
<g id="edge73" class="edge">
<title>Node34&#45;&gt;Node7</title>
<path fill="none" stroke="midnightblue" d="M1648.62,-358.48C1666.46,-351.08 1690.59,-338.89 1707,-322 1749.81,-277.95 1755.6,-258.71 1770,-199 1784.19,-140.16 1769.52,-67.85 1761.07,-34.69"/>
<polygon fill="midnightblue" stroke="midnightblue" points="1764.45,-33.78 1758.5,-25.02 1757.69,-35.58 1764.45,-33.78"/>
</g>
<!-- Node34&#45;&gt;Node8 -->
<g id="edge76" class="edge">
<title>Node34&#45;&gt;Node8</title>
<path fill="none" stroke="midnightblue" d="M1595.48,-365.83C1521.26,-362.54 1321.1,-351.41 1157,-322 1065.49,-305.6 960.45,-274.58 906.38,-257.68"/>
<polygon fill="midnightblue" stroke="midnightblue" points="907.17,-254.26 896.58,-254.6 905.07,-260.94 907.17,-254.26"/>
</g>
<!-- Node34&#45;&gt;Node24 -->
<g id="edge71" class="edge">
<title>Node34&#45;&gt;Node24</title>
<path fill="none" stroke="midnightblue" d="M1635.16,-358.19C1643.91,-349.87 1655.9,-336.54 1661,-322 1674.81,-282.64 1657.99,-233.67 1646.68,-207.85"/>
<polygon fill="midnightblue" stroke="midnightblue" points="1649.77,-206.2 1642.41,-198.58 1643.41,-209.13 1649.77,-206.2"/>
</g>
<!-- Node34&#45;&gt;Node33 -->
<g id="edge75" class="edge">
<title>Node34&#45;&gt;Node33</title>
<path fill="none" stroke="midnightblue" d="M1611.25,-358.48C1595.63,-348.8 1569.94,-332.87 1551.42,-321.39"/>
<polygon fill="midnightblue" stroke="midnightblue" points="1553.07,-318.3 1542.73,-316.01 1549.38,-324.25 1553.07,-318.3"/>
</g>
<!-- Node35 -->
<g id="node35" class="node">
<title>Node35</title>
<g id="a_node35"><a xlink:title=" ">
<polygon fill="white" stroke="#bfbfbf" points="1598,-297 1598,-316 1652,-316 1652,-297 1598,-297"/>
<text text-anchor="middle" x="1625" y="-304" font-family="Helvetica,sans-Serif" font-size="10.00">random</text>
</a>
</g>
</g>
<!-- Node34&#45;&gt;Node35 -->
<g id="edge72" class="edge">
<title>Node34&#45;&gt;Node35</title>
<path fill="none" stroke="midnightblue" d="M1625,-358.48C1625,-350.08 1625,-336.98 1625,-326.16"/>
<polygon fill="midnightblue" stroke="midnightblue" points="1628.5,-326.01 1625,-316.01 1621.5,-326.01 1628.5,-326.01"/>
</g>
</g>
</svg>
