<?xml version="1.0" encoding="UTF-8" standalone="no"?>
<!DOCTYPE svg PUBLIC "-//W3C//DTD SVG 1.1//EN"
 "http://www.w3.org/Graphics/SVG/1.1/DTD/svg11.dtd">
<!-- Generated by graphviz version 2.43.0 (0)
 -->
<!-- Title: include/states/load_game.hpp Pages: 1 -->
<svg width="312pt" height="95pt"
 viewBox="0.00 0.00 312.00 95.00" xmlns="http://www.w3.org/2000/svg" xmlns:xlink="http://www.w3.org/1999/xlink">
<g id="graph0" class="graph" transform="scale(1 1) rotate(0) translate(4 91)">
<title>include/states/load_game.hpp</title>
<polygon fill="white" stroke="transparent" points="-4,4 -4,-91 308,-91 308,4 -4,4"/>
<!-- Node1 -->
<g id="node1" class="node">
<title>Node1</title>
<g id="a_node1"><a xlink:title="Definição da classe LoadName, que representa o estado de inserção de nome.">
<polygon fill="#bfbfbf" stroke="black" points="96,-56.5 96,-86.5 205,-86.5 205,-56.5 96,-56.5"/>
<text text-anchor="start" x="104" y="-74.5" font-family="Helvetica,sans-Serif" font-size="10.00">include/states/load</text>
<text text-anchor="middle" x="150.5" y="-63.5" font-family="Helvetica,sans-Serif" font-size="10.00">_game.hpp</text>
</a>
</g>
</g>
<!-- Node2 -->
<g id="node2" class="node">
<title>Node2</title>
<g id="a_node2"><a xlink:href="load__game_8cpp.html" target="_top" xlink:title="Implementação da classe LoadName, responsável pela tela de inserção de nome do jogador.">
<polygon fill="white" stroke="black" points="0,-0.5 0,-19.5 141,-19.5 141,-0.5 0,-0.5"/>
<text text-anchor="middle" x="70.5" y="-7.5" font-family="Helvetica,sans-Serif" font-size="10.00">src/states/load_game.cpp</text>
</a>
</g>
</g>
<!-- Node1&#45;&gt;Node2 -->
<g id="edge1" class="edge">
<title>Node1&#45;&gt;Node2</title>
<path fill="none" stroke="midnightblue" d="M123.19,-50.19C109.18,-39.77 92.86,-27.63 82.14,-19.66"/>
<polygon fill="midnightblue" stroke="midnightblue" points="121.43,-53.24 131.54,-56.4 125.61,-47.62 121.43,-53.24"/>
</g>
<!-- Node3 -->
<g id="node3" class="node">
<title>Node3</title>
<g id="a_node3"><a xlink:href="main__menu_8cpp.html" target="_top" xlink:title="Implementação da classe MainMenu, o estado principal e tela inicial do jogo.">
<polygon fill="white" stroke="black" points="159,-0.5 159,-19.5 304,-19.5 304,-0.5 159,-0.5"/>
<text text-anchor="middle" x="231.5" y="-7.5" font-family="Helvetica,sans-Serif" font-size="10.00">src/states/main_menu.cpp</text>
</a>
</g>
</g>
<!-- Node1&#45;&gt;Node3 -->
<g id="edge2" class="edge">
<title>Node1&#45;&gt;Node3</title>
<path fill="none" stroke="midnightblue" d="M178.15,-50.19C192.33,-39.77 208.86,-27.63 219.71,-19.66"/>
<polygon fill="midnightblue" stroke="midnightblue" points="175.68,-47.66 169.7,-56.4 179.83,-53.3 175.68,-47.66"/>
</g>
</g>
</svg>
