<?xml version="1.0" encoding="UTF-8" standalone="no"?>
<!DOCTYPE svg PUBLIC "-//W3C//DTD SVG 1.1//EN"
 "http://www.w3.org/Graphics/SVG/1.1/DTD/svg11.dtd">
<!-- Generated by graphviz version 2.43.0 (0)
 -->
<!-- Title: include/states/load_game.hpp Pages: 1 -->
<svg width="1410pt" height="330pt"
 viewBox="0.00 0.00 1409.50 330.00" xmlns="http://www.w3.org/2000/svg" xmlns:xlink="http://www.w3.org/1999/xlink">
<g id="graph0" class="graph" transform="scale(1 1) rotate(0) translate(4 326)">
<title>include/states/load_game.hpp</title>
<polygon fill="white" stroke="transparent" points="-4,4 -4,-326 1405.5,-326 1405.5,4 -4,4"/>
<!-- Node1 -->
<g id="node1" class="node">
<title>Node1</title>
<g id="a_node1"><a xlink:title="Definição da classe LoadName, que representa o estado de inserção de nome.">
<polygon fill="#bfbfbf" stroke="black" points="726.5,-291.5 726.5,-321.5 835.5,-321.5 835.5,-291.5 726.5,-291.5"/>
<text text-anchor="start" x="734.5" y="-309.5" font-family="Helvetica,sans-Serif" font-size="10.00">include/states/load</text>
<text text-anchor="middle" x="781" y="-298.5" font-family="Helvetica,sans-Serif" font-size="10.00">_game.hpp</text>
</a>
</g>
</g>
<!-- Node2 -->
<g id="node2" class="node">
<title>Node2</title>
<g id="a_node2"><a xlink:title=" ">
<polygon fill="white" stroke="#bfbfbf" points="0,-6 0,-25 58,-25 58,-6 0,-6"/>
<text text-anchor="middle" x="29" y="-13" font-family="Helvetica,sans-Serif" font-size="10.00">memory</text>
</a>
</g>
</g>
<!-- Node1&#45;&gt;Node2 -->
<g id="edge1" class="edge">
<title>Node1&#45;&gt;Node2</title>
<path fill="none" stroke="midnightblue" d="M726.36,-303C551.5,-294.3 17,-261.81 17,-190 17,-190 17,-190 17,-132 17,-97.68 22.31,-57.93 25.86,-35.15"/>
<polygon fill="midnightblue" stroke="midnightblue" points="29.34,-35.59 27.48,-25.16 22.43,-34.47 29.34,-35.59"/>
</g>
<!-- Node3 -->
<g id="node3" class="node">
<title>Node3</title>
<g id="a_node3"><a xlink:href="defines_8hpp.html" target="_top" xlink:title="Constantes globais, macros e estruturas auxiliares do jogo.">
<polygon fill="white" stroke="black" points="1297,-67.5 1297,-86.5 1379,-86.5 1379,-67.5 1297,-67.5"/>
<text text-anchor="middle" x="1338" y="-74.5" font-family="Helvetica,sans-Serif" font-size="10.00">../defines.hpp</text>
</a>
</g>
</g>
<!-- Node1&#45;&gt;Node3 -->
<g id="edge2" class="edge">
<title>Node1&#45;&gt;Node3</title>
<path fill="none" stroke="midnightblue" d="M835.93,-303.5C966.98,-297.51 1292.34,-275.15 1364,-199 1387.25,-174.3 1381.55,-155.24 1371,-123 1367.51,-112.34 1360.43,-102.12 1353.71,-94.12"/>
<polygon fill="midnightblue" stroke="midnightblue" points="1356.3,-91.76 1347.02,-86.66 1351.1,-96.44 1356.3,-91.76"/>
</g>
<!-- Node7 -->
<g id="node7" class="node">
<title>Node7</title>
<g id="a_node7"><a xlink:href="init_8hpp.html" target="_top" xlink:title="Declara funções de inicialização e finalização do Allegro.">
<polygon fill="white" stroke="black" points="750,-235.5 750,-254.5 812,-254.5 812,-235.5 750,-235.5"/>
<text text-anchor="middle" x="781" y="-242.5" font-family="Helvetica,sans-Serif" font-size="10.00">../init.hpp</text>
</a>
</g>
</g>
<!-- Node1&#45;&gt;Node7 -->
<g id="edge6" class="edge">
<title>Node1&#45;&gt;Node7</title>
<path fill="none" stroke="midnightblue" d="M781,-291.4C781,-283.47 781,-273.46 781,-264.86"/>
<polygon fill="midnightblue" stroke="midnightblue" points="784.5,-264.66 781,-254.66 777.5,-264.66 784.5,-264.66"/>
</g>
<!-- Node24 -->
<g id="node24" class="node">
<title>Node24</title>
<g id="a_node24"><a xlink:href="assets_8hpp.html" target="_top" xlink:title="Declara classes utilitárias para carregar e usar imagens, sons e fontes no Allegro.">
<polygon fill="white" stroke="black" points="586.5,-67.5 586.5,-86.5 655.5,-86.5 655.5,-67.5 586.5,-67.5"/>
<text text-anchor="middle" x="621" y="-74.5" font-family="Helvetica,sans-Serif" font-size="10.00">assets.hpp</text>
</a>
</g>
</g>
<!-- Node1&#45;&gt;Node24 -->
<g id="edge47" class="edge">
<title>Node1&#45;&gt;Node24</title>
<path fill="none" stroke="midnightblue" d="M726.23,-303.5C598.95,-297.59 289.2,-275.48 226,-199 178.93,-142.04 463.57,-98.38 576.41,-83.51"/>
<polygon fill="midnightblue" stroke="midnightblue" points="576.99,-86.97 586.46,-82.21 576.09,-80.02 576.99,-86.97"/>
</g>
<!-- Node26 -->
<g id="node26" class="node">
<title>Node26</title>
<g id="a_node26"><a xlink:href="state_8hpp.html" target="_top" xlink:title="Interface base para estados da máquina de estados do jogo.">
<polygon fill="white" stroke="black" points="1273,-179.5 1273,-198.5 1335,-198.5 1335,-179.5 1273,-179.5"/>
<text text-anchor="middle" x="1304" y="-186.5" font-family="Helvetica,sans-Serif" font-size="10.00">state.hpp</text>
</a>
</g>
</g>
<!-- Node1&#45;&gt;Node26 -->
<g id="edge46" class="edge">
<title>Node1&#45;&gt;Node26</title>
<path fill="none" stroke="midnightblue" d="M835.98,-293.36C941.39,-270.08 1169.73,-219.65 1263.03,-199.05"/>
<polygon fill="midnightblue" stroke="midnightblue" points="1263.93,-202.43 1272.94,-196.86 1262.42,-195.6 1263.93,-202.43"/>
</g>
<!-- Node4 -->
<g id="node4" class="node">
<title>Node4</title>
<g id="a_node4"><a xlink:title=" ">
<polygon fill="white" stroke="#bfbfbf" points="1289.5,-6 1289.5,-25 1336.5,-25 1336.5,-6 1289.5,-6"/>
<text text-anchor="middle" x="1313" y="-13" font-family="Helvetica,sans-Serif" font-size="10.00">cmath</text>
</a>
</g>
</g>
<!-- Node3&#45;&gt;Node4 -->
<g id="edge3" class="edge">
<title>Node3&#45;&gt;Node4</title>
<path fill="none" stroke="midnightblue" d="M1334.42,-67.48C1330.82,-58.9 1325.15,-45.43 1320.56,-34.48"/>
<polygon fill="midnightblue" stroke="midnightblue" points="1323.68,-32.87 1316.58,-25.01 1317.22,-35.58 1323.68,-32.87"/>
</g>
<!-- Node5 -->
<g id="node5" class="node">
<title>Node5</title>
<g id="a_node5"><a xlink:title=" ">
<polygon fill="white" stroke="#bfbfbf" points="1202,-6 1202,-25 1246,-25 1246,-6 1202,-6"/>
<text text-anchor="middle" x="1224" y="-13" font-family="Helvetica,sans-Serif" font-size="10.00">string</text>
</a>
</g>
</g>
<!-- Node3&#45;&gt;Node5 -->
<g id="edge4" class="edge">
<title>Node3&#45;&gt;Node5</title>
<path fill="none" stroke="midnightblue" d="M1321.67,-67.48C1302.79,-57.62 1271.49,-41.29 1249.42,-29.77"/>
<polygon fill="midnightblue" stroke="midnightblue" points="1250.79,-26.53 1240.3,-25.01 1247.55,-32.74 1250.79,-26.53"/>
</g>
<!-- Node6 -->
<g id="node6" class="node">
<title>Node6</title>
<g id="a_node6"><a xlink:title=" ">
<polygon fill="white" stroke="#bfbfbf" points="1354.5,-6 1354.5,-25 1401.5,-25 1401.5,-6 1354.5,-6"/>
<text text-anchor="middle" x="1378" y="-13" font-family="Helvetica,sans-Serif" font-size="10.00">vector</text>
</a>
</g>
</g>
<!-- Node3&#45;&gt;Node6 -->
<g id="edge5" class="edge">
<title>Node3&#45;&gt;Node6</title>
<path fill="none" stroke="midnightblue" d="M1343.73,-67.48C1349.67,-58.64 1359.12,-44.59 1366.59,-33.48"/>
<polygon fill="midnightblue" stroke="midnightblue" points="1369.61,-35.26 1372.28,-25.01 1363.8,-31.36 1369.61,-35.26"/>
</g>
<!-- Node7&#45;&gt;Node2 -->
<g id="edge13" class="edge">
<title>Node7&#45;&gt;Node2</title>
<path fill="none" stroke="midnightblue" d="M749.88,-243.14C633.26,-239.72 226.1,-225.93 175,-199 103.8,-161.47 55.29,-72.54 37.05,-34.39"/>
<polygon fill="midnightblue" stroke="midnightblue" points="40.1,-32.65 32.71,-25.06 33.75,-35.6 40.1,-32.65"/>
</g>
<!-- Node7&#45;&gt;Node3 -->
<g id="edge36" class="edge">
<title>Node7&#45;&gt;Node3</title>
<path fill="none" stroke="midnightblue" d="M812.14,-243.92C924.97,-243.29 1307.75,-238.26 1344,-199 1369.71,-171.16 1356.26,-122.57 1346.03,-96.23"/>
<polygon fill="midnightblue" stroke="midnightblue" points="1349.16,-94.63 1342.1,-86.72 1342.69,-97.3 1349.16,-94.63"/>
</g>
<!-- Node7&#45;&gt;Node5 -->
<g id="edge15" class="edge">
<title>Node7&#45;&gt;Node5</title>
<path fill="none" stroke="midnightblue" d="M812.03,-243.21C908.34,-240.44 1197.34,-229.61 1225,-199 1230.41,-193.01 1226.58,-80.97 1224.78,-35.47"/>
<polygon fill="midnightblue" stroke="midnightblue" points="1228.28,-35.29 1224.38,-25.44 1221.29,-35.57 1228.28,-35.29"/>
</g>
<!-- Node8 -->
<g id="node8" class="node">
<title>Node8</title>
<g id="a_node8"><a xlink:title=" ">
<polygon fill="white" stroke="#bfbfbf" points="933.5,-179.5 933.5,-198.5 984.5,-198.5 984.5,-179.5 933.5,-179.5"/>
<text text-anchor="middle" x="959" y="-186.5" font-family="Helvetica,sans-Serif" font-size="10.00">math.h</text>
</a>
</g>
</g>
<!-- Node7&#45;&gt;Node8 -->
<g id="edge7" class="edge">
<title>Node7&#45;&gt;Node8</title>
<path fill="none" stroke="midnightblue" d="M809.2,-235.44C840.12,-226.06 889.78,-211 923.37,-200.81"/>
<polygon fill="midnightblue" stroke="midnightblue" points="924.69,-204.07 933.24,-197.82 922.65,-197.37 924.69,-204.07"/>
</g>
<!-- Node9 -->
<g id="node9" class="node">
<title>Node9</title>
<g id="a_node9"><a xlink:title=" ">
<polygon fill="white" stroke="#bfbfbf" points="1079,-179.5 1079,-198.5 1143,-198.5 1143,-179.5 1079,-179.5"/>
<text text-anchor="middle" x="1111" y="-186.5" font-family="Helvetica,sans-Serif" font-size="10.00">algorithm</text>
</a>
</g>
</g>
<!-- Node7&#45;&gt;Node9 -->
<g id="edge8" class="edge">
<title>Node7&#45;&gt;Node9</title>
<path fill="none" stroke="midnightblue" d="M812.16,-239.44C864.49,-231.69 973.32,-215.23 1065,-199 1066.26,-198.78 1067.54,-198.55 1068.84,-198.31"/>
<polygon fill="midnightblue" stroke="midnightblue" points="1069.67,-201.72 1078.86,-196.44 1068.38,-194.84 1069.67,-201.72"/>
</g>
<!-- Node10 -->
<g id="node10" class="node">
<title>Node10</title>
<g id="a_node10"><a xlink:title=" ">
<polygon fill="white" stroke="#bfbfbf" points="1161.5,-179.5 1161.5,-198.5 1216.5,-198.5 1216.5,-179.5 1161.5,-179.5"/>
<text text-anchor="middle" x="1189" y="-186.5" font-family="Helvetica,sans-Serif" font-size="10.00">fstream</text>
</a>
</g>
</g>
<!-- Node7&#45;&gt;Node10 -->
<g id="edge9" class="edge">
<title>Node7&#45;&gt;Node10</title>
<path fill="none" stroke="midnightblue" d="M812.46,-241.45C875.08,-236.09 1019.9,-222.36 1151.35,-198.91"/>
<polygon fill="midnightblue" stroke="midnightblue" points="1151.98,-202.36 1161.19,-197.14 1150.73,-195.47 1151.98,-202.36"/>
</g>
<!-- Node11 -->
<g id="node11" class="node">
<title>Node11</title>
<g id="a_node11"><a xlink:title=" ">
<polygon fill="white" stroke="#bfbfbf" points="828,-6 828,-25 888,-25 888,-6 828,-6"/>
<text text-anchor="middle" x="858" y="-13" font-family="Helvetica,sans-Serif" font-size="10.00">iostream</text>
</a>
</g>
</g>
<!-- Node7&#45;&gt;Node11 -->
<g id="edge10" class="edge">
<title>Node7&#45;&gt;Node11</title>
<path fill="none" stroke="midnightblue" d="M812.17,-239.92C836.83,-234.87 869.73,-223.67 886,-199 920.37,-146.88 886.23,-68.42 867.94,-33.88"/>
<polygon fill="midnightblue" stroke="midnightblue" points="870.94,-32.08 863.06,-25 864.81,-35.45 870.94,-32.08"/>
</g>
<!-- Node12 -->
<g id="node12" class="node">
<title>Node12</title>
<g id="a_node12"><a xlink:title=" ">
<polygon fill="white" stroke="#bfbfbf" points="235,-179.5 235,-198.5 267,-198.5 267,-179.5 235,-179.5"/>
<text text-anchor="middle" x="251" y="-186.5" font-family="Helvetica,sans-Serif" font-size="10.00">list</text>
</a>
</g>
</g>
<!-- Node7&#45;&gt;Node12 -->
<g id="edge11" class="edge">
<title>Node7&#45;&gt;Node12</title>
<path fill="none" stroke="midnightblue" d="M749.84,-243.98C671.44,-243.36 459.82,-238.08 277.01,-198.67"/>
<polygon fill="midnightblue" stroke="midnightblue" points="277.75,-195.25 267.23,-196.52 276.25,-202.08 277.75,-195.25"/>
</g>
<!-- Node13 -->
<g id="node13" class="node">
<title>Node13</title>
<g id="a_node13"><a xlink:title=" ">
<polygon fill="white" stroke="#bfbfbf" points="285,-179.5 285,-198.5 323,-198.5 323,-179.5 285,-179.5"/>
<text text-anchor="middle" x="304" y="-186.5" font-family="Helvetica,sans-Serif" font-size="10.00">map</text>
</a>
</g>
</g>
<!-- Node7&#45;&gt;Node13 -->
<g id="edge12" class="edge">
<title>Node7&#45;&gt;Node13</title>
<path fill="none" stroke="midnightblue" d="M749.9,-243.14C677.95,-240.67 494.46,-231.62 333.23,-198.83"/>
<polygon fill="midnightblue" stroke="midnightblue" points="333.64,-195.34 323.14,-196.74 332.22,-202.19 333.64,-195.34"/>
</g>
<!-- Node14 -->
<g id="node14" class="node">
<title>Node14</title>
<g id="a_node14"><a xlink:title=" ">
<polygon fill="white" stroke="#bfbfbf" points="341,-179.5 341,-198.5 397,-198.5 397,-179.5 341,-179.5"/>
<text text-anchor="middle" x="369" y="-186.5" font-family="Helvetica,sans-Serif" font-size="10.00">sstream</text>
</a>
</g>
</g>
<!-- Node7&#45;&gt;Node14 -->
<g id="edge14" class="edge">
<title>Node7&#45;&gt;Node14</title>
<path fill="none" stroke="midnightblue" d="M749.68,-241.15C685.75,-235.13 535.77,-219.91 411,-199 409.76,-198.79 408.5,-198.57 407.23,-198.34"/>
<polygon fill="midnightblue" stroke="midnightblue" points="407.88,-194.91 397.4,-196.45 406.56,-201.78 407.88,-194.91"/>
</g>
<!-- Node15 -->
<g id="node15" class="node">
<title>Node15</title>
<g id="a_node15"><a xlink:title=" ">
<polygon fill="white" stroke="#bfbfbf" points="906,-6 906,-25 1008,-25 1008,-6 906,-6"/>
<text text-anchor="middle" x="957" y="-13" font-family="Helvetica,sans-Serif" font-size="10.00">allegro5/allegro.h</text>
</a>
</g>
</g>
<!-- Node7&#45;&gt;Node15 -->
<g id="edge16" class="edge">
<title>Node7&#45;&gt;Node15</title>
<path fill="none" stroke="midnightblue" d="M812.36,-242.04C865.73,-237.99 970.62,-226.63 993,-199 1032.76,-149.91 990.74,-69.29 968.7,-33.98"/>
<polygon fill="midnightblue" stroke="midnightblue" points="971.46,-31.8 963.1,-25.29 965.58,-35.59 971.46,-31.8"/>
</g>
<!-- Node16 -->
<g id="node16" class="node">
<title>Node16</title>
<g id="a_node16"><a xlink:title=" ">
<polygon fill="white" stroke="#bfbfbf" points="76,-6 76,-25 218,-25 218,-6 76,-6"/>
<text text-anchor="middle" x="147" y="-13" font-family="Helvetica,sans-Serif" font-size="10.00">allegro5/allegro_acodec.h</text>
</a>
</g>
</g>
<!-- Node7&#45;&gt;Node16 -->
<g id="edge17" class="edge">
<title>Node7&#45;&gt;Node16</title>
<path fill="none" stroke="midnightblue" d="M749.72,-243.68C634.43,-242.24 237.8,-234.7 195,-199 145.75,-157.93 143.75,-72.96 145.54,-35.24"/>
<polygon fill="midnightblue" stroke="midnightblue" points="149.04,-35.35 146.17,-25.15 142.05,-34.92 149.04,-35.35"/>
</g>
<!-- Node17 -->
<g id="node17" class="node">
<title>Node17</title>
<g id="a_node17"><a xlink:title=" ">
<polygon fill="white" stroke="#bfbfbf" points="236,-6 236,-25 370,-25 370,-6 236,-6"/>
<text text-anchor="middle" x="303" y="-13" font-family="Helvetica,sans-Serif" font-size="10.00">allegro5/allegro_audio.h</text>
</a>
</g>
</g>
<!-- Node7&#45;&gt;Node17 -->
<g id="edge18" class="edge">
<title>Node7&#45;&gt;Node17</title>
<path fill="none" stroke="midnightblue" d="M749.82,-243.95C635.88,-243.46 246.83,-238.84 210,-199 161.98,-147.04 244.77,-65.62 284.05,-31.91"/>
<polygon fill="midnightblue" stroke="midnightblue" points="286.73,-34.22 292.14,-25.11 282.23,-28.86 286.73,-34.22"/>
</g>
<!-- Node18 -->
<g id="node18" class="node">
<title>Node18</title>
<g id="a_node18"><a xlink:title=" ">
<polygon fill="white" stroke="#bfbfbf" points="388,-6 388,-25 526,-25 526,-6 388,-6"/>
<text text-anchor="middle" x="457" y="-13" font-family="Helvetica,sans-Serif" font-size="10.00">allegro5/allegro_image.h</text>
</a>
</g>
</g>
<!-- Node7&#45;&gt;Node18 -->
<g id="edge19" class="edge">
<title>Node7&#45;&gt;Node18</title>
<path fill="none" stroke="midnightblue" d="M749.92,-243.88C638.2,-243.12 261.68,-237.69 226,-199 156.73,-123.89 336.51,-54.8 418.62,-28.13"/>
<polygon fill="midnightblue" stroke="midnightblue" points="419.9,-31.39 428.36,-25.01 417.77,-24.72 419.9,-31.39"/>
</g>
<!-- Node19 -->
<g id="node19" class="node">
<title>Node19</title>
<g id="a_node19"><a xlink:title=" ">
<polygon fill="white" stroke="#bfbfbf" points="544.5,-0.5 544.5,-30.5 673.5,-30.5 673.5,-0.5 544.5,-0.5"/>
<text text-anchor="start" x="552.5" y="-18.5" font-family="Helvetica,sans-Serif" font-size="10.00">allegro5/allegro_native</text>
<text text-anchor="middle" x="609" y="-7.5" font-family="Helvetica,sans-Serif" font-size="10.00">_dialog.h</text>
</a>
</g>
</g>
<!-- Node7&#45;&gt;Node19 -->
<g id="edge20" class="edge">
<title>Node7&#45;&gt;Node19</title>
<path fill="none" stroke="midnightblue" d="M749.75,-242.14C670.04,-237.07 464.02,-221.87 444,-199 390.91,-138.35 505.76,-67.94 569.8,-35.12"/>
<polygon fill="midnightblue" stroke="midnightblue" points="571.5,-38.19 578.85,-30.56 568.35,-31.94 571.5,-38.19"/>
</g>
<!-- Node20 -->
<g id="node20" class="node">
<title>Node20</title>
<g id="a_node20"><a xlink:title=" ">
<polygon fill="white" stroke="#bfbfbf" points="453,-179.5 453,-198.5 593,-198.5 593,-179.5 453,-179.5"/>
<text text-anchor="middle" x="523" y="-186.5" font-family="Helvetica,sans-Serif" font-size="10.00">allegro5/allegro_physfs.h</text>
</a>
</g>
</g>
<!-- Node7&#45;&gt;Node20 -->
<g id="edge21" class="edge">
<title>Node7&#45;&gt;Node20</title>
<path fill="none" stroke="midnightblue" d="M749.88,-237.49C706.28,-228.36 626.49,-211.66 574.1,-200.7"/>
<polygon fill="midnightblue" stroke="midnightblue" points="574.52,-197.21 564.01,-198.58 573.08,-204.06 574.52,-197.21"/>
</g>
<!-- Node21 -->
<g id="node21" class="node">
<title>Node21</title>
<g id="a_node21"><a xlink:title=" ">
<polygon fill="white" stroke="#bfbfbf" points="1026.5,-6 1026.5,-25 1183.5,-25 1183.5,-6 1026.5,-6"/>
<text text-anchor="middle" x="1105" y="-13" font-family="Helvetica,sans-Serif" font-size="10.00">allegro5/allegro_primitives.h</text>
</a>
</g>
</g>
<!-- Node7&#45;&gt;Node21 -->
<g id="edge22" class="edge">
<title>Node7&#45;&gt;Node21</title>
<path fill="none" stroke="midnightblue" d="M812.23,-241.34C867.99,-236.05 981.75,-222.64 1013,-199 1068.39,-157.09 1092.86,-72.57 1101.31,-35.1"/>
<polygon fill="midnightblue" stroke="midnightblue" points="1104.79,-35.6 1103.44,-25.09 1097.94,-34.14 1104.79,-35.6"/>
</g>
<!-- Node22 -->
<g id="node22" class="node">
<title>Node22</title>
<g id="a_node22"><a xlink:title=" ">
<polygon fill="white" stroke="#bfbfbf" points="692,-6 692,-25 810,-25 810,-6 692,-6"/>
<text text-anchor="middle" x="751" y="-13" font-family="Helvetica,sans-Serif" font-size="10.00">allegro5/allegro_ttf.h</text>
</a>
</g>
</g>
<!-- Node7&#45;&gt;Node22 -->
<g id="edge23" class="edge">
<title>Node7&#45;&gt;Node22</title>
<path fill="none" stroke="midnightblue" d="M779.86,-235.36C775.47,-202.07 759.59,-81.65 753.45,-35.07"/>
<polygon fill="midnightblue" stroke="midnightblue" points="756.92,-34.61 752.14,-25.15 749.98,-35.52 756.92,-34.61"/>
</g>
<!-- Node23 -->
<g id="node23" class="node">
<title>Node23</title>
<g id="a_node23"><a xlink:title=" ">
<polygon fill="white" stroke="#bfbfbf" points="649.5,-179.5 649.5,-198.5 752.5,-198.5 752.5,-179.5 649.5,-179.5"/>
<text text-anchor="middle" x="701" y="-186.5" font-family="Helvetica,sans-Serif" font-size="10.00">allegro5/bitmap.h</text>
</a>
</g>
</g>
<!-- Node7&#45;&gt;Node23 -->
<g id="edge24" class="edge">
<title>Node7&#45;&gt;Node23</title>
<path fill="none" stroke="midnightblue" d="M768.15,-235.32C755.78,-226.98 736.87,-214.21 722.26,-204.35"/>
<polygon fill="midnightblue" stroke="midnightblue" points="724.07,-201.35 713.82,-198.65 720.15,-207.15 724.07,-201.35"/>
</g>
<!-- Node7&#45;&gt;Node24 -->
<g id="edge25" class="edge">
<title>Node7&#45;&gt;Node24</title>
<path fill="none" stroke="midnightblue" d="M749.79,-243.11C717.28,-240.4 667.35,-230.89 640,-199 615.28,-170.17 615.8,-122.69 618.38,-96.6"/>
<polygon fill="midnightblue" stroke="midnightblue" points="621.87,-96.9 619.58,-86.55 614.92,-96.07 621.87,-96.9"/>
</g>
<!-- Node25 -->
<g id="node25" class="node">
<title>Node25</title>
<g id="a_node25"><a xlink:href="player_8hpp.html" target="_top" xlink:title="Modela um jogador e operações de ranking.">
<polygon fill="white" stroke="black" points="809,-179.5 809,-198.5 877,-198.5 877,-179.5 809,-179.5"/>
<text text-anchor="middle" x="843" y="-186.5" font-family="Helvetica,sans-Serif" font-size="10.00">player.hpp</text>
</a>
</g>
</g>
<!-- Node7&#45;&gt;Node25 -->
<g id="edge37" class="edge">
<title>Node7&#45;&gt;Node25</title>
<path fill="none" stroke="midnightblue" d="M786.07,-235.08C793.74,-226.9 807.51,-214.63 819.72,-204.95"/>
<polygon fill="midnightblue" stroke="midnightblue" points="822.01,-207.61 827.82,-198.75 817.75,-202.05 822.01,-207.61"/>
</g>
<!-- Node7&#45;&gt;Node26 -->
<g id="edge39" class="edge">
<title>Node7&#45;&gt;Node26</title>
<path fill="none" stroke="midnightblue" d="M812.17,-242.19C888.61,-237.5 1091.38,-223.58 1259,-199 1260.1,-198.84 1261.22,-198.67 1262.35,-198.49"/>
<polygon fill="midnightblue" stroke="midnightblue" points="1263.35,-201.87 1272.6,-196.71 1262.15,-194.97 1263.35,-201.87"/>
</g>
<!-- Node24&#45;&gt;Node2 -->
<g id="edge27" class="edge">
<title>Node24&#45;&gt;Node2</title>
<path fill="none" stroke="midnightblue" d="M586.45,-76.56C498.54,-77.26 259.7,-74.65 67,-31 64,-30.32 60.92,-29.45 57.87,-28.48"/>
<polygon fill="midnightblue" stroke="midnightblue" points="58.99,-25.16 48.39,-25.11 56.65,-31.76 58.99,-25.16"/>
</g>
<!-- Node24&#45;&gt;Node5 -->
<g id="edge28" class="edge">
<title>Node24&#45;&gt;Node5</title>
<path fill="none" stroke="midnightblue" d="M655.62,-74.84C763.03,-70.99 1089.56,-57.38 1192,-31 1194.21,-30.43 1196.45,-29.72 1198.68,-28.92"/>
<polygon fill="midnightblue" stroke="midnightblue" points="1200.22,-32.07 1208.12,-25.01 1197.54,-25.6 1200.22,-32.07"/>
</g>
<!-- Node24&#45;&gt;Node11 -->
<g id="edge26" class="edge">
<title>Node24&#45;&gt;Node11</title>
<path fill="none" stroke="midnightblue" d="M655.7,-69.56C695.51,-61.84 762.58,-47.82 819,-31 821.57,-30.23 824.22,-29.38 826.87,-28.49"/>
<polygon fill="midnightblue" stroke="midnightblue" points="828.05,-31.78 836.31,-25.14 825.71,-25.19 828.05,-31.78"/>
</g>
<!-- Node24&#45;&gt;Node15 -->
<g id="edge29" class="edge">
<title>Node24&#45;&gt;Node15</title>
<path fill="none" stroke="midnightblue" d="M655.57,-71.22C708,-63.78 810.63,-48.45 897,-31 902.45,-29.9 908.15,-28.65 913.79,-27.36"/>
<polygon fill="midnightblue" stroke="midnightblue" points="914.84,-30.7 923.78,-25 913.24,-23.89 914.84,-30.7"/>
</g>
<!-- Node24&#45;&gt;Node16 -->
<g id="edge30" class="edge">
<title>Node24&#45;&gt;Node16</title>
<path fill="none" stroke="midnightblue" d="M586.38,-72.82C517.68,-66.33 359.3,-50.52 227,-31 218.67,-29.77 209.88,-28.33 201.29,-26.84"/>
<polygon fill="midnightblue" stroke="midnightblue" points="201.8,-23.37 191.35,-25.07 200.58,-30.26 201.8,-23.37"/>
</g>
<!-- Node24&#45;&gt;Node17 -->
<g id="edge31" class="edge">
<title>Node24&#45;&gt;Node17</title>
<path fill="none" stroke="midnightblue" d="M586.12,-69.57C539.09,-60.88 452.7,-44.88 379,-31 372.17,-29.71 365,-28.35 357.9,-27.01"/>
<polygon fill="midnightblue" stroke="midnightblue" points="358.08,-23.48 347.6,-25.05 356.77,-30.35 358.08,-23.48"/>
</g>
<!-- Node24&#45;&gt;Node18 -->
<g id="edge32" class="edge">
<title>Node24&#45;&gt;Node18</title>
<path fill="none" stroke="midnightblue" d="M597.5,-67.48C569.37,-57.27 522.07,-40.11 490.21,-28.55"/>
<polygon fill="midnightblue" stroke="midnightblue" points="491.05,-25.13 480.45,-25.01 488.66,-31.71 491.05,-25.13"/>
</g>
<!-- Node24&#45;&gt;Node19 -->
<g id="edge33" class="edge">
<title>Node24&#45;&gt;Node19</title>
<path fill="none" stroke="midnightblue" d="M619.28,-67.48C617.85,-60.4 615.75,-49.97 613.82,-40.39"/>
<polygon fill="midnightblue" stroke="midnightblue" points="617.24,-39.63 611.83,-30.52 610.37,-41.02 617.24,-39.63"/>
</g>
<!-- Node24&#45;&gt;Node21 -->
<g id="edge34" class="edge">
<title>Node24&#45;&gt;Node21</title>
<path fill="none" stroke="midnightblue" d="M655.5,-72.67C724.37,-65.89 883.7,-49.54 1017,-31 1026.33,-29.7 1036.2,-28.2 1045.83,-26.67"/>
<polygon fill="midnightblue" stroke="midnightblue" points="1046.42,-30.12 1055.73,-25.07 1045.3,-23.21 1046.42,-30.12"/>
</g>
<!-- Node24&#45;&gt;Node22 -->
<g id="edge35" class="edge">
<title>Node24&#45;&gt;Node22</title>
<path fill="none" stroke="midnightblue" d="M639.63,-67.48C661.44,-57.49 697.8,-40.85 723.02,-29.31"/>
<polygon fill="midnightblue" stroke="midnightblue" points="724.77,-32.35 732.41,-25.01 721.86,-25.99 724.77,-32.35"/>
</g>
<!-- Node25&#45;&gt;Node7 -->
<g id="edge38" class="edge">
<title>Node25&#45;&gt;Node7</title>
<path fill="none" stroke="midnightblue" d="M838.01,-198.83C830.34,-207.03 816.48,-219.38 804.21,-229.1"/>
<polygon fill="midnightblue" stroke="midnightblue" points="801.89,-226.47 796.08,-235.32 806.15,-232.03 801.89,-226.47"/>
</g>
<!-- Node26&#45;&gt;Node3 -->
<g id="edge41" class="edge">
<title>Node26&#45;&gt;Node3</title>
<path fill="none" stroke="midnightblue" d="M1306.97,-179.4C1310.07,-170.37 1315.02,-155.73 1319,-143 1323.88,-127.4 1329.06,-109.56 1332.78,-96.53"/>
<polygon fill="midnightblue" stroke="midnightblue" points="1336.16,-97.44 1335.52,-86.86 1329.43,-95.53 1336.16,-97.44"/>
</g>
<!-- Node26&#45;&gt;Node15 -->
<g id="edge40" class="edge">
<title>Node26&#45;&gt;Node15</title>
<path fill="none" stroke="midnightblue" d="M1286.79,-179.5C1230.48,-151.67 1051.45,-63.18 983.5,-29.6"/>
<polygon fill="midnightblue" stroke="midnightblue" points="984.83,-26.35 974.31,-25.06 981.73,-32.62 984.83,-26.35"/>
</g>
<!-- Node27 -->
<g id="node27" class="node">
<title>Node27</title>
<g id="a_node27"><a xlink:href="motion_8hpp.html" target="_top" xlink:title="Gerencia efeitos de parallax e animações de cenário.">
<polygon fill="white" stroke="black" points="1238,-123.5 1238,-142.5 1310,-142.5 1310,-123.5 1238,-123.5"/>
<text text-anchor="middle" x="1274" y="-130.5" font-family="Helvetica,sans-Serif" font-size="10.00">motion.hpp</text>
</a>
</g>
</g>
<!-- Node26&#45;&gt;Node27 -->
<g id="edge42" class="edge">
<title>Node26&#45;&gt;Node27</title>
<path fill="none" stroke="midnightblue" d="M1299.05,-179.08C1294.9,-171.61 1288.85,-160.72 1283.73,-151.52"/>
<polygon fill="midnightblue" stroke="midnightblue" points="1286.78,-149.79 1278.86,-142.75 1280.66,-153.19 1286.78,-149.79"/>
</g>
<!-- Node27&#45;&gt;Node3 -->
<g id="edge45" class="edge">
<title>Node27&#45;&gt;Node3</title>
<path fill="none" stroke="midnightblue" d="M1284.28,-123.32C1293.84,-115.26 1308.28,-103.08 1319.78,-93.37"/>
<polygon fill="midnightblue" stroke="midnightblue" points="1322.14,-95.96 1327.53,-86.83 1317.63,-90.61 1322.14,-95.96"/>
</g>
<!-- Node27&#45;&gt;Node21 -->
<g id="edge43" class="edge">
<title>Node27&#45;&gt;Node21</title>
<path fill="none" stroke="midnightblue" d="M1261.3,-123.32C1232.55,-103.67 1162.22,-55.61 1126.53,-31.22"/>
<polygon fill="midnightblue" stroke="midnightblue" points="1128.08,-28.03 1117.85,-25.28 1124.13,-33.81 1128.08,-28.03"/>
</g>
<!-- Node27&#45;&gt;Node24 -->
<g id="edge44" class="edge">
<title>Node27&#45;&gt;Node24</title>
<path fill="none" stroke="midnightblue" d="M1237.96,-129.02C1126.64,-119.81 788.37,-91.84 665.88,-81.71"/>
<polygon fill="midnightblue" stroke="midnightblue" points="665.99,-78.21 655.73,-80.87 665.41,-85.18 665.99,-78.21"/>
</g>
</g>
</svg>
