<?xml version="1.0" encoding="UTF-8" standalone="no"?>
<!DOCTYPE svg PUBLIC "-//W3C//DTD SVG 1.1//EN"
 "http://www.w3.org/Graphics/SVG/1.1/DTD/svg11.dtd">
<!-- Generated by graphviz version 2.43.0 (0)
 -->
<!-- Title: include/states/main_menu.hpp Pages: 1 -->
<svg width="989pt" height="106pt"
 viewBox="0.00 0.00 988.50 106.00" xmlns="http://www.w3.org/2000/svg" xmlns:xlink="http://www.w3.org/1999/xlink">
<g id="graph0" class="graph" transform="scale(1 1) rotate(0) translate(4 102)">
<title>include/states/main_menu.hpp</title>
<polygon fill="white" stroke="transparent" points="-4,4 -4,-102 984.5,-102 984.5,4 -4,4"/>
<!-- Node1 -->
<g id="node1" class="node">
<title>Node1</title>
<g id="a_node1"><a xlink:title="Definição da classe MainMenu, o estado que representa o menu principal do jogo.">
<polygon fill="#bfbfbf" stroke="black" points="441,-67.5 441,-97.5 554,-97.5 554,-67.5 441,-67.5"/>
<text text-anchor="start" x="449" y="-85.5" font-family="Helvetica,sans-Serif" font-size="10.00">include/states/main</text>
<text text-anchor="middle" x="497.5" y="-74.5" font-family="Helvetica,sans-Serif" font-size="10.00">_menu.hpp</text>
</a>
</g>
</g>
<!-- Node2 -->
<g id="node2" class="node">
<title>Node2</title>
<g id="a_node2"><a xlink:href="allegro__interface_8cpp.html" target="_top" xlink:title="Implementação do controlador principal que integra Allegro às lógicas de estado do jogo.">
<polygon fill="white" stroke="black" points="0,-6 0,-25 137,-25 137,-6 0,-6"/>
<text text-anchor="middle" x="68.5" y="-13" font-family="Helvetica,sans-Serif" font-size="10.00">src/allegro_interface.cpp</text>
</a>
</g>
</g>
<!-- Node1&#45;&gt;Node2 -->
<g id="edge1" class="edge">
<title>Node1&#45;&gt;Node2</title>
<path fill="none" stroke="midnightblue" d="M430.75,-72.72C360.04,-63.23 245.22,-47.27 146.5,-31 135.49,-29.19 123.64,-27.07 112.58,-25.02"/>
<polygon fill="midnightblue" stroke="midnightblue" points="430.48,-76.22 440.85,-74.08 431.41,-69.28 430.48,-76.22"/>
</g>
<!-- Node3 -->
<g id="node3" class="node">
<title>Node3</title>
<g id="a_node3"><a xlink:href="difficulty__menu_8cpp.html" target="_top" xlink:title="Implementação da classe DifficultyMenu, que gerencia a tela de seleção de dificuldade.">
<polygon fill="white" stroke="black" points="155.5,-0.5 155.5,-30.5 265.5,-30.5 265.5,-0.5 155.5,-0.5"/>
<text text-anchor="start" x="163.5" y="-18.5" font-family="Helvetica,sans-Serif" font-size="10.00">src/states/difficulty</text>
<text text-anchor="middle" x="210.5" y="-7.5" font-family="Helvetica,sans-Serif" font-size="10.00">_menu.cpp</text>
</a>
</g>
</g>
<!-- Node1&#45;&gt;Node3 -->
<g id="edge2" class="edge">
<title>Node1&#45;&gt;Node3</title>
<path fill="none" stroke="midnightblue" d="M431.01,-66.44C380.83,-55.08 312.79,-39.67 265.62,-28.98"/>
<polygon fill="midnightblue" stroke="midnightblue" points="430.27,-69.86 440.8,-68.66 431.82,-63.04 430.27,-69.86"/>
</g>
<!-- Node4 -->
<g id="node4" class="node">
<title>Node4</title>
<g id="a_node4"><a xlink:href="leaderboard__menu_8cpp.html" target="_top" xlink:title="Implementação da classe LeaderboardMenu, responsável por exibir a tela de ranking.">
<polygon fill="white" stroke="black" points="284,-0.5 284,-30.5 409,-30.5 409,-0.5 284,-0.5"/>
<text text-anchor="start" x="292" y="-18.5" font-family="Helvetica,sans-Serif" font-size="10.00">src/states/leaderboard</text>
<text text-anchor="middle" x="346.5" y="-7.5" font-family="Helvetica,sans-Serif" font-size="10.00">_menu.cpp</text>
</a>
</g>
</g>
<!-- Node1&#45;&gt;Node4 -->
<g id="edge3" class="edge">
<title>Node1&#45;&gt;Node4</title>
<path fill="none" stroke="midnightblue" d="M455.47,-63.41C431.36,-53.03 401.55,-40.2 379.2,-30.58"/>
<polygon fill="midnightblue" stroke="midnightblue" points="454.17,-66.66 464.74,-67.4 456.93,-60.23 454.17,-66.66"/>
</g>
<!-- Node5 -->
<g id="node5" class="node">
<title>Node5</title>
<g id="a_node5"><a xlink:href="load__game_8cpp.html" target="_top" xlink:title="Implementação da classe LoadName, responsável pela tela de inserção de nome do jogador.">
<polygon fill="white" stroke="black" points="427,-6 427,-25 568,-25 568,-6 427,-6"/>
<text text-anchor="middle" x="497.5" y="-13" font-family="Helvetica,sans-Serif" font-size="10.00">src/states/load_game.cpp</text>
</a>
</g>
</g>
<!-- Node1&#45;&gt;Node5 -->
<g id="edge4" class="edge">
<title>Node1&#45;&gt;Node5</title>
<path fill="none" stroke="midnightblue" d="M497.5,-57.25C497.5,-46.02 497.5,-33.38 497.5,-25.19"/>
<polygon fill="midnightblue" stroke="midnightblue" points="494,-57.4 497.5,-67.4 501,-57.4 494,-57.4"/>
</g>
<!-- Node6 -->
<g id="node6" class="node">
<title>Node6</title>
<g id="a_node6"><a xlink:href="main__menu_8cpp.html" target="_top" xlink:title="Implementação da classe MainMenu, o estado principal e tela inicial do jogo.">
<polygon fill="white" stroke="black" points="586,-6 586,-25 731,-25 731,-6 586,-6"/>
<text text-anchor="middle" x="658.5" y="-13" font-family="Helvetica,sans-Serif" font-size="10.00">src/states/main_menu.cpp</text>
</a>
</g>
</g>
<!-- Node1&#45;&gt;Node6 -->
<g id="edge5" class="edge">
<title>Node1&#45;&gt;Node6</title>
<path fill="none" stroke="midnightblue" d="M541.78,-63.62C572.95,-51.04 613.26,-34.77 637.43,-25.01"/>
<polygon fill="midnightblue" stroke="midnightblue" points="540.4,-60.41 532.43,-67.4 543.02,-66.9 540.4,-60.41"/>
</g>
<!-- Node7 -->
<g id="node7" class="node">
<title>Node7</title>
<g id="a_node7"><a xlink:href="play_8cpp.html" target="_top" xlink:title="Implementacao da classe Play.">
<polygon fill="white" stroke="black" points="749,-6 749,-25 856,-25 856,-6 749,-6"/>
<text text-anchor="middle" x="802.5" y="-13" font-family="Helvetica,sans-Serif" font-size="10.00">src/states/play.cpp</text>
</a>
</g>
</g>
<!-- Node1&#45;&gt;Node7 -->
<g id="edge6" class="edge">
<title>Node1&#45;&gt;Node7</title>
<path fill="none" stroke="midnightblue" d="M563.88,-68.17C612.78,-58.23 680.86,-44.17 740.5,-31 749.03,-29.12 758.2,-27.02 766.8,-25.01"/>
<polygon fill="midnightblue" stroke="midnightblue" points="563.16,-64.74 554.05,-70.16 564.55,-71.6 563.16,-64.74"/>
</g>
<!-- Node8 -->
<g id="node8" class="node">
<title>Node8</title>
<g id="a_node8"><a xlink:href="settings__menu_8cpp.html" target="_top" xlink:title="Implementação da classe SettingsMenu, que gerencia a tela de configurações do jogo.">
<polygon fill="white" stroke="black" points="874.5,-0.5 874.5,-30.5 980.5,-30.5 980.5,-0.5 874.5,-0.5"/>
<text text-anchor="start" x="882.5" y="-18.5" font-family="Helvetica,sans-Serif" font-size="10.00">src/states/settings</text>
<text text-anchor="middle" x="927.5" y="-7.5" font-family="Helvetica,sans-Serif" font-size="10.00">_menu.cpp</text>
</a>
</g>
</g>
<!-- Node1&#45;&gt;Node8 -->
<g id="edge7" class="edge">
<title>Node1&#45;&gt;Node8</title>
<path fill="none" stroke="midnightblue" d="M564.29,-74.23C638.26,-65.75 760.88,-50.37 865.5,-31 868.43,-30.46 871.44,-29.87 874.47,-29.25"/>
<polygon fill="midnightblue" stroke="midnightblue" points="563.73,-70.78 554.19,-75.39 564.52,-77.73 563.73,-70.78"/>
</g>
</g>
</svg>
