<?xml version="1.0" encoding="UTF-8" standalone="no"?>
<!DOCTYPE svg PUBLIC "-//W3C//DTD SVG 1.1//EN"
 "http://www.w3.org/Graphics/SVG/1.1/DTD/svg11.dtd">
<!-- Generated by graphviz version 2.43.0 (0)
 -->
<!-- Title: src/states/main_menu.cpp Pages: 1 -->
<svg width="1899pt" height="386pt"
 viewBox="0.00 0.00 1898.72 386.00" xmlns="http://www.w3.org/2000/svg" xmlns:xlink="http://www.w3.org/1999/xlink">
<g id="graph0" class="graph" transform="scale(1 1) rotate(0) translate(4 382)">
<title>src/states/main_menu.cpp</title>
<polygon fill="white" stroke="transparent" points="-4,4 -4,-382 1894.72,-382 1894.72,4 -4,4"/>
<!-- Node1 -->
<g id="node1" class="node">
<title>Node1</title>
<g id="a_node1"><a xlink:title="Implementação da classe MainMenu, o estado principal e tela inicial do jogo.">
<polygon fill="#bfbfbf" stroke="black" points="1162.5,-358.5 1162.5,-377.5 1307.5,-377.5 1307.5,-358.5 1162.5,-358.5"/>
<text text-anchor="middle" x="1235" y="-365.5" font-family="Helvetica,sans-Serif" font-size="10.00">src/states/main_menu.cpp</text>
</a>
</g>
</g>
<!-- Node2 -->
<g id="node2" class="node">
<title>Node2</title>
<g id="a_node2"><a xlink:href="main__menu_8hpp.html" target="_top" xlink:title="Definição da classe MainMenu, o estado que representa o menu principal do jogo.">
<polygon fill="white" stroke="black" points="1428.5,-291.5 1428.5,-321.5 1531.5,-321.5 1531.5,-291.5 1428.5,-291.5"/>
<text text-anchor="start" x="1436.5" y="-309.5" font-family="Helvetica,sans-Serif" font-size="10.00">../../include/states</text>
<text text-anchor="middle" x="1480" y="-298.5" font-family="Helvetica,sans-Serif" font-size="10.00">/main_menu.hpp</text>
</a>
</g>
</g>
<!-- Node1&#45;&gt;Node2 -->
<g id="edge1" class="edge">
<title>Node1&#45;&gt;Node2</title>
<path fill="none" stroke="midnightblue" d="M1270.1,-358.48C1308.77,-349.09 1371.67,-333.81 1418.55,-322.42"/>
<polygon fill="midnightblue" stroke="midnightblue" points="1419.4,-325.82 1428.29,-320.06 1417.75,-319.02 1419.4,-325.82"/>
</g>
<!-- Node5 -->
<g id="node5" class="node">
<title>Node5</title>
<g id="a_node5"><a xlink:title=" ">
<polygon fill="white" stroke="#bfbfbf" points="66,-6 66,-25 124,-25 124,-6 66,-6"/>
<text text-anchor="middle" x="95" y="-13" font-family="Helvetica,sans-Serif" font-size="10.00">memory</text>
</a>
</g>
</g>
<!-- Node1&#45;&gt;Node5 -->
<g id="edge73" class="edge">
<title>Node1&#45;&gt;Node5</title>
<path fill="none" stroke="midnightblue" d="M1162.36,-367.55C897.63,-368.61 0,-363.55 0,-246 0,-246 0,-246 0,-132 0,-87.02 43.51,-50.02 71.64,-30.8"/>
<polygon fill="midnightblue" stroke="midnightblue" points="73.72,-33.62 80.16,-25.2 69.88,-27.77 73.72,-33.62"/>
</g>
<!-- Node17 -->
<g id="node17" class="node">
<title>Node17</title>
<g id="a_node17"><a xlink:href="init_8hpp.html" target="_top" xlink:title="Declara funções de inicialização e finalização do Allegro.">
<polygon fill="white" stroke="black" points="996,-235.5 996,-254.5 1058,-254.5 1058,-235.5 996,-235.5"/>
<text text-anchor="middle" x="1027" y="-242.5" font-family="Helvetica,sans-Serif" font-size="10.00">../init.hpp</text>
</a>
</g>
</g>
<!-- Node1&#45;&gt;Node17 -->
<g id="edge49" class="edge">
<title>Node1&#45;&gt;Node17</title>
<path fill="none" stroke="midnightblue" d="M1235.39,-358.31C1235.59,-342.56 1233.63,-309.22 1215,-291 1194.39,-270.85 1116.79,-257.48 1067.96,-250.86"/>
<polygon fill="midnightblue" stroke="midnightblue" points="1068.38,-247.39 1058.01,-249.55 1067.47,-254.33 1068.38,-247.39"/>
</g>
<!-- Node29 -->
<g id="node29" class="node">
<title>Node29</title>
<g id="a_node29"><a xlink:href="difficulty__menu_8hpp.html" target="_top" xlink:title="Definição da classe DifficultyMenu, que representa o estado do menu de seleção de dificuldade.">
<polygon fill="white" stroke="black" points="969,-291.5 969,-321.5 1085,-321.5 1085,-291.5 969,-291.5"/>
<text text-anchor="start" x="977" y="-309.5" font-family="Helvetica,sans-Serif" font-size="10.00">../../include/states</text>
<text text-anchor="middle" x="1027" y="-298.5" font-family="Helvetica,sans-Serif" font-size="10.00">/difficulty_menu.hpp</text>
</a>
</g>
</g>
<!-- Node1&#45;&gt;Node29 -->
<g id="edge50" class="edge">
<title>Node1&#45;&gt;Node29</title>
<path fill="none" stroke="midnightblue" d="M1205.2,-358.48C1174.13,-349.59 1124.63,-335.43 1085.68,-324.29"/>
<polygon fill="midnightblue" stroke="midnightblue" points="1086.6,-320.91 1076.02,-321.52 1084.67,-327.64 1086.6,-320.91"/>
</g>
<!-- Node30 -->
<g id="node30" class="node">
<title>Node30</title>
<g id="a_node30"><a xlink:href="leaderboard__menu_8hpp.html" target="_top" xlink:title="Definição da classe LeaderboardMenu, que representa o estado da tela de ranking.">
<polygon fill="white" stroke="black" points="1552,-291.5 1552,-321.5 1684,-321.5 1684,-291.5 1552,-291.5"/>
<text text-anchor="start" x="1560" y="-309.5" font-family="Helvetica,sans-Serif" font-size="10.00">../../include/states</text>
<text text-anchor="middle" x="1618" y="-298.5" font-family="Helvetica,sans-Serif" font-size="10.00">/leaderboard_menu.hpp</text>
</a>
</g>
</g>
<!-- Node1&#45;&gt;Node30 -->
<g id="edge56" class="edge">
<title>Node1&#45;&gt;Node30</title>
<path fill="none" stroke="midnightblue" d="M1298.12,-358.47C1360.07,-349.92 1457.19,-336.05 1541,-322 1541.22,-321.96 1541.44,-321.93 1541.66,-321.89"/>
<polygon fill="midnightblue" stroke="midnightblue" points="1542.41,-325.31 1551.67,-320.17 1541.22,-318.41 1542.41,-325.31"/>
</g>
<!-- Node31 -->
<g id="node31" class="node">
<title>Node31</title>
<g id="a_node31"><a xlink:href="load__game_8hpp.html" target="_top" xlink:title="Definição da classe LoadName, que representa o estado de inserção de nome.">
<polygon fill="white" stroke="black" points="1103.5,-291.5 1103.5,-321.5 1206.5,-321.5 1206.5,-291.5 1103.5,-291.5"/>
<text text-anchor="start" x="1111.5" y="-309.5" font-family="Helvetica,sans-Serif" font-size="10.00">../../include/states</text>
<text text-anchor="middle" x="1155" y="-298.5" font-family="Helvetica,sans-Serif" font-size="10.00">/load_game.hpp</text>
</a>
</g>
</g>
<!-- Node1&#45;&gt;Node31 -->
<g id="edge61" class="edge">
<title>Node1&#45;&gt;Node31</title>
<path fill="none" stroke="midnightblue" d="M1223.54,-358.48C1212.8,-350.49 1196.35,-338.25 1182.25,-327.77"/>
<polygon fill="midnightblue" stroke="midnightblue" points="1183.97,-324.68 1173.85,-321.52 1179.79,-330.3 1183.97,-324.68"/>
</g>
<!-- Node32 -->
<g id="node32" class="node">
<title>Node32</title>
<g id="a_node32"><a xlink:href="settings__menu_8hpp.html" target="_top" xlink:title="Definição da classe SettingsMenu, que representa o estado do menu de configurações.">
<polygon fill="white" stroke="black" points="1274.5,-291.5 1274.5,-321.5 1387.5,-321.5 1387.5,-291.5 1274.5,-291.5"/>
<text text-anchor="start" x="1282.5" y="-309.5" font-family="Helvetica,sans-Serif" font-size="10.00">../../include/states</text>
<text text-anchor="middle" x="1331" y="-298.5" font-family="Helvetica,sans-Serif" font-size="10.00">/settings_menu.hpp</text>
</a>
</g>
</g>
<!-- Node1&#45;&gt;Node32 -->
<g id="edge67" class="edge">
<title>Node1&#45;&gt;Node32</title>
<path fill="none" stroke="midnightblue" d="M1248.75,-358.48C1262,-350.27 1282.5,-337.56 1299.72,-326.88"/>
<polygon fill="midnightblue" stroke="midnightblue" points="1301.72,-329.77 1308.37,-321.52 1298.03,-323.82 1301.72,-329.77"/>
</g>
<!-- Node3 -->
<g id="node3" class="node">
<title>Node3</title>
<g id="a_node3"><a xlink:href="assets_8hpp.html" target="_top" xlink:title="Declara classes utilitárias para carregar e usar imagens, sons e fontes no Allegro.">
<polygon fill="white" stroke="black" points="913,-67.5 913,-86.5 991,-86.5 991,-67.5 913,-67.5"/>
<text text-anchor="middle" x="952" y="-74.5" font-family="Helvetica,sans-Serif" font-size="10.00">../assets.hpp</text>
</a>
</g>
</g>
<!-- Node2&#45;&gt;Node3 -->
<g id="edge2" class="edge">
<title>Node2&#45;&gt;Node3</title>
<path fill="none" stroke="midnightblue" d="M1461.91,-291.29C1417,-256.76 1295.63,-167.94 1180,-123 1120.79,-99.99 1048.17,-88.26 1001.03,-82.64"/>
<polygon fill="midnightblue" stroke="midnightblue" points="1001.41,-79.16 991.08,-81.5 1000.62,-86.12 1001.41,-79.16"/>
</g>
<!-- Node14 -->
<g id="node14" class="node">
<title>Node14</title>
<g id="a_node14"><a xlink:href="defines_8hpp.html" target="_top" xlink:title="Constantes globais, macros e estruturas auxiliares do jogo.">
<polygon fill="white" stroke="black" points="1695,-67.5 1695,-86.5 1777,-86.5 1777,-67.5 1695,-67.5"/>
<text text-anchor="middle" x="1736" y="-74.5" font-family="Helvetica,sans-Serif" font-size="10.00">../defines.hpp</text>
</a>
</g>
</g>
<!-- Node2&#45;&gt;Node14 -->
<g id="edge13" class="edge">
<title>Node2&#45;&gt;Node14</title>
<path fill="none" stroke="midnightblue" d="M1531.83,-293.14C1535.6,-292.37 1539.35,-291.65 1543,-291 1605.41,-279.88 1784.1,-302.57 1826,-255 1864.78,-210.98 1856.84,-172.9 1826,-123 1816.33,-107.35 1799.38,-96.96 1782.78,-90.15"/>
<polygon fill="midnightblue" stroke="midnightblue" points="1783.69,-86.76 1773.1,-86.54 1781.25,-93.32 1783.69,-86.76"/>
</g>
<!-- Node2&#45;&gt;Node17 -->
<g id="edge17" class="edge">
<title>Node2&#45;&gt;Node17</title>
<path fill="none" stroke="midnightblue" d="M1428.26,-296.03C1417.92,-294.26 1407.13,-292.5 1397,-291 1277.97,-273.38 1136.64,-257.61 1068.21,-250.31"/>
<polygon fill="midnightblue" stroke="midnightblue" points="1068.57,-246.82 1058.26,-249.25 1067.83,-253.78 1068.57,-246.82"/>
</g>
<!-- Node27 -->
<g id="node27" class="node">
<title>Node27</title>
<g id="a_node27"><a xlink:href="state_8hpp.html" target="_top" xlink:title="Interface base para estados da máquina de estados do jogo.">
<polygon fill="white" stroke="black" points="1551,-179.5 1551,-198.5 1613,-198.5 1613,-179.5 1551,-179.5"/>
<text text-anchor="middle" x="1582" y="-186.5" font-family="Helvetica,sans-Serif" font-size="10.00">state.hpp</text>
</a>
</g>
</g>
<!-- Node2&#45;&gt;Node27 -->
<g id="edge48" class="edge">
<title>Node2&#45;&gt;Node27</title>
<path fill="none" stroke="midnightblue" d="M1509.53,-291.43C1525.1,-282.77 1543.51,-270.37 1556,-255 1567.01,-241.45 1573.85,-222.65 1577.73,-208.75"/>
<polygon fill="midnightblue" stroke="midnightblue" points="1581.18,-209.4 1580.24,-198.85 1574.39,-207.69 1581.18,-209.4"/>
</g>
<!-- Node28 -->
<g id="node28" class="node">
<title>Node28</title>
<g id="a_node28"><a xlink:href="motion_8hpp.html" target="_top" xlink:title="Gerencia efeitos de parallax e animações de cenário.">
<polygon fill="white" stroke="black" points="1484,-123.5 1484,-142.5 1556,-142.5 1556,-123.5 1484,-123.5"/>
<text text-anchor="middle" x="1520" y="-130.5" font-family="Helvetica,sans-Serif" font-size="10.00">motion.hpp</text>
</a>
</g>
</g>
<!-- Node2&#45;&gt;Node28 -->
<g id="edge47" class="edge">
<title>Node2&#45;&gt;Node28</title>
<path fill="none" stroke="midnightblue" d="M1517.48,-291.5C1553.56,-275.54 1605.08,-245.48 1622,-199 1625.04,-190.65 1626.85,-186.45 1622,-179 1609.5,-159.82 1586.78,-148.76 1565.95,-142.41"/>
<polygon fill="midnightblue" stroke="midnightblue" points="1566.81,-139.02 1556.24,-139.73 1564.95,-145.76 1566.81,-139.02"/>
</g>
<!-- Node4 -->
<g id="node4" class="node">
<title>Node4</title>
<g id="a_node4"><a xlink:title=" ">
<polygon fill="white" stroke="#bfbfbf" points="202,-6 202,-25 262,-25 262,-6 202,-6"/>
<text text-anchor="middle" x="232" y="-13" font-family="Helvetica,sans-Serif" font-size="10.00">iostream</text>
</a>
</g>
</g>
<!-- Node3&#45;&gt;Node4 -->
<g id="edge3" class="edge">
<title>Node3&#45;&gt;Node4</title>
<path fill="none" stroke="midnightblue" d="M912.68,-73.88C815.63,-68.49 556.97,-53.08 342,-31 318.89,-28.63 293.13,-25.27 272.36,-22.38"/>
<polygon fill="midnightblue" stroke="midnightblue" points="272.68,-18.9 262.29,-20.97 271.71,-25.83 272.68,-18.9"/>
</g>
<!-- Node3&#45;&gt;Node5 -->
<g id="edge4" class="edge">
<title>Node3&#45;&gt;Node5</title>
<path fill="none" stroke="midnightblue" d="M912.8,-74.89C800.45,-71.44 467.75,-59.42 193,-31 173.55,-28.99 152.05,-25.9 134.15,-23.1"/>
<polygon fill="midnightblue" stroke="midnightblue" points="134.5,-19.61 124.08,-21.49 133.4,-26.52 134.5,-19.61"/>
</g>
<!-- Node6 -->
<g id="node6" class="node">
<title>Node6</title>
<g id="a_node6"><a xlink:title=" ">
<polygon fill="white" stroke="#bfbfbf" points="1487,-6 1487,-25 1531,-25 1531,-6 1487,-6"/>
<text text-anchor="middle" x="1509" y="-13" font-family="Helvetica,sans-Serif" font-size="10.00">string</text>
</a>
</g>
</g>
<!-- Node3&#45;&gt;Node6 -->
<g id="edge5" class="edge">
<title>Node3&#45;&gt;Node6</title>
<path fill="none" stroke="midnightblue" d="M991.21,-74.43C1096.92,-69.91 1386.03,-55.61 1478,-31 1479.94,-30.48 1481.9,-29.85 1483.85,-29.14"/>
<polygon fill="midnightblue" stroke="midnightblue" points="1485.47,-32.26 1493.32,-25.14 1482.74,-25.81 1485.47,-32.26"/>
</g>
<!-- Node7 -->
<g id="node7" class="node">
<title>Node7</title>
<g id="a_node7"><a xlink:title=" ">
<polygon fill="white" stroke="#bfbfbf" points="1367,-6 1367,-25 1469,-25 1469,-6 1367,-6"/>
<text text-anchor="middle" x="1418" y="-13" font-family="Helvetica,sans-Serif" font-size="10.00">allegro5/allegro.h</text>
</a>
</g>
</g>
<!-- Node3&#45;&gt;Node7 -->
<g id="edge6" class="edge">
<title>Node3&#45;&gt;Node7</title>
<path fill="none" stroke="midnightblue" d="M991.14,-73.32C1063.83,-67.98 1224.41,-54.45 1358,-31 1363.88,-29.97 1370.05,-28.7 1376.09,-27.34"/>
<polygon fill="midnightblue" stroke="midnightblue" points="1377.14,-30.69 1386.08,-25.01 1375.55,-23.87 1377.14,-30.69"/>
</g>
<!-- Node8 -->
<g id="node8" class="node">
<title>Node8</title>
<g id="a_node8"><a xlink:title=" ">
<polygon fill="white" stroke="#bfbfbf" points="351,-6 351,-25 493,-25 493,-6 351,-6"/>
<text text-anchor="middle" x="422" y="-13" font-family="Helvetica,sans-Serif" font-size="10.00">allegro5/allegro_acodec.h</text>
</a>
</g>
</g>
<!-- Node3&#45;&gt;Node8 -->
<g id="edge7" class="edge">
<title>Node3&#45;&gt;Node8</title>
<path fill="none" stroke="midnightblue" d="M912.91,-72.95C835.32,-66.69 656.47,-51.28 507,-31 497.85,-29.76 488.17,-28.27 478.76,-26.73"/>
<polygon fill="midnightblue" stroke="midnightblue" points="479.12,-23.25 468.68,-25.05 477.96,-30.15 479.12,-23.25"/>
</g>
<!-- Node9 -->
<g id="node9" class="node">
<title>Node9</title>
<g id="a_node9"><a xlink:title=" ">
<polygon fill="white" stroke="#bfbfbf" points="516,-6 516,-25 650,-25 650,-6 516,-6"/>
<text text-anchor="middle" x="583" y="-13" font-family="Helvetica,sans-Serif" font-size="10.00">allegro5/allegro_audio.h</text>
</a>
</g>
</g>
<!-- Node3&#45;&gt;Node9 -->
<g id="edge8" class="edge">
<title>Node3&#45;&gt;Node9</title>
<path fill="none" stroke="midnightblue" d="M912.86,-69.69C849.13,-59.41 722.4,-38.98 645.91,-26.64"/>
<polygon fill="midnightblue" stroke="midnightblue" points="646.35,-23.17 635.92,-25.03 645.24,-30.08 646.35,-23.17"/>
</g>
<!-- Node10 -->
<g id="node10" class="node">
<title>Node10</title>
<g id="a_node10"><a xlink:title=" ">
<polygon fill="white" stroke="#bfbfbf" points="704,-6 704,-25 842,-25 842,-6 704,-6"/>
<text text-anchor="middle" x="773" y="-13" font-family="Helvetica,sans-Serif" font-size="10.00">allegro5/allegro_image.h</text>
</a>
</g>
</g>
<!-- Node3&#45;&gt;Node10 -->
<g id="edge9" class="edge">
<title>Node3&#45;&gt;Node10</title>
<path fill="none" stroke="midnightblue" d="M926.35,-67.48C895.38,-57.18 843.13,-39.81 808.35,-28.25"/>
<polygon fill="midnightblue" stroke="midnightblue" points="809.19,-24.84 798.6,-25.01 806.98,-31.48 809.19,-24.84"/>
</g>
<!-- Node11 -->
<g id="node11" class="node">
<title>Node11</title>
<g id="a_node11"><a xlink:title=" ">
<polygon fill="white" stroke="#bfbfbf" points="878.5,-0.5 878.5,-30.5 1007.5,-30.5 1007.5,-0.5 878.5,-0.5"/>
<text text-anchor="start" x="886.5" y="-18.5" font-family="Helvetica,sans-Serif" font-size="10.00">allegro5/allegro_native</text>
<text text-anchor="middle" x="943" y="-7.5" font-family="Helvetica,sans-Serif" font-size="10.00">_dialog.h</text>
</a>
</g>
</g>
<!-- Node3&#45;&gt;Node11 -->
<g id="edge10" class="edge">
<title>Node3&#45;&gt;Node11</title>
<path fill="none" stroke="midnightblue" d="M950.71,-67.48C949.65,-60.47 948.1,-50.19 946.66,-40.7"/>
<polygon fill="midnightblue" stroke="midnightblue" points="950.08,-39.89 945.12,-30.52 943.16,-40.93 950.08,-39.89"/>
</g>
<!-- Node12 -->
<g id="node12" class="node">
<title>Node12</title>
<g id="a_node12"><a xlink:title=" ">
<polygon fill="white" stroke="#bfbfbf" points="1191.5,-6 1191.5,-25 1348.5,-25 1348.5,-6 1191.5,-6"/>
<text text-anchor="middle" x="1270" y="-13" font-family="Helvetica,sans-Serif" font-size="10.00">allegro5/allegro_primitives.h</text>
</a>
</g>
</g>
<!-- Node3&#45;&gt;Node12 -->
<g id="edge11" class="edge">
<title>Node3&#45;&gt;Node12</title>
<path fill="none" stroke="midnightblue" d="M991.31,-68.64C1047.39,-58.15 1150.6,-38.84 1214.46,-26.89"/>
<polygon fill="midnightblue" stroke="midnightblue" points="1215.18,-30.32 1224.36,-25.04 1213.89,-23.44 1215.18,-30.32"/>
</g>
<!-- Node13 -->
<g id="node13" class="node">
<title>Node13</title>
<g id="a_node13"><a xlink:title=" ">
<polygon fill="white" stroke="#bfbfbf" points="1045,-6 1045,-25 1163,-25 1163,-6 1045,-6"/>
<text text-anchor="middle" x="1104" y="-13" font-family="Helvetica,sans-Serif" font-size="10.00">allegro5/allegro_ttf.h</text>
</a>
</g>
</g>
<!-- Node3&#45;&gt;Node13 -->
<g id="edge12" class="edge">
<title>Node3&#45;&gt;Node13</title>
<path fill="none" stroke="midnightblue" d="M973.78,-67.48C999.74,-57.31 1043.31,-40.26 1072.83,-28.7"/>
<polygon fill="midnightblue" stroke="midnightblue" points="1074.23,-31.91 1082.26,-25.01 1071.67,-25.4 1074.23,-31.91"/>
</g>
<!-- Node14&#45;&gt;Node6 -->
<g id="edge15" class="edge">
<title>Node14&#45;&gt;Node6</title>
<path fill="none" stroke="midnightblue" d="M1703.48,-67.48C1660.21,-56.14 1584.2,-36.21 1541.13,-24.92"/>
<polygon fill="midnightblue" stroke="midnightblue" points="1541.75,-21.47 1531.19,-22.32 1539.97,-28.24 1541.75,-21.47"/>
</g>
<!-- Node15 -->
<g id="node15" class="node">
<title>Node15</title>
<g id="a_node15"><a xlink:title=" ">
<polygon fill="white" stroke="#bfbfbf" points="1680.5,-6 1680.5,-25 1727.5,-25 1727.5,-6 1680.5,-6"/>
<text text-anchor="middle" x="1704" y="-13" font-family="Helvetica,sans-Serif" font-size="10.00">cmath</text>
</a>
</g>
</g>
<!-- Node14&#45;&gt;Node15 -->
<g id="edge14" class="edge">
<title>Node14&#45;&gt;Node15</title>
<path fill="none" stroke="midnightblue" d="M1731.42,-67.48C1726.76,-58.82 1719.41,-45.15 1713.49,-34.15"/>
<polygon fill="midnightblue" stroke="midnightblue" points="1716.4,-32.16 1708.58,-25.01 1710.23,-35.47 1716.4,-32.16"/>
</g>
<!-- Node16 -->
<g id="node16" class="node">
<title>Node16</title>
<g id="a_node16"><a xlink:title=" ">
<polygon fill="white" stroke="#bfbfbf" points="1745.5,-6 1745.5,-25 1792.5,-25 1792.5,-6 1745.5,-6"/>
<text text-anchor="middle" x="1769" y="-13" font-family="Helvetica,sans-Serif" font-size="10.00">vector</text>
</a>
</g>
</g>
<!-- Node14&#45;&gt;Node16 -->
<g id="edge16" class="edge">
<title>Node14&#45;&gt;Node16</title>
<path fill="none" stroke="midnightblue" d="M1740.73,-67.48C1745.58,-58.73 1753.27,-44.87 1759.4,-33.81"/>
<polygon fill="midnightblue" stroke="midnightblue" points="1762.49,-35.45 1764.28,-25.01 1756.37,-32.06 1762.49,-35.45"/>
</g>
<!-- Node17&#45;&gt;Node3 -->
<g id="edge36" class="edge">
<title>Node17&#45;&gt;Node3</title>
<path fill="none" stroke="midnightblue" d="M1010.71,-235.42C997.75,-227.69 980.31,-215.08 971,-199 952.33,-166.75 950.32,-121.95 950.91,-96.9"/>
<polygon fill="midnightblue" stroke="midnightblue" points="954.41,-96.74 951.32,-86.61 947.42,-96.46 954.41,-96.74"/>
</g>
<!-- Node17&#45;&gt;Node4 -->
<g id="edge21" class="edge">
<title>Node17&#45;&gt;Node4</title>
<path fill="none" stroke="midnightblue" d="M995.64,-243.56C869.88,-241.56 406.1,-231.99 350,-199 285.77,-161.23 250.41,-73.11 237.61,-34.81"/>
<polygon fill="midnightblue" stroke="midnightblue" points="240.85,-33.48 234.47,-25.03 234.19,-35.62 240.85,-33.48"/>
</g>
<!-- Node17&#45;&gt;Node5 -->
<g id="edge24" class="edge">
<title>Node17&#45;&gt;Node5</title>
<path fill="none" stroke="midnightblue" d="M995.88,-243.13C867.7,-239.38 384.44,-223.72 321,-199 226.6,-162.22 141.18,-70.78 108.78,-33.12"/>
<polygon fill="midnightblue" stroke="midnightblue" points="111.17,-30.52 102.04,-25.15 105.83,-35.04 111.17,-30.52"/>
</g>
<!-- Node17&#45;&gt;Node6 -->
<g id="edge26" class="edge">
<title>Node17&#45;&gt;Node6</title>
<path fill="none" stroke="midnightblue" d="M1058.28,-244.86C1112.68,-245.14 1227.05,-240.23 1312,-199 1395.52,-158.46 1468.3,-70.57 1496.52,-33.52"/>
<polygon fill="midnightblue" stroke="midnightblue" points="1499.51,-35.35 1502.71,-25.25 1493.91,-31.16 1499.51,-35.35"/>
</g>
<!-- Node17&#45;&gt;Node7 -->
<g id="edge27" class="edge">
<title>Node17&#45;&gt;Node7</title>
<path fill="none" stroke="midnightblue" d="M1058.14,-241.53C1118.41,-236.27 1248.36,-222.51 1286,-199 1351.2,-158.27 1394.11,-72.47 1410.51,-34.84"/>
<polygon fill="midnightblue" stroke="midnightblue" points="1413.92,-35.77 1414.59,-25.2 1407.47,-33.04 1413.92,-35.77"/>
</g>
<!-- Node17&#45;&gt;Node8 -->
<g id="edge28" class="edge">
<title>Node17&#45;&gt;Node8</title>
<path fill="none" stroke="midnightblue" d="M995.7,-244.31C870.24,-245.25 408.45,-245.51 365,-199 320.08,-150.93 378.89,-67.9 407.73,-32.86"/>
<polygon fill="midnightblue" stroke="midnightblue" points="410.56,-34.93 414.33,-25.03 405.21,-30.41 410.56,-34.93"/>
</g>
<!-- Node17&#45;&gt;Node9 -->
<g id="edge29" class="edge">
<title>Node17&#45;&gt;Node9</title>
<path fill="none" stroke="midnightblue" d="M995.76,-244.17C872.66,-244.51 425.79,-242.72 382,-199 358.06,-175.1 363.35,-153.49 378,-123 404.63,-67.59 472.86,-40.35 523.33,-27.42"/>
<polygon fill="midnightblue" stroke="midnightblue" points="524.29,-30.79 533.17,-25.02 522.63,-23.99 524.29,-30.79"/>
</g>
<!-- Node17&#45;&gt;Node10 -->
<g id="edge30" class="edge">
<title>Node17&#45;&gt;Node10</title>
<path fill="none" stroke="midnightblue" d="M995.67,-244.19C874.31,-244.61 439.96,-243 399,-199 305.17,-98.2 558.39,-46.33 693.88,-26.41"/>
<polygon fill="midnightblue" stroke="midnightblue" points="694.43,-29.87 703.83,-24.97 693.43,-22.94 694.43,-29.87"/>
</g>
<!-- Node17&#45;&gt;Node11 -->
<g id="edge31" class="edge">
<title>Node17&#45;&gt;Node11</title>
<path fill="none" stroke="midnightblue" d="M1008.89,-235.45C993.96,-227.65 973.02,-214.95 959,-199 922.38,-157.36 916.55,-141.02 904,-87 901.99,-78.34 901.13,-75.41 904,-67 907.54,-56.62 914.18,-46.72 920.98,-38.47"/>
<polygon fill="midnightblue" stroke="midnightblue" points="923.74,-40.64 927.74,-30.83 918.49,-36 923.74,-40.64"/>
</g>
<!-- Node17&#45;&gt;Node12 -->
<g id="edge33" class="edge">
<title>Node17&#45;&gt;Node12</title>
<path fill="none" stroke="midnightblue" d="M1058.2,-242.87C1116.97,-240.01 1240.55,-230.35 1267,-199 1306.82,-151.81 1287.76,-70.74 1276.39,-34.69"/>
<polygon fill="midnightblue" stroke="midnightblue" points="1279.65,-33.42 1273.17,-25.04 1273.01,-35.63 1279.65,-33.42"/>
</g>
<!-- Node17&#45;&gt;Node13 -->
<g id="edge34" class="edge">
<title>Node17&#45;&gt;Node13</title>
<path fill="none" stroke="midnightblue" d="M1058.23,-242.32C1113.16,-238.64 1223.52,-227.77 1247,-199 1297.78,-136.78 1182.54,-60.69 1129.23,-30.14"/>
<polygon fill="midnightblue" stroke="midnightblue" points="1130.77,-27 1120.34,-25.15 1127.34,-33.1 1130.77,-27"/>
</g>
<!-- Node17&#45;&gt;Node14 -->
<g id="edge37" class="edge">
<title>Node17&#45;&gt;Node14</title>
<path fill="none" stroke="midnightblue" d="M1058.24,-244.28C1131.52,-244.19 1319.63,-239.66 1470,-199 1482.43,-195.64 1642.52,-121.47 1708.19,-90.95"/>
<polygon fill="midnightblue" stroke="midnightblue" points="1709.93,-94 1717.52,-86.61 1706.98,-87.65 1709.93,-94"/>
</g>
<!-- Node18 -->
<g id="node18" class="node">
<title>Node18</title>
<g id="a_node18"><a xlink:title=" ">
<polygon fill="white" stroke="#bfbfbf" points="980.5,-179.5 980.5,-198.5 1031.5,-198.5 1031.5,-179.5 980.5,-179.5"/>
<text text-anchor="middle" x="1006" y="-186.5" font-family="Helvetica,sans-Serif" font-size="10.00">math.h</text>
</a>
</g>
</g>
<!-- Node17&#45;&gt;Node18 -->
<g id="edge18" class="edge">
<title>Node17&#45;&gt;Node18</title>
<path fill="none" stroke="midnightblue" d="M1023.53,-235.08C1020.69,-227.77 1016.57,-217.18 1013.04,-208.1"/>
<polygon fill="midnightblue" stroke="midnightblue" points="1016.29,-206.8 1009.4,-198.75 1009.77,-209.34 1016.29,-206.8"/>
</g>
<!-- Node19 -->
<g id="node19" class="node">
<title>Node19</title>
<g id="a_node19"><a xlink:title=" ">
<polygon fill="white" stroke="#bfbfbf" points="1050,-179.5 1050,-198.5 1114,-198.5 1114,-179.5 1050,-179.5"/>
<text text-anchor="middle" x="1082" y="-186.5" font-family="Helvetica,sans-Serif" font-size="10.00">algorithm</text>
</a>
</g>
</g>
<!-- Node17&#45;&gt;Node19 -->
<g id="edge19" class="edge">
<title>Node17&#45;&gt;Node19</title>
<path fill="none" stroke="midnightblue" d="M1036.08,-235.08C1044.17,-227.14 1056.2,-215.34 1065.91,-205.8"/>
<polygon fill="midnightblue" stroke="midnightblue" points="1068.4,-208.25 1073.09,-198.75 1063.5,-203.26 1068.4,-208.25"/>
</g>
<!-- Node20 -->
<g id="node20" class="node">
<title>Node20</title>
<g id="a_node20"><a xlink:title=" ">
<polygon fill="white" stroke="#bfbfbf" points="1132.5,-179.5 1132.5,-198.5 1187.5,-198.5 1187.5,-179.5 1132.5,-179.5"/>
<text text-anchor="middle" x="1160" y="-186.5" font-family="Helvetica,sans-Serif" font-size="10.00">fstream</text>
</a>
</g>
</g>
<!-- Node17&#45;&gt;Node20 -->
<g id="edge20" class="edge">
<title>Node17&#45;&gt;Node20</title>
<path fill="none" stroke="midnightblue" d="M1048.07,-235.44C1070.06,-226.52 1104.73,-212.44 1129.66,-202.32"/>
<polygon fill="midnightblue" stroke="midnightblue" points="1131.08,-205.52 1139.02,-198.52 1128.44,-199.04 1131.08,-205.52"/>
</g>
<!-- Node21 -->
<g id="node21" class="node">
<title>Node21</title>
<g id="a_node21"><a xlink:title=" ">
<polygon fill="white" stroke="#bfbfbf" points="1206,-179.5 1206,-198.5 1238,-198.5 1238,-179.5 1206,-179.5"/>
<text text-anchor="middle" x="1222" y="-186.5" font-family="Helvetica,sans-Serif" font-size="10.00">list</text>
</a>
</g>
</g>
<!-- Node17&#45;&gt;Node21 -->
<g id="edge22" class="edge">
<title>Node17&#45;&gt;Node21</title>
<path fill="none" stroke="midnightblue" d="M1058.03,-236.46C1092.08,-228.02 1148.24,-213.6 1196,-199 1196.1,-198.97 1196.2,-198.94 1196.3,-198.91"/>
<polygon fill="midnightblue" stroke="midnightblue" points="1197.41,-202.23 1205.83,-195.8 1195.24,-195.57 1197.41,-202.23"/>
</g>
<!-- Node22 -->
<g id="node22" class="node">
<title>Node22</title>
<g id="a_node22"><a xlink:title=" ">
<polygon fill="white" stroke="#bfbfbf" points="408,-179.5 408,-198.5 446,-198.5 446,-179.5 408,-179.5"/>
<text text-anchor="middle" x="427" y="-186.5" font-family="Helvetica,sans-Serif" font-size="10.00">map</text>
</a>
</g>
</g>
<!-- Node17&#45;&gt;Node22 -->
<g id="edge23" class="edge">
<title>Node17&#45;&gt;Node22</title>
<path fill="none" stroke="midnightblue" d="M995.96,-244.08C910.79,-243.76 666.32,-239.29 456.11,-198.75"/>
<polygon fill="midnightblue" stroke="midnightblue" points="456.61,-195.28 446.13,-196.79 455.26,-202.15 456.61,-195.28"/>
</g>
<!-- Node23 -->
<g id="node23" class="node">
<title>Node23</title>
<g id="a_node23"><a xlink:title=" ">
<polygon fill="white" stroke="#bfbfbf" points="464,-179.5 464,-198.5 520,-198.5 520,-179.5 464,-179.5"/>
<text text-anchor="middle" x="492" y="-186.5" font-family="Helvetica,sans-Serif" font-size="10.00">sstream</text>
</a>
</g>
</g>
<!-- Node17&#45;&gt;Node23 -->
<g id="edge25" class="edge">
<title>Node17&#45;&gt;Node23</title>
<path fill="none" stroke="midnightblue" d="M995.91,-242.8C918.67,-239.46 711.79,-228.46 530.19,-198.96"/>
<polygon fill="midnightblue" stroke="midnightblue" points="530.63,-195.49 520.19,-197.31 529.49,-202.39 530.63,-195.49"/>
</g>
<!-- Node24 -->
<g id="node24" class="node">
<title>Node24</title>
<g id="a_node24"><a xlink:title=" ">
<polygon fill="white" stroke="#bfbfbf" points="538,-179.5 538,-198.5 678,-198.5 678,-179.5 538,-179.5"/>
<text text-anchor="middle" x="608" y="-186.5" font-family="Helvetica,sans-Serif" font-size="10.00">allegro5/allegro_physfs.h</text>
</a>
</g>
</g>
<!-- Node17&#45;&gt;Node24 -->
<g id="edge32" class="edge">
<title>Node17&#45;&gt;Node24</title>
<path fill="none" stroke="midnightblue" d="M995.85,-239.99C930.43,-231.55 777.13,-211.8 684.04,-199.8"/>
<polygon fill="midnightblue" stroke="midnightblue" points="684.48,-196.33 674.11,-198.52 683.58,-203.27 684.48,-196.33"/>
</g>
<!-- Node25 -->
<g id="node25" class="node">
<title>Node25</title>
<g id="a_node25"><a xlink:title=" ">
<polygon fill="white" stroke="#bfbfbf" points="696.5,-179.5 696.5,-198.5 799.5,-198.5 799.5,-179.5 696.5,-179.5"/>
<text text-anchor="middle" x="748" y="-186.5" font-family="Helvetica,sans-Serif" font-size="10.00">allegro5/bitmap.h</text>
</a>
</g>
</g>
<!-- Node17&#45;&gt;Node25 -->
<g id="edge35" class="edge">
<title>Node17&#45;&gt;Node25</title>
<path fill="none" stroke="midnightblue" d="M995.81,-237.96C948.99,-228.9 859.92,-211.66 802.29,-200.51"/>
<polygon fill="midnightblue" stroke="midnightblue" points="802.75,-197.03 792.27,-198.57 801.42,-203.9 802.75,-197.03"/>
</g>
<!-- Node26 -->
<g id="node26" class="node">
<title>Node26</title>
<g id="a_node26"><a xlink:href="player_8hpp.html" target="_top" xlink:title="Modela um jogador e operações de ranking.">
<polygon fill="white" stroke="black" points="818,-179.5 818,-198.5 886,-198.5 886,-179.5 818,-179.5"/>
<text text-anchor="middle" x="852" y="-186.5" font-family="Helvetica,sans-Serif" font-size="10.00">player.hpp</text>
</a>
</g>
</g>
<!-- Node17&#45;&gt;Node26 -->
<g id="edge38" class="edge">
<title>Node17&#45;&gt;Node26</title>
<path fill="none" stroke="midnightblue" d="M995.82,-235.92C964.39,-226.86 916.33,-212.11 884.47,-201.77"/>
<polygon fill="midnightblue" stroke="midnightblue" points="885.32,-198.37 874.73,-198.59 883.15,-205.02 885.32,-198.37"/>
</g>
<!-- Node17&#45;&gt;Node27 -->
<g id="edge40" class="edge">
<title>Node17&#45;&gt;Node27</title>
<path fill="none" stroke="midnightblue" d="M1058.18,-242.44C1138.1,-238.18 1356.64,-224.91 1537,-199 1538.1,-198.84 1539.22,-198.67 1540.35,-198.5"/>
<polygon fill="midnightblue" stroke="midnightblue" points="1541.34,-201.88 1550.6,-196.73 1540.16,-194.98 1541.34,-201.88"/>
</g>
<!-- Node26&#45;&gt;Node17 -->
<g id="edge39" class="edge">
<title>Node26&#45;&gt;Node17</title>
<path fill="none" stroke="midnightblue" d="M884.68,-198.52C916.2,-207.62 963.41,-222.13 994.77,-232.3"/>
<polygon fill="midnightblue" stroke="midnightblue" points="993.77,-235.66 1004.36,-235.44 995.95,-229.01 993.77,-235.66"/>
</g>
<!-- Node27&#45;&gt;Node7 -->
<g id="edge41" class="edge">
<title>Node27&#45;&gt;Node7</title>
<path fill="none" stroke="midnightblue" d="M1581.56,-179.24C1580.52,-165.98 1576.98,-140.52 1565,-123 1534.8,-78.84 1480.02,-46.42 1446.53,-29.59"/>
<polygon fill="midnightblue" stroke="midnightblue" points="1447.81,-26.31 1437.28,-25.06 1444.73,-32.6 1447.81,-26.31"/>
</g>
<!-- Node27&#45;&gt;Node14 -->
<g id="edge42" class="edge">
<title>Node27&#45;&gt;Node14</title>
<path fill="none" stroke="midnightblue" d="M1594.08,-179.37C1620.4,-160.57 1683.12,-115.77 1715.65,-92.53"/>
<polygon fill="midnightblue" stroke="midnightblue" points="1717.87,-95.25 1723.97,-86.59 1713.8,-89.56 1717.87,-95.25"/>
</g>
<!-- Node27&#45;&gt;Node28 -->
<g id="edge43" class="edge">
<title>Node27&#45;&gt;Node28</title>
<path fill="none" stroke="midnightblue" d="M1572.04,-179.32C1562.87,-171.34 1549.06,-159.31 1537.97,-149.65"/>
<polygon fill="midnightblue" stroke="midnightblue" points="1539.98,-146.76 1530.14,-142.83 1535.38,-152.04 1539.98,-146.76"/>
</g>
<!-- Node28&#45;&gt;Node3 -->
<g id="edge45" class="edge">
<title>Node28&#45;&gt;Node3</title>
<path fill="none" stroke="midnightblue" d="M1483.6,-128.54C1385.07,-119.17 1113,-93.31 1001.07,-82.67"/>
<polygon fill="midnightblue" stroke="midnightblue" points="1001.36,-79.18 991.07,-81.71 1000.69,-86.15 1001.36,-79.18"/>
</g>
<!-- Node28&#45;&gt;Node12 -->
<g id="edge44" class="edge">
<title>Node28&#45;&gt;Node12</title>
<path fill="none" stroke="midnightblue" d="M1501.21,-123.32C1457.58,-103.16 1349.22,-53.1 1297.86,-29.37"/>
<polygon fill="midnightblue" stroke="midnightblue" points="1299.21,-26.14 1288.67,-25.12 1296.28,-32.5 1299.21,-26.14"/>
</g>
<!-- Node28&#45;&gt;Node14 -->
<g id="edge46" class="edge">
<title>Node28&#45;&gt;Node14</title>
<path fill="none" stroke="midnightblue" d="M1554.23,-123.44C1591.51,-114.12 1651.27,-99.18 1692.01,-89"/>
<polygon fill="midnightblue" stroke="midnightblue" points="1693.08,-92.34 1701.93,-86.52 1691.38,-85.55 1693.08,-92.34"/>
</g>
<!-- Node29&#45;&gt;Node3 -->
<g id="edge55" class="edge">
<title>Node29&#45;&gt;Node3</title>
<path fill="none" stroke="midnightblue" d="M968.77,-305.73C808.75,-305.74 371.25,-301.49 328,-255 206.81,-124.74 456.06,-128.45 480,-123 631.55,-88.47 816.32,-80.4 902.86,-78.54"/>
<polygon fill="midnightblue" stroke="midnightblue" points="902.99,-82.03 912.92,-78.34 902.85,-75.04 902.99,-82.03"/>
</g>
<!-- Node29&#45;&gt;Node5 -->
<g id="edge51" class="edge">
<title>Node29&#45;&gt;Node5</title>
<path fill="none" stroke="midnightblue" d="M968.84,-304.21C765.77,-299.49 98.62,-281.97 62,-255 37.2,-236.74 38,-220.8 38,-190 38,-190 38,-190 38,-132 38,-93.28 64.07,-54.1 80.95,-32.8"/>
<polygon fill="midnightblue" stroke="midnightblue" points="83.67,-35.01 87.31,-25.06 78.26,-30.56 83.67,-35.01"/>
</g>
<!-- Node29&#45;&gt;Node14 -->
<g id="edge52" class="edge">
<title>Node29&#45;&gt;Node14</title>
<path fill="none" stroke="midnightblue" d="M1085.06,-292.71C1088.08,-292.12 1091.07,-291.54 1094,-291 1152.55,-280.15 1569.78,-227.62 1622,-199 1668.64,-173.44 1707.2,-121.98 1725.15,-95.15"/>
<polygon fill="midnightblue" stroke="midnightblue" points="1728.08,-97.06 1730.62,-86.77 1722.22,-93.24 1728.08,-97.06"/>
</g>
<!-- Node29&#45;&gt;Node17 -->
<g id="edge53" class="edge">
<title>Node29&#45;&gt;Node17</title>
<path fill="none" stroke="midnightblue" d="M1027,-291.4C1027,-283.47 1027,-273.46 1027,-264.86"/>
<polygon fill="midnightblue" stroke="midnightblue" points="1030.5,-264.66 1027,-254.66 1023.5,-264.66 1030.5,-264.66"/>
</g>
<!-- Node29&#45;&gt;Node27 -->
<g id="edge54" class="edge">
<title>Node29&#45;&gt;Node27</title>
<path fill="none" stroke="midnightblue" d="M1085.1,-292.89C1088.11,-292.25 1091.09,-291.62 1094,-291 1259.55,-255.95 1457,-215.5 1540.96,-198.36"/>
<polygon fill="midnightblue" stroke="midnightblue" points="1541.77,-201.77 1550.86,-196.34 1540.37,-194.91 1541.77,-201.77"/>
</g>
<!-- Node30&#45;&gt;Node3 -->
<g id="edge60" class="edge">
<title>Node30&#45;&gt;Node3</title>
<path fill="none" stroke="midnightblue" d="M1625.19,-291.4C1636.5,-267.15 1655.34,-216.51 1637,-179 1619.19,-142.58 1602.84,-137.55 1565,-123 1462.43,-83.55 1128.13,-78.45 1001.35,-77.96"/>
<polygon fill="midnightblue" stroke="midnightblue" points="1001.17,-74.46 991.16,-77.93 1001.15,-81.46 1001.17,-74.46"/>
</g>
<!-- Node30&#45;&gt;Node14 -->
<g id="edge57" class="edge">
<title>Node30&#45;&gt;Node14</title>
<path fill="none" stroke="midnightblue" d="M1684.12,-301.14C1749.1,-295.32 1841.68,-282.37 1864,-255 1901.08,-209.54 1897.91,-170.87 1864,-123 1846.6,-98.43 1814.67,-87.18 1787.05,-82.07"/>
<polygon fill="midnightblue" stroke="midnightblue" points="1787.54,-78.6 1777.11,-80.45 1786.42,-85.51 1787.54,-78.6"/>
</g>
<!-- Node30&#45;&gt;Node17 -->
<g id="edge58" class="edge">
<title>Node30&#45;&gt;Node17</title>
<path fill="none" stroke="midnightblue" d="M1551.71,-292.59C1548.09,-292.02 1544.5,-291.48 1541,-291 1365.97,-266.92 1155.54,-253.23 1068.15,-248.22"/>
<polygon fill="midnightblue" stroke="midnightblue" points="1068.3,-244.72 1058.12,-247.65 1067.9,-251.71 1068.3,-244.72"/>
</g>
<!-- Node30&#45;&gt;Node27 -->
<g id="edge59" class="edge">
<title>Node30&#45;&gt;Node27</title>
<path fill="none" stroke="midnightblue" d="M1613.59,-291.34C1607.07,-270.43 1594.88,-231.31 1587.69,-208.27"/>
<polygon fill="midnightblue" stroke="midnightblue" points="1591.02,-207.17 1584.7,-198.67 1584.34,-209.26 1591.02,-207.17"/>
</g>
<!-- Node31&#45;&gt;Node3 -->
<g id="edge66" class="edge">
<title>Node31&#45;&gt;Node3</title>
<path fill="none" stroke="midnightblue" d="M1103.49,-292.87C1100.29,-292.2 1097.1,-291.57 1094,-291 940.8,-262.73 501.68,-316.17 399,-199 330.29,-120.59 755.27,-89.04 902.85,-80.53"/>
<polygon fill="midnightblue" stroke="midnightblue" points="903.2,-84.02 912.99,-79.96 902.81,-77.03 903.2,-84.02"/>
</g>
<!-- Node31&#45;&gt;Node5 -->
<g id="edge62" class="edge">
<title>Node31&#45;&gt;Node5</title>
<path fill="none" stroke="midnightblue" d="M1103.22,-292.46C1100.11,-291.9 1097.02,-291.41 1094,-291 1039.24,-283.57 144.76,-287.41 100,-255 75.06,-236.94 76,-220.8 76,-190 76,-190 76,-190 76,-132 76,-97.4 84.4,-57.74 90.03,-35.05"/>
<polygon fill="midnightblue" stroke="midnightblue" points="93.49,-35.67 92.59,-25.11 86.71,-33.92 93.49,-35.67"/>
</g>
<!-- Node31&#45;&gt;Node14 -->
<g id="edge63" class="edge">
<title>Node31&#45;&gt;Node14</title>
<path fill="none" stroke="midnightblue" d="M1206.56,-298.12C1347.99,-277.65 1732.71,-220.23 1750,-199 1774.05,-169.47 1757.33,-121.61 1745.31,-95.82"/>
<polygon fill="midnightblue" stroke="midnightblue" points="1748.43,-94.23 1740.87,-86.81 1742.15,-97.33 1748.43,-94.23"/>
</g>
<!-- Node31&#45;&gt;Node17 -->
<g id="edge64" class="edge">
<title>Node31&#45;&gt;Node17</title>
<path fill="none" stroke="midnightblue" d="M1124.67,-291.4C1103.48,-281.55 1075.41,-268.5 1054.8,-258.92"/>
<polygon fill="midnightblue" stroke="midnightblue" points="1056.17,-255.7 1045.63,-254.66 1053.22,-262.05 1056.17,-255.7"/>
</g>
<!-- Node31&#45;&gt;Node27 -->
<g id="edge65" class="edge">
<title>Node31&#45;&gt;Node27</title>
<path fill="none" stroke="midnightblue" d="M1206.76,-297.89C1276.44,-287.37 1396.56,-268.19 1439,-255 1482.33,-241.53 1529.74,-218.12 1557.63,-203.37"/>
<polygon fill="midnightblue" stroke="midnightblue" points="1559.47,-206.35 1566.64,-198.55 1556.17,-200.18 1559.47,-206.35"/>
</g>
<!-- Node32&#45;&gt;Node3 -->
<g id="edge71" class="edge">
<title>Node32&#45;&gt;Node3</title>
<path fill="none" stroke="midnightblue" d="M1325.21,-291.13C1314,-265.04 1286.86,-209.76 1247,-179 1172.71,-121.67 1063.76,-95.67 1001.16,-84.86"/>
<polygon fill="midnightblue" stroke="midnightblue" points="1001.59,-81.38 991.15,-83.19 1000.44,-88.29 1001.59,-81.38"/>
</g>
<!-- Node32&#45;&gt;Node5 -->
<g id="edge72" class="edge">
<title>Node32&#45;&gt;Node5</title>
<path fill="none" stroke="midnightblue" d="M1274.4,-298.05C1255.53,-295.66 1234.37,-293.1 1215,-291 1092.87,-277.77 114,-312.85 114,-190 114,-190 114,-190 114,-132 114,-97.4 105.6,-57.74 99.97,-35.05"/>
<polygon fill="midnightblue" stroke="midnightblue" points="103.29,-33.92 97.41,-25.11 96.51,-35.67 103.29,-33.92"/>
</g>
<!-- Node32&#45;&gt;Node14 -->
<g id="edge68" class="edge">
<title>Node32&#45;&gt;Node14</title>
<path fill="none" stroke="midnightblue" d="M1387.89,-295.67C1398.55,-293.99 1409.6,-292.35 1420,-291 1460.74,-285.69 1760.4,-285.43 1788,-255 1827.41,-211.54 1812.39,-176.36 1788,-123 1782.22,-110.36 1770.95,-99.91 1760.37,-92.27"/>
<polygon fill="midnightblue" stroke="midnightblue" points="1762.04,-89.18 1751.78,-86.53 1758.15,-95 1762.04,-89.18"/>
</g>
<!-- Node32&#45;&gt;Node17 -->
<g id="edge69" class="edge">
<title>Node32&#45;&gt;Node17</title>
<path fill="none" stroke="midnightblue" d="M1274.18,-294.38C1214.4,-282.68 1121.77,-264.55 1068.51,-254.13"/>
<polygon fill="midnightblue" stroke="midnightblue" points="1068.89,-250.63 1058.41,-252.15 1067.55,-257.5 1068.89,-250.63"/>
</g>
<!-- Node32&#45;&gt;Node27 -->
<g id="edge70" class="edge">
<title>Node32&#45;&gt;Node27</title>
<path fill="none" stroke="midnightblue" d="M1387.58,-293.65C1434.14,-283.27 1495.93,-267.89 1518,-255 1539.07,-242.7 1557.95,-221.67 1569.65,-206.87"/>
<polygon fill="midnightblue" stroke="midnightblue" points="1572.69,-208.66 1575.97,-198.59 1567.12,-204.42 1572.69,-208.66"/>
</g>
</g>
</svg>
