<?xml version="1.0" encoding="UTF-8" standalone="no"?>
<!DOCTYPE svg PUBLIC "-//W3C//DTD SVG 1.1//EN"
 "http://www.w3.org/Graphics/SVG/1.1/DTD/svg11.dtd">
<!-- Generated by graphviz version 2.43.0 (0)
 -->
<!-- Title: src/main.cpp Pages: 1 -->
<svg width="1790pt" height="554pt"
 viewBox="0.00 0.00 1789.50 554.00" xmlns="http://www.w3.org/2000/svg" xmlns:xlink="http://www.w3.org/1999/xlink">
<g id="graph0" class="graph" transform="scale(1 1) rotate(0) translate(4 550)">
<title>src/main.cpp</title>
<polygon fill="white" stroke="transparent" points="-4,4 -4,-550 1785.5,-550 1785.5,4 -4,4"/>
<!-- Node1 -->
<g id="node1" class="node">
<title>Node1</title>
<g id="a_node1"><a xlink:title="Ponto de entrada do jogo Flappy Bird.">
<polygon fill="#bfbfbf" stroke="black" points="1629.5,-526.5 1629.5,-545.5 1708.5,-545.5 1708.5,-526.5 1629.5,-526.5"/>
<text text-anchor="middle" x="1669" y="-533.5" font-family="Helvetica,sans-Serif" font-size="10.00">src/main.cpp</text>
</a>
</g>
</g>
<!-- Node2 -->
<g id="node2" class="node">
<title>Node2</title>
<g id="a_node2"><a xlink:href="allegro__interface_8hpp.html" target="_top" xlink:title="Declara o controlador que integra Allegro e a máquina de estados.">
<polygon fill="white" stroke="black" points="1204,-459.5 1204,-489.5 1302,-489.5 1302,-459.5 1204,-459.5"/>
<text text-anchor="start" x="1212" y="-477.5" font-family="Helvetica,sans-Serif" font-size="10.00">../include/allegro</text>
<text text-anchor="middle" x="1253" y="-466.5" font-family="Helvetica,sans-Serif" font-size="10.00">_interface.hpp</text>
</a>
</g>
</g>
<!-- Node1&#45;&gt;Node2 -->
<g id="edge1" class="edge">
<title>Node1&#45;&gt;Node2</title>
<path fill="none" stroke="midnightblue" d="M1629.49,-529.35C1556.11,-518.85 1398.45,-496.3 1312.25,-483.97"/>
<polygon fill="midnightblue" stroke="midnightblue" points="1312.5,-480.47 1302.11,-482.52 1311.51,-487.4 1312.5,-480.47"/>
</g>
<!-- Node6 -->
<g id="node6" class="node">
<title>Node6</title>
<g id="a_node6"><a xlink:title=" ">
<polygon fill="white" stroke="#bfbfbf" points="1552,-6 1552,-25 1612,-25 1612,-6 1552,-6"/>
<text text-anchor="middle" x="1582" y="-13" font-family="Helvetica,sans-Serif" font-size="10.00">iostream</text>
</a>
</g>
</g>
<!-- Node1&#45;&gt;Node6 -->
<g id="edge66" class="edge">
<title>Node1&#45;&gt;Node6</title>
<path fill="none" stroke="midnightblue" d="M1671.33,-526.27C1676.4,-506.46 1688,-456.53 1688,-414 1688,-414 1688,-414 1688,-132 1688,-84.69 1639.12,-48.37 1607.75,-29.93"/>
<polygon fill="midnightblue" stroke="midnightblue" points="1609.46,-26.88 1599.03,-25 1606.01,-32.97 1609.46,-26.88"/>
</g>
<!-- Node20 -->
<g id="node20" class="node">
<title>Node20</title>
<g id="a_node20"><a xlink:href="init_8hpp.html" target="_top" xlink:title="Declara funções de inicialização e finalização do Allegro.">
<polygon fill="white" stroke="black" points="905.5,-235.5 905.5,-254.5 958.5,-254.5 958.5,-235.5 905.5,-235.5"/>
<text text-anchor="middle" x="932" y="-242.5" font-family="Helvetica,sans-Serif" font-size="10.00">init.hpp</text>
</a>
</g>
</g>
<!-- Node1&#45;&gt;Node20 -->
<g id="edge65" class="edge">
<title>Node1&#45;&gt;Node20</title>
<path fill="none" stroke="midnightblue" d="M1666.67,-526.27C1661.6,-506.46 1650,-456.53 1650,-414 1650,-414 1650,-414 1650,-356 1650,-286.41 1116.23,-255.05 969.14,-247.73"/>
<polygon fill="midnightblue" stroke="midnightblue" points="969,-244.22 958.84,-247.22 968.65,-251.21 969,-244.22"/>
</g>
<!-- Node34 -->
<g id="node34" class="node">
<title>Node34</title>
<g id="a_node34"><a xlink:title=" ">
<polygon fill="white" stroke="#bfbfbf" points="1716.5,-465 1716.5,-484 1781.5,-484 1781.5,-465 1716.5,-465"/>
<text text-anchor="middle" x="1749" y="-472" font-family="Helvetica,sans-Serif" font-size="10.00">stdexcept</text>
</a>
</g>
</g>
<!-- Node1&#45;&gt;Node34 -->
<g id="edge67" class="edge">
<title>Node1&#45;&gt;Node34</title>
<path fill="none" stroke="midnightblue" d="M1680.46,-526.48C1693.17,-517.02 1713.91,-501.6 1729.25,-490.19"/>
<polygon fill="midnightblue" stroke="midnightblue" points="1731.62,-492.79 1737.56,-484.01 1727.45,-487.17 1731.62,-492.79"/>
</g>
<!-- Node3 -->
<g id="node3" class="node">
<title>Node3</title>
<g id="a_node3"><a xlink:href="flappy__bird__controller_8hpp.html" target="_top" xlink:title="Declaracao da classe FlappyBird (controlador principal).">
<polygon fill="white" stroke="black" points="860.5,-403.5 860.5,-422.5 1003.5,-422.5 1003.5,-403.5 860.5,-403.5"/>
<text text-anchor="middle" x="932" y="-410.5" font-family="Helvetica,sans-Serif" font-size="10.00">flappy_bird_controller.hpp</text>
</a>
</g>
</g>
<!-- Node2&#45;&gt;Node3 -->
<g id="edge2" class="edge">
<title>Node2&#45;&gt;Node3</title>
<path fill="none" stroke="midnightblue" d="M1203.9,-464.4C1145.67,-453.61 1048.84,-435.66 987.82,-424.35"/>
<polygon fill="midnightblue" stroke="midnightblue" points="988.44,-420.9 977.97,-422.52 987.17,-427.79 988.44,-420.9"/>
</g>
<!-- Node2&#45;&gt;Node20 -->
<g id="edge63" class="edge">
<title>Node2&#45;&gt;Node20</title>
<path fill="none" stroke="midnightblue" d="M1232.92,-459.27C1175.46,-418.55 1010.81,-301.85 952.65,-260.64"/>
<polygon fill="midnightblue" stroke="midnightblue" points="954.45,-257.62 944.26,-254.69 950.4,-263.33 954.45,-257.62"/>
</g>
<!-- Node30 -->
<g id="node30" class="node">
<title>Node30</title>
<g id="a_node30"><a xlink:href="state_8hpp.html" target="_top" xlink:title="Interface base para estados da máquina de estados do jogo.">
<polygon fill="white" stroke="black" points="218,-179.5 218,-198.5 280,-198.5 280,-179.5 218,-179.5"/>
<text text-anchor="middle" x="249" y="-186.5" font-family="Helvetica,sans-Serif" font-size="10.00">state.hpp</text>
</a>
</g>
</g>
<!-- Node2&#45;&gt;Node30 -->
<g id="edge64" class="edge">
<title>Node2&#45;&gt;Node30</title>
<path fill="none" stroke="midnightblue" d="M1203.88,-471.59C972.22,-462.29 0,-419.58 0,-358 0,-358 0,-358 0,-300 0,-210.32 136.81,-193.15 207.61,-190.27"/>
<polygon fill="midnightblue" stroke="midnightblue" points="208.09,-193.76 217.97,-189.93 207.86,-186.76 208.09,-193.76"/>
</g>
<!-- Node4 -->
<g id="node4" class="node">
<title>Node4</title>
<g id="a_node4"><a xlink:title=" ">
<polygon fill="white" stroke="#bfbfbf" points="1476,-6 1476,-25 1534,-25 1534,-6 1476,-6"/>
<text text-anchor="middle" x="1505" y="-13" font-family="Helvetica,sans-Serif" font-size="10.00">memory</text>
</a>
</g>
</g>
<!-- Node3&#45;&gt;Node4 -->
<g id="edge3" class="edge">
<title>Node3&#45;&gt;Node4</title>
<path fill="none" stroke="midnightblue" d="M1003.84,-407.77C1118.02,-400.63 1335.69,-385.16 1411,-367 1486.82,-348.72 1574,-379.99 1574,-302 1574,-302 1574,-302 1574,-132 1574,-91.4 1542.2,-52.7 1521.77,-32.02"/>
<polygon fill="midnightblue" stroke="midnightblue" points="1524.2,-29.49 1514.59,-25.02 1519.31,-34.5 1524.2,-29.49"/>
</g>
<!-- Node5 -->
<g id="node5" class="node">
<title>Node5</title>
<g id="a_node5"><a xlink:href="assets_8hpp.html" target="_top" xlink:title="Declara classes utilitárias para carregar e usar imagens, sons e fontes no Allegro.">
<polygon fill="white" stroke="black" points="1124.5,-67.5 1124.5,-86.5 1193.5,-86.5 1193.5,-67.5 1124.5,-67.5"/>
<text text-anchor="middle" x="1159" y="-74.5" font-family="Helvetica,sans-Serif" font-size="10.00">assets.hpp</text>
</a>
</g>
</g>
<!-- Node3&#45;&gt;Node5 -->
<g id="edge4" class="edge">
<title>Node3&#45;&gt;Node5</title>
<path fill="none" stroke="midnightblue" d="M1003.66,-406.37C1163.65,-392.83 1536,-355.56 1536,-302 1536,-302 1536,-302 1536,-244 1536,-213.9 1538.38,-200.18 1517,-179 1431.01,-93.81 1279.03,-79.23 1203.78,-77.52"/>
<polygon fill="midnightblue" stroke="midnightblue" points="1203.74,-74.02 1193.69,-77.36 1203.63,-81.02 1203.74,-74.02"/>
</g>
<!-- Node15 -->
<g id="node15" class="node">
<title>Node15</title>
<g id="a_node15"><a xlink:href="bird_8hpp.html" target="_top" xlink:title="Declaracao da classe Bird (personagem controlavel).">
<polygon fill="white" stroke="black" points="264,-347.5 264,-366.5 320,-366.5 320,-347.5 264,-347.5"/>
<text text-anchor="middle" x="292" y="-354.5" font-family="Helvetica,sans-Serif" font-size="10.00">bird.hpp</text>
</a>
</g>
</g>
<!-- Node3&#45;&gt;Node15 -->
<g id="edge15" class="edge">
<title>Node3&#45;&gt;Node15</title>
<path fill="none" stroke="midnightblue" d="M860.45,-405.96C724.85,-394.52 434.69,-370.04 330.36,-361.24"/>
<polygon fill="midnightblue" stroke="midnightblue" points="330.54,-357.74 320.28,-360.39 329.95,-364.71 330.54,-357.74"/>
</g>
<!-- Node16 -->
<g id="node16" class="node">
<title>Node16</title>
<g id="a_node16"><a xlink:href="defines_8hpp.html" target="_top" xlink:title="Constantes globais, macros e estruturas auxiliares do jogo.">
<polygon fill="white" stroke="black" points="216.5,-67.5 216.5,-86.5 289.5,-86.5 289.5,-67.5 216.5,-67.5"/>
<text text-anchor="middle" x="253" y="-74.5" font-family="Helvetica,sans-Serif" font-size="10.00">defines.hpp</text>
</a>
</g>
</g>
<!-- Node3&#45;&gt;Node16 -->
<g id="edge52" class="edge">
<title>Node3&#45;&gt;Node16</title>
<path fill="none" stroke="midnightblue" d="M860.35,-410.68C648.21,-405.83 38,-384.69 38,-302 38,-302 38,-302 38,-188 38,-113.13 142.6,-89.19 205.88,-81.56"/>
<polygon fill="midnightblue" stroke="midnightblue" points="206.49,-85.01 216.04,-80.43 205.71,-78.05 206.49,-85.01"/>
</g>
<!-- Node19 -->
<g id="node19" class="node">
<title>Node19</title>
<g id="a_node19"><a xlink:href="game__object_8hpp.html" target="_top" xlink:title="Classe base abstrata para todos os objetos renderizáveis.">
<polygon fill="white" stroke="black" points="573.5,-291.5 573.5,-310.5 674.5,-310.5 674.5,-291.5 573.5,-291.5"/>
<text text-anchor="middle" x="624" y="-298.5" font-family="Helvetica,sans-Serif" font-size="10.00">game_object.hpp</text>
</a>
</g>
</g>
<!-- Node3&#45;&gt;Node19 -->
<g id="edge53" class="edge">
<title>Node3&#45;&gt;Node19</title>
<path fill="none" stroke="midnightblue" d="M908.09,-403.46C853.62,-384.01 720.19,-336.36 657.54,-313.98"/>
<polygon fill="midnightblue" stroke="midnightblue" points="658.7,-310.68 648.11,-310.61 656.35,-317.27 658.7,-310.68"/>
</g>
<!-- Node3&#45;&gt;Node20 -->
<g id="edge54" class="edge">
<title>Node3&#45;&gt;Node20</title>
<path fill="none" stroke="midnightblue" d="M932,-403.08C932,-376.95 932,-300.21 932,-264.58"/>
<polygon fill="midnightblue" stroke="midnightblue" points="935.5,-264.57 932,-254.57 928.5,-264.57 935.5,-264.57"/>
</g>
<!-- Node29 -->
<g id="node29" class="node">
<title>Node29</title>
<g id="a_node29"><a xlink:href="player_8hpp.html" target="_top" xlink:title="Modela um jogador e operações de ranking.">
<polygon fill="white" stroke="black" points="1440,-179.5 1440,-198.5 1508,-198.5 1508,-179.5 1440,-179.5"/>
<text text-anchor="middle" x="1474" y="-186.5" font-family="Helvetica,sans-Serif" font-size="10.00">player.hpp</text>
</a>
</g>
</g>
<!-- Node3&#45;&gt;Node29 -->
<g id="edge62" class="edge">
<title>Node3&#45;&gt;Node29</title>
<path fill="none" stroke="midnightblue" d="M952.91,-403.43C1036.33,-369.27 1345.48,-242.64 1443.78,-202.38"/>
<polygon fill="midnightblue" stroke="midnightblue" points="1445.22,-205.57 1453.15,-198.54 1442.57,-199.09 1445.22,-205.57"/>
</g>
<!-- Node32 -->
<g id="node32" class="node">
<title>Node32</title>
<g id="a_node32"><a xlink:href="pipe_8hpp.html" target="_top" xlink:title="Declaration of pipe&#45;related classes (Pipe, PipePair, PipeList).">
<polygon fill="white" stroke="black" points="515.5,-347.5 515.5,-366.5 574.5,-366.5 574.5,-347.5 515.5,-347.5"/>
<text text-anchor="middle" x="545" y="-354.5" font-family="Helvetica,sans-Serif" font-size="10.00">pipe.hpp</text>
</a>
</g>
</g>
<!-- Node3&#45;&gt;Node32 -->
<g id="edge55" class="edge">
<title>Node3&#45;&gt;Node32</title>
<path fill="none" stroke="midnightblue" d="M870.68,-403.44C790.56,-392.26 652.55,-373.01 584.83,-363.56"/>
<polygon fill="midnightblue" stroke="midnightblue" points="584.97,-360.04 574.58,-362.13 584,-366.98 584.97,-360.04"/>
</g>
<!-- Node5&#45;&gt;Node4 -->
<g id="edge6" class="edge">
<title>Node5&#45;&gt;Node4</title>
<path fill="none" stroke="midnightblue" d="M1193.67,-73.43C1251.21,-68.61 1369.73,-56.33 1467,-31 1469.82,-30.27 1472.72,-29.39 1475.59,-28.44"/>
<polygon fill="midnightblue" stroke="midnightblue" points="1476.92,-31.68 1485.15,-25.01 1474.56,-25.09 1476.92,-31.68"/>
</g>
<!-- Node5&#45;&gt;Node6 -->
<g id="edge5" class="edge">
<title>Node5&#45;&gt;Node6</title>
<path fill="none" stroke="midnightblue" d="M1193.65,-74.71C1261.55,-71.58 1416.56,-61.45 1543,-31 1545.99,-30.28 1549.07,-29.4 1552.12,-28.43"/>
<polygon fill="midnightblue" stroke="midnightblue" points="1553.35,-31.71 1561.64,-25.12 1551.05,-25.09 1553.35,-31.71"/>
</g>
<!-- Node7 -->
<g id="node7" class="node">
<title>Node7</title>
<g id="a_node7"><a xlink:title=" ">
<polygon fill="white" stroke="#bfbfbf" points="1134,-6 1134,-25 1178,-25 1178,-6 1134,-6"/>
<text text-anchor="middle" x="1156" y="-13" font-family="Helvetica,sans-Serif" font-size="10.00">string</text>
</a>
</g>
</g>
<!-- Node5&#45;&gt;Node7 -->
<g id="edge7" class="edge">
<title>Node5&#45;&gt;Node7</title>
<path fill="none" stroke="midnightblue" d="M1158.57,-67.48C1158.15,-59.08 1157.49,-45.98 1156.94,-35.16"/>
<polygon fill="midnightblue" stroke="midnightblue" points="1160.43,-34.82 1156.43,-25.01 1153.44,-35.17 1160.43,-34.82"/>
</g>
<!-- Node8 -->
<g id="node8" class="node">
<title>Node8</title>
<g id="a_node8"><a xlink:title=" ">
<polygon fill="white" stroke="#bfbfbf" points="1196,-6 1196,-25 1298,-25 1298,-6 1196,-6"/>
<text text-anchor="middle" x="1247" y="-13" font-family="Helvetica,sans-Serif" font-size="10.00">allegro5/allegro.h</text>
</a>
</g>
</g>
<!-- Node5&#45;&gt;Node8 -->
<g id="edge8" class="edge">
<title>Node5&#45;&gt;Node8</title>
<path fill="none" stroke="midnightblue" d="M1171.61,-67.48C1185.72,-57.93 1208.83,-42.31 1225.75,-30.87"/>
<polygon fill="midnightblue" stroke="midnightblue" points="1228.09,-33.51 1234.42,-25.01 1224.17,-27.71 1228.09,-33.51"/>
</g>
<!-- Node9 -->
<g id="node9" class="node">
<title>Node9</title>
<g id="a_node9"><a xlink:title=" ">
<polygon fill="white" stroke="#bfbfbf" points="1316,-6 1316,-25 1458,-25 1458,-6 1316,-6"/>
<text text-anchor="middle" x="1387" y="-13" font-family="Helvetica,sans-Serif" font-size="10.00">allegro5/allegro_acodec.h</text>
</a>
</g>
</g>
<!-- Node5&#45;&gt;Node9 -->
<g id="edge9" class="edge">
<title>Node5&#45;&gt;Node9</title>
<path fill="none" stroke="midnightblue" d="M1191.67,-67.48C1231.88,-56.98 1300.26,-39.14 1344.52,-27.59"/>
<polygon fill="midnightblue" stroke="midnightblue" points="1345.6,-30.92 1354.39,-25.01 1343.83,-24.15 1345.6,-30.92"/>
</g>
<!-- Node10 -->
<g id="node10" class="node">
<title>Node10</title>
<g id="a_node10"><a xlink:title=" ">
<polygon fill="white" stroke="#bfbfbf" points="529,-6 529,-25 663,-25 663,-6 529,-6"/>
<text text-anchor="middle" x="596" y="-13" font-family="Helvetica,sans-Serif" font-size="10.00">allegro5/allegro_audio.h</text>
</a>
</g>
</g>
<!-- Node5&#45;&gt;Node10 -->
<g id="edge10" class="edge">
<title>Node5&#45;&gt;Node10</title>
<path fill="none" stroke="midnightblue" d="M1124.47,-73.88C1044.82,-68.76 842.14,-54.38 674,-31 665.57,-29.83 656.66,-28.38 648,-26.85"/>
<polygon fill="midnightblue" stroke="midnightblue" points="648.45,-23.37 637.99,-25.03 647.2,-30.26 648.45,-23.37"/>
</g>
<!-- Node11 -->
<g id="node11" class="node">
<title>Node11</title>
<g id="a_node11"><a xlink:title=" ">
<polygon fill="white" stroke="#bfbfbf" points="683,-6 683,-25 821,-25 821,-6 683,-6"/>
<text text-anchor="middle" x="752" y="-13" font-family="Helvetica,sans-Serif" font-size="10.00">allegro5/allegro_image.h</text>
</a>
</g>
</g>
<!-- Node5&#45;&gt;Node11 -->
<g id="edge11" class="edge">
<title>Node5&#45;&gt;Node11</title>
<path fill="none" stroke="midnightblue" d="M1124.14,-71.31C1065.59,-63.38 943.81,-46.65 841,-31 832.02,-29.63 822.54,-28.14 813.25,-26.65"/>
<polygon fill="midnightblue" stroke="midnightblue" points="813.7,-23.18 803.27,-25.04 812.58,-30.09 813.7,-23.18"/>
</g>
<!-- Node12 -->
<g id="node12" class="node">
<title>Node12</title>
<g id="a_node12"><a xlink:title=" ">
<polygon fill="white" stroke="#bfbfbf" points="850.5,-0.5 850.5,-30.5 979.5,-30.5 979.5,-0.5 850.5,-0.5"/>
<text text-anchor="start" x="858.5" y="-18.5" font-family="Helvetica,sans-Serif" font-size="10.00">allegro5/allegro_native</text>
<text text-anchor="middle" x="915" y="-7.5" font-family="Helvetica,sans-Serif" font-size="10.00">_dialog.h</text>
</a>
</g>
</g>
<!-- Node5&#45;&gt;Node12 -->
<g id="edge12" class="edge">
<title>Node5&#45;&gt;Node12</title>
<path fill="none" stroke="midnightblue" d="M1124.3,-67.54C1087.53,-58.57 1028.53,-44.19 982.54,-32.97"/>
<polygon fill="midnightblue" stroke="midnightblue" points="983.18,-29.52 972.63,-30.55 981.52,-36.32 983.18,-29.52"/>
</g>
<!-- Node13 -->
<g id="node13" class="node">
<title>Node13</title>
<g id="a_node13"><a xlink:title=" ">
<polygon fill="white" stroke="#bfbfbf" points="331.5,-6 331.5,-25 488.5,-25 488.5,-6 331.5,-6"/>
<text text-anchor="middle" x="410" y="-13" font-family="Helvetica,sans-Serif" font-size="10.00">allegro5/allegro_primitives.h</text>
</a>
</g>
</g>
<!-- Node5&#45;&gt;Node13 -->
<g id="edge13" class="edge">
<title>Node5&#45;&gt;Node13</title>
<path fill="none" stroke="midnightblue" d="M1124.3,-74.3C1028.15,-69.43 750.15,-54.25 520,-31 506.94,-29.68 493.04,-28.04 479.68,-26.33"/>
<polygon fill="midnightblue" stroke="midnightblue" points="479.95,-22.84 469.58,-25.03 479.05,-29.78 479.95,-22.84"/>
</g>
<!-- Node14 -->
<g id="node14" class="node">
<title>Node14</title>
<g id="a_node14"><a xlink:title=" ">
<polygon fill="white" stroke="#bfbfbf" points="998,-6 998,-25 1116,-25 1116,-6 998,-6"/>
<text text-anchor="middle" x="1057" y="-13" font-family="Helvetica,sans-Serif" font-size="10.00">allegro5/allegro_ttf.h</text>
</a>
</g>
</g>
<!-- Node5&#45;&gt;Node14 -->
<g id="edge14" class="edge">
<title>Node5&#45;&gt;Node14</title>
<path fill="none" stroke="midnightblue" d="M1144.39,-67.48C1127.65,-57.71 1100,-41.58 1080.28,-30.08"/>
<polygon fill="midnightblue" stroke="midnightblue" points="1081.99,-27.02 1071.59,-25.01 1078.46,-33.07 1081.99,-27.02"/>
</g>
<!-- Node15&#45;&gt;Node13 -->
<g id="edge16" class="edge">
<title>Node15&#45;&gt;Node13</title>
<path fill="none" stroke="midnightblue" d="M263.76,-354.45C205.21,-349.56 76,-329.32 76,-246 76,-246 76,-246 76,-188 76,-108.74 134.96,-100.06 207,-67 249.75,-47.38 301.21,-34.69 341.62,-26.93"/>
<polygon fill="midnightblue" stroke="midnightblue" points="342.45,-30.34 351.64,-25.07 341.17,-23.46 342.45,-30.34"/>
</g>
<!-- Node15&#45;&gt;Node16 -->
<g id="edge17" class="edge">
<title>Node15&#45;&gt;Node16</title>
<path fill="none" stroke="midnightblue" d="M263.86,-355.16C229.84,-352.65 172.83,-343.49 138,-311 115.48,-289.99 114,-276.8 114,-246 114,-246 114,-246 114,-188 114,-136.58 173.23,-105.42 214.36,-89.98"/>
<polygon fill="midnightblue" stroke="midnightblue" points="215.63,-93.24 223.86,-86.57 213.27,-86.65 215.63,-93.24"/>
</g>
<!-- Node15&#45;&gt;Node19 -->
<g id="edge21" class="edge">
<title>Node15&#45;&gt;Node19</title>
<path fill="none" stroke="midnightblue" d="M320.02,-351.44C373.47,-342.75 491.1,-323.62 563.35,-311.87"/>
<polygon fill="midnightblue" stroke="midnightblue" points="563.92,-315.32 573.23,-310.26 562.8,-308.41 563.92,-315.32"/>
</g>
<!-- Node16&#45;&gt;Node7 -->
<g id="edge19" class="edge">
<title>Node16&#45;&gt;Node7</title>
<path fill="none" stroke="midnightblue" d="M289.79,-75.98C434.3,-75.6 963.03,-71.42 1125,-31 1126.99,-30.5 1129,-29.88 1131,-29.17"/>
<polygon fill="midnightblue" stroke="midnightblue" points="1132.81,-32.21 1140.66,-25.1 1130.09,-25.75 1132.81,-32.21"/>
</g>
<!-- Node17 -->
<g id="node17" class="node">
<title>Node17</title>
<g id="a_node17"><a xlink:title=" ">
<polygon fill="white" stroke="#bfbfbf" points="229.5,-6 229.5,-25 276.5,-25 276.5,-6 229.5,-6"/>
<text text-anchor="middle" x="253" y="-13" font-family="Helvetica,sans-Serif" font-size="10.00">cmath</text>
</a>
</g>
</g>
<!-- Node16&#45;&gt;Node17 -->
<g id="edge18" class="edge">
<title>Node16&#45;&gt;Node17</title>
<path fill="none" stroke="midnightblue" d="M253,-67.48C253,-59.08 253,-45.98 253,-35.16"/>
<polygon fill="midnightblue" stroke="midnightblue" points="256.5,-35.01 253,-25.01 249.5,-35.01 256.5,-35.01"/>
</g>
<!-- Node18 -->
<g id="node18" class="node">
<title>Node18</title>
<g id="a_node18"><a xlink:title=" ">
<polygon fill="white" stroke="#bfbfbf" points="145.5,-6 145.5,-25 192.5,-25 192.5,-6 145.5,-6"/>
<text text-anchor="middle" x="169" y="-13" font-family="Helvetica,sans-Serif" font-size="10.00">vector</text>
</a>
</g>
</g>
<!-- Node16&#45;&gt;Node18 -->
<g id="edge20" class="edge">
<title>Node16&#45;&gt;Node18</title>
<path fill="none" stroke="midnightblue" d="M240.96,-67.48C227.49,-57.93 205.43,-42.31 189.28,-30.87"/>
<polygon fill="midnightblue" stroke="midnightblue" points="191.2,-27.93 181.01,-25.01 187.15,-33.65 191.2,-27.93"/>
</g>
<!-- Node19&#45;&gt;Node20 -->
<g id="edge22" class="edge">
<title>Node19&#45;&gt;Node20</title>
<path fill="none" stroke="midnightblue" d="M672.8,-291.44C734.63,-280.6 839.8,-262.17 895.26,-252.44"/>
<polygon fill="midnightblue" stroke="midnightblue" points="896.09,-255.85 905.34,-250.67 894.88,-248.95 896.09,-255.85"/>
</g>
<!-- Node20&#45;&gt;Node4 -->
<g id="edge29" class="edge">
<title>Node20&#45;&gt;Node4</title>
<path fill="none" stroke="midnightblue" d="M958.62,-242.53C1030.34,-238.27 1226.14,-224.56 1285,-199 1376.02,-159.48 1459.08,-70.34 1491.08,-33.22"/>
<polygon fill="midnightblue" stroke="midnightblue" points="1493.96,-35.23 1497.77,-25.35 1488.62,-30.7 1493.96,-35.23"/>
</g>
<!-- Node20&#45;&gt;Node5 -->
<g id="edge41" class="edge">
<title>Node20&#45;&gt;Node5</title>
<path fill="none" stroke="midnightblue" d="M958.89,-243.65C1020.23,-242.23 1167.54,-235.04 1198,-199 1224,-168.24 1193.11,-119.85 1173.23,-94.59"/>
<polygon fill="midnightblue" stroke="midnightblue" points="1175.81,-92.22 1166.77,-86.69 1170.39,-96.65 1175.81,-92.22"/>
</g>
<!-- Node20&#45;&gt;Node6 -->
<g id="edge26" class="edge">
<title>Node20&#45;&gt;Node6</title>
<path fill="none" stroke="midnightblue" d="M958.54,-242.53C1034.62,-238.08 1252.33,-223.48 1319,-199 1424.25,-160.36 1526.95,-69.28 1565.75,-32.41"/>
<polygon fill="midnightblue" stroke="midnightblue" points="1568.65,-34.48 1573.43,-25.02 1563.8,-29.43 1568.65,-34.48"/>
</g>
<!-- Node20&#45;&gt;Node7 -->
<g id="edge31" class="edge">
<title>Node20&#45;&gt;Node7</title>
<path fill="none" stroke="midnightblue" d="M958.86,-243.99C1023.33,-243.33 1183.89,-237.75 1217,-199 1255.36,-154.11 1228.09,-119.97 1202,-67 1195.45,-53.7 1184.33,-41.35 1174.66,-32.19"/>
<polygon fill="midnightblue" stroke="midnightblue" points="1176.79,-29.39 1167.02,-25.3 1172.1,-34.59 1176.79,-29.39"/>
</g>
<!-- Node20&#45;&gt;Node8 -->
<g id="edge32" class="edge">
<title>Node20&#45;&gt;Node8</title>
<path fill="none" stroke="midnightblue" d="M958.93,-243.96C1026.17,-243.26 1198.82,-237.66 1238,-199 1282,-155.59 1264.23,-72.54 1253.24,-35.34"/>
<polygon fill="midnightblue" stroke="midnightblue" points="1256.44,-33.86 1250.12,-25.36 1249.76,-35.95 1256.44,-33.86"/>
</g>
<!-- Node20&#45;&gt;Node9 -->
<g id="edge33" class="edge">
<title>Node20&#45;&gt;Node9</title>
<path fill="none" stroke="midnightblue" d="M958.87,-243.06C1027.89,-240.22 1209.52,-229.92 1260,-199 1293.37,-178.56 1353.54,-76.03 1377.13,-34.25"/>
<polygon fill="midnightblue" stroke="midnightblue" points="1380.23,-35.89 1382.07,-25.45 1374.12,-32.46 1380.23,-35.89"/>
</g>
<!-- Node20&#45;&gt;Node10 -->
<g id="edge34" class="edge">
<title>Node20&#45;&gt;Node10</title>
<path fill="none" stroke="midnightblue" d="M905.44,-242.89C822.4,-239.15 571.79,-225.74 548,-199 505.22,-150.92 556.36,-69.16 582.47,-33.73"/>
<polygon fill="midnightblue" stroke="midnightblue" points="585.53,-35.48 588.78,-25.4 579.96,-31.25 585.53,-35.48"/>
</g>
<!-- Node20&#45;&gt;Node11 -->
<g id="edge35" class="edge">
<title>Node20&#45;&gt;Node11</title>
<path fill="none" stroke="midnightblue" d="M905.34,-242.75C824.41,-238.7 585.7,-224.64 563,-199 502.48,-130.65 652.13,-57.62 720.3,-29.01"/>
<polygon fill="midnightblue" stroke="midnightblue" points="721.83,-32.16 729.74,-25.11 719.16,-25.69 721.83,-32.16"/>
</g>
<!-- Node20&#45;&gt;Node12 -->
<g id="edge36" class="edge">
<title>Node20&#45;&gt;Node12</title>
<path fill="none" stroke="midnightblue" d="M958.58,-241.86C1006.93,-237.36 1106.24,-225.1 1127,-199 1183.18,-128.38 1046.13,-64.14 966.75,-34.21"/>
<polygon fill="midnightblue" stroke="midnightblue" points="967.49,-30.76 956.9,-30.56 965.06,-37.32 967.49,-30.76"/>
</g>
<!-- Node20&#45;&gt;Node13 -->
<g id="edge38" class="edge">
<title>Node20&#45;&gt;Node13</title>
<path fill="none" stroke="midnightblue" d="M905.46,-243.85C826.71,-242.99 595.96,-237.17 533,-199 468.77,-160.06 430.65,-73.3 416.42,-35.13"/>
<polygon fill="midnightblue" stroke="midnightblue" points="419.58,-33.57 412.9,-25.34 412.99,-35.93 419.58,-33.57"/>
</g>
<!-- Node20&#45;&gt;Node14 -->
<g id="edge39" class="edge">
<title>Node20&#45;&gt;Node14</title>
<path fill="none" stroke="midnightblue" d="M958.81,-242.47C1011.08,-238.86 1123.56,-227.86 1147,-199 1154.23,-190.1 1157.33,-159.38 1143,-123 1141.96,-120.36 1094.53,-62.3 1070.57,-33.04"/>
<polygon fill="midnightblue" stroke="midnightblue" points="1073.27,-30.81 1064.22,-25.3 1067.85,-35.25 1073.27,-30.81"/>
</g>
<!-- Node20&#45;&gt;Node16 -->
<g id="edge42" class="edge">
<title>Node20&#45;&gt;Node16</title>
<path fill="none" stroke="midnightblue" d="M905.4,-243.02C817.81,-239.55 539.14,-226.58 454,-199 415.83,-186.64 317.39,-121.66 274.03,-92.35"/>
<polygon fill="midnightblue" stroke="midnightblue" points="275.9,-89.39 265.66,-86.67 271.97,-95.18 275.9,-89.39"/>
</g>
<!-- Node21 -->
<g id="node21" class="node">
<title>Node21</title>
<g id="a_node21"><a xlink:title=" ">
<polygon fill="white" stroke="#bfbfbf" points="572.5,-179.5 572.5,-198.5 623.5,-198.5 623.5,-179.5 572.5,-179.5"/>
<text text-anchor="middle" x="598" y="-186.5" font-family="Helvetica,sans-Serif" font-size="10.00">math.h</text>
</a>
</g>
</g>
<!-- Node20&#45;&gt;Node21 -->
<g id="edge23" class="edge">
<title>Node20&#45;&gt;Node21</title>
<path fill="none" stroke="midnightblue" d="M905.44,-240.93C854.64,-234.86 740.02,-220.21 633.49,-198.9"/>
<polygon fill="midnightblue" stroke="midnightblue" points="634.04,-195.44 623.54,-196.89 632.65,-202.31 634.04,-195.44"/>
</g>
<!-- Node22 -->
<g id="node22" class="node">
<title>Node22</title>
<g id="a_node22"><a xlink:title=" ">
<polygon fill="white" stroke="#bfbfbf" points="642,-179.5 642,-198.5 706,-198.5 706,-179.5 642,-179.5"/>
<text text-anchor="middle" x="674" y="-186.5" font-family="Helvetica,sans-Serif" font-size="10.00">algorithm</text>
</a>
</g>
</g>
<!-- Node20&#45;&gt;Node22 -->
<g id="edge24" class="edge">
<title>Node20&#45;&gt;Node22</title>
<path fill="none" stroke="midnightblue" d="M905.25,-238.56C866.03,-230.55 790.35,-215.03 716.2,-199.24"/>
<polygon fill="midnightblue" stroke="midnightblue" points="716.73,-195.77 706.22,-197.11 715.27,-202.62 716.73,-195.77"/>
</g>
<!-- Node23 -->
<g id="node23" class="node">
<title>Node23</title>
<g id="a_node23"><a xlink:title=" ">
<polygon fill="white" stroke="#bfbfbf" points="724.5,-179.5 724.5,-198.5 779.5,-198.5 779.5,-179.5 724.5,-179.5"/>
<text text-anchor="middle" x="752" y="-186.5" font-family="Helvetica,sans-Serif" font-size="10.00">fstream</text>
</a>
</g>
</g>
<!-- Node20&#45;&gt;Node23 -->
<g id="edge25" class="edge">
<title>Node20&#45;&gt;Node23</title>
<path fill="none" stroke="midnightblue" d="M905.44,-236.03C874.73,-226.82 823.98,-211.59 789.32,-201.19"/>
<polygon fill="midnightblue" stroke="midnightblue" points="790.14,-197.79 779.56,-198.27 788.13,-204.49 790.14,-197.79"/>
</g>
<!-- Node24 -->
<g id="node24" class="node">
<title>Node24</title>
<g id="a_node24"><a xlink:title=" ">
<polygon fill="white" stroke="#bfbfbf" points="798,-179.5 798,-198.5 830,-198.5 830,-179.5 798,-179.5"/>
<text text-anchor="middle" x="814" y="-186.5" font-family="Helvetica,sans-Serif" font-size="10.00">list</text>
</a>
</g>
</g>
<!-- Node20&#45;&gt;Node24 -->
<g id="edge27" class="edge">
<title>Node20&#45;&gt;Node24</title>
<path fill="none" stroke="midnightblue" d="M913.3,-235.44C893.38,-226.32 861.7,-211.83 839.5,-201.67"/>
<polygon fill="midnightblue" stroke="midnightblue" points="840.88,-198.45 830.33,-197.47 837.97,-204.82 840.88,-198.45"/>
</g>
<!-- Node25 -->
<g id="node25" class="node">
<title>Node25</title>
<g id="a_node25"><a xlink:title=" ">
<polygon fill="white" stroke="#bfbfbf" points="848,-179.5 848,-198.5 886,-198.5 886,-179.5 848,-179.5"/>
<text text-anchor="middle" x="867" y="-186.5" font-family="Helvetica,sans-Serif" font-size="10.00">map</text>
</a>
</g>
</g>
<!-- Node20&#45;&gt;Node25 -->
<g id="edge28" class="edge">
<title>Node20&#45;&gt;Node25</title>
<path fill="none" stroke="midnightblue" d="M921.56,-235.32C911.85,-227.26 897.18,-215.08 885.5,-205.37"/>
<polygon fill="midnightblue" stroke="midnightblue" points="887.56,-202.53 877.63,-198.83 883.09,-207.92 887.56,-202.53"/>
</g>
<!-- Node26 -->
<g id="node26" class="node">
<title>Node26</title>
<g id="a_node26"><a xlink:title=" ">
<polygon fill="white" stroke="#bfbfbf" points="904,-179.5 904,-198.5 960,-198.5 960,-179.5 904,-179.5"/>
<text text-anchor="middle" x="932" y="-186.5" font-family="Helvetica,sans-Serif" font-size="10.00">sstream</text>
</a>
</g>
</g>
<!-- Node20&#45;&gt;Node26 -->
<g id="edge30" class="edge">
<title>Node20&#45;&gt;Node26</title>
<path fill="none" stroke="midnightblue" d="M932,-235.08C932,-228.01 932,-217.86 932,-208.99"/>
<polygon fill="midnightblue" stroke="midnightblue" points="935.5,-208.75 932,-198.75 928.5,-208.75 935.5,-208.75"/>
</g>
<!-- Node27 -->
<g id="node27" class="node">
<title>Node27</title>
<g id="a_node27"><a xlink:title=" ">
<polygon fill="white" stroke="#bfbfbf" points="978,-179.5 978,-198.5 1118,-198.5 1118,-179.5 978,-179.5"/>
<text text-anchor="middle" x="1048" y="-186.5" font-family="Helvetica,sans-Serif" font-size="10.00">allegro5/allegro_physfs.h</text>
</a>
</g>
</g>
<!-- Node20&#45;&gt;Node27 -->
<g id="edge37" class="edge">
<title>Node20&#45;&gt;Node27</title>
<path fill="none" stroke="midnightblue" d="M950.38,-235.44C969.22,-226.68 998.73,-212.94 1020.38,-202.86"/>
<polygon fill="midnightblue" stroke="midnightblue" points="1022.12,-205.91 1029.71,-198.52 1019.16,-199.56 1022.12,-205.91"/>
</g>
<!-- Node28 -->
<g id="node28" class="node">
<title>Node28</title>
<g id="a_node28"><a xlink:title=" ">
<polygon fill="white" stroke="#bfbfbf" points="298.5,-179.5 298.5,-198.5 401.5,-198.5 401.5,-179.5 298.5,-179.5"/>
<text text-anchor="middle" x="350" y="-186.5" font-family="Helvetica,sans-Serif" font-size="10.00">allegro5/bitmap.h</text>
</a>
</g>
</g>
<!-- Node20&#45;&gt;Node28 -->
<g id="edge40" class="edge">
<title>Node20&#45;&gt;Node28</title>
<path fill="none" stroke="midnightblue" d="M905.37,-242.14C829.05,-236.7 603,-219.89 416,-199 414.71,-198.86 413.4,-198.71 412.08,-198.55"/>
<polygon fill="midnightblue" stroke="midnightblue" points="412.2,-195.04 401.85,-197.31 411.36,-201.99 412.2,-195.04"/>
</g>
<!-- Node20&#45;&gt;Node29 -->
<g id="edge43" class="edge">
<title>Node20&#45;&gt;Node29</title>
<path fill="none" stroke="midnightblue" d="M958.61,-242.2C1032.1,-237.43 1242.78,-223.21 1417,-199 1421.11,-198.43 1425.4,-197.75 1429.72,-197.02"/>
<polygon fill="midnightblue" stroke="midnightblue" points="1430.52,-200.43 1439.77,-195.26 1429.32,-193.54 1430.52,-200.43"/>
</g>
<!-- Node20&#45;&gt;Node30 -->
<g id="edge45" class="edge">
<title>Node20&#45;&gt;Node30</title>
<path fill="none" stroke="midnightblue" d="M905.2,-243.58C817.96,-241.89 534.13,-234 290.47,-199"/>
<polygon fill="midnightblue" stroke="midnightblue" points="290.76,-195.5 280.36,-197.53 289.75,-202.43 290.76,-195.5"/>
</g>
<!-- Node29&#45;&gt;Node20 -->
<g id="edge44" class="edge">
<title>Node29&#45;&gt;Node20</title>
<path fill="none" stroke="midnightblue" d="M1439.85,-198.29C1438.22,-198.54 1436.6,-198.78 1435,-199 1261.58,-223.1 1052.05,-237.3 968.63,-242.13"/>
<polygon fill="midnightblue" stroke="midnightblue" points="968.41,-238.63 958.63,-242.7 968.81,-245.62 968.41,-238.63"/>
</g>
<!-- Node30&#45;&gt;Node8 -->
<g id="edge46" class="edge">
<title>Node30&#45;&gt;Node8</title>
<path fill="none" stroke="midnightblue" d="M280.37,-180.56C283.28,-179.99 286.19,-179.46 289,-179 490.28,-146.34 1028.32,-193.86 1202,-87 1221.28,-75.14 1233.76,-51.59 1240.58,-34.98"/>
<polygon fill="midnightblue" stroke="midnightblue" points="1243.99,-35.85 1244.25,-25.26 1237.44,-33.37 1243.99,-35.85"/>
</g>
<!-- Node30&#45;&gt;Node16 -->
<g id="edge47" class="edge">
<title>Node30&#45;&gt;Node16</title>
<path fill="none" stroke="midnightblue" d="M249.31,-179.37C249.96,-161.62 251.45,-120.67 252.32,-96.6"/>
<polygon fill="midnightblue" stroke="midnightblue" points="255.82,-96.71 252.69,-86.59 248.83,-96.46 255.82,-96.71"/>
</g>
<!-- Node31 -->
<g id="node31" class="node">
<title>Node31</title>
<g id="a_node31"><a xlink:href="motion_8hpp.html" target="_top" xlink:title="Gerencia efeitos de parallax e animações de cenário.">
<polygon fill="white" stroke="black" points="368,-123.5 368,-142.5 440,-142.5 440,-123.5 368,-123.5"/>
<text text-anchor="middle" x="404" y="-130.5" font-family="Helvetica,sans-Serif" font-size="10.00">motion.hpp</text>
</a>
</g>
</g>
<!-- Node30&#45;&gt;Node31 -->
<g id="edge48" class="edge">
<title>Node30&#45;&gt;Node31</title>
<path fill="none" stroke="midnightblue" d="M273.56,-179.44C299.52,-170.4 340.67,-156.06 369.8,-145.92"/>
<polygon fill="midnightblue" stroke="midnightblue" points="371.26,-149.11 379.55,-142.52 368.96,-142.5 371.26,-149.11"/>
</g>
<!-- Node31&#45;&gt;Node5 -->
<g id="edge50" class="edge">
<title>Node31&#45;&gt;Node5</title>
<path fill="none" stroke="midnightblue" d="M440.16,-129.41C564.86,-120.49 976.81,-91.03 1114.06,-81.21"/>
<polygon fill="midnightblue" stroke="midnightblue" points="1114.5,-84.69 1124.22,-80.49 1114,-77.71 1114.5,-84.69"/>
</g>
<!-- Node31&#45;&gt;Node13 -->
<g id="edge49" class="edge">
<title>Node31&#45;&gt;Node13</title>
<path fill="none" stroke="midnightblue" d="M404.45,-123.32C405.42,-104.76 407.7,-60.84 409.01,-35.47"/>
<polygon fill="midnightblue" stroke="midnightblue" points="412.52,-35.45 409.54,-25.28 405.53,-35.09 412.52,-35.45"/>
</g>
<!-- Node31&#45;&gt;Node16 -->
<g id="edge51" class="edge">
<title>Node31&#45;&gt;Node16</title>
<path fill="none" stroke="midnightblue" d="M380.07,-123.44C354.78,-114.4 314.7,-100.06 286.32,-89.92"/>
<polygon fill="midnightblue" stroke="midnightblue" points="287.41,-86.59 276.81,-86.52 285.05,-93.18 287.41,-86.59"/>
</g>
<!-- Node32&#45;&gt;Node16 -->
<g id="edge59" class="edge">
<title>Node32&#45;&gt;Node16</title>
<path fill="none" stroke="midnightblue" d="M515.42,-354.61C431.82,-350.36 198.43,-336.34 176,-311 118.13,-245.65 202.21,-135.66 238.1,-94.34"/>
<polygon fill="midnightblue" stroke="midnightblue" points="240.75,-96.62 244.76,-86.82 235.51,-91.98 240.75,-96.62"/>
</g>
<!-- Node32&#45;&gt;Node18 -->
<g id="edge58" class="edge">
<title>Node32&#45;&gt;Node18</title>
<path fill="none" stroke="midnightblue" d="M515.35,-351.18C449.27,-338.82 289.44,-299.56 209,-199 169.87,-150.09 167.01,-71.13 167.97,-35.28"/>
<polygon fill="midnightblue" stroke="midnightblue" points="171.47,-35.38 168.38,-25.25 164.48,-35.1 171.47,-35.38"/>
</g>
<!-- Node32&#45;&gt;Node19 -->
<g id="edge60" class="edge">
<title>Node32&#45;&gt;Node19</title>
<path fill="none" stroke="midnightblue" d="M557.69,-347.32C569.9,-338.98 588.58,-326.21 603,-316.35"/>
<polygon fill="midnightblue" stroke="midnightblue" points="605.06,-319.19 611.34,-310.65 601.11,-313.41 605.06,-319.19"/>
</g>
<!-- Node32&#45;&gt;Node20 -->
<g id="edge61" class="edge">
<title>Node32&#45;&gt;Node20</title>
<path fill="none" stroke="midnightblue" d="M544.75,-347.25C544.85,-333.05 547.33,-305.16 564,-291 613.29,-249.14 811.93,-245.27 895.1,-245.54"/>
<polygon fill="midnightblue" stroke="midnightblue" points="895.32,-249.04 905.34,-245.6 895.36,-242.04 895.32,-249.04"/>
</g>
<!-- Node32&#45;&gt;Node28 -->
<g id="edge56" class="edge">
<title>Node32&#45;&gt;Node28</title>
<path fill="none" stroke="midnightblue" d="M534.79,-347.31C503.33,-320.53 407.6,-239.03 367.73,-205.09"/>
<polygon fill="midnightblue" stroke="midnightblue" points="369.99,-202.42 360.11,-198.61 365.45,-207.75 369.99,-202.42"/>
</g>
<!-- Node33 -->
<g id="node33" class="node">
<title>Node33</title>
<g id="a_node33"><a xlink:title=" ">
<polygon fill="white" stroke="#bfbfbf" points="693,-291.5 693,-310.5 747,-310.5 747,-291.5 693,-291.5"/>
<text text-anchor="middle" x="720" y="-298.5" font-family="Helvetica,sans-Serif" font-size="10.00">random</text>
</a>
</g>
</g>
<!-- Node32&#45;&gt;Node33 -->
<g id="edge57" class="edge">
<title>Node32&#45;&gt;Node33</title>
<path fill="none" stroke="midnightblue" d="M572.73,-347.44C602.6,-338.23 650.27,-323.52 683.25,-313.34"/>
<polygon fill="midnightblue" stroke="midnightblue" points="684.45,-316.63 692.98,-310.34 682.39,-309.94 684.45,-316.63"/>
</g>
</g>
</svg>
