<?xml version="1.0" encoding="UTF-8" standalone="no"?>
<!DOCTYPE svg PUBLIC "-//W3C//DTD SVG 1.1//EN"
 "http://www.w3.org/Graphics/SVG/1.1/DTD/svg11.dtd">
<!-- Generated by graphviz version 2.43.0 (0)
 -->
<!-- Title: include/states/main_menu.hpp Pages: 1 -->
<svg width="1540pt" height="330pt"
 viewBox="0.00 0.00 1539.50 330.00" xmlns="http://www.w3.org/2000/svg" xmlns:xlink="http://www.w3.org/1999/xlink">
<g id="graph0" class="graph" transform="scale(1 1) rotate(0) translate(4 326)">
<title>include/states/main_menu.hpp</title>
<polygon fill="white" stroke="transparent" points="-4,4 -4,-326 1535.5,-326 1535.5,4 -4,4"/>
<!-- Node1 -->
<g id="node1" class="node">
<title>Node1</title>
<g id="a_node1"><a xlink:title="Definição da classe MainMenu, o estado que representa o menu principal do jogo.">
<polygon fill="#bfbfbf" stroke="black" points="87,-291.5 87,-321.5 200,-321.5 200,-291.5 87,-291.5"/>
<text text-anchor="start" x="95" y="-309.5" font-family="Helvetica,sans-Serif" font-size="10.00">include/states/main</text>
<text text-anchor="middle" x="143.5" y="-298.5" font-family="Helvetica,sans-Serif" font-size="10.00">_menu.hpp</text>
</a>
</g>
</g>
<!-- Node2 -->
<g id="node2" class="node">
<title>Node2</title>
<g id="a_node2"><a xlink:href="assets_8hpp.html" target="_top" xlink:title="Declara classes utilitárias para carregar e usar imagens, sons e fontes no Allegro.">
<polygon fill="white" stroke="black" points="1137.5,-67.5 1137.5,-86.5 1215.5,-86.5 1215.5,-67.5 1137.5,-67.5"/>
<text text-anchor="middle" x="1176.5" y="-74.5" font-family="Helvetica,sans-Serif" font-size="10.00">../assets.hpp</text>
</a>
</g>
</g>
<!-- Node1&#45;&gt;Node2 -->
<g id="edge1" class="edge">
<title>Node1&#45;&gt;Node2</title>
<path fill="none" stroke="midnightblue" d="M200.01,-303.91C409.04,-297.5 1130.14,-270.34 1201.5,-199 1225.49,-175.02 1218.82,-155.31 1208.5,-123 1205.16,-112.54 1198.4,-102.43 1191.95,-94.45"/>
<polygon fill="midnightblue" stroke="midnightblue" points="1194.44,-91.98 1185.25,-86.71 1189.15,-96.56 1194.44,-91.98"/>
</g>
<!-- Node13 -->
<g id="node13" class="node">
<title>Node13</title>
<g id="a_node13"><a xlink:href="defines_8hpp.html" target="_top" xlink:title="Constantes globais, macros e estruturas auxiliares do jogo.">
<polygon fill="white" stroke="black" points="36.5,-67.5 36.5,-86.5 118.5,-86.5 118.5,-67.5 36.5,-67.5"/>
<text text-anchor="middle" x="77.5" y="-74.5" font-family="Helvetica,sans-Serif" font-size="10.00">../defines.hpp</text>
</a>
</g>
</g>
<!-- Node1&#45;&gt;Node13 -->
<g id="edge12" class="edge">
<title>Node1&#45;&gt;Node13</title>
<path fill="none" stroke="midnightblue" d="M128.8,-291.25C119.76,-281.74 108.58,-268.54 101.5,-255 73.57,-201.6 65.85,-183.08 70.5,-123 71.18,-114.22 72.59,-104.56 73.97,-96.45"/>
<polygon fill="midnightblue" stroke="midnightblue" points="77.42,-97.04 75.76,-86.58 70.53,-95.8 77.42,-97.04"/>
</g>
<!-- Node16 -->
<g id="node16" class="node">
<title>Node16</title>
<g id="a_node16"><a xlink:href="init_8hpp.html" target="_top" xlink:title="Declara funções de inicialização e finalização do Allegro.">
<polygon fill="white" stroke="black" points="681.5,-235.5 681.5,-254.5 743.5,-254.5 743.5,-235.5 681.5,-235.5"/>
<text text-anchor="middle" x="712.5" y="-242.5" font-family="Helvetica,sans-Serif" font-size="10.00">../init.hpp</text>
</a>
</g>
</g>
<!-- Node1&#45;&gt;Node16 -->
<g id="edge16" class="edge">
<title>Node1&#45;&gt;Node16</title>
<path fill="none" stroke="midnightblue" d="M200.14,-299.58C314.57,-287.61 570.94,-260.8 671.2,-250.32"/>
<polygon fill="midnightblue" stroke="midnightblue" points="671.66,-253.79 681.24,-249.27 670.93,-246.83 671.66,-253.79"/>
</g>
<!-- Node26 -->
<g id="node26" class="node">
<title>Node26</title>
<g id="a_node26"><a xlink:href="state_8hpp.html" target="_top" xlink:title="Interface base para estados da máquina de estados do jogo.">
<polygon fill="white" stroke="black" points="112.5,-179.5 112.5,-198.5 174.5,-198.5 174.5,-179.5 112.5,-179.5"/>
<text text-anchor="middle" x="143.5" y="-186.5" font-family="Helvetica,sans-Serif" font-size="10.00">state.hpp</text>
</a>
</g>
</g>
<!-- Node1&#45;&gt;Node26 -->
<g id="edge47" class="edge">
<title>Node1&#45;&gt;Node26</title>
<path fill="none" stroke="midnightblue" d="M143.5,-291.34C143.5,-270.62 143.5,-232.02 143.5,-208.9"/>
<polygon fill="midnightblue" stroke="midnightblue" points="147,-208.67 143.5,-198.67 140,-208.67 147,-208.67"/>
</g>
<!-- Node27 -->
<g id="node27" class="node">
<title>Node27</title>
<g id="a_node27"><a xlink:href="motion_8hpp.html" target="_top" xlink:title="Gerencia efeitos de parallax e animações de cenário.">
<polygon fill="white" stroke="black" points="105.5,-123.5 105.5,-142.5 177.5,-142.5 177.5,-123.5 105.5,-123.5"/>
<text text-anchor="middle" x="141.5" y="-130.5" font-family="Helvetica,sans-Serif" font-size="10.00">motion.hpp</text>
</a>
</g>
</g>
<!-- Node1&#45;&gt;Node27 -->
<g id="edge46" class="edge">
<title>Node1&#45;&gt;Node27</title>
<path fill="none" stroke="midnightblue" d="M132.86,-291.32C116.57,-267.78 88.78,-219.24 103.5,-179 107.56,-167.91 115.69,-157.67 123.39,-149.76"/>
<polygon fill="midnightblue" stroke="midnightblue" points="125.97,-152.14 130.79,-142.7 121.14,-147.07 125.97,-152.14"/>
</g>
<!-- Node3 -->
<g id="node3" class="node">
<title>Node3</title>
<g id="a_node3"><a xlink:title=" ">
<polygon fill="white" stroke="#bfbfbf" points="1395.5,-6 1395.5,-25 1455.5,-25 1455.5,-6 1395.5,-6"/>
<text text-anchor="middle" x="1425.5" y="-13" font-family="Helvetica,sans-Serif" font-size="10.00">iostream</text>
</a>
</g>
</g>
<!-- Node2&#45;&gt;Node3 -->
<g id="edge2" class="edge">
<title>Node2&#45;&gt;Node3</title>
<path fill="none" stroke="midnightblue" d="M1215.62,-69.37C1258.12,-61.76 1327.79,-48.11 1386.5,-31 1389.14,-30.23 1391.86,-29.37 1394.57,-28.46"/>
<polygon fill="midnightblue" stroke="midnightblue" points="1395.97,-31.68 1404.23,-25.04 1393.64,-25.08 1395.97,-31.68"/>
</g>
<!-- Node4 -->
<g id="node4" class="node">
<title>Node4</title>
<g id="a_node4"><a xlink:title=" ">
<polygon fill="white" stroke="#bfbfbf" points="1473.5,-6 1473.5,-25 1531.5,-25 1531.5,-6 1473.5,-6"/>
<text text-anchor="middle" x="1502.5" y="-13" font-family="Helvetica,sans-Serif" font-size="10.00">memory</text>
</a>
</g>
</g>
<!-- Node2&#45;&gt;Node4 -->
<g id="edge3" class="edge">
<title>Node2&#45;&gt;Node4</title>
<path fill="none" stroke="midnightblue" d="M1215.7,-72.5C1271.62,-66.93 1377.2,-54.2 1464.5,-31 1467.16,-30.29 1469.89,-29.47 1472.61,-28.57"/>
<polygon fill="midnightblue" stroke="midnightblue" points="1474.01,-31.79 1482.25,-25.13 1471.65,-25.19 1474.01,-31.79"/>
</g>
<!-- Node5 -->
<g id="node5" class="node">
<title>Node5</title>
<g id="a_node5"><a xlink:title=" ">
<polygon fill="white" stroke="#bfbfbf" points="140.5,-6 140.5,-25 184.5,-25 184.5,-6 140.5,-6"/>
<text text-anchor="middle" x="162.5" y="-13" font-family="Helvetica,sans-Serif" font-size="10.00">string</text>
</a>
</g>
</g>
<!-- Node2&#45;&gt;Node5 -->
<g id="edge4" class="edge">
<title>Node2&#45;&gt;Node5</title>
<path fill="none" stroke="midnightblue" d="M1137.49,-76.24C978.24,-76.89 377.1,-76.25 193.5,-31 191.51,-30.51 189.49,-29.89 187.49,-29.18"/>
<polygon fill="midnightblue" stroke="midnightblue" points="188.41,-25.77 177.83,-25.12 185.69,-32.22 188.41,-25.77"/>
</g>
<!-- Node6 -->
<g id="node6" class="node">
<title>Node6</title>
<g id="a_node6"><a xlink:title=" ">
<polygon fill="white" stroke="#bfbfbf" points="378.5,-6 378.5,-25 480.5,-25 480.5,-6 378.5,-6"/>
<text text-anchor="middle" x="429.5" y="-13" font-family="Helvetica,sans-Serif" font-size="10.00">allegro5/allegro.h</text>
</a>
</g>
</g>
<!-- Node2&#45;&gt;Node6 -->
<g id="edge5" class="edge">
<title>Node2&#45;&gt;Node6</title>
<path fill="none" stroke="midnightblue" d="M1137.31,-73.61C1039.97,-67.57 779.38,-50.76 562.5,-31 539.03,-28.86 513.27,-26.14 490.73,-23.63"/>
<polygon fill="midnightblue" stroke="midnightblue" points="490.94,-20.14 480.61,-22.5 490.16,-27.09 490.94,-20.14"/>
</g>
<!-- Node7 -->
<g id="node7" class="node">
<title>Node7</title>
<g id="a_node7"><a xlink:title=" ">
<polygon fill="white" stroke="#bfbfbf" points="571.5,-6 571.5,-25 713.5,-25 713.5,-6 571.5,-6"/>
<text text-anchor="middle" x="642.5" y="-13" font-family="Helvetica,sans-Serif" font-size="10.00">allegro5/allegro_acodec.h</text>
</a>
</g>
</g>
<!-- Node2&#45;&gt;Node7 -->
<g id="edge6" class="edge">
<title>Node2&#45;&gt;Node7</title>
<path fill="none" stroke="midnightblue" d="M1137.23,-71.62C1050.29,-61.94 840.02,-38.51 723.54,-25.53"/>
<polygon fill="midnightblue" stroke="midnightblue" points="723.93,-22.05 713.6,-24.42 723.15,-29.01 723.93,-22.05"/>
</g>
<!-- Node8 -->
<g id="node8" class="node">
<title>Node8</title>
<g id="a_node8"><a xlink:title=" ">
<polygon fill="white" stroke="#bfbfbf" points="803.5,-6 803.5,-25 937.5,-25 937.5,-6 803.5,-6"/>
<text text-anchor="middle" x="870.5" y="-13" font-family="Helvetica,sans-Serif" font-size="10.00">allegro5/allegro_audio.h</text>
</a>
</g>
</g>
<!-- Node2&#45;&gt;Node8 -->
<g id="edge7" class="edge">
<title>Node2&#45;&gt;Node8</title>
<path fill="none" stroke="midnightblue" d="M1137.43,-68.4C1083.25,-57.87 985.09,-38.78 924.1,-26.92"/>
<polygon fill="midnightblue" stroke="midnightblue" points="924.75,-23.48 914.27,-25.01 923.42,-30.36 924.75,-23.48"/>
</g>
<!-- Node9 -->
<g id="node9" class="node">
<title>Node9</title>
<g id="a_node9"><a xlink:title=" ">
<polygon fill="white" stroke="#bfbfbf" points="955.5,-6 955.5,-25 1093.5,-25 1093.5,-6 955.5,-6"/>
<text text-anchor="middle" x="1024.5" y="-13" font-family="Helvetica,sans-Serif" font-size="10.00">allegro5/allegro_image.h</text>
</a>
</g>
</g>
<!-- Node2&#45;&gt;Node9 -->
<g id="edge8" class="edge">
<title>Node2&#45;&gt;Node9</title>
<path fill="none" stroke="midnightblue" d="M1154.72,-67.48C1128.76,-57.31 1085.19,-40.26 1055.67,-28.7"/>
<polygon fill="midnightblue" stroke="midnightblue" points="1056.83,-25.4 1046.24,-25.01 1054.27,-31.91 1056.83,-25.4"/>
</g>
<!-- Node10 -->
<g id="node10" class="node">
<title>Node10</title>
<g id="a_node10"><a xlink:title=" ">
<polygon fill="white" stroke="#bfbfbf" points="1112,-0.5 1112,-30.5 1241,-30.5 1241,-0.5 1112,-0.5"/>
<text text-anchor="start" x="1120" y="-18.5" font-family="Helvetica,sans-Serif" font-size="10.00">allegro5/allegro_native</text>
<text text-anchor="middle" x="1176.5" y="-7.5" font-family="Helvetica,sans-Serif" font-size="10.00">_dialog.h</text>
</a>
</g>
</g>
<!-- Node2&#45;&gt;Node10 -->
<g id="edge9" class="edge">
<title>Node2&#45;&gt;Node10</title>
<path fill="none" stroke="midnightblue" d="M1176.5,-67.48C1176.5,-60.47 1176.5,-50.19 1176.5,-40.7"/>
<polygon fill="midnightblue" stroke="midnightblue" points="1180,-40.52 1176.5,-30.52 1173,-40.52 1180,-40.52"/>
</g>
<!-- Node11 -->
<g id="node11" class="node">
<title>Node11</title>
<g id="a_node11"><a xlink:title=" ">
<polygon fill="white" stroke="#bfbfbf" points="203,-6 203,-25 360,-25 360,-6 203,-6"/>
<text text-anchor="middle" x="281.5" y="-13" font-family="Helvetica,sans-Serif" font-size="10.00">allegro5/allegro_primitives.h</text>
</a>
</g>
</g>
<!-- Node2&#45;&gt;Node11 -->
<g id="edge10" class="edge">
<title>Node2&#45;&gt;Node11</title>
<path fill="none" stroke="midnightblue" d="M1137.33,-75.31C1020.34,-72.92 663.46,-63.32 369.5,-31 359.12,-29.86 348.1,-28.31 337.5,-26.65"/>
<polygon fill="midnightblue" stroke="midnightblue" points="337.93,-23.18 327.5,-25.04 336.81,-30.09 337.93,-23.18"/>
</g>
<!-- Node12 -->
<g id="node12" class="node">
<title>Node12</title>
<g id="a_node12"><a xlink:title=" ">
<polygon fill="white" stroke="#bfbfbf" points="1259.5,-6 1259.5,-25 1377.5,-25 1377.5,-6 1259.5,-6"/>
<text text-anchor="middle" x="1318.5" y="-13" font-family="Helvetica,sans-Serif" font-size="10.00">allegro5/allegro_ttf.h</text>
</a>
</g>
</g>
<!-- Node2&#45;&gt;Node12 -->
<g id="edge11" class="edge">
<title>Node2&#45;&gt;Node12</title>
<path fill="none" stroke="midnightblue" d="M1196.85,-67.48C1220.89,-57.4 1261.1,-40.55 1288.66,-29"/>
<polygon fill="midnightblue" stroke="midnightblue" points="1290.32,-32.1 1298.19,-25.01 1287.62,-25.65 1290.32,-32.1"/>
</g>
<!-- Node13&#45;&gt;Node5 -->
<g id="edge14" class="edge">
<title>Node13&#45;&gt;Node5</title>
<path fill="none" stroke="midnightblue" d="M89.68,-67.48C103.31,-57.93 125.63,-42.31 141.97,-30.87"/>
<polygon fill="midnightblue" stroke="midnightblue" points="144.16,-33.61 150.34,-25.01 140.14,-27.88 144.16,-33.61"/>
</g>
<!-- Node14 -->
<g id="node14" class="node">
<title>Node14</title>
<g id="a_node14"><a xlink:title=" ">
<polygon fill="white" stroke="#bfbfbf" points="65,-6 65,-25 112,-25 112,-6 65,-6"/>
<text text-anchor="middle" x="88.5" y="-13" font-family="Helvetica,sans-Serif" font-size="10.00">cmath</text>
</a>
</g>
</g>
<!-- Node13&#45;&gt;Node14 -->
<g id="edge13" class="edge">
<title>Node13&#45;&gt;Node14</title>
<path fill="none" stroke="midnightblue" d="M79.08,-67.48C80.63,-59.08 83.05,-45.98 85.05,-35.16"/>
<polygon fill="midnightblue" stroke="midnightblue" points="88.55,-35.48 86.93,-25.01 81.67,-34.21 88.55,-35.48"/>
</g>
<!-- Node15 -->
<g id="node15" class="node">
<title>Node15</title>
<g id="a_node15"><a xlink:title=" ">
<polygon fill="white" stroke="#bfbfbf" points="0,-6 0,-25 47,-25 47,-6 0,-6"/>
<text text-anchor="middle" x="23.5" y="-13" font-family="Helvetica,sans-Serif" font-size="10.00">vector</text>
</a>
</g>
</g>
<!-- Node13&#45;&gt;Node15 -->
<g id="edge15" class="edge">
<title>Node13&#45;&gt;Node15</title>
<path fill="none" stroke="midnightblue" d="M69.76,-67.48C61.5,-58.37 48.22,-43.74 38.01,-32.48"/>
<polygon fill="midnightblue" stroke="midnightblue" points="40.53,-30.06 31.22,-25.01 35.35,-34.77 40.53,-30.06"/>
</g>
<!-- Node16&#45;&gt;Node2 -->
<g id="edge35" class="edge">
<title>Node16&#45;&gt;Node2</title>
<path fill="none" stroke="midnightblue" d="M743.5,-243.39C843.39,-241.1 1152.04,-231.43 1181.5,-199 1206.98,-170.96 1194.11,-122.45 1184.26,-96.18"/>
<polygon fill="midnightblue" stroke="midnightblue" points="1187.43,-94.68 1180.47,-86.7 1180.93,-97.28 1187.43,-94.68"/>
</g>
<!-- Node16&#45;&gt;Node3 -->
<g id="edge20" class="edge">
<title>Node16&#45;&gt;Node3</title>
<path fill="none" stroke="midnightblue" d="M743.72,-242.94C855.16,-238.94 1229.2,-223.8 1276.5,-199 1348.36,-161.33 1398.31,-72.47 1417.17,-34.36"/>
<polygon fill="midnightblue" stroke="midnightblue" points="1420.47,-35.58 1421.65,-25.05 1414.16,-32.54 1420.47,-35.58"/>
</g>
<!-- Node16&#45;&gt;Node4 -->
<g id="edge23" class="edge">
<title>Node16&#45;&gt;Node4</title>
<path fill="none" stroke="midnightblue" d="M743.53,-244.26C850.5,-244.78 1202.9,-243 1305.5,-199 1391.21,-162.24 1463.26,-71.49 1490.67,-33.58"/>
<polygon fill="midnightblue" stroke="midnightblue" points="1493.72,-35.32 1496.65,-25.14 1488.01,-31.27 1493.72,-35.32"/>
</g>
<!-- Node16&#45;&gt;Node5 -->
<g id="edge25" class="edge">
<title>Node16&#45;&gt;Node5</title>
<path fill="none" stroke="midnightblue" d="M681.32,-242.92C602.74,-239.78 398.59,-228.89 338.5,-199 260.36,-160.13 197.68,-71.99 173.39,-34.22"/>
<polygon fill="midnightblue" stroke="midnightblue" points="176.11,-31.97 167.81,-25.37 170.18,-35.7 176.11,-31.97"/>
</g>
<!-- Node16&#45;&gt;Node6 -->
<g id="edge26" class="edge">
<title>Node16&#45;&gt;Node6</title>
<path fill="none" stroke="midnightblue" d="M681.44,-244.78C605.92,-245.93 416.03,-244.18 376.5,-199 333.64,-150.02 388.31,-68.15 415.65,-33.17"/>
<polygon fill="midnightblue" stroke="midnightblue" points="418.41,-35.32 421.93,-25.33 412.95,-30.94 418.41,-35.32"/>
</g>
<!-- Node16&#45;&gt;Node7 -->
<g id="edge27" class="edge">
<title>Node16&#45;&gt;Node7</title>
<path fill="none" stroke="midnightblue" d="M681.44,-244.78C605.92,-245.93 416.03,-244.18 376.5,-199 303.56,-115.63 502.12,-52.15 596.19,-27.58"/>
<polygon fill="midnightblue" stroke="midnightblue" points="597.22,-30.93 606.03,-25.06 595.48,-24.15 597.22,-30.93"/>
</g>
<!-- Node16&#45;&gt;Node8 -->
<g id="edge28" class="edge">
<title>Node16&#45;&gt;Node8</title>
<path fill="none" stroke="midnightblue" d="M743.64,-243.14C838.88,-240.21 1121.42,-229.02 1148.5,-199 1224.96,-114.24 1017.5,-51.55 919.07,-27.39"/>
<polygon fill="midnightblue" stroke="midnightblue" points="919.87,-23.99 909.33,-25.04 918.23,-30.79 919.87,-23.99"/>
</g>
<!-- Node16&#45;&gt;Node9 -->
<g id="edge29" class="edge">
<title>Node16&#45;&gt;Node9</title>
<path fill="none" stroke="midnightblue" d="M743.84,-243.25C846.4,-240.5 1167.39,-229.52 1201.5,-199 1245.88,-159.29 1261.09,-113.98 1224.5,-67 1215.51,-55.46 1136.58,-38.09 1080.61,-27.03"/>
<polygon fill="midnightblue" stroke="midnightblue" points="1080.94,-23.52 1070.45,-25.04 1079.59,-30.39 1080.94,-23.52"/>
</g>
<!-- Node16&#45;&gt;Node10 -->
<g id="edge30" class="edge">
<title>Node16&#45;&gt;Node10</title>
<path fill="none" stroke="midnightblue" d="M743.55,-242.94C848.36,-239.14 1184.89,-225.01 1225.5,-199 1275.41,-167.04 1276.99,-116.58 1244.5,-67 1236.39,-54.63 1224.16,-44.18 1212.29,-36.06"/>
<polygon fill="midnightblue" stroke="midnightblue" points="1214.08,-33.05 1203.78,-30.56 1210.28,-38.93 1214.08,-33.05"/>
</g>
<!-- Node16&#45;&gt;Node11 -->
<g id="edge32" class="edge">
<title>Node16&#45;&gt;Node11</title>
<path fill="none" stroke="midnightblue" d="M681.43,-243.84C605.24,-242.85 411.73,-236.6 361.5,-199 307.29,-158.42 289.21,-73.19 283.7,-35.32"/>
<polygon fill="midnightblue" stroke="midnightblue" points="287.14,-34.65 282.37,-25.19 280.2,-35.57 287.14,-34.65"/>
</g>
<!-- Node16&#45;&gt;Node12 -->
<g id="edge33" class="edge">
<title>Node16&#45;&gt;Node12</title>
<path fill="none" stroke="midnightblue" d="M743.64,-243.14C852.13,-239.92 1209.17,-227.23 1251.5,-199 1306.72,-162.17 1316.64,-74.23 1318.27,-35.44"/>
<polygon fill="midnightblue" stroke="midnightblue" points="1321.78,-35.18 1318.55,-25.09 1314.78,-34.99 1321.78,-35.18"/>
</g>
<!-- Node16&#45;&gt;Node13 -->
<g id="edge36" class="edge">
<title>Node16&#45;&gt;Node13</title>
<path fill="none" stroke="midnightblue" d="M681.29,-243.68C563.39,-242.22 149.45,-234.57 103.5,-199 72.73,-175.18 72.48,-124.49 74.97,-96.88"/>
<polygon fill="midnightblue" stroke="midnightblue" points="78.49,-96.94 76.13,-86.61 71.53,-96.16 78.49,-96.94"/>
</g>
<!-- Node17 -->
<g id="node17" class="node">
<title>Node17</title>
<g id="a_node17"><a xlink:title=" ">
<polygon fill="white" stroke="#bfbfbf" points="386,-179.5 386,-198.5 437,-198.5 437,-179.5 386,-179.5"/>
<text text-anchor="middle" x="411.5" y="-186.5" font-family="Helvetica,sans-Serif" font-size="10.00">math.h</text>
</a>
</g>
</g>
<!-- Node16&#45;&gt;Node17 -->
<g id="edge17" class="edge">
<title>Node16&#45;&gt;Node17</title>
<path fill="none" stroke="midnightblue" d="M681.22,-239.58C633.08,-232.59 537.8,-218.01 446.96,-198.94"/>
<polygon fill="midnightblue" stroke="midnightblue" points="447.56,-195.49 437.06,-196.84 446.11,-202.34 447.56,-195.49"/>
</g>
<!-- Node18 -->
<g id="node18" class="node">
<title>Node18</title>
<g id="a_node18"><a xlink:title=" ">
<polygon fill="white" stroke="#bfbfbf" points="455.5,-179.5 455.5,-198.5 519.5,-198.5 519.5,-179.5 455.5,-179.5"/>
<text text-anchor="middle" x="487.5" y="-186.5" font-family="Helvetica,sans-Serif" font-size="10.00">algorithm</text>
</a>
</g>
</g>
<!-- Node16&#45;&gt;Node18 -->
<g id="edge18" class="edge">
<title>Node16&#45;&gt;Node18</title>
<path fill="none" stroke="midnightblue" d="M681.21,-236.49C641.67,-227 573.46,-210.63 529.43,-200.06"/>
<polygon fill="midnightblue" stroke="midnightblue" points="530.15,-196.64 519.61,-197.71 528.52,-203.44 530.15,-196.64"/>
</g>
<!-- Node19 -->
<g id="node19" class="node">
<title>Node19</title>
<g id="a_node19"><a xlink:title=" ">
<polygon fill="white" stroke="#bfbfbf" points="538,-179.5 538,-198.5 593,-198.5 593,-179.5 538,-179.5"/>
<text text-anchor="middle" x="565.5" y="-186.5" font-family="Helvetica,sans-Serif" font-size="10.00">fstream</text>
</a>
</g>
</g>
<!-- Node16&#45;&gt;Node19 -->
<g id="edge19" class="edge">
<title>Node16&#45;&gt;Node19</title>
<path fill="none" stroke="midnightblue" d="M689.21,-235.44C664.69,-226.44 625.9,-212.19 598.3,-202.05"/>
<polygon fill="midnightblue" stroke="midnightblue" points="599.28,-198.68 588.68,-198.52 596.86,-205.25 599.28,-198.68"/>
</g>
<!-- Node20 -->
<g id="node20" class="node">
<title>Node20</title>
<g id="a_node20"><a xlink:title=" ">
<polygon fill="white" stroke="#bfbfbf" points="611.5,-179.5 611.5,-198.5 643.5,-198.5 643.5,-179.5 611.5,-179.5"/>
<text text-anchor="middle" x="627.5" y="-186.5" font-family="Helvetica,sans-Serif" font-size="10.00">list</text>
</a>
</g>
</g>
<!-- Node16&#45;&gt;Node20 -->
<g id="edge21" class="edge">
<title>Node16&#45;&gt;Node20</title>
<path fill="none" stroke="midnightblue" d="M698.84,-235.32C685.58,-226.9 665.23,-213.97 649.65,-204.07"/>
<polygon fill="midnightblue" stroke="midnightblue" points="651.44,-201.06 641.12,-198.65 647.69,-206.97 651.44,-201.06"/>
</g>
<!-- Node21 -->
<g id="node21" class="node">
<title>Node21</title>
<g id="a_node21"><a xlink:title=" ">
<polygon fill="white" stroke="#bfbfbf" points="661.5,-179.5 661.5,-198.5 699.5,-198.5 699.5,-179.5 661.5,-179.5"/>
<text text-anchor="middle" x="680.5" y="-186.5" font-family="Helvetica,sans-Serif" font-size="10.00">map</text>
</a>
</g>
</g>
<!-- Node16&#45;&gt;Node21 -->
<g id="edge22" class="edge">
<title>Node16&#45;&gt;Node21</title>
<path fill="none" stroke="midnightblue" d="M707.22,-235.08C702.79,-227.61 696.34,-216.72 690.88,-207.52"/>
<polygon fill="midnightblue" stroke="midnightblue" points="693.79,-205.57 685.69,-198.75 687.77,-209.14 693.79,-205.57"/>
</g>
<!-- Node22 -->
<g id="node22" class="node">
<title>Node22</title>
<g id="a_node22"><a xlink:title=" ">
<polygon fill="white" stroke="#bfbfbf" points="717.5,-179.5 717.5,-198.5 773.5,-198.5 773.5,-179.5 717.5,-179.5"/>
<text text-anchor="middle" x="745.5" y="-186.5" font-family="Helvetica,sans-Serif" font-size="10.00">sstream</text>
</a>
</g>
</g>
<!-- Node16&#45;&gt;Node22 -->
<g id="edge24" class="edge">
<title>Node16&#45;&gt;Node22</title>
<path fill="none" stroke="midnightblue" d="M717.95,-235.08C722.51,-227.61 729.17,-216.72 734.79,-207.52"/>
<polygon fill="midnightblue" stroke="midnightblue" points="737.92,-209.11 740.15,-198.75 731.95,-205.46 737.92,-209.11"/>
</g>
<!-- Node23 -->
<g id="node23" class="node">
<title>Node23</title>
<g id="a_node23"><a xlink:title=" ">
<polygon fill="white" stroke="#bfbfbf" points="791.5,-179.5 791.5,-198.5 931.5,-198.5 931.5,-179.5 791.5,-179.5"/>
<text text-anchor="middle" x="861.5" y="-186.5" font-family="Helvetica,sans-Serif" font-size="10.00">allegro5/allegro_physfs.h</text>
</a>
</g>
</g>
<!-- Node16&#45;&gt;Node23 -->
<g id="edge31" class="edge">
<title>Node16&#45;&gt;Node23</title>
<path fill="none" stroke="midnightblue" d="M736.11,-235.44C760.96,-226.44 800.27,-212.19 828.25,-202.05"/>
<polygon fill="midnightblue" stroke="midnightblue" points="829.79,-205.21 838,-198.52 827.41,-198.63 829.79,-205.21"/>
</g>
<!-- Node24 -->
<g id="node24" class="node">
<title>Node24</title>
<g id="a_node24"><a xlink:title=" ">
<polygon fill="white" stroke="#bfbfbf" points="950,-179.5 950,-198.5 1053,-198.5 1053,-179.5 950,-179.5"/>
<text text-anchor="middle" x="1001.5" y="-186.5" font-family="Helvetica,sans-Serif" font-size="10.00">allegro5/bitmap.h</text>
</a>
</g>
</g>
<!-- Node16&#45;&gt;Node24 -->
<g id="edge34" class="edge">
<title>Node16&#45;&gt;Node24</title>
<path fill="none" stroke="midnightblue" d="M743.7,-238.17C792.06,-229.13 885.79,-211.62 945.92,-200.39"/>
<polygon fill="midnightblue" stroke="midnightblue" points="946.81,-203.78 956,-198.5 945.53,-196.9 946.81,-203.78"/>
</g>
<!-- Node25 -->
<g id="node25" class="node">
<title>Node25</title>
<g id="a_node25"><a xlink:href="player_8hpp.html" target="_top" xlink:title="Modela um jogador e operações de ranking.">
<polygon fill="white" stroke="black" points="1071.5,-179.5 1071.5,-198.5 1139.5,-198.5 1139.5,-179.5 1071.5,-179.5"/>
<text text-anchor="middle" x="1105.5" y="-186.5" font-family="Helvetica,sans-Serif" font-size="10.00">player.hpp</text>
</a>
</g>
</g>
<!-- Node16&#45;&gt;Node25 -->
<g id="edge37" class="edge">
<title>Node16&#45;&gt;Node25</title>
<path fill="none" stroke="midnightblue" d="M743.87,-240.15C804.1,-233.29 939.21,-217.86 1052.5,-199 1055.31,-198.53 1058.22,-198.01 1061.16,-197.47"/>
<polygon fill="midnightblue" stroke="midnightblue" points="1062.05,-200.86 1071.22,-195.55 1060.74,-193.99 1062.05,-200.86"/>
</g>
<!-- Node16&#45;&gt;Node26 -->
<g id="edge39" class="edge">
<title>Node16&#45;&gt;Node26</title>
<path fill="none" stroke="midnightblue" d="M681.26,-242.39C600.15,-237.96 376.35,-224.25 191.5,-199 189.28,-198.7 187.01,-198.36 184.72,-198"/>
<polygon fill="midnightblue" stroke="midnightblue" points="185.11,-194.52 174.67,-196.31 183.95,-201.42 185.11,-194.52"/>
</g>
<!-- Node25&#45;&gt;Node16 -->
<g id="edge38" class="edge">
<title>Node25&#45;&gt;Node16</title>
<path fill="none" stroke="midnightblue" d="M1073.3,-198.52C1072.36,-198.69 1071.42,-198.85 1070.5,-199 956.67,-217.95 820.81,-233.44 753.79,-240.25"/>
<polygon fill="midnightblue" stroke="midnightblue" points="753.24,-236.79 743.64,-241.27 753.94,-243.75 753.24,-236.79"/>
</g>
<!-- Node26&#45;&gt;Node6 -->
<g id="edge40" class="edge">
<title>Node26&#45;&gt;Node6</title>
<path fill="none" stroke="midnightblue" d="M157.53,-179.43C190.1,-159.54 273.43,-108.76 343.5,-67 364.58,-54.43 388.68,-40.3 406,-30.19"/>
<polygon fill="midnightblue" stroke="midnightblue" points="407.98,-33.08 414.86,-25.02 404.46,-27.04 407.98,-33.08"/>
</g>
<!-- Node26&#45;&gt;Node13 -->
<g id="edge41" class="edge">
<title>Node26&#45;&gt;Node13</title>
<path fill="none" stroke="midnightblue" d="M131.36,-179.34C120.7,-171.13 105.53,-157.87 96.5,-143 87.82,-128.71 82.92,-110.24 80.28,-96.65"/>
<polygon fill="midnightblue" stroke="midnightblue" points="83.69,-95.84 78.56,-86.57 76.79,-97.02 83.69,-95.84"/>
</g>
<!-- Node26&#45;&gt;Node27 -->
<g id="edge42" class="edge">
<title>Node26&#45;&gt;Node27</title>
<path fill="none" stroke="midnightblue" d="M143.17,-179.08C142.91,-172.01 142.53,-161.86 142.2,-152.99"/>
<polygon fill="midnightblue" stroke="midnightblue" points="145.69,-152.61 141.82,-142.75 138.7,-152.87 145.69,-152.61"/>
</g>
<!-- Node27&#45;&gt;Node2 -->
<g id="edge44" class="edge">
<title>Node27&#45;&gt;Node2</title>
<path fill="none" stroke="midnightblue" d="M177.73,-130.11C333.66,-121.97 947.8,-89.93 1127.1,-80.58"/>
<polygon fill="midnightblue" stroke="midnightblue" points="1127.49,-84.06 1137.29,-80.05 1127.12,-77.07 1127.49,-84.06"/>
</g>
<!-- Node27&#45;&gt;Node11 -->
<g id="edge43" class="edge">
<title>Node27&#45;&gt;Node11</title>
<path fill="none" stroke="midnightblue" d="M152.02,-123.32C175.64,-103.84 233.11,-56.42 262.9,-31.84"/>
<polygon fill="midnightblue" stroke="midnightblue" points="265.37,-34.35 270.86,-25.28 260.91,-28.95 265.37,-34.35"/>
</g>
<!-- Node27&#45;&gt;Node13 -->
<g id="edge45" class="edge">
<title>Node27&#45;&gt;Node13</title>
<path fill="none" stroke="midnightblue" d="M131.22,-123.32C121.66,-115.26 107.22,-103.08 95.72,-93.37"/>
<polygon fill="midnightblue" stroke="midnightblue" points="97.87,-90.61 87.97,-86.83 93.36,-95.96 97.87,-90.61"/>
</g>
</g>
</svg>
