<?xml version="1.0" encoding="UTF-8" standalone="no"?>
<!DOCTYPE svg PUBLIC "-//W3C//DTD SVG 1.1//EN"
 "http://www.w3.org/Graphics/SVG/1.1/DTD/svg11.dtd">
<!-- Generated by graphviz version 2.43.0 (0)
 -->
<!-- Title: main Pages: 1 -->
<svg width="355pt" height="104pt"
 viewBox="0.00 0.00 355.00 104.00" xmlns="http://www.w3.org/2000/svg" xmlns:xlink="http://www.w3.org/1999/xlink">
<g id="graph0" class="graph" transform="scale(1 1) rotate(0) translate(4 100)">
<title>main</title>
<polygon fill="white" stroke="transparent" points="-4,4 -4,-100 351,-100 351,4 -4,4"/>
<!-- Node1 -->
<g id="node1" class="node">
<title>Node1</title>
<g id="a_node1"><a xlink:title="Função principal que inicializa, executa e encerra o jogo.">
<polygon fill="#bfbfbf" stroke="black" points="0,-38.5 0,-57.5 41,-57.5 41,-38.5 0,-38.5"/>
<text text-anchor="middle" x="20.5" y="-45.5" font-family="Helvetica,sans-Serif" font-size="10.00">main</text>
</a>
</g>
</g>
<!-- Node2 -->
<g id="node2" class="node">
<title>Node2</title>
<g id="a_node2"><a xlink:href="init_8hpp.html#a967fb9235af58c66165b0d619c6cc584" target="_top" xlink:title="Libera todos os recursos e encerra o subsistema Allegro.">
<polygon fill="white" stroke="black" points="115.5,-76.5 115.5,-95.5 159.5,-95.5 159.5,-76.5 115.5,-76.5"/>
<text text-anchor="middle" x="137.5" y="-83.5" font-family="Helvetica,sans-Serif" font-size="10.00">deinit</text>
</a>
</g>
</g>
<!-- Node1&#45;&gt;Node2 -->
<g id="edge1" class="edge">
<title>Node1&#45;&gt;Node2</title>
<path fill="none" stroke="midnightblue" d="M41.24,-54.87C51.83,-58.53 65.11,-63.07 77,-67 86.3,-70.08 96.44,-73.35 105.68,-76.29"/>
<polygon fill="midnightblue" stroke="midnightblue" points="104.67,-79.64 115.26,-79.34 106.79,-72.97 104.67,-79.64"/>
</g>
<!-- Node4 -->
<g id="node4" class="node">
<title>Node4</title>
<g id="a_node4"><a xlink:href="init_8hpp.html#a02fd73d861ef2e4aabb38c0c9ff82947" target="_top" xlink:title="Inicializa Allegro, janela, áudio e recursos globais.">
<polygon fill="white" stroke="black" points="121.5,-38.5 121.5,-57.5 153.5,-57.5 153.5,-38.5 121.5,-38.5"/>
<text text-anchor="middle" x="137.5" y="-45.5" font-family="Helvetica,sans-Serif" font-size="10.00">init</text>
</a>
</g>
</g>
<!-- Node1&#45;&gt;Node4 -->
<g id="edge3" class="edge">
<title>Node1&#45;&gt;Node4</title>
<path fill="none" stroke="midnightblue" d="M41.01,-48C60.33,-48 90,-48 111.14,-48"/>
<polygon fill="midnightblue" stroke="midnightblue" points="111.31,-51.5 121.31,-48 111.31,-44.5 111.31,-51.5"/>
</g>
<!-- Node7 -->
<g id="node7" class="node">
<title>Node7</title>
<g id="a_node7"><a xlink:href="classAllegroController.html#a4c68802b8463cf74323d7c4aa6e4597b" target="_top" xlink:title="Executa o loop principal do jogo.">
<polygon fill="white" stroke="black" points="77,-0.5 77,-19.5 198,-19.5 198,-0.5 77,-0.5"/>
<text text-anchor="middle" x="137.5" y="-7.5" font-family="Helvetica,sans-Serif" font-size="10.00">AllegroController::run</text>
</a>
</g>
</g>
<!-- Node1&#45;&gt;Node7 -->
<g id="edge6" class="edge">
<title>Node1&#45;&gt;Node7</title>
<path fill="none" stroke="midnightblue" d="M41.24,-41.13C51.83,-37.47 65.11,-32.93 77,-29 83.22,-26.94 89.81,-24.8 96.26,-22.73"/>
<polygon fill="midnightblue" stroke="midnightblue" points="97.74,-25.93 106.19,-19.54 95.6,-19.26 97.74,-25.93"/>
</g>
<!-- Node3 -->
<g id="node3" class="node">
<title>Node3</title>
<g id="a_node3"><a xlink:href="assets_8hpp.html#a4fd458c14651187b5d4541e2c281b587" target="_top" xlink:title="Libera os recursos globais previamente carregados.">
<polygon fill="white" stroke="black" points="234,-76.5 234,-95.5 347,-95.5 347,-76.5 234,-76.5"/>
<text text-anchor="middle" x="290.5" y="-83.5" font-family="Helvetica,sans-Serif" font-size="10.00">unloadGlobalAssets</text>
</a>
</g>
</g>
<!-- Node2&#45;&gt;Node3 -->
<g id="edge2" class="edge">
<title>Node2&#45;&gt;Node3</title>
<path fill="none" stroke="midnightblue" d="M159.81,-86C176.53,-86 200.73,-86 223.71,-86"/>
<polygon fill="midnightblue" stroke="midnightblue" points="223.8,-89.5 233.8,-86 223.8,-82.5 223.8,-89.5"/>
</g>
<!-- Node5 -->
<g id="node5" class="node">
<title>Node5</title>
<g id="a_node5"><a xlink:href="assets_8hpp.html#aaccab0735d858c388c02f026c7641c08" target="_top" xlink:title="Carrega recursos globais utilizados em múltiplas cenas.">
<polygon fill="white" stroke="black" points="240,-38.5 240,-57.5 341,-57.5 341,-38.5 240,-38.5"/>
<text text-anchor="middle" x="290.5" y="-45.5" font-family="Helvetica,sans-Serif" font-size="10.00">loadGlobalAssets</text>
</a>
</g>
</g>
<!-- Node4&#45;&gt;Node5 -->
<g id="edge4" class="edge">
<title>Node4&#45;&gt;Node5</title>
<path fill="none" stroke="midnightblue" d="M153.53,-48C171.34,-48 202.09,-48 229.85,-48"/>
<polygon fill="midnightblue" stroke="midnightblue" points="229.91,-51.5 239.91,-48 229.91,-44.5 229.91,-51.5"/>
</g>
<!-- Node6 -->
<g id="node6" class="node">
<title>Node6</title>
<g id="a_node6"><a xlink:href="classState.html#a1af78c005ab63f5dcbd9bcd1c44bd0e6" target="_top" xlink:title="Configura ponteiros globais de display e fila de eventos.">
<polygon fill="white" stroke="black" points="240.5,-0.5 240.5,-19.5 340.5,-19.5 340.5,-0.5 240.5,-0.5"/>
<text text-anchor="middle" x="290.5" y="-7.5" font-family="Helvetica,sans-Serif" font-size="10.00">State::setGlobals</text>
</a>
</g>
</g>
<!-- Node4&#45;&gt;Node6 -->
<g id="edge5" class="edge">
<title>Node4&#45;&gt;Node6</title>
<path fill="none" stroke="midnightblue" d="M153.53,-44.22C173.9,-39.09 211.23,-29.7 241.63,-22.05"/>
<polygon fill="midnightblue" stroke="midnightblue" points="242.8,-25.36 251.64,-19.53 241.09,-18.57 242.8,-25.36"/>
</g>
</g>
</svg>
