<?xml version="1.0" encoding="UTF-8" standalone="no"?>
<!DOCTYPE svg PUBLIC "-//W3C//DTD SVG 1.1//EN"
 "http://www.w3.org/Graphics/SVG/1.1/DTD/svg11.dtd">
<!-- Generated by graphviz version 2.43.0 (0)
 -->
<!-- Title: include/motion.hpp Pages: 1 -->
<svg width="1384pt" height="151pt"
 viewBox="0.00 0.00 1384.00 151.00" xmlns="http://www.w3.org/2000/svg" xmlns:xlink="http://www.w3.org/1999/xlink">
<g id="graph0" class="graph" transform="scale(1 1) rotate(0) translate(4 147)">
<title>include/motion.hpp</title>
<polygon fill="white" stroke="transparent" points="-4,4 -4,-147 1380,-147 1380,4 -4,4"/>
<!-- Node1 -->
<g id="node1" class="node">
<title>Node1</title>
<g id="a_node1"><a xlink:title="Gerencia efeitos de parallax e animações de cenário.">
<polygon fill="#bfbfbf" stroke="black" points="543.5,-123.5 543.5,-142.5 653.5,-142.5 653.5,-123.5 543.5,-123.5"/>
<text text-anchor="middle" x="598.5" y="-130.5" font-family="Helvetica,sans-Serif" font-size="10.00">include/motion.hpp</text>
</a>
</g>
</g>
<!-- Node2 -->
<g id="node2" class="node">
<title>Node2</title>
<g id="a_node2"><a xlink:title=" ">
<polygon fill="white" stroke="#bfbfbf" points="0,-6 0,-25 157,-25 157,-6 0,-6"/>
<text text-anchor="middle" x="78.5" y="-13" font-family="Helvetica,sans-Serif" font-size="10.00">allegro5/allegro_primitives.h</text>
</a>
</g>
</g>
<!-- Node1&#45;&gt;Node2 -->
<g id="edge1" class="edge">
<title>Node1&#45;&gt;Node2</title>
<path fill="none" stroke="midnightblue" d="M559.84,-123.41C466.56,-102.69 229.3,-50 126.84,-27.24"/>
<polygon fill="midnightblue" stroke="midnightblue" points="127.58,-23.82 117.06,-25.06 126.06,-30.65 127.58,-23.82"/>
</g>
<!-- Node3 -->
<g id="node3" class="node">
<title>Node3</title>
<g id="a_node3"><a xlink:href="assets_8hpp.html" target="_top" xlink:title="Declara classes utilitárias para carregar e usar imagens, sons e fontes no Allegro.">
<polygon fill="white" stroke="black" points="564,-67.5 564,-86.5 633,-86.5 633,-67.5 564,-67.5"/>
<text text-anchor="middle" x="598.5" y="-74.5" font-family="Helvetica,sans-Serif" font-size="10.00">assets.hpp</text>
</a>
</g>
</g>
<!-- Node1&#45;&gt;Node3 -->
<g id="edge2" class="edge">
<title>Node1&#45;&gt;Node3</title>
<path fill="none" stroke="midnightblue" d="M598.5,-123.08C598.5,-116.01 598.5,-105.86 598.5,-96.99"/>
<polygon fill="midnightblue" stroke="midnightblue" points="602,-96.75 598.5,-86.75 595,-96.75 602,-96.75"/>
</g>
<!-- Node13 -->
<g id="node13" class="node">
<title>Node13</title>
<g id="a_node13"><a xlink:href="defines_8hpp.html" target="_top" xlink:title="Constantes globais, macros e estruturas auxiliares do jogo.">
<polygon fill="white" stroke="black" points="1219,-67.5 1219,-86.5 1292,-86.5 1292,-67.5 1219,-67.5"/>
<text text-anchor="middle" x="1255.5" y="-74.5" font-family="Helvetica,sans-Serif" font-size="10.00">defines.hpp</text>
</a>
</g>
</g>
<!-- Node1&#45;&gt;Node13 -->
<g id="edge13" class="edge">
<title>Node1&#45;&gt;Node13</title>
<path fill="none" stroke="midnightblue" d="M653.67,-127.47C780.35,-117.05 1090.24,-91.58 1208.54,-81.86"/>
<polygon fill="midnightblue" stroke="midnightblue" points="1209.04,-85.33 1218.72,-81.02 1208.47,-78.35 1209.04,-85.33"/>
</g>
<!-- Node3&#45;&gt;Node2 -->
<g id="edge11" class="edge">
<title>Node3&#45;&gt;Node2</title>
<path fill="none" stroke="midnightblue" d="M563.98,-73.11C490.63,-66.81 313.91,-50.8 166.5,-31 157.05,-29.73 147.05,-28.23 137.31,-26.69"/>
<polygon fill="midnightblue" stroke="midnightblue" points="137.73,-23.21 127.3,-25.07 136.61,-30.12 137.73,-23.21"/>
</g>
<!-- Node4 -->
<g id="node4" class="node">
<title>Node4</title>
<g id="a_node4"><a xlink:title=" ">
<polygon fill="white" stroke="#bfbfbf" points="175.5,-6 175.5,-25 235.5,-25 235.5,-6 175.5,-6"/>
<text text-anchor="middle" x="205.5" y="-13" font-family="Helvetica,sans-Serif" font-size="10.00">iostream</text>
</a>
</g>
</g>
<!-- Node3&#45;&gt;Node4 -->
<g id="edge3" class="edge">
<title>Node3&#45;&gt;Node4</title>
<path fill="none" stroke="midnightblue" d="M563.85,-74.24C499.91,-70.4 359.4,-59.27 244.5,-31 241.51,-30.26 238.43,-29.37 235.38,-28.4"/>
<polygon fill="midnightblue" stroke="midnightblue" points="236.46,-25.06 225.87,-25.08 234.16,-31.67 236.46,-25.06"/>
</g>
<!-- Node5 -->
<g id="node5" class="node">
<title>Node5</title>
<g id="a_node5"><a xlink:title=" ">
<polygon fill="white" stroke="#bfbfbf" points="253.5,-6 253.5,-25 311.5,-25 311.5,-6 253.5,-6"/>
<text text-anchor="middle" x="282.5" y="-13" font-family="Helvetica,sans-Serif" font-size="10.00">memory</text>
</a>
</g>
</g>
<!-- Node3&#45;&gt;Node5 -->
<g id="edge4" class="edge">
<title>Node3&#45;&gt;Node5</title>
<path fill="none" stroke="midnightblue" d="M563.78,-72.68C510.69,-67.09 406.44,-54.09 320.5,-31 317.84,-30.29 315.11,-29.45 312.4,-28.55"/>
<polygon fill="midnightblue" stroke="midnightblue" points="313.35,-25.18 302.76,-25.11 310.99,-31.77 313.35,-25.18"/>
</g>
<!-- Node6 -->
<g id="node6" class="node">
<title>Node6</title>
<g id="a_node6"><a xlink:title=" ">
<polygon fill="white" stroke="#bfbfbf" points="1201.5,-6 1201.5,-25 1245.5,-25 1245.5,-6 1201.5,-6"/>
<text text-anchor="middle" x="1223.5" y="-13" font-family="Helvetica,sans-Serif" font-size="10.00">string</text>
</a>
</g>
</g>
<!-- Node3&#45;&gt;Node6 -->
<g id="edge5" class="edge">
<title>Node3&#45;&gt;Node6</title>
<path fill="none" stroke="midnightblue" d="M633.35,-75.01C743.9,-71.6 1085.71,-59.02 1192.5,-31 1194.48,-30.48 1196.49,-29.84 1198.49,-29.11"/>
<polygon fill="midnightblue" stroke="midnightblue" points="1200.3,-32.15 1208.14,-25.02 1197.57,-25.7 1200.3,-32.15"/>
</g>
<!-- Node7 -->
<g id="node7" class="node">
<title>Node7</title>
<g id="a_node7"><a xlink:title=" ">
<polygon fill="white" stroke="#bfbfbf" points="329.5,-6 329.5,-25 431.5,-25 431.5,-6 329.5,-6"/>
<text text-anchor="middle" x="380.5" y="-13" font-family="Helvetica,sans-Serif" font-size="10.00">allegro5/allegro.h</text>
</a>
</g>
</g>
<!-- Node3&#45;&gt;Node7 -->
<g id="edge6" class="edge">
<title>Node3&#45;&gt;Node7</title>
<path fill="none" stroke="midnightblue" d="M567.27,-67.48C528.9,-57 463.71,-39.21 421.39,-27.66"/>
<polygon fill="midnightblue" stroke="midnightblue" points="422.24,-24.27 411.68,-25.01 420.4,-31.02 422.24,-24.27"/>
</g>
<!-- Node8 -->
<g id="node8" class="node">
<title>Node8</title>
<g id="a_node8"><a xlink:title=" ">
<polygon fill="white" stroke="#bfbfbf" points="449.5,-6 449.5,-25 591.5,-25 591.5,-6 449.5,-6"/>
<text text-anchor="middle" x="520.5" y="-13" font-family="Helvetica,sans-Serif" font-size="10.00">allegro5/allegro_acodec.h</text>
</a>
</g>
</g>
<!-- Node3&#45;&gt;Node8 -->
<g id="edge7" class="edge">
<title>Node3&#45;&gt;Node8</title>
<path fill="none" stroke="midnightblue" d="M587.32,-67.48C574.93,-58.02 554.71,-42.6 539.75,-31.19"/>
<polygon fill="midnightblue" stroke="midnightblue" points="541.73,-28.29 531.65,-25.01 537.48,-33.86 541.73,-28.29"/>
</g>
<!-- Node9 -->
<g id="node9" class="node">
<title>Node9</title>
<g id="a_node9"><a xlink:title=" ">
<polygon fill="white" stroke="#bfbfbf" points="609.5,-6 609.5,-25 743.5,-25 743.5,-6 609.5,-6"/>
<text text-anchor="middle" x="676.5" y="-13" font-family="Helvetica,sans-Serif" font-size="10.00">allegro5/allegro_audio.h</text>
</a>
</g>
</g>
<!-- Node3&#45;&gt;Node9 -->
<g id="edge8" class="edge">
<title>Node3&#45;&gt;Node9</title>
<path fill="none" stroke="midnightblue" d="M609.68,-67.48C622.07,-58.02 642.29,-42.6 657.25,-31.19"/>
<polygon fill="midnightblue" stroke="midnightblue" points="659.52,-33.86 665.35,-25.01 655.27,-28.29 659.52,-33.86"/>
</g>
<!-- Node10 -->
<g id="node10" class="node">
<title>Node10</title>
<g id="a_node10"><a xlink:title=" ">
<polygon fill="white" stroke="#bfbfbf" points="761.5,-6 761.5,-25 899.5,-25 899.5,-6 761.5,-6"/>
<text text-anchor="middle" x="830.5" y="-13" font-family="Helvetica,sans-Serif" font-size="10.00">allegro5/allegro_image.h</text>
</a>
</g>
</g>
<!-- Node3&#45;&gt;Node10 -->
<g id="edge9" class="edge">
<title>Node3&#45;&gt;Node10</title>
<path fill="none" stroke="midnightblue" d="M631.74,-67.48C672.74,-56.96 742.53,-39.06 787.55,-27.51"/>
<polygon fill="midnightblue" stroke="midnightblue" points="788.5,-30.88 797.32,-25.01 786.77,-24.1 788.5,-30.88"/>
</g>
<!-- Node11 -->
<g id="node11" class="node">
<title>Node11</title>
<g id="a_node11"><a xlink:title=" ">
<polygon fill="white" stroke="#bfbfbf" points="918,-0.5 918,-30.5 1047,-30.5 1047,-0.5 918,-0.5"/>
<text text-anchor="start" x="926" y="-18.5" font-family="Helvetica,sans-Serif" font-size="10.00">allegro5/allegro_native</text>
<text text-anchor="middle" x="982.5" y="-7.5" font-family="Helvetica,sans-Serif" font-size="10.00">_dialog.h</text>
</a>
</g>
</g>
<!-- Node3&#45;&gt;Node11 -->
<g id="edge10" class="edge">
<title>Node3&#45;&gt;Node11</title>
<path fill="none" stroke="midnightblue" d="M633.46,-71.5C689.22,-64.19 801.96,-48.91 908.05,-31.02"/>
<polygon fill="midnightblue" stroke="midnightblue" points="908.69,-34.46 917.96,-29.34 907.52,-27.56 908.69,-34.46"/>
</g>
<!-- Node12 -->
<g id="node12" class="node">
<title>Node12</title>
<g id="a_node12"><a xlink:title=" ">
<polygon fill="white" stroke="#bfbfbf" points="1065.5,-6 1065.5,-25 1183.5,-25 1183.5,-6 1065.5,-6"/>
<text text-anchor="middle" x="1124.5" y="-13" font-family="Helvetica,sans-Serif" font-size="10.00">allegro5/allegro_ttf.h</text>
</a>
</g>
</g>
<!-- Node3&#45;&gt;Node12 -->
<g id="edge12" class="edge">
<title>Node3&#45;&gt;Node12</title>
<path fill="none" stroke="midnightblue" d="M633.06,-73.89C709.52,-68.93 898.69,-55.12 1055.5,-31 1062.65,-29.9 1070.18,-28.53 1077.53,-27.08"/>
<polygon fill="midnightblue" stroke="midnightblue" points="1078.3,-30.5 1087.39,-25.07 1076.9,-23.64 1078.3,-30.5"/>
</g>
<!-- Node13&#45;&gt;Node6 -->
<g id="edge15" class="edge">
<title>Node13&#45;&gt;Node6</title>
<path fill="none" stroke="midnightblue" d="M1250.92,-67.48C1246.26,-58.82 1238.91,-45.15 1232.99,-34.15"/>
<polygon fill="midnightblue" stroke="midnightblue" points="1235.9,-32.16 1228.08,-25.01 1229.73,-35.47 1235.9,-32.16"/>
</g>
<!-- Node14 -->
<g id="node14" class="node">
<title>Node14</title>
<g id="a_node14"><a xlink:title=" ">
<polygon fill="white" stroke="#bfbfbf" points="1264,-6 1264,-25 1311,-25 1311,-6 1264,-6"/>
<text text-anchor="middle" x="1287.5" y="-13" font-family="Helvetica,sans-Serif" font-size="10.00">cmath</text>
</a>
</g>
</g>
<!-- Node13&#45;&gt;Node14 -->
<g id="edge14" class="edge">
<title>Node13&#45;&gt;Node14</title>
<path fill="none" stroke="midnightblue" d="M1260.08,-67.48C1264.74,-58.82 1272.09,-45.15 1278.01,-34.15"/>
<polygon fill="midnightblue" stroke="midnightblue" points="1281.27,-35.47 1282.92,-25.01 1275.1,-32.16 1281.27,-35.47"/>
</g>
<!-- Node15 -->
<g id="node15" class="node">
<title>Node15</title>
<g id="a_node15"><a xlink:title=" ">
<polygon fill="white" stroke="#bfbfbf" points="1329,-6 1329,-25 1376,-25 1376,-6 1329,-6"/>
<text text-anchor="middle" x="1352.5" y="-13" font-family="Helvetica,sans-Serif" font-size="10.00">vector</text>
</a>
</g>
</g>
<!-- Node13&#45;&gt;Node15 -->
<g id="edge16" class="edge">
<title>Node13&#45;&gt;Node15</title>
<path fill="none" stroke="midnightblue" d="M1269.4,-67.48C1285.17,-57.8 1311.14,-41.87 1329.85,-30.39"/>
<polygon fill="midnightblue" stroke="midnightblue" points="1331.93,-33.22 1338.63,-25.01 1328.27,-27.25 1331.93,-33.22"/>
</g>
</g>
</svg>
