<?xml version="1.0" encoding="UTF-8" standalone="no"?>
<!DOCTYPE svg PUBLIC "-//W3C//DTD SVG 1.1//EN"
 "http://www.w3.org/Graphics/SVG/1.1/DTD/svg11.dtd">
<!-- Generated by graphviz version 2.43.0 (0)
 -->
<!-- Title: src/motion.cpp Pages: 1 -->
<svg width="1590pt" height="319pt"
 viewBox="0.00 0.00 1589.50 319.00" xmlns="http://www.w3.org/2000/svg" xmlns:xlink="http://www.w3.org/1999/xlink">
<g id="graph0" class="graph" transform="scale(1 1) rotate(0) translate(4 315)">
<title>src/motion.cpp</title>
<polygon fill="white" stroke="transparent" points="-4,4 -4,-315 1585.5,-315 1585.5,4 -4,4"/>
<!-- Node1 -->
<g id="node1" class="node">
<title>Node1</title>
<g id="a_node1"><a xlink:title="Implementação da classe Motion (parallax e clima).">
<polygon fill="#bfbfbf" stroke="black" points="116,-291.5 116,-310.5 205,-310.5 205,-291.5 116,-291.5"/>
<text text-anchor="middle" x="160.5" y="-298.5" font-family="Helvetica,sans-Serif" font-size="10.00">src/motion.cpp</text>
</a>
</g>
</g>
<!-- Node2 -->
<g id="node2" class="node">
<title>Node2</title>
<g id="a_node2"><a xlink:href="motion_8hpp.html" target="_top" xlink:title="Gerencia efeitos de parallax e animações de cenário.">
<polygon fill="white" stroke="black" points="183,-123.5 183,-142.5 302,-142.5 302,-123.5 183,-123.5"/>
<text text-anchor="middle" x="242.5" y="-130.5" font-family="Helvetica,sans-Serif" font-size="10.00">../include/motion.hpp</text>
</a>
</g>
</g>
<!-- Node1&#45;&gt;Node2 -->
<g id="edge1" class="edge">
<title>Node1&#45;&gt;Node2</title>
<path fill="none" stroke="midnightblue" d="M164.91,-291.08C177.93,-264.72 216.38,-186.88 233.78,-151.66"/>
<polygon fill="midnightblue" stroke="midnightblue" points="236.98,-153.08 238.27,-142.57 230.7,-149.98 236.98,-153.08"/>
</g>
<!-- Node3 -->
<g id="node3" class="node">
<title>Node3</title>
<g id="a_node3"><a xlink:title=" ">
<polygon fill="white" stroke="#bfbfbf" points="0,-6 0,-25 157,-25 157,-6 0,-6"/>
<text text-anchor="middle" x="78.5" y="-13" font-family="Helvetica,sans-Serif" font-size="10.00">allegro5/allegro_primitives.h</text>
</a>
</g>
</g>
<!-- Node1&#45;&gt;Node3 -->
<g id="edge18" class="edge">
<title>Node1&#45;&gt;Node3</title>
<path fill="none" stroke="midnightblue" d="M115.88,-294.99C87.04,-289.58 50.54,-278.33 26.5,-255 4.4,-233.55 2.5,-220.8 2.5,-190 2.5,-190 2.5,-190 2.5,-132 2.5,-101.2 9.7,-92.81 26.5,-67 35.36,-53.38 48.51,-40.66 59.37,-31.39"/>
<polygon fill="midnightblue" stroke="midnightblue" points="61.61,-34.07 67.11,-25.01 57.17,-28.66 61.61,-34.07"/>
</g>
<!-- Node4 -->
<g id="node4" class="node">
<title>Node4</title>
<g id="a_node4"><a xlink:href="assets_8hpp.html" target="_top" xlink:title="Declara classes utilitárias para carregar e usar imagens, sons e fontes no Allegro.">
<polygon fill="white" stroke="black" points="511,-67.5 511,-86.5 580,-86.5 580,-67.5 511,-67.5"/>
<text text-anchor="middle" x="545.5" y="-74.5" font-family="Helvetica,sans-Serif" font-size="10.00">assets.hpp</text>
</a>
</g>
</g>
<!-- Node1&#45;&gt;Node4 -->
<g id="edge48" class="edge">
<title>Node1&#45;&gt;Node4</title>
<path fill="none" stroke="midnightblue" d="M177.38,-291.43C210.66,-274.43 286.93,-234.98 349.5,-199 413.78,-162.03 487.77,-115.13 523.68,-92.09"/>
<polygon fill="midnightblue" stroke="midnightblue" points="525.85,-94.86 532.36,-86.5 522.06,-88.97 525.85,-94.86"/>
</g>
<!-- Node6 -->
<g id="node6" class="node">
<title>Node6</title>
<g id="a_node6"><a xlink:title=" ">
<polygon fill="white" stroke="#bfbfbf" points="305.5,-6 305.5,-25 363.5,-25 363.5,-6 305.5,-6"/>
<text text-anchor="middle" x="334.5" y="-13" font-family="Helvetica,sans-Serif" font-size="10.00">memory</text>
</a>
</g>
</g>
<!-- Node1&#45;&gt;Node6 -->
<g id="edge19" class="edge">
<title>Node1&#45;&gt;Node6</title>
<path fill="none" stroke="midnightblue" d="M138.21,-291.5C103.51,-276.63 40.5,-242.43 40.5,-190 40.5,-190 40.5,-190 40.5,-132 40.5,-10.1 181.09,-73.07 295.5,-31 297.59,-30.23 299.75,-29.44 301.92,-28.63"/>
<polygon fill="midnightblue" stroke="midnightblue" points="303.25,-31.87 311.41,-25.11 300.82,-25.31 303.25,-31.87"/>
</g>
<!-- Node14 -->
<g id="node14" class="node">
<title>Node14</title>
<g id="a_node14"><a xlink:href="defines_8hpp.html" target="_top" xlink:title="Constantes globais, macros e estruturas auxiliares do jogo.">
<polygon fill="white" stroke="black" points="206,-67.5 206,-86.5 279,-86.5 279,-67.5 206,-67.5"/>
<text text-anchor="middle" x="242.5" y="-74.5" font-family="Helvetica,sans-Serif" font-size="10.00">defines.hpp</text>
</a>
</g>
</g>
<!-- Node1&#45;&gt;Node14 -->
<g id="edge20" class="edge">
<title>Node1&#45;&gt;Node14</title>
<path fill="none" stroke="midnightblue" d="M158.12,-291.46C151.13,-264.46 133.11,-179.34 166.5,-123 175.22,-108.28 190.78,-97.85 205.55,-90.76"/>
<polygon fill="midnightblue" stroke="midnightblue" points="207.32,-93.8 215.07,-86.57 204.5,-87.39 207.32,-93.8"/>
</g>
<!-- Node17 -->
<g id="node17" class="node">
<title>Node17</title>
<g id="a_node17"><a xlink:href="init_8hpp.html" target="_top" xlink:title="Declara funções de inicialização e finalização do Allegro.">
<polygon fill="white" stroke="black" points="785,-235.5 785,-254.5 886,-254.5 886,-235.5 785,-235.5"/>
<text text-anchor="middle" x="835.5" y="-242.5" font-family="Helvetica,sans-Serif" font-size="10.00">../include/init.hpp</text>
</a>
</g>
</g>
<!-- Node1&#45;&gt;Node17 -->
<g id="edge21" class="edge">
<title>Node1&#45;&gt;Node17</title>
<path fill="none" stroke="midnightblue" d="M205.05,-296.44C322.48,-287.04 640.62,-261.59 774.66,-250.87"/>
<polygon fill="midnightblue" stroke="midnightblue" points="775.06,-254.35 784.75,-250.06 774.5,-247.37 775.06,-254.35"/>
</g>
<!-- Node2&#45;&gt;Node3 -->
<g id="edge2" class="edge">
<title>Node2&#45;&gt;Node3</title>
<path fill="none" stroke="midnightblue" d="M230.17,-123.32C202.27,-103.67 134.03,-55.61 99.4,-31.22"/>
<polygon fill="midnightblue" stroke="midnightblue" points="101.16,-28.18 90.97,-25.28 97.13,-33.9 101.16,-28.18"/>
</g>
<!-- Node2&#45;&gt;Node4 -->
<g id="edge3" class="edge">
<title>Node2&#45;&gt;Node4</title>
<path fill="none" stroke="midnightblue" d="M290.51,-123.44C348.32,-113.14 444.64,-95.97 500.89,-85.95"/>
<polygon fill="midnightblue" stroke="midnightblue" points="501.68,-89.37 510.91,-84.16 500.45,-82.47 501.68,-89.37"/>
</g>
<!-- Node2&#45;&gt;Node14 -->
<g id="edge14" class="edge">
<title>Node2&#45;&gt;Node14</title>
<path fill="none" stroke="midnightblue" d="M242.5,-123.08C242.5,-116.01 242.5,-105.86 242.5,-96.99"/>
<polygon fill="midnightblue" stroke="midnightblue" points="246,-96.75 242.5,-86.75 239,-96.75 246,-96.75"/>
</g>
<!-- Node4&#45;&gt;Node3 -->
<g id="edge12" class="edge">
<title>Node4&#45;&gt;Node3</title>
<path fill="none" stroke="midnightblue" d="M510.85,-72.45C443.96,-65.48 292.43,-49.08 165.5,-31 156.37,-29.7 146.72,-28.21 137.31,-26.69"/>
<polygon fill="midnightblue" stroke="midnightblue" points="137.65,-23.2 127.21,-25.04 136.51,-30.11 137.65,-23.2"/>
</g>
<!-- Node5 -->
<g id="node5" class="node">
<title>Node5</title>
<g id="a_node5"><a xlink:title=" ">
<polygon fill="white" stroke="#bfbfbf" points="1521.5,-6 1521.5,-25 1581.5,-25 1581.5,-6 1521.5,-6"/>
<text text-anchor="middle" x="1551.5" y="-13" font-family="Helvetica,sans-Serif" font-size="10.00">iostream</text>
</a>
</g>
</g>
<!-- Node4&#45;&gt;Node5 -->
<g id="edge4" class="edge">
<title>Node4&#45;&gt;Node5</title>
<path fill="none" stroke="midnightblue" d="M580.12,-75.41C729.2,-72.7 1317.07,-60.35 1499.5,-31 1504.69,-30.17 1510.1,-29 1515.38,-27.69"/>
<polygon fill="midnightblue" stroke="midnightblue" points="1516.54,-31 1525.3,-25.04 1514.74,-24.24 1516.54,-31"/>
</g>
<!-- Node4&#45;&gt;Node6 -->
<g id="edge5" class="edge">
<title>Node4&#45;&gt;Node6</title>
<path fill="none" stroke="midnightblue" d="M510.71,-68.14C475.55,-59.92 419.8,-46.12 372.5,-31 370.09,-30.23 367.6,-29.39 365.12,-28.51"/>
<polygon fill="midnightblue" stroke="midnightblue" points="366.25,-25.2 355.66,-25.05 363.84,-31.77 366.25,-25.2"/>
</g>
<!-- Node7 -->
<g id="node7" class="node">
<title>Node7</title>
<g id="a_node7"><a xlink:title=" ">
<polygon fill="white" stroke="#bfbfbf" points="381.5,-6 381.5,-25 425.5,-25 425.5,-6 381.5,-6"/>
<text text-anchor="middle" x="403.5" y="-13" font-family="Helvetica,sans-Serif" font-size="10.00">string</text>
</a>
</g>
</g>
<!-- Node4&#45;&gt;Node7 -->
<g id="edge6" class="edge">
<title>Node4&#45;&gt;Node7</title>
<path fill="none" stroke="midnightblue" d="M523.24,-67.37C500.73,-58.56 465,-44.3 434.5,-31 433.31,-30.48 432.09,-29.94 430.86,-29.39"/>
<polygon fill="midnightblue" stroke="midnightblue" points="432.01,-26.07 421.46,-25.09 429.1,-32.44 432.01,-26.07"/>
</g>
<!-- Node8 -->
<g id="node8" class="node">
<title>Node8</title>
<g id="a_node8"><a xlink:title=" ">
<polygon fill="white" stroke="#bfbfbf" points="443.5,-6 443.5,-25 545.5,-25 545.5,-6 443.5,-6"/>
<text text-anchor="middle" x="494.5" y="-13" font-family="Helvetica,sans-Serif" font-size="10.00">allegro5/allegro.h</text>
</a>
</g>
</g>
<!-- Node4&#45;&gt;Node8 -->
<g id="edge7" class="edge">
<title>Node4&#45;&gt;Node8</title>
<path fill="none" stroke="midnightblue" d="M538.19,-67.48C530.47,-58.46 518.09,-44.02 508.48,-32.81"/>
<polygon fill="midnightblue" stroke="midnightblue" points="510.96,-30.32 501.79,-25.01 505.64,-34.88 510.96,-30.32"/>
</g>
<!-- Node9 -->
<g id="node9" class="node">
<title>Node9</title>
<g id="a_node9"><a xlink:title=" ">
<polygon fill="white" stroke="#bfbfbf" points="563.5,-6 563.5,-25 705.5,-25 705.5,-6 563.5,-6"/>
<text text-anchor="middle" x="634.5" y="-13" font-family="Helvetica,sans-Serif" font-size="10.00">allegro5/allegro_acodec.h</text>
</a>
</g>
</g>
<!-- Node4&#45;&gt;Node9 -->
<g id="edge8" class="edge">
<title>Node4&#45;&gt;Node9</title>
<path fill="none" stroke="midnightblue" d="M558.25,-67.48C572.53,-57.93 595.9,-42.31 613.01,-30.87"/>
<polygon fill="midnightblue" stroke="midnightblue" points="615.4,-33.48 621.77,-25.01 611.51,-27.66 615.4,-33.48"/>
</g>
<!-- Node10 -->
<g id="node10" class="node">
<title>Node10</title>
<g id="a_node10"><a xlink:title=" ">
<polygon fill="white" stroke="#bfbfbf" points="730.5,-6 730.5,-25 864.5,-25 864.5,-6 730.5,-6"/>
<text text-anchor="middle" x="797.5" y="-13" font-family="Helvetica,sans-Serif" font-size="10.00">allegro5/allegro_audio.h</text>
</a>
</g>
</g>
<!-- Node4&#45;&gt;Node10 -->
<g id="edge9" class="edge">
<title>Node4&#45;&gt;Node10</title>
<path fill="none" stroke="midnightblue" d="M580.01,-67.85C624.53,-57.34 702.1,-39.02 751.57,-27.35"/>
<polygon fill="midnightblue" stroke="midnightblue" points="752.44,-30.73 761.37,-25.03 750.83,-23.92 752.44,-30.73"/>
</g>
<!-- Node11 -->
<g id="node11" class="node">
<title>Node11</title>
<g id="a_node11"><a xlink:title=" ">
<polygon fill="white" stroke="#bfbfbf" points="988.5,-6 988.5,-25 1126.5,-25 1126.5,-6 988.5,-6"/>
<text text-anchor="middle" x="1057.5" y="-13" font-family="Helvetica,sans-Serif" font-size="10.00">allegro5/allegro_image.h</text>
</a>
</g>
</g>
<!-- Node4&#45;&gt;Node11 -->
<g id="edge10" class="edge">
<title>Node4&#45;&gt;Node11</title>
<path fill="none" stroke="midnightblue" d="M580.29,-71.96C661.45,-62.52 865.02,-38.87 978.3,-25.7"/>
<polygon fill="midnightblue" stroke="midnightblue" points="978.78,-29.17 988.31,-24.54 977.97,-22.22 978.78,-29.17"/>
</g>
<!-- Node12 -->
<g id="node12" class="node">
<title>Node12</title>
<g id="a_node12"><a xlink:title=" ">
<polygon fill="white" stroke="#bfbfbf" points="1198,-0.5 1198,-30.5 1327,-30.5 1327,-0.5 1198,-0.5"/>
<text text-anchor="start" x="1206" y="-18.5" font-family="Helvetica,sans-Serif" font-size="10.00">allegro5/allegro_native</text>
<text text-anchor="middle" x="1262.5" y="-7.5" font-family="Helvetica,sans-Serif" font-size="10.00">_dialog.h</text>
</a>
</g>
</g>
<!-- Node4&#45;&gt;Node12 -->
<g id="edge11" class="edge">
<title>Node4&#45;&gt;Node12</title>
<path fill="none" stroke="midnightblue" d="M580.12,-73.82C671.17,-67.97 924.83,-51.05 1135.5,-31 1152.49,-29.38 1170.73,-27.43 1187.94,-25.49"/>
<polygon fill="midnightblue" stroke="midnightblue" points="1188.4,-28.96 1197.94,-24.35 1187.61,-22 1188.4,-28.96"/>
</g>
<!-- Node13 -->
<g id="node13" class="node">
<title>Node13</title>
<g id="a_node13"><a xlink:title=" ">
<polygon fill="white" stroke="#bfbfbf" points="1372.5,-6 1372.5,-25 1490.5,-25 1490.5,-6 1372.5,-6"/>
<text text-anchor="middle" x="1431.5" y="-13" font-family="Helvetica,sans-Serif" font-size="10.00">allegro5/allegro_ttf.h</text>
</a>
</g>
</g>
<!-- Node4&#45;&gt;Node13 -->
<g id="edge13" class="edge">
<title>Node4&#45;&gt;Node13</title>
<path fill="none" stroke="midnightblue" d="M580.29,-75.2C691.02,-72.38 1045.11,-61.46 1336.5,-31 1347.79,-29.82 1359.8,-28.24 1371.34,-26.56"/>
<polygon fill="midnightblue" stroke="midnightblue" points="1371.95,-30.01 1381.33,-25.07 1370.92,-23.09 1371.95,-30.01"/>
</g>
<!-- Node14&#45;&gt;Node7 -->
<g id="edge16" class="edge">
<title>Node14&#45;&gt;Node7</title>
<path fill="none" stroke="midnightblue" d="M269.95,-67.42C296.47,-58.91 337.64,-45.14 372.5,-31 373.88,-30.44 375.28,-29.85 376.69,-29.25"/>
<polygon fill="midnightblue" stroke="midnightblue" points="378.24,-32.39 385.94,-25.1 375.38,-26 378.24,-32.39"/>
</g>
<!-- Node15 -->
<g id="node15" class="node">
<title>Node15</title>
<g id="a_node15"><a xlink:title=" ">
<polygon fill="white" stroke="#bfbfbf" points="240,-6 240,-25 287,-25 287,-6 240,-6"/>
<text text-anchor="middle" x="263.5" y="-13" font-family="Helvetica,sans-Serif" font-size="10.00">cmath</text>
</a>
</g>
</g>
<!-- Node14&#45;&gt;Node15 -->
<g id="edge15" class="edge">
<title>Node14&#45;&gt;Node15</title>
<path fill="none" stroke="midnightblue" d="M245.51,-67.48C248.53,-58.9 253.29,-45.43 257.15,-34.48"/>
<polygon fill="midnightblue" stroke="midnightblue" points="260.47,-35.6 260.5,-25.01 253.87,-33.27 260.47,-35.6"/>
</g>
<!-- Node16 -->
<g id="node16" class="node">
<title>Node16</title>
<g id="a_node16"><a xlink:title=" ">
<polygon fill="white" stroke="#bfbfbf" points="175,-6 175,-25 222,-25 222,-6 175,-6"/>
<text text-anchor="middle" x="198.5" y="-13" font-family="Helvetica,sans-Serif" font-size="10.00">vector</text>
</a>
</g>
</g>
<!-- Node14&#45;&gt;Node16 -->
<g id="edge17" class="edge">
<title>Node14&#45;&gt;Node16</title>
<path fill="none" stroke="midnightblue" d="M236.2,-67.48C229.6,-58.55 219.06,-44.31 210.81,-33.14"/>
<polygon fill="midnightblue" stroke="midnightblue" points="213.55,-30.97 204.79,-25.01 207.92,-35.13 213.55,-30.97"/>
</g>
<!-- Node17&#45;&gt;Node3 -->
<g id="edge37" class="edge">
<title>Node17&#45;&gt;Node3</title>
<path fill="none" stroke="midnightblue" d="M784.79,-242.89C643.84,-239.46 254.36,-227.47 204.5,-199 138.47,-161.29 99.33,-73.14 84.89,-34.82"/>
<polygon fill="midnightblue" stroke="midnightblue" points="88.03,-33.24 81.33,-25.03 81.45,-35.63 88.03,-33.24"/>
</g>
<!-- Node17&#45;&gt;Node4 -->
<g id="edge40" class="edge">
<title>Node17&#45;&gt;Node4</title>
<path fill="none" stroke="midnightblue" d="M784.87,-241.15C719.83,-236.48 611.8,-224.96 582.5,-199 552.86,-172.74 546.62,-123.47 545.52,-96.62"/>
<polygon fill="midnightblue" stroke="midnightblue" points="549.02,-96.53 545.31,-86.61 542.02,-96.68 549.02,-96.53"/>
</g>
<!-- Node17&#45;&gt;Node5 -->
<g id="edge25" class="edge">
<title>Node17&#45;&gt;Node5</title>
<path fill="none" stroke="midnightblue" d="M886.12,-243.29C1027.31,-240.91 1418.18,-231.43 1465.5,-199 1522.05,-160.24 1542.4,-74.05 1548.85,-35.63"/>
<polygon fill="midnightblue" stroke="midnightblue" points="1552.37,-35.76 1550.43,-25.34 1545.45,-34.69 1552.37,-35.76"/>
</g>
<!-- Node17&#45;&gt;Node6 -->
<g id="edge28" class="edge">
<title>Node17&#45;&gt;Node6</title>
<path fill="none" stroke="midnightblue" d="M784.88,-241.19C705.02,-236.07 553.98,-223.44 506.5,-199 429.75,-159.48 368.71,-71.7 345.08,-34.12"/>
<polygon fill="midnightblue" stroke="midnightblue" points="347.89,-32 339.66,-25.32 341.93,-35.67 347.89,-32"/>
</g>
<!-- Node17&#45;&gt;Node7 -->
<g id="edge30" class="edge">
<title>Node17&#45;&gt;Node7</title>
<path fill="none" stroke="midnightblue" d="M784.8,-241.03C710.94,-235.92 578.14,-223.56 537.5,-199 471.08,-158.86 427.41,-72.08 410.9,-34.48"/>
<polygon fill="midnightblue" stroke="midnightblue" points="414.11,-33.08 406.97,-25.26 407.67,-35.83 414.11,-33.08"/>
</g>
<!-- Node17&#45;&gt;Node8 -->
<g id="edge31" class="edge">
<title>Node17&#45;&gt;Node8</title>
<path fill="none" stroke="midnightblue" d="M784.83,-240.85C716.21,-235.72 598.3,-223.56 563.5,-199 517.02,-166.19 518.44,-141.32 501.5,-87 496.24,-70.14 494.68,-50.01 494.32,-35.58"/>
<polygon fill="midnightblue" stroke="midnightblue" points="497.82,-35.38 494.25,-25.41 490.82,-35.44 497.82,-35.38"/>
</g>
<!-- Node17&#45;&gt;Node9 -->
<g id="edge32" class="edge">
<title>Node17&#45;&gt;Node9</title>
<path fill="none" stroke="midnightblue" d="M784.79,-240.87C726.59,-236.09 636.45,-224.67 615.5,-199 576.27,-150.93 607.73,-70.36 625.03,-34.58"/>
<polygon fill="midnightblue" stroke="midnightblue" points="628.29,-35.87 629.65,-25.36 622.04,-32.73 628.29,-35.87"/>
</g>
<!-- Node17&#45;&gt;Node10 -->
<g id="edge33" class="edge">
<title>Node17&#45;&gt;Node10</title>
<path fill="none" stroke="midnightblue" d="M886.13,-243.69C1016.14,-242.38 1353.9,-235.45 1387.5,-199 1461.24,-119 1047.22,-51.14 872.49,-26.45"/>
<polygon fill="midnightblue" stroke="midnightblue" points="872.73,-22.95 862.34,-25.03 871.76,-29.89 872.73,-22.95"/>
</g>
<!-- Node17&#45;&gt;Node11 -->
<g id="edge34" class="edge">
<title>Node17&#45;&gt;Node11</title>
<path fill="none" stroke="midnightblue" d="M886.32,-243.83C1019.47,-242.86 1370.63,-236.73 1405.5,-199 1494.87,-102.29 1251.63,-47.67 1126.55,-26.64"/>
<polygon fill="midnightblue" stroke="midnightblue" points="1127.09,-23.18 1116.65,-25.01 1125.95,-30.09 1127.09,-23.18"/>
</g>
<!-- Node17&#45;&gt;Node12 -->
<g id="edge35" class="edge">
<title>Node17&#45;&gt;Node12</title>
<path fill="none" stroke="midnightblue" d="M886.01,-243.88C1022,-243.03 1388.16,-237.2 1425.5,-199 1449.13,-174.83 1444.71,-152.66 1428.5,-123 1404.58,-79.24 1354.14,-50.8 1315.1,-34.41"/>
<polygon fill="midnightblue" stroke="midnightblue" points="1316.03,-31.01 1305.45,-30.5 1313.4,-37.5 1316.03,-31.01"/>
</g>
<!-- Node17&#45;&gt;Node13 -->
<g id="edge38" class="edge">
<title>Node17&#45;&gt;Node13</title>
<path fill="none" stroke="midnightblue" d="M886.03,-244.08C1025.38,-243.79 1407.4,-239.29 1445.5,-199 1488.23,-153.82 1457.45,-71.08 1440.58,-34.6"/>
<polygon fill="midnightblue" stroke="midnightblue" points="1443.56,-32.72 1436.07,-25.22 1437.25,-35.75 1443.56,-32.72"/>
</g>
<!-- Node17&#45;&gt;Node14 -->
<g id="edge41" class="edge">
<title>Node17&#45;&gt;Node14</title>
<path fill="none" stroke="midnightblue" d="M784.6,-242.85C664.19,-239.66 364.86,-228.88 269.5,-199 222.37,-184.23 198.1,-185.83 173.5,-143 161.13,-121.46 187.34,-102.72 210.93,-90.97"/>
<polygon fill="midnightblue" stroke="midnightblue" points="212.53,-94.09 220.1,-86.67 209.56,-87.75 212.53,-94.09"/>
</g>
<!-- Node18 -->
<g id="node18" class="node">
<title>Node18</title>
<g id="a_node18"><a xlink:title=" ">
<polygon fill="white" stroke="#bfbfbf" points="625,-179.5 625,-198.5 676,-198.5 676,-179.5 625,-179.5"/>
<text text-anchor="middle" x="650.5" y="-186.5" font-family="Helvetica,sans-Serif" font-size="10.00">math.h</text>
</a>
</g>
</g>
<!-- Node17&#45;&gt;Node18 -->
<g id="edge22" class="edge">
<title>Node17&#45;&gt;Node18</title>
<path fill="none" stroke="midnightblue" d="M806.19,-235.44C773.54,-225.92 720.8,-210.52 685.88,-200.33"/>
<polygon fill="midnightblue" stroke="midnightblue" points="686.68,-196.92 676.1,-197.47 684.72,-203.63 686.68,-196.92"/>
</g>
<!-- Node19 -->
<g id="node19" class="node">
<title>Node19</title>
<g id="a_node19"><a xlink:title=" ">
<polygon fill="white" stroke="#bfbfbf" points="694.5,-179.5 694.5,-198.5 758.5,-198.5 758.5,-179.5 694.5,-179.5"/>
<text text-anchor="middle" x="726.5" y="-186.5" font-family="Helvetica,sans-Serif" font-size="10.00">algorithm</text>
</a>
</g>
</g>
<!-- Node17&#45;&gt;Node19 -->
<g id="edge23" class="edge">
<title>Node17&#45;&gt;Node19</title>
<path fill="none" stroke="midnightblue" d="M817.99,-235.32C800.43,-226.62 773.17,-213.12 752.97,-203.11"/>
<polygon fill="midnightblue" stroke="midnightblue" points="754.48,-199.96 743.97,-198.65 751.38,-206.23 754.48,-199.96"/>
</g>
<!-- Node20 -->
<g id="node20" class="node">
<title>Node20</title>
<g id="a_node20"><a xlink:title=" ">
<polygon fill="white" stroke="#bfbfbf" points="777,-179.5 777,-198.5 832,-198.5 832,-179.5 777,-179.5"/>
<text text-anchor="middle" x="804.5" y="-186.5" font-family="Helvetica,sans-Serif" font-size="10.00">fstream</text>
</a>
</g>
</g>
<!-- Node17&#45;&gt;Node20 -->
<g id="edge24" class="edge">
<title>Node17&#45;&gt;Node20</title>
<path fill="none" stroke="midnightblue" d="M830.38,-235.08C826.09,-227.61 819.84,-216.72 814.56,-207.52"/>
<polygon fill="midnightblue" stroke="midnightblue" points="817.54,-205.68 809.52,-198.75 811.47,-209.17 817.54,-205.68"/>
</g>
<!-- Node21 -->
<g id="node21" class="node">
<title>Node21</title>
<g id="a_node21"><a xlink:title=" ">
<polygon fill="white" stroke="#bfbfbf" points="850.5,-179.5 850.5,-198.5 882.5,-198.5 882.5,-179.5 850.5,-179.5"/>
<text text-anchor="middle" x="866.5" y="-186.5" font-family="Helvetica,sans-Serif" font-size="10.00">list</text>
</a>
</g>
</g>
<!-- Node17&#45;&gt;Node21 -->
<g id="edge26" class="edge">
<title>Node17&#45;&gt;Node21</title>
<path fill="none" stroke="midnightblue" d="M840.62,-235.08C844.91,-227.61 851.16,-216.72 856.44,-207.52"/>
<polygon fill="midnightblue" stroke="midnightblue" points="859.53,-209.17 861.48,-198.75 853.46,-205.68 859.53,-209.17"/>
</g>
<!-- Node22 -->
<g id="node22" class="node">
<title>Node22</title>
<g id="a_node22"><a xlink:title=" ">
<polygon fill="white" stroke="#bfbfbf" points="900.5,-179.5 900.5,-198.5 938.5,-198.5 938.5,-179.5 900.5,-179.5"/>
<text text-anchor="middle" x="919.5" y="-186.5" font-family="Helvetica,sans-Serif" font-size="10.00">map</text>
</a>
</g>
</g>
<!-- Node17&#45;&gt;Node22 -->
<g id="edge27" class="edge">
<title>Node17&#45;&gt;Node22</title>
<path fill="none" stroke="midnightblue" d="M849,-235.32C862.1,-226.9 882.21,-213.97 897.61,-204.07"/>
<polygon fill="midnightblue" stroke="midnightblue" points="899.52,-207.01 906.04,-198.65 895.73,-201.12 899.52,-207.01"/>
</g>
<!-- Node23 -->
<g id="node23" class="node">
<title>Node23</title>
<g id="a_node23"><a xlink:title=" ">
<polygon fill="white" stroke="#bfbfbf" points="956.5,-179.5 956.5,-198.5 1012.5,-198.5 1012.5,-179.5 956.5,-179.5"/>
<text text-anchor="middle" x="984.5" y="-186.5" font-family="Helvetica,sans-Serif" font-size="10.00">sstream</text>
</a>
</g>
</g>
<!-- Node17&#45;&gt;Node23 -->
<g id="edge29" class="edge">
<title>Node17&#45;&gt;Node23</title>
<path fill="none" stroke="midnightblue" d="M859.11,-235.44C883.96,-226.44 923.27,-212.19 951.25,-202.05"/>
<polygon fill="midnightblue" stroke="midnightblue" points="952.79,-205.21 961,-198.52 950.41,-198.63 952.79,-205.21"/>
</g>
<!-- Node24 -->
<g id="node24" class="node">
<title>Node24</title>
<g id="a_node24"><a xlink:title=" ">
<polygon fill="white" stroke="#bfbfbf" points="1030.5,-179.5 1030.5,-198.5 1170.5,-198.5 1170.5,-179.5 1030.5,-179.5"/>
<text text-anchor="middle" x="1100.5" y="-186.5" font-family="Helvetica,sans-Serif" font-size="10.00">allegro5/allegro_physfs.h</text>
</a>
</g>
</g>
<!-- Node17&#45;&gt;Node24 -->
<g id="edge36" class="edge">
<title>Node17&#45;&gt;Node24</title>
<path fill="none" stroke="midnightblue" d="M877.49,-235.44C923.91,-225.98 998.73,-210.74 1048.74,-200.55"/>
<polygon fill="midnightblue" stroke="midnightblue" points="1049.61,-203.94 1058.71,-198.52 1048.21,-197.08 1049.61,-203.94"/>
</g>
<!-- Node25 -->
<g id="node25" class="node">
<title>Node25</title>
<g id="a_node25"><a xlink:title=" ">
<polygon fill="white" stroke="#bfbfbf" points="1189,-179.5 1189,-198.5 1292,-198.5 1292,-179.5 1189,-179.5"/>
<text text-anchor="middle" x="1240.5" y="-186.5" font-family="Helvetica,sans-Serif" font-size="10.00">allegro5/bitmap.h</text>
</a>
</g>
</g>
<!-- Node17&#45;&gt;Node25 -->
<g id="edge39" class="edge">
<title>Node17&#45;&gt;Node25</title>
<path fill="none" stroke="midnightblue" d="M886.24,-237.63C951.42,-229.38 1068.3,-214.4 1178.93,-199.06"/>
<polygon fill="midnightblue" stroke="midnightblue" points="1179.5,-202.51 1188.92,-197.67 1178.54,-195.58 1179.5,-202.51"/>
</g>
<!-- Node26 -->
<g id="node26" class="node">
<title>Node26</title>
<g id="a_node26"><a xlink:href="player_8hpp.html" target="_top" xlink:title="Modela um jogador e operações de ranking.">
<polygon fill="white" stroke="black" points="1310.5,-179.5 1310.5,-198.5 1378.5,-198.5 1378.5,-179.5 1310.5,-179.5"/>
<text text-anchor="middle" x="1344.5" y="-186.5" font-family="Helvetica,sans-Serif" font-size="10.00">player.hpp</text>
</a>
</g>
</g>
<!-- Node17&#45;&gt;Node26 -->
<g id="edge42" class="edge">
<title>Node17&#45;&gt;Node26</title>
<path fill="none" stroke="midnightblue" d="M886.33,-240.55C970.99,-234.74 1145.66,-221.39 1292.5,-199 1295.1,-198.6 1297.77,-198.15 1300.48,-197.67"/>
<polygon fill="midnightblue" stroke="midnightblue" points="1301.18,-201.1 1310.35,-195.8 1299.88,-194.22 1301.18,-201.1"/>
</g>
<!-- Node27 -->
<g id="node27" class="node">
<title>Node27</title>
<g id="a_node27"><a xlink:href="state_8hpp.html" target="_top" xlink:title="Interface base para estados da máquina de estados do jogo.">
<polygon fill="white" stroke="black" points="278.5,-179.5 278.5,-198.5 340.5,-198.5 340.5,-179.5 278.5,-179.5"/>
<text text-anchor="middle" x="309.5" y="-186.5" font-family="Helvetica,sans-Serif" font-size="10.00">state.hpp</text>
</a>
</g>
</g>
<!-- Node17&#45;&gt;Node27 -->
<g id="edge44" class="edge">
<title>Node17&#45;&gt;Node27</title>
<path fill="none" stroke="midnightblue" d="M784.74,-241C696.79,-235.4 510.52,-221.84 354.5,-199 353.4,-198.84 352.28,-198.67 351.15,-198.49"/>
<polygon fill="midnightblue" stroke="midnightblue" points="351.35,-194.97 340.9,-196.71 350.15,-201.87 351.35,-194.97"/>
</g>
<!-- Node26&#45;&gt;Node17 -->
<g id="edge43" class="edge">
<title>Node26&#45;&gt;Node17</title>
<path fill="none" stroke="midnightblue" d="M1313.24,-198.57C1312.32,-198.72 1311.4,-198.86 1310.5,-199 1162.92,-221.5 987.23,-234.88 896.41,-240.64"/>
<polygon fill="midnightblue" stroke="midnightblue" points="896.06,-237.16 886.29,-241.27 896.49,-244.14 896.06,-237.16"/>
</g>
<!-- Node27&#45;&gt;Node2 -->
<g id="edge47" class="edge">
<title>Node27&#45;&gt;Node2</title>
<path fill="none" stroke="midnightblue" d="M298.74,-179.32C288.73,-171.26 273.61,-159.08 261.57,-149.37"/>
<polygon fill="midnightblue" stroke="midnightblue" points="263.44,-146.38 253.46,-142.83 259.05,-151.83 263.44,-146.38"/>
</g>
<!-- Node27&#45;&gt;Node8 -->
<g id="edge45" class="edge">
<title>Node27&#45;&gt;Node8</title>
<path fill="none" stroke="midnightblue" d="M318.67,-179.5C347.96,-152.35 439.49,-67.5 477.59,-32.17"/>
<polygon fill="midnightblue" stroke="midnightblue" points="480.32,-34.42 485.27,-25.06 475.56,-29.29 480.32,-34.42"/>
</g>
<!-- Node27&#45;&gt;Node14 -->
<g id="edge46" class="edge">
<title>Node27&#45;&gt;Node14</title>
<path fill="none" stroke="midnightblue" d="M312.14,-179.38C315.62,-166.31 320.22,-141.09 310.5,-123 302.88,-108.82 288.6,-98.35 275.09,-91.1"/>
<polygon fill="midnightblue" stroke="midnightblue" points="276.47,-87.88 265.95,-86.59 273.37,-94.16 276.47,-87.88"/>
</g>
</g>
</svg>
