<?xml version="1.0" encoding="UTF-8" standalone="no"?>
<!DOCTYPE svg PUBLIC "-//W3C//DTD SVG 1.1//EN"
 "http://www.w3.org/Graphics/SVG/1.1/DTD/svg11.dtd">
<!-- Generated by graphviz version 2.43.0 (0)
 -->
<!-- Title: include/motion.hpp Pages: 1 -->
<svg width="1668pt" height="453pt"
 viewBox="0.00 0.00 1668.44 453.00" xmlns="http://www.w3.org/2000/svg" xmlns:xlink="http://www.w3.org/1999/xlink">
<g id="graph0" class="graph" transform="scale(1 1) rotate(0) translate(4 449)">
<title>include/motion.hpp</title>
<polygon fill="white" stroke="transparent" points="-4,4 -4,-449 1664.44,-449 1664.44,4 -4,4"/>
<!-- Node1 -->
<g id="node1" class="node">
<title>Node1</title>
<g id="a_node1"><a xlink:title="Gerencia efeitos de parallax e animações de cenário.">
<polygon fill="#bfbfbf" stroke="black" points="653,-425.5 653,-444.5 763,-444.5 763,-425.5 653,-425.5"/>
<text text-anchor="middle" x="708" y="-432.5" font-family="Helvetica,sans-Serif" font-size="10.00">include/motion.hpp</text>
</a>
</g>
</g>
<!-- Node2 -->
<g id="node2" class="node">
<title>Node2</title>
<g id="a_node2"><a xlink:href="state_8hpp.html" target="_top" xlink:title="Interface base para estados da máquina de estados do jogo.">
<polygon fill="white" stroke="black" points="657.5,-369.5 657.5,-388.5 758.5,-388.5 758.5,-369.5 657.5,-369.5"/>
<text text-anchor="middle" x="708" y="-376.5" font-family="Helvetica,sans-Serif" font-size="10.00">include/state.hpp</text>
</a>
</g>
</g>
<!-- Node1&#45;&gt;Node2 -->
<g id="edge1" class="edge">
<title>Node1&#45;&gt;Node2</title>
<path fill="none" stroke="midnightblue" d="M708,-414.8C708,-405.91 708,-395.78 708,-388.75"/>
<polygon fill="midnightblue" stroke="midnightblue" points="704.5,-415.08 708,-425.08 711.5,-415.08 704.5,-415.08"/>
</g>
<!-- Node26 -->
<g id="node26" class="node">
<title>Node26</title>
<g id="a_node26"><a xlink:href="main__menu_8hpp.html" target="_top" xlink:title="Definição da classe MainMenu, o estado que representa o menu principal do jogo.">
<polygon fill="white" stroke="black" points="194.5,-246.5 194.5,-276.5 307.5,-276.5 307.5,-246.5 194.5,-246.5"/>
<text text-anchor="start" x="202.5" y="-264.5" font-family="Helvetica,sans-Serif" font-size="10.00">include/states/main</text>
<text text-anchor="middle" x="251" y="-253.5" font-family="Helvetica,sans-Serif" font-size="10.00">_menu.hpp</text>
</a>
</g>
</g>
<!-- Node1&#45;&gt;Node26 -->
<g id="edge67" class="edge">
<title>Node1&#45;&gt;Node26</title>
<path fill="none" stroke="midnightblue" d="M675.77,-421.9C593.49,-391.03 376.02,-309.42 288.39,-276.53"/>
<polygon fill="midnightblue" stroke="midnightblue" points="674.75,-425.26 685.34,-425.5 677.2,-418.7 674.75,-425.26"/>
</g>
<!-- Node30 -->
<g id="node30" class="node">
<title>Node30</title>
<g id="a_node30"><a xlink:href="motion_8cpp.html" target="_top" xlink:title="Implementação da classe Motion (parallax e clima).">
<polygon fill="white" stroke="black" points="1536.5,-252 1536.5,-271 1625.5,-271 1625.5,-252 1536.5,-252"/>
<text text-anchor="middle" x="1581" y="-259" font-family="Helvetica,sans-Serif" font-size="10.00">src/motion.cpp</text>
</a>
</g>
</g>
<!-- Node1&#45;&gt;Node30 -->
<g id="edge68" class="edge">
<title>Node1&#45;&gt;Node30</title>
<path fill="none" stroke="midnightblue" d="M766.88,-423.7C901.2,-399.96 1240.43,-338.71 1522,-277 1530.24,-275.19 1539.1,-273.1 1547.37,-271.08"/>
<polygon fill="midnightblue" stroke="midnightblue" points="766.04,-420.29 756.8,-425.47 767.26,-427.18 766.04,-420.29"/>
</g>
<!-- Node3 -->
<g id="node3" class="node">
<title>Node3</title>
<g id="a_node3"><a xlink:href="allegro__interface_8hpp.html" target="_top" xlink:title="Declara o controlador que integra Allegro e a máquina de estados.">
<polygon fill="white" stroke="black" points="1319,-56.5 1319,-75.5 1477,-75.5 1477,-56.5 1319,-56.5"/>
<text text-anchor="middle" x="1398" y="-63.5" font-family="Helvetica,sans-Serif" font-size="10.00">include/allegro_interface.hpp</text>
</a>
</g>
</g>
<!-- Node2&#45;&gt;Node3 -->
<g id="edge2" class="edge">
<title>Node2&#45;&gt;Node3</title>
<path fill="none" stroke="midnightblue" d="M768.7,-376.99C977.59,-372.74 1654,-352.04 1654,-262.5 1654,-262.5 1654,-262.5 1654,-193.5 1654,-144.05 1498.53,-94.85 1429.9,-75.54"/>
<polygon fill="midnightblue" stroke="midnightblue" points="768.46,-373.5 758.53,-377.2 768.59,-380.5 768.46,-373.5"/>
</g>
<!-- Node4 -->
<g id="node4" class="node">
<title>Node4</title>
<g id="a_node4"><a xlink:href="allegro__interface_8cpp.html" target="_top" xlink:title="Implementação do controlador principal que integra Allegro às lógicas de estado do jogo.">
<polygon fill="white" stroke="black" points="817.5,-0.5 817.5,-19.5 954.5,-19.5 954.5,-0.5 817.5,-0.5"/>
<text text-anchor="middle" x="886" y="-7.5" font-family="Helvetica,sans-Serif" font-size="10.00">src/allegro_interface.cpp</text>
</a>
</g>
</g>
<!-- Node2&#45;&gt;Node4 -->
<g id="edge65" class="edge">
<title>Node2&#45;&gt;Node4</title>
<path fill="none" stroke="midnightblue" d="M768.79,-375.98C965.61,-368.82 1576.12,-341.53 1634,-277 1712.93,-189 1599.33,-89.63 1486,-56 1388.17,-26.97 1090.2,-16.04 954.55,-12.49"/>
<polygon fill="midnightblue" stroke="midnightblue" points="768.49,-372.49 758.63,-376.34 768.74,-379.48 768.49,-372.49"/>
</g>
<!-- Node6 -->
<g id="node6" class="node">
<title>Node6</title>
<g id="a_node6"><a xlink:href="init_8hpp.html" target="_top" xlink:title="Declara funções de inicialização e finalização do Allegro.">
<polygon fill="white" stroke="black" points="864,-313.5 864,-332.5 956,-332.5 956,-313.5 864,-313.5"/>
<text text-anchor="middle" x="910" y="-320.5" font-family="Helvetica,sans-Serif" font-size="10.00">include/init.hpp</text>
</a>
</g>
</g>
<!-- Node2&#45;&gt;Node6 -->
<g id="edge5" class="edge">
<title>Node2&#45;&gt;Node6</title>
<path fill="none" stroke="midnightblue" d="M749.79,-366.83C787.93,-356.63 843.48,-341.78 878.14,-332.52"/>
<polygon fill="midnightblue" stroke="midnightblue" points="748.76,-363.48 740.01,-369.44 750.57,-370.24 748.76,-363.48"/>
</g>
<!-- Node8 -->
<g id="node8" class="node">
<title>Node8</title>
<g id="a_node8"><a xlink:href="play_8hpp.html" target="_top" xlink:title="Declaracao da classe Play, responsavel pelo estado de jogo ativo.">
<polygon fill="white" stroke="black" points="164,-56.5 164,-75.5 292,-75.5 292,-56.5 164,-56.5"/>
<text text-anchor="middle" x="228" y="-63.5" font-family="Helvetica,sans-Serif" font-size="10.00">include/states/play.hpp</text>
</a>
</g>
</g>
<!-- Node2&#45;&gt;Node8 -->
<g id="edge63" class="edge">
<title>Node2&#45;&gt;Node8</title>
<path fill="none" stroke="midnightblue" d="M647.24,-374.46C475.69,-363.66 0,-327.83 0,-262.5 0,-262.5 0,-262.5 0,-193.5 0,-118.13 96.45,-87.29 163.88,-74.94"/>
<polygon fill="midnightblue" stroke="midnightblue" points="647.17,-377.96 657.37,-375.09 647.6,-370.98 647.17,-377.96"/>
</g>
<!-- Node20 -->
<g id="node20" class="node">
<title>Node20</title>
<g id="a_node20"><a xlink:href="difficulty__menu_8hpp.html" target="_top" xlink:title="Definição da classe DifficultyMenu, que representa o estado do menu de seleção de dificuldade.">
<polygon fill="white" stroke="black" points="364.5,-246.5 364.5,-276.5 495.5,-276.5 495.5,-246.5 364.5,-246.5"/>
<text text-anchor="start" x="372.5" y="-264.5" font-family="Helvetica,sans-Serif" font-size="10.00">include/states/difficulty</text>
<text text-anchor="middle" x="430" y="-253.5" font-family="Helvetica,sans-Serif" font-size="10.00">_menu.hpp</text>
</a>
</g>
</g>
<!-- Node2&#45;&gt;Node20 -->
<g id="edge59" class="edge">
<title>Node2&#45;&gt;Node20</title>
<path fill="none" stroke="midnightblue" d="M677.7,-365.41C625.38,-343.67 518.46,-299.25 463.81,-276.55"/>
<polygon fill="midnightblue" stroke="midnightblue" points="676.53,-368.71 687.1,-369.32 679.21,-362.25 676.53,-368.71"/>
</g>
<!-- Node23 -->
<g id="node23" class="node">
<title>Node23</title>
<g id="a_node23"><a xlink:href="leaderboard__menu_8hpp.html" target="_top" xlink:title="Definição da classe LeaderboardMenu, que representa o estado da tela de ranking.">
<polygon fill="white" stroke="black" points="514,-246.5 514,-276.5 660,-276.5 660,-246.5 514,-246.5"/>
<text text-anchor="start" x="522" y="-264.5" font-family="Helvetica,sans-Serif" font-size="10.00">include/states/leaderboard</text>
<text text-anchor="middle" x="587" y="-253.5" font-family="Helvetica,sans-Serif" font-size="10.00">_menu.hpp</text>
</a>
</g>
</g>
<!-- Node2&#45;&gt;Node23 -->
<g id="edge60" class="edge">
<title>Node2&#45;&gt;Node23</title>
<path fill="none" stroke="midnightblue" d="M691.39,-362.14C667.64,-339.47 624.37,-298.17 601.71,-276.55"/>
<polygon fill="midnightblue" stroke="midnightblue" points="689.26,-364.95 698.91,-369.32 694.09,-359.88 689.26,-364.95"/>
</g>
<!-- Node25 -->
<g id="node25" class="node">
<title>Node25</title>
<g id="a_node25"><a xlink:href="load__game_8hpp.html" target="_top" xlink:title="Definição da classe LoadName, que representa o estado de inserção de nome.">
<polygon fill="white" stroke="black" points="28.5,-246.5 28.5,-276.5 137.5,-276.5 137.5,-246.5 28.5,-246.5"/>
<text text-anchor="start" x="36.5" y="-264.5" font-family="Helvetica,sans-Serif" font-size="10.00">include/states/load</text>
<text text-anchor="middle" x="83" y="-253.5" font-family="Helvetica,sans-Serif" font-size="10.00">_game.hpp</text>
</a>
</g>
</g>
<!-- Node2&#45;&gt;Node25 -->
<g id="edge61" class="edge">
<title>Node2&#45;&gt;Node25</title>
<path fill="none" stroke="midnightblue" d="M647.19,-367.69C594.67,-358.72 516.78,-345.28 449,-333 316.82,-309.06 283.73,-303.26 152,-277 147.32,-276.07 142.46,-275.08 137.59,-274.08"/>
<polygon fill="midnightblue" stroke="midnightblue" points="646.89,-371.19 657.34,-369.42 648.07,-364.29 646.89,-371.19"/>
</g>
<!-- Node2&#45;&gt;Node26 -->
<g id="edge62" class="edge">
<title>Node2&#45;&gt;Node26</title>
<path fill="none" stroke="midnightblue" d="M664.09,-366.9C580.51,-345.78 398.69,-299.83 306.69,-276.58"/>
<polygon fill="midnightblue" stroke="midnightblue" points="663.47,-370.36 674.02,-369.41 665.19,-363.57 663.47,-370.36"/>
</g>
<!-- Node28 -->
<g id="node28" class="node">
<title>Node28</title>
<g id="a_node28"><a xlink:href="settings__menu_8hpp.html" target="_top" xlink:title="Definição da classe SettingsMenu, que representa o estado do menu de configurações.">
<polygon fill="white" stroke="black" points="678.5,-246.5 678.5,-276.5 805.5,-276.5 805.5,-246.5 678.5,-246.5"/>
<text text-anchor="start" x="686.5" y="-264.5" font-family="Helvetica,sans-Serif" font-size="10.00">include/states/settings</text>
<text text-anchor="middle" x="742" y="-253.5" font-family="Helvetica,sans-Serif" font-size="10.00">_menu.hpp</text>
</a>
</g>
</g>
<!-- Node2&#45;&gt;Node28 -->
<g id="edge64" class="edge">
<title>Node2&#45;&gt;Node28</title>
<path fill="none" stroke="midnightblue" d="M713.39,-359.7C720.18,-336.61 731.72,-297.41 737.87,-276.55"/>
<polygon fill="midnightblue" stroke="midnightblue" points="710.02,-358.74 710.56,-369.32 716.74,-360.71 710.02,-358.74"/>
</g>
<!-- Node31 -->
<g id="node31" class="node">
<title>Node31</title>
<g id="a_node31"><a xlink:href="state_8cpp.html" target="_top" xlink:title="Implementação base de State para máquina de estados do jogo.">
<polygon fill="white" stroke="black" points="974.5,-313.5 974.5,-332.5 1053.5,-332.5 1053.5,-313.5 974.5,-313.5"/>
<text text-anchor="middle" x="1014" y="-320.5" font-family="Helvetica,sans-Serif" font-size="10.00">src/state.cpp</text>
</a>
</g>
</g>
<!-- Node2&#45;&gt;Node31 -->
<g id="edge66" class="edge">
<title>Node2&#45;&gt;Node31</title>
<path fill="none" stroke="midnightblue" d="M767.36,-367.75C819.46,-358.72 897.29,-345.15 965,-333 968.06,-332.45 971.24,-331.88 974.42,-331.3"/>
<polygon fill="midnightblue" stroke="midnightblue" points="766.55,-364.34 757.29,-369.49 767.74,-371.24 766.55,-364.34"/>
</g>
<!-- Node3&#45;&gt;Node4 -->
<g id="edge3" class="edge">
<title>Node3&#45;&gt;Node4</title>
<path fill="none" stroke="midnightblue" d="M1308.68,-55.58C1207.86,-44.95 1046.03,-27.88 954.63,-18.24"/>
<polygon fill="midnightblue" stroke="midnightblue" points="1308.53,-59.08 1318.84,-56.65 1309.26,-52.12 1308.53,-59.08"/>
</g>
<!-- Node5 -->
<g id="node5" class="node">
<title>Node5</title>
<g id="a_node5"><a xlink:href="main_8cpp.html" target="_top" xlink:title="Ponto de entrada do jogo Flappy Bird.">
<polygon fill="white" stroke="black" points="1430.5,-0.5 1430.5,-19.5 1509.5,-19.5 1509.5,-0.5 1430.5,-0.5"/>
<text text-anchor="middle" x="1470" y="-7.5" font-family="Helvetica,sans-Serif" font-size="10.00">src/main.cpp</text>
</a>
</g>
</g>
<!-- Node3&#45;&gt;Node5 -->
<g id="edge4" class="edge">
<title>Node3&#45;&gt;Node5</title>
<path fill="none" stroke="midnightblue" d="M1417.87,-50.1C1430.82,-40.38 1447.3,-28.03 1458.22,-19.83"/>
<polygon fill="midnightblue" stroke="midnightblue" points="1415.47,-47.52 1409.57,-56.32 1419.67,-53.12 1415.47,-47.52"/>
</g>
<!-- Node6&#45;&gt;Node3 -->
<g id="edge6" class="edge">
<title>Node6&#45;&gt;Node3</title>
<path fill="none" stroke="midnightblue" d="M966.18,-313.09C1084.91,-302 1347.68,-326.7 1437,-277 1479.55,-253.32 1501.92,-225.02 1486,-179 1470.32,-133.66 1427.87,-92.72 1408.23,-75.55"/>
<polygon fill="midnightblue" stroke="midnightblue" points="965.75,-309.61 956.17,-314.15 966.49,-316.57 965.75,-309.61"/>
</g>
<!-- Node6&#45;&gt;Node4 -->
<g id="edge49" class="edge">
<title>Node6&#45;&gt;Node4</title>
<path fill="none" stroke="midnightblue" d="M908.55,-303.2C903.97,-243.83 889.92,-61.83 886.68,-19.75"/>
<polygon fill="midnightblue" stroke="midnightblue" points="905.07,-303.66 909.33,-313.36 912.05,-303.12 905.07,-303.66"/>
</g>
<!-- Node6&#45;&gt;Node5 -->
<g id="edge51" class="edge">
<title>Node6&#45;&gt;Node5</title>
<path fill="none" stroke="midnightblue" d="M966.35,-313.19C1054.99,-306.58 1426.42,-307.37 1471,-277 1556.49,-218.75 1491.61,-58.78 1474.05,-19.7"/>
<polygon fill="midnightblue" stroke="midnightblue" points="965.81,-309.73 956.17,-314.13 966.45,-316.7 965.81,-309.73"/>
</g>
<!-- Node7 -->
<g id="node7" class="node">
<title>Node7</title>
<g id="a_node7"><a xlink:href="flappy__bird__controller_8hpp.html" target="_top" xlink:title="Declaracao da classe FlappyBird (controlador principal).">
<polygon fill="white" stroke="black" points="1121.5,-112.5 1121.5,-142.5 1230.5,-142.5 1230.5,-112.5 1121.5,-112.5"/>
<text text-anchor="start" x="1129.5" y="-130.5" font-family="Helvetica,sans-Serif" font-size="10.00">include/flappy_bird</text>
<text text-anchor="middle" x="1176" y="-119.5" font-family="Helvetica,sans-Serif" font-size="10.00">_controller.hpp</text>
</a>
</g>
</g>
<!-- Node6&#45;&gt;Node7 -->
<g id="edge7" class="edge">
<title>Node6&#45;&gt;Node7</title>
<path fill="none" stroke="midnightblue" d="M966.29,-313.07C1030.53,-305.89 1161.43,-313.94 1193,-277 1226.04,-238.33 1198.52,-171.83 1183.81,-142.78"/>
<polygon fill="midnightblue" stroke="midnightblue" points="965.66,-309.62 956.21,-314.42 966.59,-316.56 965.66,-309.62"/>
</g>
<!-- Node9 -->
<g id="node9" class="node">
<title>Node9</title>
<g id="a_node9"><a xlink:href="load__game_8cpp.html" target="_top" xlink:title="Implementação da classe LoadName, responsável pela tela de inserção de nome do jogador.">
<polygon fill="white" stroke="black" points="46.5,-0.5 46.5,-19.5 187.5,-19.5 187.5,-0.5 46.5,-0.5"/>
<text text-anchor="middle" x="117" y="-7.5" font-family="Helvetica,sans-Serif" font-size="10.00">src/states/load_game.cpp</text>
</a>
</g>
</g>
<!-- Node6&#45;&gt;Node9 -->
<g id="edge56" class="edge">
<title>Node6&#45;&gt;Node9</title>
<path fill="none" stroke="midnightblue" d="M853.72,-322.25C692.31,-322.46 236.07,-319.26 185,-277 103.11,-209.24 112.29,-57.69 116.02,-19.74"/>
<polygon fill="midnightblue" stroke="midnightblue" points="853.93,-325.75 863.92,-322.23 853.92,-318.75 853.93,-325.75"/>
</g>
<!-- Node12 -->
<g id="node12" class="node">
<title>Node12</title>
<g id="a_node12"><a xlink:href="game__object_8hpp.html" target="_top" xlink:title="Classe base abstrata para todos os objetos renderizáveis.">
<polygon fill="white" stroke="black" points="938.5,-252 938.5,-271 1077.5,-271 1077.5,-252 938.5,-252"/>
<text text-anchor="middle" x="1008" y="-259" font-family="Helvetica,sans-Serif" font-size="10.00">include/game_object.hpp</text>
</a>
</g>
</g>
<!-- Node6&#45;&gt;Node12 -->
<g id="edge14" class="edge">
<title>Node6&#45;&gt;Node12</title>
<path fill="none" stroke="midnightblue" d="M932.66,-308.24C951.59,-296.75 977.99,-280.72 993.99,-271.01"/>
<polygon fill="midnightblue" stroke="midnightblue" points="930.77,-305.29 924.04,-313.48 934.41,-311.28 930.77,-305.29"/>
</g>
<!-- Node15 -->
<g id="node15" class="node">
<title>Node15</title>
<g id="a_node15"><a xlink:href="pipe_8hpp.html" target="_top" xlink:title="Declaration of pipe&#45;related classes (Pipe, PipePair, PipeList).">
<polygon fill="white" stroke="black" points="1239.5,-185 1239.5,-204 1336.5,-204 1336.5,-185 1239.5,-185"/>
<text text-anchor="middle" x="1288" y="-192" font-family="Helvetica,sans-Serif" font-size="10.00">include/pipe.hpp</text>
</a>
</g>
</g>
<!-- Node6&#45;&gt;Node15 -->
<g id="edge24" class="edge">
<title>Node6&#45;&gt;Node15</title>
<path fill="none" stroke="midnightblue" d="M966.34,-313.03C1042.08,-304.65 1196.76,-311.5 1246,-277 1271.42,-259.19 1282.48,-221.22 1286.31,-204.14"/>
<polygon fill="midnightblue" stroke="midnightblue" points="965.67,-309.59 956.2,-314.32 966.56,-316.53 965.67,-309.59"/>
</g>
<!-- Node18 -->
<g id="node18" class="node">
<title>Node18</title>
<g id="a_node18"><a xlink:href="player_8hpp.html" target="_top" xlink:title="Modela um jogador e operações de ranking.">
<polygon fill="white" stroke="black" points="1298,-252 1298,-271 1404,-271 1404,-252 1298,-252"/>
<text text-anchor="middle" x="1351" y="-259" font-family="Helvetica,sans-Serif" font-size="10.00">include/player.hpp</text>
</a>
</g>
</g>
<!-- Node6&#45;&gt;Node18 -->
<g id="edge25" class="edge">
<title>Node6&#45;&gt;Node18</title>
<path fill="none" stroke="midnightblue" d="M962.52,-312.13C1099.12,-293.77 1137.51,-299.58 1275,-277 1284.98,-275.36 1295.72,-273.21 1305.95,-271.07"/>
<polygon fill="midnightblue" stroke="midnightblue" points="961.95,-308.67 952.52,-313.49 962.9,-315.61 961.95,-308.67"/>
</g>
<!-- Node19 -->
<g id="node19" class="node">
<title>Node19</title>
<g id="a_node19"><a xlink:href="player_8cpp.html" target="_top" xlink:title="Implementação da classe Player e utilidades de ranking.">
<polygon fill="white" stroke="black" points="1393,-185 1393,-204 1477,-204 1477,-185 1393,-185"/>
<text text-anchor="middle" x="1435" y="-192" font-family="Helvetica,sans-Serif" font-size="10.00">src/player.cpp</text>
</a>
</g>
</g>
<!-- Node6&#45;&gt;Node19 -->
<g id="edge53" class="edge">
<title>Node6&#45;&gt;Node19</title>
<path fill="none" stroke="midnightblue" d="M966.31,-313.21C1047.62,-307.07 1376.4,-307.43 1413,-277 1434.97,-258.73 1436.24,-221 1435.59,-204.06"/>
<polygon fill="midnightblue" stroke="midnightblue" points="965.8,-309.74 956.17,-314.16 966.46,-316.71 965.8,-309.74"/>
</g>
<!-- Node6&#45;&gt;Node20 -->
<g id="edge29" class="edge">
<title>Node6&#45;&gt;Node20</title>
<path fill="none" stroke="midnightblue" d="M853.85,-317.2C775.49,-310.17 629,-295.84 505,-277 501.98,-276.54 498.91,-276.05 495.8,-275.53"/>
<polygon fill="midnightblue" stroke="midnightblue" points="853.72,-320.7 863.99,-318.1 854.34,-313.73 853.72,-320.7"/>
</g>
<!-- Node21 -->
<g id="node21" class="node">
<title>Node21</title>
<g id="a_node21"><a xlink:href="difficulty__menu_8cpp.html" target="_top" xlink:title="Implementação da classe DifficultyMenu, que gerencia a tela de seleção de dificuldade.">
<polygon fill="white" stroke="black" points="317,-179.5 317,-209.5 427,-209.5 427,-179.5 317,-179.5"/>
<text text-anchor="start" x="325" y="-197.5" font-family="Helvetica,sans-Serif" font-size="10.00">src/states/difficulty</text>
<text text-anchor="middle" x="372" y="-186.5" font-family="Helvetica,sans-Serif" font-size="10.00">_menu.cpp</text>
</a>
</g>
</g>
<!-- Node6&#45;&gt;Node21 -->
<g id="edge54" class="edge">
<title>Node6&#45;&gt;Node21</title>
<path fill="none" stroke="midnightblue" d="M853.66,-321.66C719.22,-320.26 388.33,-313.15 355,-277 337.95,-258.51 351.93,-227.51 362.64,-209.54"/>
<polygon fill="midnightblue" stroke="midnightblue" points="853.72,-325.16 863.75,-321.76 853.79,-318.16 853.72,-325.16"/>
</g>
<!-- Node22 -->
<g id="node22" class="node">
<title>Node22</title>
<g id="a_node22"><a xlink:href="main__menu_8cpp.html" target="_top" xlink:title="Implementação da classe MainMenu, o estado principal e tela inicial do jogo.">
<polygon fill="white" stroke="black" points="445.5,-185 445.5,-204 590.5,-204 590.5,-185 445.5,-185"/>
<text text-anchor="middle" x="518" y="-192" font-family="Helvetica,sans-Serif" font-size="10.00">src/states/main_menu.cpp</text>
</a>
</g>
</g>
<!-- Node6&#45;&gt;Node22 -->
<g id="edge57" class="edge">
<title>Node6&#45;&gt;Node22</title>
<path fill="none" stroke="midnightblue" d="M889.11,-307.71C876.88,-299.13 861.28,-287.81 848,-277 832.15,-264.09 832.39,-254.94 814,-246 726.87,-203.63 694.46,-226.54 599,-210 588.02,-208.1 576.21,-206.01 565.1,-204.02"/>
<polygon fill="midnightblue" stroke="midnightblue" points="887.13,-310.6 897.34,-313.43 891.13,-304.85 887.13,-310.6"/>
</g>
<!-- Node6&#45;&gt;Node23 -->
<g id="edge32" class="edge">
<title>Node6&#45;&gt;Node23</title>
<path fill="none" stroke="midnightblue" d="M853.69,-311.63C799.95,-301.73 718.72,-286.76 660.03,-275.95"/>
<polygon fill="midnightblue" stroke="midnightblue" points="853.25,-315.11 863.72,-313.48 854.52,-308.22 853.25,-315.11"/>
</g>
<!-- Node24 -->
<g id="node24" class="node">
<title>Node24</title>
<g id="a_node24"><a xlink:href="leaderboard__menu_8cpp.html" target="_top" xlink:title="Implementação da classe LeaderboardMenu, responsável por exibir a tela de ranking.">
<polygon fill="white" stroke="black" points="608.5,-179.5 608.5,-209.5 733.5,-209.5 733.5,-179.5 608.5,-179.5"/>
<text text-anchor="start" x="616.5" y="-197.5" font-family="Helvetica,sans-Serif" font-size="10.00">src/states/leaderboard</text>
<text text-anchor="middle" x="671" y="-186.5" font-family="Helvetica,sans-Serif" font-size="10.00">_menu.cpp</text>
</a>
</g>
</g>
<!-- Node6&#45;&gt;Node24 -->
<g id="edge55" class="edge">
<title>Node6&#45;&gt;Node24</title>
<path fill="none" stroke="midnightblue" d="M900.08,-304.44C889.4,-287.09 870.83,-261.03 848,-246 829.05,-233.52 776.66,-219.35 733.76,-209.2"/>
<polygon fill="midnightblue" stroke="midnightblue" points="897.33,-306.66 905.43,-313.5 903.36,-303.11 897.33,-306.66"/>
</g>
<!-- Node6&#45;&gt;Node25 -->
<g id="edge35" class="edge">
<title>Node6&#45;&gt;Node25</title>
<path fill="none" stroke="midnightblue" d="M853.42,-321.49C727.06,-319.74 412.53,-311.91 152,-277 147.39,-276.38 142.63,-275.63 137.86,-274.79"/>
<polygon fill="midnightblue" stroke="midnightblue" points="853.58,-325 863.63,-321.63 853.67,-318 853.58,-325"/>
</g>
<!-- Node6&#45;&gt;Node26 -->
<g id="edge38" class="edge">
<title>Node6&#45;&gt;Node26</title>
<path fill="none" stroke="midnightblue" d="M853.61,-320.03C748.58,-315.85 516.05,-304.13 322,-277 317.39,-276.36 312.63,-275.59 307.86,-274.76"/>
<polygon fill="midnightblue" stroke="midnightblue" points="853.54,-323.53 863.67,-320.43 853.81,-316.54 853.54,-323.53"/>
</g>
<!-- Node27 -->
<g id="node27" class="node">
<title>Node27</title>
<g id="a_node27"><a xlink:href="settings__menu_8cpp.html" target="_top" xlink:title="Implementação da classe SettingsMenu, que gerencia a tela de configurações do jogo.">
<polygon fill="white" stroke="black" points="752,-179.5 752,-209.5 858,-209.5 858,-179.5 752,-179.5"/>
<text text-anchor="start" x="760" y="-197.5" font-family="Helvetica,sans-Serif" font-size="10.00">src/states/settings</text>
<text text-anchor="middle" x="805" y="-186.5" font-family="Helvetica,sans-Serif" font-size="10.00">_menu.cpp</text>
</a>
</g>
</g>
<!-- Node6&#45;&gt;Node27 -->
<g id="edge58" class="edge">
<title>Node6&#45;&gt;Node27</title>
<path fill="none" stroke="midnightblue" d="M966.39,-312.65C1043.95,-299.77 1174.15,-278 1175,-277 1183.89,-266.47 1184.08,-256.37 1175,-246 1135.13,-200.46 964.95,-218.34 905,-210 889.8,-207.88 873.3,-205.52 858.18,-203.33"/>
<polygon fill="midnightblue" stroke="midnightblue" points="965.57,-309.24 956.27,-314.33 966.71,-316.15 965.57,-309.24"/>
</g>
<!-- Node6&#45;&gt;Node28 -->
<g id="edge46" class="edge">
<title>Node6&#45;&gt;Node28</title>
<path fill="none" stroke="midnightblue" d="M876.41,-310.1C849.07,-300.42 810.43,-286.74 781.59,-276.52"/>
<polygon fill="midnightblue" stroke="midnightblue" points="875.33,-313.44 885.93,-313.48 877.67,-306.84 875.33,-313.44"/>
</g>
<!-- Node29 -->
<g id="node29" class="node">
<title>Node29</title>
<g id="a_node29"><a xlink:href="init_8cpp.html" target="_top" xlink:title="Inicialização de Allegro, fontes, addons e recursos globais.">
<polygon fill="white" stroke="black" points="1096,-252 1096,-271 1166,-271 1166,-252 1096,-252"/>
<text text-anchor="middle" x="1131" y="-259" font-family="Helvetica,sans-Serif" font-size="10.00">src/init.cpp</text>
</a>
</g>
</g>
<!-- Node6&#45;&gt;Node29 -->
<g id="edge50" class="edge">
<title>Node6&#45;&gt;Node29</title>
<path fill="none" stroke="midnightblue" d="M956.34,-310.98C991.95,-302.3 1042.29,-289.62 1086,-277 1092.31,-275.18 1099.07,-273.08 1105.38,-271.05"/>
<polygon fill="midnightblue" stroke="midnightblue" points="955.14,-307.67 946.24,-313.42 956.79,-314.47 955.14,-307.67"/>
</g>
<!-- Node6&#45;&gt;Node30 -->
<g id="edge52" class="edge">
<title>Node6&#45;&gt;Node30</title>
<path fill="none" stroke="midnightblue" d="M966.17,-312.99C1213.23,-285.71 1280.05,-314.25 1522,-277 1531.38,-275.56 1541.46,-273.33 1550.58,-271.06"/>
<polygon fill="midnightblue" stroke="midnightblue" points="965.71,-309.51 956.17,-314.11 966.5,-316.47 965.71,-309.51"/>
</g>
<!-- Node7&#45;&gt;Node3 -->
<g id="edge8" class="edge">
<title>Node7&#45;&gt;Node3</title>
<path fill="none" stroke="midnightblue" d="M1238.12,-109.85C1279.8,-98.68 1332.97,-84.43 1366.26,-75.51"/>
<polygon fill="midnightblue" stroke="midnightblue" points="1237.08,-106.51 1228.33,-112.47 1238.89,-113.27 1237.08,-106.51"/>
</g>
<!-- Node7&#45;&gt;Node8 -->
<g id="edge9" class="edge">
<title>Node7&#45;&gt;Node8</title>
<path fill="none" stroke="midnightblue" d="M1110.87,-120.48C1079.49,-117.7 1041.31,-114.46 1007,-112 741.83,-92.97 425.42,-76.67 292.16,-70.1"/>
<polygon fill="midnightblue" stroke="midnightblue" points="1110.96,-124.01 1121.23,-121.41 1111.58,-117.03 1110.96,-124.01"/>
</g>
<!-- Node11 -->
<g id="node11" class="node">
<title>Node11</title>
<g id="a_node11"><a xlink:href="flappy__bird__controller_8cpp.html" target="_top" xlink:title="Controlador de fluxo do jogo (pontuação, eventos globais).">
<polygon fill="white" stroke="black" points="1038.5,-56.5 1038.5,-75.5 1197.5,-75.5 1197.5,-56.5 1038.5,-56.5"/>
<text text-anchor="middle" x="1118" y="-63.5" font-family="Helvetica,sans-Serif" font-size="10.00">src/flappy_bird_controller.cpp</text>
</a>
</g>
</g>
<!-- Node7&#45;&gt;Node11 -->
<g id="edge13" class="edge">
<title>Node7&#45;&gt;Node11</title>
<path fill="none" stroke="midnightblue" d="M1155.04,-105C1145.16,-94.86 1133.92,-83.33 1126.44,-75.66"/>
<polygon fill="midnightblue" stroke="midnightblue" points="1152.77,-107.68 1162.25,-112.4 1157.78,-102.8 1152.77,-107.68"/>
</g>
<!-- Node8&#45;&gt;Node4 -->
<g id="edge10" class="edge">
<title>Node8&#45;&gt;Node4</title>
<path fill="none" stroke="midnightblue" d="M302.43,-58.89C430.89,-48.35 692.42,-26.89 817.02,-16.66"/>
<polygon fill="midnightblue" stroke="midnightblue" points="301.97,-55.42 292.29,-59.72 302.54,-62.39 301.97,-55.42"/>
</g>
<!-- Node8&#45;&gt;Node9 -->
<g id="edge11" class="edge">
<title>Node8&#45;&gt;Node9</title>
<path fill="none" stroke="midnightblue" d="M200.99,-51.86C180.41,-41.85 152.66,-28.35 134.79,-19.65"/>
<polygon fill="midnightblue" stroke="midnightblue" points="199.64,-55.1 210.17,-56.32 202.7,-48.8 199.64,-55.1"/>
</g>
<!-- Node10 -->
<g id="node10" class="node">
<title>Node10</title>
<g id="a_node10"><a xlink:href="play_8cpp.html" target="_top" xlink:title="Implementacao da classe Play.">
<polygon fill="white" stroke="black" points="236.5,-0.5 236.5,-19.5 343.5,-19.5 343.5,-0.5 236.5,-0.5"/>
<text text-anchor="middle" x="290" y="-7.5" font-family="Helvetica,sans-Serif" font-size="10.00">src/states/play.cpp</text>
</a>
</g>
</g>
<!-- Node8&#45;&gt;Node10 -->
<g id="edge12" class="edge">
<title>Node8&#45;&gt;Node10</title>
<path fill="none" stroke="midnightblue" d="M245.75,-49.54C256.81,-39.91 270.63,-27.87 279.86,-19.83"/>
<polygon fill="midnightblue" stroke="midnightblue" points="243.2,-47.12 237.96,-56.32 247.8,-52.4 243.2,-47.12"/>
</g>
<!-- Node12&#45;&gt;Node7 -->
<g id="edge19" class="edge">
<title>Node12&#45;&gt;Node7</title>
<path fill="none" stroke="midnightblue" d="M1054.34,-249.34C1091.35,-239.55 1139.22,-224.63 1153,-210 1170.44,-191.48 1174.81,-160.77 1175.81,-142.81"/>
<polygon fill="midnightblue" stroke="midnightblue" points="1053.03,-246.07 1044.22,-251.96 1054.78,-252.84 1053.03,-246.07"/>
</g>
<!-- Node13 -->
<g id="node13" class="node">
<title>Node13</title>
<g id="a_node13"><a xlink:href="bird_8hpp.html" target="_top" xlink:title="Declaracao da classe Bird (personagem controlavel).">
<polygon fill="white" stroke="black" points="914.5,-185 914.5,-204 1009.5,-204 1009.5,-185 914.5,-185"/>
<text text-anchor="middle" x="962" y="-192" font-family="Helvetica,sans-Serif" font-size="10.00">include/bird.hpp</text>
</a>
</g>
</g>
<!-- Node12&#45;&gt;Node13 -->
<g id="edge15" class="edge">
<title>Node12&#45;&gt;Node13</title>
<path fill="none" stroke="midnightblue" d="M995.9,-243.4C986.96,-230.77 975.17,-214.1 968.11,-204.13"/>
<polygon fill="midnightblue" stroke="midnightblue" points="993.16,-245.59 1001.8,-251.73 998.88,-241.55 993.16,-245.59"/>
</g>
<!-- Node12&#45;&gt;Node15 -->
<g id="edge20" class="edge">
<title>Node12&#45;&gt;Node15</title>
<path fill="none" stroke="midnightblue" d="M1054.76,-249.64C1109.93,-236.84 1200.51,-215.81 1251.03,-204.08"/>
<polygon fill="midnightblue" stroke="midnightblue" points="1053.84,-246.26 1044.89,-251.94 1055.43,-253.08 1053.84,-246.26"/>
</g>
<!-- Node17 -->
<g id="node17" class="node">
<title>Node17</title>
<g id="a_node17"><a xlink:href="game__object_8cpp.html" target="_top" xlink:title="Métodos utilitários da classe base GameObject.">
<polygon fill="white" stroke="black" points="1027.5,-185 1027.5,-204 1144.5,-204 1144.5,-185 1027.5,-185"/>
<text text-anchor="middle" x="1086" y="-192" font-family="Helvetica,sans-Serif" font-size="10.00">src/game_object.cpp</text>
</a>
</g>
</g>
<!-- Node12&#45;&gt;Node17 -->
<g id="edge23" class="edge">
<title>Node12&#45;&gt;Node17</title>
<path fill="none" stroke="midnightblue" d="M1026.34,-245.21C1041.71,-232.41 1063.09,-214.59 1075.65,-204.13"/>
<polygon fill="midnightblue" stroke="midnightblue" points="1023.96,-242.64 1018.52,-251.73 1028.44,-248.02 1023.96,-242.64"/>
</g>
<!-- Node13&#45;&gt;Node7 -->
<g id="edge16" class="edge">
<title>Node13&#45;&gt;Node7</title>
<path fill="none" stroke="midnightblue" d="M1000.14,-181.92C1036.42,-170.9 1091.08,-154.29 1129.82,-142.53"/>
<polygon fill="midnightblue" stroke="midnightblue" points="998.97,-178.61 990.42,-184.87 1001,-185.31 998.97,-178.61"/>
</g>
<!-- Node13&#45;&gt;Node11 -->
<g id="edge18" class="edge">
<title>Node13&#45;&gt;Node11</title>
<path fill="none" stroke="midnightblue" d="M980.67,-178.36C1013.59,-151.67 1080.96,-97.03 1107.2,-75.76"/>
<polygon fill="midnightblue" stroke="midnightblue" points="978.29,-175.79 972.72,-184.81 982.69,-181.23 978.29,-175.79"/>
</g>
<!-- Node14 -->
<g id="node14" class="node">
<title>Node14</title>
<g id="a_node14"><a xlink:href="bird_8cpp.html" target="_top" xlink:title="Implementação da classe Bird (animação, física e colisões).">
<polygon fill="white" stroke="black" points="925.5,-118 925.5,-137 998.5,-137 998.5,-118 925.5,-118"/>
<text text-anchor="middle" x="962" y="-125" font-family="Helvetica,sans-Serif" font-size="10.00">src/bird.cpp</text>
</a>
</g>
</g>
<!-- Node13&#45;&gt;Node14 -->
<g id="edge17" class="edge">
<title>Node13&#45;&gt;Node14</title>
<path fill="none" stroke="midnightblue" d="M962,-174.54C962,-162.17 962,-146.62 962,-137.13"/>
<polygon fill="midnightblue" stroke="midnightblue" points="958.5,-174.73 962,-184.73 965.5,-174.73 958.5,-174.73"/>
</g>
<!-- Node15&#45;&gt;Node7 -->
<g id="edge21" class="edge">
<title>Node15&#45;&gt;Node7</title>
<path fill="none" stroke="midnightblue" d="M1264.06,-179.6C1245.25,-168.69 1219.17,-153.55 1200.28,-142.59"/>
<polygon fill="midnightblue" stroke="midnightblue" points="1262.49,-182.74 1272.9,-184.73 1266,-176.69 1262.49,-182.74"/>
</g>
<!-- Node16 -->
<g id="node16" class="node">
<title>Node16</title>
<g id="a_node16"><a xlink:href="pipe_8cpp.html" target="_top" xlink:title="Implementação das classes Pipe, PipePair e PipeList.">
<polygon fill="white" stroke="black" points="1250.5,-118 1250.5,-137 1325.5,-137 1325.5,-118 1250.5,-118"/>
<text text-anchor="middle" x="1288" y="-125" font-family="Helvetica,sans-Serif" font-size="10.00">src/pipe.cpp</text>
</a>
</g>
</g>
<!-- Node15&#45;&gt;Node16 -->
<g id="edge22" class="edge">
<title>Node15&#45;&gt;Node16</title>
<path fill="none" stroke="midnightblue" d="M1288,-174.54C1288,-162.17 1288,-146.62 1288,-137.13"/>
<polygon fill="midnightblue" stroke="midnightblue" points="1284.5,-174.73 1288,-184.73 1291.5,-174.73 1284.5,-174.73"/>
</g>
<!-- Node18&#45;&gt;Node6 -->
<g id="edge27" class="edge">
<title>Node18&#45;&gt;Node6</title>
<path fill="none" stroke="midnightblue" d="M1313.09,-273.26C1306.43,-274.63 1299.55,-275.92 1293,-277 1152.21,-300.12 1115.34,-293.47 974,-313 968.25,-313.79 962.17,-314.71 956.12,-315.65"/>
<polygon fill="midnightblue" stroke="midnightblue" points="1314.24,-276.59 1323.29,-271.07 1312.77,-269.75 1314.24,-276.59"/>
</g>
<!-- Node18&#45;&gt;Node7 -->
<g id="edge26" class="edge">
<title>Node18&#45;&gt;Node7</title>
<path fill="none" stroke="midnightblue" d="M1355.15,-241.84C1358.02,-223.76 1359.13,-196.58 1345,-179 1337.57,-169.75 1277.18,-153.19 1230.69,-141.56"/>
<polygon fill="midnightblue" stroke="midnightblue" points="1351.7,-241.27 1353.26,-251.75 1358.58,-242.58 1351.7,-241.27"/>
</g>
<!-- Node18&#45;&gt;Node19 -->
<g id="edge28" class="edge">
<title>Node18&#45;&gt;Node19</title>
<path fill="none" stroke="midnightblue" d="M1370.3,-245.57C1386.88,-232.74 1410.21,-214.69 1423.85,-204.13"/>
<polygon fill="midnightblue" stroke="midnightblue" points="1368.1,-242.85 1362.33,-251.73 1372.38,-248.38 1368.1,-242.85"/>
</g>
<!-- Node20&#45;&gt;Node21 -->
<g id="edge30" class="edge">
<title>Node20&#45;&gt;Node21</title>
<path fill="none" stroke="midnightblue" d="M410.58,-238.74C402,-229.12 392.16,-218.09 384.56,-209.58"/>
<polygon fill="midnightblue" stroke="midnightblue" points="408.15,-241.26 417.41,-246.4 413.37,-236.6 408.15,-241.26"/>
</g>
<!-- Node20&#45;&gt;Node22 -->
<g id="edge31" class="edge">
<title>Node20&#45;&gt;Node22</title>
<path fill="none" stroke="midnightblue" d="M457.34,-240.31C473.86,-228.1 494.07,-213.18 506.48,-204.01"/>
<polygon fill="midnightblue" stroke="midnightblue" points="455.06,-237.64 449.09,-246.4 459.22,-243.27 455.06,-237.64"/>
</g>
<!-- Node23&#45;&gt;Node22 -->
<g id="edge34" class="edge">
<title>Node23&#45;&gt;Node22</title>
<path fill="none" stroke="midnightblue" d="M564.53,-239.34C551.86,-227.4 536.72,-213.14 527.23,-204.19"/>
<polygon fill="midnightblue" stroke="midnightblue" points="562.35,-242.09 572.03,-246.4 567.15,-236.99 562.35,-242.09"/>
</g>
<!-- Node23&#45;&gt;Node24 -->
<g id="edge33" class="edge">
<title>Node23&#45;&gt;Node24</title>
<path fill="none" stroke="midnightblue" d="M613.28,-240.17C626.12,-230.23 641.26,-218.51 652.81,-209.58"/>
<polygon fill="midnightblue" stroke="midnightblue" points="610.99,-237.51 605.23,-246.4 615.28,-243.04 610.99,-237.51"/>
</g>
<!-- Node25&#45;&gt;Node9 -->
<g id="edge36" class="edge">
<title>Node25&#45;&gt;Node9</title>
<path fill="none" stroke="midnightblue" d="M78.45,-236.49C72.07,-197.48 63.4,-118.41 84,-56 88.74,-41.65 99.96,-28.08 108,-19.67"/>
<polygon fill="midnightblue" stroke="midnightblue" points="75.01,-237.13 80.16,-246.38 81.9,-235.93 75.01,-237.13"/>
</g>
<!-- Node25&#45;&gt;Node22 -->
<g id="edge37" class="edge">
<title>Node25&#45;&gt;Node22</title>
<path fill="none" stroke="midnightblue" d="M147.74,-251.29C245.75,-237.35 421.94,-212.25 436,-210 447.42,-208.17 459.71,-206.07 471.21,-204.05"/>
<polygon fill="midnightblue" stroke="midnightblue" points="147.05,-247.86 137.64,-252.73 148.04,-254.79 147.05,-247.86"/>
</g>
<!-- Node26&#45;&gt;Node4 -->
<g id="edge39" class="edge">
<title>Node26&#45;&gt;Node4</title>
<path fill="none" stroke="midnightblue" d="M261.72,-237.3C271.35,-218.91 287.18,-193.92 308,-179 466.85,-65.19 702.04,-28.01 817.29,-16.23"/>
<polygon fill="midnightblue" stroke="midnightblue" points="258.47,-235.96 257.13,-246.47 264.73,-239.09 258.47,-235.96"/>
</g>
<!-- Node26&#45;&gt;Node9 -->
<g id="edge42" class="edge">
<title>Node26&#45;&gt;Node9</title>
<path fill="none" stroke="midnightblue" d="M238.57,-237.36C210,-184.16 140.65,-55.03 121.8,-19.93"/>
<polygon fill="midnightblue" stroke="midnightblue" points="235.6,-239.22 243.41,-246.37 241.76,-235.91 235.6,-239.22"/>
</g>
<!-- Node26&#45;&gt;Node10 -->
<g id="edge44" class="edge">
<title>Node26&#45;&gt;Node10</title>
<path fill="none" stroke="midnightblue" d="M257.84,-236.67C271.02,-190.51 298.87,-92.02 301,-76 303.69,-55.81 297.32,-32.27 293.19,-19.8"/>
<polygon fill="midnightblue" stroke="midnightblue" points="254.43,-235.87 255.04,-246.44 261.16,-237.79 254.43,-235.87"/>
</g>
<!-- Node26&#45;&gt;Node21 -->
<g id="edge40" class="edge">
<title>Node26&#45;&gt;Node21</title>
<path fill="none" stroke="midnightblue" d="M286.23,-241.57C305.26,-231.35 328.37,-218.94 345.8,-209.58"/>
<polygon fill="midnightblue" stroke="midnightblue" points="284.41,-238.58 277.26,-246.4 287.72,-244.75 284.41,-238.58"/>
</g>
<!-- Node26&#45;&gt;Node22 -->
<g id="edge43" class="edge">
<title>Node26&#45;&gt;Node22</title>
<path fill="none" stroke="midnightblue" d="M317.5,-244.31C369.85,-231.57 440.75,-214.31 482.7,-204.09"/>
<polygon fill="midnightblue" stroke="midnightblue" points="316.51,-240.95 307.62,-246.72 318.17,-247.75 316.51,-240.95"/>
</g>
<!-- Node26&#45;&gt;Node24 -->
<g id="edge41" class="edge">
<title>Node26&#45;&gt;Node24</title>
<path fill="none" stroke="midnightblue" d="M317.73,-251.02C410.98,-237.73 571.94,-214.68 599,-210 602.02,-209.48 605.1,-208.93 608.21,-208.36"/>
<polygon fill="midnightblue" stroke="midnightblue" points="317.23,-247.55 307.82,-252.43 318.21,-254.48 317.23,-247.55"/>
</g>
<!-- Node26&#45;&gt;Node27 -->
<g id="edge45" class="edge">
<title>Node26&#45;&gt;Node27</title>
<path fill="none" stroke="midnightblue" d="M317.85,-250.72C330.19,-249.04 342.97,-247.4 355,-246 526.59,-226.07 571.45,-237.43 742,-210 745.21,-209.48 748.51,-208.9 751.82,-208.26"/>
<polygon fill="midnightblue" stroke="midnightblue" points="317.04,-247.3 307.61,-252.13 318,-254.23 317.04,-247.3"/>
</g>
<!-- Node28&#45;&gt;Node22 -->
<g id="edge47" class="edge">
<title>Node28&#45;&gt;Node22</title>
<path fill="none" stroke="midnightblue" d="M684,-243.67C640.22,-230.97 581.97,-214.06 547.39,-204.03"/>
<polygon fill="midnightblue" stroke="midnightblue" points="683.09,-247.05 693.67,-246.48 685.04,-240.33 683.09,-247.05"/>
</g>
<!-- Node28&#45;&gt;Node27 -->
<g id="edge48" class="edge">
<title>Node28&#45;&gt;Node27</title>
<path fill="none" stroke="midnightblue" d="M762.81,-239.02C772.2,-229.34 783.02,-218.17 791.36,-209.58"/>
<polygon fill="midnightblue" stroke="midnightblue" points="760.12,-236.78 755.67,-246.4 765.14,-241.65 760.12,-236.78"/>
</g>
</g>
</svg>
