<?xml version="1.0" encoding="UTF-8" standalone="no"?>
<!DOCTYPE svg PUBLIC "-//W3C//DTD SVG 1.1//EN"
 "http://www.w3.org/Graphics/SVG/1.1/DTD/svg11.dtd">
<!-- Generated by graphviz version 2.43.0 (0)
 -->
<!-- Title: include/pipe.hpp Pages: 1 -->
<svg width="1391pt" height="375pt"
 viewBox="0.00 0.00 1390.50 375.00" xmlns="http://www.w3.org/2000/svg" xmlns:xlink="http://www.w3.org/1999/xlink">
<g id="graph0" class="graph" transform="scale(1 1) rotate(0) translate(4 371)">
<title>include/pipe.hpp</title>
<polygon fill="white" stroke="transparent" points="-4,4 -4,-371 1386.5,-371 1386.5,4 -4,4"/>
<!-- Node1 -->
<g id="node1" class="node">
<title>Node1</title>
<g id="a_node1"><a xlink:title="Declaration of pipe&#45;related classes (Pipe, PipePair, PipeList).">
<polygon fill="#bfbfbf" stroke="black" points="676.5,-347.5 676.5,-366.5 773.5,-366.5 773.5,-347.5 676.5,-347.5"/>
<text text-anchor="middle" x="725" y="-354.5" font-family="Helvetica,sans-Serif" font-size="10.00">include/pipe.hpp</text>
</a>
</g>
</g>
<!-- Node2 -->
<g id="node2" class="node">
<title>Node2</title>
<g id="a_node2"><a xlink:title=" ">
<polygon fill="white" stroke="#bfbfbf" points="9.5,-179.5 9.5,-198.5 112.5,-198.5 112.5,-179.5 9.5,-179.5"/>
<text text-anchor="middle" x="61" y="-186.5" font-family="Helvetica,sans-Serif" font-size="10.00">allegro5/bitmap.h</text>
</a>
</g>
</g>
<!-- Node1&#45;&gt;Node2 -->
<g id="edge1" class="edge">
<title>Node1&#45;&gt;Node2</title>
<path fill="none" stroke="midnightblue" d="M690.7,-347.42C579.5,-319.62 229.01,-232 105.01,-201"/>
<polygon fill="midnightblue" stroke="midnightblue" points="105.65,-197.55 95.1,-198.52 103.95,-204.35 105.65,-197.55"/>
</g>
<!-- Node3 -->
<g id="node3" class="node">
<title>Node3</title>
<g id="a_node3"><a xlink:title=" ">
<polygon fill="white" stroke="#bfbfbf" points="604,-291.5 604,-310.5 658,-310.5 658,-291.5 604,-291.5"/>
<text text-anchor="middle" x="631" y="-298.5" font-family="Helvetica,sans-Serif" font-size="10.00">random</text>
</a>
</g>
</g>
<!-- Node1&#45;&gt;Node3 -->
<g id="edge2" class="edge">
<title>Node1&#45;&gt;Node3</title>
<path fill="none" stroke="midnightblue" d="M709.9,-347.32C695.1,-338.82 672.31,-325.73 655.02,-315.8"/>
<polygon fill="midnightblue" stroke="midnightblue" points="656.48,-312.6 646.07,-310.65 652.99,-318.67 656.48,-312.6"/>
</g>
<!-- Node4 -->
<g id="node4" class="node">
<title>Node4</title>
<g id="a_node4"><a xlink:title=" ">
<polygon fill="white" stroke="#bfbfbf" points="1335.5,-6 1335.5,-25 1382.5,-25 1382.5,-6 1335.5,-6"/>
<text text-anchor="middle" x="1359" y="-13" font-family="Helvetica,sans-Serif" font-size="10.00">vector</text>
</a>
</g>
</g>
<!-- Node1&#45;&gt;Node4 -->
<g id="edge3" class="edge">
<title>Node1&#45;&gt;Node4</title>
<path fill="none" stroke="midnightblue" d="M773.86,-356.33C881.21,-354.42 1140.07,-335.03 1291,-199 1339.73,-155.08 1353.65,-72.92 1357.54,-35.7"/>
<polygon fill="midnightblue" stroke="midnightblue" points="1361.07,-35.57 1358.48,-25.3 1354.09,-34.94 1361.07,-35.57"/>
</g>
<!-- Node5 -->
<g id="node5" class="node">
<title>Node5</title>
<g id="a_node5"><a xlink:href="defines_8hpp.html" target="_top" xlink:title="Constantes globais, macros e estruturas auxiliares do jogo.">
<polygon fill="white" stroke="black" points="1187.5,-67.5 1187.5,-86.5 1260.5,-86.5 1260.5,-67.5 1187.5,-67.5"/>
<text text-anchor="middle" x="1224" y="-74.5" font-family="Helvetica,sans-Serif" font-size="10.00">defines.hpp</text>
</a>
</g>
</g>
<!-- Node1&#45;&gt;Node5 -->
<g id="edge4" class="edge">
<title>Node1&#45;&gt;Node5</title>
<path fill="none" stroke="midnightblue" d="M773.6,-349.46C895.57,-331.93 1209.24,-279.74 1270,-199 1294.65,-166.25 1260.83,-118.75 1239.34,-94.14"/>
<polygon fill="midnightblue" stroke="midnightblue" points="1241.93,-91.79 1232.63,-86.72 1236.74,-96.49 1241.93,-91.79"/>
</g>
<!-- Node8 -->
<g id="node8" class="node">
<title>Node8</title>
<g id="a_node8"><a xlink:href="game__object_8hpp.html" target="_top" xlink:title="Classe base abstrata para todos os objetos renderizáveis.">
<polygon fill="white" stroke="black" points="714.5,-291.5 714.5,-310.5 815.5,-310.5 815.5,-291.5 714.5,-291.5"/>
<text text-anchor="middle" x="765" y="-298.5" font-family="Helvetica,sans-Serif" font-size="10.00">game_object.hpp</text>
</a>
</g>
</g>
<!-- Node1&#45;&gt;Node8 -->
<g id="edge8" class="edge">
<title>Node1&#45;&gt;Node8</title>
<path fill="none" stroke="midnightblue" d="M731.61,-347.08C737.26,-339.46 745.54,-328.26 752.45,-318.94"/>
<polygon fill="midnightblue" stroke="midnightblue" points="755.38,-320.87 758.52,-310.75 749.75,-316.7 755.38,-320.87"/>
</g>
<!-- Node9 -->
<g id="node9" class="node">
<title>Node9</title>
<g id="a_node9"><a xlink:href="init_8hpp.html" target="_top" xlink:title="Declara funções de inicialização e finalização do Allegro.">
<polygon fill="white" stroke="black" points="659.5,-235.5 659.5,-254.5 712.5,-254.5 712.5,-235.5 659.5,-235.5"/>
<text text-anchor="middle" x="686" y="-242.5" font-family="Helvetica,sans-Serif" font-size="10.00">init.hpp</text>
</a>
</g>
</g>
<!-- Node1&#45;&gt;Node9 -->
<g id="edge49" class="edge">
<title>Node1&#45;&gt;Node9</title>
<path fill="none" stroke="midnightblue" d="M721.1,-347.48C717.06,-338.5 710.7,-323.91 706,-311 700.32,-295.4 694.85,-277.32 691.07,-264.2"/>
<polygon fill="midnightblue" stroke="midnightblue" points="694.41,-263.17 688.32,-254.5 687.68,-265.08 694.41,-263.17"/>
</g>
<!-- Node5&#45;&gt;Node4 -->
<g id="edge7" class="edge">
<title>Node5&#45;&gt;Node4</title>
<path fill="none" stroke="midnightblue" d="M1243.34,-67.48C1266.1,-57.45 1304.09,-40.7 1330.29,-29.15"/>
<polygon fill="midnightblue" stroke="midnightblue" points="1331.95,-32.24 1339.69,-25.01 1329.13,-25.84 1331.95,-32.24"/>
</g>
<!-- Node6 -->
<g id="node6" class="node">
<title>Node6</title>
<g id="a_node6"><a xlink:title=" ">
<polygon fill="white" stroke="#bfbfbf" points="1201.5,-6 1201.5,-25 1248.5,-25 1248.5,-6 1201.5,-6"/>
<text text-anchor="middle" x="1225" y="-13" font-family="Helvetica,sans-Serif" font-size="10.00">cmath</text>
</a>
</g>
</g>
<!-- Node5&#45;&gt;Node6 -->
<g id="edge5" class="edge">
<title>Node5&#45;&gt;Node6</title>
<path fill="none" stroke="midnightblue" d="M1224.14,-67.48C1224.28,-59.08 1224.5,-45.98 1224.69,-35.16"/>
<polygon fill="midnightblue" stroke="midnightblue" points="1228.19,-35.07 1224.86,-25.01 1221.19,-34.95 1228.19,-35.07"/>
</g>
<!-- Node7 -->
<g id="node7" class="node">
<title>Node7</title>
<g id="a_node7"><a xlink:title=" ">
<polygon fill="white" stroke="#bfbfbf" points="1267,-6 1267,-25 1311,-25 1311,-6 1267,-6"/>
<text text-anchor="middle" x="1289" y="-13" font-family="Helvetica,sans-Serif" font-size="10.00">string</text>
</a>
</g>
</g>
<!-- Node5&#45;&gt;Node7 -->
<g id="edge6" class="edge">
<title>Node5&#45;&gt;Node7</title>
<path fill="none" stroke="midnightblue" d="M1233.31,-67.48C1243.45,-58.2 1259.86,-43.17 1272.25,-31.83"/>
<polygon fill="midnightblue" stroke="midnightblue" points="1274.69,-34.34 1279.7,-25.01 1269.96,-29.18 1274.69,-34.34"/>
</g>
<!-- Node8&#45;&gt;Node9 -->
<g id="edge9" class="edge">
<title>Node8&#45;&gt;Node9</title>
<path fill="none" stroke="midnightblue" d="M752.31,-291.32C740.1,-282.98 721.42,-270.21 707,-260.35"/>
<polygon fill="midnightblue" stroke="midnightblue" points="708.89,-257.41 698.66,-254.65 704.94,-263.19 708.89,-257.41"/>
</g>
<!-- Node9&#45;&gt;Node2 -->
<g id="edge27" class="edge">
<title>Node9&#45;&gt;Node2</title>
<path fill="none" stroke="midnightblue" d="M659.47,-242.39C579.14,-237.39 331.48,-221.16 127,-199 125.71,-198.86 124.4,-198.71 123.08,-198.57"/>
<polygon fill="midnightblue" stroke="midnightblue" points="123.19,-195.05 112.85,-197.35 122.36,-202 123.19,-195.05"/>
</g>
<!-- Node9&#45;&gt;Node5 -->
<g id="edge39" class="edge">
<title>Node9&#45;&gt;Node5</title>
<path fill="none" stroke="midnightblue" d="M712.52,-242.97C807.17,-239.1 1124.64,-224.33 1162,-199 1197.55,-174.9 1213.88,-123.94 1220.36,-96.47"/>
<polygon fill="midnightblue" stroke="midnightblue" points="1223.8,-97.1 1222.5,-86.59 1216.96,-95.62 1223.8,-97.1"/>
</g>
<!-- Node9&#45;&gt;Node7 -->
<g id="edge18" class="edge">
<title>Node9&#45;&gt;Node7</title>
<path fill="none" stroke="midnightblue" d="M712.76,-243.91C821.92,-243.28 1229.65,-238.28 1270,-199 1314.47,-155.7 1302.26,-72.59 1293.88,-35.36"/>
<polygon fill="midnightblue" stroke="midnightblue" points="1297.22,-34.27 1291.47,-25.37 1290.41,-35.91 1297.22,-34.27"/>
</g>
<!-- Node10 -->
<g id="node10" class="node">
<title>Node10</title>
<g id="a_node10"><a xlink:title=" ">
<polygon fill="white" stroke="#bfbfbf" points="1209.5,-179.5 1209.5,-198.5 1260.5,-198.5 1260.5,-179.5 1209.5,-179.5"/>
<text text-anchor="middle" x="1235" y="-186.5" font-family="Helvetica,sans-Serif" font-size="10.00">math.h</text>
</a>
</g>
</g>
<!-- Node9&#45;&gt;Node10 -->
<g id="edge10" class="edge">
<title>Node9&#45;&gt;Node10</title>
<path fill="none" stroke="midnightblue" d="M712.65,-242.9C788.48,-239.49 1011.81,-227.58 1195,-199 1196.45,-198.77 1197.93,-198.53 1199.42,-198.26"/>
<polygon fill="midnightblue" stroke="midnightblue" points="1200.14,-201.68 1209.28,-196.32 1198.79,-194.82 1200.14,-201.68"/>
</g>
<!-- Node11 -->
<g id="node11" class="node">
<title>Node11</title>
<g id="a_node11"><a xlink:title=" ">
<polygon fill="white" stroke="#bfbfbf" points="207,-179.5 207,-198.5 271,-198.5 271,-179.5 207,-179.5"/>
<text text-anchor="middle" x="239" y="-186.5" font-family="Helvetica,sans-Serif" font-size="10.00">algorithm</text>
</a>
</g>
</g>
<!-- Node9&#45;&gt;Node11 -->
<g id="edge11" class="edge">
<title>Node9&#45;&gt;Node11</title>
<path fill="none" stroke="midnightblue" d="M659.27,-242.02C595.57,-237.1 429.72,-223.05 281.36,-199.07"/>
<polygon fill="midnightblue" stroke="midnightblue" points="281.6,-195.56 271.17,-197.4 280.47,-202.47 281.6,-195.56"/>
</g>
<!-- Node12 -->
<g id="node12" class="node">
<title>Node12</title>
<g id="a_node12"><a xlink:title=" ">
<polygon fill="white" stroke="#bfbfbf" points="289.5,-179.5 289.5,-198.5 344.5,-198.5 344.5,-179.5 289.5,-179.5"/>
<text text-anchor="middle" x="317" y="-186.5" font-family="Helvetica,sans-Serif" font-size="10.00">fstream</text>
</a>
</g>
</g>
<!-- Node9&#45;&gt;Node12 -->
<g id="edge12" class="edge">
<title>Node9&#45;&gt;Node12</title>
<path fill="none" stroke="midnightblue" d="M659.19,-241C603.22,-234.57 469.91,-218.49 359,-199 357.53,-198.74 356.04,-198.47 354.53,-198.19"/>
<polygon fill="midnightblue" stroke="midnightblue" points="354.99,-194.71 344.51,-196.2 353.63,-201.58 354.99,-194.71"/>
</g>
<!-- Node13 -->
<g id="node13" class="node">
<title>Node13</title>
<g id="a_node13"><a xlink:title=" ">
<polygon fill="white" stroke="#bfbfbf" points="0,-6 0,-25 60,-25 60,-6 0,-6"/>
<text text-anchor="middle" x="30" y="-13" font-family="Helvetica,sans-Serif" font-size="10.00">iostream</text>
</a>
</g>
</g>
<!-- Node9&#45;&gt;Node13 -->
<g id="edge13" class="edge">
<title>Node9&#45;&gt;Node13</title>
<path fill="none" stroke="midnightblue" d="M659.44,-244.35C567.19,-245.14 261.71,-244.23 177,-199 105.82,-160.99 56.69,-72.32 38.18,-34.31"/>
<polygon fill="midnightblue" stroke="midnightblue" points="41.22,-32.56 33.77,-25.02 34.89,-35.56 41.22,-32.56"/>
</g>
<!-- Node14 -->
<g id="node14" class="node">
<title>Node14</title>
<g id="a_node14"><a xlink:title=" ">
<polygon fill="white" stroke="#bfbfbf" points="401,-179.5 401,-198.5 433,-198.5 433,-179.5 401,-179.5"/>
<text text-anchor="middle" x="417" y="-186.5" font-family="Helvetica,sans-Serif" font-size="10.00">list</text>
</a>
</g>
</g>
<!-- Node9&#45;&gt;Node14 -->
<g id="edge14" class="edge">
<title>Node9&#45;&gt;Node14</title>
<path fill="none" stroke="midnightblue" d="M659.33,-240.54C615.79,-234.57 526.7,-221.07 442.7,-198.81"/>
<polygon fill="midnightblue" stroke="midnightblue" points="443.58,-195.43 433.01,-196.2 441.76,-202.18 443.58,-195.43"/>
</g>
<!-- Node15 -->
<g id="node15" class="node">
<title>Node15</title>
<g id="a_node15"><a xlink:title=" ">
<polygon fill="white" stroke="#bfbfbf" points="451,-179.5 451,-198.5 489,-198.5 489,-179.5 451,-179.5"/>
<text text-anchor="middle" x="470" y="-186.5" font-family="Helvetica,sans-Serif" font-size="10.00">map</text>
</a>
</g>
</g>
<!-- Node9&#45;&gt;Node15 -->
<g id="edge15" class="edge">
<title>Node9&#45;&gt;Node15</title>
<path fill="none" stroke="midnightblue" d="M659.28,-237.65C623.59,-229.12 558.42,-213.37 503,-199 501.74,-198.67 500.45,-198.34 499.15,-197.99"/>
<polygon fill="midnightblue" stroke="midnightblue" points="499.74,-194.53 489.17,-195.32 497.92,-201.29 499.74,-194.53"/>
</g>
<!-- Node16 -->
<g id="node16" class="node">
<title>Node16</title>
<g id="a_node16"><a xlink:title=" ">
<polygon fill="white" stroke="#bfbfbf" points="78,-6 78,-25 136,-25 136,-6 78,-6"/>
<text text-anchor="middle" x="107" y="-13" font-family="Helvetica,sans-Serif" font-size="10.00">memory</text>
</a>
</g>
</g>
<!-- Node9&#45;&gt;Node16 -->
<g id="edge16" class="edge">
<title>Node9&#45;&gt;Node16</title>
<path fill="none" stroke="midnightblue" d="M659.33,-243.23C562.63,-240.22 234.23,-227.94 198,-199 149.79,-160.5 186.59,-120 155,-67 147.08,-53.72 135.11,-41.11 125.1,-31.81"/>
<polygon fill="midnightblue" stroke="midnightblue" points="127.39,-29.17 117.6,-25.12 122.73,-34.39 127.39,-29.17"/>
</g>
<!-- Node17 -->
<g id="node17" class="node">
<title>Node17</title>
<g id="a_node17"><a xlink:title=" ">
<polygon fill="white" stroke="#bfbfbf" points="545,-179.5 545,-198.5 601,-198.5 601,-179.5 545,-179.5"/>
<text text-anchor="middle" x="573" y="-186.5" font-family="Helvetica,sans-Serif" font-size="10.00">sstream</text>
</a>
</g>
</g>
<!-- Node9&#45;&gt;Node17 -->
<g id="edge17" class="edge">
<title>Node9&#45;&gt;Node17</title>
<path fill="none" stroke="midnightblue" d="M668.09,-235.44C649.75,-226.68 620.99,-212.94 599.91,-202.86"/>
<polygon fill="midnightblue" stroke="midnightblue" points="601.35,-199.67 590.82,-198.52 598.33,-205.99 601.35,-199.67"/>
</g>
<!-- Node18 -->
<g id="node18" class="node">
<title>Node18</title>
<g id="a_node18"><a xlink:title=" ">
<polygon fill="white" stroke="#bfbfbf" points="906,-6 906,-25 1008,-25 1008,-6 906,-6"/>
<text text-anchor="middle" x="957" y="-13" font-family="Helvetica,sans-Serif" font-size="10.00">allegro5/allegro.h</text>
</a>
</g>
</g>
<!-- Node9&#45;&gt;Node18 -->
<g id="edge19" class="edge">
<title>Node9&#45;&gt;Node18</title>
<path fill="none" stroke="midnightblue" d="M696.29,-235.36C736.96,-201.22 886.74,-75.49 938.92,-31.67"/>
<polygon fill="midnightblue" stroke="midnightblue" points="941.29,-34.26 946.7,-25.15 936.79,-28.9 941.29,-34.26"/>
</g>
<!-- Node19 -->
<g id="node19" class="node">
<title>Node19</title>
<g id="a_node19"><a xlink:title=" ">
<polygon fill="white" stroke="#bfbfbf" points="154,-6 154,-25 296,-25 296,-6 154,-6"/>
<text text-anchor="middle" x="225" y="-13" font-family="Helvetica,sans-Serif" font-size="10.00">allegro5/allegro_acodec.h</text>
</a>
</g>
</g>
<!-- Node9&#45;&gt;Node19 -->
<g id="edge20" class="edge">
<title>Node9&#45;&gt;Node19</title>
<path fill="none" stroke="midnightblue" d="M659.36,-242.19C596.01,-237.52 438.22,-223.7 392,-199 316.9,-158.86 257.95,-71.42 235.19,-34.03"/>
<polygon fill="midnightblue" stroke="midnightblue" points="238.09,-32.07 229.96,-25.27 232.08,-35.65 238.09,-32.07"/>
</g>
<!-- Node20 -->
<g id="node20" class="node">
<title>Node20</title>
<g id="a_node20"><a xlink:title=" ">
<polygon fill="white" stroke="#bfbfbf" points="314,-6 314,-25 448,-25 448,-6 314,-6"/>
<text text-anchor="middle" x="381" y="-13" font-family="Helvetica,sans-Serif" font-size="10.00">allegro5/allegro_audio.h</text>
</a>
</g>
</g>
<!-- Node9&#45;&gt;Node20 -->
<g id="edge21" class="edge">
<title>Node9&#45;&gt;Node20</title>
<path fill="none" stroke="midnightblue" d="M659.41,-240.7C627.82,-235.77 574.57,-224.22 536,-199 467.63,-154.29 412.88,-70.68 391.14,-34.24"/>
<polygon fill="midnightblue" stroke="midnightblue" points="393.97,-32.14 385.9,-25.28 387.93,-35.68 393.97,-32.14"/>
</g>
<!-- Node21 -->
<g id="node21" class="node">
<title>Node21</title>
<g id="a_node21"><a xlink:title=" ">
<polygon fill="white" stroke="#bfbfbf" points="466,-6 466,-25 604,-25 604,-6 466,-6"/>
<text text-anchor="middle" x="535" y="-13" font-family="Helvetica,sans-Serif" font-size="10.00">allegro5/allegro_image.h</text>
</a>
</g>
</g>
<!-- Node9&#45;&gt;Node21 -->
<g id="edge22" class="edge">
<title>Node9&#45;&gt;Node21</title>
<path fill="none" stroke="midnightblue" d="M680.27,-235.36C657.93,-201.72 576.55,-79.1 546.36,-33.62"/>
<polygon fill="midnightblue" stroke="midnightblue" points="549.19,-31.55 540.74,-25.15 543.35,-35.42 549.19,-31.55"/>
</g>
<!-- Node22 -->
<g id="node22" class="node">
<title>Node22</title>
<g id="a_node22"><a xlink:title=" ">
<polygon fill="white" stroke="#bfbfbf" points="622.5,-0.5 622.5,-30.5 751.5,-30.5 751.5,-0.5 622.5,-0.5"/>
<text text-anchor="start" x="630.5" y="-18.5" font-family="Helvetica,sans-Serif" font-size="10.00">allegro5/allegro_native</text>
<text text-anchor="middle" x="687" y="-7.5" font-family="Helvetica,sans-Serif" font-size="10.00">_dialog.h</text>
</a>
</g>
</g>
<!-- Node9&#45;&gt;Node22 -->
<g id="edge23" class="edge">
<title>Node9&#45;&gt;Node22</title>
<path fill="none" stroke="midnightblue" d="M686.04,-235.36C686.18,-203.37 686.67,-90.91 686.89,-40.85"/>
<polygon fill="midnightblue" stroke="midnightblue" points="690.39,-40.64 686.94,-30.62 683.39,-40.61 690.39,-40.64"/>
</g>
<!-- Node23 -->
<g id="node23" class="node">
<title>Node23</title>
<g id="a_node23"><a xlink:title=" ">
<polygon fill="white" stroke="#bfbfbf" points="809,-179.5 809,-198.5 949,-198.5 949,-179.5 809,-179.5"/>
<text text-anchor="middle" x="879" y="-186.5" font-family="Helvetica,sans-Serif" font-size="10.00">allegro5/allegro_physfs.h</text>
</a>
</g>
</g>
<!-- Node9&#45;&gt;Node23 -->
<g id="edge24" class="edge">
<title>Node9&#45;&gt;Node23</title>
<path fill="none" stroke="midnightblue" d="M712.84,-236.49C745.54,-227.34 801.11,-211.79 838.9,-201.22"/>
<polygon fill="midnightblue" stroke="midnightblue" points="839.89,-204.58 848.58,-198.51 838.01,-197.84 839.89,-204.58"/>
</g>
<!-- Node24 -->
<g id="node24" class="node">
<title>Node24</title>
<g id="a_node24"><a xlink:title=" ">
<polygon fill="white" stroke="#bfbfbf" points="1026.5,-6 1026.5,-25 1183.5,-25 1183.5,-6 1026.5,-6"/>
<text text-anchor="middle" x="1105" y="-13" font-family="Helvetica,sans-Serif" font-size="10.00">allegro5/allegro_primitives.h</text>
</a>
</g>
</g>
<!-- Node9&#45;&gt;Node24 -->
<g id="edge25" class="edge">
<title>Node9&#45;&gt;Node24</title>
<path fill="none" stroke="midnightblue" d="M712.72,-242.34C773.1,-238.17 917.91,-225.59 958,-199 991.29,-176.92 981.63,-154.66 1006,-123 1032.51,-88.57 1068.13,-52.28 1088.63,-32.21"/>
<polygon fill="midnightblue" stroke="midnightblue" points="1091.2,-34.59 1095.93,-25.11 1086.32,-29.57 1091.2,-34.59"/>
</g>
<!-- Node25 -->
<g id="node25" class="node">
<title>Node25</title>
<g id="a_node25"><a xlink:title=" ">
<polygon fill="white" stroke="#bfbfbf" points="770,-6 770,-25 888,-25 888,-6 770,-6"/>
<text text-anchor="middle" x="829" y="-13" font-family="Helvetica,sans-Serif" font-size="10.00">allegro5/allegro_ttf.h</text>
</a>
</g>
</g>
<!-- Node9&#45;&gt;Node25 -->
<g id="edge26" class="edge">
<title>Node9&#45;&gt;Node25</title>
<path fill="none" stroke="midnightblue" d="M688.47,-235.13C696.39,-207.87 723.17,-123.68 767,-67 778.04,-52.72 793.86,-39.92 806.75,-30.78"/>
<polygon fill="midnightblue" stroke="midnightblue" points="808.83,-33.6 815.12,-25.07 804.88,-27.82 808.83,-33.6"/>
</g>
<!-- Node26 -->
<g id="node26" class="node">
<title>Node26</title>
<g id="a_node26"><a xlink:href="assets_8hpp.html" target="_top" xlink:title="Declara classes utilitárias para carregar e usar imagens, sons e fontes no Allegro.">
<polygon fill="white" stroke="black" points="607.5,-67.5 607.5,-86.5 676.5,-86.5 676.5,-67.5 607.5,-67.5"/>
<text text-anchor="middle" x="642" y="-74.5" font-family="Helvetica,sans-Serif" font-size="10.00">assets.hpp</text>
</a>
</g>
</g>
<!-- Node9&#45;&gt;Node26 -->
<g id="edge28" class="edge">
<title>Node9&#45;&gt;Node26</title>
<path fill="none" stroke="midnightblue" d="M683.63,-235.08C676.71,-208.95 656.37,-132.21 646.92,-96.58"/>
<polygon fill="midnightblue" stroke="midnightblue" points="650.22,-95.34 644.27,-86.57 643.45,-97.13 650.22,-95.34"/>
</g>
<!-- Node27 -->
<g id="node27" class="node">
<title>Node27</title>
<g id="a_node27"><a xlink:href="player_8hpp.html" target="_top" xlink:title="Modela um jogador e operações de ranking.">
<polygon fill="white" stroke="black" points="1085,-179.5 1085,-198.5 1153,-198.5 1153,-179.5 1085,-179.5"/>
<text text-anchor="middle" x="1119" y="-186.5" font-family="Helvetica,sans-Serif" font-size="10.00">player.hpp</text>
</a>
</g>
</g>
<!-- Node9&#45;&gt;Node27 -->
<g id="edge40" class="edge">
<title>Node9&#45;&gt;Node27</title>
<path fill="none" stroke="midnightblue" d="M712.58,-241.35C774.96,-235.54 934.46,-220.47 1067,-199 1069.59,-198.58 1072.27,-198.11 1074.97,-197.61"/>
<polygon fill="midnightblue" stroke="midnightblue" points="1075.68,-201.04 1084.84,-195.72 1074.36,-194.17 1075.68,-201.04"/>
</g>
<!-- Node28 -->
<g id="node28" class="node">
<title>Node28</title>
<g id="a_node28"><a xlink:href="state_8hpp.html" target="_top" xlink:title="Interface base para estados da máquina de estados do jogo.">
<polygon fill="white" stroke="black" points="1005,-179.5 1005,-198.5 1067,-198.5 1067,-179.5 1005,-179.5"/>
<text text-anchor="middle" x="1036" y="-186.5" font-family="Helvetica,sans-Serif" font-size="10.00">state.hpp</text>
</a>
</g>
</g>
<!-- Node9&#45;&gt;Node28 -->
<g id="edge42" class="edge">
<title>Node9&#45;&gt;Node28</title>
<path fill="none" stroke="midnightblue" d="M712.59,-240.54C765.66,-233.53 888.43,-216.81 991,-199 992.1,-198.81 993.21,-198.61 994.34,-198.41"/>
<polygon fill="midnightblue" stroke="midnightblue" points="995.38,-201.78 1004.57,-196.5 994.09,-194.9 995.38,-201.78"/>
</g>
<!-- Node26&#45;&gt;Node7 -->
<g id="edge31" class="edge">
<title>Node26&#45;&gt;Node7</title>
<path fill="none" stroke="midnightblue" d="M676.54,-75.12C789.45,-72.01 1146.72,-60.03 1258,-31 1259.98,-30.48 1262,-29.84 1263.99,-29.12"/>
<polygon fill="midnightblue" stroke="midnightblue" points="1265.8,-32.15 1273.65,-25.03 1263.07,-25.71 1265.8,-32.15"/>
</g>
<!-- Node26&#45;&gt;Node13 -->
<g id="edge29" class="edge">
<title>Node26&#45;&gt;Node13</title>
<path fill="none" stroke="midnightblue" d="M607.28,-76.6C517.23,-77.43 269.24,-75.18 69,-31 65.92,-30.32 62.77,-29.45 59.64,-28.48"/>
<polygon fill="midnightblue" stroke="midnightblue" points="60.52,-25.08 49.92,-25.12 58.23,-31.69 60.52,-25.08"/>
</g>
<!-- Node26&#45;&gt;Node16 -->
<g id="edge30" class="edge">
<title>Node26&#45;&gt;Node16</title>
<path fill="none" stroke="midnightblue" d="M607.44,-76.1C525.85,-75.65 315.29,-70.41 145,-31 142,-30.31 138.92,-29.43 135.88,-28.45"/>
<polygon fill="midnightblue" stroke="midnightblue" points="137,-25.13 126.4,-25.08 134.65,-31.73 137,-25.13"/>
</g>
<!-- Node26&#45;&gt;Node18 -->
<g id="edge32" class="edge">
<title>Node26&#45;&gt;Node18</title>
<path fill="none" stroke="midnightblue" d="M676.78,-70.57C725.99,-62.72 818.67,-47.36 897,-31 902.38,-29.88 908,-28.62 913.57,-27.33"/>
<polygon fill="midnightblue" stroke="midnightblue" points="914.52,-30.71 923.45,-25 912.91,-23.89 914.52,-30.71"/>
</g>
<!-- Node26&#45;&gt;Node19 -->
<g id="edge33" class="edge">
<title>Node26&#45;&gt;Node19</title>
<path fill="none" stroke="midnightblue" d="M607.48,-71.93C546.37,-64.6 415.2,-48.34 305,-31 296.97,-29.74 288.51,-28.31 280.21,-26.85"/>
<polygon fill="midnightblue" stroke="midnightblue" points="280.67,-23.38 270.21,-25.07 279.44,-30.27 280.67,-23.38"/>
</g>
<!-- Node26&#45;&gt;Node20 -->
<g id="edge34" class="edge">
<title>Node26&#45;&gt;Node20</title>
<path fill="none" stroke="midnightblue" d="M607.34,-68.1C561.32,-57.61 479.86,-39.04 428.24,-27.27"/>
<polygon fill="midnightblue" stroke="midnightblue" points="428.86,-23.82 418.34,-25.01 427.31,-30.65 428.86,-23.82"/>
</g>
<!-- Node26&#45;&gt;Node21 -->
<g id="edge35" class="edge">
<title>Node26&#45;&gt;Node21</title>
<path fill="none" stroke="midnightblue" d="M626.67,-67.48C609.03,-57.67 579.84,-41.43 559.14,-29.92"/>
<polygon fill="midnightblue" stroke="midnightblue" points="560.74,-26.81 550.3,-25.01 557.34,-32.93 560.74,-26.81"/>
</g>
<!-- Node26&#45;&gt;Node22 -->
<g id="edge36" class="edge">
<title>Node26&#45;&gt;Node22</title>
<path fill="none" stroke="midnightblue" d="M648.45,-67.48C654.14,-59.94 662.7,-48.63 670.31,-38.57"/>
<polygon fill="midnightblue" stroke="midnightblue" points="673.15,-40.61 676.39,-30.52 667.57,-36.39 673.15,-40.61"/>
</g>
<!-- Node26&#45;&gt;Node24 -->
<g id="edge37" class="edge">
<title>Node26&#45;&gt;Node24</title>
<path fill="none" stroke="midnightblue" d="M676.71,-72.35C742.97,-65.27 892.03,-48.78 1017,-31 1026.33,-29.67 1036.2,-28.16 1045.82,-26.62"/>
<polygon fill="midnightblue" stroke="midnightblue" points="1046.41,-30.07 1055.72,-25.01 1045.29,-23.16 1046.41,-30.07"/>
</g>
<!-- Node26&#45;&gt;Node25 -->
<g id="edge38" class="edge">
<title>Node26&#45;&gt;Node25</title>
<path fill="none" stroke="midnightblue" d="M668.79,-67.48C701.29,-57.14 756.21,-39.66 792.54,-28.1"/>
<polygon fill="midnightblue" stroke="midnightblue" points="793.79,-31.38 802.26,-25.01 791.67,-24.71 793.79,-31.38"/>
</g>
<!-- Node27&#45;&gt;Node9 -->
<g id="edge41" class="edge">
<title>Node27&#45;&gt;Node9</title>
<path fill="none" stroke="midnightblue" d="M1087.74,-198.54C1086.82,-198.7 1085.9,-198.85 1085,-199 952.85,-220.41 793.9,-235.46 723,-241.3"/>
<polygon fill="midnightblue" stroke="midnightblue" points="722.48,-237.83 712.8,-242.13 723.05,-244.81 722.48,-237.83"/>
</g>
<!-- Node28&#45;&gt;Node5 -->
<g id="edge44" class="edge">
<title>Node28&#45;&gt;Node5</title>
<path fill="none" stroke="midnightblue" d="M1050.75,-179.37C1083.29,-160.33 1161.42,-114.62 1200.67,-91.65"/>
<polygon fill="midnightblue" stroke="midnightblue" points="1202.45,-94.66 1209.32,-86.59 1198.92,-88.62 1202.45,-94.66"/>
</g>
<!-- Node28&#45;&gt;Node18 -->
<g id="edge43" class="edge">
<title>Node28&#45;&gt;Node18</title>
<path fill="none" stroke="midnightblue" d="M1029.43,-179.39C1022.91,-170.58 1012.92,-156.33 1006,-143 986.81,-106.04 970.75,-59.78 962.66,-34.71"/>
<polygon fill="midnightblue" stroke="midnightblue" points="965.96,-33.54 959.6,-25.06 959.28,-35.65 965.96,-33.54"/>
</g>
<!-- Node29 -->
<g id="node29" class="node">
<title>Node29</title>
<g id="a_node29"><a xlink:href="motion_8hpp.html" target="_top" xlink:title="Gerencia efeitos de parallax e animações de cenário.">
<polygon fill="white" stroke="black" points="1015,-123.5 1015,-142.5 1087,-142.5 1087,-123.5 1015,-123.5"/>
<text text-anchor="middle" x="1051" y="-130.5" font-family="Helvetica,sans-Serif" font-size="10.00">motion.hpp</text>
</a>
</g>
</g>
<!-- Node28&#45;&gt;Node29 -->
<g id="edge45" class="edge">
<title>Node28&#45;&gt;Node29</title>
<path fill="none" stroke="midnightblue" d="M1038.48,-179.08C1040.49,-171.85 1043.39,-161.41 1045.89,-152.4"/>
<polygon fill="midnightblue" stroke="midnightblue" points="1049.26,-153.32 1048.57,-142.75 1042.52,-151.45 1049.26,-153.32"/>
</g>
<!-- Node29&#45;&gt;Node5 -->
<g id="edge48" class="edge">
<title>Node29&#45;&gt;Node5</title>
<path fill="none" stroke="midnightblue" d="M1078.41,-123.44C1107.77,-114.28 1154.52,-99.69 1187.1,-89.52"/>
<polygon fill="midnightblue" stroke="midnightblue" points="1188.21,-92.84 1196.72,-86.52 1186.13,-86.16 1188.21,-92.84"/>
</g>
<!-- Node29&#45;&gt;Node24 -->
<g id="edge46" class="edge">
<title>Node29&#45;&gt;Node24</title>
<path fill="none" stroke="midnightblue" d="M1055.06,-123.32C1063.85,-104.51 1084.83,-59.65 1096.61,-34.46"/>
<polygon fill="midnightblue" stroke="midnightblue" points="1099.83,-35.82 1100.89,-25.28 1093.49,-32.86 1099.83,-35.82"/>
</g>
<!-- Node29&#45;&gt;Node26 -->
<g id="edge47" class="edge">
<title>Node29&#45;&gt;Node26</title>
<path fill="none" stroke="midnightblue" d="M1014.7,-127.21C939.8,-117.32 768.31,-94.68 686.72,-83.9"/>
<polygon fill="midnightblue" stroke="midnightblue" points="687.13,-80.43 676.76,-82.59 686.22,-87.37 687.13,-80.43"/>
</g>
</g>
</svg>
