<?xml version="1.0" encoding="UTF-8" standalone="no"?>
<!DOCTYPE svg PUBLIC "-//W3C//DTD SVG 1.1//EN"
 "http://www.w3.org/Graphics/SVG/1.1/DTD/svg11.dtd">
<!-- Generated by graphviz version 2.43.0 (0)
 -->
<!-- Title: src/states/play.cpp Pages: 1 -->
<svg width="1901pt" height="565pt"
 viewBox="0.00 0.00 1900.50 565.00" xmlns="http://www.w3.org/2000/svg" xmlns:xlink="http://www.w3.org/1999/xlink">
<g id="graph0" class="graph" transform="scale(1 1) rotate(0) translate(4 561)">
<title>src/states/play.cpp</title>
<polygon fill="white" stroke="transparent" points="-4,4 -4,-561 1896.5,-561 1896.5,4 -4,4"/>
<!-- Node1 -->
<g id="node1" class="node">
<title>Node1</title>
<g id="a_node1"><a xlink:title="Implementacao da classe Play.">
<polygon fill="#bfbfbf" stroke="black" points="457,-537.5 457,-556.5 564,-556.5 564,-537.5 457,-537.5"/>
<text text-anchor="middle" x="510.5" y="-544.5" font-family="Helvetica,sans-Serif" font-size="10.00">src/states/play.cpp</text>
</a>
</g>
</g>
<!-- Node2 -->
<g id="node2" class="node">
<title>Node2</title>
<g id="a_node2"><a xlink:href="play_8hpp.html" target="_top" xlink:title="Declaracao da classe Play, responsavel pelo estado de jogo ativo.">
<polygon fill="white" stroke="black" points="499,-470.5 499,-500.5 602,-500.5 602,-470.5 499,-470.5"/>
<text text-anchor="start" x="507" y="-488.5" font-family="Helvetica,sans-Serif" font-size="10.00">../../include/states</text>
<text text-anchor="middle" x="550.5" y="-477.5" font-family="Helvetica,sans-Serif" font-size="10.00">/play.hpp</text>
</a>
</g>
</g>
<!-- Node1&#45;&gt;Node2 -->
<g id="edge1" class="edge">
<title>Node1&#45;&gt;Node2</title>
<path fill="none" stroke="midnightblue" d="M516.23,-537.48C521.24,-530.02 528.75,-518.85 535.46,-508.87"/>
<polygon fill="midnightblue" stroke="midnightblue" points="538.4,-510.77 541.07,-500.52 532.59,-506.87 538.4,-510.77"/>
</g>
<!-- Node34 -->
<g id="node34" class="node">
<title>Node34</title>
<g id="a_node34"><a xlink:href="main__menu_8hpp.html" target="_top" xlink:title="Definição da classe MainMenu, o estado que representa o menu principal do jogo.">
<polygon fill="white" stroke="black" points="419,-291.5 419,-321.5 522,-321.5 522,-291.5 419,-291.5"/>
<text text-anchor="start" x="427" y="-309.5" font-family="Helvetica,sans-Serif" font-size="10.00">../../include/states</text>
<text text-anchor="middle" x="470.5" y="-298.5" font-family="Helvetica,sans-Serif" font-size="10.00">/main_menu.hpp</text>
</a>
</g>
</g>
<!-- Node1&#45;&gt;Node34 -->
<g id="edge64" class="edge">
<title>Node1&#45;&gt;Node34</title>
<path fill="none" stroke="midnightblue" d="M505.39,-537.37C500.44,-528.56 493.14,-514.3 489.5,-501 473.34,-441.99 470.54,-369.54 470.28,-332.27"/>
<polygon fill="midnightblue" stroke="midnightblue" points="473.78,-331.88 470.27,-321.88 466.78,-331.88 473.78,-331.88"/>
</g>
<!-- Node3 -->
<g id="node3" class="node">
<title>Node3</title>
<g id="a_node3"><a xlink:href="flappy__bird__controller_8hpp.html" target="_top" xlink:title="Declaracao da classe FlappyBird (controlador principal).">
<polygon fill="white" stroke="black" points="1393.5,-414.5 1393.5,-433.5 1545.5,-433.5 1545.5,-414.5 1393.5,-414.5"/>
<text text-anchor="middle" x="1469.5" y="-421.5" font-family="Helvetica,sans-Serif" font-size="10.00">../flappy_bird_controller.hpp</text>
</a>
</g>
</g>
<!-- Node2&#45;&gt;Node3 -->
<g id="edge2" class="edge">
<title>Node2&#45;&gt;Node3</title>
<path fill="none" stroke="midnightblue" d="M602.21,-481.15C753.34,-471.37 1195.44,-442.74 1383.37,-430.58"/>
<polygon fill="midnightblue" stroke="midnightblue" points="1383.73,-434.06 1393.49,-429.92 1383.28,-427.08 1383.73,-434.06"/>
</g>
<!-- Node30 -->
<g id="node30" class="node">
<title>Node30</title>
<g id="a_node30"><a xlink:href="state_8hpp.html" target="_top" xlink:title="Interface base para estados da máquina de estados do jogo.">
<polygon fill="white" stroke="black" points="457.5,-179.5 457.5,-198.5 519.5,-198.5 519.5,-179.5 457.5,-179.5"/>
<text text-anchor="middle" x="488.5" y="-186.5" font-family="Helvetica,sans-Serif" font-size="10.00">state.hpp</text>
</a>
</g>
</g>
<!-- Node2&#45;&gt;Node30 -->
<g id="edge63" class="edge">
<title>Node2&#45;&gt;Node30</title>
<path fill="none" stroke="midnightblue" d="M550.5,-470.28C550.5,-448.48 550.5,-405.49 550.5,-369 550.5,-369 550.5,-369 550.5,-305.5 550.5,-266.3 522.43,-227.55 504.06,-206.4"/>
<polygon fill="midnightblue" stroke="midnightblue" points="506.42,-203.79 497.12,-198.71 501.22,-208.48 506.42,-203.79"/>
</g>
<!-- Node4 -->
<g id="node4" class="node">
<title>Node4</title>
<g id="a_node4"><a xlink:title=" ">
<polygon fill="white" stroke="#bfbfbf" points="1404.5,-6 1404.5,-25 1462.5,-25 1462.5,-6 1404.5,-6"/>
<text text-anchor="middle" x="1433.5" y="-13" font-family="Helvetica,sans-Serif" font-size="10.00">memory</text>
</a>
</g>
</g>
<!-- Node3&#45;&gt;Node4 -->
<g id="edge3" class="edge">
<title>Node3&#45;&gt;Node4</title>
<path fill="none" stroke="midnightblue" d="M1479.88,-414.41C1490.78,-405.38 1508.39,-390.74 1523.5,-378 1569.05,-339.59 1578.21,-327.25 1625.5,-291 1682.84,-247.06 1725.85,-262.92 1759.5,-199 1763.64,-191.13 1763.25,-187.06 1759.5,-179 1707.78,-67.83 1547.42,-31.84 1472.63,-20.92"/>
<polygon fill="midnightblue" stroke="midnightblue" points="1473.06,-17.45 1462.67,-19.54 1472.1,-24.38 1473.06,-17.45"/>
</g>
<!-- Node5 -->
<g id="node5" class="node">
<title>Node5</title>
<g id="a_node5"><a xlink:href="assets_8hpp.html" target="_top" xlink:title="Declara classes utilitárias para carregar e usar imagens, sons e fontes no Allegro.">
<polygon fill="white" stroke="black" points="567,-67.5 567,-86.5 636,-86.5 636,-67.5 567,-67.5"/>
<text text-anchor="middle" x="601.5" y="-74.5" font-family="Helvetica,sans-Serif" font-size="10.00">assets.hpp</text>
</a>
</g>
</g>
<!-- Node3&#45;&gt;Node5 -->
<g id="edge4" class="edge">
<title>Node3&#45;&gt;Node5</title>
<path fill="none" stroke="midnightblue" d="M1393.24,-420.96C1179.22,-414.23 588.5,-388.34 588.5,-307.5 588.5,-307.5 588.5,-307.5 588.5,-188 588.5,-155.58 594.14,-118.15 597.99,-96.37"/>
<polygon fill="midnightblue" stroke="midnightblue" points="601.43,-96.99 599.8,-86.52 594.55,-95.72 601.43,-96.99"/>
</g>
<!-- Node15 -->
<g id="node15" class="node">
<title>Node15</title>
<g id="a_node15"><a xlink:href="bird_8hpp.html" target="_top" xlink:title="Declaracao da classe Bird (personagem controlavel).">
<polygon fill="white" stroke="black" points="1441.5,-358.5 1441.5,-377.5 1497.5,-377.5 1497.5,-358.5 1441.5,-358.5"/>
<text text-anchor="middle" x="1469.5" y="-365.5" font-family="Helvetica,sans-Serif" font-size="10.00">bird.hpp</text>
</a>
</g>
</g>
<!-- Node3&#45;&gt;Node15 -->
<g id="edge15" class="edge">
<title>Node3&#45;&gt;Node15</title>
<path fill="none" stroke="midnightblue" d="M1469.5,-414.08C1469.5,-407.01 1469.5,-396.86 1469.5,-387.99"/>
<polygon fill="midnightblue" stroke="midnightblue" points="1473,-387.75 1469.5,-377.75 1466,-387.75 1473,-387.75"/>
</g>
<!-- Node16 -->
<g id="node16" class="node">
<title>Node16</title>
<g id="a_node16"><a xlink:href="defines_8hpp.html" target="_top" xlink:title="Constantes globais, macros e estruturas auxiliares do jogo.">
<polygon fill="white" stroke="black" points="1544,-67.5 1544,-86.5 1617,-86.5 1617,-67.5 1544,-67.5"/>
<text text-anchor="middle" x="1580.5" y="-74.5" font-family="Helvetica,sans-Serif" font-size="10.00">defines.hpp</text>
</a>
</g>
</g>
<!-- Node3&#45;&gt;Node16 -->
<g id="edge52" class="edge">
<title>Node3&#45;&gt;Node16</title>
<path fill="none" stroke="midnightblue" d="M1545.56,-415.76C1657.76,-402.94 1854.5,-371.35 1854.5,-307.5 1854.5,-307.5 1854.5,-307.5 1854.5,-244 1854.5,-176.98 1820.36,-160.04 1764.5,-123 1723.24,-95.64 1666.87,-84.9 1627.44,-80.69"/>
<polygon fill="midnightblue" stroke="midnightblue" points="1627.59,-77.19 1617.3,-79.71 1626.91,-84.15 1627.59,-77.19"/>
</g>
<!-- Node19 -->
<g id="node19" class="node">
<title>Node19</title>
<g id="a_node19"><a xlink:href="game__object_8hpp.html" target="_top" xlink:title="Classe base abstrata para todos os objetos renderizáveis.">
<polygon fill="white" stroke="black" points="1363,-297 1363,-316 1464,-316 1464,-297 1363,-297"/>
<text text-anchor="middle" x="1413.5" y="-304" font-family="Helvetica,sans-Serif" font-size="10.00">game_object.hpp</text>
</a>
</g>
</g>
<!-- Node3&#45;&gt;Node19 -->
<g id="edge53" class="edge">
<title>Node3&#45;&gt;Node19</title>
<path fill="none" stroke="midnightblue" d="M1460.28,-414.19C1451.88,-405.67 1439.73,-392.03 1432.5,-378 1423.99,-361.48 1418.99,-340.75 1416.28,-326.06"/>
<polygon fill="midnightblue" stroke="midnightblue" points="1419.73,-325.46 1414.63,-316.17 1412.82,-326.61 1419.73,-325.46"/>
</g>
<!-- Node20 -->
<g id="node20" class="node">
<title>Node20</title>
<g id="a_node20"><a xlink:href="init_8hpp.html" target="_top" xlink:title="Declara funções de inicialização e finalização do Allegro.">
<polygon fill="white" stroke="black" points="984,-235.5 984,-254.5 1037,-254.5 1037,-235.5 984,-235.5"/>
<text text-anchor="middle" x="1010.5" y="-242.5" font-family="Helvetica,sans-Serif" font-size="10.00">init.hpp</text>
</a>
</g>
</g>
<!-- Node3&#45;&gt;Node20 -->
<g id="edge54" class="edge">
<title>Node3&#45;&gt;Node20</title>
<path fill="none" stroke="midnightblue" d="M1447.36,-414.46C1372.61,-385.64 1129.38,-291.84 1042.07,-258.17"/>
<polygon fill="midnightblue" stroke="midnightblue" points="1043.27,-254.89 1032.68,-254.55 1040.76,-261.42 1043.27,-254.89"/>
</g>
<!-- Node29 -->
<g id="node29" class="node">
<title>Node29</title>
<g id="a_node29"><a xlink:href="player_8hpp.html" target="_top" xlink:title="Modela um jogador e operações de ranking.">
<polygon fill="white" stroke="black" points="1484.5,-179.5 1484.5,-198.5 1552.5,-198.5 1552.5,-179.5 1484.5,-179.5"/>
<text text-anchor="middle" x="1518.5" y="-186.5" font-family="Helvetica,sans-Serif" font-size="10.00">player.hpp</text>
</a>
</g>
</g>
<!-- Node3&#45;&gt;Node29 -->
<g id="edge62" class="edge">
<title>Node3&#45;&gt;Node29</title>
<path fill="none" stroke="midnightblue" d="M1479.37,-414.48C1488.23,-406.18 1500.71,-392.68 1506.5,-378 1529.48,-319.78 1524.81,-243.55 1520.99,-208.77"/>
<polygon fill="midnightblue" stroke="midnightblue" points="1524.44,-208.15 1519.76,-198.65 1517.49,-208.99 1524.44,-208.15"/>
</g>
<!-- Node32 -->
<g id="node32" class="node">
<title>Node32</title>
<g id="a_node32"><a xlink:href="pipe_8hpp.html" target="_top" xlink:title="Declaration of pipe&#45;related classes (Pipe, PipePair, PipeList).">
<polygon fill="white" stroke="black" points="1635,-358.5 1635,-377.5 1694,-377.5 1694,-358.5 1635,-358.5"/>
<text text-anchor="middle" x="1664.5" y="-365.5" font-family="Helvetica,sans-Serif" font-size="10.00">pipe.hpp</text>
</a>
</g>
</g>
<!-- Node3&#45;&gt;Node32 -->
<g id="edge55" class="edge">
<title>Node3&#45;&gt;Node32</title>
<path fill="none" stroke="midnightblue" d="M1500.4,-414.44C1534.07,-405.12 1588.04,-390.17 1624.82,-379.99"/>
<polygon fill="midnightblue" stroke="midnightblue" points="1626,-383.29 1634.71,-377.25 1624.13,-376.55 1626,-383.29"/>
</g>
<!-- Node5&#45;&gt;Node4 -->
<g id="edge6" class="edge">
<title>Node5&#45;&gt;Node4</title>
<path fill="none" stroke="midnightblue" d="M636.28,-75.45C769.52,-73.11 1247.32,-62.67 1395.5,-31 1398.58,-30.34 1401.73,-29.47 1404.85,-28.49"/>
<polygon fill="midnightblue" stroke="midnightblue" points="1406.27,-31.7 1414.52,-25.06 1403.92,-25.1 1406.27,-31.7"/>
</g>
<!-- Node6 -->
<g id="node6" class="node">
<title>Node6</title>
<g id="a_node6"><a xlink:title=" ">
<polygon fill="white" stroke="#bfbfbf" points="1163.5,-6 1163.5,-25 1223.5,-25 1223.5,-6 1163.5,-6"/>
<text text-anchor="middle" x="1193.5" y="-13" font-family="Helvetica,sans-Serif" font-size="10.00">iostream</text>
</a>
</g>
</g>
<!-- Node5&#45;&gt;Node6 -->
<g id="edge5" class="edge">
<title>Node5&#45;&gt;Node6</title>
<path fill="none" stroke="midnightblue" d="M636.32,-72.5C739.57,-62.12 1043.63,-31.56 1153.4,-20.53"/>
<polygon fill="midnightblue" stroke="midnightblue" points="1153.8,-24.01 1163.4,-19.52 1153.1,-17.04 1153.8,-24.01"/>
</g>
<!-- Node7 -->
<g id="node7" class="node">
<title>Node7</title>
<g id="a_node7"><a xlink:title=" ">
<polygon fill="white" stroke="#bfbfbf" points="1342.5,-6 1342.5,-25 1386.5,-25 1386.5,-6 1342.5,-6"/>
<text text-anchor="middle" x="1364.5" y="-13" font-family="Helvetica,sans-Serif" font-size="10.00">string</text>
</a>
</g>
</g>
<!-- Node5&#45;&gt;Node7 -->
<g id="edge7" class="edge">
<title>Node5&#45;&gt;Node7</title>
<path fill="none" stroke="midnightblue" d="M636.08,-74C731.28,-68.39 1005.26,-51.58 1232.5,-31 1266.55,-27.92 1305.45,-23.54 1332.16,-20.4"/>
<polygon fill="midnightblue" stroke="midnightblue" points="1332.59,-23.88 1342.1,-19.22 1331.76,-16.92 1332.59,-23.88"/>
</g>
<!-- Node8 -->
<g id="node8" class="node">
<title>Node8</title>
<g id="a_node8"><a xlink:title=" ">
<polygon fill="white" stroke="#bfbfbf" points="487.5,-6 487.5,-25 589.5,-25 589.5,-6 487.5,-6"/>
<text text-anchor="middle" x="538.5" y="-13" font-family="Helvetica,sans-Serif" font-size="10.00">allegro5/allegro.h</text>
</a>
</g>
</g>
<!-- Node5&#45;&gt;Node8 -->
<g id="edge8" class="edge">
<title>Node5&#45;&gt;Node8</title>
<path fill="none" stroke="midnightblue" d="M592.47,-67.48C582.74,-58.28 567.04,-43.46 555.08,-32.16"/>
<polygon fill="midnightblue" stroke="midnightblue" points="557.18,-29.33 547.51,-25.01 552.38,-34.42 557.18,-29.33"/>
</g>
<!-- Node9 -->
<g id="node9" class="node">
<title>Node9</title>
<g id="a_node9"><a xlink:title=" ">
<polygon fill="white" stroke="#bfbfbf" points="175.5,-6 175.5,-25 317.5,-25 317.5,-6 175.5,-6"/>
<text text-anchor="middle" x="246.5" y="-13" font-family="Helvetica,sans-Serif" font-size="10.00">allegro5/allegro_acodec.h</text>
</a>
</g>
</g>
<!-- Node5&#45;&gt;Node9 -->
<g id="edge9" class="edge">
<title>Node5&#45;&gt;Node9</title>
<path fill="none" stroke="midnightblue" d="M566.74,-70.51C514.53,-62.21 412.79,-45.88 326.5,-31 318.87,-29.68 310.84,-28.27 302.93,-26.85"/>
<polygon fill="midnightblue" stroke="midnightblue" points="303.47,-23.39 293.01,-25.07 302.23,-30.28 303.47,-23.39"/>
</g>
<!-- Node10 -->
<g id="node10" class="node">
<title>Node10</title>
<g id="a_node10"><a xlink:title=" ">
<polygon fill="white" stroke="#bfbfbf" points="335.5,-6 335.5,-25 469.5,-25 469.5,-6 335.5,-6"/>
<text text-anchor="middle" x="402.5" y="-13" font-family="Helvetica,sans-Serif" font-size="10.00">allegro5/allegro_audio.h</text>
</a>
</g>
</g>
<!-- Node5&#45;&gt;Node10 -->
<g id="edge10" class="edge">
<title>Node5&#45;&gt;Node10</title>
<path fill="none" stroke="midnightblue" d="M572.99,-67.48C538.26,-57.09 479.46,-39.51 440.81,-27.95"/>
<polygon fill="midnightblue" stroke="midnightblue" points="441.54,-24.52 430.96,-25.01 439.54,-31.23 441.54,-24.52"/>
</g>
<!-- Node11 -->
<g id="node11" class="node">
<title>Node11</title>
<g id="a_node11"><a xlink:title=" ">
<polygon fill="white" stroke="#bfbfbf" points="607.5,-6 607.5,-25 745.5,-25 745.5,-6 607.5,-6"/>
<text text-anchor="middle" x="676.5" y="-13" font-family="Helvetica,sans-Serif" font-size="10.00">allegro5/allegro_image.h</text>
</a>
</g>
</g>
<!-- Node5&#45;&gt;Node11 -->
<g id="edge11" class="edge">
<title>Node5&#45;&gt;Node11</title>
<path fill="none" stroke="midnightblue" d="M612.25,-67.48C624.05,-58.11 643.24,-42.88 657.58,-31.51"/>
<polygon fill="midnightblue" stroke="midnightblue" points="660.12,-33.97 665.77,-25.01 655.76,-28.48 660.12,-33.97"/>
</g>
<!-- Node12 -->
<g id="node12" class="node">
<title>Node12</title>
<g id="a_node12"><a xlink:title=" ">
<polygon fill="white" stroke="#bfbfbf" points="764,-0.5 764,-30.5 893,-30.5 893,-0.5 764,-0.5"/>
<text text-anchor="start" x="772" y="-18.5" font-family="Helvetica,sans-Serif" font-size="10.00">allegro5/allegro_native</text>
<text text-anchor="middle" x="828.5" y="-7.5" font-family="Helvetica,sans-Serif" font-size="10.00">_dialog.h</text>
</a>
</g>
</g>
<!-- Node5&#45;&gt;Node12 -->
<g id="edge12" class="edge">
<title>Node5&#45;&gt;Node12</title>
<path fill="none" stroke="midnightblue" d="M634.02,-67.48C668.14,-58.53 722.64,-44.25 765.27,-33.07"/>
<polygon fill="midnightblue" stroke="midnightblue" points="766.21,-36.44 775,-30.52 764.44,-29.67 766.21,-36.44"/>
</g>
<!-- Node13 -->
<g id="node13" class="node">
<title>Node13</title>
<g id="a_node13"><a xlink:title=" ">
<polygon fill="white" stroke="#bfbfbf" points="0,-6 0,-25 157,-25 157,-6 0,-6"/>
<text text-anchor="middle" x="78.5" y="-13" font-family="Helvetica,sans-Serif" font-size="10.00">allegro5/allegro_primitives.h</text>
</a>
</g>
</g>
<!-- Node5&#45;&gt;Node13 -->
<g id="edge13" class="edge">
<title>Node5&#45;&gt;Node13</title>
<path fill="none" stroke="midnightblue" d="M566.74,-73.12C492.88,-66.84 314.93,-50.89 166.5,-31 156.93,-29.72 146.81,-28.2 136.96,-26.64"/>
<polygon fill="midnightblue" stroke="midnightblue" points="137.27,-23.14 126.84,-25 136.15,-30.05 137.27,-23.14"/>
</g>
<!-- Node14 -->
<g id="node14" class="node">
<title>Node14</title>
<g id="a_node14"><a xlink:title=" ">
<polygon fill="white" stroke="#bfbfbf" points="911.5,-6 911.5,-25 1029.5,-25 1029.5,-6 911.5,-6"/>
<text text-anchor="middle" x="970.5" y="-13" font-family="Helvetica,sans-Serif" font-size="10.00">allegro5/allegro_ttf.h</text>
</a>
</g>
</g>
<!-- Node5&#45;&gt;Node14 -->
<g id="edge14" class="edge">
<title>Node5&#45;&gt;Node14</title>
<path fill="none" stroke="midnightblue" d="M636.38,-71.5C692.57,-64.08 806.58,-48.38 902.5,-31 908.89,-29.84 915.6,-28.53 922.21,-27.18"/>
<polygon fill="midnightblue" stroke="midnightblue" points="923.38,-30.51 932.46,-25.04 921.96,-23.66 923.38,-30.51"/>
</g>
<!-- Node15&#45;&gt;Node13 -->
<g id="edge16" class="edge">
<title>Node15&#45;&gt;Node13</title>
<path fill="none" stroke="midnightblue" d="M1441.17,-366.84C1294.02,-365.82 615.93,-359.19 409.5,-322 301.88,-302.61 175.5,-355.35 175.5,-246 175.5,-246 175.5,-246 175.5,-132 175.5,-86.63 131.07,-49.77 102.35,-30.68"/>
<polygon fill="midnightblue" stroke="midnightblue" points="103.97,-27.56 93.66,-25.12 100.2,-33.46 103.97,-27.56"/>
</g>
<!-- Node15&#45;&gt;Node16 -->
<g id="edge17" class="edge">
<title>Node15&#45;&gt;Node16</title>
<path fill="none" stroke="midnightblue" d="M1476.55,-358.45C1495.88,-334.63 1550.35,-264.92 1581.5,-199 1596.29,-167.7 1605.05,-156.99 1598.5,-123 1596.71,-113.7 1593.02,-103.89 1589.44,-95.8"/>
<polygon fill="midnightblue" stroke="midnightblue" points="1592.56,-94.21 1585.12,-86.66 1586.23,-97.2 1592.56,-94.21"/>
</g>
<!-- Node15&#45;&gt;Node19 -->
<g id="edge21" class="edge">
<title>Node15&#45;&gt;Node19</title>
<path fill="none" stroke="midnightblue" d="M1461.48,-358.48C1452.91,-349.37 1439.14,-334.74 1428.54,-323.48"/>
<polygon fill="midnightblue" stroke="midnightblue" points="1430.91,-320.89 1421.51,-316.01 1425.81,-325.69 1430.91,-320.89"/>
</g>
<!-- Node16&#45;&gt;Node7 -->
<g id="edge19" class="edge">
<title>Node16&#45;&gt;Node7</title>
<path fill="none" stroke="midnightblue" d="M1543.72,-69.3C1505.93,-61.9 1445.71,-48.65 1395.5,-31 1393.88,-30.43 1392.23,-29.81 1390.58,-29.14"/>
<polygon fill="midnightblue" stroke="midnightblue" points="1391.87,-25.89 1381.3,-25.1 1389.07,-32.3 1391.87,-25.89"/>
</g>
<!-- Node17 -->
<g id="node17" class="node">
<title>Node17</title>
<g id="a_node17"><a xlink:title=" ">
<polygon fill="white" stroke="#bfbfbf" points="1557,-6 1557,-25 1604,-25 1604,-6 1557,-6"/>
<text text-anchor="middle" x="1580.5" y="-13" font-family="Helvetica,sans-Serif" font-size="10.00">cmath</text>
</a>
</g>
</g>
<!-- Node16&#45;&gt;Node17 -->
<g id="edge18" class="edge">
<title>Node16&#45;&gt;Node17</title>
<path fill="none" stroke="midnightblue" d="M1580.5,-67.48C1580.5,-59.08 1580.5,-45.98 1580.5,-35.16"/>
<polygon fill="midnightblue" stroke="midnightblue" points="1584,-35.01 1580.5,-25.01 1577,-35.01 1584,-35.01"/>
</g>
<!-- Node18 -->
<g id="node18" class="node">
<title>Node18</title>
<g id="a_node18"><a xlink:title=" ">
<polygon fill="white" stroke="#bfbfbf" points="1746,-6 1746,-25 1793,-25 1793,-6 1746,-6"/>
<text text-anchor="middle" x="1769.5" y="-13" font-family="Helvetica,sans-Serif" font-size="10.00">vector</text>
</a>
</g>
</g>
<!-- Node16&#45;&gt;Node18 -->
<g id="edge20" class="edge">
<title>Node16&#45;&gt;Node18</title>
<path fill="none" stroke="midnightblue" d="M1607.58,-67.48C1641.45,-56.81 1699.42,-38.56 1736.03,-27.04"/>
<polygon fill="midnightblue" stroke="midnightblue" points="1737.27,-30.32 1745.76,-23.97 1735.17,-23.64 1737.27,-30.32"/>
</g>
<!-- Node19&#45;&gt;Node20 -->
<g id="edge22" class="edge">
<title>Node19&#45;&gt;Node20</title>
<path fill="none" stroke="midnightblue" d="M1362.87,-298.02C1280.46,-285.86 1119.27,-262.06 1047.04,-251.39"/>
<polygon fill="midnightblue" stroke="midnightblue" points="1047.45,-247.92 1037.05,-249.92 1046.43,-254.84 1047.45,-247.92"/>
</g>
<!-- Node20&#45;&gt;Node4 -->
<g id="edge29" class="edge">
<title>Node20&#45;&gt;Node4</title>
<path fill="none" stroke="midnightblue" d="M1037.17,-243.97C1110.37,-243.39 1312.38,-238.18 1363.5,-199 1416.22,-158.59 1429.24,-73.27 1432.45,-35.35"/>
<polygon fill="midnightblue" stroke="midnightblue" points="1435.96,-35.43 1433.17,-25.21 1428.97,-34.94 1435.96,-35.43"/>
</g>
<!-- Node20&#45;&gt;Node5 -->
<g id="edge41" class="edge">
<title>Node20&#45;&gt;Node5</title>
<path fill="none" stroke="midnightblue" d="M983.83,-244.06C909.61,-243.72 702.69,-239.11 650.5,-199 618.11,-174.11 607.04,-124.28 603.32,-96.97"/>
<polygon fill="midnightblue" stroke="midnightblue" points="606.77,-96.32 602.14,-86.79 599.82,-97.13 606.77,-96.32"/>
</g>
<!-- Node20&#45;&gt;Node6 -->
<g id="edge26" class="edge">
<title>Node20&#45;&gt;Node6</title>
<path fill="none" stroke="midnightblue" d="M1037.42,-244.41C1106.36,-244.83 1286.47,-241.73 1323.5,-199 1374.46,-140.19 1266.39,-61.85 1216.72,-30.41"/>
<polygon fill="midnightblue" stroke="midnightblue" points="1218.52,-27.41 1208.17,-25.11 1214.82,-33.36 1218.52,-27.41"/>
</g>
<!-- Node20&#45;&gt;Node7 -->
<g id="edge31" class="edge">
<title>Node20&#45;&gt;Node7</title>
<path fill="none" stroke="midnightblue" d="M1037.17,-244.4C1108.33,-244.85 1300.14,-241.99 1342.5,-199 1386.14,-154.71 1376.1,-72.12 1368.81,-35.19"/>
<polygon fill="midnightblue" stroke="midnightblue" points="1372.2,-34.33 1366.69,-25.28 1365.36,-35.79 1372.2,-34.33"/>
</g>
<!-- Node20&#45;&gt;Node8 -->
<g id="edge32" class="edge">
<title>Node20&#45;&gt;Node8</title>
<path fill="none" stroke="midnightblue" d="M983.87,-243.81C907.09,-242.81 686.96,-236.66 627.5,-199 568.93,-161.91 547.83,-74.11 541.19,-35.39"/>
<polygon fill="midnightblue" stroke="midnightblue" points="544.58,-34.4 539.57,-25.07 537.66,-35.49 544.58,-34.4"/>
</g>
<!-- Node20&#45;&gt;Node9 -->
<g id="edge33" class="edge">
<title>Node20&#45;&gt;Node9</title>
<path fill="none" stroke="midnightblue" d="M983.86,-244.36C883.55,-245.36 529.28,-245.46 428.5,-199 347.55,-161.68 282.38,-71.94 257.45,-33.96"/>
<polygon fill="midnightblue" stroke="midnightblue" points="260.1,-31.6 251.75,-25.09 254.21,-35.39 260.1,-31.6"/>
</g>
<!-- Node20&#45;&gt;Node10 -->
<g id="edge34" class="edge">
<title>Node20&#45;&gt;Node10</title>
<path fill="none" stroke="midnightblue" d="M983.81,-243.66C877.75,-242.07 489.75,-233.88 448.5,-199 399.66,-157.7 398.61,-72.86 400.83,-35.21"/>
<polygon fill="midnightblue" stroke="midnightblue" points="404.33,-35.37 401.57,-25.14 397.34,-34.85 404.33,-35.37"/>
</g>
<!-- Node20&#45;&gt;Node11 -->
<g id="edge35" class="edge">
<title>Node20&#45;&gt;Node11</title>
<path fill="none" stroke="midnightblue" d="M983.72,-243.26C920.99,-241 766.99,-232.12 729.5,-199 681.3,-156.43 675.77,-72.89 675.88,-35.45"/>
<polygon fill="midnightblue" stroke="midnightblue" points="679.39,-35.08 676.07,-25.02 672.39,-34.96 679.39,-35.08"/>
</g>
<!-- Node20&#45;&gt;Node12 -->
<g id="edge36" class="edge">
<title>Node20&#45;&gt;Node12</title>
<path fill="none" stroke="midnightblue" d="M983.61,-243.65C922.27,-242.23 774.96,-235.04 744.5,-199 702.25,-149.01 767.08,-74.25 804.7,-37.89"/>
<polygon fill="midnightblue" stroke="midnightblue" points="807.4,-40.15 812.27,-30.74 802.6,-35.06 807.4,-40.15"/>
</g>
<!-- Node20&#45;&gt;Node13 -->
<g id="edge38" class="edge">
<title>Node20&#45;&gt;Node13</title>
<path fill="none" stroke="midnightblue" d="M983.88,-243.83C880.23,-242.9 503.79,-236.92 391.5,-199 289.89,-164.69 283.47,-118.69 189.5,-67 163.16,-52.51 131.89,-38.56 109.27,-29.01"/>
<polygon fill="midnightblue" stroke="midnightblue" points="110.41,-25.69 99.83,-25.07 107.71,-32.15 110.41,-25.69"/>
</g>
<!-- Node20&#45;&gt;Node14 -->
<g id="edge39" class="edge">
<title>Node20&#45;&gt;Node14</title>
<path fill="none" stroke="midnightblue" d="M983.91,-243.34C925.46,-241.27 788.79,-232.83 760.5,-199 698.68,-125.06 860.82,-55.51 935.34,-28.42"/>
<polygon fill="midnightblue" stroke="midnightblue" points="936.58,-31.7 944.82,-25.04 934.23,-25.11 936.58,-31.7"/>
</g>
<!-- Node20&#45;&gt;Node16 -->
<g id="edge42" class="edge">
<title>Node20&#45;&gt;Node16</title>
<path fill="none" stroke="midnightblue" d="M1037.23,-243.14C1118.32,-240.21 1360.44,-229.11 1432.5,-199 1489.7,-175.1 1542.22,-121.66 1566.44,-94.51"/>
<polygon fill="midnightblue" stroke="midnightblue" points="1569.33,-96.52 1573.28,-86.69 1564.06,-91.91 1569.33,-96.52"/>
</g>
<!-- Node21 -->
<g id="node21" class="node">
<title>Node21</title>
<g id="a_node21"><a xlink:title=" ">
<polygon fill="white" stroke="#bfbfbf" points="769,-179.5 769,-198.5 820,-198.5 820,-179.5 769,-179.5"/>
<text text-anchor="middle" x="794.5" y="-186.5" font-family="Helvetica,sans-Serif" font-size="10.00">math.h</text>
</a>
</g>
</g>
<!-- Node20&#45;&gt;Node21 -->
<g id="edge23" class="edge">
<title>Node20&#45;&gt;Node21</title>
<path fill="none" stroke="midnightblue" d="M983.8,-237.43C950.27,-229.17 890.72,-214.45 829.88,-199.08"/>
<polygon fill="midnightblue" stroke="midnightblue" points="830.66,-195.67 820.11,-196.61 828.95,-202.45 830.66,-195.67"/>
</g>
<!-- Node22 -->
<g id="node22" class="node">
<title>Node22</title>
<g id="a_node22"><a xlink:title=" ">
<polygon fill="white" stroke="#bfbfbf" points="838.5,-179.5 838.5,-198.5 902.5,-198.5 902.5,-179.5 838.5,-179.5"/>
<text text-anchor="middle" x="870.5" y="-186.5" font-family="Helvetica,sans-Serif" font-size="10.00">algorithm</text>
</a>
</g>
</g>
<!-- Node20&#45;&gt;Node22 -->
<g id="edge24" class="edge">
<title>Node20&#45;&gt;Node22</title>
<path fill="none" stroke="midnightblue" d="M988.32,-235.44C965.07,-226.48 928.35,-212.31 902.08,-202.18"/>
<polygon fill="midnightblue" stroke="midnightblue" points="903.17,-198.85 892.58,-198.52 900.65,-205.38 903.17,-198.85"/>
</g>
<!-- Node23 -->
<g id="node23" class="node">
<title>Node23</title>
<g id="a_node23"><a xlink:title=" ">
<polygon fill="white" stroke="#bfbfbf" points="921,-179.5 921,-198.5 976,-198.5 976,-179.5 921,-179.5"/>
<text text-anchor="middle" x="948.5" y="-186.5" font-family="Helvetica,sans-Serif" font-size="10.00">fstream</text>
</a>
</g>
</g>
<!-- Node20&#45;&gt;Node23 -->
<g id="edge25" class="edge">
<title>Node20&#45;&gt;Node23</title>
<path fill="none" stroke="midnightblue" d="M1000.54,-235.32C991.37,-227.34 977.56,-215.31 966.47,-205.65"/>
<polygon fill="midnightblue" stroke="midnightblue" points="968.48,-202.76 958.64,-198.83 963.88,-208.04 968.48,-202.76"/>
</g>
<!-- Node24 -->
<g id="node24" class="node">
<title>Node24</title>
<g id="a_node24"><a xlink:title=" ">
<polygon fill="white" stroke="#bfbfbf" points="994.5,-179.5 994.5,-198.5 1026.5,-198.5 1026.5,-179.5 994.5,-179.5"/>
<text text-anchor="middle" x="1010.5" y="-186.5" font-family="Helvetica,sans-Serif" font-size="10.00">list</text>
</a>
</g>
</g>
<!-- Node20&#45;&gt;Node24 -->
<g id="edge27" class="edge">
<title>Node20&#45;&gt;Node24</title>
<path fill="none" stroke="midnightblue" d="M1010.5,-235.08C1010.5,-228.01 1010.5,-217.86 1010.5,-208.99"/>
<polygon fill="midnightblue" stroke="midnightblue" points="1014,-208.75 1010.5,-198.75 1007,-208.75 1014,-208.75"/>
</g>
<!-- Node25 -->
<g id="node25" class="node">
<title>Node25</title>
<g id="a_node25"><a xlink:title=" ">
<polygon fill="white" stroke="#bfbfbf" points="1044.5,-179.5 1044.5,-198.5 1082.5,-198.5 1082.5,-179.5 1044.5,-179.5"/>
<text text-anchor="middle" x="1063.5" y="-186.5" font-family="Helvetica,sans-Serif" font-size="10.00">map</text>
</a>
</g>
</g>
<!-- Node20&#45;&gt;Node25 -->
<g id="edge28" class="edge">
<title>Node20&#45;&gt;Node25</title>
<path fill="none" stroke="midnightblue" d="M1019.25,-235.08C1026.97,-227.22 1038.4,-215.57 1047.72,-206.08"/>
<polygon fill="midnightblue" stroke="midnightblue" points="1050.4,-208.34 1054.91,-198.75 1045.41,-203.44 1050.4,-208.34"/>
</g>
<!-- Node26 -->
<g id="node26" class="node">
<title>Node26</title>
<g id="a_node26"><a xlink:title=" ">
<polygon fill="white" stroke="#bfbfbf" points="1100.5,-179.5 1100.5,-198.5 1156.5,-198.5 1156.5,-179.5 1100.5,-179.5"/>
<text text-anchor="middle" x="1128.5" y="-186.5" font-family="Helvetica,sans-Serif" font-size="10.00">sstream</text>
</a>
</g>
</g>
<!-- Node20&#45;&gt;Node26 -->
<g id="edge30" class="edge">
<title>Node20&#45;&gt;Node26</title>
<path fill="none" stroke="midnightblue" d="M1029.2,-235.44C1048.44,-226.64 1078.65,-212.81 1100.7,-202.72"/>
<polygon fill="midnightblue" stroke="midnightblue" points="1102.25,-205.86 1109.89,-198.52 1099.34,-199.5 1102.25,-205.86"/>
</g>
<!-- Node27 -->
<g id="node27" class="node">
<title>Node27</title>
<g id="a_node27"><a xlink:title=" ">
<polygon fill="white" stroke="#bfbfbf" points="1174.5,-179.5 1174.5,-198.5 1314.5,-198.5 1314.5,-179.5 1174.5,-179.5"/>
<text text-anchor="middle" x="1244.5" y="-186.5" font-family="Helvetica,sans-Serif" font-size="10.00">allegro5/allegro_physfs.h</text>
</a>
</g>
</g>
<!-- Node20&#45;&gt;Node27 -->
<g id="edge37" class="edge">
<title>Node20&#45;&gt;Node27</title>
<path fill="none" stroke="midnightblue" d="M1037.34,-237.81C1076.46,-228.78 1149.68,-211.88 1197.76,-200.79"/>
<polygon fill="midnightblue" stroke="midnightblue" points="1198.66,-204.17 1207.62,-198.51 1197.09,-197.35 1198.66,-204.17"/>
</g>
<!-- Node28 -->
<g id="node28" class="node">
<title>Node28</title>
<g id="a_node28"><a xlink:title=" ">
<polygon fill="white" stroke="#bfbfbf" points="1647,-179.5 1647,-198.5 1750,-198.5 1750,-179.5 1647,-179.5"/>
<text text-anchor="middle" x="1698.5" y="-186.5" font-family="Helvetica,sans-Serif" font-size="10.00">allegro5/bitmap.h</text>
</a>
</g>
</g>
<!-- Node20&#45;&gt;Node28 -->
<g id="edge40" class="edge">
<title>Node20&#45;&gt;Node28</title>
<path fill="none" stroke="midnightblue" d="M1037.05,-241.92C1137.01,-234.07 1492.35,-206.18 1636.78,-194.84"/>
<polygon fill="midnightblue" stroke="midnightblue" points="1637.12,-198.33 1646.81,-194.06 1636.57,-191.35 1637.12,-198.33"/>
</g>
<!-- Node20&#45;&gt;Node29 -->
<g id="edge43" class="edge">
<title>Node20&#45;&gt;Node29</title>
<path fill="none" stroke="midnightblue" d="M1037.01,-241.91C1106.92,-236.69 1300.83,-221.88 1461.5,-199 1465.61,-198.42 1469.9,-197.72 1474.22,-196.99"/>
<polygon fill="midnightblue" stroke="midnightblue" points="1475.02,-200.4 1484.26,-195.23 1473.81,-193.51 1475.02,-200.4"/>
</g>
<!-- Node20&#45;&gt;Node30 -->
<g id="edge45" class="edge">
<title>Node20&#45;&gt;Node30</title>
<path fill="none" stroke="midnightblue" d="M983.94,-242.33C911.77,-237.6 706.14,-222.91 536.5,-199 534.28,-198.69 532.01,-198.34 529.72,-197.98"/>
<polygon fill="midnightblue" stroke="midnightblue" points="530.12,-194.5 519.67,-196.27 528.95,-201.4 530.12,-194.5"/>
</g>
<!-- Node29&#45;&gt;Node20 -->
<g id="edge44" class="edge">
<title>Node29&#45;&gt;Node20</title>
<path fill="none" stroke="midnightblue" d="M1484.35,-198.27C1482.72,-198.53 1481.09,-198.77 1479.5,-199 1319.46,-221.79 1126.44,-236.58 1047.07,-241.85"/>
<polygon fill="midnightblue" stroke="midnightblue" points="1046.83,-238.35 1037.08,-242.5 1047.28,-245.34 1046.83,-238.35"/>
</g>
<!-- Node30&#45;&gt;Node8 -->
<g id="edge46" class="edge">
<title>Node30&#45;&gt;Node8</title>
<path fill="none" stroke="midnightblue" d="M474.42,-179.26C463.15,-171.35 448.15,-158.58 441.5,-143 438.01,-134.83 438.29,-131.29 441.5,-123 456.78,-83.53 494.24,-49.71 517.88,-31.31"/>
<polygon fill="midnightblue" stroke="midnightblue" points="520.04,-34.07 525.9,-25.25 515.82,-28.49 520.04,-34.07"/>
</g>
<!-- Node30&#45;&gt;Node16 -->
<g id="edge47" class="edge">
<title>Node30&#45;&gt;Node16</title>
<path fill="none" stroke="midnightblue" d="M519.71,-184.86C673.33,-169.38 1349.12,-101.31 1533.75,-82.71"/>
<polygon fill="midnightblue" stroke="midnightblue" points="1534.34,-86.17 1543.94,-81.68 1533.64,-79.2 1534.34,-86.17"/>
</g>
<!-- Node31 -->
<g id="node31" class="node">
<title>Node31</title>
<g id="a_node31"><a xlink:href="motion_8hpp.html" target="_top" xlink:title="Gerencia efeitos de parallax e animações de cenário.">
<polygon fill="white" stroke="black" points="450.5,-123.5 450.5,-142.5 522.5,-142.5 522.5,-123.5 450.5,-123.5"/>
<text text-anchor="middle" x="486.5" y="-130.5" font-family="Helvetica,sans-Serif" font-size="10.00">motion.hpp</text>
</a>
</g>
</g>
<!-- Node30&#45;&gt;Node31 -->
<g id="edge48" class="edge">
<title>Node30&#45;&gt;Node31</title>
<path fill="none" stroke="midnightblue" d="M488.17,-179.08C487.91,-172.01 487.53,-161.86 487.2,-152.99"/>
<polygon fill="midnightblue" stroke="midnightblue" points="490.69,-152.61 486.82,-142.75 483.7,-152.87 490.69,-152.61"/>
</g>
<!-- Node31&#45;&gt;Node5 -->
<g id="edge50" class="edge">
<title>Node31&#45;&gt;Node5</title>
<path fill="none" stroke="midnightblue" d="M504.72,-123.44C523.4,-114.68 552.66,-100.94 574.12,-90.86"/>
<polygon fill="midnightblue" stroke="midnightblue" points="575.8,-93.93 583.36,-86.52 572.82,-87.6 575.8,-93.93"/>
</g>
<!-- Node31&#45;&gt;Node13 -->
<g id="edge49" class="edge">
<title>Node31&#45;&gt;Node13</title>
<path fill="none" stroke="midnightblue" d="M456.17,-123.41C383.64,-102.88 200.19,-50.95 118.64,-27.86"/>
<polygon fill="midnightblue" stroke="midnightblue" points="119.33,-24.42 108.76,-25.06 117.42,-31.16 119.33,-24.42"/>
</g>
<!-- Node31&#45;&gt;Node16 -->
<g id="edge51" class="edge">
<title>Node31&#45;&gt;Node16</title>
<path fill="none" stroke="midnightblue" d="M522.59,-130.22C685.34,-122.19 1350.97,-89.33 1533.83,-80.3"/>
<polygon fill="midnightblue" stroke="midnightblue" points="1534.11,-83.79 1543.93,-79.81 1533.77,-76.8 1534.11,-83.79"/>
</g>
<!-- Node32&#45;&gt;Node16 -->
<g id="edge59" class="edge">
<title>Node32&#45;&gt;Node16</title>
<path fill="none" stroke="midnightblue" d="M1682.31,-358.48C1714.38,-341.77 1778.5,-301.41 1778.5,-246 1778.5,-246 1778.5,-246 1778.5,-188 1778.5,-119.19 1685.98,-93.05 1627.43,-83.4"/>
<polygon fill="midnightblue" stroke="midnightblue" points="1627.69,-79.9 1617.28,-81.84 1626.63,-86.82 1627.69,-79.9"/>
</g>
<!-- Node32&#45;&gt;Node18 -->
<g id="edge58" class="edge">
<title>Node32&#45;&gt;Node18</title>
<path fill="none" stroke="midnightblue" d="M1694.31,-364.84C1756.11,-358.59 1892.5,-334.73 1892.5,-246 1892.5,-246 1892.5,-246 1892.5,-132 1892.5,-101.2 1888.95,-90.02 1868.5,-67 1851.02,-47.33 1824.06,-34.28 1802.69,-26.39"/>
<polygon fill="midnightblue" stroke="midnightblue" points="1803.61,-23 1793.01,-23.02 1801.31,-29.61 1803.61,-23"/>
</g>
<!-- Node32&#45;&gt;Node19 -->
<g id="edge60" class="edge">
<title>Node32&#45;&gt;Node19</title>
<path fill="none" stroke="midnightblue" d="M1634.72,-359.94C1591.38,-349.67 1510.54,-330.5 1459.51,-318.41"/>
<polygon fill="midnightblue" stroke="midnightblue" points="1460.26,-314.99 1449.72,-316.09 1458.64,-321.8 1460.26,-314.99"/>
</g>
<!-- Node32&#45;&gt;Node20 -->
<g id="edge61" class="edge">
<title>Node32&#45;&gt;Node20</title>
<path fill="none" stroke="midnightblue" d="M1647.65,-358.41C1615.01,-342.18 1540.44,-307.22 1473.5,-291 1318.33,-253.39 1126.69,-247.03 1047.46,-246.09"/>
<polygon fill="midnightblue" stroke="midnightblue" points="1047.07,-242.58 1037.04,-245.99 1047,-249.58 1047.07,-242.58"/>
</g>
<!-- Node32&#45;&gt;Node28 -->
<g id="edge56" class="edge">
<title>Node32&#45;&gt;Node28</title>
<path fill="none" stroke="midnightblue" d="M1673.49,-358.33C1681.53,-349.92 1692.74,-336.35 1697.5,-322 1710.32,-283.34 1705.82,-234.75 1701.87,-208.64"/>
<polygon fill="midnightblue" stroke="midnightblue" points="1705.3,-207.93 1700.21,-198.63 1698.4,-209.07 1705.3,-207.93"/>
</g>
<!-- Node33 -->
<g id="node33" class="node">
<title>Node33</title>
<g id="a_node33"><a xlink:title=" ">
<polygon fill="white" stroke="#bfbfbf" points="1634.5,-297 1634.5,-316 1688.5,-316 1688.5,-297 1634.5,-297"/>
<text text-anchor="middle" x="1661.5" y="-304" font-family="Helvetica,sans-Serif" font-size="10.00">random</text>
</a>
</g>
</g>
<!-- Node32&#45;&gt;Node33 -->
<g id="edge57" class="edge">
<title>Node32&#45;&gt;Node33</title>
<path fill="none" stroke="midnightblue" d="M1664.07,-358.48C1663.65,-350.08 1662.99,-336.98 1662.44,-326.16"/>
<polygon fill="midnightblue" stroke="midnightblue" points="1665.93,-325.82 1661.93,-316.01 1658.94,-326.17 1665.93,-325.82"/>
</g>
<!-- Node34&#45;&gt;Node5 -->
<g id="edge65" class="edge">
<title>Node34&#45;&gt;Node5</title>
<path fill="none" stroke="midnightblue" d="M460.22,-291.27C453.82,-281.57 446.15,-268.14 442.5,-255 426.8,-198.47 405.66,-169.45 441.5,-123 455.59,-104.74 514.45,-91.74 556.68,-84.55"/>
<polygon fill="midnightblue" stroke="midnightblue" points="557.46,-87.97 566.76,-82.89 556.32,-81.06 557.46,-87.97"/>
</g>
<!-- Node34&#45;&gt;Node16 -->
<g id="edge66" class="edge">
<title>Node34&#45;&gt;Node16</title>
<path fill="none" stroke="midnightblue" d="M522.19,-304.13C728.48,-298.18 1485.45,-271.52 1561.5,-199 1589.24,-172.55 1587.33,-123.36 1583.78,-96.56"/>
<polygon fill="midnightblue" stroke="midnightblue" points="1587.22,-95.93 1582.24,-86.58 1580.31,-97 1587.22,-95.93"/>
</g>
<!-- Node34&#45;&gt;Node20 -->
<g id="edge67" class="edge">
<title>Node34&#45;&gt;Node20</title>
<path fill="none" stroke="midnightblue" d="M522.28,-299.79C630.81,-287.84 879.87,-260.39 973.77,-250.05"/>
<polygon fill="midnightblue" stroke="midnightblue" points="974.36,-253.5 983.92,-248.93 973.6,-246.55 974.36,-253.5"/>
</g>
<!-- Node34&#45;&gt;Node30 -->
<g id="edge69" class="edge">
<title>Node34&#45;&gt;Node30</title>
<path fill="none" stroke="midnightblue" d="M472.71,-291.34C475.95,-270.53 482.01,-231.66 485.6,-208.58"/>
<polygon fill="midnightblue" stroke="midnightblue" points="489.07,-209.09 487.15,-198.67 482.15,-208.01 489.07,-209.09"/>
</g>
<!-- Node34&#45;&gt;Node31 -->
<g id="edge68" class="edge">
<title>Node34&#45;&gt;Node31</title>
<path fill="none" stroke="midnightblue" d="M463.45,-291.42C452.52,-267.6 434.18,-218.15 448.5,-179 452.56,-167.91 460.69,-157.67 468.39,-149.76"/>
<polygon fill="midnightblue" stroke="midnightblue" points="470.97,-152.14 475.79,-142.7 466.14,-147.07 470.97,-152.14"/>
</g>
</g>
</svg>
