<?xml version="1.0" encoding="UTF-8" standalone="no"?>
<!DOCTYPE svg PUBLIC "-//W3C//DTD SVG 1.1//EN"
 "http://www.w3.org/Graphics/SVG/1.1/DTD/svg11.dtd">
<!-- Generated by graphviz version 2.43.0 (0)
 -->
<!-- Title: src/player.cpp Pages: 1 -->
<svg width="1391pt" height="375pt"
 viewBox="0.00 0.00 1391.00 375.00" xmlns="http://www.w3.org/2000/svg" xmlns:xlink="http://www.w3.org/1999/xlink">
<g id="graph0" class="graph" transform="scale(1 1) rotate(0) translate(4 371)">
<title>src/player.cpp</title>
<polygon fill="white" stroke="transparent" points="-4,4 -4,-371 1387,-371 1387,4 -4,4"/>
<!-- Node1 -->
<g id="node1" class="node">
<title>Node1</title>
<g id="a_node1"><a xlink:title="Implementação da classe Player e utilidades de ranking.">
<polygon fill="#bfbfbf" stroke="black" points="611.5,-347.5 611.5,-366.5 695.5,-366.5 695.5,-347.5 611.5,-347.5"/>
<text text-anchor="middle" x="653.5" y="-354.5" font-family="Helvetica,sans-Serif" font-size="10.00">src/player.cpp</text>
</a>
</g>
</g>
<!-- Node2 -->
<g id="node2" class="node">
<title>Node2</title>
<g id="a_node2"><a xlink:href="player_8hpp.html" target="_top" xlink:title="Modela um jogador e operações de ranking.">
<polygon fill="white" stroke="black" points="510,-291.5 510,-310.5 625,-310.5 625,-291.5 510,-291.5"/>
<text text-anchor="middle" x="567.5" y="-298.5" font-family="Helvetica,sans-Serif" font-size="10.00">../include/player.hpp</text>
</a>
</g>
</g>
<!-- Node1&#45;&gt;Node2 -->
<g id="edge1" class="edge">
<title>Node1&#45;&gt;Node2</title>
<path fill="none" stroke="midnightblue" d="M639.68,-347.32C626.27,-338.9 605.68,-325.97 589.91,-316.07"/>
<polygon fill="midnightblue" stroke="midnightblue" points="591.61,-313.01 581.28,-310.65 587.89,-318.94 591.61,-313.01"/>
</g>
<!-- Node3 -->
<g id="node3" class="node">
<title>Node3</title>
<g id="a_node3"><a xlink:href="init_8hpp.html" target="_top" xlink:title="Declara funções de inicialização e finalização do Allegro.">
<polygon fill="white" stroke="black" points="541,-235.5 541,-254.5 594,-254.5 594,-235.5 541,-235.5"/>
<text text-anchor="middle" x="567.5" y="-242.5" font-family="Helvetica,sans-Serif" font-size="10.00">init.hpp</text>
</a>
</g>
</g>
<!-- Node1&#45;&gt;Node3 -->
<g id="edge45" class="edge">
<title>Node1&#45;&gt;Node3</title>
<path fill="none" stroke="midnightblue" d="M652.65,-347.18C650.98,-333.85 646.25,-308.29 633.5,-291 623.76,-277.8 608.93,-267.19 595.8,-259.59"/>
<polygon fill="midnightblue" stroke="midnightblue" points="597.08,-256.31 586.63,-254.6 593.74,-262.46 597.08,-256.31"/>
</g>
<!-- Node28 -->
<g id="node28" class="node">
<title>Node28</title>
<g id="a_node28"><a xlink:title=" ">
<polygon fill="white" stroke="#bfbfbf" points="682,-291.5 682,-310.5 739,-310.5 739,-291.5 682,-291.5"/>
<text text-anchor="middle" x="710.5" y="-298.5" font-family="Helvetica,sans-Serif" font-size="10.00">ostream</text>
</a>
</g>
</g>
<!-- Node1&#45;&gt;Node28 -->
<g id="edge44" class="edge">
<title>Node1&#45;&gt;Node28</title>
<path fill="none" stroke="midnightblue" d="M662.66,-347.32C671,-339.42 683.53,-327.55 693.68,-317.94"/>
<polygon fill="midnightblue" stroke="midnightblue" points="696.32,-320.25 701.18,-310.83 691.51,-315.17 696.32,-320.25"/>
</g>
<!-- Node2&#45;&gt;Node3 -->
<g id="edge2" class="edge">
<title>Node2&#45;&gt;Node3</title>
<path fill="none" stroke="midnightblue" d="M562.33,-291.08C560.82,-283.93 560.39,-273.64 561.04,-264.69"/>
<polygon fill="midnightblue" stroke="midnightblue" points="564.52,-265.13 562.37,-254.75 557.58,-264.2 564.52,-265.13"/>
</g>
<!-- Node3&#45;&gt;Node2 -->
<g id="edge36" class="edge">
<title>Node3&#45;&gt;Node2</title>
<path fill="none" stroke="midnightblue" d="M572.63,-254.75C574.16,-261.86 574.6,-272.14 573.97,-281.1"/>
<polygon fill="midnightblue" stroke="midnightblue" points="570.49,-280.71 572.67,-291.08 577.43,-281.62 570.49,-280.71"/>
</g>
<!-- Node4 -->
<g id="node4" class="node">
<title>Node4</title>
<g id="a_node4"><a xlink:title=" ">
<polygon fill="white" stroke="#bfbfbf" points="0,-179.5 0,-198.5 51,-198.5 51,-179.5 0,-179.5"/>
<text text-anchor="middle" x="25.5" y="-186.5" font-family="Helvetica,sans-Serif" font-size="10.00">math.h</text>
</a>
</g>
</g>
<!-- Node3&#45;&gt;Node4 -->
<g id="edge3" class="edge">
<title>Node3&#45;&gt;Node4</title>
<path fill="none" stroke="midnightblue" d="M540.91,-243.17C466.59,-240.52 250.31,-230.62 61.14,-198.8"/>
<polygon fill="midnightblue" stroke="midnightblue" points="61.46,-195.31 51.01,-197.07 60.28,-202.21 61.46,-195.31"/>
</g>
<!-- Node5 -->
<g id="node5" class="node">
<title>Node5</title>
<g id="a_node5"><a xlink:title=" ">
<polygon fill="white" stroke="#bfbfbf" points="69.5,-179.5 69.5,-198.5 133.5,-198.5 133.5,-179.5 69.5,-179.5"/>
<text text-anchor="middle" x="101.5" y="-186.5" font-family="Helvetica,sans-Serif" font-size="10.00">algorithm</text>
</a>
</g>
</g>
<!-- Node3&#45;&gt;Node5 -->
<g id="edge4" class="edge">
<title>Node3&#45;&gt;Node5</title>
<path fill="none" stroke="midnightblue" d="M540.51,-242.18C474.53,-237.52 299.64,-223.84 143.89,-199.06"/>
<polygon fill="midnightblue" stroke="midnightblue" points="144.09,-195.55 133.66,-197.41 142.98,-202.46 144.09,-195.55"/>
</g>
<!-- Node6 -->
<g id="node6" class="node">
<title>Node6</title>
<g id="a_node6"><a xlink:title=" ">
<polygon fill="white" stroke="#bfbfbf" points="152,-179.5 152,-198.5 207,-198.5 207,-179.5 152,-179.5"/>
<text text-anchor="middle" x="179.5" y="-186.5" font-family="Helvetica,sans-Serif" font-size="10.00">fstream</text>
</a>
</g>
</g>
<!-- Node3&#45;&gt;Node6 -->
<g id="edge5" class="edge">
<title>Node3&#45;&gt;Node6</title>
<path fill="none" stroke="midnightblue" d="M540.91,-241.29C482.76,-235.21 340,-219.37 221.5,-199 220.03,-198.75 218.53,-198.48 217.02,-198.2"/>
<polygon fill="midnightblue" stroke="midnightblue" points="217.49,-194.72 207,-196.23 216.14,-201.59 217.49,-194.72"/>
</g>
<!-- Node7 -->
<g id="node7" class="node">
<title>Node7</title>
<g id="a_node7"><a xlink:title=" ">
<polygon fill="white" stroke="#bfbfbf" points="6.5,-6 6.5,-25 66.5,-25 66.5,-6 6.5,-6"/>
<text text-anchor="middle" x="36.5" y="-13" font-family="Helvetica,sans-Serif" font-size="10.00">iostream</text>
</a>
</g>
</g>
<!-- Node3&#45;&gt;Node7 -->
<g id="edge6" class="edge">
<title>Node3&#45;&gt;Node7</title>
<path fill="none" stroke="midnightblue" d="M540.82,-242.05C474.86,-236.92 305.76,-221.88 254.5,-199 164.37,-158.76 82.03,-70.03 50.31,-33.12"/>
<polygon fill="midnightblue" stroke="midnightblue" points="52.81,-30.66 43.67,-25.29 47.47,-35.18 52.81,-30.66"/>
</g>
<!-- Node8 -->
<g id="node8" class="node">
<title>Node8</title>
<g id="a_node8"><a xlink:title=" ">
<polygon fill="white" stroke="#bfbfbf" points="263.5,-179.5 263.5,-198.5 295.5,-198.5 295.5,-179.5 263.5,-179.5"/>
<text text-anchor="middle" x="279.5" y="-186.5" font-family="Helvetica,sans-Serif" font-size="10.00">list</text>
</a>
</g>
</g>
<!-- Node3&#45;&gt;Node8 -->
<g id="edge7" class="edge">
<title>Node3&#45;&gt;Node8</title>
<path fill="none" stroke="midnightblue" d="M540.66,-240.99C494.4,-235.47 396.58,-222.32 305.44,-198.84"/>
<polygon fill="midnightblue" stroke="midnightblue" points="306.07,-195.39 295.51,-196.23 304.29,-202.16 306.07,-195.39"/>
</g>
<!-- Node9 -->
<g id="node9" class="node">
<title>Node9</title>
<g id="a_node9"><a xlink:title=" ">
<polygon fill="white" stroke="#bfbfbf" points="313.5,-179.5 313.5,-198.5 351.5,-198.5 351.5,-179.5 313.5,-179.5"/>
<text text-anchor="middle" x="332.5" y="-186.5" font-family="Helvetica,sans-Serif" font-size="10.00">map</text>
</a>
</g>
</g>
<!-- Node3&#45;&gt;Node9 -->
<g id="edge8" class="edge">
<title>Node3&#45;&gt;Node9</title>
<path fill="none" stroke="midnightblue" d="M540.94,-238.5C502.23,-230.39 428.1,-214.5 365.5,-199 364.24,-198.69 362.95,-198.36 361.64,-198.03"/>
<polygon fill="midnightblue" stroke="midnightblue" points="362.22,-194.56 351.66,-195.39 360.43,-201.33 362.22,-194.56"/>
</g>
<!-- Node10 -->
<g id="node10" class="node">
<title>Node10</title>
<g id="a_node10"><a xlink:title=" ">
<polygon fill="white" stroke="#bfbfbf" points="84.5,-6 84.5,-25 142.5,-25 142.5,-6 84.5,-6"/>
<text text-anchor="middle" x="113.5" y="-13" font-family="Helvetica,sans-Serif" font-size="10.00">memory</text>
</a>
</g>
</g>
<!-- Node3&#45;&gt;Node10 -->
<g id="edge9" class="edge">
<title>Node3&#45;&gt;Node10</title>
<path fill="none" stroke="midnightblue" d="M540.92,-240.8C506.39,-235.79 445.05,-223.98 398.5,-199 320.55,-157.16 325.45,-112.37 249.5,-67 209.67,-43.2 194.95,-47.27 151.5,-31 149.62,-30.29 147.68,-29.57 145.73,-28.83"/>
<polygon fill="midnightblue" stroke="midnightblue" points="146.58,-25.41 135.99,-25.13 144.1,-31.95 146.58,-25.41"/>
</g>
<!-- Node11 -->
<g id="node11" class="node">
<title>Node11</title>
<g id="a_node11"><a xlink:title=" ">
<polygon fill="white" stroke="#bfbfbf" points="407.5,-179.5 407.5,-198.5 463.5,-198.5 463.5,-179.5 407.5,-179.5"/>
<text text-anchor="middle" x="435.5" y="-186.5" font-family="Helvetica,sans-Serif" font-size="10.00">sstream</text>
</a>
</g>
</g>
<!-- Node3&#45;&gt;Node11 -->
<g id="edge10" class="edge">
<title>Node3&#45;&gt;Node11</title>
<path fill="none" stroke="midnightblue" d="M546.58,-235.44C524.76,-226.52 490.35,-212.44 465.61,-202.32"/>
<polygon fill="midnightblue" stroke="midnightblue" points="466.9,-199.06 456.32,-198.52 464.25,-205.54 466.9,-199.06"/>
</g>
<!-- Node12 -->
<g id="node12" class="node">
<title>Node12</title>
<g id="a_node12"><a xlink:title=" ">
<polygon fill="white" stroke="#bfbfbf" points="1208.5,-6 1208.5,-25 1252.5,-25 1252.5,-6 1208.5,-6"/>
<text text-anchor="middle" x="1230.5" y="-13" font-family="Helvetica,sans-Serif" font-size="10.00">string</text>
</a>
</g>
</g>
<!-- Node3&#45;&gt;Node12 -->
<g id="edge11" class="edge">
<title>Node3&#45;&gt;Node12</title>
<path fill="none" stroke="midnightblue" d="M594.18,-243.88C706.94,-243.14 1140.79,-237.77 1186.5,-199 1211.43,-177.86 1224.31,-77.78 1228.71,-35.47"/>
<polygon fill="midnightblue" stroke="midnightblue" points="1232.21,-35.69 1229.71,-25.39 1225.24,-34.99 1232.21,-35.69"/>
</g>
<!-- Node13 -->
<g id="node13" class="node">
<title>Node13</title>
<g id="a_node13"><a xlink:title=" ">
<polygon fill="white" stroke="#bfbfbf" points="912.5,-6 912.5,-25 1014.5,-25 1014.5,-6 912.5,-6"/>
<text text-anchor="middle" x="963.5" y="-13" font-family="Helvetica,sans-Serif" font-size="10.00">allegro5/allegro.h</text>
</a>
</g>
</g>
<!-- Node3&#45;&gt;Node13 -->
<g id="edge12" class="edge">
<title>Node3&#45;&gt;Node13</title>
<path fill="none" stroke="midnightblue" d="M594.24,-244.09C666.11,-243.78 861.24,-239.18 908.5,-199 921.31,-188.11 948.46,-79.42 959.1,-35.13"/>
<polygon fill="midnightblue" stroke="midnightblue" points="962.56,-35.68 961.48,-25.14 955.76,-34.05 962.56,-35.68"/>
</g>
<!-- Node14 -->
<g id="node14" class="node">
<title>Node14</title>
<g id="a_node14"><a xlink:title=" ">
<polygon fill="white" stroke="#bfbfbf" points="160.5,-6 160.5,-25 302.5,-25 302.5,-6 160.5,-6"/>
<text text-anchor="middle" x="231.5" y="-13" font-family="Helvetica,sans-Serif" font-size="10.00">allegro5/allegro_acodec.h</text>
</a>
</g>
</g>
<!-- Node3&#45;&gt;Node14 -->
<g id="edge13" class="edge">
<title>Node3&#45;&gt;Node14</title>
<path fill="none" stroke="midnightblue" d="M561.34,-235.15C540.92,-206.45 472.21,-115.05 393.5,-67 361.71,-47.59 321.81,-35.04 289.56,-27.3"/>
<polygon fill="midnightblue" stroke="midnightblue" points="290.35,-23.89 279.82,-25.05 288.78,-30.71 290.35,-23.89"/>
</g>
<!-- Node15 -->
<g id="node15" class="node">
<title>Node15</title>
<g id="a_node15"><a xlink:title=" ">
<polygon fill="white" stroke="#bfbfbf" points="320.5,-6 320.5,-25 454.5,-25 454.5,-6 320.5,-6"/>
<text text-anchor="middle" x="387.5" y="-13" font-family="Helvetica,sans-Serif" font-size="10.00">allegro5/allegro_audio.h</text>
</a>
</g>
</g>
<!-- Node3&#45;&gt;Node15 -->
<g id="edge14" class="edge">
<title>Node3&#45;&gt;Node15</title>
<path fill="none" stroke="midnightblue" d="M565.41,-235.17C557.65,-203.05 529.73,-92.93 505.5,-67 487.59,-47.84 461.21,-35.63 437.93,-28.02"/>
<polygon fill="midnightblue" stroke="midnightblue" points="438.77,-24.61 428.18,-25.03 436.72,-31.31 438.77,-24.61"/>
</g>
<!-- Node16 -->
<g id="node16" class="node">
<title>Node16</title>
<g id="a_node16"><a xlink:title=" ">
<polygon fill="white" stroke="#bfbfbf" points="472.5,-6 472.5,-25 610.5,-25 610.5,-6 472.5,-6"/>
<text text-anchor="middle" x="541.5" y="-13" font-family="Helvetica,sans-Serif" font-size="10.00">allegro5/allegro_image.h</text>
</a>
</g>
</g>
<!-- Node3&#45;&gt;Node16 -->
<g id="edge15" class="edge">
<title>Node3&#45;&gt;Node16</title>
<path fill="none" stroke="midnightblue" d="M566.51,-235.36C562.72,-202.14 549,-82.16 543.66,-35.37"/>
<polygon fill="midnightblue" stroke="midnightblue" points="547.1,-34.69 542.49,-25.15 540.15,-35.48 547.1,-34.69"/>
</g>
<!-- Node17 -->
<g id="node17" class="node">
<title>Node17</title>
<g id="a_node17"><a xlink:title=" ">
<polygon fill="white" stroke="#bfbfbf" points="629,-0.5 629,-30.5 758,-30.5 758,-0.5 629,-0.5"/>
<text text-anchor="start" x="637" y="-18.5" font-family="Helvetica,sans-Serif" font-size="10.00">allegro5/allegro_native</text>
<text text-anchor="middle" x="693.5" y="-7.5" font-family="Helvetica,sans-Serif" font-size="10.00">_dialog.h</text>
</a>
</g>
</g>
<!-- Node3&#45;&gt;Node17 -->
<g id="edge16" class="edge">
<title>Node3&#45;&gt;Node17</title>
<path fill="none" stroke="midnightblue" d="M574.88,-235.45C594.05,-212.82 645.83,-148.84 673.5,-87 680.17,-72.1 685.17,-54.43 688.51,-40.5"/>
<polygon fill="midnightblue" stroke="midnightblue" points="691.94,-41.22 690.74,-30.7 685.11,-39.67 691.94,-41.22"/>
</g>
<!-- Node18 -->
<g id="node18" class="node">
<title>Node18</title>
<g id="a_node18"><a xlink:title=" ">
<polygon fill="white" stroke="#bfbfbf" points="759.5,-179.5 759.5,-198.5 899.5,-198.5 899.5,-179.5 759.5,-179.5"/>
<text text-anchor="middle" x="829.5" y="-186.5" font-family="Helvetica,sans-Serif" font-size="10.00">allegro5/allegro_physfs.h</text>
</a>
</g>
</g>
<!-- Node3&#45;&gt;Node18 -->
<g id="edge17" class="edge">
<title>Node3&#45;&gt;Node18</title>
<path fill="none" stroke="midnightblue" d="M594.06,-238.53C637.05,-229.67 722.61,-212.03 777.89,-200.64"/>
<polygon fill="midnightblue" stroke="midnightblue" points="778.76,-204.03 787.85,-198.59 777.35,-197.18 778.76,-204.03"/>
</g>
<!-- Node19 -->
<g id="node19" class="node">
<title>Node19</title>
<g id="a_node19"><a xlink:title=" ">
<polygon fill="white" stroke="#bfbfbf" points="1033,-6 1033,-25 1190,-25 1190,-6 1033,-6"/>
<text text-anchor="middle" x="1111.5" y="-13" font-family="Helvetica,sans-Serif" font-size="10.00">allegro5/allegro_primitives.h</text>
</a>
</g>
</g>
<!-- Node3&#45;&gt;Node19 -->
<g id="edge18" class="edge">
<title>Node3&#45;&gt;Node19</title>
<path fill="none" stroke="midnightblue" d="M594.25,-242.88C667.27,-239.48 868.53,-227.69 927.5,-199 1008.06,-159.8 1074.62,-71.17 1100.22,-33.72"/>
<polygon fill="midnightblue" stroke="midnightblue" points="1103.16,-35.61 1105.83,-25.36 1097.35,-31.71 1103.16,-35.61"/>
</g>
<!-- Node20 -->
<g id="node20" class="node">
<title>Node20</title>
<g id="a_node20"><a xlink:title=" ">
<polygon fill="white" stroke="#bfbfbf" points="776.5,-6 776.5,-25 894.5,-25 894.5,-6 776.5,-6"/>
<text text-anchor="middle" x="835.5" y="-13" font-family="Helvetica,sans-Serif" font-size="10.00">allegro5/allegro_ttf.h</text>
</a>
</g>
</g>
<!-- Node3&#45;&gt;Node20 -->
<g id="edge19" class="edge">
<title>Node3&#45;&gt;Node20</title>
<path fill="none" stroke="midnightblue" d="M579.2,-235.22C591.03,-226.29 609.74,-211.94 625.5,-199 698.76,-138.83 783.12,-63.65 818.5,-31.84"/>
<polygon fill="midnightblue" stroke="midnightblue" points="820.94,-34.35 826.03,-25.06 816.26,-29.15 820.94,-34.35"/>
</g>
<!-- Node21 -->
<g id="node21" class="node">
<title>Node21</title>
<g id="a_node21"><a xlink:title=" ">
<polygon fill="white" stroke="#bfbfbf" points="994,-179.5 994,-198.5 1097,-198.5 1097,-179.5 994,-179.5"/>
<text text-anchor="middle" x="1045.5" y="-186.5" font-family="Helvetica,sans-Serif" font-size="10.00">allegro5/bitmap.h</text>
</a>
</g>
</g>
<!-- Node3&#45;&gt;Node21 -->
<g id="edge20" class="edge">
<title>Node3&#45;&gt;Node21</title>
<path fill="none" stroke="midnightblue" d="M594.04,-241.35C659.55,-234.75 834.17,-216.84 979.5,-199 980.97,-198.82 982.46,-198.63 983.96,-198.45"/>
<polygon fill="midnightblue" stroke="midnightblue" points="984.52,-201.9 993.99,-197.16 983.63,-194.96 984.52,-201.9"/>
</g>
<!-- Node22 -->
<g id="node22" class="node">
<title>Node22</title>
<g id="a_node22"><a xlink:href="assets_8hpp.html" target="_top" xlink:title="Declara classes utilitárias para carregar e usar imagens, sons e fontes no Allegro.">
<polygon fill="white" stroke="black" points="596,-67.5 596,-86.5 665,-86.5 665,-67.5 596,-67.5"/>
<text text-anchor="middle" x="630.5" y="-74.5" font-family="Helvetica,sans-Serif" font-size="10.00">assets.hpp</text>
</a>
</g>
</g>
<!-- Node3&#45;&gt;Node22 -->
<g id="edge21" class="edge">
<title>Node3&#45;&gt;Node22</title>
<path fill="none" stroke="midnightblue" d="M570.89,-235.08C580.85,-208.83 610.18,-131.55 623.62,-96.12"/>
<polygon fill="midnightblue" stroke="midnightblue" points="626.97,-97.16 627.25,-86.57 620.43,-94.68 626.97,-97.16"/>
</g>
<!-- Node23 -->
<g id="node23" class="node">
<title>Node23</title>
<g id="a_node23"><a xlink:href="defines_8hpp.html" target="_top" xlink:title="Constantes globais, macros e estruturas auxiliares do jogo.">
<polygon fill="white" stroke="black" points="1238,-67.5 1238,-86.5 1311,-86.5 1311,-67.5 1238,-67.5"/>
<text text-anchor="middle" x="1274.5" y="-74.5" font-family="Helvetica,sans-Serif" font-size="10.00">defines.hpp</text>
</a>
</g>
</g>
<!-- Node3&#45;&gt;Node23 -->
<g id="edge32" class="edge">
<title>Node3&#45;&gt;Node23</title>
<path fill="none" stroke="midnightblue" d="M594.02,-243.8C710.31,-242.71 1171.59,-236.07 1223.5,-199 1257.1,-175 1268.68,-124.39 1272.59,-96.84"/>
<polygon fill="midnightblue" stroke="midnightblue" points="1276.1,-96.94 1273.83,-86.59 1269.15,-96.09 1276.1,-96.94"/>
</g>
<!-- Node26 -->
<g id="node26" class="node">
<title>Node26</title>
<g id="a_node26"><a xlink:href="state_8hpp.html" target="_top" xlink:title="Interface base para estados da máquina de estados do jogo.">
<polygon fill="white" stroke="black" points="1115.5,-179.5 1115.5,-198.5 1177.5,-198.5 1177.5,-179.5 1115.5,-179.5"/>
<text text-anchor="middle" x="1146.5" y="-186.5" font-family="Helvetica,sans-Serif" font-size="10.00">state.hpp</text>
</a>
</g>
</g>
<!-- Node3&#45;&gt;Node26 -->
<g id="edge37" class="edge">
<title>Node3&#45;&gt;Node26</title>
<path fill="none" stroke="midnightblue" d="M594.01,-243.08C671.35,-240.13 903.48,-229.34 1105.25,-198.99"/>
<polygon fill="midnightblue" stroke="midnightblue" points="1105.78,-202.45 1115.14,-197.49 1104.72,-195.53 1105.78,-202.45"/>
</g>
<!-- Node22&#45;&gt;Node7 -->
<g id="edge22" class="edge">
<title>Node22&#45;&gt;Node7</title>
<path fill="none" stroke="midnightblue" d="M595.91,-76.47C507.89,-76.96 268.73,-73.89 75.5,-31 72.43,-30.32 69.27,-29.45 66.14,-28.47"/>
<polygon fill="midnightblue" stroke="midnightblue" points="67.02,-25.07 56.42,-25.11 64.73,-31.69 67.02,-25.07"/>
</g>
<!-- Node22&#45;&gt;Node10 -->
<g id="edge23" class="edge">
<title>Node22&#45;&gt;Node10</title>
<path fill="none" stroke="midnightblue" d="M595.72,-75.93C516.04,-75.09 314.59,-69.03 151.5,-31 148.5,-30.3 145.42,-29.42 142.38,-28.44"/>
<polygon fill="midnightblue" stroke="midnightblue" points="143.5,-25.12 132.91,-25.06 141.15,-31.72 143.5,-25.12"/>
</g>
<!-- Node22&#45;&gt;Node12 -->
<g id="edge24" class="edge">
<title>Node22&#45;&gt;Node12</title>
<path fill="none" stroke="midnightblue" d="M665.01,-74.89C772.08,-71.17 1097.58,-57.92 1199.5,-31 1201.48,-30.48 1203.49,-29.83 1205.49,-29.11"/>
<polygon fill="midnightblue" stroke="midnightblue" points="1207.3,-32.14 1215.14,-25.01 1204.57,-25.69 1207.3,-32.14"/>
</g>
<!-- Node22&#45;&gt;Node13 -->
<g id="edge25" class="edge">
<title>Node22&#45;&gt;Node13</title>
<path fill="none" stroke="midnightblue" d="M665.13,-71.13C717.1,-63.63 818.29,-48.29 903.5,-31 908.88,-29.91 914.51,-28.67 920.08,-27.39"/>
<polygon fill="midnightblue" stroke="midnightblue" points="921.03,-30.77 929.96,-25.07 919.42,-23.95 921.03,-30.77"/>
</g>
<!-- Node22&#45;&gt;Node14 -->
<g id="edge26" class="edge">
<title>Node22&#45;&gt;Node14</title>
<path fill="none" stroke="midnightblue" d="M595.97,-71.58C537.38,-63.98 414.76,-47.63 311.5,-31 303.48,-29.71 295.01,-28.26 286.72,-26.8"/>
<polygon fill="midnightblue" stroke="midnightblue" points="287.18,-23.33 276.72,-25.01 285.95,-30.22 287.18,-23.33"/>
</g>
<!-- Node22&#45;&gt;Node15 -->
<g id="edge27" class="edge">
<title>Node22&#45;&gt;Node15</title>
<path fill="none" stroke="midnightblue" d="M595.94,-67.54C552.97,-57.02 479.53,-39.04 432.29,-27.47"/>
<polygon fill="midnightblue" stroke="midnightblue" points="432.88,-24.01 422.33,-25.03 431.21,-30.81 432.88,-24.01"/>
</g>
<!-- Node22&#45;&gt;Node16 -->
<g id="edge28" class="edge">
<title>Node22&#45;&gt;Node16</title>
<path fill="none" stroke="midnightblue" d="M617.75,-67.48C603.47,-57.93 580.1,-42.31 562.99,-30.87"/>
<polygon fill="midnightblue" stroke="midnightblue" points="564.49,-27.66 554.23,-25.01 560.6,-33.48 564.49,-27.66"/>
</g>
<!-- Node22&#45;&gt;Node17 -->
<g id="edge29" class="edge">
<title>Node22&#45;&gt;Node17</title>
<path fill="none" stroke="midnightblue" d="M639.53,-67.48C647.74,-59.72 660.21,-47.94 671.09,-37.66"/>
<polygon fill="midnightblue" stroke="midnightblue" points="673.79,-39.93 678.65,-30.52 668.98,-34.84 673.79,-39.93"/>
</g>
<!-- Node22&#45;&gt;Node19 -->
<g id="edge30" class="edge">
<title>Node22&#45;&gt;Node19</title>
<path fill="none" stroke="midnightblue" d="M665.01,-72.63C733.49,-65.8 891.38,-49.44 1023.5,-31 1032.83,-29.7 1042.7,-28.19 1052.32,-26.66"/>
<polygon fill="midnightblue" stroke="midnightblue" points="1052.92,-30.11 1062.23,-25.06 1051.8,-23.2 1052.92,-30.11"/>
</g>
<!-- Node22&#45;&gt;Node20 -->
<g id="edge31" class="edge">
<title>Node22&#45;&gt;Node20</title>
<path fill="none" stroke="midnightblue" d="M659.87,-67.48C695.8,-57.05 756.73,-39.36 796.54,-27.81"/>
<polygon fill="midnightblue" stroke="midnightblue" points="797.55,-31.16 806.18,-25.01 795.6,-24.44 797.55,-31.16"/>
</g>
<!-- Node23&#45;&gt;Node12 -->
<g id="edge34" class="edge">
<title>Node23&#45;&gt;Node12</title>
<path fill="none" stroke="midnightblue" d="M1268.2,-67.48C1261.6,-58.55 1251.06,-44.31 1242.81,-33.14"/>
<polygon fill="midnightblue" stroke="midnightblue" points="1245.55,-30.97 1236.79,-25.01 1239.92,-35.13 1245.55,-30.97"/>
</g>
<!-- Node24 -->
<g id="node24" class="node">
<title>Node24</title>
<g id="a_node24"><a xlink:title=" ">
<polygon fill="white" stroke="#bfbfbf" points="1271,-6 1271,-25 1318,-25 1318,-6 1271,-6"/>
<text text-anchor="middle" x="1294.5" y="-13" font-family="Helvetica,sans-Serif" font-size="10.00">cmath</text>
</a>
</g>
</g>
<!-- Node23&#45;&gt;Node24 -->
<g id="edge33" class="edge">
<title>Node23&#45;&gt;Node24</title>
<path fill="none" stroke="midnightblue" d="M1277.37,-67.48C1280.22,-58.99 1284.68,-45.7 1288.34,-34.82"/>
<polygon fill="midnightblue" stroke="midnightblue" points="1291.77,-35.6 1291.64,-25.01 1285.14,-33.37 1291.77,-35.6"/>
</g>
<!-- Node25 -->
<g id="node25" class="node">
<title>Node25</title>
<g id="a_node25"><a xlink:title=" ">
<polygon fill="white" stroke="#bfbfbf" points="1336,-6 1336,-25 1383,-25 1383,-6 1336,-6"/>
<text text-anchor="middle" x="1359.5" y="-13" font-family="Helvetica,sans-Serif" font-size="10.00">vector</text>
</a>
</g>
</g>
<!-- Node23&#45;&gt;Node25 -->
<g id="edge35" class="edge">
<title>Node23&#45;&gt;Node25</title>
<path fill="none" stroke="midnightblue" d="M1286.68,-67.48C1300.31,-57.93 1322.63,-42.31 1338.97,-30.87"/>
<polygon fill="midnightblue" stroke="midnightblue" points="1341.16,-33.61 1347.34,-25.01 1337.14,-27.88 1341.16,-33.61"/>
</g>
<!-- Node26&#45;&gt;Node13 -->
<g id="edge38" class="edge">
<title>Node26&#45;&gt;Node13</title>
<path fill="none" stroke="midnightblue" d="M1124.99,-179.46C1107.07,-171.68 1081.49,-158.97 1062.5,-143 1023.7,-110.37 990.09,-60.3 973.86,-34.01"/>
<polygon fill="midnightblue" stroke="midnightblue" points="976.69,-31.92 968.51,-25.18 970.7,-35.55 976.69,-31.92"/>
</g>
<!-- Node26&#45;&gt;Node23 -->
<g id="edge39" class="edge">
<title>Node26&#45;&gt;Node23</title>
<path fill="none" stroke="midnightblue" d="M1156.54,-179.37C1178.23,-160.73 1229.66,-116.53 1256.89,-93.13"/>
<polygon fill="midnightblue" stroke="midnightblue" points="1259.2,-95.76 1264.5,-86.59 1254.64,-90.45 1259.2,-95.76"/>
</g>
<!-- Node27 -->
<g id="node27" class="node">
<title>Node27</title>
<g id="a_node27"><a xlink:href="motion_8hpp.html" target="_top" xlink:title="Gerencia efeitos de parallax e animações de cenário.">
<polygon fill="white" stroke="black" points="1071.5,-123.5 1071.5,-142.5 1143.5,-142.5 1143.5,-123.5 1071.5,-123.5"/>
<text text-anchor="middle" x="1107.5" y="-130.5" font-family="Helvetica,sans-Serif" font-size="10.00">motion.hpp</text>
</a>
</g>
</g>
<!-- Node26&#45;&gt;Node27 -->
<g id="edge40" class="edge">
<title>Node26&#45;&gt;Node27</title>
<path fill="none" stroke="midnightblue" d="M1140.06,-179.08C1134.55,-171.46 1126.47,-160.26 1119.74,-150.94"/>
<polygon fill="midnightblue" stroke="midnightblue" points="1122.51,-148.81 1113.82,-142.75 1116.84,-152.91 1122.51,-148.81"/>
</g>
<!-- Node27&#45;&gt;Node19 -->
<g id="edge41" class="edge">
<title>Node27&#45;&gt;Node19</title>
<path fill="none" stroke="midnightblue" d="M1107.8,-123.32C1108.44,-104.76 1109.96,-60.84 1110.84,-35.47"/>
<polygon fill="midnightblue" stroke="midnightblue" points="1114.35,-35.4 1111.2,-25.28 1107.35,-35.15 1114.35,-35.4"/>
</g>
<!-- Node27&#45;&gt;Node22 -->
<g id="edge42" class="edge">
<title>Node27&#45;&gt;Node22</title>
<path fill="none" stroke="midnightblue" d="M1071.26,-127.9C985.23,-118.16 768.95,-93.67 675.1,-83.05"/>
<polygon fill="midnightblue" stroke="midnightblue" points="675.41,-79.56 665.08,-81.91 674.62,-86.52 675.41,-79.56"/>
</g>
<!-- Node27&#45;&gt;Node23 -->
<g id="edge43" class="edge">
<title>Node27&#45;&gt;Node23</title>
<path fill="none" stroke="midnightblue" d="M1133.96,-123.44C1162.18,-114.32 1207.04,-99.81 1238.47,-89.65"/>
<polygon fill="midnightblue" stroke="midnightblue" points="1239.72,-92.92 1248.16,-86.52 1237.57,-86.26 1239.72,-92.92"/>
</g>
</g>
</svg>
