<?xml version="1.0" encoding="UTF-8" standalone="no"?>
<!DOCTYPE svg PUBLIC "-//W3C//DTD SVG 1.1//EN"
 "http://www.w3.org/Graphics/SVG/1.1/DTD/svg11.dtd">
<!-- Generated by graphviz version 2.43.0 (0)
 -->
<!-- Title: include/states/play.hpp Pages: 1 -->
<svg width="1605pt" height="487pt"
 viewBox="0.00 0.00 1605.00 487.00" xmlns="http://www.w3.org/2000/svg" xmlns:xlink="http://www.w3.org/1999/xlink">
<g id="graph0" class="graph" transform="scale(1 1) rotate(0) translate(4 483)">
<title>include/states/play.hpp</title>
<polygon fill="white" stroke="transparent" points="-4,4 -4,-483 1601,-483 1601,4 -4,4"/>
<!-- Node1 -->
<g id="node1" class="node">
<title>Node1</title>
<g id="a_node1"><a xlink:title="Declaracao da classe Play, responsavel pelo estado de jogo ativo.">
<polygon fill="#bfbfbf" stroke="black" points="1185,-459.5 1185,-478.5 1313,-478.5 1313,-459.5 1185,-459.5"/>
<text text-anchor="middle" x="1249" y="-466.5" font-family="Helvetica,sans-Serif" font-size="10.00">include/states/play.hpp</text>
</a>
</g>
</g>
<!-- Node2 -->
<g id="node2" class="node">
<title>Node2</title>
<g id="a_node2"><a xlink:href="flappy__bird__controller_8hpp.html" target="_top" xlink:title="Declaracao da classe FlappyBird (controlador principal).">
<polygon fill="white" stroke="black" points="1116,-403.5 1116,-422.5 1268,-422.5 1268,-403.5 1116,-403.5"/>
<text text-anchor="middle" x="1192" y="-410.5" font-family="Helvetica,sans-Serif" font-size="10.00">../flappy_bird_controller.hpp</text>
</a>
</g>
</g>
<!-- Node1&#45;&gt;Node2 -->
<g id="edge1" class="edge">
<title>Node1&#45;&gt;Node2</title>
<path fill="none" stroke="midnightblue" d="M1239.84,-459.32C1231.5,-451.42 1218.97,-439.55 1208.82,-429.94"/>
<polygon fill="midnightblue" stroke="midnightblue" points="1210.99,-427.17 1201.32,-422.83 1206.18,-432.25 1210.99,-427.17"/>
</g>
<!-- Node29 -->
<g id="node29" class="node">
<title>Node29</title>
<g id="a_node29"><a xlink:href="state_8hpp.html" target="_top" xlink:title="Interface base para estados da máquina de estados do jogo.">
<polygon fill="white" stroke="black" points="1233,-179.5 1233,-198.5 1295,-198.5 1295,-179.5 1233,-179.5"/>
<text text-anchor="middle" x="1264" y="-186.5" font-family="Helvetica,sans-Serif" font-size="10.00">state.hpp</text>
</a>
</g>
</g>
<!-- Node1&#45;&gt;Node29 -->
<g id="edge62" class="edge">
<title>Node1&#45;&gt;Node29</title>
<path fill="none" stroke="midnightblue" d="M1257.17,-459.38C1272.93,-441.81 1306,-399.94 1306,-358 1306,-358 1306,-358 1306,-300 1306,-265.41 1287.65,-228.49 1275.21,-207.43"/>
<polygon fill="midnightblue" stroke="midnightblue" points="1278.06,-205.38 1269.84,-198.69 1272.09,-209.04 1278.06,-205.38"/>
</g>
<!-- Node3 -->
<g id="node3" class="node">
<title>Node3</title>
<g id="a_node3"><a xlink:title=" ">
<polygon fill="white" stroke="#bfbfbf" points="0,-6 0,-25 58,-25 58,-6 0,-6"/>
<text text-anchor="middle" x="29" y="-13" font-family="Helvetica,sans-Serif" font-size="10.00">memory</text>
</a>
</g>
</g>
<!-- Node2&#45;&gt;Node3 -->
<g id="edge2" class="edge">
<title>Node2&#45;&gt;Node3</title>
<path fill="none" stroke="midnightblue" d="M1115.75,-408.83C856.19,-397.56 23,-357.07 23,-302 23,-302 23,-302 23,-132 23,-97.82 25.65,-58.02 27.43,-35.19"/>
<polygon fill="midnightblue" stroke="midnightblue" points="30.92,-35.43 28.24,-25.19 23.95,-34.87 30.92,-35.43"/>
</g>
<!-- Node4 -->
<g id="node4" class="node">
<title>Node4</title>
<g id="a_node4"><a xlink:href="assets_8hpp.html" target="_top" xlink:title="Declara classes utilitárias para carregar e usar imagens, sons e fontes no Allegro.">
<polygon fill="white" stroke="black" points="658.5,-67.5 658.5,-86.5 727.5,-86.5 727.5,-67.5 658.5,-67.5"/>
<text text-anchor="middle" x="693" y="-74.5" font-family="Helvetica,sans-Serif" font-size="10.00">assets.hpp</text>
</a>
</g>
</g>
<!-- Node2&#45;&gt;Node4 -->
<g id="edge3" class="edge">
<title>Node2&#45;&gt;Node4</title>
<path fill="none" stroke="midnightblue" d="M1195.25,-403.36C1207.38,-369.5 1246.26,-244.52 1186,-179 1136.36,-125.03 929.18,-160.59 858,-143 807.35,-130.48 751.45,-106.05 719.45,-90.97"/>
<polygon fill="midnightblue" stroke="midnightblue" points="720.85,-87.76 710.32,-86.61 717.84,-94.08 720.85,-87.76"/>
</g>
<!-- Node14 -->
<g id="node14" class="node">
<title>Node14</title>
<g id="a_node14"><a xlink:href="bird_8hpp.html" target="_top" xlink:title="Declaracao da classe Bird (personagem controlavel).">
<polygon fill="white" stroke="black" points="994,-347.5 994,-366.5 1050,-366.5 1050,-347.5 994,-347.5"/>
<text text-anchor="middle" x="1022" y="-354.5" font-family="Helvetica,sans-Serif" font-size="10.00">bird.hpp</text>
</a>
</g>
</g>
<!-- Node2&#45;&gt;Node14 -->
<g id="edge14" class="edge">
<title>Node2&#45;&gt;Node14</title>
<path fill="none" stroke="midnightblue" d="M1165.06,-403.44C1136.34,-394.32 1090.67,-379.81 1058.68,-369.65"/>
<polygon fill="midnightblue" stroke="midnightblue" points="1059.4,-366.21 1048.81,-366.52 1057.28,-372.88 1059.4,-366.21"/>
</g>
<!-- Node15 -->
<g id="node15" class="node">
<title>Node15</title>
<g id="a_node15"><a xlink:href="defines_8hpp.html" target="_top" xlink:title="Constantes globais, macros e estruturas auxiliares do jogo.">
<polygon fill="white" stroke="black" points="1338.5,-67.5 1338.5,-86.5 1411.5,-86.5 1411.5,-67.5 1338.5,-67.5"/>
<text text-anchor="middle" x="1375" y="-74.5" font-family="Helvetica,sans-Serif" font-size="10.00">defines.hpp</text>
</a>
</g>
</g>
<!-- Node2&#45;&gt;Node15 -->
<g id="edge51" class="edge">
<title>Node2&#45;&gt;Node15</title>
<path fill="none" stroke="midnightblue" d="M1254.72,-403.48C1297.41,-396.51 1354.69,-384.86 1403,-367 1474.85,-340.44 1515.74,-329.39 1534,-255 1548.09,-197.61 1559.57,-165 1518,-123 1492.67,-97.41 1452.95,-86.33 1421.79,-81.56"/>
<polygon fill="midnightblue" stroke="midnightblue" points="1421.97,-78.05 1411.59,-80.17 1421.02,-84.99 1421.97,-78.05"/>
</g>
<!-- Node18 -->
<g id="node18" class="node">
<title>Node18</title>
<g id="a_node18"><a xlink:href="game__object_8hpp.html" target="_top" xlink:title="Classe base abstrata para todos os objetos renderizáveis.">
<polygon fill="white" stroke="black" points="978.5,-291.5 978.5,-310.5 1079.5,-310.5 1079.5,-291.5 978.5,-291.5"/>
<text text-anchor="middle" x="1029" y="-298.5" font-family="Helvetica,sans-Serif" font-size="10.00">game_object.hpp</text>
</a>
</g>
</g>
<!-- Node2&#45;&gt;Node18 -->
<g id="edge52" class="edge">
<title>Node2&#45;&gt;Node18</title>
<path fill="none" stroke="midnightblue" d="M1171.13,-403.45C1152.32,-395.31 1124.27,-382.09 1102,-367 1080.63,-352.52 1058.88,-332.29 1044.74,-318.26"/>
<polygon fill="midnightblue" stroke="midnightblue" points="1046.89,-315.45 1037.36,-310.81 1041.91,-320.38 1046.89,-315.45"/>
</g>
<!-- Node19 -->
<g id="node19" class="node">
<title>Node19</title>
<g id="a_node19"><a xlink:href="init_8hpp.html" target="_top" xlink:title="Declara funções de inicialização e finalização do Allegro.">
<polygon fill="white" stroke="black" points="853.5,-235.5 853.5,-254.5 906.5,-254.5 906.5,-235.5 853.5,-235.5"/>
<text text-anchor="middle" x="880" y="-242.5" font-family="Helvetica,sans-Serif" font-size="10.00">init.hpp</text>
</a>
</g>
</g>
<!-- Node2&#45;&gt;Node19 -->
<g id="edge53" class="edge">
<title>Node2&#45;&gt;Node19</title>
<path fill="none" stroke="midnightblue" d="M1187.26,-403.3C1174.5,-380.75 1137.03,-320.19 1088,-291 1034.18,-258.96 960.43,-249.62 916.75,-246.97"/>
<polygon fill="midnightblue" stroke="midnightblue" points="916.75,-243.46 906.58,-246.44 916.39,-250.45 916.75,-243.46"/>
</g>
<!-- Node28 -->
<g id="node28" class="node">
<title>Node28</title>
<g id="a_node28"><a xlink:href="player_8hpp.html" target="_top" xlink:title="Modela um jogador e operações de ranking.">
<polygon fill="white" stroke="black" points="1109,-179.5 1109,-198.5 1177,-198.5 1177,-179.5 1109,-179.5"/>
<text text-anchor="middle" x="1143" y="-186.5" font-family="Helvetica,sans-Serif" font-size="10.00">player.hpp</text>
</a>
</g>
</g>
<!-- Node2&#45;&gt;Node28 -->
<g id="edge61" class="edge">
<title>Node2&#45;&gt;Node28</title>
<path fill="none" stroke="midnightblue" d="M1190.08,-403.3C1182.85,-370.56 1157.21,-254.38 1147.12,-208.67"/>
<polygon fill="midnightblue" stroke="midnightblue" points="1150.53,-207.89 1144.96,-198.88 1143.7,-209.4 1150.53,-207.89"/>
</g>
<!-- Node31 -->
<g id="node31" class="node">
<title>Node31</title>
<g id="a_node31"><a xlink:href="pipe_8hpp.html" target="_top" xlink:title="Declaration of pipe&#45;related classes (Pipe, PipePair, PipeList).">
<polygon fill="white" stroke="black" points="1334.5,-347.5 1334.5,-366.5 1393.5,-366.5 1393.5,-347.5 1334.5,-347.5"/>
<text text-anchor="middle" x="1364" y="-354.5" font-family="Helvetica,sans-Serif" font-size="10.00">pipe.hpp</text>
</a>
</g>
</g>
<!-- Node2&#45;&gt;Node31 -->
<g id="edge54" class="edge">
<title>Node2&#45;&gt;Node31</title>
<path fill="none" stroke="midnightblue" d="M1219.25,-403.44C1248.44,-394.28 1294.92,-379.69 1327.31,-369.52"/>
<polygon fill="midnightblue" stroke="midnightblue" points="1328.38,-372.85 1336.87,-366.52 1326.28,-366.17 1328.38,-372.85"/>
</g>
<!-- Node4&#45;&gt;Node3 -->
<g id="edge5" class="edge">
<title>Node4&#45;&gt;Node3</title>
<path fill="none" stroke="midnightblue" d="M658.37,-74.84C544.33,-70.83 181.22,-56.32 67,-31 63.99,-30.33 60.91,-29.47 57.86,-28.51"/>
<polygon fill="midnightblue" stroke="midnightblue" points="58.98,-25.19 48.39,-25.15 56.64,-31.79 58.98,-25.19"/>
</g>
<!-- Node5 -->
<g id="node5" class="node">
<title>Node5</title>
<g id="a_node5"><a xlink:title=" ">
<polygon fill="white" stroke="#bfbfbf" points="388,-6 388,-25 448,-25 448,-6 388,-6"/>
<text text-anchor="middle" x="418" y="-13" font-family="Helvetica,sans-Serif" font-size="10.00">iostream</text>
</a>
</g>
</g>
<!-- Node4&#45;&gt;Node5 -->
<g id="edge4" class="edge">
<title>Node4&#45;&gt;Node5</title>
<path fill="none" stroke="midnightblue" d="M658.19,-71.23C611.77,-64.45 527.31,-50.62 457,-31 454.35,-30.26 451.63,-29.42 448.91,-28.53"/>
<polygon fill="midnightblue" stroke="midnightblue" points="449.84,-25.14 439.24,-25.13 447.52,-31.75 449.84,-25.14"/>
</g>
<!-- Node6 -->
<g id="node6" class="node">
<title>Node6</title>
<g id="a_node6"><a xlink:title=" ">
<polygon fill="white" stroke="#bfbfbf" points="1202,-6 1202,-25 1246,-25 1246,-6 1202,-6"/>
<text text-anchor="middle" x="1224" y="-13" font-family="Helvetica,sans-Serif" font-size="10.00">string</text>
</a>
</g>
</g>
<!-- Node4&#45;&gt;Node6 -->
<g id="edge6" class="edge">
<title>Node4&#45;&gt;Node6</title>
<path fill="none" stroke="midnightblue" d="M727.77,-74.44C826.12,-69.78 1104.86,-54.79 1193,-31 1194.94,-30.48 1196.9,-29.84 1198.85,-29.13"/>
<polygon fill="midnightblue" stroke="midnightblue" points="1200.47,-32.25 1208.31,-25.13 1197.74,-25.8 1200.47,-32.25"/>
</g>
<!-- Node7 -->
<g id="node7" class="node">
<title>Node7</title>
<g id="a_node7"><a xlink:title=" ">
<polygon fill="white" stroke="#bfbfbf" points="1082,-6 1082,-25 1184,-25 1184,-6 1082,-6"/>
<text text-anchor="middle" x="1133" y="-13" font-family="Helvetica,sans-Serif" font-size="10.00">allegro5/allegro.h</text>
</a>
</g>
</g>
<!-- Node4&#45;&gt;Node7 -->
<g id="edge7" class="edge">
<title>Node4&#45;&gt;Node7</title>
<path fill="none" stroke="midnightblue" d="M727.69,-73.23C794.61,-67.58 946.09,-53.36 1072,-31 1077.9,-29.95 1084.09,-28.68 1090.17,-27.34"/>
<polygon fill="midnightblue" stroke="midnightblue" points="1091.26,-30.68 1100.22,-25.02 1089.69,-23.86 1091.26,-30.68"/>
</g>
<!-- Node8 -->
<g id="node8" class="node">
<title>Node8</title>
<g id="a_node8"><a xlink:title=" ">
<polygon fill="white" stroke="#bfbfbf" points="466,-6 466,-25 608,-25 608,-6 466,-6"/>
<text text-anchor="middle" x="537" y="-13" font-family="Helvetica,sans-Serif" font-size="10.00">allegro5/allegro_acodec.h</text>
</a>
</g>
</g>
<!-- Node4&#45;&gt;Node8 -->
<g id="edge8" class="edge">
<title>Node4&#45;&gt;Node8</title>
<path fill="none" stroke="midnightblue" d="M670.65,-67.48C644.01,-57.31 599.29,-40.26 568.99,-28.7"/>
<polygon fill="midnightblue" stroke="midnightblue" points="569.9,-25.3 559.31,-25.01 567.41,-31.84 569.9,-25.3"/>
</g>
<!-- Node9 -->
<g id="node9" class="node">
<title>Node9</title>
<g id="a_node9"><a xlink:title=" ">
<polygon fill="white" stroke="#bfbfbf" points="626,-6 626,-25 760,-25 760,-6 626,-6"/>
<text text-anchor="middle" x="693" y="-13" font-family="Helvetica,sans-Serif" font-size="10.00">allegro5/allegro_audio.h</text>
</a>
</g>
</g>
<!-- Node4&#45;&gt;Node9 -->
<g id="edge9" class="edge">
<title>Node4&#45;&gt;Node9</title>
<path fill="none" stroke="midnightblue" d="M693,-67.48C693,-59.08 693,-45.98 693,-35.16"/>
<polygon fill="midnightblue" stroke="midnightblue" points="696.5,-35.01 693,-25.01 689.5,-35.01 696.5,-35.01"/>
</g>
<!-- Node10 -->
<g id="node10" class="node">
<title>Node10</title>
<g id="a_node10"><a xlink:title=" ">
<polygon fill="white" stroke="#bfbfbf" points="778,-6 778,-25 916,-25 916,-6 778,-6"/>
<text text-anchor="middle" x="847" y="-13" font-family="Helvetica,sans-Serif" font-size="10.00">allegro5/allegro_image.h</text>
</a>
</g>
</g>
<!-- Node4&#45;&gt;Node10 -->
<g id="edge10" class="edge">
<title>Node4&#45;&gt;Node10</title>
<path fill="none" stroke="midnightblue" d="M715.06,-67.48C741.37,-57.31 785.51,-40.26 815.42,-28.7"/>
<polygon fill="midnightblue" stroke="midnightblue" points="816.91,-31.88 824.98,-25.01 814.39,-25.35 816.91,-31.88"/>
</g>
<!-- Node11 -->
<g id="node11" class="node">
<title>Node11</title>
<g id="a_node11"><a xlink:title=" ">
<polygon fill="white" stroke="#bfbfbf" points="934.5,-0.5 934.5,-30.5 1063.5,-30.5 1063.5,-0.5 934.5,-0.5"/>
<text text-anchor="start" x="942.5" y="-18.5" font-family="Helvetica,sans-Serif" font-size="10.00">allegro5/allegro_native</text>
<text text-anchor="middle" x="999" y="-7.5" font-family="Helvetica,sans-Serif" font-size="10.00">_dialog.h</text>
</a>
</g>
</g>
<!-- Node4&#45;&gt;Node11 -->
<g id="edge11" class="edge">
<title>Node4&#45;&gt;Node11</title>
<path fill="none" stroke="midnightblue" d="M727.59,-69.31C770.98,-60.92 847.95,-46.01 924.17,-31.16"/>
<polygon fill="midnightblue" stroke="midnightblue" points="925.28,-34.51 934.43,-29.16 923.94,-27.64 925.28,-34.51"/>
</g>
<!-- Node12 -->
<g id="node12" class="node">
<title>Node12</title>
<g id="a_node12"><a xlink:title=" ">
<polygon fill="white" stroke="#bfbfbf" points="76.5,-6 76.5,-25 233.5,-25 233.5,-6 76.5,-6"/>
<text text-anchor="middle" x="155" y="-13" font-family="Helvetica,sans-Serif" font-size="10.00">allegro5/allegro_primitives.h</text>
</a>
</g>
</g>
<!-- Node4&#45;&gt;Node12 -->
<g id="edge12" class="edge">
<title>Node4&#45;&gt;Node12</title>
<path fill="none" stroke="midnightblue" d="M658.48,-73.3C582.96,-67.23 397.51,-51.43 243,-31 233.43,-29.73 223.3,-28.23 213.46,-26.67"/>
<polygon fill="midnightblue" stroke="midnightblue" points="213.76,-23.17 203.33,-25.03 212.65,-30.08 213.76,-23.17"/>
</g>
<!-- Node13 -->
<g id="node13" class="node">
<title>Node13</title>
<g id="a_node13"><a xlink:title=" ">
<polygon fill="white" stroke="#bfbfbf" points="252,-6 252,-25 370,-25 370,-6 252,-6"/>
<text text-anchor="middle" x="311" y="-13" font-family="Helvetica,sans-Serif" font-size="10.00">allegro5/allegro_ttf.h</text>
</a>
</g>
</g>
<!-- Node4&#45;&gt;Node13 -->
<g id="edge13" class="edge">
<title>Node4&#45;&gt;Node13</title>
<path fill="none" stroke="midnightblue" d="M658.49,-71.83C600.55,-64.66 480.12,-49.01 379,-31 372.37,-29.82 365.41,-28.47 358.56,-27.07"/>
<polygon fill="midnightblue" stroke="midnightblue" points="359.18,-23.62 348.68,-25.01 357.75,-30.48 359.18,-23.62"/>
</g>
<!-- Node14&#45;&gt;Node12 -->
<g id="edge15" class="edge">
<title>Node14&#45;&gt;Node12</title>
<path fill="none" stroke="midnightblue" d="M993.87,-355.68C839.19,-353.54 99,-338.49 99,-246 99,-246 99,-246 99,-132 99,-93.59 124.39,-54.54 140.98,-33.13"/>
<polygon fill="midnightblue" stroke="midnightblue" points="143.91,-35.07 147.45,-25.08 138.45,-30.68 143.91,-35.07"/>
</g>
<!-- Node14&#45;&gt;Node15 -->
<g id="edge16" class="edge">
<title>Node14&#45;&gt;Node15</title>
<path fill="none" stroke="midnightblue" d="M1050.04,-350.39C1139.29,-331.92 1413.8,-270.1 1464,-199 1491.61,-159.89 1433.85,-114.64 1398.96,-92.18"/>
<polygon fill="midnightblue" stroke="midnightblue" points="1400.57,-89.05 1390.23,-86.72 1396.86,-94.99 1400.57,-89.05"/>
</g>
<!-- Node14&#45;&gt;Node18 -->
<g id="edge20" class="edge">
<title>Node14&#45;&gt;Node18</title>
<path fill="none" stroke="midnightblue" d="M1023.16,-347.08C1024.08,-339.93 1025.42,-329.64 1026.58,-320.69"/>
<polygon fill="midnightblue" stroke="midnightblue" points="1030.05,-321.12 1027.87,-310.75 1023.11,-320.22 1030.05,-321.12"/>
</g>
<!-- Node15&#45;&gt;Node6 -->
<g id="edge18" class="edge">
<title>Node15&#45;&gt;Node6</title>
<path fill="none" stroke="midnightblue" d="M1353.37,-67.48C1327.58,-57.31 1284.29,-40.26 1254.96,-28.7"/>
<polygon fill="midnightblue" stroke="midnightblue" points="1256.18,-25.42 1245.59,-25.01 1253.62,-31.93 1256.18,-25.42"/>
</g>
<!-- Node16 -->
<g id="node16" class="node">
<title>Node16</title>
<g id="a_node16"><a xlink:title=" ">
<polygon fill="white" stroke="#bfbfbf" points="1351.5,-6 1351.5,-25 1398.5,-25 1398.5,-6 1351.5,-6"/>
<text text-anchor="middle" x="1375" y="-13" font-family="Helvetica,sans-Serif" font-size="10.00">cmath</text>
</a>
</g>
</g>
<!-- Node15&#45;&gt;Node16 -->
<g id="edge17" class="edge">
<title>Node15&#45;&gt;Node16</title>
<path fill="none" stroke="midnightblue" d="M1375,-67.48C1375,-59.08 1375,-45.98 1375,-35.16"/>
<polygon fill="midnightblue" stroke="midnightblue" points="1378.5,-35.01 1375,-25.01 1371.5,-35.01 1378.5,-35.01"/>
</g>
<!-- Node17 -->
<g id="node17" class="node">
<title>Node17</title>
<g id="a_node17"><a xlink:title=" ">
<polygon fill="white" stroke="#bfbfbf" points="1469.5,-6 1469.5,-25 1516.5,-25 1516.5,-6 1469.5,-6"/>
<text text-anchor="middle" x="1493" y="-13" font-family="Helvetica,sans-Serif" font-size="10.00">vector</text>
</a>
</g>
</g>
<!-- Node15&#45;&gt;Node17 -->
<g id="edge19" class="edge">
<title>Node15&#45;&gt;Node17</title>
<path fill="none" stroke="midnightblue" d="M1391.91,-67.48C1411.53,-57.58 1444.13,-41.14 1466.99,-29.62"/>
<polygon fill="midnightblue" stroke="midnightblue" points="1468.77,-32.64 1476.12,-25.01 1465.62,-26.39 1468.77,-32.64"/>
</g>
<!-- Node18&#45;&gt;Node19 -->
<g id="edge21" class="edge">
<title>Node18&#45;&gt;Node19</title>
<path fill="none" stroke="midnightblue" d="M1005.39,-291.44C980.54,-282.44 941.23,-268.19 913.25,-258.05"/>
<polygon fill="midnightblue" stroke="midnightblue" points="914.09,-254.63 903.5,-254.52 911.71,-261.21 914.09,-254.63"/>
</g>
<!-- Node19&#45;&gt;Node3 -->
<g id="edge28" class="edge">
<title>Node19&#45;&gt;Node3</title>
<path fill="none" stroke="midnightblue" d="M853.34,-243.9C748.64,-243.24 365.83,-238.14 252,-199 167.49,-169.94 150.69,-147.6 85,-87 67.3,-70.67 50.63,-48.47 40.15,-33.37"/>
<polygon fill="midnightblue" stroke="midnightblue" points="42.99,-31.32 34.48,-25.01 37.2,-35.25 42.99,-31.32"/>
</g>
<!-- Node19&#45;&gt;Node4 -->
<g id="edge40" class="edge">
<title>Node19&#45;&gt;Node4</title>
<path fill="none" stroke="midnightblue" d="M853.34,-243.82C750.11,-242.83 380.63,-236.67 346,-199 257.02,-102.21 536.13,-82.84 648.39,-78.97"/>
<polygon fill="midnightblue" stroke="midnightblue" points="648.52,-82.47 658.4,-78.65 648.29,-75.47 648.52,-82.47"/>
</g>
<!-- Node19&#45;&gt;Node5 -->
<g id="edge25" class="edge">
<title>Node19&#45;&gt;Node5</title>
<path fill="none" stroke="midnightblue" d="M853.23,-243.95C745.92,-243.48 350.95,-239.01 314,-199 264.58,-145.49 355.59,-64.38 397.98,-31.32"/>
<polygon fill="midnightblue" stroke="midnightblue" points="400.17,-34.05 405.98,-25.19 395.92,-28.49 400.17,-34.05"/>
</g>
<!-- Node19&#45;&gt;Node6 -->
<g id="edge30" class="edge">
<title>Node19&#45;&gt;Node6</title>
<path fill="none" stroke="midnightblue" d="M906.76,-237.42C933.11,-230.27 973.95,-217.35 1006,-199 1090.86,-150.41 1174.94,-67.73 1208.62,-32.82"/>
<polygon fill="midnightblue" stroke="midnightblue" points="1211.34,-35.03 1215.72,-25.39 1206.28,-30.2 1211.34,-35.03"/>
</g>
<!-- Node19&#45;&gt;Node7 -->
<g id="edge31" class="edge">
<title>Node19&#45;&gt;Node7</title>
<path fill="none" stroke="midnightblue" d="M906.63,-236.94C928.7,-230.07 959.93,-217.86 982,-199 1035.05,-153.67 1019.7,-118.3 1067,-67 1079.92,-52.99 1097.07,-40 1110.65,-30.7"/>
<polygon fill="midnightblue" stroke="midnightblue" points="1112.6,-33.6 1118.98,-25.15 1108.72,-27.78 1112.6,-33.6"/>
</g>
<!-- Node19&#45;&gt;Node8 -->
<g id="edge32" class="edge">
<title>Node19&#45;&gt;Node8</title>
<path fill="none" stroke="midnightblue" d="M853.22,-243.89C747.72,-243.17 364.86,-237.9 329,-199 263.72,-128.17 428.28,-56.34 502.7,-28.53"/>
<polygon fill="midnightblue" stroke="midnightblue" points="503.98,-31.79 512.15,-25.05 501.56,-25.22 503.98,-31.79"/>
</g>
<!-- Node19&#45;&gt;Node9 -->
<g id="edge33" class="edge">
<title>Node19&#45;&gt;Node9</title>
<path fill="none" stroke="midnightblue" d="M889.11,-235.45C901.33,-222.9 920.38,-198.82 910,-179 896.95,-154.1 880.72,-159.56 858,-143 804.37,-103.91 742.67,-55.72 712.15,-31.67"/>
<polygon fill="midnightblue" stroke="midnightblue" points="714.08,-28.73 704.06,-25.28 709.74,-34.22 714.08,-28.73"/>
</g>
<!-- Node19&#45;&gt;Node10 -->
<g id="edge34" class="edge">
<title>Node19&#45;&gt;Node10</title>
<path fill="none" stroke="midnightblue" d="M899.8,-235.5C914.39,-228.11 933.32,-215.92 943,-199 959.81,-169.62 960.54,-154.44 948,-123 932.03,-82.95 893.04,-49.31 868.44,-31.11"/>
<polygon fill="midnightblue" stroke="midnightblue" points="870.27,-28.11 860.1,-25.12 866.18,-33.8 870.27,-28.11"/>
</g>
<!-- Node19&#45;&gt;Node11 -->
<g id="edge35" class="edge">
<title>Node19&#45;&gt;Node11</title>
<path fill="none" stroke="midnightblue" d="M906.56,-236.08C924.93,-229.22 948.43,-217.44 962,-199 997.06,-151.37 1000.9,-78.61 1000.25,-40.97"/>
<polygon fill="midnightblue" stroke="midnightblue" points="1003.74,-40.8 999.94,-30.9 996.74,-41.01 1003.74,-40.8"/>
</g>
<!-- Node19&#45;&gt;Node12 -->
<g id="edge37" class="edge">
<title>Node19&#45;&gt;Node12</title>
<path fill="none" stroke="midnightblue" d="M853.44,-243.34C744.1,-240.42 332.12,-227.63 282,-199 215.8,-161.19 176.15,-73.09 161.49,-34.81"/>
<polygon fill="midnightblue" stroke="midnightblue" points="164.63,-33.19 157.88,-25.02 158.06,-35.62 164.63,-33.19"/>
</g>
<!-- Node19&#45;&gt;Node13 -->
<g id="edge38" class="edge">
<title>Node19&#45;&gt;Node13</title>
<path fill="none" stroke="midnightblue" d="M853.26,-244.01C744.21,-243.77 337.05,-240.12 299,-199 256.79,-153.4 286.12,-70.88 302.29,-34.52"/>
<polygon fill="midnightblue" stroke="midnightblue" points="305.58,-35.73 306.61,-25.19 299.23,-32.79 305.58,-35.73"/>
</g>
<!-- Node19&#45;&gt;Node15 -->
<g id="edge41" class="edge">
<title>Node19&#45;&gt;Node15</title>
<path fill="none" stroke="midnightblue" d="M906.55,-244.24C988.81,-244.5 1237.83,-241.69 1304,-199 1341.24,-174.98 1361.41,-123.99 1369.96,-96.49"/>
<polygon fill="midnightblue" stroke="midnightblue" points="1373.41,-97.18 1372.85,-86.6 1366.69,-95.22 1373.41,-97.18"/>
</g>
<!-- Node20 -->
<g id="node20" class="node">
<title>Node20</title>
<g id="a_node20"><a xlink:title=" ">
<polygon fill="white" stroke="#bfbfbf" points="355.5,-179.5 355.5,-198.5 406.5,-198.5 406.5,-179.5 355.5,-179.5"/>
<text text-anchor="middle" x="381" y="-186.5" font-family="Helvetica,sans-Serif" font-size="10.00">math.h</text>
</a>
</g>
</g>
<!-- Node19&#45;&gt;Node20 -->
<g id="edge22" class="edge">
<title>Node19&#45;&gt;Node20</title>
<path fill="none" stroke="midnightblue" d="M853.39,-242.86C783.41,-239.57 588.42,-228.43 416.5,-198.8"/>
<polygon fill="midnightblue" stroke="midnightblue" points="416.97,-195.32 406.51,-197.05 415.76,-202.22 416.97,-195.32"/>
</g>
<!-- Node21 -->
<g id="node21" class="node">
<title>Node21</title>
<g id="a_node21"><a xlink:title=" ">
<polygon fill="white" stroke="#bfbfbf" points="425,-179.5 425,-198.5 489,-198.5 489,-179.5 425,-179.5"/>
<text text-anchor="middle" x="457" y="-186.5" font-family="Helvetica,sans-Serif" font-size="10.00">algorithm</text>
</a>
</g>
</g>
<!-- Node19&#45;&gt;Node21 -->
<g id="edge23" class="edge">
<title>Node19&#45;&gt;Node21</title>
<path fill="none" stroke="midnightblue" d="M853.47,-241.79C792.62,-236.51 638.16,-222.02 499.15,-199.05"/>
<polygon fill="midnightblue" stroke="midnightblue" points="499.61,-195.57 489.17,-197.38 498.46,-202.48 499.61,-195.57"/>
</g>
<!-- Node22 -->
<g id="node22" class="node">
<title>Node22</title>
<g id="a_node22"><a xlink:title=" ">
<polygon fill="white" stroke="#bfbfbf" points="507.5,-179.5 507.5,-198.5 562.5,-198.5 562.5,-179.5 507.5,-179.5"/>
<text text-anchor="middle" x="535" y="-186.5" font-family="Helvetica,sans-Serif" font-size="10.00">fstream</text>
</a>
</g>
</g>
<!-- Node19&#45;&gt;Node22 -->
<g id="edge24" class="edge">
<title>Node19&#45;&gt;Node22</title>
<path fill="none" stroke="midnightblue" d="M853.49,-240.97C801.57,-234.87 682.68,-220 572.75,-198.98"/>
<polygon fill="midnightblue" stroke="midnightblue" points="573.3,-195.52 562.82,-197.06 571.97,-202.4 573.3,-195.52"/>
</g>
<!-- Node23 -->
<g id="node23" class="node">
<title>Node23</title>
<g id="a_node23"><a xlink:title=" ">
<polygon fill="white" stroke="#bfbfbf" points="581,-179.5 581,-198.5 613,-198.5 613,-179.5 581,-179.5"/>
<text text-anchor="middle" x="597" y="-186.5" font-family="Helvetica,sans-Serif" font-size="10.00">list</text>
</a>
</g>
</g>
<!-- Node19&#45;&gt;Node23 -->
<g id="edge26" class="edge">
<title>Node19&#45;&gt;Node23</title>
<path fill="none" stroke="midnightblue" d="M853.3,-240.89C807.76,-235.26 712.1,-222 622.75,-198.8"/>
<polygon fill="midnightblue" stroke="midnightblue" points="623.57,-195.4 613.01,-196.22 621.78,-202.16 623.57,-195.4"/>
</g>
<!-- Node24 -->
<g id="node24" class="node">
<title>Node24</title>
<g id="a_node24"><a xlink:title=" ">
<polygon fill="white" stroke="#bfbfbf" points="631,-179.5 631,-198.5 669,-198.5 669,-179.5 631,-179.5"/>
<text text-anchor="middle" x="650" y="-186.5" font-family="Helvetica,sans-Serif" font-size="10.00">map</text>
</a>
</g>
</g>
<!-- Node19&#45;&gt;Node24 -->
<g id="edge27" class="edge">
<title>Node19&#45;&gt;Node24</title>
<path fill="none" stroke="midnightblue" d="M853.34,-238.87C816.33,-231.58 747.12,-217.32 679.22,-199.14"/>
<polygon fill="midnightblue" stroke="midnightblue" points="679.78,-195.67 669.21,-196.43 677.95,-202.42 679.78,-195.67"/>
</g>
<!-- Node25 -->
<g id="node25" class="node">
<title>Node25</title>
<g id="a_node25"><a xlink:title=" ">
<polygon fill="white" stroke="#bfbfbf" points="687,-179.5 687,-198.5 743,-198.5 743,-179.5 687,-179.5"/>
<text text-anchor="middle" x="715" y="-186.5" font-family="Helvetica,sans-Serif" font-size="10.00">sstream</text>
</a>
</g>
</g>
<!-- Node19&#45;&gt;Node25 -->
<g id="edge29" class="edge">
<title>Node19&#45;&gt;Node25</title>
<path fill="none" stroke="midnightblue" d="M853.86,-235.44C825.98,-226.32 781.65,-211.81 750.6,-201.65"/>
<polygon fill="midnightblue" stroke="midnightblue" points="751.62,-198.3 741.02,-198.52 749.44,-204.95 751.62,-198.3"/>
</g>
<!-- Node26 -->
<g id="node26" class="node">
<title>Node26</title>
<g id="a_node26"><a xlink:title=" ">
<polygon fill="white" stroke="#bfbfbf" points="761,-179.5 761,-198.5 901,-198.5 901,-179.5 761,-179.5"/>
<text text-anchor="middle" x="831" y="-186.5" font-family="Helvetica,sans-Serif" font-size="10.00">allegro5/allegro_physfs.h</text>
</a>
</g>
</g>
<!-- Node19&#45;&gt;Node26 -->
<g id="edge36" class="edge">
<title>Node19&#45;&gt;Node26</title>
<path fill="none" stroke="midnightblue" d="M871.91,-235.08C864.84,-227.3 854.41,-215.8 845.85,-206.37"/>
<polygon fill="midnightblue" stroke="midnightblue" points="848.25,-203.8 838.94,-198.75 843.07,-208.51 848.25,-203.8"/>
</g>
<!-- Node27 -->
<g id="node27" class="node">
<title>Node27</title>
<g id="a_node27"><a xlink:title=" ">
<polygon fill="white" stroke="#bfbfbf" points="1351.5,-179.5 1351.5,-198.5 1454.5,-198.5 1454.5,-179.5 1351.5,-179.5"/>
<text text-anchor="middle" x="1403" y="-186.5" font-family="Helvetica,sans-Serif" font-size="10.00">allegro5/bitmap.h</text>
</a>
</g>
</g>
<!-- Node19&#45;&gt;Node27 -->
<g id="edge39" class="edge">
<title>Node19&#45;&gt;Node27</title>
<path fill="none" stroke="midnightblue" d="M906.57,-241.73C976.89,-235.66 1173.69,-218.17 1337,-199 1338.29,-198.85 1339.6,-198.69 1340.91,-198.53"/>
<polygon fill="midnightblue" stroke="midnightblue" points="1341.65,-201.97 1351.14,-197.26 1340.79,-195.02 1341.65,-201.97"/>
</g>
<!-- Node19&#45;&gt;Node28 -->
<g id="edge42" class="edge">
<title>Node19&#45;&gt;Node28</title>
<path fill="none" stroke="midnightblue" d="M906.65,-237.59C951.93,-227.72 1043.87,-208.82 1098.85,-198.04"/>
<polygon fill="midnightblue" stroke="midnightblue" points="1099.85,-201.41 1109,-196.07 1098.51,-194.54 1099.85,-201.41"/>
</g>
<!-- Node19&#45;&gt;Node29 -->
<g id="edge44" class="edge">
<title>Node19&#45;&gt;Node29</title>
<path fill="none" stroke="midnightblue" d="M906.7,-240.25C972.62,-230.98 1143.5,-206.95 1222.64,-195.82"/>
<polygon fill="midnightblue" stroke="midnightblue" points="1223.32,-199.26 1232.73,-194.4 1222.34,-192.32 1223.32,-199.26"/>
</g>
<!-- Node28&#45;&gt;Node19 -->
<g id="edge43" class="edge">
<title>Node28&#45;&gt;Node19</title>
<path fill="none" stroke="midnightblue" d="M1108.94,-198.01C1059.35,-208.71 967.97,-227.44 916.86,-237.38"/>
<polygon fill="midnightblue" stroke="midnightblue" points="916.05,-233.97 906.89,-239.3 917.37,-240.84 916.05,-233.97"/>
</g>
<!-- Node29&#45;&gt;Node7 -->
<g id="edge45" class="edge">
<title>Node29&#45;&gt;Node7</title>
<path fill="none" stroke="midnightblue" d="M1257.32,-179.26C1236.56,-152.08 1172.88,-68.71 1145.61,-33.01"/>
<polygon fill="midnightblue" stroke="midnightblue" points="1148.36,-30.84 1139.51,-25.02 1142.8,-35.09 1148.36,-30.84"/>
</g>
<!-- Node29&#45;&gt;Node15 -->
<g id="edge46" class="edge">
<title>Node29&#45;&gt;Node15</title>
<path fill="none" stroke="midnightblue" d="M1268.66,-179.26C1276.01,-166.03 1291.27,-140.6 1309,-123 1321.2,-110.89 1337.05,-99.96 1350.16,-91.91"/>
<polygon fill="midnightblue" stroke="midnightblue" points="1352.33,-94.69 1359.13,-86.57 1348.75,-88.67 1352.33,-94.69"/>
</g>
<!-- Node30 -->
<g id="node30" class="node">
<title>Node30</title>
<g id="a_node30"><a xlink:href="motion_8hpp.html" target="_top" xlink:title="Gerencia efeitos de parallax e animações de cenário.">
<polygon fill="white" stroke="black" points="867,-123.5 867,-142.5 939,-142.5 939,-123.5 867,-123.5"/>
<text text-anchor="middle" x="903" y="-130.5" font-family="Helvetica,sans-Serif" font-size="10.00">motion.hpp</text>
</a>
</g>
</g>
<!-- Node29&#45;&gt;Node30 -->
<g id="edge47" class="edge">
<title>Node29&#45;&gt;Node30</title>
<path fill="none" stroke="midnightblue" d="M1232.57,-181.48C1228.02,-180.61 1223.4,-179.75 1219,-179 1123.48,-162.66 1011,-147.64 949.3,-139.77"/>
<polygon fill="midnightblue" stroke="midnightblue" points="949.48,-136.26 939.12,-138.48 948.6,-143.21 949.48,-136.26"/>
</g>
<!-- Node30&#45;&gt;Node4 -->
<g id="edge49" class="edge">
<title>Node30&#45;&gt;Node4</title>
<path fill="none" stroke="midnightblue" d="M869.72,-123.44C833.55,-114.14 775.62,-99.25 736.02,-89.06"/>
<polygon fill="midnightblue" stroke="midnightblue" points="736.68,-85.62 726.12,-86.52 734.93,-92.4 736.68,-85.62"/>
</g>
<!-- Node30&#45;&gt;Node12 -->
<g id="edge48" class="edge">
<title>Node30&#45;&gt;Node12</title>
<path fill="none" stroke="midnightblue" d="M866.85,-126.62C767.31,-111.76 480.83,-68.79 243,-31 234.33,-29.62 225.19,-28.15 216.21,-26.68"/>
<polygon fill="midnightblue" stroke="midnightblue" points="216.6,-23.2 206.17,-25.03 215.47,-30.1 216.6,-23.2"/>
</g>
<!-- Node30&#45;&gt;Node15 -->
<g id="edge50" class="edge">
<title>Node30&#45;&gt;Node15</title>
<path fill="none" stroke="midnightblue" d="M939.25,-127.85C1023.83,-118.18 1234.14,-94.11 1328.22,-83.35"/>
<polygon fill="midnightblue" stroke="midnightblue" points="1328.76,-86.81 1338.3,-82.2 1327.97,-79.86 1328.76,-86.81"/>
</g>
<!-- Node31&#45;&gt;Node15 -->
<g id="edge58" class="edge">
<title>Node31&#45;&gt;Node15</title>
<path fill="none" stroke="midnightblue" d="M1393.53,-349.52C1439.01,-337.6 1521,-307.57 1521,-246 1521,-246 1521,-246 1521,-188 1521,-157.2 1518.78,-144.77 1497,-123 1476.77,-102.78 1446.69,-91.55 1421.46,-85.37"/>
<polygon fill="midnightblue" stroke="midnightblue" points="1422.23,-81.95 1411.7,-83.16 1420.68,-88.78 1422.23,-81.95"/>
</g>
<!-- Node31&#45;&gt;Node17 -->
<g id="edge57" class="edge">
<title>Node31&#45;&gt;Node17</title>
<path fill="none" stroke="midnightblue" d="M1393.55,-352.05C1424.03,-346.81 1471.82,-335.22 1506,-311 1560.9,-272.1 1597,-257.29 1597,-190 1597,-190 1597,-190 1597,-132 1597,-85.29 1549.45,-48.94 1518.66,-30.3"/>
<polygon fill="midnightblue" stroke="midnightblue" points="1520.11,-27.1 1509.71,-25.09 1516.59,-33.15 1520.11,-27.1"/>
</g>
<!-- Node31&#45;&gt;Node18 -->
<g id="edge59" class="edge">
<title>Node31&#45;&gt;Node18</title>
<path fill="none" stroke="midnightblue" d="M1334.27,-351.21C1279.52,-342.38 1161.75,-323.4 1089.55,-311.76"/>
<polygon fill="midnightblue" stroke="midnightblue" points="1090.11,-308.31 1079.68,-310.17 1089,-315.22 1090.11,-308.31"/>
</g>
<!-- Node31&#45;&gt;Node19 -->
<g id="edge60" class="edge">
<title>Node31&#45;&gt;Node19</title>
<path fill="none" stroke="midnightblue" d="M1336.48,-347.46C1292.95,-334.15 1205.43,-308.23 1130,-291 1054.9,-273.85 965.89,-259.15 916.92,-251.55"/>
<polygon fill="midnightblue" stroke="midnightblue" points="917.22,-248.05 906.8,-249.99 916.15,-254.97 917.22,-248.05"/>
</g>
<!-- Node31&#45;&gt;Node27 -->
<g id="edge55" class="edge">
<title>Node31&#45;&gt;Node27</title>
<path fill="none" stroke="midnightblue" d="M1372.86,-347.28C1380.8,-338.84 1391.94,-325.24 1397,-311 1409.27,-276.44 1407.61,-232.82 1405.3,-208.52"/>
<polygon fill="midnightblue" stroke="midnightblue" points="1408.78,-208.1 1404.21,-198.54 1401.82,-208.86 1408.78,-208.1"/>
</g>
<!-- Node32 -->
<g id="node32" class="node">
<title>Node32</title>
<g id="a_node32"><a xlink:title=" ">
<polygon fill="white" stroke="#bfbfbf" points="1334,-291.5 1334,-310.5 1388,-310.5 1388,-291.5 1334,-291.5"/>
<text text-anchor="middle" x="1361" y="-298.5" font-family="Helvetica,sans-Serif" font-size="10.00">random</text>
</a>
</g>
</g>
<!-- Node31&#45;&gt;Node32 -->
<g id="edge56" class="edge">
<title>Node31&#45;&gt;Node32</title>
<path fill="none" stroke="midnightblue" d="M1363.5,-347.08C1363.11,-340.01 1362.55,-329.86 1362.05,-320.99"/>
<polygon fill="midnightblue" stroke="midnightblue" points="1365.54,-320.54 1361.49,-310.75 1358.55,-320.93 1365.54,-320.54"/>
</g>
</g>
</svg>
