<?xml version="1.0" encoding="UTF-8" standalone="no"?>
<!DOCTYPE svg PUBLIC "-//W3C//DTD SVG 1.1//EN"
 "http://www.w3.org/Graphics/SVG/1.1/DTD/svg11.dtd">
<!-- Generated by graphviz version 2.43.0 (0)
 -->
<!-- Title: include/player.hpp Pages: 1 -->
<svg width="1589pt" height="397pt"
 viewBox="0.00 0.00 1588.90 397.00" xmlns="http://www.w3.org/2000/svg" xmlns:xlink="http://www.w3.org/1999/xlink">
<g id="graph0" class="graph" transform="scale(1 1) rotate(0) translate(4 393)">
<title>include/player.hpp</title>
<polygon fill="white" stroke="transparent" points="-4,4 -4,-393 1584.9,-393 1584.9,4 -4,4"/>
<!-- Node1 -->
<g id="node1" class="node">
<title>Node1</title>
<g id="a_node1"><a xlink:title="Modela um jogador e operações de ranking.">
<polygon fill="#bfbfbf" stroke="black" points="1206.4,-369.5 1206.4,-388.5 1312.4,-388.5 1312.4,-369.5 1206.4,-369.5"/>
<text text-anchor="middle" x="1259.4" y="-376.5" font-family="Helvetica,sans-Serif" font-size="10.00">include/player.hpp</text>
</a>
</g>
</g>
<!-- Node2 -->
<g id="node2" class="node">
<title>Node2</title>
<g id="a_node2"><a xlink:href="flappy__bird__controller_8hpp.html" target="_top" xlink:title="Declaracao da classe FlappyBird (controlador principal).">
<polygon fill="white" stroke="black" points="1176.9,-112.5 1176.9,-142.5 1285.9,-142.5 1285.9,-112.5 1176.9,-112.5"/>
<text text-anchor="start" x="1184.9" y="-130.5" font-family="Helvetica,sans-Serif" font-size="10.00">include/flappy_bird</text>
<text text-anchor="middle" x="1231.4" y="-119.5" font-family="Helvetica,sans-Serif" font-size="10.00">_controller.hpp</text>
</a>
</g>
</g>
<!-- Node1&#45;&gt;Node2 -->
<g id="edge1" class="edge">
<title>Node1&#45;&gt;Node2</title>
<path fill="none" stroke="midnightblue" d="M1322.66,-371.83C1422.28,-359.57 1598.52,-326.05 1538.4,-246 1503.94,-200.11 1465.38,-236.35 1414.4,-210 1394.73,-199.83 1394.79,-189.7 1375.4,-179 1346.99,-163.31 1312.8,-151.08 1284.86,-142.58"/>
<polygon fill="midnightblue" stroke="midnightblue" points="1322.2,-368.36 1312.68,-373.02 1323.03,-375.31 1322.2,-368.36"/>
</g>
<!-- Node10 -->
<g id="node10" class="node">
<title>Node10</title>
<g id="a_node10"><a xlink:href="init_8hpp.html" target="_top" xlink:title="Declara funções de inicialização e finalização do Allegro.">
<polygon fill="white" stroke="black" points="985.4,-313.5 985.4,-332.5 1077.4,-332.5 1077.4,-313.5 985.4,-313.5"/>
<text text-anchor="middle" x="1031.4" y="-320.5" font-family="Helvetica,sans-Serif" font-size="10.00">include/init.hpp</text>
</a>
</g>
</g>
<!-- Node1&#45;&gt;Node10 -->
<g id="edge10" class="edge">
<title>Node1&#45;&gt;Node10</title>
<path fill="none" stroke="midnightblue" d="M1208.35,-367.22C1163.5,-357.01 1099.84,-341.9 1062.28,-332.52"/>
<polygon fill="midnightblue" stroke="midnightblue" points="1207.66,-370.65 1218.19,-369.44 1209.21,-363.82 1207.66,-370.65"/>
</g>
<!-- Node28 -->
<g id="node28" class="node">
<title>Node28</title>
<g id="a_node28"><a xlink:href="player_8cpp.html" target="_top" xlink:title="Implementação da classe Player e utilidades de ranking.">
<polygon fill="white" stroke="black" points="1445.4,-252 1445.4,-271 1529.4,-271 1529.4,-252 1445.4,-252"/>
<text text-anchor="middle" x="1487.4" y="-259" font-family="Helvetica,sans-Serif" font-size="10.00">src/player.cpp</text>
</a>
</g>
</g>
<!-- Node1&#45;&gt;Node28 -->
<g id="edge55" class="edge">
<title>Node1&#45;&gt;Node28</title>
<path fill="none" stroke="midnightblue" d="M1285.53,-364.77C1332.7,-340.87 1430.86,-291.14 1470.38,-271.12"/>
<polygon fill="midnightblue" stroke="midnightblue" points="1283.88,-361.68 1276.54,-369.32 1287.04,-367.92 1283.88,-361.68"/>
</g>
<!-- Node3 -->
<g id="node3" class="node">
<title>Node3</title>
<g id="a_node3"><a xlink:href="allegro__interface_8hpp.html" target="_top" xlink:title="Declara o controlador que integra Allegro e a máquina de estados.">
<polygon fill="white" stroke="black" points="1388.4,-56.5 1388.4,-75.5 1546.4,-75.5 1546.4,-56.5 1388.4,-56.5"/>
<text text-anchor="middle" x="1467.4" y="-63.5" font-family="Helvetica,sans-Serif" font-size="10.00">include/allegro_interface.hpp</text>
</a>
</g>
</g>
<!-- Node2&#45;&gt;Node3 -->
<g id="edge2" class="edge">
<title>Node2&#45;&gt;Node3</title>
<path fill="none" stroke="midnightblue" d="M1295.98,-110.22C1340.39,-99.02 1397.61,-84.6 1433.4,-75.57"/>
<polygon fill="midnightblue" stroke="midnightblue" points="1294.98,-106.86 1286.14,-112.7 1296.69,-113.65 1294.98,-106.86"/>
</g>
<!-- Node6 -->
<g id="node6" class="node">
<title>Node6</title>
<g id="a_node6"><a xlink:href="play_8hpp.html" target="_top" xlink:title="Declaracao da classe Play, responsavel pelo estado de jogo ativo.">
<polygon fill="white" stroke="black" points="711.4,-56.5 711.4,-75.5 839.4,-75.5 839.4,-56.5 711.4,-56.5"/>
<text text-anchor="middle" x="775.4" y="-63.5" font-family="Helvetica,sans-Serif" font-size="10.00">include/states/play.hpp</text>
</a>
</g>
</g>
<!-- Node2&#45;&gt;Node6 -->
<g id="edge5" class="edge">
<title>Node2&#45;&gt;Node6</title>
<path fill="none" stroke="midnightblue" d="M1166.72,-114.29C1161.88,-113.48 1157.07,-112.71 1152.4,-112 1042.91,-95.43 914.77,-81.23 839.61,-73.42"/>
<polygon fill="midnightblue" stroke="midnightblue" points="1166.21,-117.75 1176.65,-115.99 1167.39,-110.85 1166.21,-117.75"/>
</g>
<!-- Node9 -->
<g id="node9" class="node">
<title>Node9</title>
<g id="a_node9"><a xlink:href="flappy__bird__controller_8cpp.html" target="_top" xlink:title="Controlador de fluxo do jogo (pontuação, eventos globais).">
<polygon fill="white" stroke="black" points="1171.9,-56.5 1171.9,-75.5 1330.9,-75.5 1330.9,-56.5 1171.9,-56.5"/>
<text text-anchor="middle" x="1251.4" y="-63.5" font-family="Helvetica,sans-Serif" font-size="10.00">src/flappy_bird_controller.cpp</text>
</a>
</g>
</g>
<!-- Node2&#45;&gt;Node9 -->
<g id="edge9" class="edge">
<title>Node2&#45;&gt;Node9</title>
<path fill="none" stroke="midnightblue" d="M1239.34,-102.9C1242.56,-93.3 1246.09,-82.81 1248.49,-75.66"/>
<polygon fill="midnightblue" stroke="midnightblue" points="1236.01,-101.81 1236.14,-112.4 1242.65,-104.04 1236.01,-101.81"/>
</g>
<!-- Node4 -->
<g id="node4" class="node">
<title>Node4</title>
<g id="a_node4"><a xlink:href="allegro__interface_8cpp.html" target="_top" xlink:title="Implementação do controlador principal que integra Allegro às lógicas de estado do jogo.">
<polygon fill="white" stroke="black" points="833.9,-0.5 833.9,-19.5 970.9,-19.5 970.9,-0.5 833.9,-0.5"/>
<text text-anchor="middle" x="902.4" y="-7.5" font-family="Helvetica,sans-Serif" font-size="10.00">src/allegro_interface.cpp</text>
</a>
</g>
</g>
<!-- Node3&#45;&gt;Node4 -->
<g id="edge3" class="edge">
<title>Node3&#45;&gt;Node4</title>
<path fill="none" stroke="midnightblue" d="M1378.25,-56.48C1265.43,-45.7 1073.5,-27.35 971.27,-17.58"/>
<polygon fill="midnightblue" stroke="midnightblue" points="1377.96,-59.97 1388.25,-57.43 1378.63,-53 1377.96,-59.97"/>
</g>
<!-- Node5 -->
<g id="node5" class="node">
<title>Node5</title>
<g id="a_node5"><a xlink:href="main_8cpp.html" target="_top" xlink:title="Ponto de entrada do jogo Flappy Bird.">
<polygon fill="white" stroke="black" points="1501.9,-0.5 1501.9,-19.5 1580.9,-19.5 1580.9,-0.5 1501.9,-0.5"/>
<text text-anchor="middle" x="1541.4" y="-7.5" font-family="Helvetica,sans-Serif" font-size="10.00">src/main.cpp</text>
</a>
</g>
</g>
<!-- Node3&#45;&gt;Node5 -->
<g id="edge4" class="edge">
<title>Node3&#45;&gt;Node5</title>
<path fill="none" stroke="midnightblue" d="M1487.44,-50.38C1500.81,-40.62 1517.96,-28.11 1529.3,-19.83"/>
<polygon fill="midnightblue" stroke="midnightblue" points="1485.31,-47.6 1479.29,-56.32 1489.43,-53.26 1485.31,-47.6"/>
</g>
<!-- Node6&#45;&gt;Node4 -->
<g id="edge6" class="edge">
<title>Node6&#45;&gt;Node4</title>
<path fill="none" stroke="midnightblue" d="M804.79,-52.5C828.6,-42.38 861.51,-28.39 882.37,-19.52"/>
<polygon fill="midnightblue" stroke="midnightblue" points="803.36,-49.31 795.53,-56.44 806.1,-55.75 803.36,-49.31"/>
</g>
<!-- Node7 -->
<g id="node7" class="node">
<title>Node7</title>
<g id="a_node7"><a xlink:href="load__game_8cpp.html" target="_top" xlink:title="Implementação da classe LoadName, responsável pela tela de inserção de nome do jogador.">
<polygon fill="white" stroke="black" points="262.9,-0.5 262.9,-19.5 403.9,-19.5 403.9,-0.5 262.9,-0.5"/>
<text text-anchor="middle" x="333.4" y="-7.5" font-family="Helvetica,sans-Serif" font-size="10.00">src/states/load_game.cpp</text>
</a>
</g>
</g>
<!-- Node6&#45;&gt;Node7 -->
<g id="edge7" class="edge">
<title>Node6&#45;&gt;Node7</title>
<path fill="none" stroke="midnightblue" d="M701,-55.91C617.9,-45.76 484.42,-29.45 403.22,-19.53"/>
<polygon fill="midnightblue" stroke="midnightblue" points="700.78,-59.41 711.13,-57.15 701.63,-52.46 700.78,-59.41"/>
</g>
<!-- Node8 -->
<g id="node8" class="node">
<title>Node8</title>
<g id="a_node8"><a xlink:href="play_8cpp.html" target="_top" xlink:title="Implementacao da classe Play.">
<polygon fill="white" stroke="black" points="686.9,-0.5 686.9,-19.5 793.9,-19.5 793.9,-0.5 686.9,-0.5"/>
<text text-anchor="middle" x="740.4" y="-7.5" font-family="Helvetica,sans-Serif" font-size="10.00">src/states/play.cpp</text>
</a>
</g>
</g>
<!-- Node6&#45;&gt;Node8 -->
<g id="edge8" class="edge">
<title>Node6&#45;&gt;Node8</title>
<path fill="none" stroke="midnightblue" d="M764.1,-47.57C758.08,-38.27 750.93,-27.25 746.07,-19.75"/>
<polygon fill="midnightblue" stroke="midnightblue" points="761.25,-49.6 769.62,-56.08 767.12,-45.79 761.25,-49.6"/>
</g>
<!-- Node10&#45;&gt;Node1 -->
<g id="edge24" class="edge">
<title>Node10&#45;&gt;Node1</title>
<path fill="none" stroke="midnightblue" d="M1082.26,-334.74C1127.06,-344.93 1190.74,-360.04 1228.36,-369.44"/>
<polygon fill="midnightblue" stroke="midnightblue" points="1082.97,-331.31 1072.44,-332.52 1081.42,-338.14 1082.97,-331.31"/>
</g>
<!-- Node10&#45;&gt;Node2 -->
<g id="edge12" class="edge">
<title>Node10&#45;&gt;Node2</title>
<path fill="none" stroke="midnightblue" d="M1075.22,-310.35C1096.03,-303.22 1120.25,-292.44 1138.4,-277 1183.82,-238.38 1214.21,-171.85 1225.96,-142.78"/>
<polygon fill="midnightblue" stroke="midnightblue" points="1074.06,-307.04 1065.64,-313.46 1076.23,-313.7 1074.06,-307.04"/>
</g>
<!-- Node10&#45;&gt;Node3 -->
<g id="edge11" class="edge">
<title>Node10&#45;&gt;Node3</title>
<path fill="none" stroke="midnightblue" d="M1087.75,-322.28C1154.76,-320.82 1268.91,-312.63 1359.4,-277 1381.66,-268.24 1381.84,-256.37 1403.4,-246 1455.12,-221.13 1492.94,-255.89 1527.4,-210 1539.59,-193.77 1526.2,-130.14 1516.4,-112 1508.06,-96.55 1492.35,-83.59 1480.96,-75.6"/>
<polygon fill="midnightblue" stroke="midnightblue" points="1087.35,-318.78 1077.41,-322.45 1087.47,-325.78 1087.35,-318.78"/>
</g>
<!-- Node10&#45;&gt;Node4 -->
<g id="edge45" class="edge">
<title>Node10&#45;&gt;Node4</title>
<path fill="none" stroke="midnightblue" d="M1046.38,-305.47C1052.63,-297.48 1059.17,-287.38 1062.4,-277 1066.5,-263.84 1066.46,-259.17 1062.4,-246 1046.27,-193.64 937.8,-55.37 909.27,-19.56"/>
<polygon fill="midnightblue" stroke="midnightblue" points="1043.62,-303.32 1039.89,-313.23 1048.99,-307.81 1043.62,-303.32"/>
</g>
<!-- Node10&#45;&gt;Node5 -->
<g id="edge47" class="edge">
<title>Node10&#45;&gt;Node5</title>
<path fill="none" stroke="midnightblue" d="M1087.72,-318.61C1175.59,-312.73 1340.91,-299.09 1395.4,-277 1416.57,-268.42 1416.19,-256.64 1436.4,-246 1481.17,-222.43 1513.16,-249.8 1544.4,-210 1590.48,-151.29 1556.67,-49.98 1544.97,-19.76"/>
<polygon fill="midnightblue" stroke="midnightblue" points="1087.4,-315.13 1077.66,-319.28 1087.86,-322.11 1087.4,-315.13"/>
</g>
<!-- Node10&#45;&gt;Node7 -->
<g id="edge52" class="edge">
<title>Node10&#45;&gt;Node7</title>
<path fill="none" stroke="midnightblue" d="M975.28,-321.36C768.37,-318.76 58.29,-307.64 21.4,-277 -7.21,-253.23 2.4,-232.69 2.4,-195.5 2.4,-195.5 2.4,-195.5 2.4,-126.5 2.4,-69.97 176.67,-34.67 272.31,-19.55"/>
<polygon fill="midnightblue" stroke="midnightblue" points="975.28,-324.86 985.32,-321.48 975.37,-317.86 975.28,-324.86"/>
</g>
<!-- Node11 -->
<g id="node11" class="node">
<title>Node11</title>
<g id="a_node11"><a xlink:href="game__object_8hpp.html" target="_top" xlink:title="Classe base abstrata para todos os objetos renderizáveis.">
<polygon fill="white" stroke="black" points="1211.9,-252 1211.9,-271 1350.9,-271 1350.9,-252 1211.9,-252"/>
<text text-anchor="middle" x="1281.4" y="-259" font-family="Helvetica,sans-Serif" font-size="10.00">include/game_object.hpp</text>
</a>
</g>
</g>
<!-- Node10&#45;&gt;Node11 -->
<g id="edge13" class="edge">
<title>Node10&#45;&gt;Node11</title>
<path fill="none" stroke="midnightblue" d="M1077.14,-311.11C1125.67,-299.57 1201.31,-281.56 1245.65,-271.01"/>
<polygon fill="midnightblue" stroke="midnightblue" points="1076.14,-307.75 1067.22,-313.48 1077.76,-314.56 1076.14,-307.75"/>
</g>
<!-- Node14 -->
<g id="node14" class="node">
<title>Node14</title>
<g id="a_node14"><a xlink:href="pipe_8hpp.html" target="_top" xlink:title="Declaration of pipe&#45;related classes (Pipe, PipePair, PipeList).">
<polygon fill="white" stroke="black" points="1057.9,-185 1057.9,-204 1154.9,-204 1154.9,-185 1057.9,-185"/>
<text text-anchor="middle" x="1106.4" y="-192" font-family="Helvetica,sans-Serif" font-size="10.00">include/pipe.hpp</text>
</a>
</g>
</g>
<!-- Node10&#45;&gt;Node14 -->
<g id="edge23" class="edge">
<title>Node10&#45;&gt;Node14</title>
<path fill="none" stroke="midnightblue" d="M1078.18,-309.85C1094.78,-303.04 1111.73,-292.65 1121.4,-277 1135.85,-253.62 1120.39,-219.76 1111.61,-204.07"/>
<polygon fill="midnightblue" stroke="midnightblue" points="1076.65,-306.68 1068.5,-313.46 1079.1,-313.24 1076.65,-306.68"/>
</g>
<!-- Node17 -->
<g id="node17" class="node">
<title>Node17</title>
<g id="a_node17"><a xlink:href="difficulty__menu_8hpp.html" target="_top" xlink:title="Definição da classe DifficultyMenu, que representa o estado do menu de seleção de dificuldade.">
<polygon fill="white" stroke="black" points="196.9,-246.5 196.9,-276.5 327.9,-276.5 327.9,-246.5 196.9,-246.5"/>
<text text-anchor="start" x="204.9" y="-264.5" font-family="Helvetica,sans-Serif" font-size="10.00">include/states/difficulty</text>
<text text-anchor="middle" x="262.4" y="-253.5" font-family="Helvetica,sans-Serif" font-size="10.00">_menu.hpp</text>
</a>
</g>
</g>
<!-- Node10&#45;&gt;Node17 -->
<g id="edge25" class="edge">
<title>Node10&#45;&gt;Node17</title>
<path fill="none" stroke="midnightblue" d="M975.06,-320.76C856.57,-317.61 573.09,-307.3 337.4,-277 334.38,-276.61 331.29,-276.17 328.18,-275.7"/>
<polygon fill="midnightblue" stroke="midnightblue" points="975.24,-324.26 985.33,-321.02 975.42,-317.26 975.24,-324.26"/>
</g>
<!-- Node18 -->
<g id="node18" class="node">
<title>Node18</title>
<g id="a_node18"><a xlink:href="difficulty__menu_8cpp.html" target="_top" xlink:title="Implementação da classe DifficultyMenu, que gerencia a tela de seleção de dificuldade.">
<polygon fill="white" stroke="black" points="363.4,-179.5 363.4,-209.5 473.4,-209.5 473.4,-179.5 363.4,-179.5"/>
<text text-anchor="start" x="371.4" y="-197.5" font-family="Helvetica,sans-Serif" font-size="10.00">src/states/difficulty</text>
<text text-anchor="middle" x="418.4" y="-186.5" font-family="Helvetica,sans-Serif" font-size="10.00">_menu.cpp</text>
</a>
</g>
</g>
<!-- Node10&#45;&gt;Node18 -->
<g id="edge50" class="edge">
<title>Node10&#45;&gt;Node18</title>
<path fill="none" stroke="midnightblue" d="M975.2,-320.97C863.38,-318.24 617.08,-308.72 539.4,-277 519.22,-268.76 519.2,-258.58 501.4,-246 482.67,-232.76 460.42,-219.33 443.67,-209.66"/>
<polygon fill="midnightblue" stroke="midnightblue" points="975.2,-324.47 985.27,-321.2 975.36,-317.47 975.2,-324.47"/>
</g>
<!-- Node19 -->
<g id="node19" class="node">
<title>Node19</title>
<g id="a_node19"><a xlink:href="main__menu_8cpp.html" target="_top" xlink:title="Implementação da classe MainMenu, o estado principal e tela inicial do jogo.">
<polygon fill="white" stroke="black" points="194.9,-185 194.9,-204 339.9,-204 339.9,-185 194.9,-185"/>
<text text-anchor="middle" x="267.4" y="-192" font-family="Helvetica,sans-Serif" font-size="10.00">src/states/main_menu.cpp</text>
</a>
</g>
</g>
<!-- Node10&#45;&gt;Node19 -->
<g id="edge53" class="edge">
<title>Node10&#45;&gt;Node19</title>
<path fill="none" stroke="midnightblue" d="M975.32,-321.11C791.06,-317.9 214.53,-305.61 187.4,-277 161.83,-250.02 216.63,-218.84 247.79,-204.09"/>
<polygon fill="midnightblue" stroke="midnightblue" points="975.28,-324.61 985.34,-321.28 975.4,-317.61 975.28,-324.61"/>
</g>
<!-- Node20 -->
<g id="node20" class="node">
<title>Node20</title>
<g id="a_node20"><a xlink:href="leaderboard__menu_8hpp.html" target="_top" xlink:title="Definição da classe LeaderboardMenu, que representa o estado da tela de ranking.">
<polygon fill="white" stroke="black" points="346.4,-246.5 346.4,-276.5 492.4,-276.5 492.4,-246.5 346.4,-246.5"/>
<text text-anchor="start" x="354.4" y="-264.5" font-family="Helvetica,sans-Serif" font-size="10.00">include/states/leaderboard</text>
<text text-anchor="middle" x="419.4" y="-253.5" font-family="Helvetica,sans-Serif" font-size="10.00">_menu.hpp</text>
</a>
</g>
</g>
<!-- Node10&#45;&gt;Node20 -->
<g id="edge28" class="edge">
<title>Node10&#45;&gt;Node20</title>
<path fill="none" stroke="midnightblue" d="M975.18,-318.66C878.94,-312.6 676.51,-298.43 506.4,-277 501.84,-276.43 497.16,-275.79 492.44,-275.11"/>
<polygon fill="midnightblue" stroke="midnightblue" points="975.08,-322.16 985.27,-319.29 975.51,-315.17 975.08,-322.16"/>
</g>
<!-- Node21 -->
<g id="node21" class="node">
<title>Node21</title>
<g id="a_node21"><a xlink:href="leaderboard__menu_8cpp.html" target="_top" xlink:title="Implementação da classe LeaderboardMenu, responsável por exibir a tela de ranking.">
<polygon fill="white" stroke="black" points="529.9,-179.5 529.9,-209.5 654.9,-209.5 654.9,-179.5 529.9,-179.5"/>
<text text-anchor="start" x="537.9" y="-197.5" font-family="Helvetica,sans-Serif" font-size="10.00">src/states/leaderboard</text>
<text text-anchor="middle" x="592.4" y="-186.5" font-family="Helvetica,sans-Serif" font-size="10.00">_menu.cpp</text>
</a>
</g>
</g>
<!-- Node10&#45;&gt;Node21 -->
<g id="edge51" class="edge">
<title>Node10&#45;&gt;Node21</title>
<path fill="none" stroke="midnightblue" d="M1031.99,-303.17C1031.44,-285.63 1027.6,-260.12 1011.4,-246 985.06,-223.05 765.34,-206.26 655.05,-199.2"/>
<polygon fill="midnightblue" stroke="midnightblue" points="1028.49,-303.35 1031.98,-313.35 1035.49,-303.36 1028.49,-303.35"/>
</g>
<!-- Node22 -->
<g id="node22" class="node">
<title>Node22</title>
<g id="a_node22"><a xlink:href="load__game_8hpp.html" target="_top" xlink:title="Definição da classe LoadName, que representa o estado de inserção de nome.">
<polygon fill="white" stroke="black" points="30.9,-246.5 30.9,-276.5 139.9,-276.5 139.9,-246.5 30.9,-246.5"/>
<text text-anchor="start" x="38.9" y="-264.5" font-family="Helvetica,sans-Serif" font-size="10.00">include/states/load</text>
<text text-anchor="middle" x="85.4" y="-253.5" font-family="Helvetica,sans-Serif" font-size="10.00">_game.hpp</text>
</a>
</g>
</g>
<!-- Node10&#45;&gt;Node22 -->
<g id="edge31" class="edge">
<title>Node10&#45;&gt;Node22</title>
<path fill="none" stroke="midnightblue" d="M975.01,-322.14C835.33,-321.84 462.3,-317 154.4,-277 149.79,-276.4 145.03,-275.66 140.26,-274.83"/>
<polygon fill="midnightblue" stroke="midnightblue" points="975.05,-325.64 985.06,-322.16 975.06,-318.64 975.05,-325.64"/>
</g>
<!-- Node23 -->
<g id="node23" class="node">
<title>Node23</title>
<g id="a_node23"><a xlink:href="main__menu_8hpp.html" target="_top" xlink:title="Definição da classe MainMenu, o estado que representa o menu principal do jogo.">
<polygon fill="white" stroke="black" points="548.9,-246.5 548.9,-276.5 661.9,-276.5 661.9,-246.5 548.9,-246.5"/>
<text text-anchor="start" x="556.9" y="-264.5" font-family="Helvetica,sans-Serif" font-size="10.00">include/states/main</text>
<text text-anchor="middle" x="605.4" y="-253.5" font-family="Helvetica,sans-Serif" font-size="10.00">_menu.hpp</text>
</a>
</g>
</g>
<!-- Node10&#45;&gt;Node23 -->
<g id="edge34" class="edge">
<title>Node10&#45;&gt;Node23</title>
<path fill="none" stroke="midnightblue" d="M975.22,-316.68C904.01,-309.54 777.61,-295.6 670.4,-277 667.67,-276.53 664.88,-276.01 662.06,-275.47"/>
<polygon fill="midnightblue" stroke="midnightblue" points="975.02,-320.17 985.32,-317.68 975.72,-313.21 975.02,-320.17"/>
</g>
<!-- Node24 -->
<g id="node24" class="node">
<title>Node24</title>
<g id="a_node24"><a xlink:href="settings__menu_8cpp.html" target="_top" xlink:title="Implementação da classe SettingsMenu, que gerencia a tela de configurações do jogo.">
<polygon fill="white" stroke="black" points="895.4,-179.5 895.4,-209.5 1001.4,-209.5 1001.4,-179.5 895.4,-179.5"/>
<text text-anchor="start" x="903.4" y="-197.5" font-family="Helvetica,sans-Serif" font-size="10.00">src/states/settings</text>
<text text-anchor="middle" x="948.4" y="-186.5" font-family="Helvetica,sans-Serif" font-size="10.00">_menu.cpp</text>
</a>
</g>
</g>
<!-- Node10&#45;&gt;Node24 -->
<g id="edge54" class="edge">
<title>Node10&#45;&gt;Node24</title>
<path fill="none" stroke="midnightblue" d="M1041.16,-304.36C1048.72,-288.1 1056.24,-263.86 1045.4,-246 1035.01,-228.88 1016.71,-217.29 998.79,-209.58"/>
<polygon fill="midnightblue" stroke="midnightblue" points="1038.01,-302.82 1036.61,-313.33 1044.26,-305.99 1038.01,-302.82"/>
</g>
<!-- Node25 -->
<g id="node25" class="node">
<title>Node25</title>
<g id="a_node25"><a xlink:href="settings__menu_8hpp.html" target="_top" xlink:title="Definição da classe SettingsMenu, que representa o estado do menu de configurações.">
<polygon fill="white" stroke="black" points="679.9,-246.5 679.9,-276.5 806.9,-276.5 806.9,-246.5 679.9,-246.5"/>
<text text-anchor="start" x="687.9" y="-264.5" font-family="Helvetica,sans-Serif" font-size="10.00">include/states/settings</text>
<text text-anchor="middle" x="743.4" y="-253.5" font-family="Helvetica,sans-Serif" font-size="10.00">_menu.hpp</text>
</a>
</g>
</g>
<!-- Node10&#45;&gt;Node25 -->
<g id="edge42" class="edge">
<title>Node10&#45;&gt;Node25</title>
<path fill="none" stroke="midnightblue" d="M980.21,-311.42C931.87,-301.44 859.23,-286.43 807.16,-275.67"/>
<polygon fill="midnightblue" stroke="midnightblue" points="979.64,-314.88 990.14,-313.48 981.05,-308.02 979.64,-314.88"/>
</g>
<!-- Node26 -->
<g id="node26" class="node">
<title>Node26</title>
<g id="a_node26"><a xlink:href="init_8cpp.html" target="_top" xlink:title="Inicialização de Allegro, fontes, addons e recursos globais.">
<polygon fill="white" stroke="black" points="825.4,-252 825.4,-271 895.4,-271 895.4,-252 825.4,-252"/>
<text text-anchor="middle" x="860.4" y="-259" font-family="Helvetica,sans-Serif" font-size="10.00">src/init.cpp</text>
</a>
</g>
</g>
<!-- Node10&#45;&gt;Node26 -->
<g id="edge46" class="edge">
<title>Node10&#45;&gt;Node26</title>
<path fill="none" stroke="midnightblue" d="M997.15,-310.08C963.91,-298.52 914.3,-281.25 884.86,-271.01"/>
<polygon fill="midnightblue" stroke="midnightblue" points="996.31,-313.49 1006.9,-313.48 998.61,-306.88 996.31,-313.49"/>
</g>
<!-- Node27 -->
<g id="node27" class="node">
<title>Node27</title>
<g id="a_node27"><a xlink:href="motion_8cpp.html" target="_top" xlink:title="Implementação da classe Motion (parallax e clima).">
<polygon fill="white" stroke="black" points="913.9,-252 913.9,-271 1002.9,-271 1002.9,-252 913.9,-252"/>
<text text-anchor="middle" x="958.4" y="-259" font-family="Helvetica,sans-Serif" font-size="10.00">src/motion.cpp</text>
</a>
</g>
</g>
<!-- Node10&#45;&gt;Node27 -->
<g id="edge48" class="edge">
<title>Node10&#45;&gt;Node27</title>
<path fill="none" stroke="midnightblue" d="M1012.97,-306.97C999,-295.59 980.33,-280.37 968.84,-271.01"/>
<polygon fill="midnightblue" stroke="midnightblue" points="1010.98,-309.87 1020.94,-313.48 1015.4,-304.44 1010.98,-309.87"/>
</g>
<!-- Node10&#45;&gt;Node28 -->
<g id="edge49" class="edge">
<title>Node10&#45;&gt;Node28</title>
<path fill="none" stroke="midnightblue" d="M1087.67,-318.19C1165.42,-312.35 1309.9,-299.45 1431.4,-277 1439.99,-275.41 1449.21,-273.23 1457.64,-271.04"/>
<polygon fill="midnightblue" stroke="midnightblue" points="1087.32,-314.71 1077.61,-318.93 1087.84,-321.69 1087.32,-314.71"/>
</g>
<!-- Node11&#45;&gt;Node2 -->
<g id="edge18" class="edge">
<title>Node11&#45;&gt;Node2</title>
<path fill="none" stroke="midnightblue" d="M1264.52,-244.66C1255.8,-235.43 1245.86,-223.06 1240.4,-210 1231.12,-187.8 1230.17,-159.4 1230.6,-142.65"/>
<polygon fill="midnightblue" stroke="midnightblue" points="1262.2,-247.28 1271.73,-251.9 1267.16,-242.35 1262.2,-247.28"/>
</g>
<!-- Node12 -->
<g id="node12" class="node">
<title>Node12</title>
<g id="a_node12"><a xlink:href="bird_8hpp.html" target="_top" xlink:title="Declaracao da classe Bird (personagem controlavel).">
<polygon fill="white" stroke="black" points="1423.9,-185 1423.9,-204 1518.9,-204 1518.9,-185 1423.9,-185"/>
<text text-anchor="middle" x="1471.4" y="-192" font-family="Helvetica,sans-Serif" font-size="10.00">include/bird.hpp</text>
</a>
</g>
</g>
<!-- Node11&#45;&gt;Node12 -->
<g id="edge14" class="edge">
<title>Node11&#45;&gt;Node12</title>
<path fill="none" stroke="midnightblue" d="M1316.18,-248.6C1353.85,-235.71 1413.02,-215.47 1446.37,-204.06"/>
<polygon fill="midnightblue" stroke="midnightblue" points="1314.96,-245.32 1306.63,-251.87 1317.23,-251.94 1314.96,-245.32"/>
</g>
<!-- Node11&#45;&gt;Node14 -->
<g id="edge19" class="edge">
<title>Node11&#45;&gt;Node14</title>
<path fill="none" stroke="midnightblue" d="M1248.48,-248.27C1213.74,-235.37 1159.91,-215.38 1129.46,-204.06"/>
<polygon fill="midnightblue" stroke="midnightblue" points="1247.57,-251.67 1258.16,-251.87 1250.01,-245.11 1247.57,-251.67"/>
</g>
<!-- Node16 -->
<g id="node16" class="node">
<title>Node16</title>
<g id="a_node16"><a xlink:href="game__object_8cpp.html" target="_top" xlink:title="Métodos utilitários da classe base GameObject.">
<polygon fill="white" stroke="black" points="1249.9,-185 1249.9,-204 1366.9,-204 1366.9,-185 1249.9,-185"/>
<text text-anchor="middle" x="1308.4" y="-192" font-family="Helvetica,sans-Serif" font-size="10.00">src/game_object.cpp</text>
</a>
</g>
</g>
<!-- Node11&#45;&gt;Node16 -->
<g id="edge22" class="edge">
<title>Node11&#45;&gt;Node16</title>
<path fill="none" stroke="midnightblue" d="M1288.97,-242.29C1294.15,-229.81 1300.8,-213.81 1304.82,-204.13"/>
<polygon fill="midnightblue" stroke="midnightblue" points="1285.65,-241.16 1285.04,-251.73 1292.11,-243.84 1285.65,-241.16"/>
</g>
<!-- Node12&#45;&gt;Node2 -->
<g id="edge15" class="edge">
<title>Node12&#45;&gt;Node2</title>
<path fill="none" stroke="midnightblue" d="M1429.67,-182.2C1388.99,-171.18 1327.01,-154.39 1283.2,-142.53"/>
<polygon fill="midnightblue" stroke="midnightblue" points="1428.97,-185.63 1439.53,-184.87 1430.8,-178.88 1428.97,-185.63"/>
</g>
<!-- Node12&#45;&gt;Node9 -->
<g id="edge17" class="edge">
<title>Node12&#45;&gt;Node9</title>
<path fill="none" stroke="midnightblue" d="M1447.38,-179.69C1401.75,-153.45 1303.75,-97.1 1266.34,-75.59"/>
<polygon fill="midnightblue" stroke="midnightblue" points="1445.87,-182.85 1456.28,-184.81 1449.36,-176.79 1445.87,-182.85"/>
</g>
<!-- Node13 -->
<g id="node13" class="node">
<title>Node13</title>
<g id="a_node13"><a xlink:href="bird_8cpp.html" target="_top" xlink:title="Implementação da classe Bird (animação, física e colisões).">
<polygon fill="white" stroke="black" points="1434.9,-118 1434.9,-137 1507.9,-137 1507.9,-118 1434.9,-118"/>
<text text-anchor="middle" x="1471.4" y="-125" font-family="Helvetica,sans-Serif" font-size="10.00">src/bird.cpp</text>
</a>
</g>
</g>
<!-- Node12&#45;&gt;Node13 -->
<g id="edge16" class="edge">
<title>Node12&#45;&gt;Node13</title>
<path fill="none" stroke="midnightblue" d="M1471.4,-174.54C1471.4,-162.17 1471.4,-146.62 1471.4,-137.13"/>
<polygon fill="midnightblue" stroke="midnightblue" points="1467.9,-174.73 1471.4,-184.73 1474.9,-174.73 1467.9,-174.73"/>
</g>
<!-- Node14&#45;&gt;Node2 -->
<g id="edge20" class="edge">
<title>Node14&#45;&gt;Node2</title>
<path fill="none" stroke="midnightblue" d="M1131.99,-180.19C1153.02,-169.26 1182.73,-153.81 1204.19,-142.65"/>
<polygon fill="midnightblue" stroke="midnightblue" points="1130.26,-177.15 1123,-184.87 1133.49,-183.36 1130.26,-177.15"/>
</g>
<!-- Node15 -->
<g id="node15" class="node">
<title>Node15</title>
<g id="a_node15"><a xlink:href="pipe_8cpp.html" target="_top" xlink:title="Implementação das classes Pipe, PipePair e PipeList.">
<polygon fill="white" stroke="black" points="1068.9,-118 1068.9,-137 1143.9,-137 1143.9,-118 1068.9,-118"/>
<text text-anchor="middle" x="1106.4" y="-125" font-family="Helvetica,sans-Serif" font-size="10.00">src/pipe.cpp</text>
</a>
</g>
</g>
<!-- Node14&#45;&gt;Node15 -->
<g id="edge21" class="edge">
<title>Node14&#45;&gt;Node15</title>
<path fill="none" stroke="midnightblue" d="M1106.4,-174.54C1106.4,-162.17 1106.4,-146.62 1106.4,-137.13"/>
<polygon fill="midnightblue" stroke="midnightblue" points="1102.9,-174.73 1106.4,-184.73 1109.9,-174.73 1102.9,-174.73"/>
</g>
<!-- Node17&#45;&gt;Node18 -->
<g id="edge26" class="edge">
<title>Node17&#45;&gt;Node18</title>
<path fill="none" stroke="midnightblue" d="M305.5,-242.54C330.46,-232.14 361.43,-219.24 384.62,-209.58"/>
<polygon fill="midnightblue" stroke="midnightblue" points="304.14,-239.32 296.25,-246.4 306.83,-245.78 304.14,-239.32"/>
</g>
<!-- Node17&#45;&gt;Node19 -->
<g id="edge27" class="edge">
<title>Node17&#45;&gt;Node19</title>
<path fill="none" stroke="midnightblue" d="M264.27,-236.25C265.13,-225.02 266.1,-212.38 266.73,-204.19"/>
<polygon fill="midnightblue" stroke="midnightblue" points="260.76,-236.16 263.49,-246.4 267.74,-236.69 260.76,-236.16"/>
</g>
<!-- Node20&#45;&gt;Node19 -->
<g id="edge30" class="edge">
<title>Node20&#45;&gt;Node19</title>
<path fill="none" stroke="midnightblue" d="M377.21,-242.46C347.85,-229.9 310.02,-213.72 287.3,-204.01"/>
<polygon fill="midnightblue" stroke="midnightblue" points="375.85,-245.68 386.42,-246.4 378.6,-239.25 375.85,-245.68"/>
</g>
<!-- Node20&#45;&gt;Node21 -->
<g id="edge29" class="edge">
<title>Node20&#45;&gt;Node21</title>
<path fill="none" stroke="midnightblue" d="M466.46,-242.82C494.27,-232.37 529,-219.32 554.94,-209.58"/>
<polygon fill="midnightblue" stroke="midnightblue" points="465.07,-239.6 456.94,-246.4 467.53,-246.16 465.07,-239.6"/>
</g>
<!-- Node22&#45;&gt;Node7 -->
<g id="edge32" class="edge">
<title>Node22&#45;&gt;Node7</title>
<path fill="none" stroke="midnightblue" d="M106.78,-238.99C158.61,-186.85 289.28,-55.39 324.53,-19.93"/>
<polygon fill="midnightblue" stroke="midnightblue" points="104.01,-236.81 99.45,-246.37 108.98,-241.75 104.01,-236.81"/>
</g>
<!-- Node22&#45;&gt;Node19 -->
<g id="edge33" class="edge">
<title>Node22&#45;&gt;Node19</title>
<path fill="none" stroke="midnightblue" d="M134.55,-242.95C169.9,-230.32 216.02,-213.85 243.58,-204.01"/>
<polygon fill="midnightblue" stroke="midnightblue" points="133.13,-239.74 124.89,-246.4 135.49,-246.33 133.13,-239.74"/>
</g>
<!-- Node23&#45;&gt;Node4 -->
<g id="edge35" class="edge">
<title>Node23&#45;&gt;Node4</title>
<path fill="none" stroke="midnightblue" d="M638.14,-241.11C652.87,-232.07 670.3,-220.91 685.4,-210 761.43,-155.08 781.92,-142.14 848.4,-76 867.12,-57.38 886.22,-32.81 895.9,-19.86"/>
<polygon fill="midnightblue" stroke="midnightblue" points="636.09,-238.26 629.37,-246.45 639.73,-244.24 636.09,-238.26"/>
</g>
<!-- Node23&#45;&gt;Node7 -->
<g id="edge38" class="edge">
<title>Node23&#45;&gt;Node7</title>
<path fill="none" stroke="midnightblue" d="M568.51,-241.57C553,-232.87 535.17,-221.85 520.4,-210 440.91,-146.2 363.04,-49.2 340.14,-19.77"/>
<polygon fill="midnightblue" stroke="midnightblue" points="566.88,-244.67 577.33,-246.41 570.25,-238.53 566.88,-244.67"/>
</g>
<!-- Node23&#45;&gt;Node8 -->
<g id="edge40" class="edge">
<title>Node23&#45;&gt;Node8</title>
<path fill="none" stroke="midnightblue" d="M635.44,-240.21C645.66,-231.93 656.29,-221.58 663.4,-210 700.38,-149.85 670.13,-118.8 702.4,-56 709.69,-41.81 722.21,-28.21 730.87,-19.74"/>
<polygon fill="midnightblue" stroke="midnightblue" points="633.2,-237.51 627.4,-246.38 637.47,-243.06 633.2,-237.51"/>
</g>
<!-- Node23&#45;&gt;Node18 -->
<g id="edge36" class="edge">
<title>Node23&#45;&gt;Node18</title>
<path fill="none" stroke="midnightblue" d="M555.32,-243.09C525.13,-232.6 487.18,-219.41 458.9,-209.58"/>
<polygon fill="midnightblue" stroke="midnightblue" points="554.23,-246.42 564.83,-246.4 556.53,-239.81 554.23,-246.42"/>
</g>
<!-- Node23&#45;&gt;Node19 -->
<g id="edge39" class="edge">
<title>Node23&#45;&gt;Node19</title>
<path fill="none" stroke="midnightblue" d="M538.76,-247.68C471.54,-234.76 369.65,-215.16 311.74,-204.03"/>
<polygon fill="midnightblue" stroke="midnightblue" points="538.35,-251.17 548.83,-249.62 539.67,-244.29 538.35,-251.17"/>
</g>
<!-- Node23&#45;&gt;Node21 -->
<g id="edge37" class="edge">
<title>Node23&#45;&gt;Node21</title>
<path fill="none" stroke="midnightblue" d="M600.58,-236.4C598.78,-227.37 596.78,-217.41 595.22,-209.58"/>
<polygon fill="midnightblue" stroke="midnightblue" points="597.19,-237.28 602.58,-246.4 604.05,-235.9 597.19,-237.28"/>
</g>
<!-- Node23&#45;&gt;Node24 -->
<g id="edge41" class="edge">
<title>Node23&#45;&gt;Node24</title>
<path fill="none" stroke="midnightblue" d="M671.96,-245.75C765.43,-227.65 791.1,-227.47 881.4,-210 885.84,-209.14 890.44,-208.22 895.05,-207.27"/>
<polygon fill="midnightblue" stroke="midnightblue" points="671.23,-242.33 662.09,-247.68 672.57,-249.2 671.23,-242.33"/>
</g>
<!-- Node25&#45;&gt;Node19 -->
<g id="edge43" class="edge">
<title>Node25&#45;&gt;Node19</title>
<path fill="none" stroke="midnightblue" d="M669.46,-245.94C528.98,-224.45 491.11,-229.17 354.4,-210 341.97,-208.26 328.57,-206.14 316.11,-204.07"/>
<polygon fill="midnightblue" stroke="midnightblue" points="669.34,-249.47 679.76,-247.54 670.41,-242.55 669.34,-249.47"/>
</g>
<!-- Node25&#45;&gt;Node24 -->
<g id="edge44" class="edge">
<title>Node25&#45;&gt;Node24</title>
<path fill="none" stroke="midnightblue" d="M797.19,-243.44C830.42,-232.91 872.55,-219.55 903.9,-209.61"/>
<polygon fill="midnightblue" stroke="midnightblue" points="796.11,-240.12 787.63,-246.48 798.22,-246.79 796.11,-240.12"/>
</g>
</g>
</svg>
