<?xml version="1.0" encoding="UTF-8" standalone="no"?>
<!DOCTYPE svg PUBLIC "-//W3C//DTD SVG 1.1//EN"
 "http://www.w3.org/Graphics/SVG/1.1/DTD/svg11.dtd">
<!-- Generated by graphviz version 2.43.0 (0)
 -->
<!-- Title: include/states/play.hpp Pages: 1 -->
<svg width="429pt" height="84pt"
 viewBox="0.00 0.00 429.00 84.00" xmlns="http://www.w3.org/2000/svg" xmlns:xlink="http://www.w3.org/1999/xlink">
<g id="graph0" class="graph" transform="scale(1 1) rotate(0) translate(4 80)">
<title>include/states/play.hpp</title>
<polygon fill="white" stroke="transparent" points="-4,4 -4,-80 425,-80 425,4 -4,4"/>
<!-- Node1 -->
<g id="node1" class="node">
<title>Node1</title>
<g id="a_node1"><a xlink:title="Declaracao da classe Play, responsavel pelo estado de jogo ativo.">
<polygon fill="#bfbfbf" stroke="black" points="161.5,-56.5 161.5,-75.5 289.5,-75.5 289.5,-56.5 161.5,-56.5"/>
<text text-anchor="middle" x="225.5" y="-63.5" font-family="Helvetica,sans-Serif" font-size="10.00">include/states/play.hpp</text>
</a>
</g>
</g>
<!-- Node2 -->
<g id="node2" class="node">
<title>Node2</title>
<g id="a_node2"><a xlink:href="allegro__interface_8cpp.html" target="_top" xlink:title="Implementação do controlador principal que integra Allegro às lógicas de estado do jogo.">
<polygon fill="white" stroke="black" points="0,-0.5 0,-19.5 137,-19.5 137,-0.5 0,-0.5"/>
<text text-anchor="middle" x="68.5" y="-7.5" font-family="Helvetica,sans-Serif" font-size="10.00">src/allegro_interface.cpp</text>
</a>
</g>
</g>
<!-- Node1&#45;&gt;Node2 -->
<g id="edge1" class="edge">
<title>Node1&#45;&gt;Node2</title>
<path fill="none" stroke="midnightblue" d="M191.11,-53.17C161.55,-43 119.63,-28.59 93.26,-19.52"/>
<polygon fill="midnightblue" stroke="midnightblue" points="190.03,-56.5 200.62,-56.44 192.3,-49.88 190.03,-56.5"/>
</g>
<!-- Node3 -->
<g id="node3" class="node">
<title>Node3</title>
<g id="a_node3"><a xlink:href="load__game_8cpp.html" target="_top" xlink:title="Implementação da classe LoadName, responsável pela tela de inserção de nome do jogador.">
<polygon fill="white" stroke="black" points="155,-0.5 155,-19.5 296,-19.5 296,-0.5 155,-0.5"/>
<text text-anchor="middle" x="225.5" y="-7.5" font-family="Helvetica,sans-Serif" font-size="10.00">src/states/load_game.cpp</text>
</a>
</g>
</g>
<!-- Node1&#45;&gt;Node3 -->
<g id="edge2" class="edge">
<title>Node1&#45;&gt;Node3</title>
<path fill="none" stroke="midnightblue" d="M225.5,-45.8C225.5,-36.91 225.5,-26.78 225.5,-19.75"/>
<polygon fill="midnightblue" stroke="midnightblue" points="222,-46.08 225.5,-56.08 229,-46.08 222,-46.08"/>
</g>
<!-- Node4 -->
<g id="node4" class="node">
<title>Node4</title>
<g id="a_node4"><a xlink:href="play_8cpp.html" target="_top" xlink:title="Implementacao da classe Play.">
<polygon fill="white" stroke="black" points="314,-0.5 314,-19.5 421,-19.5 421,-0.5 314,-0.5"/>
<text text-anchor="middle" x="367.5" y="-7.5" font-family="Helvetica,sans-Serif" font-size="10.00">src/states/play.cpp</text>
</a>
</g>
</g>
<!-- Node1&#45;&gt;Node4 -->
<g id="edge3" class="edge">
<title>Node1&#45;&gt;Node4</title>
<path fill="none" stroke="midnightblue" d="M257.66,-52.77C284.33,-42.63 321.57,-28.47 345.1,-19.52"/>
<polygon fill="midnightblue" stroke="midnightblue" points="256.1,-49.62 248,-56.44 258.59,-56.16 256.1,-49.62"/>
</g>
</g>
</svg>
