<?xml version="1.0" encoding="UTF-8" standalone="no"?>
<!DOCTYPE svg PUBLIC "-//W3C//DTD SVG 1.1//EN"
 "http://www.w3.org/Graphics/SVG/1.1/DTD/svg11.dtd">
<!-- Generated by graphviz version 2.43.0 (0)
 -->
<!-- Title: operator&lt;&lt; Pages: 1 -->
<svg width="218pt" height="66pt"
 viewBox="0.00 0.00 218.00 66.00" xmlns="http://www.w3.org/2000/svg" xmlns:xlink="http://www.w3.org/1999/xlink">
<g id="graph0" class="graph" transform="scale(1 1) rotate(0) translate(4 62)">
<title>operator&lt;&lt;</title>
<polygon fill="white" stroke="transparent" points="-4,4 -4,-62 214,-62 214,4 -4,4"/>
<!-- Node1 -->
<g id="node1" class="node">
<title>Node1</title>
<g id="a_node1"><a xlink:title="Sobrecarga de operador de streaming para debug.">
<polygon fill="#bfbfbf" stroke="black" points="0,-19.5 0,-38.5 74,-38.5 74,-19.5 0,-19.5"/>
<text text-anchor="middle" x="37" y="-26.5" font-family="Helvetica,sans-Serif" font-size="10.00">operator&lt;&lt;</text>
</a>
</g>
</g>
<!-- Node2 -->
<g id="node2" class="node">
<title>Node2</title>
<g id="a_node2"><a xlink:href="classPlayer.html#affddef50f994746a860e2366e412917f" target="_top" xlink:title="Retorna o nome do jogador.">
<polygon fill="white" stroke="black" points="110,-38.5 110,-57.5 210,-57.5 210,-38.5 110,-38.5"/>
<text text-anchor="middle" x="160" y="-45.5" font-family="Helvetica,sans-Serif" font-size="10.00">Player::GetName</text>
</a>
</g>
</g>
<!-- Node1&#45;&gt;Node2 -->
<g id="edge1" class="edge">
<title>Node1&#45;&gt;Node2</title>
<path fill="none" stroke="midnightblue" d="M74.3,-34.7C82.31,-35.96 90.99,-37.32 99.64,-38.68"/>
<polygon fill="midnightblue" stroke="midnightblue" points="99.32,-42.17 109.74,-40.27 100.41,-35.26 99.32,-42.17"/>
</g>
<!-- Node3 -->
<g id="node3" class="node">
<title>Node3</title>
<g id="a_node3"><a xlink:href="classPlayer.html#a777fb06bddf27e2810053843cb0cc6f9" target="_top" xlink:title="Retorna a pontuação atual.">
<polygon fill="white" stroke="black" points="111,-0.5 111,-19.5 209,-19.5 209,-0.5 111,-0.5"/>
<text text-anchor="middle" x="160" y="-7.5" font-family="Helvetica,sans-Serif" font-size="10.00">Player::GetScore</text>
</a>
</g>
</g>
<!-- Node1&#45;&gt;Node3 -->
<g id="edge2" class="edge">
<title>Node1&#45;&gt;Node3</title>
<path fill="none" stroke="midnightblue" d="M74.3,-23.3C82.6,-22 91.62,-20.58 100.58,-19.17"/>
<polygon fill="midnightblue" stroke="midnightblue" points="101.29,-22.6 110.63,-17.6 100.21,-15.69 101.29,-22.6"/>
</g>
</g>
</svg>
