<?xml version="1.0" encoding="UTF-8" standalone="no"?>
<!DOCTYPE svg PUBLIC "-//W3C//DTD SVG 1.1//EN"
 "http://www.w3.org/Graphics/SVG/1.1/DTD/svg11.dtd">
<!-- Generated by graphviz version 2.43.0 (0)
 -->
<!-- Title: src/states/settings_menu.cpp Pages: 1 -->
<svg width="1603pt" height="397pt"
 viewBox="0.00 0.00 1603.00 397.00" xmlns="http://www.w3.org/2000/svg" xmlns:xlink="http://www.w3.org/1999/xlink">
<g id="graph0" class="graph" transform="scale(1 1) rotate(0) translate(4 393)">
<title>src/states/settings_menu.cpp</title>
<polygon fill="white" stroke="transparent" points="-4,4 -4,-393 1599,-393 1599,4 -4,4"/>
<!-- Node1 -->
<g id="node1" class="node">
<title>Node1</title>
<g id="a_node1"><a xlink:title="Implementação da classe SettingsMenu, que gerencia a tela de configurações do jogo.">
<polygon fill="#bfbfbf" stroke="black" points="1338,-358.5 1338,-388.5 1444,-388.5 1444,-358.5 1338,-358.5"/>
<text text-anchor="start" x="1346" y="-376.5" font-family="Helvetica,sans-Serif" font-size="10.00">src/states/settings</text>
<text text-anchor="middle" x="1391" y="-365.5" font-family="Helvetica,sans-Serif" font-size="10.00">_menu.cpp</text>
</a>
</g>
</g>
<!-- Node2 -->
<g id="node2" class="node">
<title>Node2</title>
<g id="a_node2"><a xlink:href="settings__menu_8hpp.html" target="_top" xlink:title="Definição da classe SettingsMenu, que representa o estado do menu de configurações.">
<polygon fill="white" stroke="black" points="1412.5,-291.5 1412.5,-321.5 1525.5,-321.5 1525.5,-291.5 1412.5,-291.5"/>
<text text-anchor="start" x="1420.5" y="-309.5" font-family="Helvetica,sans-Serif" font-size="10.00">../../include/states</text>
<text text-anchor="middle" x="1469" y="-298.5" font-family="Helvetica,sans-Serif" font-size="10.00">/settings_menu.hpp</text>
</a>
</g>
</g>
<!-- Node1&#45;&gt;Node2 -->
<g id="edge1" class="edge">
<title>Node1&#45;&gt;Node2</title>
<path fill="none" stroke="midnightblue" d="M1407.92,-358.4C1418.55,-349.54 1432.45,-337.96 1444.3,-328.09"/>
<polygon fill="midnightblue" stroke="midnightblue" points="1446.67,-330.67 1452.11,-321.58 1442.19,-325.29 1446.67,-330.67"/>
</g>
<!-- Node7 -->
<g id="node7" class="node">
<title>Node7</title>
<g id="a_node7"><a xlink:href="init_8hpp.html" target="_top" xlink:title="Declara funções de inicialização e finalização do Allegro.">
<polygon fill="white" stroke="black" points="827,-235.5 827,-254.5 889,-254.5 889,-235.5 827,-235.5"/>
<text text-anchor="middle" x="858" y="-242.5" font-family="Helvetica,sans-Serif" font-size="10.00">../init.hpp</text>
</a>
</g>
</g>
<!-- Node1&#45;&gt;Node7 -->
<g id="edge50" class="edge">
<title>Node1&#45;&gt;Node7</title>
<path fill="none" stroke="midnightblue" d="M1337.95,-359.91C1231.62,-334.67 994.49,-278.39 899.01,-255.73"/>
<polygon fill="midnightblue" stroke="midnightblue" points="899.68,-252.3 889.15,-253.39 898.07,-259.11 899.68,-252.3"/>
</g>
<!-- Node14 -->
<g id="node14" class="node">
<title>Node14</title>
<g id="a_node14"><a xlink:title=" ">
<polygon fill="white" stroke="#bfbfbf" points="1509,-6 1509,-25 1567,-25 1567,-6 1509,-6"/>
<text text-anchor="middle" x="1538" y="-13" font-family="Helvetica,sans-Serif" font-size="10.00">memory</text>
</a>
</g>
</g>
<!-- Node1&#45;&gt;Node14 -->
<g id="edge49" class="edge">
<title>Node1&#45;&gt;Node14</title>
<path fill="none" stroke="midnightblue" d="M1444.07,-363.37C1504.51,-349.57 1595,-317.05 1595,-246 1595,-246 1595,-246 1595,-132 1595,-93.28 1568.93,-54.1 1552.05,-32.8"/>
<polygon fill="midnightblue" stroke="midnightblue" points="1554.74,-30.56 1545.69,-25.06 1549.33,-35.01 1554.74,-30.56"/>
</g>
<!-- Node29 -->
<g id="node29" class="node">
<title>Node29</title>
<g id="a_node29"><a xlink:href="main__menu_8hpp.html" target="_top" xlink:title="Definição da classe MainMenu, o estado que representa o menu principal do jogo.">
<polygon fill="white" stroke="black" points="1276.5,-291.5 1276.5,-321.5 1379.5,-321.5 1379.5,-291.5 1276.5,-291.5"/>
<text text-anchor="start" x="1284.5" y="-309.5" font-family="Helvetica,sans-Serif" font-size="10.00">../../include/states</text>
<text text-anchor="middle" x="1328" y="-298.5" font-family="Helvetica,sans-Serif" font-size="10.00">/main_menu.hpp</text>
</a>
</g>
</g>
<!-- Node1&#45;&gt;Node29 -->
<g id="edge51" class="edge">
<title>Node1&#45;&gt;Node29</title>
<path fill="none" stroke="midnightblue" d="M1377.33,-358.4C1368.99,-349.79 1358.17,-338.63 1348.78,-328.94"/>
<polygon fill="midnightblue" stroke="midnightblue" points="1351.12,-326.32 1341.64,-321.58 1346.09,-331.19 1351.12,-326.32"/>
</g>
<!-- Node3 -->
<g id="node3" class="node">
<title>Node3</title>
<g id="a_node3"><a xlink:href="defines_8hpp.html" target="_top" xlink:title="Constantes globais, macros e estruturas auxiliares do jogo.">
<polygon fill="white" stroke="black" points="1329,-67.5 1329,-86.5 1411,-86.5 1411,-67.5 1329,-67.5"/>
<text text-anchor="middle" x="1370" y="-74.5" font-family="Helvetica,sans-Serif" font-size="10.00">../defines.hpp</text>
</a>
</g>
</g>
<!-- Node2&#45;&gt;Node3 -->
<g id="edge2" class="edge">
<title>Node2&#45;&gt;Node3</title>
<path fill="none" stroke="midnightblue" d="M1468.45,-291.07C1466.61,-258.6 1458.61,-178.33 1424,-123 1416.34,-110.75 1404.22,-100.21 1393.4,-92.42"/>
<polygon fill="midnightblue" stroke="midnightblue" points="1395.35,-89.51 1385.12,-86.77 1391.41,-95.3 1395.35,-89.51"/>
</g>
<!-- Node2&#45;&gt;Node7 -->
<g id="edge6" class="edge">
<title>Node2&#45;&gt;Node7</title>
<path fill="none" stroke="midnightblue" d="M1412.29,-294.54C1404.48,-293.23 1396.56,-292 1389,-291 1207.26,-266.88 988.73,-253.14 899.25,-248.16"/>
<polygon fill="midnightblue" stroke="midnightblue" points="899.41,-244.66 889.23,-247.61 899.03,-251.65 899.41,-244.66"/>
</g>
<!-- Node2&#45;&gt;Node14 -->
<g id="edge48" class="edge">
<title>Node2&#45;&gt;Node14</title>
<path fill="none" stroke="midnightblue" d="M1489.85,-291.38C1515.88,-271.89 1557,-234.12 1557,-190 1557,-190 1557,-190 1557,-132 1557,-97.4 1548.6,-57.74 1542.97,-35.05"/>
<polygon fill="midnightblue" stroke="midnightblue" points="1546.29,-33.92 1540.41,-25.11 1539.51,-35.67 1546.29,-33.92"/>
</g>
<!-- Node25 -->
<g id="node25" class="node">
<title>Node25</title>
<g id="a_node25"><a xlink:href="assets_8hpp.html" target="_top" xlink:title="Declara classes utilitárias para carregar e usar imagens, sons e fontes no Allegro.">
<polygon fill="white" stroke="black" points="953.5,-67.5 953.5,-86.5 1022.5,-86.5 1022.5,-67.5 953.5,-67.5"/>
<text text-anchor="middle" x="988" y="-74.5" font-family="Helvetica,sans-Serif" font-size="10.00">assets.hpp</text>
</a>
</g>
</g>
<!-- Node2&#45;&gt;Node25 -->
<g id="edge47" class="edge">
<title>Node2&#45;&gt;Node25</title>
<path fill="none" stroke="midnightblue" d="M1439.27,-291.44C1352.39,-250.35 1099.7,-130.83 1015.59,-91.05"/>
<polygon fill="midnightblue" stroke="midnightblue" points="1016.95,-87.82 1006.42,-86.71 1013.96,-94.15 1016.95,-87.82"/>
</g>
<!-- Node27 -->
<g id="node27" class="node">
<title>Node27</title>
<g id="a_node27"><a xlink:href="state_8hpp.html" target="_top" xlink:title="Interface base para estados da máquina de estados do jogo.">
<polygon fill="white" stroke="black" points="1348,-179.5 1348,-198.5 1410,-198.5 1410,-179.5 1348,-179.5"/>
<text text-anchor="middle" x="1379" y="-186.5" font-family="Helvetica,sans-Serif" font-size="10.00">state.hpp</text>
</a>
</g>
</g>
<!-- Node2&#45;&gt;Node27 -->
<g id="edge46" class="edge">
<title>Node2&#45;&gt;Node27</title>
<path fill="none" stroke="midnightblue" d="M1457.96,-291.34C1441.31,-269.96 1409.8,-229.53 1392.04,-206.73"/>
<polygon fill="midnightblue" stroke="midnightblue" points="1394.66,-204.41 1385.76,-198.67 1389.14,-208.71 1394.66,-204.41"/>
</g>
<!-- Node4 -->
<g id="node4" class="node">
<title>Node4</title>
<g id="a_node4"><a xlink:title=" ">
<polygon fill="white" stroke="#bfbfbf" points="1344.5,-6 1344.5,-25 1391.5,-25 1391.5,-6 1344.5,-6"/>
<text text-anchor="middle" x="1368" y="-13" font-family="Helvetica,sans-Serif" font-size="10.00">cmath</text>
</a>
</g>
</g>
<!-- Node3&#45;&gt;Node4 -->
<g id="edge3" class="edge">
<title>Node3&#45;&gt;Node4</title>
<path fill="none" stroke="midnightblue" d="M1369.71,-67.48C1369.43,-59.08 1368.99,-45.98 1368.63,-35.16"/>
<polygon fill="midnightblue" stroke="midnightblue" points="1372.12,-34.89 1368.29,-25.01 1365.12,-35.12 1372.12,-34.89"/>
</g>
<!-- Node5 -->
<g id="node5" class="node">
<title>Node5</title>
<g id="a_node5"><a xlink:title=" ">
<polygon fill="white" stroke="#bfbfbf" points="1276,-6 1276,-25 1320,-25 1320,-6 1276,-6"/>
<text text-anchor="middle" x="1298" y="-13" font-family="Helvetica,sans-Serif" font-size="10.00">string</text>
</a>
</g>
</g>
<!-- Node3&#45;&gt;Node5 -->
<g id="edge4" class="edge">
<title>Node3&#45;&gt;Node5</title>
<path fill="none" stroke="midnightblue" d="M1359.68,-67.48C1348.35,-58.11 1329.93,-42.88 1316.16,-31.51"/>
<polygon fill="midnightblue" stroke="midnightblue" points="1318.23,-28.68 1308.3,-25.01 1313.78,-34.08 1318.23,-28.68"/>
</g>
<!-- Node6 -->
<g id="node6" class="node">
<title>Node6</title>
<g id="a_node6"><a xlink:title=" ">
<polygon fill="white" stroke="#bfbfbf" points="1409.5,-6 1409.5,-25 1456.5,-25 1456.5,-6 1409.5,-6"/>
<text text-anchor="middle" x="1433" y="-13" font-family="Helvetica,sans-Serif" font-size="10.00">vector</text>
</a>
</g>
</g>
<!-- Node3&#45;&gt;Node6 -->
<g id="edge5" class="edge">
<title>Node3&#45;&gt;Node6</title>
<path fill="none" stroke="midnightblue" d="M1379.03,-67.48C1388.76,-58.28 1404.46,-43.46 1416.42,-32.16"/>
<polygon fill="midnightblue" stroke="midnightblue" points="1419.12,-34.42 1423.99,-25.01 1414.32,-29.33 1419.12,-34.42"/>
</g>
<!-- Node7&#45;&gt;Node3 -->
<g id="edge36" class="edge">
<title>Node7&#45;&gt;Node3</title>
<path fill="none" stroke="midnightblue" d="M889.05,-244.57C952.95,-244.79 1102.98,-240.41 1220,-199 1264.41,-183.28 1273.7,-173.02 1310,-143 1327.84,-128.25 1345.47,-108.34 1356.95,-94.45"/>
<polygon fill="midnightblue" stroke="midnightblue" points="1359.67,-96.66 1363.26,-86.69 1354.24,-92.25 1359.67,-96.66"/>
</g>
<!-- Node7&#45;&gt;Node5 -->
<g id="edge15" class="edge">
<title>Node7&#45;&gt;Node5</title>
<path fill="none" stroke="midnightblue" d="M889.01,-241.54C951.93,-236.15 1092.14,-221.88 1134,-199 1172.13,-178.16 1253.65,-74.62 1285.18,-33.43"/>
<polygon fill="midnightblue" stroke="midnightblue" points="1288,-35.51 1291.28,-25.43 1282.43,-31.27 1288,-35.51"/>
</g>
<!-- Node8 -->
<g id="node8" class="node">
<title>Node8</title>
<g id="a_node8"><a xlink:title=" ">
<polygon fill="white" stroke="#bfbfbf" points="1050.5,-179.5 1050.5,-198.5 1101.5,-198.5 1101.5,-179.5 1050.5,-179.5"/>
<text text-anchor="middle" x="1076" y="-186.5" font-family="Helvetica,sans-Serif" font-size="10.00">math.h</text>
</a>
</g>
</g>
<!-- Node7&#45;&gt;Node8 -->
<g id="edge7" class="edge">
<title>Node7&#45;&gt;Node8</title>
<path fill="none" stroke="midnightblue" d="M889.23,-236.26C929.26,-226.35 998.48,-209.2 1040.47,-198.8"/>
<polygon fill="midnightblue" stroke="midnightblue" points="1041.41,-202.18 1050.27,-196.37 1039.72,-195.38 1041.41,-202.18"/>
</g>
<!-- Node9 -->
<g id="node9" class="node">
<title>Node9</title>
<g id="a_node9"><a xlink:title=" ">
<polygon fill="white" stroke="#bfbfbf" points="120,-179.5 120,-198.5 184,-198.5 184,-179.5 120,-179.5"/>
<text text-anchor="middle" x="152" y="-186.5" font-family="Helvetica,sans-Serif" font-size="10.00">algorithm</text>
</a>
</g>
</g>
<!-- Node7&#45;&gt;Node9 -->
<g id="edge8" class="edge">
<title>Node7&#45;&gt;Node9</title>
<path fill="none" stroke="midnightblue" d="M826.67,-243.53C732.39,-241.77 443.05,-233.81 194.1,-198.94"/>
<polygon fill="midnightblue" stroke="midnightblue" points="194.54,-195.47 184.15,-197.53 193.56,-202.4 194.54,-195.47"/>
</g>
<!-- Node10 -->
<g id="node10" class="node">
<title>Node10</title>
<g id="a_node10"><a xlink:title=" ">
<polygon fill="white" stroke="#bfbfbf" points="202.5,-179.5 202.5,-198.5 257.5,-198.5 257.5,-179.5 202.5,-179.5"/>
<text text-anchor="middle" x="230" y="-186.5" font-family="Helvetica,sans-Serif" font-size="10.00">fstream</text>
</a>
</g>
</g>
<!-- Node7&#45;&gt;Node10 -->
<g id="edge9" class="edge">
<title>Node7&#45;&gt;Node10</title>
<path fill="none" stroke="midnightblue" d="M826.71,-243.41C739.62,-241.37 486.96,-232.91 267.86,-198.86"/>
<polygon fill="midnightblue" stroke="midnightblue" points="268.21,-195.37 257.78,-197.27 267.12,-202.29 268.21,-195.37"/>
</g>
<!-- Node11 -->
<g id="node11" class="node">
<title>Node11</title>
<g id="a_node11"><a xlink:title=" ">
<polygon fill="white" stroke="#bfbfbf" points="214,-6 214,-25 274,-25 274,-6 214,-6"/>
<text text-anchor="middle" x="244" y="-13" font-family="Helvetica,sans-Serif" font-size="10.00">iostream</text>
</a>
</g>
</g>
<!-- Node7&#45;&gt;Node11 -->
<g id="edge10" class="edge">
<title>Node7&#45;&gt;Node11</title>
<path fill="none" stroke="midnightblue" d="M826.61,-243.3C687.92,-240.04 135.91,-225.46 111,-199 57.11,-141.76 169.24,-62.22 220.37,-30.43"/>
<polygon fill="midnightblue" stroke="midnightblue" points="222.45,-33.27 229.16,-25.07 218.8,-27.3 222.45,-33.27"/>
</g>
<!-- Node12 -->
<g id="node12" class="node">
<title>Node12</title>
<g id="a_node12"><a xlink:title=" ">
<polygon fill="white" stroke="#bfbfbf" points="276,-179.5 276,-198.5 308,-198.5 308,-179.5 276,-179.5"/>
<text text-anchor="middle" x="292" y="-186.5" font-family="Helvetica,sans-Serif" font-size="10.00">list</text>
</a>
</g>
</g>
<!-- Node7&#45;&gt;Node12 -->
<g id="edge11" class="edge">
<title>Node7&#45;&gt;Node12</title>
<path fill="none" stroke="midnightblue" d="M826.78,-244.24C744.51,-244.29 515.19,-240.56 318.17,-198.69"/>
<polygon fill="midnightblue" stroke="midnightblue" points="318.74,-195.23 308.23,-196.53 317.26,-202.07 318.74,-195.23"/>
</g>
<!-- Node13 -->
<g id="node13" class="node">
<title>Node13</title>
<g id="a_node13"><a xlink:title=" ">
<polygon fill="white" stroke="#bfbfbf" points="326,-179.5 326,-198.5 364,-198.5 364,-179.5 326,-179.5"/>
<text text-anchor="middle" x="345" y="-186.5" font-family="Helvetica,sans-Serif" font-size="10.00">map</text>
</a>
</g>
</g>
<!-- Node7&#45;&gt;Node13 -->
<g id="edge12" class="edge">
<title>Node7&#45;&gt;Node13</title>
<path fill="none" stroke="midnightblue" d="M826.86,-242.94C750.05,-239.93 545.58,-229.47 378,-199 376.72,-198.77 375.41,-198.51 374.1,-198.23"/>
<polygon fill="midnightblue" stroke="midnightblue" points="374.61,-194.75 364.07,-195.8 372.96,-201.55 374.61,-194.75"/>
</g>
<!-- Node7&#45;&gt;Node14 -->
<g id="edge13" class="edge">
<title>Node7&#45;&gt;Node14</title>
<path fill="none" stroke="midnightblue" d="M889.15,-243.1C1000.31,-239.65 1373.34,-226.16 1419,-199 1482.91,-160.99 1518.84,-73.73 1532.07,-35.28"/>
<polygon fill="midnightblue" stroke="midnightblue" points="1535.52,-36.01 1535.34,-25.42 1528.87,-33.81 1535.52,-36.01"/>
</g>
<!-- Node15 -->
<g id="node15" class="node">
<title>Node15</title>
<g id="a_node15"><a xlink:title=" ">
<polygon fill="white" stroke="#bfbfbf" points="420,-179.5 420,-198.5 476,-198.5 476,-179.5 420,-179.5"/>
<text text-anchor="middle" x="448" y="-186.5" font-family="Helvetica,sans-Serif" font-size="10.00">sstream</text>
</a>
</g>
</g>
<!-- Node7&#45;&gt;Node15 -->
<g id="edge14" class="edge">
<title>Node7&#45;&gt;Node15</title>
<path fill="none" stroke="midnightblue" d="M826.85,-241.14C763.27,-235.09 614.1,-219.84 490,-199 488.76,-198.79 487.5,-198.57 486.23,-198.34"/>
<polygon fill="midnightblue" stroke="midnightblue" points="486.88,-194.9 476.4,-196.45 485.56,-201.78 486.88,-194.9"/>
</g>
<!-- Node16 -->
<g id="node16" class="node">
<title>Node16</title>
<g id="a_node16"><a xlink:title=" ">
<polygon fill="white" stroke="#bfbfbf" points="1156,-6 1156,-25 1258,-25 1258,-6 1156,-6"/>
<text text-anchor="middle" x="1207" y="-13" font-family="Helvetica,sans-Serif" font-size="10.00">allegro5/allegro.h</text>
</a>
</g>
</g>
<!-- Node7&#45;&gt;Node16 -->
<g id="edge16" class="edge">
<title>Node7&#45;&gt;Node16</title>
<path fill="none" stroke="midnightblue" d="M889.05,-241.83C948.4,-237.14 1075.15,-224.38 1110,-199 1166.78,-157.65 1193.44,-72.83 1202.84,-35.2"/>
<polygon fill="midnightblue" stroke="midnightblue" points="1206.33,-35.67 1205.22,-25.13 1199.52,-34.06 1206.33,-35.67"/>
</g>
<!-- Node17 -->
<g id="node17" class="node">
<title>Node17</title>
<g id="a_node17"><a xlink:title=" ">
<polygon fill="white" stroke="#bfbfbf" points="668,-6 668,-25 810,-25 810,-6 668,-6"/>
<text text-anchor="middle" x="739" y="-13" font-family="Helvetica,sans-Serif" font-size="10.00">allegro5/allegro_acodec.h</text>
</a>
</g>
</g>
<!-- Node7&#45;&gt;Node17 -->
<g id="edge17" class="edge">
<title>Node7&#45;&gt;Node17</title>
<path fill="none" stroke="midnightblue" d="M826.98,-244.16C757.96,-243.79 595.09,-238.64 561,-199 503.22,-131.81 644.71,-58.08 709.1,-29.15"/>
<polygon fill="midnightblue" stroke="midnightblue" points="710.64,-32.29 718.37,-25.05 707.81,-25.89 710.64,-32.29"/>
</g>
<!-- Node18 -->
<g id="node18" class="node">
<title>Node18</title>
<g id="a_node18"><a xlink:title=" ">
<polygon fill="white" stroke="#bfbfbf" points="331,-6 331,-25 465,-25 465,-6 331,-6"/>
<text text-anchor="middle" x="398" y="-13" font-family="Helvetica,sans-Serif" font-size="10.00">allegro5/allegro_audio.h</text>
</a>
</g>
</g>
<!-- Node7&#45;&gt;Node18 -->
<g id="edge18" class="edge">
<title>Node7&#45;&gt;Node18</title>
<path fill="none" stroke="midnightblue" d="M826.85,-243.14C730.17,-240.16 439.94,-228.79 411,-199 367.88,-154.6 382.87,-72.07 392.49,-35.17"/>
<polygon fill="midnightblue" stroke="midnightblue" points="395.93,-35.85 395.23,-25.27 389.19,-33.98 395.93,-35.85"/>
</g>
<!-- Node19 -->
<g id="node19" class="node">
<title>Node19</title>
<g id="a_node19"><a xlink:title=" ">
<polygon fill="white" stroke="#bfbfbf" points="502,-6 502,-25 640,-25 640,-6 502,-6"/>
<text text-anchor="middle" x="571" y="-13" font-family="Helvetica,sans-Serif" font-size="10.00">allegro5/allegro_image.h</text>
</a>
</g>
</g>
<!-- Node7&#45;&gt;Node19 -->
<g id="edge19" class="edge">
<title>Node7&#45;&gt;Node19</title>
<path fill="none" stroke="midnightblue" d="M826.87,-244.4C755.42,-244.58 583.02,-240.61 547,-199 506.07,-151.72 541.74,-70.09 560.81,-34.25"/>
<polygon fill="midnightblue" stroke="midnightblue" points="564.12,-35.49 565.89,-25.05 557.99,-32.11 564.12,-35.49"/>
</g>
<!-- Node20 -->
<g id="node20" class="node">
<title>Node20</title>
<g id="a_node20"><a xlink:title=" ">
<polygon fill="white" stroke="#bfbfbf" points="833.5,-0.5 833.5,-30.5 962.5,-30.5 962.5,-0.5 833.5,-0.5"/>
<text text-anchor="start" x="841.5" y="-18.5" font-family="Helvetica,sans-Serif" font-size="10.00">allegro5/allegro_native</text>
<text text-anchor="middle" x="898" y="-7.5" font-family="Helvetica,sans-Serif" font-size="10.00">_dialog.h</text>
</a>
</g>
</g>
<!-- Node7&#45;&gt;Node20 -->
<g id="edge20" class="edge">
<title>Node7&#45;&gt;Node20</title>
<path fill="none" stroke="midnightblue" d="M862.82,-235.33C867.51,-226.48 874.43,-212.21 878,-199 892.92,-143.74 896.75,-76.21 897.71,-40.81"/>
<polygon fill="midnightblue" stroke="midnightblue" points="901.21,-40.58 897.93,-30.51 894.21,-40.43 901.21,-40.58"/>
</g>
<!-- Node21 -->
<g id="node21" class="node">
<title>Node21</title>
<g id="a_node21"><a xlink:title=" ">
<polygon fill="white" stroke="#bfbfbf" points="570,-179.5 570,-198.5 710,-198.5 710,-179.5 570,-179.5"/>
<text text-anchor="middle" x="640" y="-186.5" font-family="Helvetica,sans-Serif" font-size="10.00">allegro5/allegro_physfs.h</text>
</a>
</g>
</g>
<!-- Node7&#45;&gt;Node21 -->
<g id="edge21" class="edge">
<title>Node7&#45;&gt;Node21</title>
<path fill="none" stroke="midnightblue" d="M826.77,-236.26C789.38,-227 726.53,-211.43 684.18,-200.94"/>
<polygon fill="midnightblue" stroke="midnightblue" points="684.96,-197.53 674.41,-198.52 683.28,-204.33 684.96,-197.53"/>
</g>
<!-- Node22 -->
<g id="node22" class="node">
<title>Node22</title>
<g id="a_node22"><a xlink:title=" ">
<polygon fill="white" stroke="#bfbfbf" points="980.5,-6 980.5,-25 1137.5,-25 1137.5,-6 980.5,-6"/>
<text text-anchor="middle" x="1059" y="-13" font-family="Helvetica,sans-Serif" font-size="10.00">allegro5/allegro_primitives.h</text>
</a>
</g>
</g>
<!-- Node7&#45;&gt;Node22 -->
<g id="edge22" class="edge">
<title>Node7&#45;&gt;Node22</title>
<path fill="none" stroke="midnightblue" d="M889.2,-242.57C921.87,-239.41 972.58,-229.52 1003,-199 1048.39,-153.46 1057.15,-72.13 1058.72,-35.41"/>
<polygon fill="midnightblue" stroke="midnightblue" points="1062.23,-35.26 1059.02,-25.16 1055.23,-35.05 1062.23,-35.26"/>
</g>
<!-- Node23 -->
<g id="node23" class="node">
<title>Node23</title>
<g id="a_node23"><a xlink:title=" ">
<polygon fill="white" stroke="#bfbfbf" points="0,-6 0,-25 118,-25 118,-6 0,-6"/>
<text text-anchor="middle" x="59" y="-13" font-family="Helvetica,sans-Serif" font-size="10.00">allegro5/allegro_ttf.h</text>
</a>
</g>
</g>
<!-- Node7&#45;&gt;Node23 -->
<g id="edge23" class="edge">
<title>Node7&#45;&gt;Node23</title>
<path fill="none" stroke="midnightblue" d="M826.98,-244.36C691,-245.62 151.92,-247.54 96,-199 48.21,-157.52 51.87,-72.77 56.24,-35.17"/>
<polygon fill="midnightblue" stroke="midnightblue" points="59.73,-35.49 57.57,-25.12 52.79,-34.58 59.73,-35.49"/>
</g>
<!-- Node24 -->
<g id="node24" class="node">
<title>Node24</title>
<g id="a_node24"><a xlink:title=" ">
<polygon fill="white" stroke="#bfbfbf" points="766.5,-179.5 766.5,-198.5 869.5,-198.5 869.5,-179.5 766.5,-179.5"/>
<text text-anchor="middle" x="818" y="-186.5" font-family="Helvetica,sans-Serif" font-size="10.00">allegro5/bitmap.h</text>
</a>
</g>
</g>
<!-- Node7&#45;&gt;Node24 -->
<g id="edge24" class="edge">
<title>Node7&#45;&gt;Node24</title>
<path fill="none" stroke="midnightblue" d="M851.39,-235.08C845.74,-227.46 837.46,-216.26 830.55,-206.94"/>
<polygon fill="midnightblue" stroke="midnightblue" points="833.25,-204.7 824.48,-198.75 827.62,-208.87 833.25,-204.7"/>
</g>
<!-- Node7&#45;&gt;Node25 -->
<g id="edge25" class="edge">
<title>Node7&#45;&gt;Node25</title>
<path fill="none" stroke="midnightblue" d="M826.81,-237.45C790.32,-228.26 737.25,-209.19 757,-179 798.31,-115.86 888.73,-91.95 943.39,-83.08"/>
<polygon fill="midnightblue" stroke="midnightblue" points="944.13,-86.5 953.49,-81.54 943.08,-79.58 944.13,-86.5"/>
</g>
<!-- Node26 -->
<g id="node26" class="node">
<title>Node26</title>
<g id="a_node26"><a xlink:href="player_8hpp.html" target="_top" xlink:title="Modela um jogador e operações de ranking.">
<polygon fill="white" stroke="black" points="926,-179.5 926,-198.5 994,-198.5 994,-179.5 926,-179.5"/>
<text text-anchor="middle" x="960" y="-186.5" font-family="Helvetica,sans-Serif" font-size="10.00">player.hpp</text>
</a>
</g>
</g>
<!-- Node7&#45;&gt;Node26 -->
<g id="edge37" class="edge">
<title>Node7&#45;&gt;Node26</title>
<path fill="none" stroke="midnightblue" d="M869.27,-235.32C883.82,-226.62 909.07,-213.12 929.35,-203.11"/>
<polygon fill="midnightblue" stroke="midnightblue" points="931.07,-206.17 938.54,-198.65 928.02,-199.87 931.07,-206.17"/>
</g>
<!-- Node7&#45;&gt;Node27 -->
<g id="edge39" class="edge">
<title>Node7&#45;&gt;Node27</title>
<path fill="none" stroke="midnightblue" d="M889.03,-240.78C978.42,-231.52 1236.55,-204.76 1337.67,-194.28"/>
<polygon fill="midnightblue" stroke="midnightblue" points="1338.22,-197.75 1347.8,-193.23 1337.5,-190.78 1338.22,-197.75"/>
</g>
<!-- Node25&#45;&gt;Node5 -->
<g id="edge28" class="edge">
<title>Node25&#45;&gt;Node5</title>
<path fill="none" stroke="midnightblue" d="M1022.63,-73.52C1076.07,-69 1181.42,-57.35 1267,-31 1268.87,-30.42 1270.78,-29.75 1272.68,-29.03"/>
<polygon fill="midnightblue" stroke="midnightblue" points="1274.12,-32.21 1281.93,-25.05 1271.36,-25.78 1274.12,-32.21"/>
</g>
<!-- Node25&#45;&gt;Node11 -->
<g id="edge26" class="edge">
<title>Node25&#45;&gt;Node11</title>
<path fill="none" stroke="midnightblue" d="M953.2,-75.08C854.14,-72.14 562.3,-61.35 322,-31 309.62,-29.44 296.23,-27.16 284.09,-24.88"/>
<polygon fill="midnightblue" stroke="midnightblue" points="284.73,-21.44 274.25,-22.97 283.4,-28.31 284.73,-21.44"/>
</g>
<!-- Node25&#45;&gt;Node14 -->
<g id="edge27" class="edge">
<title>Node25&#45;&gt;Node14</title>
<path fill="none" stroke="midnightblue" d="M1022.64,-73.99C1101.6,-69.13 1300.87,-55.33 1466,-31 1476.71,-29.42 1488.23,-27.3 1498.85,-25.16"/>
<polygon fill="midnightblue" stroke="midnightblue" points="1499.61,-28.58 1508.7,-23.13 1498.19,-21.72 1499.61,-28.58"/>
</g>
<!-- Node25&#45;&gt;Node16 -->
<g id="edge29" class="edge">
<title>Node25&#45;&gt;Node16</title>
<path fill="none" stroke="midnightblue" d="M1019.38,-67.48C1057.92,-57 1123.41,-39.21 1165.92,-27.66"/>
<polygon fill="midnightblue" stroke="midnightblue" points="1166.95,-31.01 1175.68,-25.01 1165.11,-24.25 1166.95,-31.01"/>
</g>
<!-- Node25&#45;&gt;Node17 -->
<g id="edge30" class="edge">
<title>Node25&#45;&gt;Node17</title>
<path fill="none" stroke="midnightblue" d="M953.38,-67.73C909.46,-57.23 833.61,-39.11 784.9,-27.47"/>
<polygon fill="midnightblue" stroke="midnightblue" points="785.48,-24.01 774.94,-25.09 783.85,-30.82 785.48,-24.01"/>
</g>
<!-- Node25&#45;&gt;Node18 -->
<g id="edge31" class="edge">
<title>Node25&#45;&gt;Node18</title>
<path fill="none" stroke="midnightblue" d="M953.42,-73.58C872.65,-67.78 665.39,-51.97 493,-31 482.35,-29.7 471.05,-28.14 460.11,-26.53"/>
<polygon fill="midnightblue" stroke="midnightblue" points="460.6,-23.07 450.19,-25.05 459.56,-29.99 460.6,-23.07"/>
</g>
<!-- Node25&#45;&gt;Node19 -->
<g id="edge32" class="edge">
<title>Node25&#45;&gt;Node19</title>
<path fill="none" stroke="midnightblue" d="M953.38,-71.58C893.37,-63.85 766.17,-47.16 659,-31 650,-29.64 640.5,-28.15 631.2,-26.64"/>
<polygon fill="midnightblue" stroke="midnightblue" points="631.65,-23.17 621.22,-25.02 630.53,-30.08 631.65,-23.17"/>
</g>
<!-- Node25&#45;&gt;Node20 -->
<g id="edge33" class="edge">
<title>Node25&#45;&gt;Node20</title>
<path fill="none" stroke="midnightblue" d="M975.11,-67.48C962.8,-59.34 943.82,-46.79 927.77,-36.18"/>
<polygon fill="midnightblue" stroke="midnightblue" points="929.48,-33.12 919.21,-30.52 925.62,-38.96 929.48,-33.12"/>
</g>
<!-- Node25&#45;&gt;Node22 -->
<g id="edge34" class="edge">
<title>Node25&#45;&gt;Node22</title>
<path fill="none" stroke="midnightblue" d="M998.17,-67.48C1009.35,-58.11 1027.52,-42.88 1041.09,-31.51"/>
<polygon fill="midnightblue" stroke="midnightblue" points="1043.43,-34.11 1048.85,-25.01 1038.93,-28.75 1043.43,-34.11"/>
</g>
<!-- Node25&#45;&gt;Node23 -->
<g id="edge35" class="edge">
<title>Node25&#45;&gt;Node23</title>
<path fill="none" stroke="midnightblue" d="M953.23,-74.52C843.36,-69.73 493.8,-53.63 205,-31 180,-29.04 152.64,-26.44 128.43,-23.99"/>
<polygon fill="midnightblue" stroke="midnightblue" points="128.57,-20.49 118.27,-22.95 127.86,-27.45 128.57,-20.49"/>
</g>
<!-- Node26&#45;&gt;Node7 -->
<g id="edge38" class="edge">
<title>Node26&#45;&gt;Node7</title>
<path fill="none" stroke="midnightblue" d="M948.99,-198.52C934.45,-207.23 908.93,-220.88 888.51,-230.96"/>
<polygon fill="midnightblue" stroke="midnightblue" points="886.72,-227.93 879.25,-235.44 889.78,-234.23 886.72,-227.93"/>
</g>
<!-- Node27&#45;&gt;Node3 -->
<g id="edge41" class="edge">
<title>Node27&#45;&gt;Node3</title>
<path fill="none" stroke="midnightblue" d="M1380.11,-179.13C1381.5,-166.58 1383.4,-142.95 1381,-123 1379.93,-114.11 1377.71,-104.43 1375.54,-96.34"/>
<polygon fill="midnightblue" stroke="midnightblue" points="1378.84,-95.17 1372.73,-86.51 1372.11,-97.09 1378.84,-95.17"/>
</g>
<!-- Node27&#45;&gt;Node16 -->
<g id="edge40" class="edge">
<title>Node27&#45;&gt;Node16</title>
<path fill="none" stroke="midnightblue" d="M1370.23,-179.26C1342.74,-151.85 1257.94,-67.29 1222.65,-32.11"/>
<polygon fill="midnightblue" stroke="midnightblue" points="1225.1,-29.6 1215.54,-25.02 1220.15,-34.56 1225.1,-29.6"/>
</g>
<!-- Node28 -->
<g id="node28" class="node">
<title>Node28</title>
<g id="a_node28"><a xlink:href="motion_8hpp.html" target="_top" xlink:title="Gerencia efeitos de parallax e animações de cenário.">
<polygon fill="white" stroke="black" points="1229,-123.5 1229,-142.5 1301,-142.5 1301,-123.5 1229,-123.5"/>
<text text-anchor="middle" x="1265" y="-130.5" font-family="Helvetica,sans-Serif" font-size="10.00">motion.hpp</text>
</a>
</g>
</g>
<!-- Node27&#45;&gt;Node28 -->
<g id="edge42" class="edge">
<title>Node27&#45;&gt;Node28</title>
<path fill="none" stroke="midnightblue" d="M1360.94,-179.44C1342.43,-170.68 1313.42,-156.94 1292.14,-146.86"/>
<polygon fill="midnightblue" stroke="midnightblue" points="1293.51,-143.63 1282.98,-142.52 1290.52,-149.96 1293.51,-143.63"/>
</g>
<!-- Node28&#45;&gt;Node3 -->
<g id="edge45" class="edge">
<title>Node28&#45;&gt;Node3</title>
<path fill="none" stroke="midnightblue" d="M1281.87,-123.32C1298.71,-114.66 1324.81,-101.24 1344.24,-91.25"/>
<polygon fill="midnightblue" stroke="midnightblue" points="1345.88,-94.34 1353.17,-86.65 1342.68,-88.12 1345.88,-94.34"/>
</g>
<!-- Node28&#45;&gt;Node22 -->
<g id="edge43" class="edge">
<title>Node28&#45;&gt;Node22</title>
<path fill="none" stroke="midnightblue" d="M1249.52,-123.32C1213.94,-103.37 1126.13,-54.14 1083.29,-30.12"/>
<polygon fill="midnightblue" stroke="midnightblue" points="1084.82,-26.96 1074.38,-25.12 1081.39,-33.07 1084.82,-26.96"/>
</g>
<!-- Node28&#45;&gt;Node25 -->
<g id="edge44" class="edge">
<title>Node28&#45;&gt;Node25</title>
<path fill="none" stroke="midnightblue" d="M1228.79,-124.94C1178.5,-115.14 1087.57,-97.41 1032.99,-86.77"/>
<polygon fill="midnightblue" stroke="midnightblue" points="1033.4,-83.28 1022.91,-84.81 1032.06,-90.15 1033.4,-83.28"/>
</g>
<!-- Node29&#45;&gt;Node3 -->
<g id="edge53" class="edge">
<title>Node29&#45;&gt;Node3</title>
<path fill="none" stroke="midnightblue" d="M1346.29,-291.3C1368.42,-272.83 1404.52,-238.24 1419,-199 1432.92,-161.29 1404.04,-117.76 1384.98,-94.57"/>
<polygon fill="midnightblue" stroke="midnightblue" points="1387.43,-92.05 1378.26,-86.73 1382.11,-96.6 1387.43,-92.05"/>
</g>
<!-- Node29&#45;&gt;Node7 -->
<g id="edge54" class="edge">
<title>Node29&#45;&gt;Node7</title>
<path fill="none" stroke="midnightblue" d="M1276.36,-298.96C1182.39,-287.07 985.24,-262.11 899.41,-251.24"/>
<polygon fill="midnightblue" stroke="midnightblue" points="899.62,-247.74 889.26,-249.96 898.75,-254.69 899.62,-247.74"/>
</g>
<!-- Node29&#45;&gt;Node25 -->
<g id="edge52" class="edge">
<title>Node29&#45;&gt;Node25</title>
<path fill="none" stroke="midnightblue" d="M1304.67,-291.44C1265.02,-267.66 1181.79,-218.26 1110,-179 1079.31,-162.22 1067.08,-165.15 1040,-143 1023.28,-129.32 1008.35,-109.45 998.83,-95.29"/>
<polygon fill="midnightblue" stroke="midnightblue" points="1001.53,-93.02 993.14,-86.54 995.66,-96.83 1001.53,-93.02"/>
</g>
<!-- Node29&#45;&gt;Node27 -->
<g id="edge56" class="edge">
<title>Node29&#45;&gt;Node27</title>
<path fill="none" stroke="midnightblue" d="M1334.25,-291.34C1343.53,-270.34 1360.92,-230.96 1371.07,-207.96"/>
<polygon fill="midnightblue" stroke="midnightblue" points="1374.33,-209.23 1375.17,-198.67 1367.93,-206.4 1374.33,-209.23"/>
</g>
<!-- Node29&#45;&gt;Node28 -->
<g id="edge55" class="edge">
<title>Node29&#45;&gt;Node28</title>
<path fill="none" stroke="midnightblue" d="M1322.84,-291.47C1311.5,-260.57 1284.36,-186.69 1271.7,-152.25"/>
<polygon fill="midnightblue" stroke="midnightblue" points="1274.88,-150.74 1268.14,-142.56 1268.31,-153.15 1274.88,-150.74"/>
</g>
</g>
</svg>
