<?xml version="1.0" encoding="UTF-8" standalone="no"?>
<!DOCTYPE svg PUBLIC "-//W3C//DTD SVG 1.1//EN"
 "http://www.w3.org/Graphics/SVG/1.1/DTD/svg11.dtd">
<!-- Generated by graphviz version 2.43.0 (0)
 -->
<!-- Title: include/states/settings_menu.hpp Pages: 1 -->
<svg width="1514pt" height="330pt"
 viewBox="0.00 0.00 1513.50 330.00" xmlns="http://www.w3.org/2000/svg" xmlns:xlink="http://www.w3.org/1999/xlink">
<g id="graph0" class="graph" transform="scale(1 1) rotate(0) translate(4 326)">
<title>include/states/settings_menu.hpp</title>
<polygon fill="white" stroke="transparent" points="-4,4 -4,-326 1509.5,-326 1509.5,4 -4,4"/>
<!-- Node1 -->
<g id="node1" class="node">
<title>Node1</title>
<g id="a_node1"><a xlink:title="Definição da classe SettingsMenu, que representa o estado do menu de configurações.">
<polygon fill="#bfbfbf" stroke="black" points="1136.5,-291.5 1136.5,-321.5 1263.5,-321.5 1263.5,-291.5 1136.5,-291.5"/>
<text text-anchor="start" x="1144.5" y="-309.5" font-family="Helvetica,sans-Serif" font-size="10.00">include/states/settings</text>
<text text-anchor="middle" x="1200" y="-298.5" font-family="Helvetica,sans-Serif" font-size="10.00">_menu.hpp</text>
</a>
</g>
</g>
<!-- Node2 -->
<g id="node2" class="node">
<title>Node2</title>
<g id="a_node2"><a xlink:href="defines_8hpp.html" target="_top" xlink:title="Constantes globais, macros e estruturas auxiliares do jogo.">
<polygon fill="white" stroke="black" points="1376,-67.5 1376,-86.5 1458,-86.5 1458,-67.5 1376,-67.5"/>
<text text-anchor="middle" x="1417" y="-74.5" font-family="Helvetica,sans-Serif" font-size="10.00">../defines.hpp</text>
</a>
</g>
</g>
<!-- Node1&#45;&gt;Node2 -->
<g id="edge1" class="edge">
<title>Node1&#45;&gt;Node2</title>
<path fill="none" stroke="midnightblue" d="M1239.11,-291.45C1280.2,-274.95 1344.4,-243.98 1385,-199 1411,-170.19 1416.3,-122.7 1417.12,-96.6"/>
<polygon fill="midnightblue" stroke="midnightblue" points="1420.62,-96.6 1417.25,-86.56 1413.62,-96.51 1420.62,-96.6"/>
</g>
<!-- Node6 -->
<g id="node6" class="node">
<title>Node6</title>
<g id="a_node6"><a xlink:href="init_8hpp.html" target="_top" xlink:title="Declara funções de inicialização e finalização do Allegro.">
<polygon fill="white" stroke="black" points="778,-235.5 778,-254.5 840,-254.5 840,-235.5 778,-235.5"/>
<text text-anchor="middle" x="809" y="-242.5" font-family="Helvetica,sans-Serif" font-size="10.00">../init.hpp</text>
</a>
</g>
</g>
<!-- Node1&#45;&gt;Node6 -->
<g id="edge5" class="edge">
<title>Node1&#45;&gt;Node6</title>
<path fill="none" stroke="midnightblue" d="M1136.31,-295.81C1055.42,-283.5 918.17,-262.61 849.98,-252.24"/>
<polygon fill="midnightblue" stroke="midnightblue" points="850.46,-248.77 840.04,-250.72 849.4,-255.69 850.46,-248.77"/>
</g>
<!-- Node13 -->
<g id="node13" class="node">
<title>Node13</title>
<g id="a_node13"><a xlink:title=" ">
<polygon fill="white" stroke="#bfbfbf" points="959,-6 959,-25 1017,-25 1017,-6 959,-6"/>
<text text-anchor="middle" x="988" y="-13" font-family="Helvetica,sans-Serif" font-size="10.00">memory</text>
</a>
</g>
</g>
<!-- Node1&#45;&gt;Node13 -->
<g id="edge47" class="edge">
<title>Node1&#45;&gt;Node13</title>
<path fill="none" stroke="midnightblue" d="M1201,-291.18C1202.08,-266.58 1201.38,-215.44 1181,-179 1141.04,-107.57 1056.58,-53.83 1013.88,-30.02"/>
<polygon fill="midnightblue" stroke="midnightblue" points="1015.4,-26.86 1004.95,-25.14 1012.04,-33.01 1015.4,-26.86"/>
</g>
<!-- Node24 -->
<g id="node24" class="node">
<title>Node24</title>
<g id="a_node24"><a xlink:href="assets_8hpp.html" target="_top" xlink:title="Declara classes utilitárias para carregar e usar imagens, sons e fontes no Allegro.">
<polygon fill="white" stroke="black" points="841.5,-67.5 841.5,-86.5 910.5,-86.5 910.5,-67.5 841.5,-67.5"/>
<text text-anchor="middle" x="876" y="-74.5" font-family="Helvetica,sans-Serif" font-size="10.00">assets.hpp</text>
</a>
</g>
</g>
<!-- Node1&#45;&gt;Node24 -->
<g id="edge46" class="edge">
<title>Node1&#45;&gt;Node24</title>
<path fill="none" stroke="midnightblue" d="M1136.13,-304.4C907.48,-299.79 139.36,-278.48 67,-199 -39.09,-82.47 646.83,-77.05 831.22,-77.67"/>
<polygon fill="midnightblue" stroke="midnightblue" points="831.37,-81.17 841.38,-77.71 831.4,-74.17 831.37,-81.17"/>
</g>
<!-- Node26 -->
<g id="node26" class="node">
<title>Node26</title>
<g id="a_node26"><a xlink:href="state_8hpp.html" target="_top" xlink:title="Interface base para estados da máquina de estados do jogo.">
<polygon fill="white" stroke="black" points="1228,-179.5 1228,-198.5 1290,-198.5 1290,-179.5 1228,-179.5"/>
<text text-anchor="middle" x="1259" y="-186.5" font-family="Helvetica,sans-Serif" font-size="10.00">state.hpp</text>
</a>
</g>
</g>
<!-- Node1&#45;&gt;Node26 -->
<g id="edge45" class="edge">
<title>Node1&#45;&gt;Node26</title>
<path fill="none" stroke="midnightblue" d="M1207.23,-291.34C1218.01,-270.24 1238.26,-230.6 1249.98,-207.65"/>
<polygon fill="midnightblue" stroke="midnightblue" points="1253.14,-209.17 1254.57,-198.67 1246.91,-205.98 1253.14,-209.17"/>
</g>
<!-- Node3 -->
<g id="node3" class="node">
<title>Node3</title>
<g id="a_node3"><a xlink:title=" ">
<polygon fill="white" stroke="#bfbfbf" points="1393.5,-6 1393.5,-25 1440.5,-25 1440.5,-6 1393.5,-6"/>
<text text-anchor="middle" x="1417" y="-13" font-family="Helvetica,sans-Serif" font-size="10.00">cmath</text>
</a>
</g>
</g>
<!-- Node2&#45;&gt;Node3 -->
<g id="edge2" class="edge">
<title>Node2&#45;&gt;Node3</title>
<path fill="none" stroke="midnightblue" d="M1417,-67.48C1417,-59.08 1417,-45.98 1417,-35.16"/>
<polygon fill="midnightblue" stroke="midnightblue" points="1420.5,-35.01 1417,-25.01 1413.5,-35.01 1420.5,-35.01"/>
</g>
<!-- Node4 -->
<g id="node4" class="node">
<title>Node4</title>
<g id="a_node4"><a xlink:title=" ">
<polygon fill="white" stroke="#bfbfbf" points="1331,-6 1331,-25 1375,-25 1375,-6 1331,-6"/>
<text text-anchor="middle" x="1353" y="-13" font-family="Helvetica,sans-Serif" font-size="10.00">string</text>
</a>
</g>
</g>
<!-- Node2&#45;&gt;Node4 -->
<g id="edge3" class="edge">
<title>Node2&#45;&gt;Node4</title>
<path fill="none" stroke="midnightblue" d="M1407.83,-67.48C1397.85,-58.2 1381.69,-43.17 1369.49,-31.83"/>
<polygon fill="midnightblue" stroke="midnightblue" points="1371.86,-29.25 1362.15,-25.01 1367.09,-34.38 1371.86,-29.25"/>
</g>
<!-- Node5 -->
<g id="node5" class="node">
<title>Node5</title>
<g id="a_node5"><a xlink:title=" ">
<polygon fill="white" stroke="#bfbfbf" points="1458.5,-6 1458.5,-25 1505.5,-25 1505.5,-6 1458.5,-6"/>
<text text-anchor="middle" x="1482" y="-13" font-family="Helvetica,sans-Serif" font-size="10.00">vector</text>
</a>
</g>
</g>
<!-- Node2&#45;&gt;Node5 -->
<g id="edge4" class="edge">
<title>Node2&#45;&gt;Node5</title>
<path fill="none" stroke="midnightblue" d="M1426.31,-67.48C1436.45,-58.2 1452.86,-43.17 1465.25,-31.83"/>
<polygon fill="midnightblue" stroke="midnightblue" points="1467.69,-34.34 1472.7,-25.01 1462.96,-29.18 1467.69,-34.34"/>
</g>
<!-- Node6&#45;&gt;Node2 -->
<g id="edge35" class="edge">
<title>Node6&#45;&gt;Node2</title>
<path fill="none" stroke="midnightblue" d="M840.23,-243.29C950.78,-240.52 1319.2,-229.09 1362,-199 1396.19,-174.97 1409.53,-124.37 1414.41,-96.83"/>
<polygon fill="midnightblue" stroke="midnightblue" points="1417.93,-97 1416.02,-86.58 1411.01,-95.92 1417.93,-97"/>
</g>
<!-- Node6&#45;&gt;Node4 -->
<g id="edge14" class="edge">
<title>Node6&#45;&gt;Node4</title>
<path fill="none" stroke="midnightblue" d="M840.31,-243.14C942.76,-240.04 1263.55,-228.1 1299,-199 1348.99,-157.96 1354.1,-72.98 1353.74,-35.25"/>
<polygon fill="midnightblue" stroke="midnightblue" points="1357.24,-35.07 1353.5,-25.16 1350.24,-35.24 1357.24,-35.07"/>
</g>
<!-- Node7 -->
<g id="node7" class="node">
<title>Node7</title>
<g id="a_node7"><a xlink:title=" ">
<polygon fill="white" stroke="#bfbfbf" points="668.5,-179.5 668.5,-198.5 719.5,-198.5 719.5,-179.5 668.5,-179.5"/>
<text text-anchor="middle" x="694" y="-186.5" font-family="Helvetica,sans-Serif" font-size="10.00">math.h</text>
</a>
</g>
</g>
<!-- Node6&#45;&gt;Node7 -->
<g id="edge6" class="edge">
<title>Node6&#45;&gt;Node7</title>
<path fill="none" stroke="midnightblue" d="M790.78,-235.44C772.1,-226.68 742.84,-212.94 721.38,-202.86"/>
<polygon fill="midnightblue" stroke="midnightblue" points="722.68,-199.6 712.14,-198.52 719.7,-205.93 722.68,-199.6"/>
</g>
<!-- Node8 -->
<g id="node8" class="node">
<title>Node8</title>
<g id="a_node8"><a xlink:title=" ">
<polygon fill="white" stroke="#bfbfbf" points="738,-179.5 738,-198.5 802,-198.5 802,-179.5 738,-179.5"/>
<text text-anchor="middle" x="770" y="-186.5" font-family="Helvetica,sans-Serif" font-size="10.00">algorithm</text>
</a>
</g>
</g>
<!-- Node6&#45;&gt;Node8 -->
<g id="edge7" class="edge">
<title>Node6&#45;&gt;Node8</title>
<path fill="none" stroke="midnightblue" d="M802.56,-235.08C797.05,-227.46 788.97,-216.26 782.24,-206.94"/>
<polygon fill="midnightblue" stroke="midnightblue" points="785.01,-204.81 776.32,-198.75 779.34,-208.91 785.01,-204.81"/>
</g>
<!-- Node9 -->
<g id="node9" class="node">
<title>Node9</title>
<g id="a_node9"><a xlink:title=" ">
<polygon fill="white" stroke="#bfbfbf" points="820.5,-179.5 820.5,-198.5 875.5,-198.5 875.5,-179.5 820.5,-179.5"/>
<text text-anchor="middle" x="848" y="-186.5" font-family="Helvetica,sans-Serif" font-size="10.00">fstream</text>
</a>
</g>
</g>
<!-- Node6&#45;&gt;Node9 -->
<g id="edge8" class="edge">
<title>Node6&#45;&gt;Node9</title>
<path fill="none" stroke="midnightblue" d="M815.44,-235.08C820.95,-227.46 829.03,-216.26 835.76,-206.94"/>
<polygon fill="midnightblue" stroke="midnightblue" points="838.66,-208.91 841.68,-198.75 832.99,-204.81 838.66,-208.91"/>
</g>
<!-- Node10 -->
<g id="node10" class="node">
<title>Node10</title>
<g id="a_node10"><a xlink:title=" ">
<polygon fill="white" stroke="#bfbfbf" points="138,-6 138,-25 198,-25 198,-6 138,-6"/>
<text text-anchor="middle" x="168" y="-13" font-family="Helvetica,sans-Serif" font-size="10.00">iostream</text>
</a>
</g>
</g>
<!-- Node6&#45;&gt;Node10 -->
<g id="edge9" class="edge">
<title>Node6&#45;&gt;Node10</title>
<path fill="none" stroke="midnightblue" d="M777.73,-243.87C659.62,-243.1 245.15,-237.64 202,-199 155,-156.91 160,-72.48 164.95,-35.07"/>
<polygon fill="midnightblue" stroke="midnightblue" points="168.43,-35.48 166.43,-25.07 161.51,-34.45 168.43,-35.48"/>
</g>
<!-- Node11 -->
<g id="node11" class="node">
<title>Node11</title>
<g id="a_node11"><a xlink:title=" ">
<polygon fill="white" stroke="#bfbfbf" points="932,-179.5 932,-198.5 964,-198.5 964,-179.5 932,-179.5"/>
<text text-anchor="middle" x="948" y="-186.5" font-family="Helvetica,sans-Serif" font-size="10.00">list</text>
</a>
</g>
</g>
<!-- Node6&#45;&gt;Node11 -->
<g id="edge10" class="edge">
<title>Node6&#45;&gt;Node11</title>
<path fill="none" stroke="midnightblue" d="M831.02,-235.44C855.76,-225.83 895.86,-210.26 922.08,-200.07"/>
<polygon fill="midnightblue" stroke="midnightblue" points="923.67,-203.21 931.72,-196.32 921.14,-196.68 923.67,-203.21"/>
</g>
<!-- Node12 -->
<g id="node12" class="node">
<title>Node12</title>
<g id="a_node12"><a xlink:title=" ">
<polygon fill="white" stroke="#bfbfbf" points="1134,-179.5 1134,-198.5 1172,-198.5 1172,-179.5 1134,-179.5"/>
<text text-anchor="middle" x="1153" y="-186.5" font-family="Helvetica,sans-Serif" font-size="10.00">map</text>
</a>
</g>
</g>
<!-- Node6&#45;&gt;Node12 -->
<g id="edge11" class="edge">
<title>Node6&#45;&gt;Node12</title>
<path fill="none" stroke="midnightblue" d="M840.12,-240.78C896.36,-234.67 1018.51,-220.1 1120,-199 1121.28,-198.73 1122.57,-198.45 1123.88,-198.15"/>
<polygon fill="midnightblue" stroke="midnightblue" points="1125.05,-201.46 1133.9,-195.64 1123.35,-194.67 1125.05,-201.46"/>
</g>
<!-- Node6&#45;&gt;Node13 -->
<g id="edge12" class="edge">
<title>Node6&#45;&gt;Node13</title>
<path fill="none" stroke="midnightblue" d="M840.04,-240.83C886.94,-235.35 972.38,-222.35 991,-199 1029.31,-150.95 1007.86,-70.96 995.2,-35.01"/>
<polygon fill="midnightblue" stroke="midnightblue" points="998.38,-33.51 991.63,-25.34 991.81,-35.94 998.38,-33.51"/>
</g>
<!-- Node14 -->
<g id="node14" class="node">
<title>Node14</title>
<g id="a_node14"><a xlink:title=" ">
<polygon fill="white" stroke="#bfbfbf" points="76,-179.5 76,-198.5 132,-198.5 132,-179.5 76,-179.5"/>
<text text-anchor="middle" x="104" y="-186.5" font-family="Helvetica,sans-Serif" font-size="10.00">sstream</text>
</a>
</g>
</g>
<!-- Node6&#45;&gt;Node14 -->
<g id="edge13" class="edge">
<title>Node6&#45;&gt;Node14</title>
<path fill="none" stroke="midnightblue" d="M777.77,-243.47C682.54,-241.5 387.64,-232.91 146,-199 144.75,-198.83 143.49,-198.63 142.21,-198.43"/>
<polygon fill="midnightblue" stroke="midnightblue" points="142.83,-194.98 132.37,-196.66 141.59,-201.87 142.83,-194.98"/>
</g>
<!-- Node15 -->
<g id="node15" class="node">
<title>Node15</title>
<g id="a_node15"><a xlink:title=" ">
<polygon fill="white" stroke="#bfbfbf" points="1035,-6 1035,-25 1137,-25 1137,-6 1035,-6"/>
<text text-anchor="middle" x="1086" y="-13" font-family="Helvetica,sans-Serif" font-size="10.00">allegro5/allegro.h</text>
</a>
</g>
</g>
<!-- Node6&#45;&gt;Node15 -->
<g id="edge15" class="edge">
<title>Node6&#45;&gt;Node15</title>
<path fill="none" stroke="midnightblue" d="M840.15,-240.54C889.96,-234.45 984.53,-220.38 1010,-199 1061.22,-156.01 1078.5,-72.74 1083.83,-35.41"/>
<polygon fill="midnightblue" stroke="midnightblue" points="1087.31,-35.76 1085.13,-25.39 1080.37,-34.86 1087.31,-35.76"/>
</g>
<!-- Node16 -->
<g id="node16" class="node">
<title>Node16</title>
<g id="a_node16"><a xlink:title=" ">
<polygon fill="white" stroke="#bfbfbf" points="283,-6 283,-25 425,-25 425,-6 283,-6"/>
<text text-anchor="middle" x="354" y="-13" font-family="Helvetica,sans-Serif" font-size="10.00">allegro5/allegro_acodec.h</text>
</a>
</g>
</g>
<!-- Node6&#45;&gt;Node16 -->
<g id="edge16" class="edge">
<title>Node6&#45;&gt;Node16</title>
<path fill="none" stroke="midnightblue" d="M777.88,-244.05C661.33,-243.9 255.36,-240.39 217,-199 163.01,-140.75 277.58,-61.82 329.83,-30.32"/>
<polygon fill="midnightblue" stroke="midnightblue" points="331.7,-33.28 338.52,-25.17 328.13,-27.26 331.7,-33.28"/>
</g>
<!-- Node17 -->
<g id="node17" class="node">
<title>Node17</title>
<g id="a_node17"><a xlink:title=" ">
<polygon fill="white" stroke="#bfbfbf" points="452,-6 452,-25 586,-25 586,-6 452,-6"/>
<text text-anchor="middle" x="519" y="-13" font-family="Helvetica,sans-Serif" font-size="10.00">allegro5/allegro_audio.h</text>
</a>
</g>
</g>
<!-- Node6&#45;&gt;Node17 -->
<g id="edge17" class="edge">
<title>Node6&#45;&gt;Node17</title>
<path fill="none" stroke="midnightblue" d="M777.9,-242.8C688.77,-239.05 437.22,-226.13 413,-199 364.26,-144.41 456.11,-63.91 498.83,-31.16"/>
<polygon fill="midnightblue" stroke="midnightblue" points="501.01,-33.9 506.9,-25.09 496.8,-28.3 501.01,-33.9"/>
</g>
<!-- Node18 -->
<g id="node18" class="node">
<title>Node18</title>
<g id="a_node18"><a xlink:title=" ">
<polygon fill="white" stroke="#bfbfbf" points="638,-6 638,-25 776,-25 776,-6 638,-6"/>
<text text-anchor="middle" x="707" y="-13" font-family="Helvetica,sans-Serif" font-size="10.00">allegro5/allegro_image.h</text>
</a>
</g>
</g>
<!-- Node6&#45;&gt;Node18 -->
<g id="edge18" class="edge">
<title>Node6&#45;&gt;Node18</title>
<path fill="none" stroke="midnightblue" d="M777.82,-242.8C719.76,-239.84 598.66,-230.01 573,-199 522.99,-138.56 632.4,-61.44 683.05,-30.38"/>
<polygon fill="midnightblue" stroke="midnightblue" points="685.01,-33.29 691.78,-25.13 681.4,-27.29 685.01,-33.29"/>
</g>
<!-- Node19 -->
<g id="node19" class="node">
<title>Node19</title>
<g id="a_node19"><a xlink:title=" ">
<polygon fill="white" stroke="#bfbfbf" points="811.5,-0.5 811.5,-30.5 940.5,-30.5 940.5,-0.5 811.5,-0.5"/>
<text text-anchor="start" x="819.5" y="-18.5" font-family="Helvetica,sans-Serif" font-size="10.00">allegro5/allegro_native</text>
<text text-anchor="middle" x="876" y="-7.5" font-family="Helvetica,sans-Serif" font-size="10.00">_dialog.h</text>
</a>
</g>
</g>
<!-- Node6&#45;&gt;Node19 -->
<g id="edge19" class="edge">
<title>Node6&#45;&gt;Node19</title>
<path fill="none" stroke="midnightblue" d="M840.24,-239.94C883.18,-233.64 956.98,-220.01 973,-199 1013.8,-145.5 942.8,-72.47 901.88,-37.22"/>
<polygon fill="midnightblue" stroke="midnightblue" points="904.04,-34.46 894.14,-30.69 899.53,-39.81 904.04,-34.46"/>
</g>
<!-- Node20 -->
<g id="node20" class="node">
<title>Node20</title>
<g id="a_node20"><a xlink:title=" ">
<polygon fill="white" stroke="#bfbfbf" points="226,-179.5 226,-198.5 366,-198.5 366,-179.5 226,-179.5"/>
<text text-anchor="middle" x="296" y="-186.5" font-family="Helvetica,sans-Serif" font-size="10.00">allegro5/allegro_physfs.h</text>
</a>
</g>
</g>
<!-- Node6&#45;&gt;Node20 -->
<g id="edge20" class="edge">
<title>Node6&#45;&gt;Node20</title>
<path fill="none" stroke="midnightblue" d="M777.78,-240.75C707,-233.37 528.94,-214.79 380,-199 378.73,-198.87 377.45,-198.73 376.15,-198.59"/>
<polygon fill="midnightblue" stroke="midnightblue" points="376.44,-195.1 366.13,-197.53 375.7,-202.06 376.44,-195.1"/>
</g>
<!-- Node21 -->
<g id="node21" class="node">
<title>Node21</title>
<g id="a_node21"><a xlink:title=" ">
<polygon fill="white" stroke="#bfbfbf" points="1155.5,-6 1155.5,-25 1312.5,-25 1312.5,-6 1155.5,-6"/>
<text text-anchor="middle" x="1234" y="-13" font-family="Helvetica,sans-Serif" font-size="10.00">allegro5/allegro_primitives.h</text>
</a>
</g>
</g>
<!-- Node6&#45;&gt;Node21 -->
<g id="edge21" class="edge">
<title>Node6&#45;&gt;Node21</title>
<path fill="none" stroke="midnightblue" d="M840.03,-242.95C884.89,-240.31 969.45,-231.1 1033,-199 1116.77,-156.68 1191.83,-69.78 1221.05,-33.26"/>
<polygon fill="midnightblue" stroke="midnightblue" points="1224.03,-35.13 1227.47,-25.11 1218.53,-30.8 1224.03,-35.13"/>
</g>
<!-- Node22 -->
<g id="node22" class="node">
<title>Node22</title>
<g id="a_node22"><a xlink:title=" ">
<polygon fill="white" stroke="#bfbfbf" points="0,-6 0,-25 118,-25 118,-6 0,-6"/>
<text text-anchor="middle" x="59" y="-13" font-family="Helvetica,sans-Serif" font-size="10.00">allegro5/allegro_ttf.h</text>
</a>
</g>
</g>
<!-- Node6&#45;&gt;Node22 -->
<g id="edge22" class="edge">
<title>Node6&#45;&gt;Node22</title>
<path fill="none" stroke="midnightblue" d="M777.85,-243.26C640.2,-239.86 92.31,-224.74 67,-199 23.67,-154.94 41.66,-72.23 52.73,-35.23"/>
<polygon fill="midnightblue" stroke="midnightblue" points="56.19,-35.89 55.87,-25.3 49.52,-33.78 56.19,-35.89"/>
</g>
<!-- Node23 -->
<g id="node23" class="node">
<title>Node23</title>
<g id="a_node23"><a xlink:title=" ">
<polygon fill="white" stroke="#bfbfbf" points="422.5,-179.5 422.5,-198.5 525.5,-198.5 525.5,-179.5 422.5,-179.5"/>
<text text-anchor="middle" x="474" y="-186.5" font-family="Helvetica,sans-Serif" font-size="10.00">allegro5/bitmap.h</text>
</a>
</g>
</g>
<!-- Node6&#45;&gt;Node23 -->
<g id="edge23" class="edge">
<title>Node6&#45;&gt;Node23</title>
<path fill="none" stroke="midnightblue" d="M777.78,-238.97C722.75,-230.1 607.51,-211.52 535.86,-199.97"/>
<polygon fill="midnightblue" stroke="midnightblue" points="536.04,-196.46 525.61,-198.32 534.93,-203.37 536.04,-196.46"/>
</g>
<!-- Node6&#45;&gt;Node24 -->
<g id="edge24" class="edge">
<title>Node6&#45;&gt;Node24</title>
<path fill="none" stroke="midnightblue" d="M836.28,-235.45C853.29,-228.55 873.83,-216.97 884,-199 902.34,-166.6 891.53,-121.23 883.08,-96.26"/>
<polygon fill="midnightblue" stroke="midnightblue" points="886.29,-94.84 879.59,-86.63 879.71,-97.22 886.29,-94.84"/>
</g>
<!-- Node25 -->
<g id="node25" class="node">
<title>Node25</title>
<g id="a_node25"><a xlink:href="player_8hpp.html" target="_top" xlink:title="Modela um jogador e operações de ranking.">
<polygon fill="white" stroke="black" points="582,-179.5 582,-198.5 650,-198.5 650,-179.5 582,-179.5"/>
<text text-anchor="middle" x="616" y="-186.5" font-family="Helvetica,sans-Serif" font-size="10.00">player.hpp</text>
</a>
</g>
</g>
<!-- Node6&#45;&gt;Node25 -->
<g id="edge36" class="edge">
<title>Node6&#45;&gt;Node25</title>
<path fill="none" stroke="midnightblue" d="M777.75,-236.6C743.02,-227.52 687.34,-212.02 651.13,-201.41"/>
<polygon fill="midnightblue" stroke="midnightblue" points="652.06,-198.03 641.47,-198.55 650.07,-204.74 652.06,-198.03"/>
</g>
<!-- Node6&#45;&gt;Node26 -->
<g id="edge38" class="edge">
<title>Node6&#45;&gt;Node26</title>
<path fill="none" stroke="midnightblue" d="M840.29,-240.25C919.66,-230.72 1128.87,-205.62 1217.92,-194.93"/>
<polygon fill="midnightblue" stroke="midnightblue" points="1218.41,-198.4 1227.92,-193.73 1217.58,-191.45 1218.41,-198.4"/>
</g>
<!-- Node24&#45;&gt;Node4 -->
<g id="edge27" class="edge">
<title>Node24&#45;&gt;Node4</title>
<path fill="none" stroke="midnightblue" d="M910.57,-76.42C986.48,-76.51 1172.89,-72.11 1322,-31 1323.93,-30.47 1325.9,-29.82 1327.85,-29.11"/>
<polygon fill="midnightblue" stroke="midnightblue" points="1329.47,-32.22 1337.3,-25.09 1326.73,-25.78 1329.47,-32.22"/>
</g>
<!-- Node24&#45;&gt;Node10 -->
<g id="edge25" class="edge">
<title>Node24&#45;&gt;Node10</title>
<path fill="none" stroke="midnightblue" d="M841.32,-74.15C748.93,-69.08 489.23,-53.74 274,-31 252.14,-28.69 227.83,-25.42 208.01,-22.56"/>
<polygon fill="midnightblue" stroke="midnightblue" points="208.5,-19.1 198.1,-21.12 207.49,-26.02 208.5,-19.1"/>
</g>
<!-- Node24&#45;&gt;Node13 -->
<g id="edge26" class="edge">
<title>Node24&#45;&gt;Node13</title>
<path fill="none" stroke="midnightblue" d="M892.05,-67.48C910.59,-57.62 941.34,-41.29 963.02,-29.77"/>
<polygon fill="midnightblue" stroke="midnightblue" points="964.79,-32.79 971.98,-25.01 961.51,-26.61 964.79,-32.79"/>
</g>
<!-- Node24&#45;&gt;Node15 -->
<g id="edge28" class="edge">
<title>Node24&#45;&gt;Node15</title>
<path fill="none" stroke="midnightblue" d="M906.09,-67.48C942.89,-57.05 1005.31,-39.36 1046.09,-27.81"/>
<polygon fill="midnightblue" stroke="midnightblue" points="1047.3,-31.1 1055.97,-25.01 1045.39,-24.37 1047.3,-31.1"/>
</g>
<!-- Node24&#45;&gt;Node16 -->
<g id="edge29" class="edge">
<title>Node24&#45;&gt;Node16</title>
<path fill="none" stroke="midnightblue" d="M841.4,-73.09C767.89,-66.76 590.77,-50.7 443,-31 433.44,-29.73 423.33,-28.23 413.48,-26.68"/>
<polygon fill="midnightblue" stroke="midnightblue" points="413.78,-23.18 403.35,-25.06 412.68,-30.1 413.78,-23.18"/>
</g>
<!-- Node24&#45;&gt;Node17 -->
<g id="edge30" class="edge">
<title>Node24&#45;&gt;Node17</title>
<path fill="none" stroke="midnightblue" d="M841.44,-70.24C781.11,-60.19 655.82,-39.3 580.41,-26.73"/>
<polygon fill="midnightblue" stroke="midnightblue" points="580.55,-23.21 570.11,-25.02 579.4,-30.12 580.55,-23.21"/>
</g>
<!-- Node24&#45;&gt;Node18 -->
<g id="edge31" class="edge">
<title>Node24&#45;&gt;Node18</title>
<path fill="none" stroke="midnightblue" d="M851.79,-67.48C822.67,-57.22 773.63,-39.96 740.8,-28.4"/>
<polygon fill="midnightblue" stroke="midnightblue" points="741.76,-25.03 731.17,-25.01 739.44,-31.63 741.76,-25.03"/>
</g>
<!-- Node24&#45;&gt;Node19 -->
<g id="edge32" class="edge">
<title>Node24&#45;&gt;Node19</title>
<path fill="none" stroke="midnightblue" d="M876,-67.48C876,-60.47 876,-50.19 876,-40.7"/>
<polygon fill="midnightblue" stroke="midnightblue" points="879.5,-40.52 876,-30.52 872.5,-40.52 879.5,-40.52"/>
</g>
<!-- Node24&#45;&gt;Node21 -->
<g id="edge33" class="edge">
<title>Node24&#45;&gt;Node21</title>
<path fill="none" stroke="midnightblue" d="M910.65,-70.24C971.15,-60.19 1096.8,-39.3 1172.42,-26.73"/>
<polygon fill="midnightblue" stroke="midnightblue" points="1173.45,-30.11 1182.75,-25.02 1172.31,-23.21 1173.45,-30.11"/>
</g>
<!-- Node24&#45;&gt;Node22 -->
<g id="edge34" class="edge">
<title>Node24&#45;&gt;Node22</title>
<path fill="none" stroke="midnightblue" d="M841.2,-75.68C734.36,-74.33 401.71,-67.27 129,-31 121.21,-29.96 113,-28.56 105.05,-27.02"/>
<polygon fill="midnightblue" stroke="midnightblue" points="105.66,-23.57 95.16,-25.03 104.27,-30.43 105.66,-23.57"/>
</g>
<!-- Node25&#45;&gt;Node6 -->
<g id="edge37" class="edge">
<title>Node25&#45;&gt;Node6</title>
<path fill="none" stroke="midnightblue" d="M650.18,-198.16C684.97,-207.31 738.45,-222.22 773.65,-232.53"/>
<polygon fill="midnightblue" stroke="midnightblue" points="772.93,-235.97 783.51,-235.44 774.91,-229.25 772.93,-235.97"/>
</g>
<!-- Node26&#45;&gt;Node2 -->
<g id="edge40" class="edge">
<title>Node26&#45;&gt;Node2</title>
<path fill="none" stroke="midnightblue" d="M1271.4,-179.37C1298.4,-160.57 1362.75,-115.77 1396.12,-92.53"/>
<polygon fill="midnightblue" stroke="midnightblue" points="1398.45,-95.18 1404.66,-86.59 1394.45,-89.43 1398.45,-95.18"/>
</g>
<!-- Node26&#45;&gt;Node15 -->
<g id="edge39" class="edge">
<title>Node26&#45;&gt;Node15</title>
<path fill="none" stroke="midnightblue" d="M1246.51,-179.28C1234.41,-170.61 1215.78,-156.67 1201,-143 1161.43,-106.4 1120.14,-58.08 1099.47,-33.07"/>
<polygon fill="midnightblue" stroke="midnightblue" points="1102.11,-30.77 1093.06,-25.26 1096.7,-35.21 1102.11,-30.77"/>
</g>
<!-- Node27 -->
<g id="node27" class="node">
<title>Node27</title>
<g id="a_node27"><a xlink:href="motion_8hpp.html" target="_top" xlink:title="Gerencia efeitos de parallax e animações de cenário.">
<polygon fill="white" stroke="black" points="1210,-123.5 1210,-142.5 1282,-142.5 1282,-123.5 1210,-123.5"/>
<text text-anchor="middle" x="1246" y="-130.5" font-family="Helvetica,sans-Serif" font-size="10.00">motion.hpp</text>
</a>
</g>
</g>
<!-- Node26&#45;&gt;Node27 -->
<g id="edge41" class="edge">
<title>Node26&#45;&gt;Node27</title>
<path fill="none" stroke="midnightblue" d="M1256.85,-179.08C1255.13,-171.93 1252.65,-161.64 1250.5,-152.69"/>
<polygon fill="midnightblue" stroke="midnightblue" points="1253.85,-151.65 1248.11,-142.75 1247.04,-153.29 1253.85,-151.65"/>
</g>
<!-- Node27&#45;&gt;Node2 -->
<g id="edge44" class="edge">
<title>Node27&#45;&gt;Node2</title>
<path fill="none" stroke="midnightblue" d="M1273.1,-123.44C1301.99,-114.32 1347.92,-99.81 1380.11,-89.65"/>
<polygon fill="midnightblue" stroke="midnightblue" points="1381.55,-92.87 1390.03,-86.52 1379.44,-86.19 1381.55,-92.87"/>
</g>
<!-- Node27&#45;&gt;Node21 -->
<g id="edge42" class="edge">
<title>Node27&#45;&gt;Node21</title>
<path fill="none" stroke="midnightblue" d="M1245.1,-123.32C1243.17,-104.76 1238.61,-60.84 1235.97,-35.47"/>
<polygon fill="midnightblue" stroke="midnightblue" points="1239.43,-34.87 1234.91,-25.28 1232.46,-35.59 1239.43,-34.87"/>
</g>
<!-- Node27&#45;&gt;Node24 -->
<g id="edge43" class="edge">
<title>Node27&#45;&gt;Node24</title>
<path fill="none" stroke="midnightblue" d="M1209.85,-126.72C1141.77,-116.79 994.75,-95.33 920.63,-84.51"/>
<polygon fill="midnightblue" stroke="midnightblue" points="921.07,-81.04 910.67,-83.06 920.06,-87.97 921.07,-81.04"/>
</g>
</g>
</svg>
