<?xml version="1.0" encoding="UTF-8" standalone="no"?>
<!DOCTYPE svg PUBLIC "-//W3C//DTD SVG 1.1//EN"
 "http://www.w3.org/Graphics/SVG/1.1/DTD/svg11.dtd">
<!-- Generated by graphviz version 2.43.0 (0)
 -->
<!-- Title: include/states/settings_menu.hpp Pages: 1 -->
<svg width="278pt" height="106pt"
 viewBox="0.00 0.00 277.50 106.00" xmlns="http://www.w3.org/2000/svg" xmlns:xlink="http://www.w3.org/1999/xlink">
<g id="graph0" class="graph" transform="scale(1 1) rotate(0) translate(4 102)">
<title>include/states/settings_menu.hpp</title>
<polygon fill="white" stroke="transparent" points="-4,4 -4,-102 273.5,-102 273.5,4 -4,4"/>
<!-- Node1 -->
<g id="node1" class="node">
<title>Node1</title>
<g id="a_node1"><a xlink:title="Definição da classe SettingsMenu, que representa o estado do menu de configurações.">
<polygon fill="#bfbfbf" stroke="black" points="81,-67.5 81,-97.5 208,-97.5 208,-67.5 81,-67.5"/>
<text text-anchor="start" x="89" y="-85.5" font-family="Helvetica,sans-Serif" font-size="10.00">include/states/settings</text>
<text text-anchor="middle" x="144.5" y="-74.5" font-family="Helvetica,sans-Serif" font-size="10.00">_menu.hpp</text>
</a>
</g>
</g>
<!-- Node2 -->
<g id="node2" class="node">
<title>Node2</title>
<g id="a_node2"><a xlink:href="main__menu_8cpp.html" target="_top" xlink:title="Implementação da classe MainMenu, o estado principal e tela inicial do jogo.">
<polygon fill="white" stroke="black" points="0,-6 0,-25 145,-25 145,-6 0,-6"/>
<text text-anchor="middle" x="72.5" y="-13" font-family="Helvetica,sans-Serif" font-size="10.00">src/states/main_menu.cpp</text>
</a>
</g>
</g>
<!-- Node1&#45;&gt;Node2 -->
<g id="edge1" class="edge">
<title>Node1&#45;&gt;Node2</title>
<path fill="none" stroke="midnightblue" d="M121.43,-60.67C108.14,-48.67 92.13,-34.22 82.13,-25.19"/>
<polygon fill="midnightblue" stroke="midnightblue" points="119.11,-63.29 128.88,-67.4 123.8,-58.1 119.11,-63.29"/>
</g>
<!-- Node3 -->
<g id="node3" class="node">
<title>Node3</title>
<g id="a_node3"><a xlink:href="settings__menu_8cpp.html" target="_top" xlink:title="Implementação da classe SettingsMenu, que gerencia a tela de configurações do jogo.">
<polygon fill="white" stroke="black" points="163.5,-0.5 163.5,-30.5 269.5,-30.5 269.5,-0.5 163.5,-0.5"/>
<text text-anchor="start" x="171.5" y="-18.5" font-family="Helvetica,sans-Serif" font-size="10.00">src/states/settings</text>
<text text-anchor="middle" x="216.5" y="-7.5" font-family="Helvetica,sans-Serif" font-size="10.00">_menu.cpp</text>
</a>
</g>
</g>
<!-- Node1&#45;&gt;Node3 -->
<g id="edge2" class="edge">
<title>Node1&#45;&gt;Node3</title>
<path fill="none" stroke="midnightblue" d="M167.65,-60.6C178.52,-50.78 191.2,-39.34 200.91,-30.58"/>
<polygon fill="midnightblue" stroke="midnightblue" points="165.2,-58.1 160.12,-67.4 169.89,-63.29 165.2,-58.1"/>
</g>
</g>
</svg>
