<?xml version="1.0" encoding="UTF-8" standalone="no"?>
<!DOCTYPE svg PUBLIC "-//W3C//DTD SVG 1.1//EN"
 "http://www.w3.org/Graphics/SVG/1.1/DTD/svg11.dtd">
<!-- Generated by graphviz version 2.43.0 (0)
 -->
<!-- Title: src/state.cpp Pages: 1 -->
<svg width="1385pt" height="263pt"
 viewBox="0.00 0.00 1384.50 263.00" xmlns="http://www.w3.org/2000/svg" xmlns:xlink="http://www.w3.org/1999/xlink">
<g id="graph0" class="graph" transform="scale(1 1) rotate(0) translate(4 259)">
<title>src/state.cpp</title>
<polygon fill="white" stroke="transparent" points="-4,4 -4,-259 1380.5,-259 1380.5,4 -4,4"/>
<!-- Node1 -->
<g id="node1" class="node">
<title>Node1</title>
<g id="a_node1"><a xlink:title="Implementação base de State para máquina de estados do jogo.">
<polygon fill="#bfbfbf" stroke="black" points="204,-235.5 204,-254.5 283,-254.5 283,-235.5 204,-235.5"/>
<text text-anchor="middle" x="243.5" y="-242.5" font-family="Helvetica,sans-Serif" font-size="10.00">src/state.cpp</text>
</a>
</g>
</g>
<!-- Node2 -->
<g id="node2" class="node">
<title>Node2</title>
<g id="a_node2"><a xlink:href="state_8hpp.html" target="_top" xlink:title="Interface base para estados da máquina de estados do jogo.">
<polygon fill="white" stroke="black" points="188.5,-179.5 188.5,-198.5 298.5,-198.5 298.5,-179.5 188.5,-179.5"/>
<text text-anchor="middle" x="243.5" y="-186.5" font-family="Helvetica,sans-Serif" font-size="10.00">../include/state.hpp</text>
</a>
</g>
</g>
<!-- Node1&#45;&gt;Node2 -->
<g id="edge1" class="edge">
<title>Node1&#45;&gt;Node2</title>
<path fill="none" stroke="midnightblue" d="M243.5,-235.08C243.5,-228.01 243.5,-217.86 243.5,-208.99"/>
<polygon fill="midnightblue" stroke="midnightblue" points="247,-208.75 243.5,-198.75 240,-208.75 247,-208.75"/>
</g>
<!-- Node3 -->
<g id="node3" class="node">
<title>Node3</title>
<g id="a_node3"><a xlink:title=" ">
<polygon fill="white" stroke="#bfbfbf" points="192.5,-6 192.5,-25 294.5,-25 294.5,-6 192.5,-6"/>
<text text-anchor="middle" x="243.5" y="-13" font-family="Helvetica,sans-Serif" font-size="10.00">allegro5/allegro.h</text>
</a>
</g>
</g>
<!-- Node2&#45;&gt;Node3 -->
<g id="edge2" class="edge">
<title>Node2&#45;&gt;Node3</title>
<path fill="none" stroke="midnightblue" d="M243.5,-179.26C243.5,-152.65 243.5,-72.21 243.5,-35.34"/>
<polygon fill="midnightblue" stroke="midnightblue" points="247,-35.02 243.5,-25.02 240,-35.02 247,-35.02"/>
</g>
<!-- Node4 -->
<g id="node4" class="node">
<title>Node4</title>
<g id="a_node4"><a xlink:href="defines_8hpp.html" target="_top" xlink:title="Constantes globais, macros e estruturas auxiliares do jogo.">
<polygon fill="white" stroke="black" points="116,-67.5 116,-86.5 189,-86.5 189,-67.5 116,-67.5"/>
<text text-anchor="middle" x="152.5" y="-74.5" font-family="Helvetica,sans-Serif" font-size="10.00">defines.hpp</text>
</a>
</g>
</g>
<!-- Node2&#45;&gt;Node4 -->
<g id="edge3" class="edge">
<title>Node2&#45;&gt;Node4</title>
<path fill="none" stroke="midnightblue" d="M236.36,-179.37C221.21,-161.05 185.63,-118.05 166.04,-94.36"/>
<polygon fill="midnightblue" stroke="midnightblue" points="168.68,-92.07 159.61,-86.59 163.28,-96.53 168.68,-92.07"/>
</g>
<!-- Node8 -->
<g id="node8" class="node">
<title>Node8</title>
<g id="a_node8"><a xlink:href="motion_8hpp.html" target="_top" xlink:title="Gerencia efeitos de parallax e animações de cenário.">
<polygon fill="white" stroke="black" points="313.5,-123.5 313.5,-142.5 385.5,-142.5 385.5,-123.5 313.5,-123.5"/>
<text text-anchor="middle" x="349.5" y="-130.5" font-family="Helvetica,sans-Serif" font-size="10.00">motion.hpp</text>
</a>
</g>
</g>
<!-- Node2&#45;&gt;Node8 -->
<g id="edge7" class="edge">
<title>Node2&#45;&gt;Node8</title>
<path fill="none" stroke="midnightblue" d="M260.53,-179.32C277.53,-170.66 303.88,-157.24 323.49,-147.25"/>
<polygon fill="midnightblue" stroke="midnightblue" points="325.19,-150.31 332.51,-142.65 322.01,-144.08 325.19,-150.31"/>
</g>
<!-- Node5 -->
<g id="node5" class="node">
<title>Node5</title>
<g id="a_node5"><a xlink:title=" ">
<polygon fill="white" stroke="#bfbfbf" points="65,-6 65,-25 112,-25 112,-6 65,-6"/>
<text text-anchor="middle" x="88.5" y="-13" font-family="Helvetica,sans-Serif" font-size="10.00">cmath</text>
</a>
</g>
</g>
<!-- Node4&#45;&gt;Node5 -->
<g id="edge4" class="edge">
<title>Node4&#45;&gt;Node5</title>
<path fill="none" stroke="midnightblue" d="M143.33,-67.48C133.35,-58.2 117.19,-43.17 104.99,-31.83"/>
<polygon fill="midnightblue" stroke="midnightblue" points="107.36,-29.25 97.65,-25.01 102.59,-34.38 107.36,-29.25"/>
</g>
<!-- Node6 -->
<g id="node6" class="node">
<title>Node6</title>
<g id="a_node6"><a xlink:title=" ">
<polygon fill="white" stroke="#bfbfbf" points="130.5,-6 130.5,-25 174.5,-25 174.5,-6 130.5,-6"/>
<text text-anchor="middle" x="152.5" y="-13" font-family="Helvetica,sans-Serif" font-size="10.00">string</text>
</a>
</g>
</g>
<!-- Node4&#45;&gt;Node6 -->
<g id="edge5" class="edge">
<title>Node4&#45;&gt;Node6</title>
<path fill="none" stroke="midnightblue" d="M152.5,-67.48C152.5,-59.08 152.5,-45.98 152.5,-35.16"/>
<polygon fill="midnightblue" stroke="midnightblue" points="156,-35.01 152.5,-25.01 149,-35.01 156,-35.01"/>
</g>
<!-- Node7 -->
<g id="node7" class="node">
<title>Node7</title>
<g id="a_node7"><a xlink:title=" ">
<polygon fill="white" stroke="#bfbfbf" points="0,-6 0,-25 47,-25 47,-6 0,-6"/>
<text text-anchor="middle" x="23.5" y="-13" font-family="Helvetica,sans-Serif" font-size="10.00">vector</text>
</a>
</g>
</g>
<!-- Node4&#45;&gt;Node7 -->
<g id="edge6" class="edge">
<title>Node4&#45;&gt;Node7</title>
<path fill="none" stroke="midnightblue" d="M134.02,-67.48C112.37,-57.49 76.29,-40.85 51.27,-29.31"/>
<polygon fill="midnightblue" stroke="midnightblue" points="52.49,-26.02 41.95,-25.01 49.56,-32.38 52.49,-26.02"/>
</g>
<!-- Node8&#45;&gt;Node4 -->
<g id="edge20" class="edge">
<title>Node8&#45;&gt;Node4</title>
<path fill="none" stroke="midnightblue" d="M318.28,-123.44C284.57,-114.2 230.7,-99.44 193.57,-89.26"/>
<polygon fill="midnightblue" stroke="midnightblue" points="194.14,-85.78 183.57,-86.52 192.29,-92.54 194.14,-85.78"/>
</g>
<!-- Node9 -->
<g id="node9" class="node">
<title>Node9</title>
<g id="a_node9"><a xlink:title=" ">
<polygon fill="white" stroke="#bfbfbf" points="313,-6 313,-25 470,-25 470,-6 313,-6"/>
<text text-anchor="middle" x="391.5" y="-13" font-family="Helvetica,sans-Serif" font-size="10.00">allegro5/allegro_primitives.h</text>
</a>
</g>
</g>
<!-- Node8&#45;&gt;Node9 -->
<g id="edge8" class="edge">
<title>Node8&#45;&gt;Node9</title>
<path fill="none" stroke="midnightblue" d="M352.66,-123.32C359.47,-104.59 375.67,-60.05 384.85,-34.79"/>
<polygon fill="midnightblue" stroke="midnightblue" points="388.18,-35.88 388.31,-25.28 381.6,-33.48 388.18,-35.88"/>
</g>
<!-- Node10 -->
<g id="node10" class="node">
<title>Node10</title>
<g id="a_node10"><a xlink:href="assets_8hpp.html" target="_top" xlink:title="Declara classes utilitárias para carregar e usar imagens, sons e fontes no Allegro.">
<polygon fill="white" stroke="black" points="601,-67.5 601,-86.5 670,-86.5 670,-67.5 601,-67.5"/>
<text text-anchor="middle" x="635.5" y="-74.5" font-family="Helvetica,sans-Serif" font-size="10.00">assets.hpp</text>
</a>
</g>
</g>
<!-- Node8&#45;&gt;Node10 -->
<g id="edge9" class="edge">
<title>Node8&#45;&gt;Node10</title>
<path fill="none" stroke="midnightblue" d="M385.72,-125.16C437.94,-115.3 534.28,-97.11 590.83,-86.43"/>
<polygon fill="midnightblue" stroke="midnightblue" points="591.73,-89.83 600.91,-84.53 590.43,-82.95 591.73,-89.83"/>
</g>
<!-- Node10&#45;&gt;Node3 -->
<g id="edge13" class="edge">
<title>Node10&#45;&gt;Node3</title>
<path fill="none" stroke="midnightblue" d="M600.9,-72.49C540.33,-66.09 411.25,-51.27 303.5,-31 297.77,-29.92 291.76,-28.65 285.85,-27.31"/>
<polygon fill="midnightblue" stroke="midnightblue" points="286.6,-23.89 276.07,-25.01 285,-30.7 286.6,-23.89"/>
</g>
<!-- Node10&#45;&gt;Node6 -->
<g id="edge12" class="edge">
<title>Node10&#45;&gt;Node6</title>
<path fill="none" stroke="midnightblue" d="M600.76,-76.49C524.01,-76.72 334.81,-72.61 183.5,-31 181.57,-30.47 179.6,-29.82 177.65,-29.11"/>
<polygon fill="midnightblue" stroke="midnightblue" points="178.77,-25.78 168.2,-25.1 176.03,-32.22 178.77,-25.78"/>
</g>
<!-- Node10&#45;&gt;Node9 -->
<g id="edge18" class="edge">
<title>Node10&#45;&gt;Node9</title>
<path fill="none" stroke="midnightblue" d="M600.8,-67.54C557.65,-57.02 483.91,-39.04 436.47,-27.47"/>
<polygon fill="midnightblue" stroke="midnightblue" points="437.02,-24 426.48,-25.03 435.36,-30.8 437.02,-24"/>
</g>
<!-- Node11 -->
<g id="node11" class="node">
<title>Node11</title>
<g id="a_node11"><a xlink:title=" ">
<polygon fill="white" stroke="#bfbfbf" points="1316.5,-6 1316.5,-25 1376.5,-25 1376.5,-6 1316.5,-6"/>
<text text-anchor="middle" x="1346.5" y="-13" font-family="Helvetica,sans-Serif" font-size="10.00">iostream</text>
</a>
</g>
</g>
<!-- Node10&#45;&gt;Node11 -->
<g id="edge10" class="edge">
<title>Node10&#45;&gt;Node11</title>
<path fill="none" stroke="midnightblue" d="M670.13,-75C789.6,-71.35 1183.89,-57.53 1307.5,-31 1310.75,-30.3 1314.09,-29.39 1317.38,-28.36"/>
<polygon fill="midnightblue" stroke="midnightblue" points="1318.7,-31.6 1326.99,-25.01 1316.4,-24.99 1318.7,-31.6"/>
</g>
<!-- Node12 -->
<g id="node12" class="node">
<title>Node12</title>
<g id="a_node12"><a xlink:title=" ">
<polygon fill="white" stroke="#bfbfbf" points="488.5,-6 488.5,-25 546.5,-25 546.5,-6 488.5,-6"/>
<text text-anchor="middle" x="517.5" y="-13" font-family="Helvetica,sans-Serif" font-size="10.00">memory</text>
</a>
</g>
</g>
<!-- Node10&#45;&gt;Node12 -->
<g id="edge11" class="edge">
<title>Node10&#45;&gt;Node12</title>
<path fill="none" stroke="midnightblue" d="M618.59,-67.48C598.97,-57.58 566.37,-41.14 543.51,-29.62"/>
<polygon fill="midnightblue" stroke="midnightblue" points="544.88,-26.39 534.38,-25.01 541.73,-32.64 544.88,-26.39"/>
</g>
<!-- Node13 -->
<g id="node13" class="node">
<title>Node13</title>
<g id="a_node13"><a xlink:title=" ">
<polygon fill="white" stroke="#bfbfbf" points="564.5,-6 564.5,-25 706.5,-25 706.5,-6 564.5,-6"/>
<text text-anchor="middle" x="635.5" y="-13" font-family="Helvetica,sans-Serif" font-size="10.00">allegro5/allegro_acodec.h</text>
</a>
</g>
</g>
<!-- Node10&#45;&gt;Node13 -->
<g id="edge14" class="edge">
<title>Node10&#45;&gt;Node13</title>
<path fill="none" stroke="midnightblue" d="M635.5,-67.48C635.5,-59.08 635.5,-45.98 635.5,-35.16"/>
<polygon fill="midnightblue" stroke="midnightblue" points="639,-35.01 635.5,-25.01 632,-35.01 639,-35.01"/>
</g>
<!-- Node14 -->
<g id="node14" class="node">
<title>Node14</title>
<g id="a_node14"><a xlink:title=" ">
<polygon fill="white" stroke="#bfbfbf" points="724.5,-6 724.5,-25 858.5,-25 858.5,-6 724.5,-6"/>
<text text-anchor="middle" x="791.5" y="-13" font-family="Helvetica,sans-Serif" font-size="10.00">allegro5/allegro_audio.h</text>
</a>
</g>
</g>
<!-- Node10&#45;&gt;Node14 -->
<g id="edge15" class="edge">
<title>Node10&#45;&gt;Node14</title>
<path fill="none" stroke="midnightblue" d="M657.85,-67.48C684.49,-57.31 729.21,-40.26 759.51,-28.7"/>
<polygon fill="midnightblue" stroke="midnightblue" points="761.09,-31.84 769.19,-25.01 758.6,-25.3 761.09,-31.84"/>
</g>
<!-- Node15 -->
<g id="node15" class="node">
<title>Node15</title>
<g id="a_node15"><a xlink:title=" ">
<polygon fill="white" stroke="#bfbfbf" points="876.5,-6 876.5,-25 1014.5,-25 1014.5,-6 876.5,-6"/>
<text text-anchor="middle" x="945.5" y="-13" font-family="Helvetica,sans-Serif" font-size="10.00">allegro5/allegro_image.h</text>
</a>
</g>
</g>
<!-- Node10&#45;&gt;Node15 -->
<g id="edge16" class="edge">
<title>Node10&#45;&gt;Node15</title>
<path fill="none" stroke="midnightblue" d="M670.16,-69.35C723.85,-59.04 827.56,-39.14 891.24,-26.91"/>
<polygon fill="midnightblue" stroke="midnightblue" points="891.95,-30.34 901.11,-25.02 890.63,-23.47 891.95,-30.34"/>
</g>
<!-- Node16 -->
<g id="node16" class="node">
<title>Node16</title>
<g id="a_node16"><a xlink:title=" ">
<polygon fill="white" stroke="#bfbfbf" points="1033,-0.5 1033,-30.5 1162,-30.5 1162,-0.5 1033,-0.5"/>
<text text-anchor="start" x="1041" y="-18.5" font-family="Helvetica,sans-Serif" font-size="10.00">allegro5/allegro_native</text>
<text text-anchor="middle" x="1097.5" y="-7.5" font-family="Helvetica,sans-Serif" font-size="10.00">_dialog.h</text>
</a>
</g>
</g>
<!-- Node10&#45;&gt;Node16 -->
<g id="edge17" class="edge">
<title>Node10&#45;&gt;Node16</title>
<path fill="none" stroke="midnightblue" d="M670.14,-72.9C736.46,-66.76 886.13,-51.96 1022.75,-31.03"/>
<polygon fill="midnightblue" stroke="midnightblue" points="1023.63,-34.44 1032.98,-29.45 1022.56,-27.52 1023.63,-34.44"/>
</g>
<!-- Node17 -->
<g id="node17" class="node">
<title>Node17</title>
<g id="a_node17"><a xlink:title=" ">
<polygon fill="white" stroke="#bfbfbf" points="1180.5,-6 1180.5,-25 1298.5,-25 1298.5,-6 1180.5,-6"/>
<text text-anchor="middle" x="1239.5" y="-13" font-family="Helvetica,sans-Serif" font-size="10.00">allegro5/allegro_ttf.h</text>
</a>
</g>
</g>
<!-- Node10&#45;&gt;Node17 -->
<g id="edge19" class="edge">
<title>Node10&#45;&gt;Node17</title>
<path fill="none" stroke="midnightblue" d="M670.16,-74.61C755.7,-70.85 983.51,-58.82 1171.5,-31 1178.72,-29.93 1186.33,-28.56 1193.74,-27.08"/>
<polygon fill="midnightblue" stroke="midnightblue" points="1194.58,-30.48 1203.66,-25.03 1193.16,-23.63 1194.58,-30.48"/>
</g>
</g>
</svg>
