<?xml version="1.0" encoding="UTF-8" standalone="no"?>
<!DOCTYPE svg PUBLIC "-//W3C//DTD SVG 1.1//EN"
 "http://www.w3.org/Graphics/SVG/1.1/DTD/svg11.dtd">
<!-- Generated by graphviz version 2.43.0 (0)
 -->
<!-- Title: include/state.hpp Pages: 1 -->
<svg width="1807pt" height="397pt"
 viewBox="0.00 0.00 1806.50 397.00" xmlns="http://www.w3.org/2000/svg" xmlns:xlink="http://www.w3.org/1999/xlink">
<g id="graph0" class="graph" transform="scale(1 1) rotate(0) translate(4 393)">
<title>include/state.hpp</title>
<polygon fill="white" stroke="transparent" points="-4,4 -4,-393 1802.5,-393 1802.5,4 -4,4"/>
<!-- Node1 -->
<g id="node1" class="node">
<title>Node1</title>
<g id="a_node1"><a xlink:title="Interface base para estados da máquina de estados do jogo.">
<polygon fill="#bfbfbf" stroke="black" points="1114.5,-369.5 1114.5,-388.5 1215.5,-388.5 1215.5,-369.5 1114.5,-369.5"/>
<text text-anchor="middle" x="1165" y="-376.5" font-family="Helvetica,sans-Serif" font-size="10.00">include/state.hpp</text>
</a>
</g>
</g>
<!-- Node2 -->
<g id="node2" class="node">
<title>Node2</title>
<g id="a_node2"><a xlink:href="allegro__interface_8hpp.html" target="_top" xlink:title="Declara o controlador que integra Allegro e a máquina de estados.">
<polygon fill="white" stroke="black" points="92,-56.5 92,-75.5 250,-75.5 250,-56.5 92,-56.5"/>
<text text-anchor="middle" x="171" y="-63.5" font-family="Helvetica,sans-Serif" font-size="10.00">include/allegro_interface.hpp</text>
</a>
</g>
</g>
<!-- Node1&#45;&gt;Node2 -->
<g id="edge1" class="edge">
<title>Node1&#45;&gt;Node2</title>
<path fill="none" stroke="midnightblue" d="M1104.34,-378.21C870.16,-378.22 38,-370.67 38,-262.5 38,-262.5 38,-262.5 38,-193.5 38,-132.63 112.04,-92.17 149.63,-75.55"/>
<polygon fill="midnightblue" stroke="midnightblue" points="1104.39,-381.71 1114.39,-378.2 1104.38,-374.71 1104.39,-381.71"/>
</g>
<!-- Node3 -->
<g id="node3" class="node">
<title>Node3</title>
<g id="a_node3"><a xlink:href="allegro__interface_8cpp.html" target="_top" xlink:title="Implementação do controlador principal que integra Allegro às lógicas de estado do jogo.">
<polygon fill="white" stroke="black" points="209.5,-0.5 209.5,-19.5 346.5,-19.5 346.5,-0.5 209.5,-0.5"/>
<text text-anchor="middle" x="278" y="-7.5" font-family="Helvetica,sans-Serif" font-size="10.00">src/allegro_interface.cpp</text>
</a>
</g>
</g>
<!-- Node1&#45;&gt;Node3 -->
<g id="edge64" class="edge">
<title>Node1&#45;&gt;Node3</title>
<path fill="none" stroke="midnightblue" d="M1104.2,-377.22C894.11,-374.28 206.54,-362.48 112,-333 55.85,-315.49 0,-321.32 0,-262.5 0,-262.5 0,-262.5 0,-126.5 0,-78.1 39.75,-77.72 83,-56 122.43,-36.19 170.73,-24.97 209.39,-18.68"/>
<polygon fill="midnightblue" stroke="midnightblue" points="1104.37,-380.72 1114.42,-377.36 1104.47,-373.72 1104.37,-380.72"/>
</g>
<!-- Node5 -->
<g id="node5" class="node">
<title>Node5</title>
<g id="a_node5"><a xlink:href="init_8hpp.html" target="_top" xlink:title="Declara funções de inicialização e finalização do Allegro.">
<polygon fill="white" stroke="black" points="717,-313.5 717,-332.5 809,-332.5 809,-313.5 717,-313.5"/>
<text text-anchor="middle" x="763" y="-320.5" font-family="Helvetica,sans-Serif" font-size="10.00">include/init.hpp</text>
</a>
</g>
</g>
<!-- Node1&#45;&gt;Node5 -->
<g id="edge4" class="edge">
<title>Node1&#45;&gt;Node5</title>
<path fill="none" stroke="midnightblue" d="M1104.46,-369.87C1023.61,-359.01 882.12,-340 809.26,-330.21"/>
<polygon fill="midnightblue" stroke="midnightblue" points="1104.12,-373.35 1114.49,-371.22 1105.05,-366.42 1104.12,-373.35"/>
</g>
<!-- Node7 -->
<g id="node7" class="node">
<title>Node7</title>
<g id="a_node7"><a xlink:href="play_8hpp.html" target="_top" xlink:title="Declaracao da classe Play, responsavel pelo estado de jogo ativo.">
<polygon fill="white" stroke="black" points="1386,-56.5 1386,-75.5 1514,-75.5 1514,-56.5 1386,-56.5"/>
<text text-anchor="middle" x="1450" y="-63.5" font-family="Helvetica,sans-Serif" font-size="10.00">include/states/play.hpp</text>
</a>
</g>
</g>
<!-- Node1&#45;&gt;Node7 -->
<g id="edge62" class="edge">
<title>Node1&#45;&gt;Node7</title>
<path fill="none" stroke="midnightblue" d="M1226.24,-375.17C1348.58,-368.11 1616.25,-345.05 1672,-277 1743.44,-189.79 1543.32,-102.67 1473.24,-75.58"/>
<polygon fill="midnightblue" stroke="midnightblue" points="1225.71,-371.7 1215.92,-375.75 1226.11,-378.69 1225.71,-371.7"/>
</g>
<!-- Node19 -->
<g id="node19" class="node">
<title>Node19</title>
<g id="a_node19"><a xlink:href="difficulty__menu_8hpp.html" target="_top" xlink:title="Definição da classe DifficultyMenu, que representa o estado do menu de seleção de dificuldade.">
<polygon fill="white" stroke="black" points="886.5,-246.5 886.5,-276.5 1017.5,-276.5 1017.5,-246.5 886.5,-246.5"/>
<text text-anchor="start" x="894.5" y="-264.5" font-family="Helvetica,sans-Serif" font-size="10.00">include/states/difficulty</text>
<text text-anchor="middle" x="952" y="-253.5" font-family="Helvetica,sans-Serif" font-size="10.00">_menu.hpp</text>
</a>
</g>
</g>
<!-- Node1&#45;&gt;Node19 -->
<g id="edge58" class="edge">
<title>Node1&#45;&gt;Node19</title>
<path fill="none" stroke="midnightblue" d="M1140.01,-364.45C1099.32,-342.38 1019.17,-298.92 977.9,-276.55"/>
<polygon fill="midnightblue" stroke="midnightblue" points="1138.53,-367.63 1148.99,-369.32 1141.87,-361.48 1138.53,-367.63"/>
</g>
<!-- Node22 -->
<g id="node22" class="node">
<title>Node22</title>
<g id="a_node22"><a xlink:href="leaderboard__menu_8hpp.html" target="_top" xlink:title="Definição da classe LeaderboardMenu, que representa o estado da tela de ranking.">
<polygon fill="white" stroke="black" points="1036,-246.5 1036,-276.5 1182,-276.5 1182,-246.5 1036,-246.5"/>
<text text-anchor="start" x="1044" y="-264.5" font-family="Helvetica,sans-Serif" font-size="10.00">include/states/leaderboard</text>
<text text-anchor="middle" x="1109" y="-253.5" font-family="Helvetica,sans-Serif" font-size="10.00">_menu.hpp</text>
</a>
</g>
</g>
<!-- Node1&#45;&gt;Node22 -->
<g id="edge59" class="edge">
<title>Node1&#45;&gt;Node22</title>
<path fill="none" stroke="midnightblue" d="M1156.28,-360.01C1145.11,-336.97 1125.97,-297.51 1115.81,-276.55"/>
<polygon fill="midnightblue" stroke="midnightblue" points="1153.28,-361.85 1160.79,-369.32 1159.58,-358.79 1153.28,-361.85"/>
</g>
<!-- Node24 -->
<g id="node24" class="node">
<title>Node24</title>
<g id="a_node24"><a xlink:href="load__game_8hpp.html" target="_top" xlink:title="Definição da classe LoadName, que representa o estado de inserção de nome.">
<polygon fill="white" stroke="black" points="1553.5,-246.5 1553.5,-276.5 1662.5,-276.5 1662.5,-246.5 1553.5,-246.5"/>
<text text-anchor="start" x="1561.5" y="-264.5" font-family="Helvetica,sans-Serif" font-size="10.00">include/states/load</text>
<text text-anchor="middle" x="1608" y="-253.5" font-family="Helvetica,sans-Serif" font-size="10.00">_game.hpp</text>
</a>
</g>
</g>
<!-- Node1&#45;&gt;Node24 -->
<g id="edge60" class="edge">
<title>Node1&#45;&gt;Node24</title>
<path fill="none" stroke="midnightblue" d="M1207.81,-366.84C1288.94,-345.68 1464.93,-299.8 1554.01,-276.58"/>
<polygon fill="midnightblue" stroke="midnightblue" points="1206.73,-363.5 1197.94,-369.41 1208.49,-370.28 1206.73,-363.5"/>
</g>
<!-- Node25 -->
<g id="node25" class="node">
<title>Node25</title>
<g id="a_node25"><a xlink:href="main__menu_8hpp.html" target="_top" xlink:title="Definição da classe MainMenu, o estado que representa o menu principal do jogo.">
<polygon fill="white" stroke="black" points="1238.5,-246.5 1238.5,-276.5 1351.5,-276.5 1351.5,-246.5 1238.5,-246.5"/>
<text text-anchor="start" x="1246.5" y="-264.5" font-family="Helvetica,sans-Serif" font-size="10.00">include/states/main</text>
<text text-anchor="middle" x="1295" y="-253.5" font-family="Helvetica,sans-Serif" font-size="10.00">_menu.hpp</text>
</a>
</g>
</g>
<!-- Node1&#45;&gt;Node25 -->
<g id="edge61" class="edge">
<title>Node1&#45;&gt;Node25</title>
<path fill="none" stroke="midnightblue" d="M1182.52,-362.44C1207.96,-339.83 1254.75,-298.26 1279.19,-276.55"/>
<polygon fill="midnightblue" stroke="midnightblue" points="1179.92,-360.06 1174.77,-369.32 1184.57,-365.29 1179.92,-360.06"/>
</g>
<!-- Node27 -->
<g id="node27" class="node">
<title>Node27</title>
<g id="a_node27"><a xlink:href="settings__menu_8hpp.html" target="_top" xlink:title="Definição da classe SettingsMenu, que representa o estado do menu de configurações.">
<polygon fill="white" stroke="black" points="1408.5,-246.5 1408.5,-276.5 1535.5,-276.5 1535.5,-246.5 1408.5,-246.5"/>
<text text-anchor="start" x="1416.5" y="-264.5" font-family="Helvetica,sans-Serif" font-size="10.00">include/states/settings</text>
<text text-anchor="middle" x="1472" y="-253.5" font-family="Helvetica,sans-Serif" font-size="10.00">_menu.hpp</text>
</a>
</g>
</g>
<!-- Node1&#45;&gt;Node27 -->
<g id="edge63" class="edge">
<title>Node1&#45;&gt;Node27</title>
<path fill="none" stroke="midnightblue" d="M1197.47,-365.78C1254.85,-344.2 1373.86,-299.42 1434.59,-276.58"/>
<polygon fill="midnightblue" stroke="midnightblue" points="1195.95,-362.62 1187.82,-369.41 1198.42,-369.17 1195.95,-362.62"/>
</g>
<!-- Node30 -->
<g id="node30" class="node">
<title>Node30</title>
<g id="a_node30"><a xlink:href="state_8cpp.html" target="_top" xlink:title="Implementação base de State para máquina de estados do jogo.">
<polygon fill="white" stroke="black" points="1719.5,-313.5 1719.5,-332.5 1798.5,-332.5 1798.5,-313.5 1719.5,-313.5"/>
<text text-anchor="middle" x="1759" y="-320.5" font-family="Helvetica,sans-Serif" font-size="10.00">src/state.cpp</text>
</a>
</g>
</g>
<!-- Node1&#45;&gt;Node30 -->
<g id="edge65" class="edge">
<title>Node1&#45;&gt;Node30</title>
<path fill="none" stroke="midnightblue" d="M1226.01,-374.55C1326.23,-368.52 1531.89,-354.6 1705,-333 1709.62,-332.42 1714.45,-331.74 1719.24,-331.01"/>
<polygon fill="midnightblue" stroke="midnightblue" points="1225.54,-371.07 1215.77,-375.16 1225.96,-378.06 1225.54,-371.07"/>
</g>
<!-- Node2&#45;&gt;Node3 -->
<g id="edge2" class="edge">
<title>Node2&#45;&gt;Node3</title>
<path fill="none" stroke="midnightblue" d="M197.3,-51.73C217.11,-41.73 243.71,-28.31 260.85,-19.65"/>
<polygon fill="midnightblue" stroke="midnightblue" points="195.54,-48.69 188.19,-56.32 198.7,-54.94 195.54,-48.69"/>
</g>
<!-- Node4 -->
<g id="node4" class="node">
<title>Node4</title>
<g id="a_node4"><a xlink:href="main_8cpp.html" target="_top" xlink:title="Ponto de entrada do jogo Flappy Bird.">
<polygon fill="white" stroke="black" points="68.5,-0.5 68.5,-19.5 147.5,-19.5 147.5,-0.5 68.5,-0.5"/>
<text text-anchor="middle" x="108" y="-7.5" font-family="Helvetica,sans-Serif" font-size="10.00">src/main.cpp</text>
</a>
</g>
</g>
<!-- Node2&#45;&gt;Node4 -->
<g id="edge3" class="edge">
<title>Node2&#45;&gt;Node4</title>
<path fill="none" stroke="midnightblue" d="M152.96,-49.54C141.73,-39.91 127.68,-27.87 118.31,-19.83"/>
<polygon fill="midnightblue" stroke="midnightblue" points="151.01,-52.47 160.88,-56.32 155.56,-47.16 151.01,-52.47"/>
</g>
<!-- Node5&#45;&gt;Node2 -->
<g id="edge5" class="edge">
<title>Node5&#45;&gt;Node2</title>
<path fill="none" stroke="midnightblue" d="M706.39,-322.25C558.91,-322.31 171.63,-318.49 133,-277 77.96,-217.89 144.22,-107.17 165.1,-75.6"/>
<polygon fill="midnightblue" stroke="midnightblue" points="706.59,-325.75 716.58,-322.24 706.58,-318.75 706.59,-325.75"/>
</g>
<!-- Node5&#45;&gt;Node3 -->
<g id="edge48" class="edge">
<title>Node5&#45;&gt;Node3</title>
<path fill="none" stroke="midnightblue" d="M706.8,-319.96C611.38,-315.79 422.18,-304.27 362,-277 343.37,-268.56 344.76,-257.72 328,-246 299.65,-226.18 276.93,-239.58 259,-210 239.21,-177.35 267.47,-53.85 275.8,-19.76"/>
<polygon fill="midnightblue" stroke="midnightblue" points="706.71,-323.46 716.85,-320.38 707.01,-316.46 706.71,-323.46"/>
</g>
<!-- Node5&#45;&gt;Node4 -->
<g id="edge50" class="edge">
<title>Node5&#45;&gt;Node4</title>
<path fill="none" stroke="midnightblue" d="M706.53,-322.05C556.45,-321.65 156.1,-316.82 113,-277 46.66,-215.71 89.69,-166.08 83,-76 82.34,-67.14 80.77,-64.6 83,-56 86.54,-42.33 95.23,-28.39 101.37,-19.73"/>
<polygon fill="midnightblue" stroke="midnightblue" points="706.89,-325.56 716.9,-322.08 706.91,-318.56 706.89,-325.56"/>
</g>
<!-- Node6 -->
<g id="node6" class="node">
<title>Node6</title>
<g id="a_node6"><a xlink:href="flappy__bird__controller_8hpp.html" target="_top" xlink:title="Declaracao da classe FlappyBird (controlador principal).">
<polygon fill="white" stroke="black" points="575.5,-112.5 575.5,-142.5 684.5,-142.5 684.5,-112.5 575.5,-112.5"/>
<text text-anchor="start" x="583.5" y="-130.5" font-family="Helvetica,sans-Serif" font-size="10.00">include/flappy_bird</text>
<text text-anchor="middle" x="630" y="-119.5" font-family="Helvetica,sans-Serif" font-size="10.00">_controller.hpp</text>
</a>
</g>
</g>
<!-- Node5&#45;&gt;Node6 -->
<g id="edge6" class="edge">
<title>Node5&#45;&gt;Node6</title>
<path fill="none" stroke="midnightblue" d="M751.36,-305.06C725.5,-267.44 663.67,-177.48 639.71,-142.63"/>
<polygon fill="midnightblue" stroke="midnightblue" points="748.56,-307.18 757.11,-313.44 754.33,-303.21 748.56,-307.18"/>
</g>
<!-- Node8 -->
<g id="node8" class="node">
<title>Node8</title>
<g id="a_node8"><a xlink:href="load__game_8cpp.html" target="_top" xlink:title="Implementação da classe LoadName, responsável pela tela de inserção de nome do jogador.">
<polygon fill="white" stroke="black" points="1490.5,-0.5 1490.5,-19.5 1631.5,-19.5 1631.5,-0.5 1490.5,-0.5"/>
<text text-anchor="middle" x="1561" y="-7.5" font-family="Helvetica,sans-Serif" font-size="10.00">src/states/load_game.cpp</text>
</a>
</g>
</g>
<!-- Node5&#45;&gt;Node8 -->
<g id="edge55" class="edge">
<title>Node5&#45;&gt;Node8</title>
<path fill="none" stroke="midnightblue" d="M769.9,-304.05C776.63,-287.9 787.9,-264.01 802,-246 805.5,-241.54 873.86,-181.4 879,-179 1141.58,-56.24 1283.8,-239.71 1523,-76 1543.06,-62.27 1554.03,-34.18 1558.53,-19.84"/>
<polygon fill="midnightblue" stroke="midnightblue" points="766.63,-302.82 766.15,-313.41 773.12,-305.43 766.63,-302.82"/>
</g>
<!-- Node11 -->
<g id="node11" class="node">
<title>Node11</title>
<g id="a_node11"><a xlink:href="game__object_8hpp.html" target="_top" xlink:title="Classe base abstrata para todos os objetos renderizáveis.">
<polygon fill="white" stroke="black" points="538.5,-252 538.5,-271 677.5,-271 677.5,-252 538.5,-252"/>
<text text-anchor="middle" x="608" y="-259" font-family="Helvetica,sans-Serif" font-size="10.00">include/game_object.hpp</text>
</a>
</g>
</g>
<!-- Node5&#45;&gt;Node11 -->
<g id="edge13" class="edge">
<title>Node5&#45;&gt;Node11</title>
<path fill="none" stroke="midnightblue" d="M731.17,-309.78C701.05,-298.22 656.62,-281.16 630.17,-271.01"/>
<polygon fill="midnightblue" stroke="midnightblue" points="730.2,-313.16 740.79,-313.48 732.71,-306.62 730.2,-313.16"/>
</g>
<!-- Node14 -->
<g id="node14" class="node">
<title>Node14</title>
<g id="a_node14"><a xlink:href="pipe_8hpp.html" target="_top" xlink:title="Declaration of pipe&#45;related classes (Pipe, PipePair, PipeList).">
<polygon fill="white" stroke="black" points="734.5,-185 734.5,-204 831.5,-204 831.5,-185 734.5,-185"/>
<text text-anchor="middle" x="783" y="-192" font-family="Helvetica,sans-Serif" font-size="10.00">include/pipe.hpp</text>
</a>
</g>
</g>
<!-- Node5&#45;&gt;Node14 -->
<g id="edge23" class="edge">
<title>Node5&#45;&gt;Node14</title>
<path fill="none" stroke="midnightblue" d="M763.08,-303.19C763.41,-287.72 764.54,-265.29 768,-246 770.68,-231.06 776.19,-214.26 779.73,-204.29"/>
<polygon fill="midnightblue" stroke="midnightblue" points="759.57,-303.45 762.94,-313.49 766.57,-303.54 759.57,-303.45"/>
</g>
<!-- Node17 -->
<g id="node17" class="node">
<title>Node17</title>
<g id="a_node17"><a xlink:href="player_8hpp.html" target="_top" xlink:title="Modela um jogador e operações de ranking.">
<polygon fill="white" stroke="black" points="414,-252 414,-271 520,-271 520,-252 414,-252"/>
<text text-anchor="middle" x="467" y="-259" font-family="Helvetica,sans-Serif" font-size="10.00">include/player.hpp</text>
</a>
</g>
</g>
<!-- Node5&#45;&gt;Node17 -->
<g id="edge24" class="edge">
<title>Node5&#45;&gt;Node17</title>
<path fill="none" stroke="midnightblue" d="M706.73,-313C657.43,-304.25 584.22,-290.38 521,-277 512.22,-275.14 502.77,-273.03 494.21,-271"/>
<polygon fill="midnightblue" stroke="midnightblue" points="706.42,-316.5 716.88,-314.78 707.64,-309.6 706.42,-316.5"/>
</g>
<!-- Node18 -->
<g id="node18" class="node">
<title>Node18</title>
<g id="a_node18"><a xlink:href="player_8cpp.html" target="_top" xlink:title="Implementação da classe Player e utilidades de ranking.">
<polygon fill="white" stroke="black" points="268,-185 268,-204 352,-204 352,-185 268,-185"/>
<text text-anchor="middle" x="310" y="-192" font-family="Helvetica,sans-Serif" font-size="10.00">src/player.cpp</text>
</a>
</g>
</g>
<!-- Node5&#45;&gt;Node18 -->
<g id="edge52" class="edge">
<title>Node5&#45;&gt;Node18</title>
<path fill="none" stroke="midnightblue" d="M706.51,-318.86C619.62,-313.38 457.7,-300.35 405,-277 385.13,-268.2 338.32,-223.41 318.8,-204.23"/>
<polygon fill="midnightblue" stroke="midnightblue" points="706.52,-322.37 716.72,-319.5 706.95,-315.39 706.52,-322.37"/>
</g>
<!-- Node5&#45;&gt;Node19 -->
<g id="edge28" class="edge">
<title>Node5&#45;&gt;Node19</title>
<path fill="none" stroke="midnightblue" d="M799.98,-310.36C830.78,-300.66 874.73,-286.83 907.46,-276.52"/>
<polygon fill="midnightblue" stroke="midnightblue" points="798.57,-307.13 790.08,-313.48 800.67,-313.81 798.57,-307.13"/>
</g>
<!-- Node20 -->
<g id="node20" class="node">
<title>Node20</title>
<g id="a_node20"><a xlink:href="difficulty__menu_8cpp.html" target="_top" xlink:title="Implementação da classe DifficultyMenu, que gerencia a tela de seleção de dificuldade.">
<polygon fill="white" stroke="black" points="888,-179.5 888,-209.5 998,-209.5 998,-179.5 888,-179.5"/>
<text text-anchor="start" x="896" y="-197.5" font-family="Helvetica,sans-Serif" font-size="10.00">src/states/difficulty</text>
<text text-anchor="middle" x="943" y="-186.5" font-family="Helvetica,sans-Serif" font-size="10.00">_menu.cpp</text>
</a>
</g>
</g>
<!-- Node5&#45;&gt;Node20 -->
<g id="edge53" class="edge">
<title>Node5&#45;&gt;Node20</title>
<path fill="none" stroke="midnightblue" d="M777.95,-305.47C793.4,-289.02 818.74,-263.75 844,-246 864.52,-231.58 889.73,-218.78 909.57,-209.68"/>
<polygon fill="midnightblue" stroke="midnightblue" points="775.05,-303.45 770.83,-313.17 780.19,-308.2 775.05,-303.45"/>
</g>
<!-- Node21 -->
<g id="node21" class="node">
<title>Node21</title>
<g id="a_node21"><a xlink:href="main__menu_8cpp.html" target="_top" xlink:title="Implementação da classe MainMenu, o estado principal e tela inicial do jogo.">
<polygon fill="white" stroke="black" points="1159.5,-185 1159.5,-204 1304.5,-204 1304.5,-185 1159.5,-185"/>
<text text-anchor="middle" x="1232" y="-192" font-family="Helvetica,sans-Serif" font-size="10.00">src/states/main_menu.cpp</text>
</a>
</g>
</g>
<!-- Node5&#45;&gt;Node21 -->
<g id="edge56" class="edge">
<title>Node5&#45;&gt;Node21</title>
<path fill="none" stroke="midnightblue" d="M819.34,-322.62C921.48,-322.68 1132.1,-317.71 1191,-277 1216.41,-259.44 1226.9,-221.34 1230.45,-204.19"/>
<polygon fill="midnightblue" stroke="midnightblue" points="819.22,-319.12 809.21,-322.59 819.2,-326.12 819.22,-319.12"/>
</g>
<!-- Node5&#45;&gt;Node22 -->
<g id="edge31" class="edge">
<title>Node5&#45;&gt;Node22</title>
<path fill="none" stroke="midnightblue" d="M819.24,-312.52C872.69,-303.48 955.35,-289.44 1027,-277 1029.85,-276.51 1032.75,-276 1035.69,-275.49"/>
<polygon fill="midnightblue" stroke="midnightblue" points="818.55,-309.08 809.27,-314.2 819.72,-315.99 818.55,-309.08"/>
</g>
<!-- Node23 -->
<g id="node23" class="node">
<title>Node23</title>
<g id="a_node23"><a xlink:href="leaderboard__menu_8cpp.html" target="_top" xlink:title="Implementação da classe LeaderboardMenu, responsável por exibir a tela de ranking.">
<polygon fill="white" stroke="black" points="1016.5,-179.5 1016.5,-209.5 1141.5,-209.5 1141.5,-179.5 1016.5,-179.5"/>
<text text-anchor="start" x="1024.5" y="-197.5" font-family="Helvetica,sans-Serif" font-size="10.00">src/states/leaderboard</text>
<text text-anchor="middle" x="1079" y="-186.5" font-family="Helvetica,sans-Serif" font-size="10.00">_menu.cpp</text>
</a>
</g>
</g>
<!-- Node5&#45;&gt;Node23 -->
<g id="edge54" class="edge">
<title>Node5&#45;&gt;Node23</title>
<path fill="none" stroke="midnightblue" d="M787.6,-308.57C802.74,-300.03 822.37,-288.45 839,-277 857.24,-264.44 858.15,-255.81 878,-246 902.11,-234.09 966.61,-218.87 1016.1,-208.26"/>
<polygon fill="midnightblue" stroke="midnightblue" points="785.84,-305.54 778.82,-313.47 789.25,-311.66 785.84,-305.54"/>
</g>
<!-- Node5&#45;&gt;Node24 -->
<g id="edge34" class="edge">
<title>Node5&#45;&gt;Node24</title>
<path fill="none" stroke="midnightblue" d="M819.14,-322.01C948.06,-321.32 1274.99,-315.56 1545,-277 1547.78,-276.6 1550.61,-276.15 1553.47,-275.64"/>
<polygon fill="midnightblue" stroke="midnightblue" points="819.09,-318.51 809.1,-322.05 819.12,-325.51 819.09,-318.51"/>
</g>
<!-- Node5&#45;&gt;Node25 -->
<g id="edge37" class="edge">
<title>Node5&#45;&gt;Node25</title>
<path fill="none" stroke="midnightblue" d="M819.53,-318.39C906.69,-312.39 1079.01,-298.82 1224,-277 1228.6,-276.31 1233.36,-275.51 1238.13,-274.66"/>
<polygon fill="midnightblue" stroke="midnightblue" points="819.07,-314.91 809.33,-319.08 819.54,-321.89 819.07,-314.91"/>
</g>
<!-- Node26 -->
<g id="node26" class="node">
<title>Node26</title>
<g id="a_node26"><a xlink:href="settings__menu_8cpp.html" target="_top" xlink:title="Implementação da classe SettingsMenu, que gerencia a tela de configurações do jogo.">
<polygon fill="white" stroke="black" points="1442,-179.5 1442,-209.5 1548,-209.5 1548,-179.5 1442,-179.5"/>
<text text-anchor="start" x="1450" y="-197.5" font-family="Helvetica,sans-Serif" font-size="10.00">src/states/settings</text>
<text text-anchor="middle" x="1495" y="-186.5" font-family="Helvetica,sans-Serif" font-size="10.00">_menu.cpp</text>
</a>
</g>
</g>
<!-- Node5&#45;&gt;Node26 -->
<g id="edge57" class="edge">
<title>Node5&#45;&gt;Node26</title>
<path fill="none" stroke="midnightblue" d="M819.41,-321.95C948.8,-321.17 1263.31,-315.27 1361,-277 1381.62,-268.92 1381.48,-258.14 1400,-246 1420.93,-232.28 1445.98,-219.09 1465.1,-209.63"/>
<polygon fill="midnightblue" stroke="midnightblue" points="819.29,-318.45 809.31,-322.01 819.33,-325.45 819.29,-318.45"/>
</g>
<!-- Node5&#45;&gt;Node27 -->
<g id="edge45" class="edge">
<title>Node5&#45;&gt;Node27</title>
<path fill="none" stroke="midnightblue" d="M819.35,-320.11C929.92,-315.93 1182.94,-304.06 1394,-277 1398.65,-276.4 1403.43,-275.71 1408.24,-274.96"/>
<polygon fill="midnightblue" stroke="midnightblue" points="818.96,-316.62 809.1,-320.49 819.22,-323.62 818.96,-316.62"/>
</g>
<!-- Node28 -->
<g id="node28" class="node">
<title>Node28</title>
<g id="a_node28"><a xlink:href="init_8cpp.html" target="_top" xlink:title="Inicialização de Allegro, fontes, addons e recursos globais.">
<polygon fill="white" stroke="black" points="142,-252 142,-271 212,-271 212,-252 142,-252"/>
<text text-anchor="middle" x="177" y="-259" font-family="Helvetica,sans-Serif" font-size="10.00">src/init.cpp</text>
</a>
</g>
</g>
<!-- Node5&#45;&gt;Node28 -->
<g id="edge49" class="edge">
<title>Node5&#45;&gt;Node28</title>
<path fill="none" stroke="midnightblue" d="M706.71,-321.67C607.55,-320.12 395.71,-312.52 221,-277 213.91,-275.56 206.36,-273.34 199.56,-271.06"/>
<polygon fill="midnightblue" stroke="midnightblue" points="706.75,-325.17 716.8,-321.81 706.85,-318.17 706.75,-325.17"/>
</g>
<!-- Node29 -->
<g id="node29" class="node">
<title>Node29</title>
<g id="a_node29"><a xlink:href="motion_8cpp.html" target="_top" xlink:title="Implementação da classe Motion (parallax e clima).">
<polygon fill="white" stroke="black" points="230.5,-252 230.5,-271 319.5,-271 319.5,-252 230.5,-252"/>
<text text-anchor="middle" x="275" y="-259" font-family="Helvetica,sans-Serif" font-size="10.00">src/motion.cpp</text>
</a>
</g>
</g>
<!-- Node5&#45;&gt;Node29 -->
<g id="edge51" class="edge">
<title>Node5&#45;&gt;Node29</title>
<path fill="none" stroke="midnightblue" d="M706.54,-318.54C624.18,-312.94 466.47,-300.12 334,-277 324.96,-275.42 315.25,-273.24 306.37,-271.05"/>
<polygon fill="midnightblue" stroke="midnightblue" points="706.47,-322.05 716.69,-319.22 706.94,-315.06 706.47,-322.05"/>
</g>
<!-- Node6&#45;&gt;Node2 -->
<g id="edge7" class="edge">
<title>Node6&#45;&gt;Node2</title>
<path fill="none" stroke="midnightblue" d="M565.26,-117.03C553.21,-115.32 540.73,-113.58 529,-112 429.36,-98.59 313.94,-84.3 241.69,-75.51"/>
<polygon fill="midnightblue" stroke="midnightblue" points="564.85,-120.51 575.25,-118.46 565.84,-113.58 564.85,-120.51"/>
</g>
<!-- Node6&#45;&gt;Node7 -->
<g id="edge8" class="edge">
<title>Node6&#45;&gt;Node7</title>
<path fill="none" stroke="midnightblue" d="M694.63,-116.98C708.58,-115.14 723.26,-113.36 737,-112 975.83,-88.31 1260.97,-74.72 1385.96,-69.5"/>
<polygon fill="midnightblue" stroke="midnightblue" points="694.06,-113.53 684.62,-118.33 695,-120.46 694.06,-113.53"/>
</g>
<!-- Node10 -->
<g id="node10" class="node">
<title>Node10</title>
<g id="a_node10"><a xlink:href="flappy__bird__controller_8cpp.html" target="_top" xlink:title="Controlador de fluxo do jogo (pontuação, eventos globais).">
<polygon fill="white" stroke="black" points="425.5,-56.5 425.5,-75.5 584.5,-75.5 584.5,-56.5 425.5,-56.5"/>
<text text-anchor="middle" x="505" y="-63.5" font-family="Helvetica,sans-Serif" font-size="10.00">src/flappy_bird_controller.cpp</text>
</a>
</g>
</g>
<!-- Node6&#45;&gt;Node10 -->
<g id="edge12" class="edge">
<title>Node6&#45;&gt;Node10</title>
<path fill="none" stroke="midnightblue" d="M591.31,-108.08C568.61,-97.28 540.97,-84.12 523.19,-75.66"/>
<polygon fill="midnightblue" stroke="midnightblue" points="589.84,-111.26 600.38,-112.4 592.85,-104.94 589.84,-111.26"/>
</g>
<!-- Node7&#45;&gt;Node3 -->
<g id="edge9" class="edge">
<title>Node7&#45;&gt;Node3</title>
<path fill="none" stroke="midnightblue" d="M1375.89,-58.86C1361.98,-57.82 1347.55,-56.81 1334,-56 961.71,-33.63 514.93,-18.42 346.61,-13.1"/>
<polygon fill="midnightblue" stroke="midnightblue" points="1375.67,-62.36 1385.91,-59.63 1376.2,-55.38 1375.67,-62.36"/>
</g>
<!-- Node7&#45;&gt;Node8 -->
<g id="edge10" class="edge">
<title>Node7&#45;&gt;Node8</title>
<path fill="none" stroke="midnightblue" d="M1477.01,-51.86C1497.59,-41.85 1525.34,-28.35 1543.21,-19.65"/>
<polygon fill="midnightblue" stroke="midnightblue" points="1475.3,-48.8 1467.83,-56.32 1478.36,-55.1 1475.3,-48.8"/>
</g>
<!-- Node9 -->
<g id="node9" class="node">
<title>Node9</title>
<g id="a_node9"><a xlink:href="play_8cpp.html" target="_top" xlink:title="Implementacao da classe Play.">
<polygon fill="white" stroke="black" points="1344.5,-0.5 1344.5,-19.5 1451.5,-19.5 1451.5,-0.5 1344.5,-0.5"/>
<text text-anchor="middle" x="1398" y="-7.5" font-family="Helvetica,sans-Serif" font-size="10.00">src/states/play.cpp</text>
</a>
</g>
</g>
<!-- Node7&#45;&gt;Node9 -->
<g id="edge11" class="edge">
<title>Node7&#45;&gt;Node9</title>
<path fill="none" stroke="midnightblue" d="M1434.32,-48.72C1425.16,-39.2 1413.95,-27.56 1406.43,-19.75"/>
<polygon fill="midnightblue" stroke="midnightblue" points="1431.96,-51.31 1441.41,-56.08 1437,-46.45 1431.96,-51.31"/>
</g>
<!-- Node11&#45;&gt;Node6 -->
<g id="edge18" class="edge">
<title>Node11&#45;&gt;Node6</title>
<path fill="none" stroke="midnightblue" d="M625.78,-244.54C634.59,-235.41 644.33,-223.17 649,-210 657.16,-187 646.43,-159.09 638.09,-142.62"/>
<polygon fill="midnightblue" stroke="midnightblue" points="623.14,-242.22 618.42,-251.71 628.03,-247.23 623.14,-242.22"/>
</g>
<!-- Node12 -->
<g id="node12" class="node">
<title>Node12</title>
<g id="a_node12"><a xlink:href="bird_8hpp.html" target="_top" xlink:title="Declaracao da classe Bird (personagem controlavel).">
<polygon fill="white" stroke="black" points="370.5,-185 370.5,-204 465.5,-204 465.5,-185 370.5,-185"/>
<text text-anchor="middle" x="418" y="-192" font-family="Helvetica,sans-Serif" font-size="10.00">include/bird.hpp</text>
</a>
</g>
</g>
<!-- Node11&#45;&gt;Node12 -->
<g id="edge14" class="edge">
<title>Node11&#45;&gt;Node12</title>
<path fill="none" stroke="midnightblue" d="M573.22,-248.6C535.55,-235.71 476.38,-215.47 443.03,-204.06"/>
<polygon fill="midnightblue" stroke="midnightblue" points="572.17,-251.94 582.77,-251.87 574.44,-245.32 572.17,-251.94"/>
</g>
<!-- Node11&#45;&gt;Node14 -->
<g id="edge19" class="edge">
<title>Node11&#45;&gt;Node14</title>
<path fill="none" stroke="midnightblue" d="M640.93,-248.27C675.66,-235.37 729.49,-215.38 759.94,-204.06"/>
<polygon fill="midnightblue" stroke="midnightblue" points="639.39,-245.11 631.24,-251.87 641.83,-251.67 639.39,-245.11"/>
</g>
<!-- Node16 -->
<g id="node16" class="node">
<title>Node16</title>
<g id="a_node16"><a xlink:href="game__object_8cpp.html" target="_top" xlink:title="Métodos utilitários da classe base GameObject.">
<polygon fill="white" stroke="black" points="522.5,-185 522.5,-204 639.5,-204 639.5,-185 522.5,-185"/>
<text text-anchor="middle" x="581" y="-192" font-family="Helvetica,sans-Serif" font-size="10.00">src/game_object.cpp</text>
</a>
</g>
</g>
<!-- Node11&#45;&gt;Node16 -->
<g id="edge22" class="edge">
<title>Node11&#45;&gt;Node16</title>
<path fill="none" stroke="midnightblue" d="M600.44,-242.29C595.25,-229.81 588.61,-213.81 584.58,-204.13"/>
<polygon fill="midnightblue" stroke="midnightblue" points="597.29,-243.84 604.36,-251.73 603.75,-241.16 597.29,-243.84"/>
</g>
<!-- Node12&#45;&gt;Node6 -->
<g id="edge15" class="edge">
<title>Node12&#45;&gt;Node6</title>
<path fill="none" stroke="midnightblue" d="M455.78,-181.92C491.73,-170.9 545.87,-154.29 584.25,-142.53"/>
<polygon fill="midnightblue" stroke="midnightblue" points="454.69,-178.59 446.15,-184.87 456.74,-185.28 454.69,-178.59"/>
</g>
<!-- Node12&#45;&gt;Node10 -->
<g id="edge17" class="edge">
<title>Node12&#45;&gt;Node10</title>
<path fill="none" stroke="midnightblue" d="M418.79,-174.67C420.36,-157.05 424.92,-130.71 438,-112 449.64,-95.35 469.59,-83.12 484.7,-75.65"/>
<polygon fill="midnightblue" stroke="midnightblue" points="415.29,-174.61 418.13,-184.82 422.27,-175.07 415.29,-174.61"/>
</g>
<!-- Node13 -->
<g id="node13" class="node">
<title>Node13</title>
<g id="a_node13"><a xlink:href="bird_8cpp.html" target="_top" xlink:title="Implementação da classe Bird (animação, física e colisões).">
<polygon fill="white" stroke="black" points="446.5,-118 446.5,-137 519.5,-137 519.5,-118 446.5,-118"/>
<text text-anchor="middle" x="483" y="-125" font-family="Helvetica,sans-Serif" font-size="10.00">src/bird.cpp</text>
</a>
</g>
</g>
<!-- Node12&#45;&gt;Node13 -->
<g id="edge16" class="edge">
<title>Node12&#45;&gt;Node13</title>
<path fill="none" stroke="midnightblue" d="M434,-177.5C446.75,-164.75 464.11,-147.39 474.37,-137.13"/>
<polygon fill="midnightblue" stroke="midnightblue" points="431.36,-175.19 426.77,-184.73 436.31,-180.14 431.36,-175.19"/>
</g>
<!-- Node14&#45;&gt;Node6 -->
<g id="edge20" class="edge">
<title>Node14&#45;&gt;Node6</title>
<path fill="none" stroke="midnightblue" d="M753.37,-180.91C727.46,-169.91 689.89,-153.94 663.02,-142.53"/>
<polygon fill="midnightblue" stroke="midnightblue" points="752.11,-184.18 762.68,-184.87 754.85,-177.74 752.11,-184.18"/>
</g>
<!-- Node15 -->
<g id="node15" class="node">
<title>Node15</title>
<g id="a_node15"><a xlink:href="pipe_8cpp.html" target="_top" xlink:title="Implementação das classes Pipe, PipePair e PipeList.">
<polygon fill="white" stroke="black" points="745.5,-118 745.5,-137 820.5,-137 820.5,-118 745.5,-118"/>
<text text-anchor="middle" x="783" y="-125" font-family="Helvetica,sans-Serif" font-size="10.00">src/pipe.cpp</text>
</a>
</g>
</g>
<!-- Node14&#45;&gt;Node15 -->
<g id="edge21" class="edge">
<title>Node14&#45;&gt;Node15</title>
<path fill="none" stroke="midnightblue" d="M783,-174.54C783,-162.17 783,-146.62 783,-137.13"/>
<polygon fill="midnightblue" stroke="midnightblue" points="779.5,-174.73 783,-184.73 786.5,-174.73 779.5,-174.73"/>
</g>
<!-- Node17&#45;&gt;Node5 -->
<g id="edge26" class="edge">
<title>Node17&#45;&gt;Node5</title>
<path fill="none" stroke="midnightblue" d="M521.56,-273.2C527.47,-274.51 533.37,-275.81 539,-277 603.29,-290.6 677.92,-304.72 722.87,-313.44"/>
<polygon fill="midnightblue" stroke="midnightblue" points="522.18,-269.76 511.66,-271 520.66,-276.59 522.18,-269.76"/>
</g>
<!-- Node17&#45;&gt;Node6 -->
<g id="edge25" class="edge">
<title>Node17&#45;&gt;Node6</title>
<path fill="none" stroke="midnightblue" d="M473.58,-242.23C480.94,-224.07 494.45,-196.47 514,-179 532.59,-162.39 557.5,-150.58 579.47,-142.58"/>
<polygon fill="midnightblue" stroke="midnightblue" points="470.27,-241.09 469.96,-251.68 476.8,-243.6 470.27,-241.09"/>
</g>
<!-- Node17&#45;&gt;Node18 -->
<g id="edge27" class="edge">
<title>Node17&#45;&gt;Node18</title>
<path fill="none" stroke="midnightblue" d="M436.68,-247.95C405.6,-235.08 358.07,-215.4 330.93,-204.17"/>
<polygon fill="midnightblue" stroke="midnightblue" points="435.57,-251.28 446.15,-251.87 438.25,-244.81 435.57,-251.28"/>
</g>
<!-- Node19&#45;&gt;Node20 -->
<g id="edge29" class="edge">
<title>Node19&#45;&gt;Node20</title>
<path fill="none" stroke="midnightblue" d="M948.66,-236.4C947.41,-227.37 946.03,-217.41 944.95,-209.58"/>
<polygon fill="midnightblue" stroke="midnightblue" points="945.21,-236.97 950.05,-246.4 952.14,-236.01 945.21,-236.97"/>
</g>
<!-- Node19&#45;&gt;Node21 -->
<g id="edge30" class="edge">
<title>Node19&#45;&gt;Node21</title>
<path fill="none" stroke="midnightblue" d="M1022.44,-244.15C1077.38,-231.39 1151.49,-214.19 1195.26,-204.03"/>
<polygon fill="midnightblue" stroke="midnightblue" points="1021.36,-240.81 1012.41,-246.48 1022.94,-247.62 1021.36,-240.81"/>
</g>
<!-- Node22&#45;&gt;Node21 -->
<g id="edge33" class="edge">
<title>Node22&#45;&gt;Node21</title>
<path fill="none" stroke="midnightblue" d="M1144.69,-241.64C1168.22,-229.2 1197.91,-213.51 1215.9,-204.01"/>
<polygon fill="midnightblue" stroke="midnightblue" points="1142.9,-238.63 1135.69,-246.4 1146.17,-244.82 1142.9,-238.63"/>
</g>
<!-- Node22&#45;&gt;Node23 -->
<g id="edge32" class="edge">
<title>Node22&#45;&gt;Node23</title>
<path fill="none" stroke="midnightblue" d="M1098.28,-237.28C1094.01,-228.02 1089.23,-217.66 1085.5,-209.58"/>
<polygon fill="midnightblue" stroke="midnightblue" points="1095.12,-238.78 1102.49,-246.4 1101.48,-235.85 1095.12,-238.78"/>
</g>
<!-- Node24&#45;&gt;Node8 -->
<g id="edge35" class="edge">
<title>Node24&#45;&gt;Node8</title>
<path fill="none" stroke="midnightblue" d="M1610.6,-236.11C1613.86,-196.84 1616.57,-117.73 1594,-56 1588.81,-41.81 1577.69,-28.2 1569.8,-19.74"/>
<polygon fill="midnightblue" stroke="midnightblue" points="1607.09,-236.03 1609.66,-246.31 1614.06,-236.67 1607.09,-236.03"/>
</g>
<!-- Node24&#45;&gt;Node21 -->
<g id="edge36" class="edge">
<title>Node24&#45;&gt;Node21</title>
<path fill="none" stroke="midnightblue" d="M1543.56,-245.78C1450.55,-227.82 1353.23,-212.9 1292.21,-204"/>
<polygon fill="midnightblue" stroke="midnightblue" points="1542.93,-249.23 1553.41,-247.7 1544.26,-242.36 1542.93,-249.23"/>
</g>
<!-- Node25&#45;&gt;Node3 -->
<g id="edge38" class="edge">
<title>Node25&#45;&gt;Node3</title>
<path fill="none" stroke="midnightblue" d="M1309.83,-237.75C1319.43,-219.88 1327.8,-195.36 1314,-179 1104.67,69.13 914.73,-106.22 594,-56 506.68,-42.33 405.5,-28.22 341.63,-19.53"/>
<polygon fill="midnightblue" stroke="midnightblue" points="1306.79,-236.01 1304.81,-246.41 1312.85,-239.52 1306.79,-236.01"/>
</g>
<!-- Node25&#45;&gt;Node8 -->
<g id="edge41" class="edge">
<title>Node25&#45;&gt;Node8</title>
<path fill="none" stroke="midnightblue" d="M1329.52,-241.31C1394.44,-204.46 1530.47,-123.22 1556,-76 1565.8,-57.88 1564.19,-32.67 1562.44,-19.61"/>
<polygon fill="midnightblue" stroke="midnightblue" points="1327.47,-238.46 1320.48,-246.42 1330.91,-244.55 1327.47,-238.46"/>
</g>
<!-- Node25&#45;&gt;Node9 -->
<g id="edge43" class="edge">
<title>Node25&#45;&gt;Node9</title>
<path fill="none" stroke="midnightblue" d="M1322.57,-239.56C1331.66,-231.3 1340.98,-221.13 1347,-210 1380.2,-148.68 1355.43,-122.31 1377,-56 1381.27,-42.88 1388.4,-28.58 1393.16,-19.7"/>
<polygon fill="midnightblue" stroke="midnightblue" points="1320.03,-237.13 1314.73,-246.3 1324.6,-242.44 1320.03,-237.13"/>
</g>
<!-- Node25&#45;&gt;Node20 -->
<g id="edge39" class="edge">
<title>Node25&#45;&gt;Node20</title>
<path fill="none" stroke="midnightblue" d="M1228.32,-249.65C1170.05,-239.95 1083.24,-225 1008,-210 1004.83,-209.37 1001.57,-208.7 998.28,-208.01"/>
<polygon fill="midnightblue" stroke="midnightblue" points="1228.06,-253.15 1238.5,-251.33 1229.2,-246.25 1228.06,-253.15"/>
</g>
<!-- Node25&#45;&gt;Node21 -->
<g id="edge42" class="edge">
<title>Node25&#45;&gt;Node21</title>
<path fill="none" stroke="midnightblue" d="M1274.16,-239C1262.66,-227.13 1249.01,-213.05 1240.43,-204.19"/>
<polygon fill="midnightblue" stroke="midnightblue" points="1271.86,-241.65 1281.33,-246.4 1276.88,-236.78 1271.86,-241.65"/>
</g>
<!-- Node25&#45;&gt;Node23 -->
<g id="edge40" class="edge">
<title>Node25&#45;&gt;Node23</title>
<path fill="none" stroke="midnightblue" d="M1238.77,-243.58C1203.69,-233.02 1159.06,-219.59 1125.89,-209.61"/>
<polygon fill="midnightblue" stroke="midnightblue" points="1237.81,-246.95 1248.4,-246.48 1239.83,-240.24 1237.81,-246.95"/>
</g>
<!-- Node25&#45;&gt;Node26 -->
<g id="edge44" class="edge">
<title>Node25&#45;&gt;Node26</title>
<path fill="none" stroke="midnightblue" d="M1348.15,-243.23C1380.5,-232.71 1421.31,-219.45 1451.69,-209.58"/>
<polygon fill="midnightblue" stroke="midnightblue" points="1346.83,-239.98 1338.4,-246.4 1348.99,-246.63 1346.83,-239.98"/>
</g>
<!-- Node27&#45;&gt;Node21 -->
<g id="edge46" class="edge">
<title>Node27&#45;&gt;Node21</title>
<path fill="none" stroke="midnightblue" d="M1410.45,-243.83C1363.48,-231.11 1300.7,-214.11 1263.49,-204.03"/>
<polygon fill="midnightblue" stroke="midnightblue" points="1409.65,-247.24 1420.22,-246.48 1411.48,-240.48 1409.65,-247.24"/>
</g>
<!-- Node27&#45;&gt;Node26 -->
<g id="edge47" class="edge">
<title>Node27&#45;&gt;Node26</title>
<path fill="none" stroke="midnightblue" d="M1480.42,-236.7C1483.65,-227.59 1487.22,-217.49 1490.02,-209.58"/>
<polygon fill="midnightblue" stroke="midnightblue" points="1477.03,-235.8 1476.99,-246.4 1483.63,-238.14 1477.03,-235.8"/>
</g>
</g>
</svg>
